G04 (created by PCBNEW (2013-07-07 BZR 4022)-stable) date 24/11/2015 00:30:32*
%MOIN*%
G04 Gerber Fmt 3.4, Leading zero omitted, Abs format*
%FSLAX34Y34*%
G01*
G70*
G90*
G04 APERTURE LIST*
%ADD10C,0.00590551*%
%ADD11C,0.0077*%
G04 APERTURE END LIST*
G54D10*
G54D11*
X75944Y-47519D02*
X75944Y-56574D01*
X62440Y-47519D02*
X62440Y-56574D01*
X76889Y-46653D02*
X76889Y-57519D01*
X63464Y-46653D02*
X74921Y-46653D01*
X61496Y-57519D02*
X61496Y-46653D01*
X74921Y-57519D02*
X63464Y-57519D01*
X62440Y-56574D02*
X75944Y-56574D01*
X59448Y-59291D02*
X78858Y-59291D01*
X59448Y-44881D02*
X59448Y-59291D01*
X78858Y-44881D02*
X59448Y-44881D01*
X78858Y-59291D02*
X78858Y-44881D01*
X62440Y-47519D02*
X76023Y-47519D01*
X61496Y-46653D02*
X62440Y-46653D01*
X62440Y-57519D02*
X61496Y-57519D01*
X76889Y-46653D02*
X75944Y-46653D01*
X75944Y-57519D02*
X76889Y-57519D01*
X75944Y-56574D02*
X75944Y-57519D01*
X62440Y-56574D02*
X62440Y-57519D01*
X63464Y-57519D02*
X63464Y-56574D01*
X62440Y-47519D02*
X62440Y-46653D01*
X63464Y-46653D02*
X63464Y-47519D01*
X74921Y-47519D02*
X74921Y-46653D01*
X75944Y-47519D02*
X75944Y-46653D01*
X74921Y-56574D02*
X74921Y-57519D01*
M02*
