M48
;DRILL file {Pcbnew (2013-07-07 BZR 4022)-stable} date 24/11/2015 00:30:40
;FORMAT={-:-/ absolute / metric / decimal}
FMAT,2
METRIC,TZ
T1C0.200
T2C0.300
%
G90
G05
M71
T1
X159.7Y-126.
X159.7Y-126.8
X159.7Y-127.6
X159.7Y-128.4
X159.7Y-129.2
X159.7Y-130.
X159.7Y-130.8
X159.7Y-131.6
X159.7Y-134.
X159.7Y-134.8
X160.2Y-122.6
X160.2Y-123.4
X160.2Y-124.2
X160.2Y-124.8
X160.2Y-126.4
X160.2Y-127.2
X160.2Y-128.
X160.2Y-128.8
X160.2Y-129.6
X160.2Y-130.4
X160.2Y-131.2
X160.2Y-132.8
X160.2Y-134.4
X160.2Y-135.2
X160.2Y-135.8
X160.2Y-136.6
X160.2Y-137.2
X160.2Y-137.8
X160.2Y-138.6
X160.2Y-139.2
X160.2Y-140.4
X160.2Y-141.
X160.2Y-141.8
X162.45Y-122.6
X162.45Y-123.4
X162.45Y-124.2
X162.45Y-124.8
X162.45Y-125.6
X162.45Y-135.8
X162.45Y-136.6
X162.45Y-137.2
X162.45Y-137.8
X162.45Y-138.6
X162.45Y-139.2
X162.45Y-140.4
X162.45Y-141.
X162.45Y-141.8
X162.5Y-126.4
X162.5Y-127.2
X162.5Y-128.
X162.5Y-128.8
X162.5Y-129.6
X162.5Y-130.4
X162.5Y-131.2
X162.5Y-132.8
X162.5Y-134.6
X162.5Y-135.2
X164.7Y-122.6
X164.7Y-123.4
X164.7Y-124.
X164.7Y-124.8
X164.7Y-125.7
X164.7Y-126.8
X164.7Y-127.6
X164.7Y-128.4
X164.7Y-129.2
X164.7Y-130.
X164.7Y-130.8
X164.7Y-131.6
X164.7Y-135.8
X164.7Y-136.6
X164.7Y-137.2
X164.7Y-137.8
X164.7Y-138.6
X164.7Y-139.2
X164.7Y-140.4
X164.7Y-141.
X164.7Y-141.8
X165.85Y-125.05
X166.75Y-123.1
X167.05Y-137.85
X167.1Y-130.2
X167.1Y-131.25
X167.1Y-132.2
X167.1Y-133.2
X167.1Y-134.2
X167.1Y-135.25
X167.25Y-123.85
X167.25Y-126.2
X167.8Y-128.5
X167.8Y-129.1
X167.8Y-129.7
X167.8Y-130.7
X167.8Y-131.7
X167.8Y-132.7
X167.8Y-133.7
X167.8Y-134.7
X167.8Y-135.7
X168.15Y-125.2
X168.35Y-126.3
X168.7Y-136.55
X169.Y-135.95
X169.05Y-122.25
X169.05Y-142.15
X169.2Y-137.15
X169.2Y-138.6
X169.2Y-141.2
X169.25Y-124.35
X169.45Y-128.95
X169.45Y-129.45
X169.45Y-129.95
X169.45Y-130.45
X169.45Y-130.95
X169.45Y-131.45
X169.45Y-131.95
X169.45Y-132.45
X169.45Y-132.95
X169.45Y-133.45
X169.45Y-133.95
X169.45Y-134.45
X169.45Y-134.95
X169.45Y-135.45
X169.7Y-123.45
X169.95Y-135.5
X170.05Y-126.05
X170.1Y-137.15
X170.2Y-127.35
X170.2Y-139.3
X170.65Y-122.25
X170.65Y-142.15
X170.95Y-124.35
X170.95Y-135.5
X171.Y-128.95
X171.05Y-139.3
X171.05Y-140.55
X171.45Y-135.5
X171.85Y-137.3
X171.85Y-141.2
X172.45Y-135.5
X172.75Y-141.2
X172.95Y-128.95
X173.45Y-128.95
X173.95Y-128.95
X174.Y-137.4
X174.05Y-122.25
X174.05Y-142.15
X174.8Y-127.1
X174.85Y-137.2
X174.85Y-140.95
X174.95Y-128.95
X174.95Y-135.5
X175.45Y-135.5
X175.55Y-141.1
X175.6Y-123.65
X175.75Y-127.3
X176.Y-129.45
X176.Y-129.95
X176.Y-130.45
X176.Y-131.475
X176.Y-131.95
X176.Y-132.975
X176.Y-133.475
X176.Y-133.975
X176.Y-134.45
X176.Y-134.95
X176.Y-135.45
X176.2Y-137.1
X176.4Y-128.45
X176.5Y-127.3
X177.Y-141.35
X177.25Y-136.85
X177.55Y-129.2
X177.55Y-129.8
X177.6Y-131.55
X177.6Y-132.125
X177.6Y-132.7
X177.6Y-133.25
X177.6Y-133.85
X177.6Y-135.2
X177.6Y-135.85
X177.8Y-130.5
X178.15Y-122.25
X178.15Y-142.15
X178.8Y-127.75
X179.Y-125.6
X179.Y-134.55
X179.35Y-126.85
X179.5Y-136.8
X179.55Y-125.6
X179.6Y-138.9
X179.7Y-132.2
X179.75Y-137.9
X179.8Y-130.5
X179.8Y-133.7
X179.9Y-124.35
X180.Y-128.
X180.15Y-138.9
X180.35Y-138.275
X180.35Y-139.4
X180.45Y-137.6
X180.55Y-131.7
X180.55Y-133.7
X180.65Y-128.7
X180.7Y-135.45
X180.8Y-136.25
X181.05Y-123.65
X181.55Y-122.25
X181.55Y-142.15
X181.95Y-133.7
X182.05Y-131.7
X182.05Y-132.45
X182.15Y-130.85
X182.2Y-124.35
X182.2Y-125.6
X182.4Y-129.65
X182.45Y-123.55
X182.75Y-137.6
X182.75Y-138.85
X182.85Y-134.5
X182.85Y-135.45
X182.85Y-136.25
X183.05Y-124.95
X183.15Y-122.25
X183.15Y-142.15
X183.2Y-128.2
X183.2Y-137.
X183.5Y-134.5
X183.85Y-133.05
X184.1Y-131.7
X184.45Y-129.3
X184.55Y-123.55
X185.45Y-123.1
X186.35Y-130.15
X186.35Y-134.25
X187.25Y-122.25
X187.25Y-123.1
X187.25Y-128.45
X187.25Y-135.95
X187.25Y-141.3
X187.25Y-142.15
X188.9Y-124.4
X188.9Y-127.4
X188.9Y-137.
X188.9Y-140.
X190.4Y-123.6
X190.4Y-125.3
X190.4Y-126.55
X190.4Y-128.2
X190.4Y-136.2
X190.4Y-137.9
X190.4Y-139.1
X190.4Y-140.8
X191.3Y-123.6
X191.3Y-128.2
X191.3Y-136.2
X191.3Y-140.8
X191.9Y-124.4
X191.9Y-125.1
X191.9Y-126.7
X191.9Y-127.4
X191.9Y-137.
X191.9Y-137.7
X191.9Y-139.3
X191.9Y-140.
T2
X170.3Y-129.8
X170.3Y-130.6
X170.3Y-131.4
X170.3Y-132.2
X170.3Y-133.
X170.3Y-133.8
X170.3Y-134.6
X171.1Y-129.8
X171.1Y-130.6
X171.1Y-131.4
X171.1Y-132.2
X171.1Y-133.
X171.1Y-133.8
X171.1Y-134.6
X171.9Y-129.8
X171.9Y-130.6
X171.9Y-131.4
X171.9Y-132.2
X171.9Y-133.
X171.9Y-133.8
X171.9Y-134.6
X172.7Y-129.8
X172.7Y-130.6
X172.7Y-131.4
X172.7Y-132.2
X172.7Y-133.
X172.7Y-133.8
X172.7Y-134.6
X173.5Y-129.8
X173.5Y-130.6
X173.5Y-131.4
X173.5Y-132.2
X173.5Y-133.
X173.5Y-133.8
X173.5Y-134.6
X174.3Y-129.8
X174.3Y-130.6
X174.3Y-131.4
X174.3Y-132.2
X174.3Y-133.
X174.3Y-133.8
X174.3Y-134.6
X175.1Y-129.8
X175.1Y-130.6
X175.1Y-131.4
X175.1Y-132.2
X175.1Y-133.
X175.1Y-133.8
X175.1Y-134.6
T0
M30
