G04 (created by PCBNEW (2013-07-07 BZR 4022)-stable) date 24/11/2015 00:30:32*
%MOIN*%
G04 Gerber Fmt 3.4, Leading zero omitted, Abs format*
%FSLAX34Y34*%
G01*
G70*
G90*
G04 APERTURE LIST*
%ADD10C,0.00590551*%
%ADD11C,0.00984252*%
%ADD12C,0.00787402*%
%ADD13C,0.0077*%
%ADD14C,0.0078*%
%ADD15C,0.019685*%
G04 APERTURE END LIST*
G54D10*
G54D11*
X64116Y-52010D02*
X64116Y-52123D01*
X64145Y-52179D01*
X64173Y-52207D01*
X64257Y-52263D01*
X64370Y-52291D01*
X64595Y-52291D01*
X64651Y-52263D01*
X64679Y-52235D01*
X64707Y-52179D01*
X64707Y-52066D01*
X64679Y-52010D01*
X64651Y-51982D01*
X64595Y-51954D01*
X64454Y-51954D01*
X64398Y-51982D01*
X64370Y-52010D01*
X64341Y-52066D01*
X64341Y-52179D01*
X64370Y-52235D01*
X64398Y-52263D01*
X64454Y-52291D01*
X64116Y-51588D02*
X64116Y-51532D01*
X64145Y-51476D01*
X64173Y-51448D01*
X64229Y-51420D01*
X64341Y-51392D01*
X64482Y-51392D01*
X64595Y-51420D01*
X64651Y-51448D01*
X64679Y-51476D01*
X64707Y-51532D01*
X64707Y-51588D01*
X64679Y-51645D01*
X64651Y-51673D01*
X64595Y-51701D01*
X64482Y-51729D01*
X64341Y-51729D01*
X64229Y-51701D01*
X64173Y-51673D01*
X64145Y-51645D01*
X64116Y-51588D01*
X64116Y-51026D02*
X64116Y-50970D01*
X64145Y-50913D01*
X64173Y-50885D01*
X64229Y-50857D01*
X64341Y-50829D01*
X64482Y-50829D01*
X64595Y-50857D01*
X64651Y-50885D01*
X64679Y-50913D01*
X64707Y-50970D01*
X64707Y-51026D01*
X64679Y-51082D01*
X64651Y-51110D01*
X64595Y-51138D01*
X64482Y-51167D01*
X64341Y-51167D01*
X64229Y-51138D01*
X64173Y-51110D01*
X64145Y-51082D01*
X64116Y-51026D01*
X64173Y-50604D02*
X64145Y-50576D01*
X64116Y-50520D01*
X64116Y-50379D01*
X64145Y-50323D01*
X64173Y-50295D01*
X64229Y-50267D01*
X64285Y-50267D01*
X64370Y-50295D01*
X64707Y-50632D01*
X64707Y-50267D01*
X62848Y-47928D02*
X62942Y-48190D01*
X63036Y-47928D01*
X63167Y-47834D02*
X63186Y-47815D01*
X63223Y-47797D01*
X63317Y-47797D01*
X63354Y-47815D01*
X63373Y-47834D01*
X63392Y-47872D01*
X63392Y-47909D01*
X63373Y-47965D01*
X63148Y-48190D01*
X63392Y-48190D01*
X63408Y-53062D02*
X63802Y-53062D01*
X63408Y-53315D02*
X63717Y-53315D01*
X63773Y-53287D01*
X63802Y-53231D01*
X63802Y-53146D01*
X63773Y-53090D01*
X63745Y-53062D01*
X63802Y-52781D02*
X63211Y-52781D01*
X63633Y-52584D01*
X63211Y-52387D01*
X63802Y-52387D01*
X63408Y-52162D02*
X63802Y-52021D01*
X63408Y-51881D02*
X63802Y-52021D01*
X63942Y-52078D01*
X63970Y-52106D01*
X63998Y-52162D01*
X63802Y-51656D02*
X63408Y-51656D01*
X63520Y-51656D02*
X63464Y-51628D01*
X63436Y-51600D01*
X63408Y-51543D01*
X63408Y-51487D01*
X63802Y-51290D02*
X63408Y-51290D01*
X63211Y-51290D02*
X63239Y-51318D01*
X63267Y-51290D01*
X63239Y-51262D01*
X63211Y-51290D01*
X63267Y-51290D01*
X63802Y-50756D02*
X63492Y-50756D01*
X63436Y-50784D01*
X63408Y-50840D01*
X63408Y-50953D01*
X63436Y-51009D01*
X63773Y-50756D02*
X63802Y-50812D01*
X63802Y-50953D01*
X63773Y-51009D01*
X63717Y-51037D01*
X63661Y-51037D01*
X63605Y-51009D01*
X63577Y-50953D01*
X63577Y-50812D01*
X63548Y-50756D01*
X63802Y-50222D02*
X63211Y-50222D01*
X63773Y-50222D02*
X63802Y-50278D01*
X63802Y-50390D01*
X63773Y-50447D01*
X63745Y-50475D01*
X63689Y-50503D01*
X63520Y-50503D01*
X63464Y-50475D01*
X63436Y-50447D01*
X63408Y-50390D01*
X63408Y-50278D01*
X63436Y-50222D01*
X63802Y-49603D02*
X63520Y-49800D01*
X63802Y-49940D02*
X63211Y-49940D01*
X63211Y-49715D01*
X63239Y-49659D01*
X63267Y-49631D01*
X63323Y-49603D01*
X63408Y-49603D01*
X63464Y-49631D01*
X63492Y-49659D01*
X63520Y-49715D01*
X63520Y-49940D01*
X63492Y-49153D02*
X63492Y-49350D01*
X63802Y-49350D02*
X63211Y-49350D01*
X63211Y-49069D01*
G54D12*
X74347Y-53119D02*
X74527Y-53119D01*
X74437Y-53434D02*
X74437Y-53119D01*
X74602Y-53119D02*
X74812Y-53434D01*
X74812Y-53119D02*
X74602Y-53434D01*
X75352Y-53434D02*
X75247Y-53284D01*
X75172Y-53434D02*
X75172Y-53119D01*
X75292Y-53119D01*
X75322Y-53134D01*
X75337Y-53149D01*
X75352Y-53179D01*
X75352Y-53224D01*
X75337Y-53254D01*
X75322Y-53269D01*
X75292Y-53284D01*
X75172Y-53284D01*
X75592Y-53269D02*
X75487Y-53269D01*
X75487Y-53434D02*
X75487Y-53119D01*
X75637Y-53119D01*
X74495Y-50954D02*
X74390Y-50804D01*
X74315Y-50954D02*
X74315Y-50639D01*
X74435Y-50639D01*
X74465Y-50654D01*
X74480Y-50669D01*
X74495Y-50699D01*
X74495Y-50744D01*
X74480Y-50774D01*
X74465Y-50789D01*
X74435Y-50804D01*
X74315Y-50804D01*
X74600Y-50639D02*
X74810Y-50954D01*
X74810Y-50639D02*
X74600Y-50954D01*
X75350Y-50954D02*
X75245Y-50804D01*
X75170Y-50954D02*
X75170Y-50639D01*
X75290Y-50639D01*
X75320Y-50654D01*
X75335Y-50669D01*
X75350Y-50699D01*
X75350Y-50744D01*
X75335Y-50774D01*
X75320Y-50789D01*
X75290Y-50804D01*
X75170Y-50804D01*
X75590Y-50789D02*
X75485Y-50789D01*
X75485Y-50954D02*
X75485Y-50639D01*
X75635Y-50639D01*
X63078Y-56141D02*
X63078Y-55901D01*
X63198Y-56021D02*
X62958Y-56021D01*
X62883Y-55781D02*
X62883Y-55586D01*
X63003Y-55691D01*
X63003Y-55646D01*
X63018Y-55616D01*
X63033Y-55601D01*
X63063Y-55586D01*
X63138Y-55586D01*
X63168Y-55601D01*
X63183Y-55616D01*
X63198Y-55646D01*
X63198Y-55736D01*
X63183Y-55766D01*
X63168Y-55781D01*
X63168Y-55451D02*
X63183Y-55436D01*
X63198Y-55451D01*
X63183Y-55466D01*
X63168Y-55451D01*
X63198Y-55451D01*
X62883Y-55331D02*
X62883Y-55136D01*
X63003Y-55241D01*
X63003Y-55196D01*
X63018Y-55166D01*
X63033Y-55151D01*
X63063Y-55136D01*
X63138Y-55136D01*
X63168Y-55151D01*
X63183Y-55166D01*
X63198Y-55196D01*
X63198Y-55286D01*
X63183Y-55316D01*
X63168Y-55331D01*
X62883Y-55046D02*
X63198Y-54941D01*
X62883Y-54836D01*
G54D13*
X64213Y-54763D02*
X64369Y-54763D01*
X71181Y-52205D02*
X71181Y-52361D01*
X67735Y-55118D02*
X67579Y-55118D01*
X67735Y-54448D02*
X67579Y-54448D01*
X71417Y-50965D02*
X71417Y-51121D01*
X70138Y-53149D02*
X70294Y-53149D01*
X71594Y-52874D02*
X71594Y-53030D01*
X70294Y-50846D02*
X70138Y-50846D01*
X63425Y-54409D02*
X63581Y-54409D01*
X68946Y-54379D02*
X68750Y-54379D01*
X68750Y-54970D02*
X68946Y-54970D01*
X70728Y-50591D02*
X70728Y-50747D01*
X70728Y-50965D02*
X70728Y-51121D01*
X70393Y-51299D02*
X70393Y-51455D01*
X69399Y-54439D02*
X69399Y-54595D01*
X72381Y-55099D02*
X72381Y-55255D01*
X69202Y-49203D02*
X69202Y-49359D01*
X68406Y-54675D02*
X68562Y-54675D01*
X69202Y-49538D02*
X69202Y-49694D01*
X70905Y-52874D02*
X70905Y-53030D01*
X70393Y-52559D02*
X70393Y-52715D01*
X67420Y-54448D02*
X67264Y-54448D01*
X72244Y-49862D02*
X72244Y-50018D01*
X69399Y-54754D02*
X69399Y-54910D01*
X70748Y-53248D02*
X70748Y-53404D01*
G54D12*
X74055Y-55433D02*
X74055Y-54094D01*
X74055Y-54094D02*
X74409Y-53622D01*
X75511Y-55433D02*
X75866Y-55433D01*
X75866Y-55433D02*
X75866Y-55196D01*
X75866Y-53622D02*
X74409Y-53622D01*
X74055Y-55433D02*
X75511Y-55433D01*
X75866Y-55196D02*
X75866Y-53622D01*
X74055Y-50472D02*
X74055Y-49133D01*
X74055Y-49133D02*
X74409Y-48661D01*
X75511Y-50472D02*
X75866Y-50472D01*
X75866Y-50472D02*
X75866Y-50236D01*
X75866Y-48661D02*
X74409Y-48661D01*
X74055Y-50472D02*
X75511Y-50472D01*
X75866Y-50236D02*
X75866Y-48661D01*
G54D14*
X66296Y-53606D02*
X66296Y-53768D01*
X66296Y-53768D02*
X66453Y-53768D01*
X69691Y-53765D02*
X69535Y-53765D01*
X69691Y-53603D02*
X69691Y-53765D01*
X69523Y-50356D02*
X69686Y-50356D01*
X69686Y-50356D02*
X69686Y-50513D01*
X66257Y-50528D02*
X66468Y-50317D01*
G54D12*
X63661Y-56023D02*
X63346Y-56023D01*
G54D15*
X71584Y-53690D02*
G75*
G03X71584Y-53690I-78J0D01*
G74*
G01*
G54D12*
X71938Y-55423D02*
X69812Y-55423D01*
X71938Y-53927D02*
X69812Y-53927D01*
X71938Y-53927D02*
X71938Y-55423D01*
X69812Y-55423D02*
X69812Y-53927D01*
G54D15*
X71358Y-48464D02*
G75*
G03X71358Y-48464I-78J0D01*
G74*
G01*
G54D12*
X71712Y-50196D02*
X69586Y-50196D01*
X71712Y-48700D02*
X69586Y-48700D01*
X71712Y-48700D02*
X71712Y-50196D01*
X69586Y-50196D02*
X69586Y-48700D01*
G54D13*
X72519Y-49409D02*
X72323Y-49409D01*
X72244Y-48719D02*
X72244Y-48563D01*
X72244Y-49034D02*
X72244Y-48878D01*
G54D12*
X64812Y-54966D02*
X64662Y-55071D01*
X64812Y-55146D02*
X64497Y-55146D01*
X64497Y-55026D01*
X64512Y-54996D01*
X64527Y-54981D01*
X64557Y-54966D01*
X64602Y-54966D01*
X64632Y-54981D01*
X64647Y-54996D01*
X64662Y-55026D01*
X64662Y-55146D01*
X64497Y-54861D02*
X64497Y-54666D01*
X64617Y-54771D01*
X64617Y-54726D01*
X64632Y-54696D01*
X64647Y-54681D01*
X64677Y-54666D01*
X64752Y-54666D01*
X64782Y-54681D01*
X64797Y-54696D01*
X64812Y-54726D01*
X64812Y-54816D01*
X64797Y-54846D01*
X64782Y-54861D01*
X64497Y-54381D02*
X64497Y-54531D01*
X64647Y-54546D01*
X64632Y-54531D01*
X64617Y-54501D01*
X64617Y-54426D01*
X64632Y-54396D01*
X64647Y-54381D01*
X64677Y-54366D01*
X64752Y-54366D01*
X64782Y-54381D01*
X64797Y-54396D01*
X64812Y-54426D01*
X64812Y-54501D01*
X64797Y-54531D01*
X64782Y-54546D01*
G54D10*
X71659Y-52398D02*
X71580Y-52286D01*
X71524Y-52398D02*
X71524Y-52162D01*
X71614Y-52162D01*
X71636Y-52173D01*
X71647Y-52185D01*
X71659Y-52207D01*
X71659Y-52241D01*
X71647Y-52263D01*
X71636Y-52275D01*
X71614Y-52286D01*
X71524Y-52286D01*
X71861Y-52241D02*
X71861Y-52398D01*
X71805Y-52151D02*
X71749Y-52320D01*
X71895Y-52320D01*
X71962Y-52162D02*
X72109Y-52162D01*
X72030Y-52252D01*
X72064Y-52252D01*
X72086Y-52263D01*
X72097Y-52275D01*
X72109Y-52297D01*
X72109Y-52353D01*
X72097Y-52376D01*
X72086Y-52387D01*
X72064Y-52398D01*
X71996Y-52398D01*
X71974Y-52387D01*
X71962Y-52376D01*
G54D12*
X67135Y-55249D02*
X66985Y-55354D01*
X67135Y-55429D02*
X66820Y-55429D01*
X66820Y-55309D01*
X66835Y-55279D01*
X66850Y-55264D01*
X66880Y-55249D01*
X66925Y-55249D01*
X66955Y-55264D01*
X66970Y-55279D01*
X66985Y-55309D01*
X66985Y-55429D01*
X66820Y-55144D02*
X66820Y-54934D01*
X67135Y-55069D01*
X67135Y-54501D02*
X66985Y-54606D01*
X67135Y-54681D02*
X66820Y-54681D01*
X66820Y-54561D01*
X66835Y-54531D01*
X66850Y-54516D01*
X66880Y-54501D01*
X66925Y-54501D01*
X66955Y-54516D01*
X66970Y-54531D01*
X66985Y-54561D01*
X66985Y-54681D01*
X66820Y-54231D02*
X66820Y-54291D01*
X66835Y-54321D01*
X66850Y-54336D01*
X66895Y-54366D01*
X66955Y-54381D01*
X67075Y-54381D01*
X67105Y-54366D01*
X67120Y-54351D01*
X67135Y-54321D01*
X67135Y-54261D01*
X67120Y-54231D01*
X67105Y-54216D01*
X67075Y-54201D01*
X67000Y-54201D01*
X66970Y-54216D01*
X66955Y-54231D01*
X66940Y-54261D01*
X66940Y-54321D01*
X66955Y-54351D01*
X66970Y-54366D01*
X67000Y-54381D01*
G54D10*
X72007Y-51158D02*
X71929Y-51046D01*
X71872Y-51158D02*
X71872Y-50922D01*
X71962Y-50922D01*
X71985Y-50933D01*
X71996Y-50944D01*
X72007Y-50967D01*
X72007Y-51001D01*
X71996Y-51023D01*
X71985Y-51034D01*
X71962Y-51046D01*
X71872Y-51046D01*
X72221Y-50922D02*
X72109Y-50922D01*
X72097Y-51034D01*
X72109Y-51023D01*
X72131Y-51012D01*
X72187Y-51012D01*
X72210Y-51023D01*
X72221Y-51034D01*
X72232Y-51057D01*
X72232Y-51113D01*
X72221Y-51136D01*
X72210Y-51147D01*
X72187Y-51158D01*
X72131Y-51158D01*
X72109Y-51147D01*
X72097Y-51136D01*
X70056Y-53188D02*
X69943Y-53267D01*
X70056Y-53323D02*
X69820Y-53323D01*
X69820Y-53233D01*
X69831Y-53211D01*
X69842Y-53200D01*
X69865Y-53188D01*
X69898Y-53188D01*
X69921Y-53200D01*
X69932Y-53211D01*
X69943Y-53233D01*
X69943Y-53323D01*
X70056Y-52964D02*
X70056Y-53098D01*
X70056Y-53031D02*
X69820Y-53031D01*
X69853Y-53053D01*
X69876Y-53076D01*
X69887Y-53098D01*
X71653Y-52772D02*
X71574Y-52660D01*
X71518Y-52772D02*
X71518Y-52536D01*
X71608Y-52536D01*
X71631Y-52547D01*
X71642Y-52559D01*
X71653Y-52581D01*
X71653Y-52615D01*
X71642Y-52637D01*
X71631Y-52649D01*
X71608Y-52660D01*
X71518Y-52660D01*
X71743Y-52559D02*
X71754Y-52547D01*
X71777Y-52536D01*
X71833Y-52536D01*
X71856Y-52547D01*
X71867Y-52559D01*
X71878Y-52581D01*
X71878Y-52604D01*
X71867Y-52637D01*
X71732Y-52772D01*
X71878Y-52772D01*
X70075Y-50885D02*
X69963Y-50964D01*
X70075Y-51020D02*
X69839Y-51020D01*
X69839Y-50930D01*
X69850Y-50908D01*
X69862Y-50897D01*
X69884Y-50885D01*
X69918Y-50885D01*
X69940Y-50897D01*
X69952Y-50908D01*
X69963Y-50930D01*
X69963Y-51020D01*
X69839Y-50807D02*
X69839Y-50660D01*
X69929Y-50739D01*
X69929Y-50705D01*
X69940Y-50683D01*
X69952Y-50672D01*
X69974Y-50660D01*
X70030Y-50660D01*
X70053Y-50672D01*
X70064Y-50683D01*
X70075Y-50705D01*
X70075Y-50773D01*
X70064Y-50795D01*
X70053Y-50807D01*
G54D12*
X63985Y-54611D02*
X63835Y-54716D01*
X63985Y-54791D02*
X63670Y-54791D01*
X63670Y-54671D01*
X63685Y-54641D01*
X63700Y-54626D01*
X63730Y-54611D01*
X63775Y-54611D01*
X63805Y-54626D01*
X63820Y-54641D01*
X63835Y-54671D01*
X63835Y-54791D01*
X63700Y-54491D02*
X63685Y-54476D01*
X63670Y-54446D01*
X63670Y-54371D01*
X63685Y-54341D01*
X63700Y-54326D01*
X63730Y-54311D01*
X63760Y-54311D01*
X63805Y-54326D01*
X63985Y-54506D01*
X63985Y-54311D01*
X63985Y-54011D02*
X63985Y-54191D01*
X63985Y-54101D02*
X63670Y-54101D01*
X63715Y-54131D01*
X63745Y-54161D01*
X63760Y-54191D01*
X68631Y-54166D02*
X68631Y-54316D01*
X68316Y-54316D01*
X68346Y-54076D02*
X68331Y-54061D01*
X68316Y-54031D01*
X68316Y-53956D01*
X68331Y-53926D01*
X68346Y-53911D01*
X68376Y-53896D01*
X68406Y-53896D01*
X68451Y-53911D01*
X68631Y-54091D01*
X68631Y-53896D01*
X68592Y-55328D02*
X68592Y-55478D01*
X68277Y-55478D01*
X68592Y-55058D02*
X68592Y-55238D01*
X68592Y-55148D02*
X68277Y-55148D01*
X68322Y-55178D01*
X68352Y-55208D01*
X68367Y-55238D01*
G54D10*
X71206Y-50604D02*
X71195Y-50615D01*
X71161Y-50627D01*
X71138Y-50627D01*
X71105Y-50615D01*
X71082Y-50593D01*
X71071Y-50570D01*
X71060Y-50525D01*
X71060Y-50492D01*
X71071Y-50447D01*
X71082Y-50424D01*
X71105Y-50402D01*
X71138Y-50390D01*
X71161Y-50390D01*
X71195Y-50402D01*
X71206Y-50413D01*
X71431Y-50627D02*
X71296Y-50627D01*
X71363Y-50627D02*
X71363Y-50390D01*
X71341Y-50424D01*
X71318Y-50447D01*
X71296Y-50458D01*
X71633Y-50469D02*
X71633Y-50627D01*
X71577Y-50379D02*
X71521Y-50548D01*
X71667Y-50548D01*
X71206Y-50880D02*
X71195Y-50891D01*
X71161Y-50902D01*
X71138Y-50902D01*
X71105Y-50891D01*
X71082Y-50868D01*
X71071Y-50846D01*
X71060Y-50801D01*
X71060Y-50767D01*
X71071Y-50722D01*
X71082Y-50700D01*
X71105Y-50677D01*
X71138Y-50666D01*
X71161Y-50666D01*
X71195Y-50677D01*
X71206Y-50688D01*
X71431Y-50902D02*
X71296Y-50902D01*
X71363Y-50902D02*
X71363Y-50666D01*
X71341Y-50700D01*
X71318Y-50722D01*
X71296Y-50733D01*
X71510Y-50666D02*
X71656Y-50666D01*
X71577Y-50756D01*
X71611Y-50756D01*
X71633Y-50767D01*
X71645Y-50778D01*
X71656Y-50801D01*
X71656Y-50857D01*
X71645Y-50880D01*
X71633Y-50891D01*
X71611Y-50902D01*
X71543Y-50902D01*
X71521Y-50891D01*
X71510Y-50880D01*
X70241Y-51746D02*
X70230Y-51757D01*
X70196Y-51768D01*
X70174Y-51768D01*
X70140Y-51757D01*
X70118Y-51735D01*
X70106Y-51712D01*
X70095Y-51667D01*
X70095Y-51633D01*
X70106Y-51588D01*
X70118Y-51566D01*
X70140Y-51543D01*
X70174Y-51532D01*
X70196Y-51532D01*
X70230Y-51543D01*
X70241Y-51555D01*
X70466Y-51768D02*
X70331Y-51768D01*
X70399Y-51768D02*
X70399Y-51532D01*
X70376Y-51566D01*
X70354Y-51588D01*
X70331Y-51600D01*
X70556Y-51555D02*
X70568Y-51543D01*
X70590Y-51532D01*
X70646Y-51532D01*
X70669Y-51543D01*
X70680Y-51555D01*
X70691Y-51577D01*
X70691Y-51600D01*
X70680Y-51633D01*
X70545Y-51768D01*
X70691Y-51768D01*
G54D12*
X69337Y-54310D02*
X69322Y-54325D01*
X69277Y-54340D01*
X69247Y-54340D01*
X69202Y-54325D01*
X69172Y-54295D01*
X69157Y-54265D01*
X69142Y-54205D01*
X69142Y-54160D01*
X69157Y-54100D01*
X69172Y-54070D01*
X69202Y-54040D01*
X69247Y-54025D01*
X69277Y-54025D01*
X69322Y-54040D01*
X69337Y-54055D01*
X69622Y-54025D02*
X69472Y-54025D01*
X69457Y-54175D01*
X69472Y-54160D01*
X69502Y-54145D01*
X69577Y-54145D01*
X69607Y-54160D01*
X69622Y-54175D01*
X69637Y-54205D01*
X69637Y-54280D01*
X69622Y-54310D01*
X69607Y-54325D01*
X69577Y-54340D01*
X69502Y-54340D01*
X69472Y-54325D01*
X69457Y-54310D01*
X72329Y-54959D02*
X72314Y-54974D01*
X72269Y-54989D01*
X72239Y-54989D01*
X72194Y-54974D01*
X72164Y-54944D01*
X72149Y-54914D01*
X72134Y-54854D01*
X72134Y-54809D01*
X72149Y-54749D01*
X72164Y-54719D01*
X72194Y-54689D01*
X72239Y-54674D01*
X72269Y-54674D01*
X72314Y-54689D01*
X72329Y-54704D01*
X72434Y-54674D02*
X72629Y-54674D01*
X72524Y-54794D01*
X72569Y-54794D01*
X72599Y-54809D01*
X72614Y-54824D01*
X72629Y-54854D01*
X72629Y-54929D01*
X72614Y-54959D01*
X72599Y-54974D01*
X72569Y-54989D01*
X72479Y-54989D01*
X72449Y-54974D01*
X72434Y-54959D01*
X69179Y-49054D02*
X69164Y-49069D01*
X69119Y-49084D01*
X69089Y-49084D01*
X69044Y-49069D01*
X69014Y-49039D01*
X68999Y-49009D01*
X68984Y-48949D01*
X68984Y-48904D01*
X68999Y-48844D01*
X69014Y-48814D01*
X69044Y-48784D01*
X69089Y-48769D01*
X69119Y-48769D01*
X69164Y-48784D01*
X69179Y-48799D01*
X69359Y-48904D02*
X69329Y-48889D01*
X69314Y-48874D01*
X69299Y-48844D01*
X69299Y-48829D01*
X69314Y-48799D01*
X69329Y-48784D01*
X69359Y-48769D01*
X69419Y-48769D01*
X69449Y-48784D01*
X69464Y-48799D01*
X69479Y-48829D01*
X69479Y-48844D01*
X69464Y-48874D01*
X69449Y-48889D01*
X69419Y-48904D01*
X69359Y-48904D01*
X69329Y-48919D01*
X69314Y-48934D01*
X69299Y-48964D01*
X69299Y-49024D01*
X69314Y-49054D01*
X69329Y-49069D01*
X69359Y-49084D01*
X69419Y-49084D01*
X69449Y-49069D01*
X69464Y-49054D01*
X69479Y-49024D01*
X69479Y-48964D01*
X69464Y-48934D01*
X69449Y-48919D01*
X69419Y-48904D01*
X68247Y-54737D02*
X68262Y-54752D01*
X68277Y-54797D01*
X68277Y-54827D01*
X68262Y-54872D01*
X68232Y-54902D01*
X68202Y-54917D01*
X68142Y-54932D01*
X68097Y-54932D01*
X68037Y-54917D01*
X68007Y-54902D01*
X67977Y-54872D01*
X67962Y-54827D01*
X67962Y-54797D01*
X67977Y-54752D01*
X67992Y-54737D01*
X68067Y-54467D02*
X68277Y-54467D01*
X67947Y-54542D02*
X68172Y-54617D01*
X68172Y-54422D01*
X69179Y-50077D02*
X69164Y-50092D01*
X69119Y-50107D01*
X69089Y-50107D01*
X69044Y-50092D01*
X69014Y-50062D01*
X68999Y-50032D01*
X68984Y-49972D01*
X68984Y-49927D01*
X68999Y-49867D01*
X69014Y-49837D01*
X69044Y-49807D01*
X69089Y-49792D01*
X69119Y-49792D01*
X69164Y-49807D01*
X69179Y-49822D01*
X69449Y-49792D02*
X69389Y-49792D01*
X69359Y-49807D01*
X69344Y-49822D01*
X69314Y-49867D01*
X69299Y-49927D01*
X69299Y-50047D01*
X69314Y-50077D01*
X69329Y-50092D01*
X69359Y-50107D01*
X69419Y-50107D01*
X69449Y-50092D01*
X69464Y-50077D01*
X69479Y-50047D01*
X69479Y-49972D01*
X69464Y-49942D01*
X69449Y-49927D01*
X69419Y-49912D01*
X69359Y-49912D01*
X69329Y-49927D01*
X69314Y-49942D01*
X69299Y-49972D01*
G54D10*
X70871Y-52750D02*
X70860Y-52761D01*
X70826Y-52772D01*
X70804Y-52772D01*
X70770Y-52761D01*
X70748Y-52739D01*
X70736Y-52716D01*
X70725Y-52671D01*
X70725Y-52637D01*
X70736Y-52592D01*
X70748Y-52570D01*
X70770Y-52547D01*
X70804Y-52536D01*
X70826Y-52536D01*
X70860Y-52547D01*
X70871Y-52559D01*
X71096Y-52772D02*
X70961Y-52772D01*
X71029Y-52772D02*
X71029Y-52536D01*
X71006Y-52570D01*
X70984Y-52592D01*
X70961Y-52604D01*
X71242Y-52536D02*
X71265Y-52536D01*
X71287Y-52547D01*
X71299Y-52559D01*
X71310Y-52581D01*
X71321Y-52626D01*
X71321Y-52682D01*
X71310Y-52727D01*
X71299Y-52750D01*
X71287Y-52761D01*
X71265Y-52772D01*
X71242Y-52772D01*
X71220Y-52761D01*
X71209Y-52750D01*
X71197Y-52727D01*
X71186Y-52682D01*
X71186Y-52626D01*
X71197Y-52581D01*
X71209Y-52559D01*
X71220Y-52547D01*
X71242Y-52536D01*
X70354Y-52435D02*
X70343Y-52446D01*
X70309Y-52457D01*
X70286Y-52457D01*
X70253Y-52446D01*
X70230Y-52424D01*
X70219Y-52401D01*
X70208Y-52356D01*
X70208Y-52322D01*
X70219Y-52277D01*
X70230Y-52255D01*
X70253Y-52232D01*
X70286Y-52221D01*
X70309Y-52221D01*
X70343Y-52232D01*
X70354Y-52244D01*
X70466Y-52457D02*
X70511Y-52457D01*
X70534Y-52446D01*
X70545Y-52435D01*
X70568Y-52401D01*
X70579Y-52356D01*
X70579Y-52266D01*
X70568Y-52244D01*
X70556Y-52232D01*
X70534Y-52221D01*
X70489Y-52221D01*
X70466Y-52232D01*
X70455Y-52244D01*
X70444Y-52266D01*
X70444Y-52322D01*
X70455Y-52345D01*
X70466Y-52356D01*
X70489Y-52367D01*
X70534Y-52367D01*
X70556Y-52356D01*
X70568Y-52345D01*
X70579Y-52322D01*
G54D12*
X66593Y-54651D02*
X66608Y-54666D01*
X66623Y-54711D01*
X66623Y-54741D01*
X66608Y-54786D01*
X66578Y-54816D01*
X66548Y-54831D01*
X66488Y-54846D01*
X66443Y-54846D01*
X66383Y-54831D01*
X66353Y-54816D01*
X66323Y-54786D01*
X66308Y-54741D01*
X66308Y-54711D01*
X66323Y-54666D01*
X66338Y-54651D01*
X66623Y-54351D02*
X66623Y-54531D01*
X66623Y-54441D02*
X66308Y-54441D01*
X66353Y-54471D01*
X66383Y-54501D01*
X66398Y-54531D01*
X66308Y-54066D02*
X66308Y-54216D01*
X66458Y-54231D01*
X66443Y-54216D01*
X66428Y-54186D01*
X66428Y-54111D01*
X66443Y-54081D01*
X66458Y-54066D01*
X66488Y-54051D01*
X66563Y-54051D01*
X66593Y-54066D01*
X66608Y-54081D01*
X66623Y-54111D01*
X66623Y-54186D01*
X66608Y-54216D01*
X66593Y-54231D01*
X72191Y-50412D02*
X72176Y-50427D01*
X72131Y-50442D01*
X72101Y-50442D01*
X72056Y-50427D01*
X72026Y-50397D01*
X72011Y-50367D01*
X71996Y-50307D01*
X71996Y-50262D01*
X72011Y-50202D01*
X72026Y-50172D01*
X72056Y-50142D01*
X72101Y-50127D01*
X72131Y-50127D01*
X72176Y-50142D01*
X72191Y-50157D01*
X72296Y-50127D02*
X72506Y-50127D01*
X72371Y-50442D01*
X69337Y-55294D02*
X69322Y-55309D01*
X69277Y-55324D01*
X69247Y-55324D01*
X69202Y-55309D01*
X69172Y-55279D01*
X69157Y-55249D01*
X69142Y-55189D01*
X69142Y-55144D01*
X69157Y-55084D01*
X69172Y-55054D01*
X69202Y-55024D01*
X69247Y-55009D01*
X69277Y-55009D01*
X69322Y-55024D01*
X69337Y-55039D01*
X69457Y-55039D02*
X69472Y-55024D01*
X69502Y-55009D01*
X69577Y-55009D01*
X69607Y-55024D01*
X69622Y-55039D01*
X69637Y-55069D01*
X69637Y-55099D01*
X69622Y-55144D01*
X69442Y-55324D01*
X69637Y-55324D01*
X71332Y-53443D02*
X71317Y-53458D01*
X71272Y-53473D01*
X71242Y-53473D01*
X71197Y-53458D01*
X71167Y-53428D01*
X71152Y-53398D01*
X71137Y-53338D01*
X71137Y-53293D01*
X71152Y-53233D01*
X71167Y-53203D01*
X71197Y-53173D01*
X71242Y-53158D01*
X71272Y-53158D01*
X71317Y-53173D01*
X71332Y-53188D01*
X71632Y-53473D02*
X71452Y-53473D01*
X71542Y-53473D02*
X71542Y-53158D01*
X71512Y-53203D01*
X71482Y-53233D01*
X71452Y-53248D01*
X71932Y-53473D02*
X71752Y-53473D01*
X71842Y-53473D02*
X71842Y-53158D01*
X71812Y-53203D01*
X71782Y-53233D01*
X71752Y-53248D01*
X74705Y-55560D02*
X74915Y-55875D01*
X74915Y-55560D02*
X74705Y-55875D01*
X75200Y-55875D02*
X75020Y-55875D01*
X75110Y-55875D02*
X75110Y-55560D01*
X75080Y-55605D01*
X75050Y-55635D01*
X75020Y-55650D01*
X74705Y-48198D02*
X74915Y-48513D01*
X74915Y-48198D02*
X74705Y-48513D01*
X75020Y-48228D02*
X75035Y-48213D01*
X75065Y-48198D01*
X75140Y-48198D01*
X75170Y-48213D01*
X75185Y-48228D01*
X75200Y-48258D01*
X75200Y-48288D01*
X75185Y-48333D01*
X75005Y-48513D01*
X75200Y-48513D01*
X66207Y-49930D02*
X66207Y-49615D01*
X66282Y-49615D01*
X66327Y-49630D01*
X66357Y-49660D01*
X66372Y-49690D01*
X66387Y-49750D01*
X66387Y-49795D01*
X66372Y-49855D01*
X66357Y-49885D01*
X66327Y-49915D01*
X66282Y-49930D01*
X66207Y-49930D01*
X66507Y-49840D02*
X66657Y-49840D01*
X66477Y-49930D02*
X66582Y-49615D01*
X66687Y-49930D01*
X66957Y-49930D02*
X66777Y-49930D01*
X66867Y-49930D02*
X66867Y-49615D01*
X66837Y-49660D01*
X66807Y-49690D01*
X66777Y-49705D01*
X72145Y-54413D02*
X72145Y-54233D01*
X72460Y-54323D02*
X72145Y-54323D01*
X72460Y-53963D02*
X72460Y-54143D01*
X72460Y-54053D02*
X72145Y-54053D01*
X72190Y-54083D01*
X72220Y-54113D01*
X72235Y-54143D01*
X71859Y-49767D02*
X71859Y-49587D01*
X72174Y-49677D02*
X71859Y-49677D01*
X71889Y-49497D02*
X71874Y-49482D01*
X71859Y-49452D01*
X71859Y-49377D01*
X71874Y-49347D01*
X71889Y-49332D01*
X71919Y-49317D01*
X71949Y-49317D01*
X71994Y-49332D01*
X72174Y-49512D01*
X72174Y-49317D01*
X72962Y-49461D02*
X72962Y-49611D01*
X72647Y-49611D01*
X72647Y-49386D02*
X72647Y-49191D01*
X72767Y-49296D01*
X72767Y-49251D01*
X72782Y-49221D01*
X72797Y-49206D01*
X72827Y-49191D01*
X72902Y-49191D01*
X72932Y-49206D01*
X72947Y-49221D01*
X72962Y-49251D01*
X72962Y-49341D01*
X72947Y-49371D01*
X72932Y-49386D01*
G54D10*
X72092Y-48458D02*
X72080Y-48470D01*
X72047Y-48481D01*
X72024Y-48481D01*
X71991Y-48470D01*
X71968Y-48447D01*
X71957Y-48425D01*
X71946Y-48380D01*
X71946Y-48346D01*
X71957Y-48301D01*
X71968Y-48278D01*
X71991Y-48256D01*
X72024Y-48245D01*
X72047Y-48245D01*
X72080Y-48256D01*
X72092Y-48267D01*
X72317Y-48481D02*
X72182Y-48481D01*
X72249Y-48481D02*
X72249Y-48245D01*
X72227Y-48278D01*
X72204Y-48301D01*
X72182Y-48312D01*
X72519Y-48245D02*
X72474Y-48245D01*
X72452Y-48256D01*
X72440Y-48267D01*
X72418Y-48301D01*
X72407Y-48346D01*
X72407Y-48436D01*
X72418Y-48458D01*
X72429Y-48470D01*
X72452Y-48481D01*
X72497Y-48481D01*
X72519Y-48470D01*
X72530Y-48458D01*
X72542Y-48436D01*
X72542Y-48380D01*
X72530Y-48357D01*
X72519Y-48346D01*
X72497Y-48335D01*
X72452Y-48335D01*
X72429Y-48346D01*
X72418Y-48357D01*
X72407Y-48380D01*
X72722Y-49049D02*
X72710Y-49060D01*
X72677Y-49071D01*
X72654Y-49071D01*
X72620Y-49060D01*
X72598Y-49038D01*
X72587Y-49015D01*
X72575Y-48970D01*
X72575Y-48937D01*
X72587Y-48892D01*
X72598Y-48869D01*
X72620Y-48847D01*
X72654Y-48835D01*
X72677Y-48835D01*
X72710Y-48847D01*
X72722Y-48858D01*
X72947Y-49071D02*
X72812Y-49071D01*
X72879Y-49071D02*
X72879Y-48835D01*
X72857Y-48869D01*
X72834Y-48892D01*
X72812Y-48903D01*
X73025Y-48835D02*
X73183Y-48835D01*
X73082Y-49071D01*
M02*
