G04 (created by PCBNEW (2013-07-07 BZR 4022)-stable) date 24/11/2015 00:30:31*
%MOIN*%
G04 Gerber Fmt 3.4, Leading zero omitted, Abs format*
%FSLAX34Y34*%
G01*
G70*
G90*
G04 APERTURE LIST*
%ADD10C,0.00590551*%
%ADD11C,0.019685*%
%ADD12R,0.0195X0.0175*%
%ADD13R,0.0175X0.0195*%
%ADD14R,0.0314X0.0275*%
%ADD15R,0.0275X0.0314*%
%ADD16R,0.0195X0.0195*%
%ADD17R,0.0392X0.0392*%
%ADD18R,0.0393701X0.129921*%
%ADD19R,0.129921X0.0393701*%
%ADD20R,0.0393701X0.102362*%
%ADD21R,0.102362X0.0393701*%
%ADD22C,0.0787402*%
%ADD23R,0.0566929X0.00905512*%
%ADD24C,0.015748*%
%ADD25C,0.0137795*%
%ADD26C,0.015748*%
%ADD27C,0.00787402*%
%ADD28C,0.019685*%
%ADD29C,0.0314961*%
%ADD30C,0.011811*%
%ADD31C,0.00393701*%
G04 APERTURE END LIST*
G54D10*
G54D11*
X68307Y-52992D03*
X68937Y-52992D03*
X68622Y-52992D03*
X67677Y-52992D03*
X67992Y-52992D03*
X67362Y-52992D03*
X67047Y-52992D03*
X67047Y-52677D03*
X67362Y-52677D03*
X67992Y-52677D03*
X67677Y-52677D03*
X68622Y-52677D03*
X68937Y-52677D03*
X68307Y-52677D03*
X68307Y-52362D03*
X68937Y-52362D03*
X68622Y-52362D03*
X67677Y-52362D03*
X67992Y-52362D03*
X67362Y-52362D03*
X67047Y-52362D03*
X67047Y-51732D03*
X67362Y-51732D03*
X67992Y-51732D03*
X67677Y-51732D03*
X68622Y-51732D03*
X68937Y-51732D03*
X68307Y-51732D03*
X68307Y-52047D03*
X68937Y-52047D03*
X68622Y-52047D03*
X67677Y-52047D03*
X67992Y-52047D03*
X67362Y-52047D03*
X67047Y-52047D03*
X67047Y-51417D03*
X67362Y-51417D03*
X67992Y-51417D03*
X67677Y-51417D03*
X68622Y-51417D03*
X68937Y-51417D03*
X68307Y-51417D03*
X68307Y-51102D03*
X68937Y-51102D03*
X68622Y-51102D03*
X67677Y-51102D03*
X67992Y-51102D03*
X67362Y-51102D03*
X67047Y-51102D03*
G54D12*
X69114Y-54972D03*
X69114Y-55342D03*
X70059Y-54657D03*
X70059Y-55027D03*
X66614Y-54815D03*
X66614Y-55185D03*
X67303Y-49555D03*
X67303Y-49185D03*
X69133Y-49279D03*
X69133Y-48909D03*
X66633Y-49555D03*
X66633Y-49185D03*
G54D13*
X69834Y-49940D03*
X70204Y-49940D03*
G54D12*
X67913Y-54165D03*
X67913Y-54535D03*
X72618Y-51153D03*
X72618Y-51523D03*
X69685Y-55401D03*
X69685Y-55031D03*
G54D13*
X70578Y-51594D03*
X70208Y-51594D03*
X68373Y-55078D03*
X68003Y-55078D03*
X66562Y-48602D03*
X66192Y-48602D03*
X71881Y-52677D03*
X72251Y-52677D03*
G54D12*
X71417Y-51011D03*
X71417Y-50641D03*
G54D13*
X69496Y-50354D03*
X69126Y-50354D03*
X71881Y-52145D03*
X72251Y-52145D03*
G54D12*
X71220Y-54440D03*
X71220Y-54810D03*
G54D13*
X70169Y-52381D03*
X70539Y-52381D03*
X71409Y-53326D03*
X71779Y-53326D03*
X70169Y-52696D03*
X70539Y-52696D03*
X72251Y-51850D03*
X71881Y-51850D03*
G54D12*
X66122Y-54342D03*
X66122Y-54712D03*
X70925Y-53885D03*
X70925Y-53515D03*
G54D13*
X71940Y-51515D03*
X72310Y-51515D03*
G54D14*
X72125Y-51159D03*
X72125Y-50729D03*
G54D15*
X70060Y-54291D03*
X70490Y-54291D03*
G54D16*
X71417Y-53641D03*
X71771Y-53641D03*
X69527Y-51948D03*
X69527Y-52302D03*
X66121Y-54015D03*
X65767Y-54015D03*
X68621Y-55492D03*
X68267Y-55492D03*
X66200Y-49015D03*
X65846Y-49015D03*
X67696Y-55078D03*
X67342Y-55078D03*
X66121Y-53681D03*
X65767Y-53681D03*
X67007Y-54271D03*
X67007Y-54625D03*
X69114Y-54665D03*
X68760Y-54665D03*
X70452Y-53504D03*
X70452Y-53858D03*
X69823Y-50295D03*
X70177Y-50295D03*
X69134Y-49586D03*
X69488Y-49586D03*
X66633Y-49960D03*
X66279Y-49960D03*
X67302Y-49862D03*
X66948Y-49862D03*
X67913Y-53858D03*
X68267Y-53858D03*
X66771Y-53582D03*
X67125Y-53582D03*
X70866Y-51023D03*
X70866Y-50669D03*
X71397Y-52991D03*
X71397Y-52637D03*
X70177Y-52047D03*
X70531Y-52047D03*
X69823Y-50610D03*
X70177Y-50610D03*
X69527Y-51082D03*
X69527Y-51436D03*
X70137Y-53504D03*
X70137Y-53858D03*
X69114Y-54350D03*
X68760Y-54350D03*
X67362Y-54271D03*
X67362Y-54625D03*
X66633Y-50275D03*
X66279Y-50275D03*
X67302Y-50551D03*
X66948Y-50551D03*
X69134Y-49901D03*
X69488Y-49901D03*
X67913Y-53562D03*
X68267Y-53562D03*
X69291Y-53562D03*
X68937Y-53562D03*
X69409Y-50787D03*
X69055Y-50787D03*
X70551Y-51023D03*
X70551Y-50669D03*
X69665Y-53267D03*
X69665Y-53621D03*
X65846Y-50275D03*
X65846Y-49921D03*
X68602Y-53818D03*
X68602Y-53464D03*
G54D17*
X60354Y-58267D03*
X60354Y-45866D03*
X77952Y-58267D03*
X77952Y-45866D03*
G54D18*
X65295Y-48464D03*
G54D19*
X65748Y-48011D03*
G54D18*
X65295Y-55629D03*
G54D19*
X65748Y-56082D03*
X72913Y-48011D03*
G54D18*
X73366Y-48464D03*
X73366Y-55629D03*
G54D19*
X72913Y-56082D03*
G54D20*
X73366Y-50570D03*
X73366Y-53523D03*
X65295Y-53523D03*
G54D21*
X70807Y-56082D03*
X67854Y-56082D03*
X70807Y-48011D03*
X67854Y-48011D03*
G54D20*
X65295Y-50570D03*
G54D22*
X75196Y-52106D03*
G54D23*
X64417Y-52283D03*
X64417Y-52598D03*
X64417Y-52440D03*
X64417Y-52755D03*
X64417Y-53385D03*
X64417Y-53228D03*
X64417Y-52913D03*
X64417Y-53070D03*
X64417Y-54645D03*
X64417Y-54488D03*
X64417Y-54173D03*
X64417Y-54330D03*
X64417Y-53700D03*
X64417Y-53543D03*
X64417Y-53858D03*
X64417Y-54015D03*
X64417Y-55275D03*
X64417Y-55118D03*
X64417Y-54803D03*
X64417Y-54960D03*
X64417Y-55590D03*
X64417Y-55433D03*
X64417Y-55748D03*
X64417Y-55905D03*
X63496Y-54173D03*
X63496Y-54015D03*
X63496Y-53700D03*
X63496Y-53858D03*
X63496Y-55433D03*
X63496Y-55275D03*
X63496Y-54960D03*
X63496Y-55118D03*
X63496Y-54488D03*
X63496Y-54330D03*
X63496Y-54645D03*
X63496Y-54803D03*
X63496Y-55905D03*
X63496Y-55590D03*
X63496Y-55748D03*
X64417Y-52125D03*
X63496Y-53228D03*
X63496Y-53070D03*
X63496Y-52755D03*
X63496Y-52913D03*
X63496Y-53543D03*
X63496Y-53385D03*
X63496Y-52283D03*
X63496Y-52125D03*
X63496Y-52440D03*
X63496Y-52598D03*
X63496Y-48818D03*
X63496Y-48661D03*
X63496Y-48346D03*
X63496Y-48503D03*
X64417Y-48818D03*
X64417Y-48661D03*
X64417Y-48346D03*
X64417Y-48503D03*
X64417Y-48188D03*
X63496Y-48188D03*
X63496Y-49448D03*
X63496Y-49291D03*
X63496Y-48976D03*
X63496Y-49133D03*
X64417Y-49448D03*
X64417Y-49291D03*
X64417Y-48976D03*
X64417Y-49133D03*
X63496Y-50708D03*
X63496Y-50551D03*
X63496Y-50236D03*
X63496Y-50393D03*
X64417Y-50708D03*
X64417Y-50551D03*
X64417Y-50236D03*
X64417Y-50393D03*
X64417Y-49763D03*
X64417Y-49606D03*
X64417Y-49921D03*
X64417Y-50078D03*
X63496Y-49763D03*
X63496Y-49606D03*
X63496Y-49921D03*
X63496Y-50078D03*
X63496Y-51338D03*
X63496Y-51181D03*
X63496Y-50866D03*
X63496Y-51023D03*
X64417Y-51338D03*
X64417Y-51181D03*
X64417Y-50866D03*
X64417Y-51023D03*
X64417Y-51653D03*
X64417Y-51496D03*
X64417Y-51811D03*
X64417Y-51968D03*
X63496Y-51653D03*
X63496Y-51496D03*
X63496Y-51811D03*
X63496Y-51968D03*
G54D24*
X64842Y-54251D03*
X63070Y-54251D03*
X63956Y-54251D03*
X66614Y-55590D03*
X69685Y-55649D03*
X72618Y-50905D03*
X72244Y-52952D03*
X72657Y-48641D03*
X63956Y-54566D03*
X63070Y-54566D03*
X64842Y-54566D03*
X66811Y-48602D03*
X71082Y-51850D03*
X67303Y-48956D03*
X72125Y-53937D03*
X69133Y-48681D03*
X66633Y-48956D03*
X69114Y-55551D03*
X72480Y-51850D03*
X70610Y-49940D03*
X68838Y-54015D03*
X68838Y-55492D03*
X71082Y-52637D03*
X62874Y-53070D03*
X63976Y-52992D03*
X71003Y-54881D03*
X63070Y-53228D03*
X72381Y-52381D03*
X63070Y-52913D03*
X71988Y-53326D03*
X71830Y-48641D03*
X72066Y-49192D03*
X71948Y-54665D03*
X71948Y-54173D03*
X71043Y-54173D03*
X70925Y-54685D03*
X70708Y-54685D03*
X71732Y-49448D03*
X71279Y-48681D03*
X70826Y-48956D03*
X71732Y-48956D03*
X70472Y-49448D03*
X70688Y-49448D03*
X64842Y-49133D03*
X64842Y-54015D03*
X64842Y-53779D03*
X64842Y-48818D03*
X64842Y-48582D03*
X64842Y-48267D03*
X74960Y-49330D03*
X74960Y-49822D03*
X64842Y-55826D03*
X64842Y-55511D03*
X64842Y-55275D03*
X64842Y-53464D03*
X62874Y-49606D03*
X64842Y-49488D03*
X63956Y-49448D03*
X63956Y-48897D03*
X63070Y-49133D03*
X63956Y-49133D03*
X63956Y-48267D03*
X63956Y-48582D03*
X63070Y-48267D03*
X63070Y-48582D03*
X63070Y-48897D03*
X63956Y-55826D03*
X63956Y-55275D03*
X63070Y-55275D03*
X63956Y-55511D03*
X63070Y-55511D03*
X63070Y-55826D03*
X64842Y-54803D03*
X63956Y-54803D03*
X63956Y-54015D03*
X63956Y-53779D03*
X63956Y-53464D03*
X63070Y-54803D03*
X63070Y-54015D03*
X63070Y-53779D03*
X63070Y-53464D03*
X65846Y-48759D03*
X66555Y-55964D03*
X67185Y-55964D03*
X68523Y-55964D03*
X70137Y-55964D03*
X71476Y-55964D03*
X72106Y-55964D03*
X73720Y-55964D03*
X73720Y-55629D03*
X73720Y-53523D03*
X73366Y-52854D03*
X73720Y-50570D03*
X73366Y-51240D03*
X73720Y-48464D03*
X73011Y-48464D03*
X73720Y-48129D03*
X72106Y-48129D03*
X71476Y-48129D03*
X70137Y-48129D03*
X68523Y-48129D03*
X67185Y-48129D03*
X66555Y-48129D03*
X65649Y-48464D03*
X65295Y-49232D03*
X74370Y-55118D03*
X74370Y-53937D03*
X75314Y-55433D03*
X75314Y-53622D03*
X75314Y-50472D03*
X75314Y-48661D03*
X67657Y-55590D03*
X68011Y-55590D03*
X67007Y-54842D03*
X65846Y-49685D03*
X65767Y-54271D03*
G54D25*
X68484Y-50767D03*
X68287Y-50767D03*
X69074Y-53346D03*
G54D24*
X69488Y-50118D03*
X75551Y-54842D03*
X75551Y-54212D03*
X74960Y-54763D03*
X74960Y-55433D03*
X75551Y-55118D03*
X74960Y-54291D03*
X74960Y-53622D03*
X75551Y-53937D03*
X74960Y-50472D03*
X75551Y-50157D03*
X75551Y-49881D03*
X75551Y-49251D03*
X74960Y-48661D03*
X75551Y-48976D03*
X68818Y-50039D03*
X67342Y-55334D03*
X67342Y-54842D03*
X72125Y-50472D03*
G54D25*
X68877Y-50767D03*
G54D24*
X68503Y-54094D03*
X70767Y-54291D03*
G54D25*
X68877Y-53346D03*
G54D24*
X71633Y-52637D03*
X69783Y-53877D03*
X70669Y-53858D03*
X71988Y-53641D03*
X70748Y-52047D03*
X66279Y-49724D03*
X66948Y-49625D03*
X71141Y-53326D03*
X71988Y-52952D03*
X70787Y-52637D03*
X71811Y-51043D03*
X71122Y-50669D03*
X70787Y-51377D03*
X70866Y-50393D03*
X70393Y-50295D03*
X74370Y-50157D03*
X74370Y-48976D03*
X66200Y-49291D03*
X65787Y-51259D03*
G54D25*
X69291Y-51948D03*
X67500Y-53346D03*
G54D24*
X67657Y-54055D03*
G54D25*
X69448Y-50570D03*
G54D24*
X69921Y-53228D03*
X69921Y-52017D03*
G54D25*
X67322Y-50767D03*
G54D24*
X67007Y-50137D03*
X69370Y-53976D03*
G54D25*
X69291Y-51161D03*
G54D24*
X69901Y-50866D03*
X66968Y-53996D03*
X66062Y-50590D03*
G54D25*
X66712Y-52342D03*
X66712Y-51751D03*
G54D24*
X69901Y-51102D03*
G54D25*
X69291Y-53326D03*
X68090Y-50767D03*
G54D24*
X69192Y-50118D03*
G54D25*
X67893Y-53346D03*
X67303Y-53346D03*
X71712Y-51515D03*
X69291Y-50964D03*
X69291Y-53129D03*
G54D24*
X69921Y-53484D03*
X66614Y-54566D03*
G54D25*
X66909Y-53346D03*
G54D24*
X69921Y-52696D03*
X69921Y-52460D03*
G54D25*
X69291Y-52549D03*
G54D24*
X71003Y-54438D03*
G54D25*
X69291Y-52352D03*
G54D24*
X71181Y-53641D03*
G54D25*
X69291Y-52933D03*
G54D24*
X70472Y-52972D03*
G54D25*
X69291Y-51358D03*
G54D24*
X70000Y-51377D03*
X63976Y-53228D03*
X69921Y-52244D03*
X69921Y-51791D03*
X62874Y-52755D03*
X66062Y-52244D03*
X63976Y-50708D03*
X65787Y-52047D03*
X64842Y-50551D03*
X62874Y-50551D03*
G54D25*
X66712Y-51948D03*
G54D24*
X63976Y-49763D03*
X66062Y-50826D03*
X63070Y-49763D03*
G54D25*
X66712Y-50767D03*
G54D24*
X63976Y-50393D03*
X66062Y-51850D03*
X63070Y-50393D03*
G54D25*
X66712Y-51555D03*
G54D24*
X64842Y-50236D03*
X65787Y-51673D03*
X62874Y-50236D03*
G54D25*
X66712Y-51358D03*
G54D24*
X63976Y-50078D03*
X66062Y-51456D03*
G54D25*
X66712Y-51161D03*
G54D24*
X63070Y-50078D03*
X64842Y-49921D03*
X66062Y-51062D03*
X62874Y-49921D03*
G54D25*
X66712Y-50964D03*
G54D24*
X63070Y-50708D03*
G54D25*
X66712Y-52145D03*
G54D24*
X63976Y-52283D03*
G54D25*
X69291Y-51761D03*
G54D24*
X71673Y-51850D03*
X65787Y-52440D03*
X64842Y-50866D03*
X66062Y-52637D03*
X63976Y-51023D03*
G54D25*
X66712Y-52736D03*
G54D24*
X63070Y-51023D03*
X63976Y-51653D03*
G54D25*
X66535Y-53523D03*
G54D24*
X63070Y-51653D03*
X66614Y-53996D03*
X64842Y-51811D03*
X65787Y-52834D03*
X62874Y-51181D03*
G54D25*
X66712Y-52933D03*
G54D24*
X64842Y-51496D03*
X66062Y-53031D03*
X62874Y-51496D03*
G54D25*
X66712Y-53129D03*
G54D24*
X64842Y-51181D03*
X65787Y-53248D03*
G54D25*
X66712Y-53326D03*
G54D24*
X62874Y-51811D03*
X63976Y-51338D03*
X66062Y-53425D03*
X63070Y-51338D03*
G54D25*
X66417Y-53759D03*
G54D24*
X62874Y-50866D03*
G54D25*
X66712Y-52539D03*
G54D24*
X63070Y-52283D03*
X71673Y-52145D03*
G54D25*
X69291Y-52746D03*
G54D26*
X64842Y-54251D02*
X64409Y-54251D01*
X63496Y-54251D02*
X63070Y-54251D01*
X64417Y-54251D02*
X64409Y-54251D01*
X64409Y-54251D02*
X63956Y-54251D01*
X63956Y-54251D02*
X63496Y-54251D01*
G54D27*
X64417Y-54173D02*
X64417Y-54251D01*
X64417Y-54251D02*
X64417Y-54330D01*
X63496Y-54173D02*
X63496Y-54251D01*
X63496Y-54251D02*
X63496Y-54330D01*
G54D28*
X66614Y-55590D02*
X66614Y-55185D01*
G54D29*
X71417Y-50641D02*
X71425Y-50641D01*
X72618Y-50413D02*
X72618Y-51153D01*
X72362Y-50157D02*
X72618Y-50413D01*
X71909Y-50157D02*
X72362Y-50157D01*
X71425Y-50641D02*
X71909Y-50157D01*
G54D26*
X69685Y-55401D02*
X69685Y-55649D01*
X72618Y-50905D02*
X72618Y-51153D01*
X72244Y-52952D02*
X72244Y-52685D01*
X72244Y-52685D02*
X72251Y-52677D01*
G54D28*
X63070Y-54566D02*
X64842Y-54566D01*
X64842Y-54566D02*
X65334Y-54566D01*
X65480Y-54712D02*
X66122Y-54712D01*
X65334Y-54566D02*
X65480Y-54712D01*
G54D26*
X63484Y-54566D02*
X63070Y-54566D01*
X64409Y-54566D02*
X64842Y-54566D01*
X64417Y-54566D02*
X64409Y-54566D01*
X64409Y-54566D02*
X63956Y-54566D01*
X63956Y-54566D02*
X63484Y-54566D01*
X63496Y-54566D02*
X63484Y-54566D01*
G54D27*
X64417Y-54488D02*
X64417Y-54566D01*
X64417Y-54566D02*
X64417Y-54645D01*
X63496Y-54488D02*
X63496Y-54566D01*
X63496Y-54566D02*
X63496Y-54645D01*
G54D26*
X66811Y-48602D02*
X66562Y-48602D01*
X70826Y-51594D02*
X71082Y-51850D01*
X70578Y-51594D02*
X70826Y-51594D01*
X67303Y-49185D02*
X67303Y-48956D01*
G54D28*
X71051Y-53885D02*
X71102Y-53937D01*
X71102Y-53937D02*
X72125Y-53937D01*
X71051Y-53885D02*
X70925Y-53885D01*
G54D26*
X69133Y-48681D02*
X69133Y-48909D01*
X66633Y-49185D02*
X66633Y-48956D01*
X69114Y-55342D02*
X69114Y-55551D01*
X72480Y-51850D02*
X72251Y-51850D01*
X70204Y-49940D02*
X70610Y-49940D01*
X72251Y-52145D02*
X72251Y-51850D01*
G54D28*
X68621Y-55492D02*
X68621Y-55326D01*
X68621Y-55326D02*
X68373Y-55078D01*
X67913Y-54535D02*
X67980Y-54535D01*
X67980Y-54535D02*
X68373Y-54929D01*
X68373Y-54929D02*
X68373Y-55078D01*
G54D26*
X68602Y-53818D02*
X68641Y-53818D01*
X68641Y-53818D02*
X68838Y-54015D01*
X68621Y-55492D02*
X68838Y-55492D01*
G54D10*
X70539Y-52704D02*
X70649Y-52814D01*
X70649Y-52814D02*
X70905Y-52814D01*
X70905Y-52814D02*
X71082Y-52637D01*
X70539Y-52704D02*
X70539Y-52696D01*
X63496Y-53070D02*
X62874Y-53070D01*
X64055Y-53070D02*
X63976Y-52992D01*
X64055Y-53070D02*
X64417Y-53070D01*
G54D27*
X71212Y-54810D02*
X71141Y-54881D01*
X71141Y-54881D02*
X71003Y-54881D01*
X71212Y-54810D02*
X71220Y-54810D01*
G54D10*
X63496Y-53228D02*
X63070Y-53228D01*
X72381Y-52381D02*
X70539Y-52381D01*
X63496Y-52913D02*
X63070Y-52913D01*
G54D30*
X71988Y-53326D02*
X71779Y-53326D01*
G54D26*
X64842Y-54015D02*
X65275Y-54015D01*
G54D27*
X64417Y-54015D02*
X64842Y-54015D01*
G54D26*
X65295Y-53996D02*
X65295Y-53523D01*
X65275Y-54015D02*
X65295Y-53996D01*
X64842Y-53779D02*
X65334Y-53779D01*
X65334Y-53779D02*
X65295Y-53740D01*
X65295Y-53740D02*
X65295Y-53523D01*
X64417Y-53779D02*
X64842Y-53779D01*
X64842Y-49133D02*
X65196Y-49133D01*
X65196Y-49133D02*
X65295Y-49232D01*
X64842Y-48818D02*
X65374Y-48818D01*
X65295Y-48740D02*
X65295Y-48464D01*
X65374Y-48818D02*
X65295Y-48740D01*
G54D27*
X64417Y-49133D02*
X64842Y-49133D01*
X64417Y-48818D02*
X64842Y-48818D01*
G54D26*
X64842Y-48267D02*
X65275Y-48267D01*
X65275Y-48267D02*
X65295Y-48287D01*
X65295Y-48287D02*
X65295Y-48464D01*
X64409Y-48267D02*
X64842Y-48267D01*
X64842Y-48582D02*
X65177Y-48582D01*
X65177Y-48582D02*
X65295Y-48464D01*
X64389Y-48582D02*
X64842Y-48582D01*
X64842Y-53464D02*
X65236Y-53464D01*
X65236Y-53464D02*
X65295Y-53523D01*
X64417Y-53464D02*
X64842Y-53464D01*
X64842Y-55275D02*
X65354Y-55275D01*
G54D27*
X64417Y-55275D02*
X64842Y-55275D01*
G54D26*
X65295Y-55334D02*
X65295Y-55629D01*
X65354Y-55275D02*
X65295Y-55334D01*
X64842Y-55511D02*
X65177Y-55511D01*
X65177Y-55511D02*
X65295Y-55629D01*
X64409Y-55511D02*
X64842Y-55511D01*
X64842Y-55826D02*
X65354Y-55826D01*
X64409Y-55826D02*
X64842Y-55826D01*
G54D28*
X65295Y-55767D02*
X65295Y-55629D01*
X65354Y-55826D02*
X65295Y-55767D01*
G54D10*
X63496Y-49606D02*
X62874Y-49606D01*
G54D27*
X64417Y-49606D02*
X64724Y-49606D01*
X64724Y-49606D02*
X64842Y-49488D01*
X64417Y-49606D02*
X64114Y-49606D01*
X63799Y-49606D02*
X63956Y-49448D01*
X63799Y-49606D02*
X63496Y-49606D01*
X64114Y-49606D02*
X63956Y-49448D01*
X64417Y-48818D02*
X64035Y-48818D01*
G54D26*
X63956Y-48897D02*
X63496Y-48897D01*
G54D27*
X64035Y-48818D02*
X63956Y-48897D01*
X63496Y-49133D02*
X63070Y-49133D01*
X64417Y-49133D02*
X63956Y-49133D01*
X63956Y-49133D02*
X63496Y-49133D01*
G54D26*
X63496Y-48267D02*
X63956Y-48267D01*
X63956Y-48267D02*
X64409Y-48267D01*
X64409Y-48267D02*
X64417Y-48267D01*
X63496Y-48582D02*
X63956Y-48582D01*
X63956Y-48582D02*
X64389Y-48582D01*
X64389Y-48582D02*
X64417Y-48582D01*
X63496Y-48267D02*
X63070Y-48267D01*
X63496Y-48582D02*
X63070Y-48582D01*
X63496Y-48897D02*
X63070Y-48897D01*
G54D27*
X64417Y-48503D02*
X64417Y-48582D01*
X64417Y-48582D02*
X64417Y-48661D01*
X64417Y-48188D02*
X64417Y-48267D01*
X64417Y-48267D02*
X64417Y-48346D01*
X63496Y-48818D02*
X63496Y-48897D01*
X63496Y-48897D02*
X63496Y-48976D01*
X63496Y-48503D02*
X63496Y-48582D01*
X63496Y-48582D02*
X63496Y-48661D01*
X63496Y-48188D02*
X63496Y-48267D01*
X63496Y-48267D02*
X63496Y-48346D01*
X64417Y-55275D02*
X63956Y-55275D01*
X63956Y-55275D02*
X63496Y-55275D01*
X63496Y-55275D02*
X63070Y-55275D01*
G54D26*
X64417Y-55511D02*
X64409Y-55511D01*
X64409Y-55511D02*
X63956Y-55511D01*
X63956Y-55511D02*
X63484Y-55511D01*
X63496Y-55511D02*
X63484Y-55511D01*
X63484Y-55511D02*
X63070Y-55511D01*
X64417Y-55826D02*
X64409Y-55826D01*
X64409Y-55826D02*
X63956Y-55826D01*
X63956Y-55826D02*
X63496Y-55826D01*
X63496Y-55826D02*
X63070Y-55826D01*
G54D27*
X64417Y-55905D02*
X64417Y-55826D01*
X64417Y-55826D02*
X64417Y-55748D01*
X64417Y-55590D02*
X64417Y-55511D01*
X64417Y-55511D02*
X64417Y-55433D01*
X63496Y-55590D02*
X63496Y-55511D01*
X63496Y-55511D02*
X63496Y-55433D01*
X63496Y-55905D02*
X63496Y-55826D01*
X63496Y-55826D02*
X63496Y-55748D01*
X64417Y-54803D02*
X64842Y-54803D01*
X64417Y-54803D02*
X63956Y-54803D01*
X63956Y-54803D02*
X63496Y-54803D01*
X64417Y-54015D02*
X63956Y-54015D01*
X63956Y-54015D02*
X63496Y-54015D01*
G54D26*
X64417Y-53779D02*
X63956Y-53779D01*
X63956Y-53779D02*
X63496Y-53779D01*
X64417Y-53464D02*
X63956Y-53464D01*
X63956Y-53464D02*
X63496Y-53464D01*
G54D27*
X64417Y-53700D02*
X64417Y-53779D01*
X64417Y-53779D02*
X64417Y-53858D01*
X64417Y-53385D02*
X64417Y-53464D01*
X64417Y-53464D02*
X64417Y-53543D01*
X63496Y-54803D02*
X63070Y-54803D01*
X63496Y-54015D02*
X63070Y-54015D01*
G54D26*
X63496Y-53779D02*
X63070Y-53779D01*
X63496Y-53464D02*
X63070Y-53464D01*
G54D27*
X63496Y-53700D02*
X63496Y-53779D01*
X63496Y-53779D02*
X63496Y-53858D01*
X63496Y-53385D02*
X63496Y-53464D01*
X63496Y-53464D02*
X63496Y-53543D01*
G54D26*
X65846Y-49015D02*
X65846Y-48760D01*
X65846Y-48760D02*
X65846Y-48759D01*
X65295Y-50570D02*
X65295Y-49232D01*
X66555Y-55964D02*
X65866Y-55964D01*
X65866Y-55964D02*
X65748Y-56082D01*
X67185Y-55964D02*
X67736Y-55964D01*
X67736Y-55964D02*
X67854Y-56082D01*
X68523Y-55964D02*
X67972Y-55964D01*
X67972Y-55964D02*
X67854Y-56082D01*
X70137Y-55964D02*
X70688Y-55964D01*
X70688Y-55964D02*
X70807Y-56082D01*
X71476Y-55964D02*
X70925Y-55964D01*
X70925Y-55964D02*
X70807Y-56082D01*
X72106Y-55964D02*
X72795Y-55964D01*
X72795Y-55964D02*
X72913Y-56082D01*
X73720Y-55964D02*
X73031Y-55964D01*
X73031Y-55964D02*
X72913Y-56082D01*
X73366Y-55629D02*
X73720Y-55629D01*
X73366Y-53523D02*
X73720Y-53523D01*
X73366Y-53523D02*
X73366Y-52854D01*
X73366Y-50570D02*
X73720Y-50570D01*
X73366Y-50570D02*
X73366Y-51240D01*
X73366Y-48464D02*
X73720Y-48464D01*
X73366Y-48464D02*
X73011Y-48464D01*
X73720Y-48129D02*
X73031Y-48129D01*
X73031Y-48129D02*
X72913Y-48011D01*
X72106Y-48129D02*
X72795Y-48129D01*
X72795Y-48129D02*
X72913Y-48011D01*
X71476Y-48129D02*
X70925Y-48129D01*
X70925Y-48129D02*
X70807Y-48011D01*
X70137Y-48129D02*
X70688Y-48129D01*
X70688Y-48129D02*
X70807Y-48011D01*
X68523Y-48129D02*
X67972Y-48129D01*
X67972Y-48129D02*
X67854Y-48011D01*
X67185Y-48129D02*
X67736Y-48129D01*
X67736Y-48129D02*
X67854Y-48011D01*
X66555Y-48129D02*
X65866Y-48129D01*
X65866Y-48129D02*
X65748Y-48011D01*
X65295Y-48464D02*
X65649Y-48464D01*
X65295Y-48464D02*
X65295Y-49232D01*
G54D30*
X69527Y-52302D02*
X69527Y-52302D01*
X69055Y-52165D02*
X68937Y-52047D01*
X69389Y-52165D02*
X69055Y-52165D01*
X69527Y-52302D02*
X69389Y-52165D01*
G54D26*
X69074Y-51555D02*
X69527Y-51555D01*
X68937Y-51417D02*
X69074Y-51555D01*
X69527Y-51555D02*
X69527Y-51436D01*
X65767Y-53681D02*
X65767Y-54015D01*
X68267Y-55492D02*
X68110Y-55492D01*
X68110Y-55492D02*
X68011Y-55590D01*
X67007Y-54625D02*
X67007Y-54842D01*
X65846Y-49921D02*
X65846Y-49685D01*
X65767Y-54015D02*
X65767Y-54271D01*
X65767Y-54271D02*
X65767Y-54271D01*
G54D28*
X69055Y-50787D02*
X69055Y-50984D01*
X69055Y-50984D02*
X68937Y-51102D01*
G54D30*
X67125Y-53582D02*
X67125Y-53070D01*
X67125Y-53070D02*
X67047Y-52992D01*
G54D27*
X69488Y-50117D02*
X69488Y-50118D01*
G54D26*
X69488Y-50117D02*
X69488Y-49901D01*
X68267Y-53562D02*
X68267Y-53031D01*
X68267Y-53031D02*
X68307Y-52992D01*
X68267Y-53858D02*
X68267Y-53562D01*
X68602Y-53464D02*
X68602Y-53011D01*
X68602Y-53011D02*
X68622Y-52992D01*
G54D28*
X66948Y-50551D02*
X66948Y-51004D01*
X66948Y-51004D02*
X67047Y-51102D01*
G54D26*
X69126Y-50354D02*
X69055Y-50354D01*
X68818Y-50118D02*
X68818Y-50039D01*
X69055Y-50354D02*
X68818Y-50118D01*
G54D30*
X67342Y-55078D02*
X67342Y-55334D01*
X67342Y-55334D02*
X67342Y-55334D01*
X67342Y-55078D02*
X67342Y-55078D01*
X67342Y-54842D02*
X67342Y-54645D01*
X67342Y-54645D02*
X67362Y-54625D01*
G54D26*
X72125Y-50729D02*
X72125Y-50472D01*
X70551Y-50669D02*
X70866Y-50669D01*
X70866Y-50669D02*
X70866Y-50393D01*
G54D30*
X68877Y-50767D02*
X69035Y-50767D01*
X69035Y-50767D02*
X69055Y-50787D01*
G54D26*
X70177Y-50295D02*
X70393Y-50295D01*
X70177Y-50610D02*
X70177Y-50295D01*
X68760Y-54350D02*
X68759Y-54350D01*
X68759Y-54350D02*
X68503Y-54094D01*
X68760Y-54665D02*
X68760Y-54350D01*
X70490Y-54291D02*
X70767Y-54291D01*
G54D30*
X68877Y-53346D02*
X68877Y-53503D01*
X68877Y-53503D02*
X68937Y-53562D01*
G54D26*
X71397Y-52637D02*
X71633Y-52637D01*
X71633Y-52637D02*
X71633Y-52637D01*
X69665Y-53621D02*
X69665Y-53622D01*
X69783Y-53740D02*
X69783Y-53877D01*
X69665Y-53622D02*
X69783Y-53740D01*
X70137Y-53858D02*
X70452Y-53858D01*
X70452Y-53858D02*
X70669Y-53858D01*
G54D27*
X70669Y-53858D02*
X70669Y-53858D01*
G54D30*
X71771Y-53641D02*
X71988Y-53641D01*
G54D26*
X70531Y-52047D02*
X70748Y-52047D01*
X66279Y-50275D02*
X66279Y-49960D01*
X66279Y-49960D02*
X66279Y-49724D01*
X66279Y-49724D02*
X66279Y-49724D01*
X66948Y-49862D02*
X66948Y-49626D01*
X66948Y-49626D02*
X66948Y-49625D01*
X69488Y-49586D02*
X69488Y-49901D01*
G54D28*
X66200Y-49291D02*
X66200Y-49291D01*
X66200Y-49291D02*
X66200Y-49015D01*
X66192Y-48602D02*
X66192Y-49008D01*
X66192Y-49008D02*
X66200Y-49015D01*
G54D26*
X65787Y-51043D02*
X65787Y-51259D01*
G54D27*
X70208Y-51594D02*
X69803Y-51594D01*
X69606Y-51870D02*
X69527Y-51948D01*
X69606Y-51791D02*
X69606Y-51870D01*
X69803Y-51594D02*
X69606Y-51791D01*
G54D30*
X69291Y-51948D02*
X69527Y-51948D01*
X69527Y-51948D02*
X69527Y-51948D01*
X69448Y-50570D02*
X69448Y-50401D01*
X69448Y-50401D02*
X69496Y-50354D01*
G54D26*
X71397Y-52991D02*
X71614Y-52991D01*
X71881Y-52724D02*
X71881Y-52677D01*
X71614Y-52991D02*
X71881Y-52724D01*
X69921Y-53228D02*
X70866Y-53228D01*
X71102Y-52991D02*
X71397Y-52991D01*
X70866Y-53228D02*
X71102Y-52991D01*
G54D30*
X69921Y-53228D02*
X69704Y-53228D01*
X69704Y-53228D02*
X69665Y-53267D01*
G54D26*
X69921Y-52017D02*
X70147Y-52017D01*
X70147Y-52017D02*
X70177Y-52047D01*
X67303Y-49555D02*
X67303Y-49862D01*
X67303Y-49862D02*
X67302Y-49862D01*
X67302Y-49862D02*
X67302Y-50551D01*
X67322Y-50767D02*
X67322Y-50571D01*
X67322Y-50571D02*
X67302Y-50551D01*
X67007Y-50137D02*
X66673Y-50137D01*
X66673Y-50137D02*
X66633Y-50098D01*
X66633Y-50275D02*
X66633Y-50098D01*
X66633Y-50098D02*
X66633Y-49960D01*
X66633Y-49555D02*
X66633Y-49960D01*
X66633Y-49960D02*
X66633Y-49960D01*
X69114Y-54665D02*
X69114Y-54972D01*
X69114Y-54972D02*
X69114Y-54972D01*
X69370Y-53976D02*
X69370Y-54094D01*
X69370Y-54094D02*
X69114Y-54350D01*
X69114Y-54665D02*
X69114Y-54350D01*
X69834Y-49940D02*
X69834Y-50283D01*
X69834Y-50283D02*
X69823Y-50295D01*
G54D30*
X69291Y-51161D02*
X69448Y-51161D01*
X69448Y-51161D02*
X69527Y-51082D01*
G54D26*
X69901Y-50866D02*
X69901Y-50787D01*
X69823Y-50708D02*
X69823Y-50610D01*
X69901Y-50787D02*
X69823Y-50708D01*
X69823Y-50610D02*
X69823Y-50295D01*
G54D28*
X66968Y-53996D02*
X66968Y-54232D01*
X66968Y-54232D02*
X67007Y-54271D01*
X67007Y-54271D02*
X66192Y-54271D01*
X66192Y-54271D02*
X66122Y-54342D01*
G54D29*
X66397Y-53248D02*
X66397Y-52342D01*
G54D26*
X65846Y-50275D02*
X65846Y-50275D01*
X66023Y-50551D02*
X66062Y-50590D01*
X66023Y-50452D02*
X66023Y-50551D01*
X65846Y-50275D02*
X66023Y-50452D01*
X66062Y-50590D02*
X66220Y-50590D01*
X66220Y-50590D02*
X66397Y-50767D01*
G54D29*
X66397Y-50669D02*
X66397Y-50767D01*
X66397Y-50767D02*
X66397Y-51003D01*
G54D28*
X66122Y-54342D02*
X66122Y-54015D01*
X66122Y-54015D02*
X66121Y-54015D01*
X66121Y-54015D02*
X66121Y-53681D01*
X66121Y-53681D02*
X66161Y-53681D01*
X66299Y-53346D02*
X66397Y-53248D01*
X66299Y-53543D02*
X66299Y-53346D01*
X66161Y-53681D02*
X66299Y-53543D01*
G54D30*
X66397Y-52342D02*
X66712Y-52342D01*
X66397Y-51751D02*
X66712Y-51751D01*
G54D29*
X66397Y-51437D02*
X66397Y-51751D01*
X66397Y-51751D02*
X66397Y-52342D01*
X66397Y-50866D02*
X66397Y-51003D01*
X66397Y-51003D02*
X66397Y-51437D01*
X66397Y-51437D02*
X66397Y-51692D01*
G54D30*
X66358Y-51653D02*
X66456Y-51751D01*
G54D26*
X70866Y-51023D02*
X71405Y-51023D01*
X71405Y-51023D02*
X71417Y-51011D01*
X70551Y-51023D02*
X70866Y-51023D01*
X69901Y-51102D02*
X70472Y-51102D01*
X70472Y-51102D02*
X70551Y-51023D01*
G54D30*
X69291Y-53562D02*
X69291Y-53621D01*
X69962Y-54192D02*
X70060Y-54291D01*
X69763Y-54192D02*
X69962Y-54192D01*
X69586Y-54015D02*
X69763Y-54192D01*
X69586Y-53917D02*
X69586Y-54015D01*
X69291Y-53621D02*
X69586Y-53917D01*
G54D26*
X70059Y-54657D02*
X70059Y-54292D01*
X70059Y-54292D02*
X70060Y-54291D01*
G54D30*
X69291Y-53326D02*
X69291Y-53562D01*
X69291Y-53562D02*
X69291Y-53562D01*
G54D26*
X69133Y-49279D02*
X69133Y-49586D01*
X69133Y-49586D02*
X69134Y-49586D01*
X69134Y-49586D02*
X69134Y-49901D01*
X69192Y-50118D02*
X69192Y-49960D01*
X69192Y-49960D02*
X69134Y-49901D01*
X67913Y-54165D02*
X67913Y-53858D01*
X67913Y-53858D02*
X67913Y-53858D01*
X67913Y-53562D02*
X67913Y-53858D01*
G54D30*
X67893Y-53346D02*
X67893Y-53543D01*
X67893Y-53543D02*
X67913Y-53562D01*
X67362Y-54271D02*
X67539Y-54271D01*
X67637Y-55019D02*
X67696Y-55078D01*
X67637Y-54370D02*
X67637Y-55019D01*
X67539Y-54271D02*
X67637Y-54370D01*
X67696Y-55078D02*
X68003Y-55078D01*
X67303Y-53346D02*
X67303Y-53405D01*
X67401Y-54232D02*
X67362Y-54271D01*
X67401Y-53503D02*
X67401Y-54232D01*
X67303Y-53405D02*
X67401Y-53503D01*
G54D26*
X71712Y-51515D02*
X71940Y-51515D01*
X71940Y-51515D02*
X71940Y-51344D01*
X71940Y-51344D02*
X72125Y-51159D01*
G54D30*
X69291Y-50964D02*
X69370Y-50885D01*
X69370Y-50826D02*
X69409Y-50787D01*
X69370Y-50885D02*
X69370Y-50826D01*
G54D26*
X70452Y-53504D02*
X70913Y-53504D01*
X70913Y-53504D02*
X70925Y-53515D01*
X70452Y-53504D02*
X70137Y-53504D01*
X70137Y-53504D02*
X69941Y-53504D01*
X69941Y-53504D02*
X69921Y-53484D01*
X66614Y-54815D02*
X66614Y-54566D01*
G54D30*
X66909Y-53346D02*
X66909Y-53445D01*
X66909Y-53445D02*
X66771Y-53582D01*
G54D26*
X72310Y-51515D02*
X72610Y-51515D01*
X72610Y-51515D02*
X72618Y-51523D01*
G54D27*
X70169Y-52696D02*
X69921Y-52696D01*
X69921Y-52460D02*
X70090Y-52460D01*
X70090Y-52460D02*
X70169Y-52381D01*
X71220Y-54440D02*
X71005Y-54440D01*
X71005Y-54440D02*
X71003Y-54438D01*
X71181Y-53641D02*
X71417Y-53641D01*
X71409Y-53326D02*
X71409Y-53633D01*
X71409Y-53633D02*
X71417Y-53641D01*
G54D28*
X69685Y-55031D02*
X70055Y-55031D01*
X70055Y-55031D02*
X70059Y-55027D01*
G54D10*
X64417Y-53228D02*
X63976Y-53228D01*
X62874Y-52755D02*
X63496Y-52755D01*
G54D27*
X63976Y-50708D02*
X64417Y-50708D01*
X64842Y-50551D02*
X64417Y-50551D01*
G54D10*
X63496Y-50551D02*
X62874Y-50551D01*
G54D27*
X64417Y-49763D02*
X63976Y-49763D01*
G54D10*
X63496Y-49763D02*
X63070Y-49763D01*
G54D27*
X64417Y-50393D02*
X63976Y-50393D01*
G54D10*
X63496Y-50393D02*
X63070Y-50393D01*
G54D27*
X64417Y-50236D02*
X64842Y-50236D01*
G54D10*
X63496Y-50236D02*
X62874Y-50236D01*
G54D27*
X64417Y-50078D02*
X63976Y-50078D01*
G54D10*
X63070Y-50078D02*
X63496Y-50078D01*
X64417Y-49921D02*
X64842Y-49921D01*
X63496Y-49921D02*
X62874Y-49921D01*
X63496Y-50708D02*
X63070Y-50708D01*
X64417Y-52283D02*
X63976Y-52283D01*
G54D27*
X71673Y-51850D02*
X71881Y-51850D01*
X64842Y-50866D02*
X64417Y-50866D01*
X63976Y-51023D02*
X64417Y-51023D01*
G54D10*
X63070Y-51023D02*
X63496Y-51023D01*
G54D27*
X63976Y-51653D02*
X64417Y-51653D01*
G54D10*
X63070Y-51653D02*
X63496Y-51653D01*
G54D27*
X64417Y-51811D02*
X64842Y-51811D01*
G54D10*
X62874Y-51181D02*
X63496Y-51181D01*
G54D27*
X64417Y-51496D02*
X64842Y-51496D01*
G54D10*
X62874Y-51496D02*
X63496Y-51496D01*
G54D27*
X64417Y-51181D02*
X64842Y-51181D01*
G54D10*
X62874Y-51811D02*
X63496Y-51811D01*
G54D27*
X64417Y-51338D02*
X63976Y-51338D01*
G54D10*
X63070Y-51338D02*
X63496Y-51338D01*
X62874Y-50866D02*
X63496Y-50866D01*
X63496Y-52283D02*
X63070Y-52283D01*
G54D27*
X71673Y-52145D02*
X71881Y-52145D01*
G54D10*
G36*
X70960Y-52509D02*
X70932Y-52537D01*
X70905Y-52602D01*
X70905Y-52634D01*
X70852Y-52687D01*
X70725Y-52687D01*
X70725Y-52579D01*
X70710Y-52543D01*
X70706Y-52539D01*
X70710Y-52535D01*
X70720Y-52509D01*
X70960Y-52509D01*
X70960Y-52509D01*
G37*
G54D31*
X70960Y-52509D02*
X70932Y-52537D01*
X70905Y-52602D01*
X70905Y-52634D01*
X70852Y-52687D01*
X70725Y-52687D01*
X70725Y-52579D01*
X70710Y-52543D01*
X70706Y-52539D01*
X70710Y-52535D01*
X70720Y-52509D01*
X70960Y-52509D01*
G54D10*
G36*
X71241Y-53170D02*
X71238Y-53173D01*
X71223Y-53209D01*
X71223Y-53248D01*
X71223Y-53443D01*
X71235Y-53472D01*
X71216Y-53464D01*
X71146Y-53464D01*
X71121Y-53474D01*
X71121Y-53408D01*
X71106Y-53372D01*
X71078Y-53344D01*
X71042Y-53329D01*
X71015Y-53329D01*
X71175Y-53169D01*
X71240Y-53169D01*
X71241Y-53170D01*
X71241Y-53170D01*
G37*
G54D31*
X71241Y-53170D02*
X71238Y-53173D01*
X71223Y-53209D01*
X71223Y-53248D01*
X71223Y-53443D01*
X71235Y-53472D01*
X71216Y-53464D01*
X71146Y-53464D01*
X71121Y-53474D01*
X71121Y-53408D01*
X71106Y-53372D01*
X71078Y-53344D01*
X71042Y-53329D01*
X71015Y-53329D01*
X71175Y-53169D01*
X71240Y-53169D01*
X71241Y-53170D01*
G54D10*
G36*
X71725Y-52509D02*
X71711Y-52523D01*
X71696Y-52560D01*
X71695Y-52599D01*
X71695Y-52659D01*
X71546Y-52809D01*
X71514Y-52796D01*
X71475Y-52796D01*
X71280Y-52796D01*
X71244Y-52810D01*
X71240Y-52814D01*
X71118Y-52814D01*
X71182Y-52788D01*
X71232Y-52738D01*
X71259Y-52673D01*
X71259Y-52602D01*
X71232Y-52537D01*
X71205Y-52509D01*
X71725Y-52509D01*
X71725Y-52509D01*
G37*
G54D31*
X71725Y-52509D02*
X71711Y-52523D01*
X71696Y-52560D01*
X71695Y-52599D01*
X71695Y-52659D01*
X71546Y-52809D01*
X71514Y-52796D01*
X71475Y-52796D01*
X71280Y-52796D01*
X71244Y-52810D01*
X71240Y-52814D01*
X71118Y-52814D01*
X71182Y-52788D01*
X71232Y-52738D01*
X71259Y-52673D01*
X71259Y-52602D01*
X71232Y-52537D01*
X71205Y-52509D01*
X71725Y-52509D01*
G54D10*
G36*
X72362Y-50962D02*
X72338Y-50938D01*
X72302Y-50923D01*
X72263Y-50923D01*
X71949Y-50923D01*
X71913Y-50938D01*
X71885Y-50966D01*
X71870Y-51002D01*
X71870Y-51041D01*
X71870Y-51164D01*
X71815Y-51219D01*
X71777Y-51277D01*
X71765Y-51338D01*
X71712Y-51338D01*
X71644Y-51352D01*
X71587Y-51390D01*
X71548Y-51447D01*
X71535Y-51515D01*
X71548Y-51583D01*
X71587Y-51641D01*
X71636Y-51673D01*
X71573Y-51700D01*
X71523Y-51749D01*
X71496Y-51814D01*
X71496Y-51885D01*
X71522Y-51950D01*
X71570Y-51998D01*
X71523Y-52045D01*
X71496Y-52110D01*
X71496Y-52180D01*
X71522Y-52245D01*
X71530Y-52253D01*
X70720Y-52253D01*
X70710Y-52228D01*
X70682Y-52200D01*
X70646Y-52185D01*
X70607Y-52185D01*
X70432Y-52185D01*
X70396Y-52200D01*
X70368Y-52228D01*
X70354Y-52262D01*
X70340Y-52228D01*
X70335Y-52223D01*
X70358Y-52200D01*
X70373Y-52164D01*
X70373Y-52125D01*
X70373Y-51930D01*
X70358Y-51894D01*
X70330Y-51866D01*
X70294Y-51851D01*
X70255Y-51851D01*
X70201Y-51851D01*
X70147Y-51840D01*
X70092Y-51840D01*
X70098Y-51826D01*
X70098Y-51789D01*
X70101Y-51790D01*
X70140Y-51790D01*
X70315Y-51790D01*
X70351Y-51775D01*
X70379Y-51747D01*
X70393Y-51713D01*
X70407Y-51747D01*
X70435Y-51775D01*
X70471Y-51790D01*
X70510Y-51790D01*
X70685Y-51790D01*
X70721Y-51775D01*
X70725Y-51771D01*
X70753Y-51771D01*
X70957Y-51975D01*
X70957Y-51975D01*
X70982Y-52000D01*
X71014Y-52014D01*
X71014Y-52014D01*
X71047Y-52027D01*
X71117Y-52027D01*
X71150Y-52014D01*
X71182Y-52000D01*
X71232Y-51950D01*
X71246Y-51918D01*
X71259Y-51885D01*
X71259Y-51815D01*
X71246Y-51782D01*
X71232Y-51750D01*
X71207Y-51725D01*
X71183Y-51700D01*
X71183Y-51700D01*
X70952Y-51469D01*
X70894Y-51430D01*
X70826Y-51417D01*
X70725Y-51417D01*
X70722Y-51413D01*
X70685Y-51398D01*
X70646Y-51398D01*
X70471Y-51398D01*
X70435Y-51413D01*
X70407Y-51441D01*
X70393Y-51475D01*
X70379Y-51441D01*
X70352Y-51413D01*
X70315Y-51398D01*
X70276Y-51398D01*
X70177Y-51398D01*
X70177Y-51342D01*
X70151Y-51279D01*
X70472Y-51279D01*
X70540Y-51266D01*
X70540Y-51266D01*
X70597Y-51227D01*
X70605Y-51219D01*
X70668Y-51219D01*
X70704Y-51204D01*
X70708Y-51200D01*
X70709Y-51200D01*
X70712Y-51204D01*
X70748Y-51219D01*
X70788Y-51219D01*
X70983Y-51219D01*
X71019Y-51204D01*
X71023Y-51200D01*
X71405Y-51200D01*
X71420Y-51197D01*
X71534Y-51197D01*
X71570Y-51182D01*
X71598Y-51155D01*
X71613Y-51118D01*
X71613Y-51079D01*
X71613Y-50904D01*
X71598Y-50868D01*
X71573Y-50844D01*
X71606Y-50822D01*
X72015Y-50413D01*
X72256Y-50413D01*
X72362Y-50519D01*
X72362Y-50962D01*
X72362Y-50962D01*
G37*
G54D31*
X72362Y-50962D02*
X72338Y-50938D01*
X72302Y-50923D01*
X72263Y-50923D01*
X71949Y-50923D01*
X71913Y-50938D01*
X71885Y-50966D01*
X71870Y-51002D01*
X71870Y-51041D01*
X71870Y-51164D01*
X71815Y-51219D01*
X71777Y-51277D01*
X71765Y-51338D01*
X71712Y-51338D01*
X71644Y-51352D01*
X71587Y-51390D01*
X71548Y-51447D01*
X71535Y-51515D01*
X71548Y-51583D01*
X71587Y-51641D01*
X71636Y-51673D01*
X71573Y-51700D01*
X71523Y-51749D01*
X71496Y-51814D01*
X71496Y-51885D01*
X71522Y-51950D01*
X71570Y-51998D01*
X71523Y-52045D01*
X71496Y-52110D01*
X71496Y-52180D01*
X71522Y-52245D01*
X71530Y-52253D01*
X70720Y-52253D01*
X70710Y-52228D01*
X70682Y-52200D01*
X70646Y-52185D01*
X70607Y-52185D01*
X70432Y-52185D01*
X70396Y-52200D01*
X70368Y-52228D01*
X70354Y-52262D01*
X70340Y-52228D01*
X70335Y-52223D01*
X70358Y-52200D01*
X70373Y-52164D01*
X70373Y-52125D01*
X70373Y-51930D01*
X70358Y-51894D01*
X70330Y-51866D01*
X70294Y-51851D01*
X70255Y-51851D01*
X70201Y-51851D01*
X70147Y-51840D01*
X70092Y-51840D01*
X70098Y-51826D01*
X70098Y-51789D01*
X70101Y-51790D01*
X70140Y-51790D01*
X70315Y-51790D01*
X70351Y-51775D01*
X70379Y-51747D01*
X70393Y-51713D01*
X70407Y-51747D01*
X70435Y-51775D01*
X70471Y-51790D01*
X70510Y-51790D01*
X70685Y-51790D01*
X70721Y-51775D01*
X70725Y-51771D01*
X70753Y-51771D01*
X70957Y-51975D01*
X70957Y-51975D01*
X70982Y-52000D01*
X71014Y-52014D01*
X71014Y-52014D01*
X71047Y-52027D01*
X71117Y-52027D01*
X71150Y-52014D01*
X71182Y-52000D01*
X71232Y-51950D01*
X71246Y-51918D01*
X71259Y-51885D01*
X71259Y-51815D01*
X71246Y-51782D01*
X71232Y-51750D01*
X71207Y-51725D01*
X71183Y-51700D01*
X71183Y-51700D01*
X70952Y-51469D01*
X70894Y-51430D01*
X70826Y-51417D01*
X70725Y-51417D01*
X70722Y-51413D01*
X70685Y-51398D01*
X70646Y-51398D01*
X70471Y-51398D01*
X70435Y-51413D01*
X70407Y-51441D01*
X70393Y-51475D01*
X70379Y-51441D01*
X70352Y-51413D01*
X70315Y-51398D01*
X70276Y-51398D01*
X70177Y-51398D01*
X70177Y-51342D01*
X70151Y-51279D01*
X70472Y-51279D01*
X70540Y-51266D01*
X70540Y-51266D01*
X70597Y-51227D01*
X70605Y-51219D01*
X70668Y-51219D01*
X70704Y-51204D01*
X70708Y-51200D01*
X70709Y-51200D01*
X70712Y-51204D01*
X70748Y-51219D01*
X70788Y-51219D01*
X70983Y-51219D01*
X71019Y-51204D01*
X71023Y-51200D01*
X71405Y-51200D01*
X71420Y-51197D01*
X71534Y-51197D01*
X71570Y-51182D01*
X71598Y-51155D01*
X71613Y-51118D01*
X71613Y-51079D01*
X71613Y-50904D01*
X71598Y-50868D01*
X71573Y-50844D01*
X71606Y-50822D01*
X72015Y-50413D01*
X72256Y-50413D01*
X72362Y-50519D01*
X72362Y-50962D01*
G54D10*
G36*
X75610Y-56043D02*
X73562Y-56043D01*
X73562Y-56279D01*
X72874Y-56279D01*
X72874Y-51153D01*
X72874Y-50413D01*
X72874Y-50413D01*
X72854Y-50315D01*
X72854Y-50315D01*
X72836Y-50287D01*
X72834Y-50285D01*
X72834Y-48606D01*
X72807Y-48541D01*
X72757Y-48491D01*
X72692Y-48464D01*
X72622Y-48464D01*
X72557Y-48491D01*
X72507Y-48541D01*
X72480Y-48606D01*
X72480Y-48676D01*
X72507Y-48741D01*
X72556Y-48791D01*
X72622Y-48818D01*
X72692Y-48818D01*
X72757Y-48792D01*
X72807Y-48742D01*
X72834Y-48677D01*
X72834Y-48606D01*
X72834Y-50285D01*
X72799Y-50232D01*
X72799Y-50232D01*
X72543Y-49976D01*
X72460Y-49921D01*
X72443Y-49917D01*
X72362Y-49901D01*
X71909Y-49901D01*
X71827Y-49917D01*
X71811Y-49921D01*
X71728Y-49976D01*
X71259Y-50445D01*
X71236Y-50460D01*
X71180Y-50543D01*
X71161Y-50641D01*
X71180Y-50739D01*
X71236Y-50822D01*
X71263Y-50841D01*
X71258Y-50846D01*
X71023Y-50846D01*
X71019Y-50842D01*
X70983Y-50827D01*
X70944Y-50827D01*
X70749Y-50827D01*
X70712Y-50842D01*
X70709Y-50846D01*
X70708Y-50846D01*
X70704Y-50842D01*
X70668Y-50827D01*
X70629Y-50827D01*
X70434Y-50827D01*
X70398Y-50842D01*
X70370Y-50870D01*
X70355Y-50906D01*
X70355Y-50925D01*
X70068Y-50925D01*
X70078Y-50901D01*
X70078Y-50866D01*
X70078Y-50831D01*
X70078Y-50830D01*
X70078Y-50787D01*
X70078Y-50787D01*
X70065Y-50719D01*
X70026Y-50662D01*
X70026Y-50662D01*
X70018Y-50654D01*
X70018Y-50493D01*
X70003Y-50457D01*
X70000Y-50453D01*
X70000Y-50452D01*
X70003Y-50448D01*
X70018Y-50412D01*
X70018Y-50373D01*
X70018Y-50178D01*
X70011Y-50161D01*
X70011Y-50079D01*
X70019Y-50060D01*
X70033Y-50094D01*
X70061Y-50121D01*
X70097Y-50136D01*
X70136Y-50136D01*
X70311Y-50136D01*
X70347Y-50121D01*
X70351Y-50118D01*
X70610Y-50118D01*
X70610Y-50118D01*
X70645Y-50118D01*
X70678Y-50104D01*
X70710Y-50091D01*
X70735Y-50066D01*
X70760Y-50041D01*
X70773Y-50008D01*
X70773Y-50008D01*
X70773Y-50008D01*
X70787Y-49976D01*
X70787Y-49940D01*
X70787Y-49905D01*
X70773Y-49873D01*
X70760Y-49840D01*
X70735Y-49815D01*
X70710Y-49790D01*
X70678Y-49777D01*
X70678Y-49777D01*
X70645Y-49763D01*
X70575Y-49763D01*
X70575Y-49763D01*
X70351Y-49763D01*
X70348Y-49760D01*
X70311Y-49745D01*
X70272Y-49745D01*
X70097Y-49745D01*
X70061Y-49759D01*
X70033Y-49787D01*
X70019Y-49821D01*
X70005Y-49787D01*
X69978Y-49760D01*
X69941Y-49745D01*
X69902Y-49745D01*
X69727Y-49745D01*
X69691Y-49759D01*
X69663Y-49787D01*
X69648Y-49823D01*
X69648Y-49862D01*
X69648Y-50057D01*
X69657Y-50079D01*
X69657Y-50126D01*
X69642Y-50141D01*
X69630Y-50169D01*
X69603Y-50158D01*
X69564Y-50158D01*
X69389Y-50158D01*
X69363Y-50168D01*
X69370Y-50153D01*
X69370Y-50118D01*
X69370Y-50083D01*
X69370Y-50082D01*
X69370Y-49960D01*
X69356Y-49892D01*
X69356Y-49892D01*
X69329Y-49852D01*
X69329Y-49784D01*
X69315Y-49748D01*
X69311Y-49744D01*
X69311Y-49743D01*
X69314Y-49739D01*
X69329Y-49703D01*
X69329Y-49664D01*
X69329Y-49469D01*
X69315Y-49433D01*
X69311Y-49429D01*
X69311Y-49426D01*
X69314Y-49422D01*
X69329Y-49386D01*
X69329Y-49347D01*
X69329Y-49172D01*
X69314Y-49136D01*
X69287Y-49108D01*
X69253Y-49094D01*
X69287Y-49080D01*
X69314Y-49052D01*
X69329Y-49016D01*
X69329Y-48977D01*
X69329Y-48802D01*
X69314Y-48766D01*
X69311Y-48762D01*
X69311Y-48681D01*
X69311Y-48681D01*
X69311Y-48646D01*
X69297Y-48613D01*
X69284Y-48580D01*
X69259Y-48555D01*
X69234Y-48530D01*
X69201Y-48517D01*
X69201Y-48517D01*
X69169Y-48503D01*
X69098Y-48503D01*
X69033Y-48530D01*
X68983Y-48580D01*
X68970Y-48613D01*
X68970Y-48613D01*
X68970Y-48613D01*
X68956Y-48645D01*
X68956Y-48716D01*
X68956Y-48716D01*
X68956Y-48762D01*
X68952Y-48766D01*
X68937Y-48802D01*
X68937Y-48841D01*
X68937Y-49016D01*
X68952Y-49052D01*
X68980Y-49080D01*
X69014Y-49094D01*
X68980Y-49108D01*
X68952Y-49136D01*
X68937Y-49172D01*
X68937Y-49211D01*
X68937Y-49386D01*
X68952Y-49422D01*
X68956Y-49426D01*
X68956Y-49429D01*
X68953Y-49433D01*
X68938Y-49469D01*
X68938Y-49508D01*
X68938Y-49703D01*
X68953Y-49739D01*
X68956Y-49743D01*
X68956Y-49744D01*
X68953Y-49748D01*
X68938Y-49784D01*
X68938Y-49823D01*
X68938Y-50018D01*
X68953Y-50054D01*
X68980Y-50082D01*
X69015Y-50097D01*
X69015Y-50117D01*
X69015Y-50153D01*
X69029Y-50185D01*
X69042Y-50218D01*
X69067Y-50243D01*
X69092Y-50268D01*
X69125Y-50281D01*
X69125Y-50281D01*
X69157Y-50295D01*
X69192Y-50295D01*
X69227Y-50295D01*
X69260Y-50281D01*
X69293Y-50268D01*
X69310Y-50251D01*
X69310Y-50276D01*
X69310Y-50331D01*
X69303Y-50341D01*
X69291Y-50401D01*
X69291Y-50513D01*
X69281Y-50537D01*
X69281Y-50595D01*
X69256Y-50606D01*
X69228Y-50634D01*
X69213Y-50670D01*
X69213Y-50709D01*
X69213Y-50815D01*
X69196Y-50822D01*
X69149Y-50869D01*
X69124Y-50931D01*
X69123Y-50997D01*
X69149Y-51059D01*
X69153Y-51062D01*
X69149Y-51066D01*
X69124Y-51127D01*
X69123Y-51194D01*
X69149Y-51256D01*
X69153Y-51259D01*
X69149Y-51263D01*
X69124Y-51324D01*
X69123Y-51391D01*
X69149Y-51452D01*
X69196Y-51500D01*
X69257Y-51525D01*
X69324Y-51525D01*
X69385Y-51500D01*
X69433Y-51453D01*
X69458Y-51391D01*
X69458Y-51325D01*
X69455Y-51317D01*
X69509Y-51306D01*
X69509Y-51306D01*
X69551Y-51278D01*
X69644Y-51278D01*
X69680Y-51263D01*
X69708Y-51236D01*
X69723Y-51200D01*
X69723Y-51160D01*
X69723Y-50965D01*
X69708Y-50929D01*
X69680Y-50901D01*
X69644Y-50886D01*
X69605Y-50886D01*
X69605Y-50886D01*
X69605Y-50865D01*
X69605Y-50670D01*
X69596Y-50650D01*
X69616Y-50604D01*
X69616Y-50544D01*
X69627Y-50540D01*
X69627Y-50727D01*
X69642Y-50763D01*
X69667Y-50789D01*
X69667Y-50789D01*
X69697Y-50834D01*
X69724Y-50860D01*
X69724Y-50865D01*
X69724Y-50901D01*
X69737Y-50933D01*
X69751Y-50966D01*
X69769Y-50984D01*
X69751Y-51001D01*
X69737Y-51034D01*
X69737Y-51034D01*
X69737Y-51034D01*
X69724Y-51066D01*
X69724Y-51137D01*
X69737Y-51170D01*
X69751Y-51202D01*
X69776Y-51227D01*
X69801Y-51252D01*
X69833Y-51266D01*
X69833Y-51266D01*
X69853Y-51274D01*
X69849Y-51277D01*
X69822Y-51342D01*
X69822Y-51413D01*
X69840Y-51456D01*
X69803Y-51456D01*
X69750Y-51467D01*
X69735Y-51477D01*
X69705Y-51497D01*
X69508Y-51693D01*
X69478Y-51738D01*
X69476Y-51753D01*
X69458Y-51753D01*
X69458Y-51728D01*
X69433Y-51667D01*
X69386Y-51620D01*
X69324Y-51594D01*
X69258Y-51594D01*
X69196Y-51619D01*
X69149Y-51666D01*
X69124Y-51728D01*
X69123Y-51794D01*
X69148Y-51855D01*
X69124Y-51915D01*
X69123Y-51981D01*
X69149Y-52043D01*
X69196Y-52090D01*
X69257Y-52116D01*
X69324Y-52116D01*
X69348Y-52106D01*
X69350Y-52106D01*
X69374Y-52129D01*
X69410Y-52144D01*
X69449Y-52144D01*
X69644Y-52144D01*
X69680Y-52129D01*
X69708Y-52102D01*
X69723Y-52066D01*
X69723Y-52026D01*
X69723Y-51938D01*
X69723Y-51937D01*
X69733Y-51922D01*
X69733Y-51922D01*
X69744Y-51870D01*
X69744Y-51870D01*
X69744Y-51848D01*
X69750Y-51842D01*
X69770Y-51891D01*
X69783Y-51904D01*
X69771Y-51917D01*
X69757Y-51949D01*
X69757Y-51949D01*
X69757Y-51949D01*
X69744Y-51982D01*
X69744Y-52052D01*
X69757Y-52085D01*
X69770Y-52117D01*
X69783Y-52130D01*
X69771Y-52143D01*
X69744Y-52208D01*
X69744Y-52279D01*
X69770Y-52344D01*
X69778Y-52352D01*
X69771Y-52360D01*
X69744Y-52425D01*
X69744Y-52495D01*
X69770Y-52560D01*
X69788Y-52578D01*
X69771Y-52596D01*
X69744Y-52661D01*
X69744Y-52731D01*
X69770Y-52797D01*
X69820Y-52846D01*
X69885Y-52873D01*
X69956Y-52874D01*
X70003Y-52854D01*
X70026Y-52877D01*
X70062Y-52892D01*
X70101Y-52892D01*
X70276Y-52892D01*
X70312Y-52877D01*
X70340Y-52850D01*
X70354Y-52816D01*
X70361Y-52833D01*
X70322Y-52871D01*
X70295Y-52937D01*
X70295Y-53007D01*
X70313Y-53051D01*
X69921Y-53051D01*
X69886Y-53051D01*
X69838Y-53070D01*
X69704Y-53070D01*
X69699Y-53071D01*
X69548Y-53071D01*
X69512Y-53086D01*
X69484Y-53114D01*
X69469Y-53150D01*
X69469Y-53189D01*
X69469Y-53384D01*
X69484Y-53421D01*
X69512Y-53448D01*
X69548Y-53463D01*
X69587Y-53463D01*
X69744Y-53463D01*
X69744Y-53519D01*
X69770Y-53584D01*
X69795Y-53609D01*
X69820Y-53634D01*
X69827Y-53637D01*
X69873Y-53667D01*
X69941Y-53681D01*
X69980Y-53681D01*
X69984Y-53684D01*
X70020Y-53700D01*
X70059Y-53700D01*
X70254Y-53700D01*
X70290Y-53685D01*
X70294Y-53681D01*
X70295Y-53681D01*
X70299Y-53684D01*
X70335Y-53700D01*
X70374Y-53700D01*
X70569Y-53700D01*
X70605Y-53685D01*
X70609Y-53681D01*
X70766Y-53681D01*
X70771Y-53686D01*
X70805Y-53700D01*
X70772Y-53714D01*
X70744Y-53742D01*
X70729Y-53778D01*
X70729Y-53817D01*
X70729Y-53881D01*
X70728Y-53885D01*
X70729Y-53890D01*
X70729Y-53992D01*
X70744Y-54028D01*
X70771Y-54056D01*
X70808Y-54071D01*
X70847Y-54071D01*
X70870Y-54071D01*
X70925Y-54082D01*
X70972Y-54082D01*
X70972Y-54082D01*
X71027Y-54118D01*
X71102Y-54133D01*
X72125Y-54133D01*
X72201Y-54118D01*
X72265Y-54076D01*
X72307Y-54012D01*
X72322Y-53937D01*
X72307Y-53861D01*
X72265Y-53797D01*
X72201Y-53755D01*
X72125Y-53740D01*
X71613Y-53740D01*
X71613Y-53719D01*
X71613Y-53524D01*
X71598Y-53488D01*
X71583Y-53473D01*
X71594Y-53446D01*
X71608Y-53479D01*
X71636Y-53507D01*
X71672Y-53522D01*
X71711Y-53522D01*
X71886Y-53522D01*
X71922Y-53507D01*
X71934Y-53496D01*
X71952Y-53503D01*
X72023Y-53503D01*
X72088Y-53477D01*
X72138Y-53427D01*
X72165Y-53362D01*
X72165Y-53291D01*
X72138Y-53226D01*
X72088Y-53176D01*
X72023Y-53149D01*
X71953Y-53149D01*
X71934Y-53157D01*
X71922Y-53145D01*
X71886Y-53130D01*
X71847Y-53130D01*
X71719Y-53130D01*
X71739Y-53117D01*
X71983Y-52873D01*
X71988Y-52873D01*
X72025Y-52858D01*
X72052Y-52830D01*
X72066Y-52796D01*
X72066Y-52952D01*
X72066Y-52987D01*
X72080Y-53020D01*
X72093Y-53052D01*
X72118Y-53078D01*
X72143Y-53102D01*
X72176Y-53116D01*
X72176Y-53116D01*
X72208Y-53129D01*
X72244Y-53129D01*
X72279Y-53129D01*
X72311Y-53116D01*
X72344Y-53103D01*
X72369Y-53078D01*
X72394Y-53053D01*
X72407Y-53020D01*
X72407Y-53020D01*
X72407Y-53020D01*
X72421Y-52988D01*
X72421Y-52952D01*
X72421Y-52917D01*
X72421Y-52917D01*
X72421Y-52832D01*
X72422Y-52830D01*
X72437Y-52794D01*
X72437Y-52755D01*
X72437Y-52560D01*
X72434Y-52551D01*
X72482Y-52532D01*
X72531Y-52482D01*
X72559Y-52417D01*
X72559Y-52346D01*
X72532Y-52281D01*
X72482Y-52231D01*
X72437Y-52213D01*
X72437Y-52028D01*
X72437Y-52027D01*
X72480Y-52027D01*
X72480Y-52027D01*
X72515Y-52027D01*
X72548Y-52014D01*
X72580Y-52000D01*
X72605Y-51975D01*
X72630Y-51950D01*
X72643Y-51918D01*
X72643Y-51918D01*
X72643Y-51918D01*
X72657Y-51885D01*
X72657Y-51850D01*
X72657Y-51815D01*
X72643Y-51782D01*
X72630Y-51750D01*
X72605Y-51725D01*
X72590Y-51709D01*
X72735Y-51709D01*
X72771Y-51694D01*
X72799Y-51666D01*
X72814Y-51630D01*
X72814Y-51591D01*
X72814Y-51416D01*
X72799Y-51380D01*
X72771Y-51352D01*
X72799Y-51334D01*
X72854Y-51251D01*
X72874Y-51153D01*
X72874Y-56279D01*
X71416Y-56279D01*
X71416Y-54878D01*
X71416Y-54703D01*
X71401Y-54667D01*
X71373Y-54640D01*
X71339Y-54625D01*
X71373Y-54611D01*
X71401Y-54584D01*
X71416Y-54548D01*
X71416Y-54508D01*
X71416Y-54333D01*
X71401Y-54297D01*
X71373Y-54270D01*
X71337Y-54255D01*
X71298Y-54255D01*
X71103Y-54255D01*
X71067Y-54269D01*
X71064Y-54272D01*
X71039Y-54261D01*
X70968Y-54261D01*
X70903Y-54288D01*
X70853Y-54338D01*
X70826Y-54403D01*
X70826Y-54474D01*
X70853Y-54539D01*
X70903Y-54589D01*
X70968Y-54616D01*
X71039Y-54616D01*
X71061Y-54606D01*
X71067Y-54611D01*
X71101Y-54626D01*
X71067Y-54639D01*
X71039Y-54667D01*
X71024Y-54703D01*
X71024Y-54704D01*
X70968Y-54704D01*
X70903Y-54731D01*
X70853Y-54781D01*
X70826Y-54846D01*
X70826Y-54916D01*
X70853Y-54982D01*
X70903Y-55031D01*
X70968Y-55059D01*
X71039Y-55059D01*
X71104Y-55032D01*
X71116Y-55019D01*
X71141Y-55019D01*
X71141Y-55019D01*
X71194Y-55009D01*
X71212Y-54996D01*
X71337Y-54996D01*
X71373Y-54981D01*
X71401Y-54954D01*
X71416Y-54918D01*
X71416Y-54878D01*
X71416Y-56279D01*
X70296Y-56279D01*
X70296Y-54428D01*
X70296Y-54114D01*
X70281Y-54078D01*
X70253Y-54050D01*
X70217Y-54035D01*
X70178Y-54035D01*
X69964Y-54035D01*
X69962Y-54035D01*
X69829Y-54035D01*
X69744Y-53950D01*
X69744Y-53917D01*
X69732Y-53857D01*
X69732Y-53857D01*
X69697Y-53805D01*
X69487Y-53595D01*
X69487Y-53446D01*
X69472Y-53409D01*
X69448Y-53386D01*
X69448Y-53383D01*
X69458Y-53360D01*
X69458Y-53293D01*
X69433Y-53232D01*
X69429Y-53228D01*
X69433Y-53224D01*
X69458Y-53163D01*
X69458Y-53096D01*
X69433Y-53035D01*
X69429Y-53031D01*
X69433Y-53027D01*
X69458Y-52966D01*
X69458Y-52899D01*
X69433Y-52839D01*
X69458Y-52779D01*
X69458Y-52712D01*
X69433Y-52651D01*
X69429Y-52647D01*
X69433Y-52644D01*
X69458Y-52582D01*
X69458Y-52516D01*
X69433Y-52454D01*
X69429Y-52450D01*
X69433Y-52447D01*
X69458Y-52385D01*
X69458Y-52319D01*
X69433Y-52257D01*
X69386Y-52210D01*
X69324Y-52185D01*
X69258Y-52185D01*
X69196Y-52210D01*
X69149Y-52257D01*
X69124Y-52318D01*
X69123Y-52385D01*
X69149Y-52447D01*
X69153Y-52450D01*
X69149Y-52454D01*
X69124Y-52515D01*
X69123Y-52582D01*
X69149Y-52643D01*
X69153Y-52647D01*
X69149Y-52651D01*
X69124Y-52712D01*
X69123Y-52779D01*
X69148Y-52839D01*
X69124Y-52899D01*
X69123Y-52966D01*
X69149Y-53027D01*
X69153Y-53031D01*
X69149Y-53035D01*
X69124Y-53096D01*
X69123Y-53163D01*
X69149Y-53224D01*
X69153Y-53228D01*
X69149Y-53231D01*
X69124Y-53293D01*
X69123Y-53359D01*
X69133Y-53383D01*
X69133Y-53386D01*
X69110Y-53409D01*
X69095Y-53445D01*
X69095Y-53484D01*
X69095Y-53679D01*
X69110Y-53716D01*
X69137Y-53743D01*
X69174Y-53758D01*
X69205Y-53758D01*
X69271Y-53825D01*
X69269Y-53826D01*
X69219Y-53875D01*
X69206Y-53908D01*
X69206Y-53908D01*
X69206Y-53908D01*
X69192Y-53940D01*
X69192Y-54011D01*
X69192Y-54011D01*
X69192Y-54020D01*
X69059Y-54154D01*
X69015Y-54154D01*
X69015Y-53980D01*
X69002Y-53947D01*
X68988Y-53915D01*
X68963Y-53890D01*
X68963Y-53890D01*
X68963Y-53890D01*
X68939Y-53865D01*
X68938Y-53865D01*
X68798Y-53724D01*
X68798Y-53701D01*
X68783Y-53665D01*
X68755Y-53637D01*
X68719Y-53622D01*
X68680Y-53622D01*
X68485Y-53622D01*
X68449Y-53637D01*
X68421Y-53665D01*
X68406Y-53701D01*
X68406Y-53740D01*
X68406Y-53935D01*
X68421Y-53971D01*
X68449Y-53999D01*
X68485Y-54014D01*
X68524Y-54014D01*
X68586Y-54014D01*
X68713Y-54141D01*
X68713Y-54141D01*
X68738Y-54165D01*
X68770Y-54179D01*
X68770Y-54179D01*
X68803Y-54192D01*
X68873Y-54192D01*
X68906Y-54179D01*
X68938Y-54166D01*
X68963Y-54141D01*
X68988Y-54116D01*
X69002Y-54083D01*
X69015Y-54051D01*
X69015Y-53980D01*
X69015Y-54154D01*
X68997Y-54154D01*
X68960Y-54169D01*
X68933Y-54197D01*
X68918Y-54233D01*
X68918Y-54272D01*
X68918Y-54467D01*
X68933Y-54503D01*
X68936Y-54507D01*
X68936Y-54508D01*
X68933Y-54512D01*
X68918Y-54548D01*
X68918Y-54587D01*
X68918Y-54782D01*
X68933Y-54818D01*
X68936Y-54822D01*
X68936Y-54825D01*
X68933Y-54829D01*
X68918Y-54865D01*
X68918Y-54904D01*
X68918Y-55079D01*
X68933Y-55115D01*
X68960Y-55143D01*
X68994Y-55157D01*
X68960Y-55171D01*
X68933Y-55199D01*
X68918Y-55235D01*
X68918Y-55274D01*
X68918Y-55333D01*
X68906Y-55328D01*
X68906Y-55328D01*
X68873Y-55314D01*
X68816Y-55314D01*
X68803Y-55251D01*
X68778Y-55213D01*
X68761Y-55187D01*
X68761Y-55187D01*
X68570Y-54997D01*
X68570Y-54929D01*
X68555Y-54853D01*
X68513Y-54789D01*
X68513Y-54789D01*
X68257Y-54534D01*
X68257Y-50734D01*
X68232Y-50673D01*
X68185Y-50625D01*
X68123Y-50600D01*
X68057Y-50600D01*
X67995Y-50625D01*
X67948Y-50672D01*
X67923Y-50734D01*
X67923Y-50800D01*
X67948Y-50862D01*
X67995Y-50909D01*
X68057Y-50935D01*
X68123Y-50935D01*
X68185Y-50909D01*
X68232Y-50862D01*
X68257Y-50801D01*
X68257Y-50734D01*
X68257Y-54534D01*
X68119Y-54396D01*
X68055Y-54353D01*
X68034Y-54349D01*
X68066Y-54336D01*
X68094Y-54308D01*
X68109Y-54272D01*
X68109Y-54233D01*
X68109Y-54058D01*
X68094Y-54022D01*
X68090Y-54018D01*
X68090Y-54015D01*
X68094Y-54011D01*
X68109Y-53975D01*
X68109Y-53936D01*
X68109Y-53741D01*
X68096Y-53710D01*
X68109Y-53680D01*
X68109Y-53641D01*
X68109Y-53446D01*
X68094Y-53409D01*
X68066Y-53382D01*
X68060Y-53379D01*
X68061Y-53313D01*
X68035Y-53251D01*
X67988Y-53204D01*
X67927Y-53179D01*
X67860Y-53179D01*
X67799Y-53204D01*
X67751Y-53251D01*
X67726Y-53313D01*
X67726Y-53379D01*
X67736Y-53403D01*
X67736Y-53406D01*
X67732Y-53409D01*
X67717Y-53445D01*
X67717Y-53484D01*
X67717Y-53679D01*
X67730Y-53710D01*
X67717Y-53741D01*
X67717Y-53780D01*
X67717Y-53888D01*
X67692Y-53877D01*
X67622Y-53877D01*
X67559Y-53904D01*
X67559Y-53503D01*
X67558Y-53503D01*
X67594Y-53488D01*
X67641Y-53441D01*
X67667Y-53379D01*
X67667Y-53313D01*
X67641Y-53251D01*
X67594Y-53204D01*
X67533Y-53179D01*
X67466Y-53179D01*
X67405Y-53204D01*
X67401Y-53208D01*
X67398Y-53204D01*
X67336Y-53179D01*
X67270Y-53179D01*
X67208Y-53204D01*
X67161Y-53251D01*
X67135Y-53313D01*
X67135Y-53379D01*
X67145Y-53403D01*
X67145Y-53405D01*
X67157Y-53465D01*
X67191Y-53516D01*
X67244Y-53569D01*
X67244Y-54076D01*
X67209Y-54090D01*
X67185Y-54114D01*
X67165Y-54095D01*
X67165Y-53996D01*
X67150Y-53920D01*
X67107Y-53856D01*
X67043Y-53814D01*
X66968Y-53799D01*
X66893Y-53814D01*
X66829Y-53856D01*
X66786Y-53920D01*
X66782Y-53940D01*
X66764Y-53895D01*
X66714Y-53845D01*
X66649Y-53818D01*
X66579Y-53818D01*
X66572Y-53821D01*
X66584Y-53793D01*
X66584Y-53726D01*
X66569Y-53690D01*
X66575Y-53687D01*
X66575Y-53699D01*
X66590Y-53735D01*
X66618Y-53763D01*
X66654Y-53778D01*
X66693Y-53778D01*
X66888Y-53778D01*
X66924Y-53763D01*
X66952Y-53736D01*
X66967Y-53699D01*
X66967Y-53660D01*
X66967Y-53609D01*
X67020Y-53556D01*
X67020Y-53556D01*
X67020Y-53556D01*
X67054Y-53505D01*
X67054Y-53505D01*
X67064Y-53457D01*
X67066Y-53445D01*
X67066Y-53445D01*
X67066Y-53445D01*
X67066Y-53403D01*
X67076Y-53379D01*
X67076Y-53313D01*
X67051Y-53251D01*
X67004Y-53204D01*
X66942Y-53179D01*
X66876Y-53179D01*
X66872Y-53180D01*
X66879Y-53163D01*
X66879Y-53096D01*
X66854Y-53035D01*
X66850Y-53031D01*
X66854Y-53027D01*
X66879Y-52966D01*
X66879Y-52899D01*
X66854Y-52838D01*
X66850Y-52834D01*
X66854Y-52831D01*
X66879Y-52769D01*
X66879Y-52703D01*
X66854Y-52641D01*
X66850Y-52637D01*
X66854Y-52634D01*
X66879Y-52572D01*
X66879Y-52506D01*
X66854Y-52444D01*
X66850Y-52440D01*
X66854Y-52437D01*
X66879Y-52375D01*
X66879Y-52309D01*
X66854Y-52247D01*
X66850Y-52244D01*
X66854Y-52240D01*
X66879Y-52179D01*
X66879Y-52112D01*
X66854Y-52051D01*
X66850Y-52047D01*
X66854Y-52043D01*
X66879Y-51982D01*
X66879Y-51915D01*
X66854Y-51854D01*
X66850Y-51850D01*
X66854Y-51846D01*
X66879Y-51785D01*
X66879Y-51718D01*
X66854Y-51657D01*
X66850Y-51653D01*
X66854Y-51650D01*
X66879Y-51588D01*
X66879Y-51521D01*
X66854Y-51460D01*
X66850Y-51456D01*
X66854Y-51453D01*
X66879Y-51391D01*
X66879Y-51325D01*
X66854Y-51263D01*
X66850Y-51259D01*
X66854Y-51256D01*
X66879Y-51194D01*
X66879Y-51128D01*
X66854Y-51066D01*
X66850Y-51063D01*
X66854Y-51059D01*
X66879Y-50997D01*
X66879Y-50931D01*
X66854Y-50869D01*
X66850Y-50866D01*
X66854Y-50862D01*
X66879Y-50801D01*
X66879Y-50734D01*
X66854Y-50673D01*
X66807Y-50625D01*
X66746Y-50600D01*
X66679Y-50600D01*
X66642Y-50615D01*
X66634Y-50571D01*
X66578Y-50488D01*
X66553Y-50471D01*
X66555Y-50471D01*
X66750Y-50471D01*
X66786Y-50456D01*
X66814Y-50428D01*
X66829Y-50392D01*
X66829Y-50353D01*
X66829Y-50314D01*
X67007Y-50314D01*
X67007Y-50314D01*
X67042Y-50314D01*
X67075Y-50301D01*
X67108Y-50288D01*
X67125Y-50270D01*
X67125Y-50394D01*
X67122Y-50397D01*
X67107Y-50434D01*
X67107Y-50473D01*
X67107Y-50668D01*
X67121Y-50704D01*
X67145Y-50728D01*
X67145Y-50767D01*
X67159Y-50835D01*
X67197Y-50892D01*
X67255Y-50931D01*
X67322Y-50944D01*
X67390Y-50931D01*
X67448Y-50892D01*
X67486Y-50835D01*
X67500Y-50767D01*
X67500Y-50571D01*
X67498Y-50565D01*
X67498Y-50565D01*
X67498Y-50434D01*
X67483Y-50398D01*
X67480Y-50394D01*
X67480Y-50019D01*
X67483Y-50015D01*
X67498Y-49979D01*
X67498Y-49940D01*
X67498Y-49745D01*
X67483Y-49709D01*
X67480Y-49705D01*
X67480Y-49702D01*
X67484Y-49698D01*
X67499Y-49662D01*
X67499Y-49623D01*
X67499Y-49448D01*
X67484Y-49411D01*
X67456Y-49384D01*
X67422Y-49370D01*
X67456Y-49356D01*
X67484Y-49328D01*
X67499Y-49292D01*
X67499Y-49253D01*
X67499Y-49078D01*
X67484Y-49041D01*
X67480Y-49038D01*
X67480Y-48956D01*
X67480Y-48956D01*
X67480Y-48921D01*
X67466Y-48888D01*
X67453Y-48856D01*
X67428Y-48831D01*
X67403Y-48806D01*
X67370Y-48793D01*
X67370Y-48793D01*
X67338Y-48779D01*
X67268Y-48779D01*
X67202Y-48806D01*
X67153Y-48856D01*
X67139Y-48888D01*
X67139Y-48888D01*
X67139Y-48888D01*
X67126Y-48921D01*
X67125Y-48991D01*
X67125Y-48991D01*
X67125Y-49038D01*
X67122Y-49041D01*
X67107Y-49077D01*
X67107Y-49117D01*
X67107Y-49292D01*
X67122Y-49328D01*
X67149Y-49355D01*
X67183Y-49370D01*
X67149Y-49384D01*
X67122Y-49411D01*
X67107Y-49447D01*
X67107Y-49487D01*
X67107Y-49662D01*
X67122Y-49698D01*
X67125Y-49702D01*
X67125Y-49704D01*
X67122Y-49708D01*
X67107Y-49745D01*
X67107Y-49784D01*
X67107Y-49979D01*
X67112Y-49991D01*
X67108Y-49987D01*
X67075Y-49974D01*
X67075Y-49974D01*
X67043Y-49960D01*
X66972Y-49960D01*
X66972Y-49960D01*
X66829Y-49960D01*
X66829Y-49843D01*
X66814Y-49807D01*
X66811Y-49803D01*
X66811Y-49702D01*
X66814Y-49698D01*
X66829Y-49662D01*
X66829Y-49623D01*
X66829Y-49448D01*
X66814Y-49411D01*
X66787Y-49384D01*
X66753Y-49370D01*
X66787Y-49356D01*
X66814Y-49328D01*
X66829Y-49292D01*
X66829Y-49253D01*
X66829Y-49078D01*
X66814Y-49041D01*
X66811Y-49038D01*
X66811Y-48956D01*
X66811Y-48956D01*
X66811Y-48921D01*
X66797Y-48888D01*
X66784Y-48856D01*
X66759Y-48831D01*
X66734Y-48806D01*
X66701Y-48793D01*
X66701Y-48793D01*
X66692Y-48789D01*
X66706Y-48783D01*
X66709Y-48779D01*
X66810Y-48779D01*
X66811Y-48779D01*
X66846Y-48779D01*
X66878Y-48766D01*
X66911Y-48752D01*
X66936Y-48727D01*
X66961Y-48702D01*
X66974Y-48670D01*
X66974Y-48670D01*
X66974Y-48670D01*
X66988Y-48637D01*
X66988Y-48602D01*
X66988Y-48567D01*
X66974Y-48534D01*
X66961Y-48502D01*
X66936Y-48477D01*
X66911Y-48452D01*
X66878Y-48438D01*
X66878Y-48438D01*
X66846Y-48425D01*
X66775Y-48425D01*
X66775Y-48425D01*
X66709Y-48425D01*
X66706Y-48421D01*
X66670Y-48406D01*
X66630Y-48406D01*
X66455Y-48406D01*
X66419Y-48421D01*
X66392Y-48449D01*
X66377Y-48483D01*
X66363Y-48449D01*
X66336Y-48421D01*
X66300Y-48406D01*
X66260Y-48406D01*
X66197Y-48406D01*
X66192Y-48405D01*
X66188Y-48406D01*
X66085Y-48406D01*
X66049Y-48421D01*
X66022Y-48449D01*
X66007Y-48485D01*
X66007Y-48524D01*
X66007Y-48547D01*
X65996Y-48602D01*
X65996Y-49008D01*
X66003Y-49046D01*
X66003Y-49291D01*
X66018Y-49366D01*
X66061Y-49430D01*
X66061Y-49430D01*
X66125Y-49473D01*
X66200Y-49488D01*
X66276Y-49473D01*
X66339Y-49430D01*
X66382Y-49366D01*
X66397Y-49291D01*
X66397Y-49290D01*
X66397Y-49015D01*
X66397Y-49015D01*
X66396Y-49011D01*
X66396Y-49011D01*
X66396Y-48898D01*
X66389Y-48882D01*
X66389Y-48750D01*
X66391Y-48755D01*
X66419Y-48783D01*
X66455Y-48798D01*
X66494Y-48798D01*
X66553Y-48798D01*
X66533Y-48806D01*
X66483Y-48856D01*
X66470Y-48888D01*
X66470Y-48888D01*
X66470Y-48888D01*
X66456Y-48921D01*
X66456Y-48991D01*
X66456Y-48991D01*
X66456Y-49038D01*
X66452Y-49041D01*
X66437Y-49077D01*
X66437Y-49117D01*
X66437Y-49292D01*
X66452Y-49328D01*
X66480Y-49355D01*
X66514Y-49370D01*
X66480Y-49384D01*
X66452Y-49411D01*
X66437Y-49447D01*
X66437Y-49487D01*
X66437Y-49662D01*
X66452Y-49698D01*
X66456Y-49702D01*
X66456Y-49803D01*
X66452Y-49807D01*
X66437Y-49843D01*
X66437Y-49882D01*
X66437Y-50077D01*
X66452Y-50113D01*
X66456Y-50117D01*
X66456Y-50118D01*
X66452Y-50122D01*
X66437Y-50158D01*
X66437Y-50197D01*
X66437Y-50392D01*
X66450Y-50423D01*
X66397Y-50413D01*
X66299Y-50432D01*
X66298Y-50433D01*
X66298Y-50433D01*
X66288Y-50426D01*
X66220Y-50413D01*
X66192Y-50413D01*
X66187Y-50384D01*
X66187Y-50384D01*
X66148Y-50327D01*
X66042Y-50220D01*
X66042Y-50158D01*
X66027Y-50122D01*
X65999Y-50094D01*
X65963Y-50079D01*
X65924Y-50079D01*
X65729Y-50079D01*
X65693Y-50094D01*
X65665Y-50122D01*
X65650Y-50158D01*
X65650Y-50197D01*
X65650Y-50392D01*
X65665Y-50428D01*
X65693Y-50456D01*
X65729Y-50471D01*
X65768Y-50471D01*
X65791Y-50471D01*
X65846Y-50526D01*
X65846Y-50551D01*
X65859Y-50618D01*
X65898Y-50676D01*
X65930Y-50708D01*
X65912Y-50726D01*
X65885Y-50791D01*
X65885Y-50861D01*
X65907Y-50914D01*
X65855Y-50879D01*
X65787Y-50865D01*
X65719Y-50879D01*
X65662Y-50917D01*
X65623Y-50975D01*
X65610Y-51043D01*
X65610Y-51259D01*
X65610Y-51294D01*
X65623Y-51327D01*
X65637Y-51360D01*
X65662Y-51385D01*
X65686Y-51409D01*
X65719Y-51423D01*
X65719Y-51423D01*
X65752Y-51436D01*
X65787Y-51437D01*
X65822Y-51437D01*
X65855Y-51423D01*
X65887Y-51410D01*
X65892Y-51405D01*
X65885Y-51421D01*
X65885Y-51491D01*
X65906Y-51541D01*
X65887Y-51523D01*
X65822Y-51496D01*
X65752Y-51496D01*
X65687Y-51522D01*
X65637Y-51572D01*
X65610Y-51637D01*
X65610Y-51708D01*
X65637Y-51773D01*
X65686Y-51823D01*
X65752Y-51850D01*
X65822Y-51850D01*
X65885Y-51824D01*
X65885Y-51885D01*
X65892Y-51901D01*
X65887Y-51897D01*
X65822Y-51870D01*
X65752Y-51870D01*
X65687Y-51896D01*
X65637Y-51946D01*
X65610Y-52011D01*
X65610Y-52082D01*
X65637Y-52147D01*
X65686Y-52197D01*
X65752Y-52224D01*
X65822Y-52224D01*
X65887Y-52197D01*
X65892Y-52192D01*
X65885Y-52208D01*
X65885Y-52279D01*
X65892Y-52295D01*
X65887Y-52290D01*
X65822Y-52263D01*
X65752Y-52263D01*
X65687Y-52290D01*
X65637Y-52340D01*
X65610Y-52405D01*
X65610Y-52476D01*
X65637Y-52541D01*
X65686Y-52591D01*
X65752Y-52618D01*
X65822Y-52618D01*
X65887Y-52591D01*
X65892Y-52586D01*
X65885Y-52602D01*
X65885Y-52672D01*
X65892Y-52689D01*
X65887Y-52684D01*
X65822Y-52657D01*
X65752Y-52657D01*
X65687Y-52684D01*
X65637Y-52734D01*
X65610Y-52799D01*
X65610Y-52869D01*
X65637Y-52934D01*
X65686Y-52984D01*
X65752Y-53011D01*
X65822Y-53011D01*
X65887Y-52984D01*
X65892Y-52980D01*
X65885Y-52996D01*
X65885Y-53066D01*
X65906Y-53116D01*
X65887Y-53097D01*
X65822Y-53070D01*
X65752Y-53070D01*
X65687Y-53097D01*
X65637Y-53147D01*
X65610Y-53212D01*
X65610Y-53283D01*
X65637Y-53348D01*
X65686Y-53398D01*
X65752Y-53425D01*
X65822Y-53425D01*
X65885Y-53399D01*
X65885Y-53460D01*
X65912Y-53525D01*
X65933Y-53546D01*
X65925Y-53563D01*
X65925Y-53603D01*
X65925Y-53676D01*
X65925Y-53681D01*
X65925Y-54015D01*
X65925Y-54016D01*
X65925Y-54342D01*
X65926Y-54347D01*
X65926Y-54449D01*
X65941Y-54485D01*
X65968Y-54513D01*
X65974Y-54515D01*
X65561Y-54515D01*
X65473Y-54427D01*
X65409Y-54385D01*
X65334Y-54370D01*
X64974Y-54370D01*
X64992Y-54352D01*
X65006Y-54319D01*
X65006Y-54319D01*
X65006Y-54319D01*
X65019Y-54287D01*
X65019Y-54251D01*
X65019Y-54216D01*
X65006Y-54184D01*
X64992Y-54151D01*
X64967Y-54126D01*
X64943Y-54101D01*
X64910Y-54088D01*
X64910Y-54088D01*
X64877Y-54074D01*
X64807Y-54074D01*
X64807Y-54074D01*
X64785Y-54074D01*
X64784Y-54072D01*
X64756Y-54044D01*
X64720Y-54029D01*
X64681Y-54029D01*
X64114Y-54029D01*
X64078Y-54044D01*
X64050Y-54072D01*
X64049Y-54074D01*
X63956Y-54074D01*
X63921Y-54074D01*
X63921Y-54074D01*
X63864Y-54074D01*
X63863Y-54072D01*
X63835Y-54044D01*
X63799Y-54029D01*
X63760Y-54029D01*
X63193Y-54029D01*
X63156Y-54044D01*
X63129Y-54072D01*
X63128Y-54074D01*
X63071Y-54074D01*
X63035Y-54074D01*
X62970Y-54101D01*
X62920Y-54151D01*
X62907Y-54184D01*
X62907Y-54184D01*
X62907Y-54184D01*
X62893Y-54216D01*
X62893Y-54287D01*
X62907Y-54319D01*
X62920Y-54352D01*
X62945Y-54377D01*
X62970Y-54401D01*
X62931Y-54427D01*
X62889Y-54491D01*
X62874Y-54566D01*
X62889Y-54642D01*
X62931Y-54706D01*
X62995Y-54748D01*
X63070Y-54763D01*
X63146Y-54763D01*
X63156Y-54774D01*
X63192Y-54789D01*
X63232Y-54789D01*
X63799Y-54789D01*
X63835Y-54774D01*
X63845Y-54763D01*
X64067Y-54763D01*
X64078Y-54774D01*
X64114Y-54789D01*
X64153Y-54789D01*
X64720Y-54789D01*
X64756Y-54774D01*
X64767Y-54763D01*
X64842Y-54763D01*
X65253Y-54763D01*
X65341Y-54851D01*
X65341Y-54851D01*
X65404Y-54894D01*
X65480Y-54909D01*
X66122Y-54909D01*
X66176Y-54898D01*
X66239Y-54898D01*
X66275Y-54883D01*
X66302Y-54855D01*
X66317Y-54819D01*
X66317Y-54780D01*
X66317Y-54717D01*
X66318Y-54712D01*
X66317Y-54707D01*
X66317Y-54605D01*
X66303Y-54569D01*
X66275Y-54541D01*
X66241Y-54527D01*
X66275Y-54513D01*
X66302Y-54485D01*
X66310Y-54468D01*
X66463Y-54468D01*
X66450Y-54499D01*
X66450Y-54499D01*
X66450Y-54499D01*
X66437Y-54531D01*
X66436Y-54602D01*
X66437Y-54602D01*
X66437Y-54667D01*
X66433Y-54671D01*
X66418Y-54707D01*
X66418Y-54746D01*
X66418Y-54921D01*
X66433Y-54958D01*
X66460Y-54985D01*
X66494Y-55000D01*
X66460Y-55014D01*
X66433Y-55041D01*
X66418Y-55077D01*
X66418Y-55116D01*
X66418Y-55180D01*
X66417Y-55185D01*
X66417Y-55590D01*
X66432Y-55665D01*
X66474Y-55729D01*
X66538Y-55772D01*
X66614Y-55787D01*
X66689Y-55772D01*
X66753Y-55729D01*
X66796Y-55665D01*
X66811Y-55590D01*
X66811Y-55185D01*
X66810Y-55180D01*
X66810Y-55078D01*
X66795Y-55041D01*
X66767Y-55014D01*
X66733Y-54999D01*
X66767Y-54985D01*
X66795Y-54958D01*
X66810Y-54922D01*
X66810Y-54883D01*
X66810Y-54708D01*
X66795Y-54671D01*
X66791Y-54667D01*
X66791Y-54567D01*
X66791Y-54566D01*
X66791Y-54531D01*
X66777Y-54499D01*
X66765Y-54468D01*
X67007Y-54468D01*
X67007Y-54468D01*
X67012Y-54467D01*
X67012Y-54467D01*
X67124Y-54467D01*
X67161Y-54452D01*
X67185Y-54428D01*
X67208Y-54452D01*
X67245Y-54467D01*
X67284Y-54467D01*
X67479Y-54467D01*
X67480Y-54467D01*
X67480Y-55019D01*
X67492Y-55080D01*
X67500Y-55092D01*
X67500Y-55195D01*
X67515Y-55231D01*
X67543Y-55259D01*
X67579Y-55274D01*
X67618Y-55274D01*
X67813Y-55274D01*
X67849Y-55259D01*
X67855Y-55254D01*
X67860Y-55259D01*
X67896Y-55274D01*
X67935Y-55274D01*
X68110Y-55274D01*
X68147Y-55259D01*
X68174Y-55232D01*
X68188Y-55198D01*
X68202Y-55231D01*
X68230Y-55259D01*
X68266Y-55274D01*
X68291Y-55274D01*
X68425Y-55408D01*
X68425Y-55492D01*
X68425Y-55496D01*
X68425Y-55609D01*
X68440Y-55645D01*
X68468Y-55673D01*
X68504Y-55688D01*
X68543Y-55688D01*
X68617Y-55688D01*
X68621Y-55688D01*
X68626Y-55688D01*
X68738Y-55688D01*
X68775Y-55673D01*
X68778Y-55669D01*
X68838Y-55669D01*
X68838Y-55669D01*
X68873Y-55669D01*
X68906Y-55655D01*
X68938Y-55642D01*
X68953Y-55627D01*
X68963Y-55651D01*
X68988Y-55676D01*
X69013Y-55701D01*
X69046Y-55714D01*
X69046Y-55714D01*
X69078Y-55728D01*
X69114Y-55728D01*
X69149Y-55728D01*
X69181Y-55714D01*
X69214Y-55701D01*
X69239Y-55676D01*
X69264Y-55651D01*
X69277Y-55618D01*
X69277Y-55618D01*
X69277Y-55618D01*
X69291Y-55586D01*
X69291Y-55551D01*
X69291Y-55516D01*
X69291Y-55516D01*
X69291Y-55489D01*
X69295Y-55485D01*
X69310Y-55449D01*
X69310Y-55410D01*
X69310Y-55235D01*
X69295Y-55199D01*
X69267Y-55171D01*
X69233Y-55157D01*
X69267Y-55143D01*
X69295Y-55115D01*
X69310Y-55079D01*
X69310Y-55040D01*
X69310Y-54865D01*
X69295Y-54829D01*
X69291Y-54825D01*
X69291Y-54822D01*
X69294Y-54818D01*
X69309Y-54782D01*
X69309Y-54743D01*
X69309Y-54548D01*
X69294Y-54512D01*
X69291Y-54508D01*
X69291Y-54507D01*
X69294Y-54503D01*
X69309Y-54467D01*
X69309Y-54428D01*
X69309Y-54405D01*
X69495Y-54219D01*
X69495Y-54219D01*
X69495Y-54219D01*
X69524Y-54176D01*
X69652Y-54304D01*
X69703Y-54338D01*
X69703Y-54338D01*
X69763Y-54350D01*
X69824Y-54350D01*
X69824Y-54467D01*
X69839Y-54504D01*
X69867Y-54531D01*
X69870Y-54533D01*
X69863Y-54550D01*
X69863Y-54589D01*
X69863Y-54764D01*
X69878Y-54800D01*
X69905Y-54828D01*
X69920Y-54834D01*
X69685Y-54834D01*
X69630Y-54845D01*
X69568Y-54845D01*
X69531Y-54860D01*
X69504Y-54888D01*
X69489Y-54924D01*
X69489Y-54963D01*
X69489Y-55026D01*
X69488Y-55031D01*
X69489Y-55036D01*
X69489Y-55138D01*
X69504Y-55174D01*
X69531Y-55202D01*
X69565Y-55216D01*
X69531Y-55230D01*
X69504Y-55258D01*
X69489Y-55294D01*
X69489Y-55333D01*
X69489Y-55508D01*
X69504Y-55544D01*
X69507Y-55548D01*
X69507Y-55649D01*
X69507Y-55684D01*
X69521Y-55717D01*
X69534Y-55749D01*
X69559Y-55774D01*
X69584Y-55799D01*
X69617Y-55813D01*
X69617Y-55813D01*
X69649Y-55826D01*
X69685Y-55826D01*
X69720Y-55826D01*
X69752Y-55813D01*
X69785Y-55799D01*
X69810Y-55774D01*
X69835Y-55750D01*
X69848Y-55717D01*
X69848Y-55717D01*
X69848Y-55717D01*
X69862Y-55685D01*
X69862Y-55649D01*
X69862Y-55614D01*
X69862Y-55614D01*
X69862Y-55548D01*
X69865Y-55544D01*
X69880Y-55508D01*
X69880Y-55469D01*
X69880Y-55294D01*
X69866Y-55258D01*
X69838Y-55230D01*
X69832Y-55228D01*
X70055Y-55228D01*
X70055Y-55228D01*
X70130Y-55213D01*
X70176Y-55213D01*
X70212Y-55198D01*
X70239Y-55170D01*
X70254Y-55134D01*
X70254Y-55095D01*
X70254Y-55032D01*
X70255Y-55027D01*
X70254Y-55022D01*
X70254Y-54920D01*
X70240Y-54884D01*
X70212Y-54856D01*
X70178Y-54842D01*
X70212Y-54828D01*
X70239Y-54800D01*
X70254Y-54764D01*
X70254Y-54725D01*
X70254Y-54550D01*
X70248Y-54534D01*
X70253Y-54531D01*
X70281Y-54504D01*
X70296Y-54468D01*
X70296Y-54428D01*
X70296Y-56279D01*
X65098Y-56279D01*
X65098Y-56043D01*
X64799Y-56043D01*
X64799Y-55143D01*
X64799Y-55053D01*
X64793Y-55039D01*
X64799Y-55025D01*
X64799Y-54986D01*
X64799Y-54895D01*
X64784Y-54859D01*
X64756Y-54831D01*
X64720Y-54816D01*
X64681Y-54816D01*
X64114Y-54816D01*
X64078Y-54831D01*
X64050Y-54859D01*
X64035Y-54895D01*
X64035Y-54934D01*
X64035Y-55025D01*
X64041Y-55039D01*
X64035Y-55053D01*
X64035Y-55092D01*
X64035Y-55182D01*
X64050Y-55219D01*
X64078Y-55246D01*
X64114Y-55261D01*
X64153Y-55261D01*
X64720Y-55261D01*
X64756Y-55246D01*
X64784Y-55219D01*
X64799Y-55183D01*
X64799Y-55143D01*
X64799Y-56043D01*
X63877Y-56043D01*
X63877Y-55143D01*
X63877Y-55053D01*
X63872Y-55039D01*
X63877Y-55025D01*
X63877Y-54986D01*
X63877Y-54895D01*
X63863Y-54859D01*
X63835Y-54831D01*
X63799Y-54816D01*
X63760Y-54816D01*
X63193Y-54816D01*
X63156Y-54831D01*
X63129Y-54859D01*
X63114Y-54895D01*
X63114Y-54934D01*
X63114Y-55025D01*
X63119Y-55039D01*
X63114Y-55053D01*
X63114Y-55092D01*
X63114Y-55182D01*
X63129Y-55219D01*
X63156Y-55246D01*
X63192Y-55261D01*
X63232Y-55261D01*
X63799Y-55261D01*
X63835Y-55246D01*
X63862Y-55219D01*
X63877Y-55183D01*
X63877Y-55143D01*
X63877Y-56043D01*
X62775Y-56043D01*
X62775Y-53221D01*
X62838Y-53248D01*
X62893Y-53248D01*
X62893Y-53263D01*
X62920Y-53328D01*
X62970Y-53378D01*
X63035Y-53405D01*
X63105Y-53405D01*
X63171Y-53378D01*
X63182Y-53367D01*
X63192Y-53372D01*
X63232Y-53372D01*
X63799Y-53372D01*
X63835Y-53357D01*
X63844Y-53347D01*
X63875Y-53378D01*
X63940Y-53405D01*
X64011Y-53405D01*
X64076Y-53378D01*
X64092Y-53362D01*
X64114Y-53372D01*
X64153Y-53372D01*
X64720Y-53372D01*
X64756Y-53357D01*
X64784Y-53329D01*
X64799Y-53293D01*
X64799Y-53254D01*
X64799Y-53163D01*
X64793Y-53149D01*
X64799Y-53135D01*
X64799Y-53096D01*
X64799Y-53006D01*
X64793Y-52992D01*
X64799Y-52978D01*
X64799Y-52939D01*
X64799Y-52848D01*
X64793Y-52834D01*
X64799Y-52820D01*
X64799Y-52781D01*
X64799Y-52691D01*
X64793Y-52677D01*
X64799Y-52663D01*
X64799Y-52624D01*
X64799Y-52533D01*
X64793Y-52519D01*
X64799Y-52505D01*
X64799Y-52466D01*
X64799Y-52376D01*
X64793Y-52362D01*
X64799Y-52348D01*
X64799Y-52309D01*
X64799Y-52218D01*
X64793Y-52204D01*
X64799Y-52190D01*
X64799Y-52151D01*
X64799Y-52061D01*
X64793Y-52047D01*
X64799Y-52033D01*
X64799Y-51994D01*
X64799Y-51984D01*
X64807Y-51988D01*
X64877Y-51988D01*
X64942Y-51961D01*
X64992Y-51911D01*
X65019Y-51846D01*
X65019Y-51775D01*
X64992Y-51710D01*
X64943Y-51660D01*
X64925Y-51653D01*
X64942Y-51646D01*
X64992Y-51596D01*
X65019Y-51531D01*
X65019Y-51460D01*
X64992Y-51395D01*
X64943Y-51345D01*
X64925Y-51338D01*
X64942Y-51331D01*
X64992Y-51281D01*
X65019Y-51216D01*
X65019Y-51146D01*
X64992Y-51080D01*
X64943Y-51030D01*
X64925Y-51023D01*
X64942Y-51016D01*
X64992Y-50966D01*
X65019Y-50901D01*
X65019Y-50831D01*
X64992Y-50765D01*
X64943Y-50716D01*
X64925Y-50708D01*
X64942Y-50701D01*
X64992Y-50651D01*
X65019Y-50586D01*
X65019Y-50516D01*
X64992Y-50450D01*
X64943Y-50401D01*
X64925Y-50393D01*
X64942Y-50386D01*
X64992Y-50336D01*
X65019Y-50271D01*
X65019Y-50201D01*
X64992Y-50135D01*
X64943Y-50086D01*
X64925Y-50078D01*
X64942Y-50071D01*
X64992Y-50021D01*
X65019Y-49956D01*
X65019Y-49886D01*
X64992Y-49821D01*
X64943Y-49771D01*
X64877Y-49744D01*
X64807Y-49744D01*
X64799Y-49747D01*
X64799Y-49699D01*
X64799Y-49474D01*
X64799Y-49384D01*
X64793Y-49370D01*
X64799Y-49356D01*
X64799Y-49317D01*
X64799Y-49226D01*
X64799Y-49002D01*
X64799Y-48911D01*
X64784Y-48875D01*
X64756Y-48847D01*
X64720Y-48832D01*
X64681Y-48832D01*
X64114Y-48832D01*
X64078Y-48847D01*
X64050Y-48875D01*
X64035Y-48911D01*
X64035Y-48950D01*
X64035Y-49041D01*
X64050Y-49077D01*
X64078Y-49105D01*
X64114Y-49120D01*
X64153Y-49120D01*
X64720Y-49120D01*
X64756Y-49105D01*
X64784Y-49077D01*
X64799Y-49041D01*
X64799Y-49002D01*
X64799Y-49226D01*
X64784Y-49190D01*
X64756Y-49162D01*
X64720Y-49147D01*
X64681Y-49147D01*
X64114Y-49147D01*
X64078Y-49162D01*
X64050Y-49190D01*
X64035Y-49226D01*
X64035Y-49265D01*
X64035Y-49356D01*
X64041Y-49370D01*
X64035Y-49383D01*
X64035Y-49423D01*
X64035Y-49513D01*
X64050Y-49549D01*
X64078Y-49577D01*
X64114Y-49592D01*
X64153Y-49592D01*
X64720Y-49592D01*
X64756Y-49577D01*
X64784Y-49549D01*
X64799Y-49513D01*
X64799Y-49474D01*
X64799Y-49699D01*
X64784Y-49662D01*
X64756Y-49635D01*
X64720Y-49620D01*
X64681Y-49620D01*
X64114Y-49620D01*
X64100Y-49625D01*
X64089Y-49625D01*
X64076Y-49613D01*
X64011Y-49586D01*
X63941Y-49586D01*
X63877Y-49612D01*
X63877Y-49474D01*
X63877Y-49384D01*
X63872Y-49370D01*
X63877Y-49356D01*
X63877Y-49317D01*
X63877Y-49226D01*
X63863Y-49190D01*
X63835Y-49162D01*
X63799Y-49147D01*
X63760Y-49147D01*
X63193Y-49147D01*
X63156Y-49162D01*
X63129Y-49190D01*
X63114Y-49226D01*
X63114Y-49265D01*
X63114Y-49356D01*
X63119Y-49370D01*
X63114Y-49383D01*
X63114Y-49423D01*
X63114Y-49513D01*
X63129Y-49549D01*
X63156Y-49577D01*
X63192Y-49592D01*
X63232Y-49592D01*
X63799Y-49592D01*
X63835Y-49577D01*
X63862Y-49549D01*
X63877Y-49513D01*
X63877Y-49474D01*
X63877Y-49612D01*
X63876Y-49613D01*
X63844Y-49644D01*
X63835Y-49635D01*
X63799Y-49620D01*
X63760Y-49620D01*
X63193Y-49620D01*
X63182Y-49624D01*
X63171Y-49613D01*
X63106Y-49586D01*
X63035Y-49586D01*
X62970Y-49613D01*
X62920Y-49663D01*
X62893Y-49728D01*
X62893Y-49744D01*
X62838Y-49744D01*
X62775Y-49770D01*
X62775Y-48051D01*
X65098Y-48051D01*
X65098Y-47814D01*
X73562Y-47814D01*
X73562Y-48051D01*
X75610Y-48051D01*
X75610Y-51823D01*
X75475Y-51689D01*
X75295Y-51614D01*
X75099Y-51614D01*
X74918Y-51688D01*
X74779Y-51827D01*
X74704Y-52007D01*
X74704Y-52203D01*
X74779Y-52384D01*
X74917Y-52523D01*
X75098Y-52598D01*
X75294Y-52598D01*
X75475Y-52523D01*
X75610Y-52388D01*
X75610Y-56043D01*
X75610Y-56043D01*
G37*
G54D31*
X75610Y-56043D02*
X73562Y-56043D01*
X73562Y-56279D01*
X72874Y-56279D01*
X72874Y-51153D01*
X72874Y-50413D01*
X72874Y-50413D01*
X72854Y-50315D01*
X72854Y-50315D01*
X72836Y-50287D01*
X72834Y-50285D01*
X72834Y-48606D01*
X72807Y-48541D01*
X72757Y-48491D01*
X72692Y-48464D01*
X72622Y-48464D01*
X72557Y-48491D01*
X72507Y-48541D01*
X72480Y-48606D01*
X72480Y-48676D01*
X72507Y-48741D01*
X72556Y-48791D01*
X72622Y-48818D01*
X72692Y-48818D01*
X72757Y-48792D01*
X72807Y-48742D01*
X72834Y-48677D01*
X72834Y-48606D01*
X72834Y-50285D01*
X72799Y-50232D01*
X72799Y-50232D01*
X72543Y-49976D01*
X72460Y-49921D01*
X72443Y-49917D01*
X72362Y-49901D01*
X71909Y-49901D01*
X71827Y-49917D01*
X71811Y-49921D01*
X71728Y-49976D01*
X71259Y-50445D01*
X71236Y-50460D01*
X71180Y-50543D01*
X71161Y-50641D01*
X71180Y-50739D01*
X71236Y-50822D01*
X71263Y-50841D01*
X71258Y-50846D01*
X71023Y-50846D01*
X71019Y-50842D01*
X70983Y-50827D01*
X70944Y-50827D01*
X70749Y-50827D01*
X70712Y-50842D01*
X70709Y-50846D01*
X70708Y-50846D01*
X70704Y-50842D01*
X70668Y-50827D01*
X70629Y-50827D01*
X70434Y-50827D01*
X70398Y-50842D01*
X70370Y-50870D01*
X70355Y-50906D01*
X70355Y-50925D01*
X70068Y-50925D01*
X70078Y-50901D01*
X70078Y-50866D01*
X70078Y-50831D01*
X70078Y-50830D01*
X70078Y-50787D01*
X70078Y-50787D01*
X70065Y-50719D01*
X70026Y-50662D01*
X70026Y-50662D01*
X70018Y-50654D01*
X70018Y-50493D01*
X70003Y-50457D01*
X70000Y-50453D01*
X70000Y-50452D01*
X70003Y-50448D01*
X70018Y-50412D01*
X70018Y-50373D01*
X70018Y-50178D01*
X70011Y-50161D01*
X70011Y-50079D01*
X70019Y-50060D01*
X70033Y-50094D01*
X70061Y-50121D01*
X70097Y-50136D01*
X70136Y-50136D01*
X70311Y-50136D01*
X70347Y-50121D01*
X70351Y-50118D01*
X70610Y-50118D01*
X70610Y-50118D01*
X70645Y-50118D01*
X70678Y-50104D01*
X70710Y-50091D01*
X70735Y-50066D01*
X70760Y-50041D01*
X70773Y-50008D01*
X70773Y-50008D01*
X70773Y-50008D01*
X70787Y-49976D01*
X70787Y-49940D01*
X70787Y-49905D01*
X70773Y-49873D01*
X70760Y-49840D01*
X70735Y-49815D01*
X70710Y-49790D01*
X70678Y-49777D01*
X70678Y-49777D01*
X70645Y-49763D01*
X70575Y-49763D01*
X70575Y-49763D01*
X70351Y-49763D01*
X70348Y-49760D01*
X70311Y-49745D01*
X70272Y-49745D01*
X70097Y-49745D01*
X70061Y-49759D01*
X70033Y-49787D01*
X70019Y-49821D01*
X70005Y-49787D01*
X69978Y-49760D01*
X69941Y-49745D01*
X69902Y-49745D01*
X69727Y-49745D01*
X69691Y-49759D01*
X69663Y-49787D01*
X69648Y-49823D01*
X69648Y-49862D01*
X69648Y-50057D01*
X69657Y-50079D01*
X69657Y-50126D01*
X69642Y-50141D01*
X69630Y-50169D01*
X69603Y-50158D01*
X69564Y-50158D01*
X69389Y-50158D01*
X69363Y-50168D01*
X69370Y-50153D01*
X69370Y-50118D01*
X69370Y-50083D01*
X69370Y-50082D01*
X69370Y-49960D01*
X69356Y-49892D01*
X69356Y-49892D01*
X69329Y-49852D01*
X69329Y-49784D01*
X69315Y-49748D01*
X69311Y-49744D01*
X69311Y-49743D01*
X69314Y-49739D01*
X69329Y-49703D01*
X69329Y-49664D01*
X69329Y-49469D01*
X69315Y-49433D01*
X69311Y-49429D01*
X69311Y-49426D01*
X69314Y-49422D01*
X69329Y-49386D01*
X69329Y-49347D01*
X69329Y-49172D01*
X69314Y-49136D01*
X69287Y-49108D01*
X69253Y-49094D01*
X69287Y-49080D01*
X69314Y-49052D01*
X69329Y-49016D01*
X69329Y-48977D01*
X69329Y-48802D01*
X69314Y-48766D01*
X69311Y-48762D01*
X69311Y-48681D01*
X69311Y-48681D01*
X69311Y-48646D01*
X69297Y-48613D01*
X69284Y-48580D01*
X69259Y-48555D01*
X69234Y-48530D01*
X69201Y-48517D01*
X69201Y-48517D01*
X69169Y-48503D01*
X69098Y-48503D01*
X69033Y-48530D01*
X68983Y-48580D01*
X68970Y-48613D01*
X68970Y-48613D01*
X68970Y-48613D01*
X68956Y-48645D01*
X68956Y-48716D01*
X68956Y-48716D01*
X68956Y-48762D01*
X68952Y-48766D01*
X68937Y-48802D01*
X68937Y-48841D01*
X68937Y-49016D01*
X68952Y-49052D01*
X68980Y-49080D01*
X69014Y-49094D01*
X68980Y-49108D01*
X68952Y-49136D01*
X68937Y-49172D01*
X68937Y-49211D01*
X68937Y-49386D01*
X68952Y-49422D01*
X68956Y-49426D01*
X68956Y-49429D01*
X68953Y-49433D01*
X68938Y-49469D01*
X68938Y-49508D01*
X68938Y-49703D01*
X68953Y-49739D01*
X68956Y-49743D01*
X68956Y-49744D01*
X68953Y-49748D01*
X68938Y-49784D01*
X68938Y-49823D01*
X68938Y-50018D01*
X68953Y-50054D01*
X68980Y-50082D01*
X69015Y-50097D01*
X69015Y-50117D01*
X69015Y-50153D01*
X69029Y-50185D01*
X69042Y-50218D01*
X69067Y-50243D01*
X69092Y-50268D01*
X69125Y-50281D01*
X69125Y-50281D01*
X69157Y-50295D01*
X69192Y-50295D01*
X69227Y-50295D01*
X69260Y-50281D01*
X69293Y-50268D01*
X69310Y-50251D01*
X69310Y-50276D01*
X69310Y-50331D01*
X69303Y-50341D01*
X69291Y-50401D01*
X69291Y-50513D01*
X69281Y-50537D01*
X69281Y-50595D01*
X69256Y-50606D01*
X69228Y-50634D01*
X69213Y-50670D01*
X69213Y-50709D01*
X69213Y-50815D01*
X69196Y-50822D01*
X69149Y-50869D01*
X69124Y-50931D01*
X69123Y-50997D01*
X69149Y-51059D01*
X69153Y-51062D01*
X69149Y-51066D01*
X69124Y-51127D01*
X69123Y-51194D01*
X69149Y-51256D01*
X69153Y-51259D01*
X69149Y-51263D01*
X69124Y-51324D01*
X69123Y-51391D01*
X69149Y-51452D01*
X69196Y-51500D01*
X69257Y-51525D01*
X69324Y-51525D01*
X69385Y-51500D01*
X69433Y-51453D01*
X69458Y-51391D01*
X69458Y-51325D01*
X69455Y-51317D01*
X69509Y-51306D01*
X69509Y-51306D01*
X69551Y-51278D01*
X69644Y-51278D01*
X69680Y-51263D01*
X69708Y-51236D01*
X69723Y-51200D01*
X69723Y-51160D01*
X69723Y-50965D01*
X69708Y-50929D01*
X69680Y-50901D01*
X69644Y-50886D01*
X69605Y-50886D01*
X69605Y-50886D01*
X69605Y-50865D01*
X69605Y-50670D01*
X69596Y-50650D01*
X69616Y-50604D01*
X69616Y-50544D01*
X69627Y-50540D01*
X69627Y-50727D01*
X69642Y-50763D01*
X69667Y-50789D01*
X69667Y-50789D01*
X69697Y-50834D01*
X69724Y-50860D01*
X69724Y-50865D01*
X69724Y-50901D01*
X69737Y-50933D01*
X69751Y-50966D01*
X69769Y-50984D01*
X69751Y-51001D01*
X69737Y-51034D01*
X69737Y-51034D01*
X69737Y-51034D01*
X69724Y-51066D01*
X69724Y-51137D01*
X69737Y-51170D01*
X69751Y-51202D01*
X69776Y-51227D01*
X69801Y-51252D01*
X69833Y-51266D01*
X69833Y-51266D01*
X69853Y-51274D01*
X69849Y-51277D01*
X69822Y-51342D01*
X69822Y-51413D01*
X69840Y-51456D01*
X69803Y-51456D01*
X69750Y-51467D01*
X69735Y-51477D01*
X69705Y-51497D01*
X69508Y-51693D01*
X69478Y-51738D01*
X69476Y-51753D01*
X69458Y-51753D01*
X69458Y-51728D01*
X69433Y-51667D01*
X69386Y-51620D01*
X69324Y-51594D01*
X69258Y-51594D01*
X69196Y-51619D01*
X69149Y-51666D01*
X69124Y-51728D01*
X69123Y-51794D01*
X69148Y-51855D01*
X69124Y-51915D01*
X69123Y-51981D01*
X69149Y-52043D01*
X69196Y-52090D01*
X69257Y-52116D01*
X69324Y-52116D01*
X69348Y-52106D01*
X69350Y-52106D01*
X69374Y-52129D01*
X69410Y-52144D01*
X69449Y-52144D01*
X69644Y-52144D01*
X69680Y-52129D01*
X69708Y-52102D01*
X69723Y-52066D01*
X69723Y-52026D01*
X69723Y-51938D01*
X69723Y-51937D01*
X69733Y-51922D01*
X69733Y-51922D01*
X69744Y-51870D01*
X69744Y-51870D01*
X69744Y-51848D01*
X69750Y-51842D01*
X69770Y-51891D01*
X69783Y-51904D01*
X69771Y-51917D01*
X69757Y-51949D01*
X69757Y-51949D01*
X69757Y-51949D01*
X69744Y-51982D01*
X69744Y-52052D01*
X69757Y-52085D01*
X69770Y-52117D01*
X69783Y-52130D01*
X69771Y-52143D01*
X69744Y-52208D01*
X69744Y-52279D01*
X69770Y-52344D01*
X69778Y-52352D01*
X69771Y-52360D01*
X69744Y-52425D01*
X69744Y-52495D01*
X69770Y-52560D01*
X69788Y-52578D01*
X69771Y-52596D01*
X69744Y-52661D01*
X69744Y-52731D01*
X69770Y-52797D01*
X69820Y-52846D01*
X69885Y-52873D01*
X69956Y-52874D01*
X70003Y-52854D01*
X70026Y-52877D01*
X70062Y-52892D01*
X70101Y-52892D01*
X70276Y-52892D01*
X70312Y-52877D01*
X70340Y-52850D01*
X70354Y-52816D01*
X70361Y-52833D01*
X70322Y-52871D01*
X70295Y-52937D01*
X70295Y-53007D01*
X70313Y-53051D01*
X69921Y-53051D01*
X69886Y-53051D01*
X69838Y-53070D01*
X69704Y-53070D01*
X69699Y-53071D01*
X69548Y-53071D01*
X69512Y-53086D01*
X69484Y-53114D01*
X69469Y-53150D01*
X69469Y-53189D01*
X69469Y-53384D01*
X69484Y-53421D01*
X69512Y-53448D01*
X69548Y-53463D01*
X69587Y-53463D01*
X69744Y-53463D01*
X69744Y-53519D01*
X69770Y-53584D01*
X69795Y-53609D01*
X69820Y-53634D01*
X69827Y-53637D01*
X69873Y-53667D01*
X69941Y-53681D01*
X69980Y-53681D01*
X69984Y-53684D01*
X70020Y-53700D01*
X70059Y-53700D01*
X70254Y-53700D01*
X70290Y-53685D01*
X70294Y-53681D01*
X70295Y-53681D01*
X70299Y-53684D01*
X70335Y-53700D01*
X70374Y-53700D01*
X70569Y-53700D01*
X70605Y-53685D01*
X70609Y-53681D01*
X70766Y-53681D01*
X70771Y-53686D01*
X70805Y-53700D01*
X70772Y-53714D01*
X70744Y-53742D01*
X70729Y-53778D01*
X70729Y-53817D01*
X70729Y-53881D01*
X70728Y-53885D01*
X70729Y-53890D01*
X70729Y-53992D01*
X70744Y-54028D01*
X70771Y-54056D01*
X70808Y-54071D01*
X70847Y-54071D01*
X70870Y-54071D01*
X70925Y-54082D01*
X70972Y-54082D01*
X70972Y-54082D01*
X71027Y-54118D01*
X71102Y-54133D01*
X72125Y-54133D01*
X72201Y-54118D01*
X72265Y-54076D01*
X72307Y-54012D01*
X72322Y-53937D01*
X72307Y-53861D01*
X72265Y-53797D01*
X72201Y-53755D01*
X72125Y-53740D01*
X71613Y-53740D01*
X71613Y-53719D01*
X71613Y-53524D01*
X71598Y-53488D01*
X71583Y-53473D01*
X71594Y-53446D01*
X71608Y-53479D01*
X71636Y-53507D01*
X71672Y-53522D01*
X71711Y-53522D01*
X71886Y-53522D01*
X71922Y-53507D01*
X71934Y-53496D01*
X71952Y-53503D01*
X72023Y-53503D01*
X72088Y-53477D01*
X72138Y-53427D01*
X72165Y-53362D01*
X72165Y-53291D01*
X72138Y-53226D01*
X72088Y-53176D01*
X72023Y-53149D01*
X71953Y-53149D01*
X71934Y-53157D01*
X71922Y-53145D01*
X71886Y-53130D01*
X71847Y-53130D01*
X71719Y-53130D01*
X71739Y-53117D01*
X71983Y-52873D01*
X71988Y-52873D01*
X72025Y-52858D01*
X72052Y-52830D01*
X72066Y-52796D01*
X72066Y-52952D01*
X72066Y-52987D01*
X72080Y-53020D01*
X72093Y-53052D01*
X72118Y-53078D01*
X72143Y-53102D01*
X72176Y-53116D01*
X72176Y-53116D01*
X72208Y-53129D01*
X72244Y-53129D01*
X72279Y-53129D01*
X72311Y-53116D01*
X72344Y-53103D01*
X72369Y-53078D01*
X72394Y-53053D01*
X72407Y-53020D01*
X72407Y-53020D01*
X72407Y-53020D01*
X72421Y-52988D01*
X72421Y-52952D01*
X72421Y-52917D01*
X72421Y-52917D01*
X72421Y-52832D01*
X72422Y-52830D01*
X72437Y-52794D01*
X72437Y-52755D01*
X72437Y-52560D01*
X72434Y-52551D01*
X72482Y-52532D01*
X72531Y-52482D01*
X72559Y-52417D01*
X72559Y-52346D01*
X72532Y-52281D01*
X72482Y-52231D01*
X72437Y-52213D01*
X72437Y-52028D01*
X72437Y-52027D01*
X72480Y-52027D01*
X72480Y-52027D01*
X72515Y-52027D01*
X72548Y-52014D01*
X72580Y-52000D01*
X72605Y-51975D01*
X72630Y-51950D01*
X72643Y-51918D01*
X72643Y-51918D01*
X72643Y-51918D01*
X72657Y-51885D01*
X72657Y-51850D01*
X72657Y-51815D01*
X72643Y-51782D01*
X72630Y-51750D01*
X72605Y-51725D01*
X72590Y-51709D01*
X72735Y-51709D01*
X72771Y-51694D01*
X72799Y-51666D01*
X72814Y-51630D01*
X72814Y-51591D01*
X72814Y-51416D01*
X72799Y-51380D01*
X72771Y-51352D01*
X72799Y-51334D01*
X72854Y-51251D01*
X72874Y-51153D01*
X72874Y-56279D01*
X71416Y-56279D01*
X71416Y-54878D01*
X71416Y-54703D01*
X71401Y-54667D01*
X71373Y-54640D01*
X71339Y-54625D01*
X71373Y-54611D01*
X71401Y-54584D01*
X71416Y-54548D01*
X71416Y-54508D01*
X71416Y-54333D01*
X71401Y-54297D01*
X71373Y-54270D01*
X71337Y-54255D01*
X71298Y-54255D01*
X71103Y-54255D01*
X71067Y-54269D01*
X71064Y-54272D01*
X71039Y-54261D01*
X70968Y-54261D01*
X70903Y-54288D01*
X70853Y-54338D01*
X70826Y-54403D01*
X70826Y-54474D01*
X70853Y-54539D01*
X70903Y-54589D01*
X70968Y-54616D01*
X71039Y-54616D01*
X71061Y-54606D01*
X71067Y-54611D01*
X71101Y-54626D01*
X71067Y-54639D01*
X71039Y-54667D01*
X71024Y-54703D01*
X71024Y-54704D01*
X70968Y-54704D01*
X70903Y-54731D01*
X70853Y-54781D01*
X70826Y-54846D01*
X70826Y-54916D01*
X70853Y-54982D01*
X70903Y-55031D01*
X70968Y-55059D01*
X71039Y-55059D01*
X71104Y-55032D01*
X71116Y-55019D01*
X71141Y-55019D01*
X71141Y-55019D01*
X71194Y-55009D01*
X71212Y-54996D01*
X71337Y-54996D01*
X71373Y-54981D01*
X71401Y-54954D01*
X71416Y-54918D01*
X71416Y-54878D01*
X71416Y-56279D01*
X70296Y-56279D01*
X70296Y-54428D01*
X70296Y-54114D01*
X70281Y-54078D01*
X70253Y-54050D01*
X70217Y-54035D01*
X70178Y-54035D01*
X69964Y-54035D01*
X69962Y-54035D01*
X69829Y-54035D01*
X69744Y-53950D01*
X69744Y-53917D01*
X69732Y-53857D01*
X69732Y-53857D01*
X69697Y-53805D01*
X69487Y-53595D01*
X69487Y-53446D01*
X69472Y-53409D01*
X69448Y-53386D01*
X69448Y-53383D01*
X69458Y-53360D01*
X69458Y-53293D01*
X69433Y-53232D01*
X69429Y-53228D01*
X69433Y-53224D01*
X69458Y-53163D01*
X69458Y-53096D01*
X69433Y-53035D01*
X69429Y-53031D01*
X69433Y-53027D01*
X69458Y-52966D01*
X69458Y-52899D01*
X69433Y-52839D01*
X69458Y-52779D01*
X69458Y-52712D01*
X69433Y-52651D01*
X69429Y-52647D01*
X69433Y-52644D01*
X69458Y-52582D01*
X69458Y-52516D01*
X69433Y-52454D01*
X69429Y-52450D01*
X69433Y-52447D01*
X69458Y-52385D01*
X69458Y-52319D01*
X69433Y-52257D01*
X69386Y-52210D01*
X69324Y-52185D01*
X69258Y-52185D01*
X69196Y-52210D01*
X69149Y-52257D01*
X69124Y-52318D01*
X69123Y-52385D01*
X69149Y-52447D01*
X69153Y-52450D01*
X69149Y-52454D01*
X69124Y-52515D01*
X69123Y-52582D01*
X69149Y-52643D01*
X69153Y-52647D01*
X69149Y-52651D01*
X69124Y-52712D01*
X69123Y-52779D01*
X69148Y-52839D01*
X69124Y-52899D01*
X69123Y-52966D01*
X69149Y-53027D01*
X69153Y-53031D01*
X69149Y-53035D01*
X69124Y-53096D01*
X69123Y-53163D01*
X69149Y-53224D01*
X69153Y-53228D01*
X69149Y-53231D01*
X69124Y-53293D01*
X69123Y-53359D01*
X69133Y-53383D01*
X69133Y-53386D01*
X69110Y-53409D01*
X69095Y-53445D01*
X69095Y-53484D01*
X69095Y-53679D01*
X69110Y-53716D01*
X69137Y-53743D01*
X69174Y-53758D01*
X69205Y-53758D01*
X69271Y-53825D01*
X69269Y-53826D01*
X69219Y-53875D01*
X69206Y-53908D01*
X69206Y-53908D01*
X69206Y-53908D01*
X69192Y-53940D01*
X69192Y-54011D01*
X69192Y-54011D01*
X69192Y-54020D01*
X69059Y-54154D01*
X69015Y-54154D01*
X69015Y-53980D01*
X69002Y-53947D01*
X68988Y-53915D01*
X68963Y-53890D01*
X68963Y-53890D01*
X68963Y-53890D01*
X68939Y-53865D01*
X68938Y-53865D01*
X68798Y-53724D01*
X68798Y-53701D01*
X68783Y-53665D01*
X68755Y-53637D01*
X68719Y-53622D01*
X68680Y-53622D01*
X68485Y-53622D01*
X68449Y-53637D01*
X68421Y-53665D01*
X68406Y-53701D01*
X68406Y-53740D01*
X68406Y-53935D01*
X68421Y-53971D01*
X68449Y-53999D01*
X68485Y-54014D01*
X68524Y-54014D01*
X68586Y-54014D01*
X68713Y-54141D01*
X68713Y-54141D01*
X68738Y-54165D01*
X68770Y-54179D01*
X68770Y-54179D01*
X68803Y-54192D01*
X68873Y-54192D01*
X68906Y-54179D01*
X68938Y-54166D01*
X68963Y-54141D01*
X68988Y-54116D01*
X69002Y-54083D01*
X69015Y-54051D01*
X69015Y-53980D01*
X69015Y-54154D01*
X68997Y-54154D01*
X68960Y-54169D01*
X68933Y-54197D01*
X68918Y-54233D01*
X68918Y-54272D01*
X68918Y-54467D01*
X68933Y-54503D01*
X68936Y-54507D01*
X68936Y-54508D01*
X68933Y-54512D01*
X68918Y-54548D01*
X68918Y-54587D01*
X68918Y-54782D01*
X68933Y-54818D01*
X68936Y-54822D01*
X68936Y-54825D01*
X68933Y-54829D01*
X68918Y-54865D01*
X68918Y-54904D01*
X68918Y-55079D01*
X68933Y-55115D01*
X68960Y-55143D01*
X68994Y-55157D01*
X68960Y-55171D01*
X68933Y-55199D01*
X68918Y-55235D01*
X68918Y-55274D01*
X68918Y-55333D01*
X68906Y-55328D01*
X68906Y-55328D01*
X68873Y-55314D01*
X68816Y-55314D01*
X68803Y-55251D01*
X68778Y-55213D01*
X68761Y-55187D01*
X68761Y-55187D01*
X68570Y-54997D01*
X68570Y-54929D01*
X68555Y-54853D01*
X68513Y-54789D01*
X68513Y-54789D01*
X68257Y-54534D01*
X68257Y-50734D01*
X68232Y-50673D01*
X68185Y-50625D01*
X68123Y-50600D01*
X68057Y-50600D01*
X67995Y-50625D01*
X67948Y-50672D01*
X67923Y-50734D01*
X67923Y-50800D01*
X67948Y-50862D01*
X67995Y-50909D01*
X68057Y-50935D01*
X68123Y-50935D01*
X68185Y-50909D01*
X68232Y-50862D01*
X68257Y-50801D01*
X68257Y-50734D01*
X68257Y-54534D01*
X68119Y-54396D01*
X68055Y-54353D01*
X68034Y-54349D01*
X68066Y-54336D01*
X68094Y-54308D01*
X68109Y-54272D01*
X68109Y-54233D01*
X68109Y-54058D01*
X68094Y-54022D01*
X68090Y-54018D01*
X68090Y-54015D01*
X68094Y-54011D01*
X68109Y-53975D01*
X68109Y-53936D01*
X68109Y-53741D01*
X68096Y-53710D01*
X68109Y-53680D01*
X68109Y-53641D01*
X68109Y-53446D01*
X68094Y-53409D01*
X68066Y-53382D01*
X68060Y-53379D01*
X68061Y-53313D01*
X68035Y-53251D01*
X67988Y-53204D01*
X67927Y-53179D01*
X67860Y-53179D01*
X67799Y-53204D01*
X67751Y-53251D01*
X67726Y-53313D01*
X67726Y-53379D01*
X67736Y-53403D01*
X67736Y-53406D01*
X67732Y-53409D01*
X67717Y-53445D01*
X67717Y-53484D01*
X67717Y-53679D01*
X67730Y-53710D01*
X67717Y-53741D01*
X67717Y-53780D01*
X67717Y-53888D01*
X67692Y-53877D01*
X67622Y-53877D01*
X67559Y-53904D01*
X67559Y-53503D01*
X67558Y-53503D01*
X67594Y-53488D01*
X67641Y-53441D01*
X67667Y-53379D01*
X67667Y-53313D01*
X67641Y-53251D01*
X67594Y-53204D01*
X67533Y-53179D01*
X67466Y-53179D01*
X67405Y-53204D01*
X67401Y-53208D01*
X67398Y-53204D01*
X67336Y-53179D01*
X67270Y-53179D01*
X67208Y-53204D01*
X67161Y-53251D01*
X67135Y-53313D01*
X67135Y-53379D01*
X67145Y-53403D01*
X67145Y-53405D01*
X67157Y-53465D01*
X67191Y-53516D01*
X67244Y-53569D01*
X67244Y-54076D01*
X67209Y-54090D01*
X67185Y-54114D01*
X67165Y-54095D01*
X67165Y-53996D01*
X67150Y-53920D01*
X67107Y-53856D01*
X67043Y-53814D01*
X66968Y-53799D01*
X66893Y-53814D01*
X66829Y-53856D01*
X66786Y-53920D01*
X66782Y-53940D01*
X66764Y-53895D01*
X66714Y-53845D01*
X66649Y-53818D01*
X66579Y-53818D01*
X66572Y-53821D01*
X66584Y-53793D01*
X66584Y-53726D01*
X66569Y-53690D01*
X66575Y-53687D01*
X66575Y-53699D01*
X66590Y-53735D01*
X66618Y-53763D01*
X66654Y-53778D01*
X66693Y-53778D01*
X66888Y-53778D01*
X66924Y-53763D01*
X66952Y-53736D01*
X66967Y-53699D01*
X66967Y-53660D01*
X66967Y-53609D01*
X67020Y-53556D01*
X67020Y-53556D01*
X67020Y-53556D01*
X67054Y-53505D01*
X67054Y-53505D01*
X67064Y-53457D01*
X67066Y-53445D01*
X67066Y-53445D01*
X67066Y-53445D01*
X67066Y-53403D01*
X67076Y-53379D01*
X67076Y-53313D01*
X67051Y-53251D01*
X67004Y-53204D01*
X66942Y-53179D01*
X66876Y-53179D01*
X66872Y-53180D01*
X66879Y-53163D01*
X66879Y-53096D01*
X66854Y-53035D01*
X66850Y-53031D01*
X66854Y-53027D01*
X66879Y-52966D01*
X66879Y-52899D01*
X66854Y-52838D01*
X66850Y-52834D01*
X66854Y-52831D01*
X66879Y-52769D01*
X66879Y-52703D01*
X66854Y-52641D01*
X66850Y-52637D01*
X66854Y-52634D01*
X66879Y-52572D01*
X66879Y-52506D01*
X66854Y-52444D01*
X66850Y-52440D01*
X66854Y-52437D01*
X66879Y-52375D01*
X66879Y-52309D01*
X66854Y-52247D01*
X66850Y-52244D01*
X66854Y-52240D01*
X66879Y-52179D01*
X66879Y-52112D01*
X66854Y-52051D01*
X66850Y-52047D01*
X66854Y-52043D01*
X66879Y-51982D01*
X66879Y-51915D01*
X66854Y-51854D01*
X66850Y-51850D01*
X66854Y-51846D01*
X66879Y-51785D01*
X66879Y-51718D01*
X66854Y-51657D01*
X66850Y-51653D01*
X66854Y-51650D01*
X66879Y-51588D01*
X66879Y-51521D01*
X66854Y-51460D01*
X66850Y-51456D01*
X66854Y-51453D01*
X66879Y-51391D01*
X66879Y-51325D01*
X66854Y-51263D01*
X66850Y-51259D01*
X66854Y-51256D01*
X66879Y-51194D01*
X66879Y-51128D01*
X66854Y-51066D01*
X66850Y-51063D01*
X66854Y-51059D01*
X66879Y-50997D01*
X66879Y-50931D01*
X66854Y-50869D01*
X66850Y-50866D01*
X66854Y-50862D01*
X66879Y-50801D01*
X66879Y-50734D01*
X66854Y-50673D01*
X66807Y-50625D01*
X66746Y-50600D01*
X66679Y-50600D01*
X66642Y-50615D01*
X66634Y-50571D01*
X66578Y-50488D01*
X66553Y-50471D01*
X66555Y-50471D01*
X66750Y-50471D01*
X66786Y-50456D01*
X66814Y-50428D01*
X66829Y-50392D01*
X66829Y-50353D01*
X66829Y-50314D01*
X67007Y-50314D01*
X67007Y-50314D01*
X67042Y-50314D01*
X67075Y-50301D01*
X67108Y-50288D01*
X67125Y-50270D01*
X67125Y-50394D01*
X67122Y-50397D01*
X67107Y-50434D01*
X67107Y-50473D01*
X67107Y-50668D01*
X67121Y-50704D01*
X67145Y-50728D01*
X67145Y-50767D01*
X67159Y-50835D01*
X67197Y-50892D01*
X67255Y-50931D01*
X67322Y-50944D01*
X67390Y-50931D01*
X67448Y-50892D01*
X67486Y-50835D01*
X67500Y-50767D01*
X67500Y-50571D01*
X67498Y-50565D01*
X67498Y-50565D01*
X67498Y-50434D01*
X67483Y-50398D01*
X67480Y-50394D01*
X67480Y-50019D01*
X67483Y-50015D01*
X67498Y-49979D01*
X67498Y-49940D01*
X67498Y-49745D01*
X67483Y-49709D01*
X67480Y-49705D01*
X67480Y-49702D01*
X67484Y-49698D01*
X67499Y-49662D01*
X67499Y-49623D01*
X67499Y-49448D01*
X67484Y-49411D01*
X67456Y-49384D01*
X67422Y-49370D01*
X67456Y-49356D01*
X67484Y-49328D01*
X67499Y-49292D01*
X67499Y-49253D01*
X67499Y-49078D01*
X67484Y-49041D01*
X67480Y-49038D01*
X67480Y-48956D01*
X67480Y-48956D01*
X67480Y-48921D01*
X67466Y-48888D01*
X67453Y-48856D01*
X67428Y-48831D01*
X67403Y-48806D01*
X67370Y-48793D01*
X67370Y-48793D01*
X67338Y-48779D01*
X67268Y-48779D01*
X67202Y-48806D01*
X67153Y-48856D01*
X67139Y-48888D01*
X67139Y-48888D01*
X67139Y-48888D01*
X67126Y-48921D01*
X67125Y-48991D01*
X67125Y-48991D01*
X67125Y-49038D01*
X67122Y-49041D01*
X67107Y-49077D01*
X67107Y-49117D01*
X67107Y-49292D01*
X67122Y-49328D01*
X67149Y-49355D01*
X67183Y-49370D01*
X67149Y-49384D01*
X67122Y-49411D01*
X67107Y-49447D01*
X67107Y-49487D01*
X67107Y-49662D01*
X67122Y-49698D01*
X67125Y-49702D01*
X67125Y-49704D01*
X67122Y-49708D01*
X67107Y-49745D01*
X67107Y-49784D01*
X67107Y-49979D01*
X67112Y-49991D01*
X67108Y-49987D01*
X67075Y-49974D01*
X67075Y-49974D01*
X67043Y-49960D01*
X66972Y-49960D01*
X66972Y-49960D01*
X66829Y-49960D01*
X66829Y-49843D01*
X66814Y-49807D01*
X66811Y-49803D01*
X66811Y-49702D01*
X66814Y-49698D01*
X66829Y-49662D01*
X66829Y-49623D01*
X66829Y-49448D01*
X66814Y-49411D01*
X66787Y-49384D01*
X66753Y-49370D01*
X66787Y-49356D01*
X66814Y-49328D01*
X66829Y-49292D01*
X66829Y-49253D01*
X66829Y-49078D01*
X66814Y-49041D01*
X66811Y-49038D01*
X66811Y-48956D01*
X66811Y-48956D01*
X66811Y-48921D01*
X66797Y-48888D01*
X66784Y-48856D01*
X66759Y-48831D01*
X66734Y-48806D01*
X66701Y-48793D01*
X66701Y-48793D01*
X66692Y-48789D01*
X66706Y-48783D01*
X66709Y-48779D01*
X66810Y-48779D01*
X66811Y-48779D01*
X66846Y-48779D01*
X66878Y-48766D01*
X66911Y-48752D01*
X66936Y-48727D01*
X66961Y-48702D01*
X66974Y-48670D01*
X66974Y-48670D01*
X66974Y-48670D01*
X66988Y-48637D01*
X66988Y-48602D01*
X66988Y-48567D01*
X66974Y-48534D01*
X66961Y-48502D01*
X66936Y-48477D01*
X66911Y-48452D01*
X66878Y-48438D01*
X66878Y-48438D01*
X66846Y-48425D01*
X66775Y-48425D01*
X66775Y-48425D01*
X66709Y-48425D01*
X66706Y-48421D01*
X66670Y-48406D01*
X66630Y-48406D01*
X66455Y-48406D01*
X66419Y-48421D01*
X66392Y-48449D01*
X66377Y-48483D01*
X66363Y-48449D01*
X66336Y-48421D01*
X66300Y-48406D01*
X66260Y-48406D01*
X66197Y-48406D01*
X66192Y-48405D01*
X66188Y-48406D01*
X66085Y-48406D01*
X66049Y-48421D01*
X66022Y-48449D01*
X66007Y-48485D01*
X66007Y-48524D01*
X66007Y-48547D01*
X65996Y-48602D01*
X65996Y-49008D01*
X66003Y-49046D01*
X66003Y-49291D01*
X66018Y-49366D01*
X66061Y-49430D01*
X66061Y-49430D01*
X66125Y-49473D01*
X66200Y-49488D01*
X66276Y-49473D01*
X66339Y-49430D01*
X66382Y-49366D01*
X66397Y-49291D01*
X66397Y-49290D01*
X66397Y-49015D01*
X66397Y-49015D01*
X66396Y-49011D01*
X66396Y-49011D01*
X66396Y-48898D01*
X66389Y-48882D01*
X66389Y-48750D01*
X66391Y-48755D01*
X66419Y-48783D01*
X66455Y-48798D01*
X66494Y-48798D01*
X66553Y-48798D01*
X66533Y-48806D01*
X66483Y-48856D01*
X66470Y-48888D01*
X66470Y-48888D01*
X66470Y-48888D01*
X66456Y-48921D01*
X66456Y-48991D01*
X66456Y-48991D01*
X66456Y-49038D01*
X66452Y-49041D01*
X66437Y-49077D01*
X66437Y-49117D01*
X66437Y-49292D01*
X66452Y-49328D01*
X66480Y-49355D01*
X66514Y-49370D01*
X66480Y-49384D01*
X66452Y-49411D01*
X66437Y-49447D01*
X66437Y-49487D01*
X66437Y-49662D01*
X66452Y-49698D01*
X66456Y-49702D01*
X66456Y-49803D01*
X66452Y-49807D01*
X66437Y-49843D01*
X66437Y-49882D01*
X66437Y-50077D01*
X66452Y-50113D01*
X66456Y-50117D01*
X66456Y-50118D01*
X66452Y-50122D01*
X66437Y-50158D01*
X66437Y-50197D01*
X66437Y-50392D01*
X66450Y-50423D01*
X66397Y-50413D01*
X66299Y-50432D01*
X66298Y-50433D01*
X66298Y-50433D01*
X66288Y-50426D01*
X66220Y-50413D01*
X66192Y-50413D01*
X66187Y-50384D01*
X66187Y-50384D01*
X66148Y-50327D01*
X66042Y-50220D01*
X66042Y-50158D01*
X66027Y-50122D01*
X65999Y-50094D01*
X65963Y-50079D01*
X65924Y-50079D01*
X65729Y-50079D01*
X65693Y-50094D01*
X65665Y-50122D01*
X65650Y-50158D01*
X65650Y-50197D01*
X65650Y-50392D01*
X65665Y-50428D01*
X65693Y-50456D01*
X65729Y-50471D01*
X65768Y-50471D01*
X65791Y-50471D01*
X65846Y-50526D01*
X65846Y-50551D01*
X65859Y-50618D01*
X65898Y-50676D01*
X65930Y-50708D01*
X65912Y-50726D01*
X65885Y-50791D01*
X65885Y-50861D01*
X65907Y-50914D01*
X65855Y-50879D01*
X65787Y-50865D01*
X65719Y-50879D01*
X65662Y-50917D01*
X65623Y-50975D01*
X65610Y-51043D01*
X65610Y-51259D01*
X65610Y-51294D01*
X65623Y-51327D01*
X65637Y-51360D01*
X65662Y-51385D01*
X65686Y-51409D01*
X65719Y-51423D01*
X65719Y-51423D01*
X65752Y-51436D01*
X65787Y-51437D01*
X65822Y-51437D01*
X65855Y-51423D01*
X65887Y-51410D01*
X65892Y-51405D01*
X65885Y-51421D01*
X65885Y-51491D01*
X65906Y-51541D01*
X65887Y-51523D01*
X65822Y-51496D01*
X65752Y-51496D01*
X65687Y-51522D01*
X65637Y-51572D01*
X65610Y-51637D01*
X65610Y-51708D01*
X65637Y-51773D01*
X65686Y-51823D01*
X65752Y-51850D01*
X65822Y-51850D01*
X65885Y-51824D01*
X65885Y-51885D01*
X65892Y-51901D01*
X65887Y-51897D01*
X65822Y-51870D01*
X65752Y-51870D01*
X65687Y-51896D01*
X65637Y-51946D01*
X65610Y-52011D01*
X65610Y-52082D01*
X65637Y-52147D01*
X65686Y-52197D01*
X65752Y-52224D01*
X65822Y-52224D01*
X65887Y-52197D01*
X65892Y-52192D01*
X65885Y-52208D01*
X65885Y-52279D01*
X65892Y-52295D01*
X65887Y-52290D01*
X65822Y-52263D01*
X65752Y-52263D01*
X65687Y-52290D01*
X65637Y-52340D01*
X65610Y-52405D01*
X65610Y-52476D01*
X65637Y-52541D01*
X65686Y-52591D01*
X65752Y-52618D01*
X65822Y-52618D01*
X65887Y-52591D01*
X65892Y-52586D01*
X65885Y-52602D01*
X65885Y-52672D01*
X65892Y-52689D01*
X65887Y-52684D01*
X65822Y-52657D01*
X65752Y-52657D01*
X65687Y-52684D01*
X65637Y-52734D01*
X65610Y-52799D01*
X65610Y-52869D01*
X65637Y-52934D01*
X65686Y-52984D01*
X65752Y-53011D01*
X65822Y-53011D01*
X65887Y-52984D01*
X65892Y-52980D01*
X65885Y-52996D01*
X65885Y-53066D01*
X65906Y-53116D01*
X65887Y-53097D01*
X65822Y-53070D01*
X65752Y-53070D01*
X65687Y-53097D01*
X65637Y-53147D01*
X65610Y-53212D01*
X65610Y-53283D01*
X65637Y-53348D01*
X65686Y-53398D01*
X65752Y-53425D01*
X65822Y-53425D01*
X65885Y-53399D01*
X65885Y-53460D01*
X65912Y-53525D01*
X65933Y-53546D01*
X65925Y-53563D01*
X65925Y-53603D01*
X65925Y-53676D01*
X65925Y-53681D01*
X65925Y-54015D01*
X65925Y-54016D01*
X65925Y-54342D01*
X65926Y-54347D01*
X65926Y-54449D01*
X65941Y-54485D01*
X65968Y-54513D01*
X65974Y-54515D01*
X65561Y-54515D01*
X65473Y-54427D01*
X65409Y-54385D01*
X65334Y-54370D01*
X64974Y-54370D01*
X64992Y-54352D01*
X65006Y-54319D01*
X65006Y-54319D01*
X65006Y-54319D01*
X65019Y-54287D01*
X65019Y-54251D01*
X65019Y-54216D01*
X65006Y-54184D01*
X64992Y-54151D01*
X64967Y-54126D01*
X64943Y-54101D01*
X64910Y-54088D01*
X64910Y-54088D01*
X64877Y-54074D01*
X64807Y-54074D01*
X64807Y-54074D01*
X64785Y-54074D01*
X64784Y-54072D01*
X64756Y-54044D01*
X64720Y-54029D01*
X64681Y-54029D01*
X64114Y-54029D01*
X64078Y-54044D01*
X64050Y-54072D01*
X64049Y-54074D01*
X63956Y-54074D01*
X63921Y-54074D01*
X63921Y-54074D01*
X63864Y-54074D01*
X63863Y-54072D01*
X63835Y-54044D01*
X63799Y-54029D01*
X63760Y-54029D01*
X63193Y-54029D01*
X63156Y-54044D01*
X63129Y-54072D01*
X63128Y-54074D01*
X63071Y-54074D01*
X63035Y-54074D01*
X62970Y-54101D01*
X62920Y-54151D01*
X62907Y-54184D01*
X62907Y-54184D01*
X62907Y-54184D01*
X62893Y-54216D01*
X62893Y-54287D01*
X62907Y-54319D01*
X62920Y-54352D01*
X62945Y-54377D01*
X62970Y-54401D01*
X62931Y-54427D01*
X62889Y-54491D01*
X62874Y-54566D01*
X62889Y-54642D01*
X62931Y-54706D01*
X62995Y-54748D01*
X63070Y-54763D01*
X63146Y-54763D01*
X63156Y-54774D01*
X63192Y-54789D01*
X63232Y-54789D01*
X63799Y-54789D01*
X63835Y-54774D01*
X63845Y-54763D01*
X64067Y-54763D01*
X64078Y-54774D01*
X64114Y-54789D01*
X64153Y-54789D01*
X64720Y-54789D01*
X64756Y-54774D01*
X64767Y-54763D01*
X64842Y-54763D01*
X65253Y-54763D01*
X65341Y-54851D01*
X65341Y-54851D01*
X65404Y-54894D01*
X65480Y-54909D01*
X66122Y-54909D01*
X66176Y-54898D01*
X66239Y-54898D01*
X66275Y-54883D01*
X66302Y-54855D01*
X66317Y-54819D01*
X66317Y-54780D01*
X66317Y-54717D01*
X66318Y-54712D01*
X66317Y-54707D01*
X66317Y-54605D01*
X66303Y-54569D01*
X66275Y-54541D01*
X66241Y-54527D01*
X66275Y-54513D01*
X66302Y-54485D01*
X66310Y-54468D01*
X66463Y-54468D01*
X66450Y-54499D01*
X66450Y-54499D01*
X66450Y-54499D01*
X66437Y-54531D01*
X66436Y-54602D01*
X66437Y-54602D01*
X66437Y-54667D01*
X66433Y-54671D01*
X66418Y-54707D01*
X66418Y-54746D01*
X66418Y-54921D01*
X66433Y-54958D01*
X66460Y-54985D01*
X66494Y-55000D01*
X66460Y-55014D01*
X66433Y-55041D01*
X66418Y-55077D01*
X66418Y-55116D01*
X66418Y-55180D01*
X66417Y-55185D01*
X66417Y-55590D01*
X66432Y-55665D01*
X66474Y-55729D01*
X66538Y-55772D01*
X66614Y-55787D01*
X66689Y-55772D01*
X66753Y-55729D01*
X66796Y-55665D01*
X66811Y-55590D01*
X66811Y-55185D01*
X66810Y-55180D01*
X66810Y-55078D01*
X66795Y-55041D01*
X66767Y-55014D01*
X66733Y-54999D01*
X66767Y-54985D01*
X66795Y-54958D01*
X66810Y-54922D01*
X66810Y-54883D01*
X66810Y-54708D01*
X66795Y-54671D01*
X66791Y-54667D01*
X66791Y-54567D01*
X66791Y-54566D01*
X66791Y-54531D01*
X66777Y-54499D01*
X66765Y-54468D01*
X67007Y-54468D01*
X67007Y-54468D01*
X67012Y-54467D01*
X67012Y-54467D01*
X67124Y-54467D01*
X67161Y-54452D01*
X67185Y-54428D01*
X67208Y-54452D01*
X67245Y-54467D01*
X67284Y-54467D01*
X67479Y-54467D01*
X67480Y-54467D01*
X67480Y-55019D01*
X67492Y-55080D01*
X67500Y-55092D01*
X67500Y-55195D01*
X67515Y-55231D01*
X67543Y-55259D01*
X67579Y-55274D01*
X67618Y-55274D01*
X67813Y-55274D01*
X67849Y-55259D01*
X67855Y-55254D01*
X67860Y-55259D01*
X67896Y-55274D01*
X67935Y-55274D01*
X68110Y-55274D01*
X68147Y-55259D01*
X68174Y-55232D01*
X68188Y-55198D01*
X68202Y-55231D01*
X68230Y-55259D01*
X68266Y-55274D01*
X68291Y-55274D01*
X68425Y-55408D01*
X68425Y-55492D01*
X68425Y-55496D01*
X68425Y-55609D01*
X68440Y-55645D01*
X68468Y-55673D01*
X68504Y-55688D01*
X68543Y-55688D01*
X68617Y-55688D01*
X68621Y-55688D01*
X68626Y-55688D01*
X68738Y-55688D01*
X68775Y-55673D01*
X68778Y-55669D01*
X68838Y-55669D01*
X68838Y-55669D01*
X68873Y-55669D01*
X68906Y-55655D01*
X68938Y-55642D01*
X68953Y-55627D01*
X68963Y-55651D01*
X68988Y-55676D01*
X69013Y-55701D01*
X69046Y-55714D01*
X69046Y-55714D01*
X69078Y-55728D01*
X69114Y-55728D01*
X69149Y-55728D01*
X69181Y-55714D01*
X69214Y-55701D01*
X69239Y-55676D01*
X69264Y-55651D01*
X69277Y-55618D01*
X69277Y-55618D01*
X69277Y-55618D01*
X69291Y-55586D01*
X69291Y-55551D01*
X69291Y-55516D01*
X69291Y-55516D01*
X69291Y-55489D01*
X69295Y-55485D01*
X69310Y-55449D01*
X69310Y-55410D01*
X69310Y-55235D01*
X69295Y-55199D01*
X69267Y-55171D01*
X69233Y-55157D01*
X69267Y-55143D01*
X69295Y-55115D01*
X69310Y-55079D01*
X69310Y-55040D01*
X69310Y-54865D01*
X69295Y-54829D01*
X69291Y-54825D01*
X69291Y-54822D01*
X69294Y-54818D01*
X69309Y-54782D01*
X69309Y-54743D01*
X69309Y-54548D01*
X69294Y-54512D01*
X69291Y-54508D01*
X69291Y-54507D01*
X69294Y-54503D01*
X69309Y-54467D01*
X69309Y-54428D01*
X69309Y-54405D01*
X69495Y-54219D01*
X69495Y-54219D01*
X69495Y-54219D01*
X69524Y-54176D01*
X69652Y-54304D01*
X69703Y-54338D01*
X69703Y-54338D01*
X69763Y-54350D01*
X69824Y-54350D01*
X69824Y-54467D01*
X69839Y-54504D01*
X69867Y-54531D01*
X69870Y-54533D01*
X69863Y-54550D01*
X69863Y-54589D01*
X69863Y-54764D01*
X69878Y-54800D01*
X69905Y-54828D01*
X69920Y-54834D01*
X69685Y-54834D01*
X69630Y-54845D01*
X69568Y-54845D01*
X69531Y-54860D01*
X69504Y-54888D01*
X69489Y-54924D01*
X69489Y-54963D01*
X69489Y-55026D01*
X69488Y-55031D01*
X69489Y-55036D01*
X69489Y-55138D01*
X69504Y-55174D01*
X69531Y-55202D01*
X69565Y-55216D01*
X69531Y-55230D01*
X69504Y-55258D01*
X69489Y-55294D01*
X69489Y-55333D01*
X69489Y-55508D01*
X69504Y-55544D01*
X69507Y-55548D01*
X69507Y-55649D01*
X69507Y-55684D01*
X69521Y-55717D01*
X69534Y-55749D01*
X69559Y-55774D01*
X69584Y-55799D01*
X69617Y-55813D01*
X69617Y-55813D01*
X69649Y-55826D01*
X69685Y-55826D01*
X69720Y-55826D01*
X69752Y-55813D01*
X69785Y-55799D01*
X69810Y-55774D01*
X69835Y-55750D01*
X69848Y-55717D01*
X69848Y-55717D01*
X69848Y-55717D01*
X69862Y-55685D01*
X69862Y-55649D01*
X69862Y-55614D01*
X69862Y-55614D01*
X69862Y-55548D01*
X69865Y-55544D01*
X69880Y-55508D01*
X69880Y-55469D01*
X69880Y-55294D01*
X69866Y-55258D01*
X69838Y-55230D01*
X69832Y-55228D01*
X70055Y-55228D01*
X70055Y-55228D01*
X70130Y-55213D01*
X70176Y-55213D01*
X70212Y-55198D01*
X70239Y-55170D01*
X70254Y-55134D01*
X70254Y-55095D01*
X70254Y-55032D01*
X70255Y-55027D01*
X70254Y-55022D01*
X70254Y-54920D01*
X70240Y-54884D01*
X70212Y-54856D01*
X70178Y-54842D01*
X70212Y-54828D01*
X70239Y-54800D01*
X70254Y-54764D01*
X70254Y-54725D01*
X70254Y-54550D01*
X70248Y-54534D01*
X70253Y-54531D01*
X70281Y-54504D01*
X70296Y-54468D01*
X70296Y-54428D01*
X70296Y-56279D01*
X65098Y-56279D01*
X65098Y-56043D01*
X64799Y-56043D01*
X64799Y-55143D01*
X64799Y-55053D01*
X64793Y-55039D01*
X64799Y-55025D01*
X64799Y-54986D01*
X64799Y-54895D01*
X64784Y-54859D01*
X64756Y-54831D01*
X64720Y-54816D01*
X64681Y-54816D01*
X64114Y-54816D01*
X64078Y-54831D01*
X64050Y-54859D01*
X64035Y-54895D01*
X64035Y-54934D01*
X64035Y-55025D01*
X64041Y-55039D01*
X64035Y-55053D01*
X64035Y-55092D01*
X64035Y-55182D01*
X64050Y-55219D01*
X64078Y-55246D01*
X64114Y-55261D01*
X64153Y-55261D01*
X64720Y-55261D01*
X64756Y-55246D01*
X64784Y-55219D01*
X64799Y-55183D01*
X64799Y-55143D01*
X64799Y-56043D01*
X63877Y-56043D01*
X63877Y-55143D01*
X63877Y-55053D01*
X63872Y-55039D01*
X63877Y-55025D01*
X63877Y-54986D01*
X63877Y-54895D01*
X63863Y-54859D01*
X63835Y-54831D01*
X63799Y-54816D01*
X63760Y-54816D01*
X63193Y-54816D01*
X63156Y-54831D01*
X63129Y-54859D01*
X63114Y-54895D01*
X63114Y-54934D01*
X63114Y-55025D01*
X63119Y-55039D01*
X63114Y-55053D01*
X63114Y-55092D01*
X63114Y-55182D01*
X63129Y-55219D01*
X63156Y-55246D01*
X63192Y-55261D01*
X63232Y-55261D01*
X63799Y-55261D01*
X63835Y-55246D01*
X63862Y-55219D01*
X63877Y-55183D01*
X63877Y-55143D01*
X63877Y-56043D01*
X62775Y-56043D01*
X62775Y-53221D01*
X62838Y-53248D01*
X62893Y-53248D01*
X62893Y-53263D01*
X62920Y-53328D01*
X62970Y-53378D01*
X63035Y-53405D01*
X63105Y-53405D01*
X63171Y-53378D01*
X63182Y-53367D01*
X63192Y-53372D01*
X63232Y-53372D01*
X63799Y-53372D01*
X63835Y-53357D01*
X63844Y-53347D01*
X63875Y-53378D01*
X63940Y-53405D01*
X64011Y-53405D01*
X64076Y-53378D01*
X64092Y-53362D01*
X64114Y-53372D01*
X64153Y-53372D01*
X64720Y-53372D01*
X64756Y-53357D01*
X64784Y-53329D01*
X64799Y-53293D01*
X64799Y-53254D01*
X64799Y-53163D01*
X64793Y-53149D01*
X64799Y-53135D01*
X64799Y-53096D01*
X64799Y-53006D01*
X64793Y-52992D01*
X64799Y-52978D01*
X64799Y-52939D01*
X64799Y-52848D01*
X64793Y-52834D01*
X64799Y-52820D01*
X64799Y-52781D01*
X64799Y-52691D01*
X64793Y-52677D01*
X64799Y-52663D01*
X64799Y-52624D01*
X64799Y-52533D01*
X64793Y-52519D01*
X64799Y-52505D01*
X64799Y-52466D01*
X64799Y-52376D01*
X64793Y-52362D01*
X64799Y-52348D01*
X64799Y-52309D01*
X64799Y-52218D01*
X64793Y-52204D01*
X64799Y-52190D01*
X64799Y-52151D01*
X64799Y-52061D01*
X64793Y-52047D01*
X64799Y-52033D01*
X64799Y-51994D01*
X64799Y-51984D01*
X64807Y-51988D01*
X64877Y-51988D01*
X64942Y-51961D01*
X64992Y-51911D01*
X65019Y-51846D01*
X65019Y-51775D01*
X64992Y-51710D01*
X64943Y-51660D01*
X64925Y-51653D01*
X64942Y-51646D01*
X64992Y-51596D01*
X65019Y-51531D01*
X65019Y-51460D01*
X64992Y-51395D01*
X64943Y-51345D01*
X64925Y-51338D01*
X64942Y-51331D01*
X64992Y-51281D01*
X65019Y-51216D01*
X65019Y-51146D01*
X64992Y-51080D01*
X64943Y-51030D01*
X64925Y-51023D01*
X64942Y-51016D01*
X64992Y-50966D01*
X65019Y-50901D01*
X65019Y-50831D01*
X64992Y-50765D01*
X64943Y-50716D01*
X64925Y-50708D01*
X64942Y-50701D01*
X64992Y-50651D01*
X65019Y-50586D01*
X65019Y-50516D01*
X64992Y-50450D01*
X64943Y-50401D01*
X64925Y-50393D01*
X64942Y-50386D01*
X64992Y-50336D01*
X65019Y-50271D01*
X65019Y-50201D01*
X64992Y-50135D01*
X64943Y-50086D01*
X64925Y-50078D01*
X64942Y-50071D01*
X64992Y-50021D01*
X65019Y-49956D01*
X65019Y-49886D01*
X64992Y-49821D01*
X64943Y-49771D01*
X64877Y-49744D01*
X64807Y-49744D01*
X64799Y-49747D01*
X64799Y-49699D01*
X64799Y-49474D01*
X64799Y-49384D01*
X64793Y-49370D01*
X64799Y-49356D01*
X64799Y-49317D01*
X64799Y-49226D01*
X64799Y-49002D01*
X64799Y-48911D01*
X64784Y-48875D01*
X64756Y-48847D01*
X64720Y-48832D01*
X64681Y-48832D01*
X64114Y-48832D01*
X64078Y-48847D01*
X64050Y-48875D01*
X64035Y-48911D01*
X64035Y-48950D01*
X64035Y-49041D01*
X64050Y-49077D01*
X64078Y-49105D01*
X64114Y-49120D01*
X64153Y-49120D01*
X64720Y-49120D01*
X64756Y-49105D01*
X64784Y-49077D01*
X64799Y-49041D01*
X64799Y-49002D01*
X64799Y-49226D01*
X64784Y-49190D01*
X64756Y-49162D01*
X64720Y-49147D01*
X64681Y-49147D01*
X64114Y-49147D01*
X64078Y-49162D01*
X64050Y-49190D01*
X64035Y-49226D01*
X64035Y-49265D01*
X64035Y-49356D01*
X64041Y-49370D01*
X64035Y-49383D01*
X64035Y-49423D01*
X64035Y-49513D01*
X64050Y-49549D01*
X64078Y-49577D01*
X64114Y-49592D01*
X64153Y-49592D01*
X64720Y-49592D01*
X64756Y-49577D01*
X64784Y-49549D01*
X64799Y-49513D01*
X64799Y-49474D01*
X64799Y-49699D01*
X64784Y-49662D01*
X64756Y-49635D01*
X64720Y-49620D01*
X64681Y-49620D01*
X64114Y-49620D01*
X64100Y-49625D01*
X64089Y-49625D01*
X64076Y-49613D01*
X64011Y-49586D01*
X63941Y-49586D01*
X63877Y-49612D01*
X63877Y-49474D01*
X63877Y-49384D01*
X63872Y-49370D01*
X63877Y-49356D01*
X63877Y-49317D01*
X63877Y-49226D01*
X63863Y-49190D01*
X63835Y-49162D01*
X63799Y-49147D01*
X63760Y-49147D01*
X63193Y-49147D01*
X63156Y-49162D01*
X63129Y-49190D01*
X63114Y-49226D01*
X63114Y-49265D01*
X63114Y-49356D01*
X63119Y-49370D01*
X63114Y-49383D01*
X63114Y-49423D01*
X63114Y-49513D01*
X63129Y-49549D01*
X63156Y-49577D01*
X63192Y-49592D01*
X63232Y-49592D01*
X63799Y-49592D01*
X63835Y-49577D01*
X63862Y-49549D01*
X63877Y-49513D01*
X63877Y-49474D01*
X63877Y-49612D01*
X63876Y-49613D01*
X63844Y-49644D01*
X63835Y-49635D01*
X63799Y-49620D01*
X63760Y-49620D01*
X63193Y-49620D01*
X63182Y-49624D01*
X63171Y-49613D01*
X63106Y-49586D01*
X63035Y-49586D01*
X62970Y-49613D01*
X62920Y-49663D01*
X62893Y-49728D01*
X62893Y-49744D01*
X62838Y-49744D01*
X62775Y-49770D01*
X62775Y-48051D01*
X65098Y-48051D01*
X65098Y-47814D01*
X73562Y-47814D01*
X73562Y-48051D01*
X75610Y-48051D01*
X75610Y-51823D01*
X75475Y-51689D01*
X75295Y-51614D01*
X75099Y-51614D01*
X74918Y-51688D01*
X74779Y-51827D01*
X74704Y-52007D01*
X74704Y-52203D01*
X74779Y-52384D01*
X74917Y-52523D01*
X75098Y-52598D01*
X75294Y-52598D01*
X75475Y-52523D01*
X75610Y-52388D01*
X75610Y-56043D01*
M02*
