G04 (created by PCBNEW (2013-07-07 BZR 4022)-stable) date 24/11/2015 00:30:32*
%MOIN*%
G04 Gerber Fmt 3.4, Leading zero omitted, Abs format*
%FSLAX34Y34*%
G01*
G70*
G90*
G04 APERTURE LIST*
%ADD10C,0.00590551*%
%ADD11R,0.0195X0.0175*%
%ADD12R,0.0175X0.0195*%
%ADD13R,0.0259X0.014*%
%ADD14R,0.0195X0.0195*%
%ADD15R,0.0393701X0.0393701*%
%ADD16R,0.0866142X0.0413386*%
%ADD17R,0.0392X0.0392*%
%ADD18R,0.0117X0.0275*%
%ADD19R,0.0117X0.0117*%
%ADD20R,0.0117X0.0177*%
%ADD21R,0.0177X0.0117*%
%ADD22R,0.0314X0.0314*%
%ADD23R,0.129921X0.0393701*%
%ADD24R,0.0393701X0.129921*%
%ADD25R,0.102362X0.0393701*%
%ADD26R,0.0393701X0.102362*%
%ADD27R,0.0649606X0.0299213*%
G04 APERTURE END LIST*
G54D10*
G54D11*
X64291Y-54948D03*
X64291Y-54578D03*
G54D12*
X70996Y-52283D03*
X71366Y-52283D03*
G54D11*
X67657Y-54933D03*
X67657Y-55303D03*
X67657Y-54263D03*
X67657Y-54633D03*
G54D12*
X71232Y-51043D03*
X71602Y-51043D03*
G54D11*
X70216Y-53334D03*
X70216Y-52964D03*
G54D12*
X71409Y-52952D03*
X71779Y-52952D03*
G54D11*
X70216Y-50661D03*
X70216Y-51031D03*
X63503Y-54594D03*
X63503Y-54224D03*
G54D13*
X68848Y-54209D03*
X68848Y-54549D03*
X68848Y-55140D03*
X68848Y-54800D03*
G54D14*
X70551Y-50669D03*
X70905Y-50669D03*
X70551Y-51043D03*
X70905Y-51043D03*
X70216Y-51377D03*
X70570Y-51377D03*
X69222Y-54517D03*
X69576Y-54517D03*
X72204Y-55177D03*
X72558Y-55177D03*
X69025Y-49281D03*
X69379Y-49281D03*
X68484Y-54852D03*
X68484Y-54498D03*
X69025Y-49616D03*
X69379Y-49616D03*
X70728Y-52952D03*
X71082Y-52952D03*
X70216Y-52637D03*
X70570Y-52637D03*
X67342Y-54271D03*
X67342Y-54625D03*
X72067Y-49940D03*
X72421Y-49940D03*
X69222Y-54832D03*
X69576Y-54832D03*
X70571Y-53326D03*
X70925Y-53326D03*
G54D15*
X75551Y-54527D03*
X74370Y-54527D03*
G54D16*
X74960Y-55108D03*
X74960Y-53946D03*
G54D15*
X75551Y-49566D03*
X74370Y-49566D03*
G54D16*
X74960Y-50147D03*
X74960Y-48986D03*
G54D17*
X60354Y-58267D03*
X60354Y-45866D03*
X77952Y-58267D03*
X77952Y-45866D03*
G54D18*
X68487Y-52974D03*
X68487Y-52606D03*
X68487Y-52242D03*
X68487Y-51871D03*
X68487Y-51506D03*
X68487Y-51139D03*
X68682Y-51139D03*
X68684Y-51506D03*
X68684Y-51871D03*
X68684Y-52242D03*
X68684Y-52606D03*
X68684Y-52974D03*
X69072Y-52974D03*
X69072Y-52606D03*
X69072Y-52242D03*
X69072Y-51871D03*
X69072Y-51506D03*
X69072Y-51139D03*
X68875Y-51139D03*
X68875Y-51506D03*
X68875Y-51871D03*
X68875Y-52242D03*
X68875Y-52606D03*
X68875Y-52974D03*
X67707Y-52974D03*
X67707Y-52606D03*
X67707Y-52242D03*
X67707Y-51871D03*
X67707Y-51506D03*
X67707Y-51139D03*
X67902Y-51139D03*
X67904Y-51506D03*
X67904Y-51871D03*
X67904Y-52242D03*
X67904Y-52606D03*
X67904Y-52974D03*
X68292Y-52974D03*
X68292Y-52606D03*
X68292Y-52242D03*
X68292Y-51871D03*
X68292Y-51506D03*
X68292Y-51139D03*
X68095Y-51139D03*
X68095Y-51506D03*
X68095Y-51871D03*
X68095Y-52242D03*
X68095Y-52606D03*
X68095Y-52974D03*
X67312Y-52974D03*
X67312Y-52606D03*
X67312Y-52242D03*
X67312Y-51871D03*
X67312Y-51506D03*
X67312Y-51139D03*
X67509Y-51139D03*
X67510Y-51506D03*
X67510Y-51871D03*
X67510Y-52242D03*
X67510Y-52606D03*
X67510Y-52974D03*
X67120Y-52974D03*
X67120Y-52606D03*
X67120Y-52242D03*
X67120Y-51871D03*
X67120Y-51506D03*
X67120Y-51139D03*
G54D19*
X69081Y-50580D03*
X69278Y-50580D03*
X68883Y-50580D03*
X68686Y-50580D03*
X68490Y-50580D03*
X68293Y-50580D03*
X68096Y-50580D03*
X67900Y-50580D03*
X67703Y-50580D03*
X67505Y-50580D03*
X67308Y-50580D03*
X67111Y-50580D03*
X66916Y-50580D03*
G54D20*
X69375Y-50356D03*
X69178Y-50356D03*
X68983Y-50356D03*
X68786Y-50356D03*
X68588Y-50356D03*
X68391Y-50356D03*
X68195Y-50356D03*
X67998Y-50356D03*
X67801Y-50356D03*
X67605Y-50356D03*
X67408Y-50356D03*
X67211Y-50356D03*
X67013Y-50356D03*
X66816Y-50356D03*
G54D19*
X66718Y-50580D03*
G54D21*
X69698Y-50679D03*
G54D19*
X69473Y-50779D03*
G54D21*
X69698Y-50878D03*
X69698Y-51074D03*
X69698Y-51271D03*
X69698Y-51468D03*
X69698Y-51664D03*
X69696Y-51861D03*
X69698Y-52058D03*
X69698Y-52254D03*
X69698Y-52453D03*
X69698Y-52648D03*
X69698Y-52846D03*
X69698Y-53043D03*
X69698Y-53238D03*
X69698Y-53426D03*
G54D19*
X69473Y-50976D03*
X69473Y-51171D03*
X69473Y-51369D03*
X69473Y-51566D03*
X69473Y-51763D03*
X69473Y-51959D03*
X69473Y-52158D03*
X69473Y-52353D03*
X69473Y-52549D03*
X69473Y-52748D03*
X69473Y-52944D03*
X69473Y-53338D03*
X69473Y-53141D03*
X69075Y-53531D03*
X69271Y-53531D03*
X68878Y-53531D03*
X68681Y-53531D03*
X68483Y-53531D03*
X68288Y-53531D03*
X68091Y-53531D03*
X67893Y-53531D03*
X67696Y-53531D03*
X67500Y-53531D03*
X67303Y-53531D03*
X67105Y-53531D03*
X66910Y-53531D03*
G54D20*
X69368Y-53756D03*
X69171Y-53756D03*
X68976Y-53756D03*
X68780Y-53756D03*
X68583Y-53756D03*
X68386Y-53756D03*
X68188Y-53756D03*
X67991Y-53756D03*
X67795Y-53755D03*
X67598Y-53756D03*
X67401Y-53756D03*
X67205Y-53756D03*
X67008Y-53756D03*
X66811Y-53756D03*
G54D19*
X66713Y-53531D03*
G54D20*
X66613Y-53756D03*
X66619Y-50356D03*
G54D21*
X66296Y-50678D03*
G54D19*
X66521Y-50777D03*
G54D21*
X66296Y-50875D03*
X66296Y-51072D03*
X66296Y-51269D03*
X66296Y-51466D03*
X66296Y-51663D03*
X66296Y-51859D03*
X66296Y-52056D03*
X66296Y-52253D03*
X66296Y-52450D03*
X66296Y-52647D03*
X66296Y-52844D03*
X66296Y-53041D03*
X66296Y-53236D03*
X66296Y-53433D03*
G54D19*
X66521Y-50974D03*
X66521Y-51170D03*
X66521Y-51367D03*
X66521Y-51564D03*
X66521Y-51761D03*
X66521Y-51958D03*
X66521Y-52155D03*
X66521Y-52352D03*
X66521Y-52548D03*
X66521Y-52745D03*
X66521Y-52942D03*
X66521Y-53336D03*
X66521Y-53139D03*
G54D18*
X66924Y-51139D03*
X66924Y-51506D03*
X66924Y-51871D03*
X66924Y-52242D03*
X66924Y-52606D03*
X66924Y-52974D03*
G54D22*
X63503Y-55787D03*
X63503Y-55157D03*
G54D23*
X72913Y-56082D03*
G54D24*
X73366Y-55629D03*
G54D23*
X65748Y-56082D03*
G54D24*
X65295Y-55629D03*
X73366Y-48464D03*
G54D23*
X72913Y-48011D03*
X65748Y-48011D03*
G54D24*
X65295Y-48464D03*
G54D25*
X70807Y-48011D03*
X67854Y-48011D03*
X67854Y-56082D03*
G54D26*
X65295Y-50570D03*
X65295Y-53523D03*
X73366Y-50570D03*
X73366Y-53523D03*
G54D25*
X70807Y-56082D03*
G54D27*
X70250Y-55175D03*
X70250Y-54175D03*
X71501Y-55175D03*
X71501Y-54175D03*
X71501Y-54675D03*
X70250Y-54675D03*
X70023Y-49948D03*
X70023Y-48948D03*
X71275Y-49948D03*
X71275Y-48948D03*
X71275Y-49448D03*
X70023Y-49448D03*
G54D13*
X72421Y-49239D03*
X72421Y-49579D03*
G54D14*
X72421Y-48641D03*
X72067Y-48641D03*
X72421Y-48956D03*
X72067Y-48956D03*
M02*
