G04 (created by PCBNEW (2013-07-07 BZR 4022)-stable) date 24/11/2015 00:30:32*
%MOIN*%
G04 Gerber Fmt 3.4, Leading zero omitted, Abs format*
%FSLAX34Y34*%
G01*
G70*
G90*
G04 APERTURE LIST*
%ADD10C,0.00590551*%
%ADD11C,0.00787402*%
%ADD12C,0.0077*%
%ADD13C,0.0039*%
G04 APERTURE END LIST*
G54D10*
G54D11*
X62800Y-56062D02*
X62819Y-56081D01*
X62857Y-56100D01*
X62950Y-56100D01*
X62988Y-56081D01*
X63007Y-56062D01*
X63025Y-56025D01*
X63025Y-55988D01*
X63007Y-55931D01*
X62782Y-55706D01*
X63025Y-55706D01*
X65073Y-55706D02*
X64848Y-55706D01*
X64960Y-55706D02*
X64960Y-56100D01*
X64923Y-56044D01*
X64885Y-56006D01*
X64848Y-55988D01*
G54D12*
X69036Y-55157D02*
X69192Y-55157D01*
X69981Y-54842D02*
X70137Y-54842D01*
X66536Y-55000D02*
X66692Y-55000D01*
X67381Y-49370D02*
X67225Y-49370D01*
X69211Y-49094D02*
X69055Y-49094D01*
X66711Y-49370D02*
X66555Y-49370D01*
X70019Y-50018D02*
X70019Y-49862D01*
X67835Y-54350D02*
X67991Y-54350D01*
X72540Y-51338D02*
X72696Y-51338D01*
X69763Y-55216D02*
X69607Y-55216D01*
X70393Y-51516D02*
X70393Y-51672D01*
X68188Y-55000D02*
X68188Y-55156D01*
X66377Y-48524D02*
X66377Y-48680D01*
X72066Y-52755D02*
X72066Y-52599D01*
X71495Y-50826D02*
X71339Y-50826D01*
X69311Y-50276D02*
X69311Y-50432D01*
X72066Y-52223D02*
X72066Y-52067D01*
X71142Y-54625D02*
X71298Y-54625D01*
X70354Y-52459D02*
X70354Y-52303D01*
X71594Y-53404D02*
X71594Y-53248D01*
X70354Y-52774D02*
X70354Y-52618D01*
X72066Y-51772D02*
X72066Y-51928D01*
X66044Y-54527D02*
X66200Y-54527D01*
X71003Y-53700D02*
X70847Y-53700D01*
X72125Y-51593D02*
X72125Y-51437D01*
X72262Y-50944D02*
X71988Y-50944D01*
X70275Y-54428D02*
X70275Y-54154D01*
X71594Y-53719D02*
X71594Y-53563D01*
X69449Y-52125D02*
X69605Y-52125D01*
X65944Y-53937D02*
X65944Y-54093D01*
X68444Y-55414D02*
X68444Y-55570D01*
X66023Y-48937D02*
X66023Y-49093D01*
X67519Y-55000D02*
X67519Y-55156D01*
X65944Y-53603D02*
X65944Y-53759D01*
X66929Y-54448D02*
X67085Y-54448D01*
X68937Y-54587D02*
X68937Y-54743D01*
X70374Y-53681D02*
X70530Y-53681D01*
X70000Y-50373D02*
X70000Y-50217D01*
X69311Y-49664D02*
X69311Y-49508D01*
X66456Y-49882D02*
X66456Y-50038D01*
X67125Y-49784D02*
X67125Y-49940D01*
X68090Y-53936D02*
X68090Y-53780D01*
X66948Y-53660D02*
X66948Y-53504D01*
X70944Y-50846D02*
X70788Y-50846D01*
X71475Y-52814D02*
X71319Y-52814D01*
X70354Y-52125D02*
X70354Y-51969D01*
X70000Y-50688D02*
X70000Y-50532D01*
X69449Y-51259D02*
X69605Y-51259D01*
X70059Y-53681D02*
X70215Y-53681D01*
X68937Y-54272D02*
X68937Y-54428D01*
X67284Y-54448D02*
X67440Y-54448D01*
X66456Y-50197D02*
X66456Y-50353D01*
X67125Y-50473D02*
X67125Y-50629D01*
X69311Y-49979D02*
X69311Y-49823D01*
X68090Y-53640D02*
X68090Y-53484D01*
X69114Y-53484D02*
X69114Y-53640D01*
X69232Y-50709D02*
X69232Y-50865D01*
X70629Y-50846D02*
X70473Y-50846D01*
X69587Y-53444D02*
X69743Y-53444D01*
X65924Y-50098D02*
X65768Y-50098D01*
X68680Y-53641D02*
X68524Y-53641D01*
G54D11*
X63129Y-47598D02*
X63129Y-56496D01*
X64783Y-56496D02*
X64783Y-47598D01*
X64783Y-47598D02*
X63129Y-47598D01*
X64783Y-56496D02*
X63129Y-56496D01*
G54D10*
X68953Y-54946D02*
X68841Y-54867D01*
X68953Y-54811D02*
X68717Y-54811D01*
X68717Y-54901D01*
X68728Y-54924D01*
X68740Y-54935D01*
X68762Y-54946D01*
X68796Y-54946D01*
X68818Y-54935D01*
X68830Y-54924D01*
X68841Y-54901D01*
X68841Y-54811D01*
X68717Y-55160D02*
X68717Y-55047D01*
X68830Y-55036D01*
X68818Y-55047D01*
X68807Y-55070D01*
X68807Y-55126D01*
X68818Y-55149D01*
X68830Y-55160D01*
X68852Y-55171D01*
X68908Y-55171D01*
X68931Y-55160D01*
X68942Y-55149D01*
X68953Y-55126D01*
X68953Y-55070D01*
X68942Y-55047D01*
X68931Y-55036D01*
X68796Y-55374D02*
X68953Y-55374D01*
X68706Y-55317D02*
X68875Y-55261D01*
X68875Y-55407D01*
X70489Y-54730D02*
X70376Y-54651D01*
X70489Y-54595D02*
X70253Y-54595D01*
X70253Y-54685D01*
X70264Y-54707D01*
X70275Y-54718D01*
X70298Y-54730D01*
X70331Y-54730D01*
X70354Y-54718D01*
X70365Y-54707D01*
X70376Y-54685D01*
X70376Y-54595D01*
X70253Y-54943D02*
X70253Y-54831D01*
X70365Y-54820D01*
X70354Y-54831D01*
X70343Y-54853D01*
X70343Y-54910D01*
X70354Y-54932D01*
X70365Y-54943D01*
X70388Y-54955D01*
X70444Y-54955D01*
X70466Y-54943D01*
X70478Y-54932D01*
X70489Y-54910D01*
X70489Y-54853D01*
X70478Y-54831D01*
X70466Y-54820D01*
X70253Y-55033D02*
X70253Y-55179D01*
X70343Y-55101D01*
X70343Y-55134D01*
X70354Y-55157D01*
X70365Y-55168D01*
X70388Y-55179D01*
X70444Y-55179D01*
X70466Y-55168D01*
X70478Y-55157D01*
X70489Y-55134D01*
X70489Y-55067D01*
X70478Y-55044D01*
X70466Y-55033D01*
X66434Y-55044D02*
X66321Y-54966D01*
X66434Y-54910D02*
X66197Y-54910D01*
X66197Y-55000D01*
X66209Y-55022D01*
X66220Y-55033D01*
X66242Y-55044D01*
X66276Y-55044D01*
X66299Y-55033D01*
X66310Y-55022D01*
X66321Y-55000D01*
X66321Y-54910D01*
X66276Y-55247D02*
X66434Y-55247D01*
X66186Y-55191D02*
X66355Y-55134D01*
X66355Y-55281D01*
X66434Y-55494D02*
X66434Y-55359D01*
X66434Y-55427D02*
X66197Y-55427D01*
X66231Y-55404D01*
X66254Y-55382D01*
X66265Y-55359D01*
X67457Y-48391D02*
X67345Y-48312D01*
X67457Y-48256D02*
X67221Y-48256D01*
X67221Y-48346D01*
X67232Y-48368D01*
X67244Y-48380D01*
X67266Y-48391D01*
X67300Y-48391D01*
X67322Y-48380D01*
X67334Y-48368D01*
X67345Y-48346D01*
X67345Y-48256D01*
X67221Y-48605D02*
X67221Y-48492D01*
X67334Y-48481D01*
X67322Y-48492D01*
X67311Y-48515D01*
X67311Y-48571D01*
X67322Y-48593D01*
X67334Y-48605D01*
X67356Y-48616D01*
X67412Y-48616D01*
X67435Y-48605D01*
X67446Y-48593D01*
X67457Y-48571D01*
X67457Y-48515D01*
X67446Y-48492D01*
X67435Y-48481D01*
X67221Y-48762D02*
X67221Y-48785D01*
X67232Y-48807D01*
X67244Y-48818D01*
X67266Y-48830D01*
X67311Y-48841D01*
X67367Y-48841D01*
X67412Y-48830D01*
X67435Y-48818D01*
X67446Y-48807D01*
X67457Y-48785D01*
X67457Y-48762D01*
X67446Y-48740D01*
X67435Y-48728D01*
X67412Y-48717D01*
X67367Y-48706D01*
X67311Y-48706D01*
X67266Y-48717D01*
X67244Y-48728D01*
X67232Y-48740D01*
X67221Y-48762D01*
X69268Y-48273D02*
X69156Y-48194D01*
X69268Y-48138D02*
X69032Y-48138D01*
X69032Y-48228D01*
X69043Y-48250D01*
X69055Y-48262D01*
X69077Y-48273D01*
X69111Y-48273D01*
X69133Y-48262D01*
X69145Y-48250D01*
X69156Y-48228D01*
X69156Y-48138D01*
X69111Y-48475D02*
X69268Y-48475D01*
X69021Y-48419D02*
X69190Y-48363D01*
X69190Y-48509D01*
X69133Y-48633D02*
X69122Y-48610D01*
X69111Y-48599D01*
X69088Y-48588D01*
X69077Y-48588D01*
X69055Y-48599D01*
X69043Y-48610D01*
X69032Y-48633D01*
X69032Y-48678D01*
X69043Y-48700D01*
X69055Y-48712D01*
X69077Y-48723D01*
X69088Y-48723D01*
X69111Y-48712D01*
X69122Y-48700D01*
X69133Y-48678D01*
X69133Y-48633D01*
X69145Y-48610D01*
X69156Y-48599D01*
X69178Y-48588D01*
X69223Y-48588D01*
X69246Y-48599D01*
X69257Y-48610D01*
X69268Y-48633D01*
X69268Y-48678D01*
X69257Y-48700D01*
X69246Y-48712D01*
X69223Y-48723D01*
X69178Y-48723D01*
X69156Y-48712D01*
X69145Y-48700D01*
X69133Y-48678D01*
X67064Y-49178D02*
X66951Y-49100D01*
X67064Y-49043D02*
X66827Y-49043D01*
X66827Y-49133D01*
X66839Y-49156D01*
X66850Y-49167D01*
X66872Y-49178D01*
X66906Y-49178D01*
X66929Y-49167D01*
X66940Y-49156D01*
X66951Y-49133D01*
X66951Y-49043D01*
X66827Y-49392D02*
X66827Y-49280D01*
X66940Y-49268D01*
X66929Y-49280D01*
X66917Y-49302D01*
X66917Y-49358D01*
X66929Y-49381D01*
X66940Y-49392D01*
X66962Y-49403D01*
X67019Y-49403D01*
X67041Y-49392D01*
X67052Y-49381D01*
X67064Y-49358D01*
X67064Y-49302D01*
X67052Y-49280D01*
X67041Y-49268D01*
X67064Y-49628D02*
X67064Y-49493D01*
X67064Y-49561D02*
X66827Y-49561D01*
X66861Y-49538D01*
X66884Y-49516D01*
X66895Y-49493D01*
X70860Y-49623D02*
X70939Y-49510D01*
X70995Y-49623D02*
X70995Y-49386D01*
X70905Y-49386D01*
X70883Y-49398D01*
X70871Y-49409D01*
X70860Y-49431D01*
X70860Y-49465D01*
X70871Y-49488D01*
X70883Y-49499D01*
X70905Y-49510D01*
X70995Y-49510D01*
X70658Y-49386D02*
X70703Y-49386D01*
X70725Y-49398D01*
X70736Y-49409D01*
X70759Y-49443D01*
X70770Y-49488D01*
X70770Y-49578D01*
X70759Y-49600D01*
X70748Y-49611D01*
X70725Y-49623D01*
X70680Y-49623D01*
X70658Y-49611D01*
X70646Y-49600D01*
X70635Y-49578D01*
X70635Y-49521D01*
X70646Y-49499D01*
X70658Y-49488D01*
X70680Y-49476D01*
X70725Y-49476D01*
X70748Y-49488D01*
X70759Y-49499D01*
X70770Y-49521D01*
X70410Y-49623D02*
X70545Y-49623D01*
X70478Y-49623D02*
X70478Y-49386D01*
X70500Y-49420D01*
X70523Y-49443D01*
X70545Y-49454D01*
X67772Y-54198D02*
X67660Y-54119D01*
X67772Y-54063D02*
X67536Y-54063D01*
X67536Y-54153D01*
X67547Y-54176D01*
X67559Y-54187D01*
X67581Y-54198D01*
X67615Y-54198D01*
X67637Y-54187D01*
X67649Y-54176D01*
X67660Y-54153D01*
X67660Y-54063D01*
X67615Y-54401D02*
X67772Y-54401D01*
X67525Y-54344D02*
X67694Y-54288D01*
X67694Y-54434D01*
X67536Y-54625D02*
X67536Y-54580D01*
X67547Y-54558D01*
X67559Y-54547D01*
X67592Y-54524D01*
X67637Y-54513D01*
X67727Y-54513D01*
X67750Y-54524D01*
X67761Y-54535D01*
X67772Y-54558D01*
X67772Y-54603D01*
X67761Y-54625D01*
X67750Y-54637D01*
X67727Y-54648D01*
X67671Y-54648D01*
X67649Y-54637D01*
X67637Y-54625D01*
X67626Y-54603D01*
X67626Y-54558D01*
X67637Y-54535D01*
X67649Y-54524D01*
X67671Y-54513D01*
G54D11*
X72725Y-50388D02*
X72575Y-50283D01*
X72725Y-50208D02*
X72410Y-50208D01*
X72410Y-50328D01*
X72425Y-50358D01*
X72440Y-50373D01*
X72470Y-50388D01*
X72515Y-50388D01*
X72545Y-50373D01*
X72560Y-50358D01*
X72575Y-50328D01*
X72575Y-50208D01*
X72410Y-50673D02*
X72410Y-50523D01*
X72560Y-50508D01*
X72545Y-50523D01*
X72530Y-50553D01*
X72530Y-50628D01*
X72545Y-50658D01*
X72560Y-50673D01*
X72590Y-50688D01*
X72665Y-50688D01*
X72695Y-50673D01*
X72710Y-50658D01*
X72725Y-50628D01*
X72725Y-50553D01*
X72710Y-50523D01*
X72695Y-50508D01*
X72410Y-50958D02*
X72410Y-50898D01*
X72425Y-50868D01*
X72440Y-50853D01*
X72485Y-50823D01*
X72545Y-50808D01*
X72665Y-50808D01*
X72695Y-50823D01*
X72710Y-50838D01*
X72725Y-50868D01*
X72725Y-50928D01*
X72710Y-50958D01*
X72695Y-50973D01*
X72665Y-50988D01*
X72590Y-50988D01*
X72560Y-50973D01*
X72545Y-50958D01*
X72530Y-50928D01*
X72530Y-50868D01*
X72545Y-50838D01*
X72560Y-50823D01*
X72590Y-50808D01*
G54D10*
X70095Y-55359D02*
X69983Y-55281D01*
X70095Y-55224D02*
X69859Y-55224D01*
X69859Y-55314D01*
X69870Y-55337D01*
X69881Y-55348D01*
X69904Y-55359D01*
X69938Y-55359D01*
X69960Y-55348D01*
X69971Y-55337D01*
X69983Y-55314D01*
X69983Y-55224D01*
X69859Y-55573D02*
X69859Y-55461D01*
X69971Y-55449D01*
X69960Y-55461D01*
X69949Y-55483D01*
X69949Y-55539D01*
X69960Y-55562D01*
X69971Y-55573D01*
X69994Y-55584D01*
X70050Y-55584D01*
X70073Y-55573D01*
X70084Y-55562D01*
X70095Y-55539D01*
X70095Y-55483D01*
X70084Y-55461D01*
X70073Y-55449D01*
X69881Y-55674D02*
X69870Y-55686D01*
X69859Y-55708D01*
X69859Y-55764D01*
X69870Y-55787D01*
X69881Y-55798D01*
X69904Y-55809D01*
X69926Y-55809D01*
X69960Y-55798D01*
X70095Y-55663D01*
X70095Y-55809D01*
X71195Y-51709D02*
X71273Y-51597D01*
X71330Y-51709D02*
X71330Y-51473D01*
X71240Y-51473D01*
X71217Y-51484D01*
X71206Y-51496D01*
X71195Y-51518D01*
X71195Y-51552D01*
X71206Y-51574D01*
X71217Y-51586D01*
X71240Y-51597D01*
X71330Y-51597D01*
X70992Y-51473D02*
X71037Y-51473D01*
X71060Y-51484D01*
X71071Y-51496D01*
X71093Y-51529D01*
X71105Y-51574D01*
X71105Y-51664D01*
X71093Y-51687D01*
X71082Y-51698D01*
X71060Y-51709D01*
X71015Y-51709D01*
X70992Y-51698D01*
X70981Y-51687D01*
X70970Y-51664D01*
X70970Y-51608D01*
X70981Y-51586D01*
X70992Y-51574D01*
X71015Y-51563D01*
X71060Y-51563D01*
X71082Y-51574D01*
X71093Y-51586D01*
X71105Y-51608D01*
X70823Y-51473D02*
X70801Y-51473D01*
X70778Y-51484D01*
X70767Y-51496D01*
X70756Y-51518D01*
X70745Y-51563D01*
X70745Y-51619D01*
X70756Y-51664D01*
X70767Y-51687D01*
X70778Y-51698D01*
X70801Y-51709D01*
X70823Y-51709D01*
X70846Y-51698D01*
X70857Y-51687D01*
X70868Y-51664D01*
X70880Y-51619D01*
X70880Y-51563D01*
X70868Y-51518D01*
X70857Y-51496D01*
X70846Y-51484D01*
X70823Y-51473D01*
X68340Y-54918D02*
X68419Y-54805D01*
X68475Y-54918D02*
X68475Y-54682D01*
X68385Y-54682D01*
X68363Y-54693D01*
X68352Y-54704D01*
X68340Y-54727D01*
X68340Y-54760D01*
X68352Y-54783D01*
X68363Y-54794D01*
X68385Y-54805D01*
X68475Y-54805D01*
X68127Y-54682D02*
X68239Y-54682D01*
X68250Y-54794D01*
X68239Y-54783D01*
X68217Y-54772D01*
X68160Y-54772D01*
X68138Y-54783D01*
X68127Y-54794D01*
X68115Y-54817D01*
X68115Y-54873D01*
X68127Y-54895D01*
X68138Y-54907D01*
X68160Y-54918D01*
X68217Y-54918D01*
X68239Y-54907D01*
X68250Y-54895D01*
X68003Y-54918D02*
X67958Y-54918D01*
X67935Y-54907D01*
X67924Y-54895D01*
X67902Y-54862D01*
X67890Y-54817D01*
X67890Y-54727D01*
X67902Y-54704D01*
X67913Y-54693D01*
X67935Y-54682D01*
X67980Y-54682D01*
X68003Y-54693D01*
X68014Y-54704D01*
X68025Y-54727D01*
X68025Y-54783D01*
X68014Y-54805D01*
X68003Y-54817D01*
X67980Y-54828D01*
X67935Y-54828D01*
X67913Y-54817D01*
X67902Y-54805D01*
X67890Y-54783D01*
X66923Y-48442D02*
X67002Y-48329D01*
X67058Y-48442D02*
X67058Y-48205D01*
X66968Y-48205D01*
X66946Y-48217D01*
X66934Y-48228D01*
X66923Y-48250D01*
X66923Y-48284D01*
X66934Y-48307D01*
X66946Y-48318D01*
X66968Y-48329D01*
X67058Y-48329D01*
X66721Y-48205D02*
X66766Y-48205D01*
X66788Y-48217D01*
X66799Y-48228D01*
X66822Y-48262D01*
X66833Y-48307D01*
X66833Y-48397D01*
X66822Y-48419D01*
X66811Y-48430D01*
X66788Y-48442D01*
X66743Y-48442D01*
X66721Y-48430D01*
X66709Y-48419D01*
X66698Y-48397D01*
X66698Y-48340D01*
X66709Y-48318D01*
X66721Y-48307D01*
X66743Y-48295D01*
X66788Y-48295D01*
X66811Y-48307D01*
X66822Y-48318D01*
X66833Y-48340D01*
X66608Y-48228D02*
X66597Y-48217D01*
X66574Y-48205D01*
X66518Y-48205D01*
X66496Y-48217D01*
X66484Y-48228D01*
X66473Y-48250D01*
X66473Y-48273D01*
X66484Y-48307D01*
X66619Y-48442D01*
X66473Y-48442D01*
G54D11*
X73076Y-52883D02*
X73181Y-52733D01*
X73256Y-52883D02*
X73256Y-52568D01*
X73136Y-52568D01*
X73106Y-52583D01*
X73091Y-52598D01*
X73076Y-52628D01*
X73076Y-52673D01*
X73091Y-52703D01*
X73106Y-52718D01*
X73136Y-52733D01*
X73256Y-52733D01*
X72806Y-52673D02*
X72806Y-52883D01*
X72881Y-52553D02*
X72956Y-52778D01*
X72761Y-52778D01*
X72656Y-52598D02*
X72641Y-52583D01*
X72611Y-52568D01*
X72536Y-52568D01*
X72506Y-52583D01*
X72491Y-52598D01*
X72476Y-52628D01*
X72476Y-52658D01*
X72491Y-52703D01*
X72671Y-52883D01*
X72476Y-52883D01*
G54D10*
X71827Y-50576D02*
X71715Y-50497D01*
X71827Y-50441D02*
X71591Y-50441D01*
X71591Y-50531D01*
X71602Y-50553D01*
X71614Y-50565D01*
X71636Y-50576D01*
X71670Y-50576D01*
X71692Y-50565D01*
X71704Y-50553D01*
X71715Y-50531D01*
X71715Y-50441D01*
X71670Y-50778D02*
X71827Y-50778D01*
X71580Y-50722D02*
X71749Y-50666D01*
X71749Y-50812D01*
X71670Y-51003D02*
X71827Y-51003D01*
X71580Y-50947D02*
X71749Y-50891D01*
X71749Y-51037D01*
X70078Y-49426D02*
X70157Y-49313D01*
X70213Y-49426D02*
X70213Y-49190D01*
X70123Y-49190D01*
X70101Y-49201D01*
X70089Y-49212D01*
X70078Y-49235D01*
X70078Y-49268D01*
X70089Y-49291D01*
X70101Y-49302D01*
X70123Y-49313D01*
X70213Y-49313D01*
X69876Y-49268D02*
X69876Y-49426D01*
X69932Y-49178D02*
X69988Y-49347D01*
X69842Y-49347D01*
G54D11*
X73076Y-52430D02*
X73181Y-52280D01*
X73256Y-52430D02*
X73256Y-52115D01*
X73136Y-52115D01*
X73106Y-52130D01*
X73091Y-52145D01*
X73076Y-52175D01*
X73076Y-52220D01*
X73091Y-52250D01*
X73106Y-52265D01*
X73136Y-52280D01*
X73256Y-52280D01*
X72776Y-52430D02*
X72956Y-52430D01*
X72866Y-52430D02*
X72866Y-52115D01*
X72896Y-52160D01*
X72926Y-52190D01*
X72956Y-52205D01*
X72476Y-52430D02*
X72656Y-52430D01*
X72566Y-52430D02*
X72566Y-52115D01*
X72596Y-52160D01*
X72626Y-52190D01*
X72656Y-52205D01*
X71721Y-54423D02*
X71571Y-54318D01*
X71721Y-54243D02*
X71407Y-54243D01*
X71407Y-54363D01*
X71422Y-54393D01*
X71437Y-54408D01*
X71467Y-54423D01*
X71511Y-54423D01*
X71541Y-54408D01*
X71556Y-54393D01*
X71571Y-54363D01*
X71571Y-54243D01*
X71437Y-54543D02*
X71422Y-54558D01*
X71407Y-54588D01*
X71407Y-54663D01*
X71422Y-54693D01*
X71437Y-54708D01*
X71467Y-54723D01*
X71497Y-54723D01*
X71541Y-54708D01*
X71721Y-54528D01*
X71721Y-54723D01*
X71407Y-55008D02*
X71407Y-54858D01*
X71556Y-54843D01*
X71541Y-54858D01*
X71526Y-54888D01*
X71526Y-54963D01*
X71541Y-54993D01*
X71556Y-55008D01*
X71586Y-55023D01*
X71661Y-55023D01*
X71691Y-55008D01*
X71706Y-54993D01*
X71721Y-54963D01*
X71721Y-54888D01*
X71706Y-54858D01*
X71691Y-54843D01*
G54D10*
X71155Y-52438D02*
X71234Y-52325D01*
X71290Y-52438D02*
X71290Y-52201D01*
X71200Y-52201D01*
X71178Y-52213D01*
X71167Y-52224D01*
X71155Y-52246D01*
X71155Y-52280D01*
X71167Y-52303D01*
X71178Y-52314D01*
X71200Y-52325D01*
X71290Y-52325D01*
X71065Y-52224D02*
X71054Y-52213D01*
X71032Y-52201D01*
X70975Y-52201D01*
X70953Y-52213D01*
X70942Y-52224D01*
X70930Y-52246D01*
X70930Y-52269D01*
X70942Y-52303D01*
X71077Y-52438D01*
X70930Y-52438D01*
X70728Y-52280D02*
X70728Y-52438D01*
X70784Y-52190D02*
X70840Y-52359D01*
X70694Y-52359D01*
G54D11*
X72702Y-53454D02*
X72807Y-53304D01*
X72882Y-53454D02*
X72882Y-53139D01*
X72762Y-53139D01*
X72732Y-53154D01*
X72717Y-53169D01*
X72702Y-53199D01*
X72702Y-53244D01*
X72717Y-53274D01*
X72732Y-53289D01*
X72762Y-53304D01*
X72882Y-53304D01*
X72582Y-53169D02*
X72567Y-53154D01*
X72537Y-53139D01*
X72462Y-53139D01*
X72432Y-53154D01*
X72417Y-53169D01*
X72402Y-53199D01*
X72402Y-53229D01*
X72417Y-53274D01*
X72597Y-53454D01*
X72402Y-53454D01*
X72297Y-53139D02*
X72102Y-53139D01*
X72207Y-53259D01*
X72162Y-53259D01*
X72132Y-53274D01*
X72117Y-53289D01*
X72102Y-53319D01*
X72102Y-53394D01*
X72117Y-53424D01*
X72132Y-53439D01*
X72162Y-53454D01*
X72252Y-53454D01*
X72282Y-53439D01*
X72297Y-53424D01*
G54D10*
X71116Y-52772D02*
X71195Y-52660D01*
X71251Y-52772D02*
X71251Y-52536D01*
X71161Y-52536D01*
X71138Y-52547D01*
X71127Y-52559D01*
X71116Y-52581D01*
X71116Y-52615D01*
X71127Y-52637D01*
X71138Y-52649D01*
X71161Y-52660D01*
X71251Y-52660D01*
X71026Y-52559D02*
X71015Y-52547D01*
X70992Y-52536D01*
X70936Y-52536D01*
X70913Y-52547D01*
X70902Y-52559D01*
X70891Y-52581D01*
X70891Y-52604D01*
X70902Y-52637D01*
X71037Y-52772D01*
X70891Y-52772D01*
X70801Y-52559D02*
X70790Y-52547D01*
X70767Y-52536D01*
X70711Y-52536D01*
X70688Y-52547D01*
X70677Y-52559D01*
X70666Y-52581D01*
X70666Y-52604D01*
X70677Y-52637D01*
X70812Y-52772D01*
X70666Y-52772D01*
G54D11*
X73076Y-52017D02*
X73181Y-51867D01*
X73256Y-52017D02*
X73256Y-51702D01*
X73136Y-51702D01*
X73106Y-51717D01*
X73091Y-51732D01*
X73076Y-51762D01*
X73076Y-51807D01*
X73091Y-51837D01*
X73106Y-51852D01*
X73136Y-51867D01*
X73256Y-51867D01*
X72776Y-52017D02*
X72956Y-52017D01*
X72866Y-52017D02*
X72866Y-51702D01*
X72896Y-51747D01*
X72926Y-51777D01*
X72956Y-51792D01*
X72671Y-51702D02*
X72461Y-51702D01*
X72596Y-52017D01*
G54D10*
X65922Y-54611D02*
X65809Y-54533D01*
X65922Y-54476D02*
X65686Y-54476D01*
X65686Y-54566D01*
X65697Y-54589D01*
X65708Y-54600D01*
X65731Y-54611D01*
X65764Y-54611D01*
X65787Y-54600D01*
X65798Y-54589D01*
X65809Y-54566D01*
X65809Y-54476D01*
X65686Y-54814D02*
X65686Y-54769D01*
X65697Y-54746D01*
X65708Y-54735D01*
X65742Y-54713D01*
X65787Y-54701D01*
X65877Y-54701D01*
X65899Y-54713D01*
X65911Y-54724D01*
X65922Y-54746D01*
X65922Y-54791D01*
X65911Y-54814D01*
X65899Y-54825D01*
X65877Y-54836D01*
X65821Y-54836D01*
X65798Y-54825D01*
X65787Y-54814D01*
X65776Y-54791D01*
X65776Y-54746D01*
X65787Y-54724D01*
X65798Y-54713D01*
X65821Y-54701D01*
X65686Y-54915D02*
X65686Y-55061D01*
X65776Y-54983D01*
X65776Y-55016D01*
X65787Y-55039D01*
X65798Y-55050D01*
X65821Y-55061D01*
X65877Y-55061D01*
X65899Y-55050D01*
X65911Y-55039D01*
X65922Y-55016D01*
X65922Y-54949D01*
X65911Y-54926D01*
X65899Y-54915D01*
G54D11*
X71032Y-54226D02*
X70883Y-54121D01*
X71032Y-54046D02*
X70718Y-54046D01*
X70718Y-54166D01*
X70733Y-54196D01*
X70748Y-54211D01*
X70778Y-54226D01*
X70823Y-54226D01*
X70853Y-54211D01*
X70868Y-54196D01*
X70883Y-54166D01*
X70883Y-54046D01*
X70718Y-54511D02*
X70718Y-54361D01*
X70868Y-54346D01*
X70853Y-54361D01*
X70838Y-54391D01*
X70838Y-54466D01*
X70853Y-54496D01*
X70868Y-54511D01*
X70898Y-54526D01*
X70973Y-54526D01*
X71002Y-54511D01*
X71017Y-54496D01*
X71032Y-54466D01*
X71032Y-54391D01*
X71017Y-54361D01*
X71002Y-54346D01*
X70718Y-54811D02*
X70718Y-54661D01*
X70868Y-54646D01*
X70853Y-54661D01*
X70838Y-54691D01*
X70838Y-54766D01*
X70853Y-54796D01*
X70868Y-54811D01*
X70898Y-54826D01*
X70973Y-54826D01*
X71002Y-54811D01*
X71017Y-54796D01*
X71032Y-54766D01*
X71032Y-54691D01*
X71017Y-54661D01*
X71002Y-54646D01*
G54D10*
X71628Y-51414D02*
X71706Y-51302D01*
X71763Y-51414D02*
X71763Y-51178D01*
X71673Y-51178D01*
X71650Y-51189D01*
X71639Y-51200D01*
X71628Y-51223D01*
X71628Y-51257D01*
X71639Y-51279D01*
X71650Y-51290D01*
X71673Y-51302D01*
X71763Y-51302D01*
X71414Y-51178D02*
X71526Y-51178D01*
X71538Y-51290D01*
X71526Y-51279D01*
X71504Y-51268D01*
X71448Y-51268D01*
X71425Y-51279D01*
X71414Y-51290D01*
X71403Y-51313D01*
X71403Y-51369D01*
X71414Y-51392D01*
X71425Y-51403D01*
X71448Y-51414D01*
X71504Y-51414D01*
X71526Y-51403D01*
X71538Y-51392D01*
X71324Y-51178D02*
X71167Y-51178D01*
X71268Y-51414D01*
G54D11*
X72223Y-49876D02*
X72238Y-49861D01*
X72253Y-49816D01*
X72253Y-49786D01*
X72238Y-49741D01*
X72208Y-49711D01*
X72178Y-49696D01*
X72118Y-49681D01*
X72073Y-49681D01*
X72013Y-49696D01*
X71983Y-49711D01*
X71953Y-49741D01*
X71938Y-49786D01*
X71938Y-49816D01*
X71953Y-49861D01*
X71968Y-49876D01*
X71938Y-50161D02*
X71938Y-50011D01*
X72088Y-49996D01*
X72073Y-50011D01*
X72058Y-50041D01*
X72058Y-50116D01*
X72073Y-50146D01*
X72088Y-50161D01*
X72118Y-50176D01*
X72193Y-50176D01*
X72223Y-50161D01*
X72238Y-50146D01*
X72253Y-50116D01*
X72253Y-50041D01*
X72238Y-50011D01*
X72223Y-49996D01*
X72073Y-50356D02*
X72058Y-50326D01*
X72043Y-50311D01*
X72013Y-50296D01*
X71998Y-50296D01*
X71968Y-50311D01*
X71953Y-50326D01*
X71938Y-50356D01*
X71938Y-50416D01*
X71953Y-50446D01*
X71968Y-50461D01*
X71998Y-50476D01*
X72013Y-50476D01*
X72043Y-50461D01*
X72058Y-50446D01*
X72073Y-50416D01*
X72073Y-50356D01*
X72088Y-50326D01*
X72103Y-50311D01*
X72133Y-50296D01*
X72193Y-50296D01*
X72223Y-50311D01*
X72238Y-50326D01*
X72253Y-50356D01*
X72253Y-50416D01*
X72238Y-50446D01*
X72223Y-50461D01*
X72193Y-50476D01*
X72133Y-50476D01*
X72103Y-50461D01*
X72088Y-50446D01*
X72073Y-50416D01*
G54D10*
X69718Y-54364D02*
X69730Y-54375D01*
X69763Y-54386D01*
X69786Y-54386D01*
X69820Y-54375D01*
X69842Y-54353D01*
X69853Y-54330D01*
X69865Y-54285D01*
X69865Y-54251D01*
X69853Y-54206D01*
X69842Y-54184D01*
X69820Y-54161D01*
X69786Y-54150D01*
X69763Y-54150D01*
X69730Y-54161D01*
X69718Y-54173D01*
X69505Y-54150D02*
X69617Y-54150D01*
X69628Y-54263D01*
X69617Y-54251D01*
X69595Y-54240D01*
X69538Y-54240D01*
X69516Y-54251D01*
X69505Y-54263D01*
X69493Y-54285D01*
X69493Y-54341D01*
X69505Y-54364D01*
X69516Y-54375D01*
X69538Y-54386D01*
X69595Y-54386D01*
X69617Y-54375D01*
X69628Y-54364D01*
X69403Y-54173D02*
X69392Y-54161D01*
X69370Y-54150D01*
X69313Y-54150D01*
X69291Y-54161D01*
X69280Y-54173D01*
X69268Y-54195D01*
X69268Y-54218D01*
X69280Y-54251D01*
X69415Y-54386D01*
X69268Y-54386D01*
G54D11*
X72702Y-53837D02*
X72717Y-53852D01*
X72762Y-53867D01*
X72792Y-53867D01*
X72837Y-53852D01*
X72867Y-53822D01*
X72882Y-53792D01*
X72897Y-53732D01*
X72897Y-53687D01*
X72882Y-53627D01*
X72867Y-53597D01*
X72837Y-53567D01*
X72792Y-53552D01*
X72762Y-53552D01*
X72717Y-53567D01*
X72702Y-53582D01*
X72582Y-53582D02*
X72567Y-53567D01*
X72537Y-53552D01*
X72462Y-53552D01*
X72432Y-53567D01*
X72417Y-53582D01*
X72402Y-53612D01*
X72402Y-53642D01*
X72417Y-53687D01*
X72597Y-53867D01*
X72402Y-53867D01*
X72282Y-53582D02*
X72267Y-53567D01*
X72237Y-53552D01*
X72162Y-53552D01*
X72132Y-53567D01*
X72117Y-53582D01*
X72102Y-53612D01*
X72102Y-53642D01*
X72117Y-53687D01*
X72297Y-53867D01*
X72102Y-53867D01*
G54D10*
X69915Y-51974D02*
X69926Y-51962D01*
X69938Y-51929D01*
X69938Y-51906D01*
X69926Y-51872D01*
X69904Y-51850D01*
X69881Y-51839D01*
X69836Y-51827D01*
X69803Y-51827D01*
X69758Y-51839D01*
X69735Y-51850D01*
X69713Y-51872D01*
X69701Y-51906D01*
X69701Y-51929D01*
X69713Y-51962D01*
X69724Y-51974D01*
X69701Y-52187D02*
X69701Y-52075D01*
X69814Y-52064D01*
X69803Y-52075D01*
X69791Y-52097D01*
X69791Y-52154D01*
X69803Y-52176D01*
X69814Y-52187D01*
X69836Y-52199D01*
X69893Y-52199D01*
X69915Y-52187D01*
X69926Y-52176D01*
X69938Y-52154D01*
X69938Y-52097D01*
X69926Y-52075D01*
X69915Y-52064D01*
X69938Y-52311D02*
X69938Y-52356D01*
X69926Y-52379D01*
X69915Y-52390D01*
X69881Y-52412D01*
X69836Y-52424D01*
X69746Y-52424D01*
X69724Y-52412D01*
X69713Y-52401D01*
X69701Y-52379D01*
X69701Y-52334D01*
X69713Y-52311D01*
X69724Y-52300D01*
X69746Y-52289D01*
X69803Y-52289D01*
X69825Y-52300D01*
X69836Y-52311D01*
X69848Y-52334D01*
X69848Y-52379D01*
X69836Y-52401D01*
X69825Y-52412D01*
X69803Y-52424D01*
X65978Y-53104D02*
X65989Y-53115D01*
X66023Y-53127D01*
X66046Y-53127D01*
X66079Y-53115D01*
X66102Y-53093D01*
X66113Y-53070D01*
X66124Y-53025D01*
X66124Y-52992D01*
X66113Y-52947D01*
X66102Y-52924D01*
X66079Y-52902D01*
X66046Y-52890D01*
X66023Y-52890D01*
X65989Y-52902D01*
X65978Y-52913D01*
X65776Y-52890D02*
X65821Y-52890D01*
X65843Y-52902D01*
X65854Y-52913D01*
X65877Y-52947D01*
X65888Y-52992D01*
X65888Y-53082D01*
X65877Y-53104D01*
X65866Y-53115D01*
X65843Y-53127D01*
X65798Y-53127D01*
X65776Y-53115D01*
X65764Y-53104D01*
X65753Y-53082D01*
X65753Y-53025D01*
X65764Y-53003D01*
X65776Y-52992D01*
X65798Y-52980D01*
X65843Y-52980D01*
X65866Y-52992D01*
X65877Y-53003D01*
X65888Y-53025D01*
X65674Y-52890D02*
X65517Y-52890D01*
X65618Y-53127D01*
X68503Y-55821D02*
X68515Y-55832D01*
X68548Y-55843D01*
X68571Y-55843D01*
X68605Y-55832D01*
X68627Y-55809D01*
X68638Y-55787D01*
X68650Y-55742D01*
X68650Y-55708D01*
X68638Y-55663D01*
X68627Y-55641D01*
X68605Y-55618D01*
X68571Y-55607D01*
X68548Y-55607D01*
X68515Y-55618D01*
X68503Y-55629D01*
X68278Y-55843D02*
X68413Y-55843D01*
X68346Y-55843D02*
X68346Y-55607D01*
X68368Y-55641D01*
X68391Y-55663D01*
X68413Y-55674D01*
X66136Y-49403D02*
X66147Y-49415D01*
X66181Y-49426D01*
X66203Y-49426D01*
X66237Y-49415D01*
X66259Y-49392D01*
X66271Y-49370D01*
X66282Y-49325D01*
X66282Y-49291D01*
X66271Y-49246D01*
X66259Y-49223D01*
X66237Y-49201D01*
X66203Y-49190D01*
X66181Y-49190D01*
X66147Y-49201D01*
X66136Y-49212D01*
X65933Y-49190D02*
X65978Y-49190D01*
X66001Y-49201D01*
X66012Y-49212D01*
X66034Y-49246D01*
X66046Y-49291D01*
X66046Y-49381D01*
X66034Y-49403D01*
X66023Y-49415D01*
X66001Y-49426D01*
X65956Y-49426D01*
X65933Y-49415D01*
X65922Y-49403D01*
X65911Y-49381D01*
X65911Y-49325D01*
X65922Y-49302D01*
X65933Y-49291D01*
X65956Y-49280D01*
X66001Y-49280D01*
X66023Y-49291D01*
X66034Y-49302D01*
X66046Y-49325D01*
X65776Y-49291D02*
X65798Y-49280D01*
X65809Y-49268D01*
X65821Y-49246D01*
X65821Y-49235D01*
X65809Y-49212D01*
X65798Y-49201D01*
X65776Y-49190D01*
X65731Y-49190D01*
X65708Y-49201D01*
X65697Y-49212D01*
X65686Y-49235D01*
X65686Y-49246D01*
X65697Y-49268D01*
X65708Y-49280D01*
X65731Y-49291D01*
X65776Y-49291D01*
X65798Y-49302D01*
X65809Y-49313D01*
X65821Y-49336D01*
X65821Y-49381D01*
X65809Y-49403D01*
X65798Y-49415D01*
X65776Y-49426D01*
X65731Y-49426D01*
X65708Y-49415D01*
X65697Y-49403D01*
X65686Y-49381D01*
X65686Y-49336D01*
X65697Y-49313D01*
X65708Y-49302D01*
X65731Y-49291D01*
X67710Y-55466D02*
X67722Y-55478D01*
X67755Y-55489D01*
X67778Y-55489D01*
X67812Y-55478D01*
X67834Y-55455D01*
X67845Y-55433D01*
X67857Y-55388D01*
X67857Y-55354D01*
X67845Y-55309D01*
X67834Y-55286D01*
X67812Y-55264D01*
X67778Y-55253D01*
X67755Y-55253D01*
X67722Y-55264D01*
X67710Y-55275D01*
X67508Y-55253D02*
X67553Y-55253D01*
X67575Y-55264D01*
X67587Y-55275D01*
X67609Y-55309D01*
X67620Y-55354D01*
X67620Y-55444D01*
X67609Y-55466D01*
X67598Y-55478D01*
X67575Y-55489D01*
X67530Y-55489D01*
X67508Y-55478D01*
X67497Y-55466D01*
X67485Y-55444D01*
X67485Y-55388D01*
X67497Y-55365D01*
X67508Y-55354D01*
X67530Y-55343D01*
X67575Y-55343D01*
X67598Y-55354D01*
X67609Y-55365D01*
X67620Y-55388D01*
X67339Y-55253D02*
X67317Y-55253D01*
X67294Y-55264D01*
X67283Y-55275D01*
X67272Y-55298D01*
X67260Y-55343D01*
X67260Y-55399D01*
X67272Y-55444D01*
X67283Y-55466D01*
X67294Y-55478D01*
X67317Y-55489D01*
X67339Y-55489D01*
X67362Y-55478D01*
X67373Y-55466D01*
X67384Y-55444D01*
X67395Y-55399D01*
X67395Y-55343D01*
X67384Y-55298D01*
X67373Y-55275D01*
X67362Y-55264D01*
X67339Y-55253D01*
X65978Y-53458D02*
X65989Y-53470D01*
X66023Y-53481D01*
X66046Y-53481D01*
X66079Y-53470D01*
X66102Y-53447D01*
X66113Y-53425D01*
X66124Y-53380D01*
X66124Y-53346D01*
X66113Y-53301D01*
X66102Y-53278D01*
X66079Y-53256D01*
X66046Y-53245D01*
X66023Y-53245D01*
X65989Y-53256D01*
X65978Y-53267D01*
X65776Y-53245D02*
X65821Y-53245D01*
X65843Y-53256D01*
X65854Y-53267D01*
X65877Y-53301D01*
X65888Y-53346D01*
X65888Y-53436D01*
X65877Y-53458D01*
X65866Y-53470D01*
X65843Y-53481D01*
X65798Y-53481D01*
X65776Y-53470D01*
X65764Y-53458D01*
X65753Y-53436D01*
X65753Y-53380D01*
X65764Y-53357D01*
X65776Y-53346D01*
X65798Y-53335D01*
X65843Y-53335D01*
X65866Y-53346D01*
X65877Y-53357D01*
X65888Y-53380D01*
X65551Y-53245D02*
X65596Y-53245D01*
X65618Y-53256D01*
X65629Y-53267D01*
X65652Y-53301D01*
X65663Y-53346D01*
X65663Y-53436D01*
X65652Y-53458D01*
X65641Y-53470D01*
X65618Y-53481D01*
X65573Y-53481D01*
X65551Y-53470D01*
X65539Y-53458D01*
X65528Y-53436D01*
X65528Y-53380D01*
X65539Y-53357D01*
X65551Y-53346D01*
X65573Y-53335D01*
X65618Y-53335D01*
X65641Y-53346D01*
X65652Y-53357D01*
X65663Y-53380D01*
X66766Y-54021D02*
X66777Y-54010D01*
X66788Y-53976D01*
X66788Y-53953D01*
X66777Y-53920D01*
X66754Y-53897D01*
X66732Y-53886D01*
X66687Y-53875D01*
X66653Y-53875D01*
X66608Y-53886D01*
X66586Y-53897D01*
X66563Y-53920D01*
X66552Y-53953D01*
X66552Y-53976D01*
X66563Y-54010D01*
X66574Y-54021D01*
X66552Y-54223D02*
X66552Y-54178D01*
X66563Y-54156D01*
X66574Y-54145D01*
X66608Y-54122D01*
X66653Y-54111D01*
X66743Y-54111D01*
X66766Y-54122D01*
X66777Y-54133D01*
X66788Y-54156D01*
X66788Y-54201D01*
X66777Y-54223D01*
X66766Y-54235D01*
X66743Y-54246D01*
X66687Y-54246D01*
X66664Y-54235D01*
X66653Y-54223D01*
X66642Y-54201D01*
X66642Y-54156D01*
X66653Y-54133D01*
X66664Y-54122D01*
X66687Y-54111D01*
X66788Y-54358D02*
X66788Y-54403D01*
X66777Y-54426D01*
X66766Y-54437D01*
X66732Y-54460D01*
X66687Y-54471D01*
X66597Y-54471D01*
X66574Y-54460D01*
X66563Y-54448D01*
X66552Y-54426D01*
X66552Y-54381D01*
X66563Y-54358D01*
X66574Y-54347D01*
X66597Y-54336D01*
X66653Y-54336D01*
X66676Y-54347D01*
X66687Y-54358D01*
X66698Y-54381D01*
X66698Y-54426D01*
X66687Y-54448D01*
X66676Y-54460D01*
X66653Y-54471D01*
X68498Y-54541D02*
X68509Y-54552D01*
X68543Y-54564D01*
X68565Y-54564D01*
X68599Y-54552D01*
X68622Y-54530D01*
X68633Y-54507D01*
X68644Y-54462D01*
X68644Y-54429D01*
X68633Y-54384D01*
X68622Y-54361D01*
X68599Y-54339D01*
X68565Y-54327D01*
X68543Y-54327D01*
X68509Y-54339D01*
X68498Y-54350D01*
X68284Y-54327D02*
X68397Y-54327D01*
X68408Y-54440D01*
X68397Y-54429D01*
X68374Y-54417D01*
X68318Y-54417D01*
X68295Y-54429D01*
X68284Y-54440D01*
X68273Y-54462D01*
X68273Y-54519D01*
X68284Y-54541D01*
X68295Y-54552D01*
X68318Y-54564D01*
X68374Y-54564D01*
X68397Y-54552D01*
X68408Y-54541D01*
X68059Y-54327D02*
X68172Y-54327D01*
X68183Y-54440D01*
X68172Y-54429D01*
X68149Y-54417D01*
X68093Y-54417D01*
X68070Y-54429D01*
X68059Y-54440D01*
X68048Y-54462D01*
X68048Y-54519D01*
X68059Y-54541D01*
X68070Y-54552D01*
X68093Y-54564D01*
X68149Y-54564D01*
X68172Y-54552D01*
X68183Y-54541D01*
X70565Y-52958D02*
X70576Y-52947D01*
X70587Y-52913D01*
X70587Y-52890D01*
X70576Y-52857D01*
X70553Y-52834D01*
X70531Y-52823D01*
X70486Y-52812D01*
X70452Y-52812D01*
X70407Y-52823D01*
X70385Y-52834D01*
X70362Y-52857D01*
X70351Y-52890D01*
X70351Y-52913D01*
X70362Y-52947D01*
X70374Y-52958D01*
X70351Y-53172D02*
X70351Y-53059D01*
X70464Y-53048D01*
X70452Y-53059D01*
X70441Y-53082D01*
X70441Y-53138D01*
X70452Y-53160D01*
X70464Y-53172D01*
X70486Y-53183D01*
X70542Y-53183D01*
X70565Y-53172D01*
X70576Y-53160D01*
X70587Y-53138D01*
X70587Y-53082D01*
X70576Y-53059D01*
X70565Y-53048D01*
X70351Y-53262D02*
X70351Y-53408D01*
X70441Y-53329D01*
X70441Y-53363D01*
X70452Y-53385D01*
X70464Y-53397D01*
X70486Y-53408D01*
X70542Y-53408D01*
X70565Y-53397D01*
X70576Y-53385D01*
X70587Y-53363D01*
X70587Y-53295D01*
X70576Y-53273D01*
X70565Y-53262D01*
X70840Y-49935D02*
X70852Y-49946D01*
X70885Y-49957D01*
X70908Y-49957D01*
X70942Y-49946D01*
X70964Y-49924D01*
X70975Y-49901D01*
X70987Y-49856D01*
X70987Y-49822D01*
X70975Y-49777D01*
X70964Y-49755D01*
X70942Y-49732D01*
X70908Y-49721D01*
X70885Y-49721D01*
X70852Y-49732D01*
X70840Y-49744D01*
X70638Y-49721D02*
X70683Y-49721D01*
X70705Y-49732D01*
X70717Y-49744D01*
X70739Y-49777D01*
X70750Y-49822D01*
X70750Y-49912D01*
X70739Y-49935D01*
X70728Y-49946D01*
X70705Y-49957D01*
X70660Y-49957D01*
X70638Y-49946D01*
X70627Y-49935D01*
X70615Y-49912D01*
X70615Y-49856D01*
X70627Y-49834D01*
X70638Y-49822D01*
X70660Y-49811D01*
X70705Y-49811D01*
X70728Y-49822D01*
X70739Y-49834D01*
X70750Y-49856D01*
X70525Y-49744D02*
X70514Y-49732D01*
X70492Y-49721D01*
X70435Y-49721D01*
X70413Y-49732D01*
X70402Y-49744D01*
X70390Y-49766D01*
X70390Y-49789D01*
X70402Y-49822D01*
X70537Y-49957D01*
X70390Y-49957D01*
X69836Y-48695D02*
X69848Y-48706D01*
X69881Y-48717D01*
X69904Y-48717D01*
X69938Y-48706D01*
X69960Y-48683D01*
X69971Y-48661D01*
X69983Y-48616D01*
X69983Y-48582D01*
X69971Y-48537D01*
X69960Y-48515D01*
X69938Y-48492D01*
X69904Y-48481D01*
X69881Y-48481D01*
X69848Y-48492D01*
X69836Y-48503D01*
X69634Y-48560D02*
X69634Y-48717D01*
X69690Y-48470D02*
X69746Y-48638D01*
X69600Y-48638D01*
X69499Y-48717D02*
X69454Y-48717D01*
X69431Y-48706D01*
X69420Y-48695D01*
X69398Y-48661D01*
X69386Y-48616D01*
X69386Y-48526D01*
X69398Y-48503D01*
X69409Y-48492D01*
X69431Y-48481D01*
X69476Y-48481D01*
X69499Y-48492D01*
X69510Y-48503D01*
X69521Y-48526D01*
X69521Y-48582D01*
X69510Y-48605D01*
X69499Y-48616D01*
X69476Y-48627D01*
X69431Y-48627D01*
X69409Y-48616D01*
X69398Y-48605D01*
X69386Y-48582D01*
X66273Y-49738D02*
X66285Y-49749D01*
X66318Y-49760D01*
X66341Y-49760D01*
X66375Y-49749D01*
X66397Y-49727D01*
X66408Y-49704D01*
X66420Y-49659D01*
X66420Y-49625D01*
X66408Y-49580D01*
X66397Y-49558D01*
X66375Y-49535D01*
X66341Y-49524D01*
X66318Y-49524D01*
X66285Y-49535D01*
X66273Y-49547D01*
X66071Y-49603D02*
X66071Y-49760D01*
X66127Y-49513D02*
X66183Y-49682D01*
X66037Y-49682D01*
X65835Y-49524D02*
X65947Y-49524D01*
X65958Y-49637D01*
X65947Y-49625D01*
X65925Y-49614D01*
X65868Y-49614D01*
X65846Y-49625D01*
X65835Y-49637D01*
X65823Y-49659D01*
X65823Y-49715D01*
X65835Y-49738D01*
X65846Y-49749D01*
X65868Y-49760D01*
X65925Y-49760D01*
X65947Y-49749D01*
X65958Y-49738D01*
X67002Y-48970D02*
X67013Y-48982D01*
X67047Y-48993D01*
X67069Y-48993D01*
X67103Y-48982D01*
X67125Y-48959D01*
X67137Y-48937D01*
X67148Y-48892D01*
X67148Y-48858D01*
X67137Y-48813D01*
X67125Y-48790D01*
X67103Y-48768D01*
X67069Y-48757D01*
X67047Y-48757D01*
X67013Y-48768D01*
X67002Y-48779D01*
X66799Y-48835D02*
X66799Y-48993D01*
X66856Y-48745D02*
X66912Y-48914D01*
X66766Y-48914D01*
X66698Y-48757D02*
X66541Y-48757D01*
X66642Y-48993D01*
X67612Y-53951D02*
X67623Y-53962D01*
X67657Y-53973D01*
X67679Y-53973D01*
X67713Y-53962D01*
X67736Y-53939D01*
X67747Y-53917D01*
X67758Y-53872D01*
X67758Y-53838D01*
X67747Y-53793D01*
X67736Y-53771D01*
X67713Y-53748D01*
X67679Y-53737D01*
X67657Y-53737D01*
X67623Y-53748D01*
X67612Y-53759D01*
X67533Y-53737D02*
X67387Y-53737D01*
X67466Y-53827D01*
X67432Y-53827D01*
X67410Y-53838D01*
X67398Y-53849D01*
X67387Y-53872D01*
X67387Y-53928D01*
X67398Y-53951D01*
X67410Y-53962D01*
X67432Y-53973D01*
X67500Y-53973D01*
X67522Y-53962D01*
X67533Y-53951D01*
X67185Y-53737D02*
X67230Y-53737D01*
X67252Y-53748D01*
X67263Y-53759D01*
X67286Y-53793D01*
X67297Y-53838D01*
X67297Y-53928D01*
X67286Y-53951D01*
X67275Y-53962D01*
X67252Y-53973D01*
X67207Y-53973D01*
X67185Y-53962D01*
X67173Y-53951D01*
X67162Y-53928D01*
X67162Y-53872D01*
X67173Y-53849D01*
X67185Y-53838D01*
X67207Y-53827D01*
X67252Y-53827D01*
X67275Y-53838D01*
X67286Y-53849D01*
X67297Y-53872D01*
X66647Y-53380D02*
X66659Y-53391D01*
X66692Y-53402D01*
X66715Y-53402D01*
X66749Y-53391D01*
X66771Y-53368D01*
X66782Y-53346D01*
X66794Y-53301D01*
X66794Y-53267D01*
X66782Y-53222D01*
X66771Y-53200D01*
X66749Y-53177D01*
X66715Y-53166D01*
X66692Y-53166D01*
X66659Y-53177D01*
X66647Y-53188D01*
X66569Y-53166D02*
X66422Y-53166D01*
X66501Y-53256D01*
X66467Y-53256D01*
X66445Y-53267D01*
X66434Y-53278D01*
X66422Y-53301D01*
X66422Y-53357D01*
X66434Y-53380D01*
X66445Y-53391D01*
X66467Y-53402D01*
X66535Y-53402D01*
X66557Y-53391D01*
X66569Y-53380D01*
X66287Y-53267D02*
X66310Y-53256D01*
X66321Y-53245D01*
X66332Y-53222D01*
X66332Y-53211D01*
X66321Y-53188D01*
X66310Y-53177D01*
X66287Y-53166D01*
X66242Y-53166D01*
X66220Y-53177D01*
X66209Y-53188D01*
X66197Y-53211D01*
X66197Y-53222D01*
X66209Y-53245D01*
X66220Y-53256D01*
X66242Y-53267D01*
X66287Y-53267D01*
X66310Y-53278D01*
X66321Y-53290D01*
X66332Y-53312D01*
X66332Y-53357D01*
X66321Y-53380D01*
X66310Y-53391D01*
X66287Y-53402D01*
X66242Y-53402D01*
X66220Y-53391D01*
X66209Y-53380D01*
X66197Y-53357D01*
X66197Y-53312D01*
X66209Y-53290D01*
X66220Y-53278D01*
X66242Y-53267D01*
X71214Y-50419D02*
X71226Y-50407D01*
X71237Y-50374D01*
X71237Y-50351D01*
X71226Y-50317D01*
X71203Y-50295D01*
X71181Y-50284D01*
X71136Y-50272D01*
X71102Y-50272D01*
X71057Y-50284D01*
X71034Y-50295D01*
X71012Y-50317D01*
X71001Y-50351D01*
X71001Y-50374D01*
X71012Y-50407D01*
X71023Y-50419D01*
X71079Y-50621D02*
X71237Y-50621D01*
X70989Y-50565D02*
X71158Y-50508D01*
X71158Y-50655D01*
X71001Y-50722D02*
X71001Y-50868D01*
X71091Y-50790D01*
X71091Y-50823D01*
X71102Y-50846D01*
X71113Y-50857D01*
X71136Y-50868D01*
X71192Y-50868D01*
X71214Y-50857D01*
X71226Y-50846D01*
X71237Y-50823D01*
X71237Y-50756D01*
X71226Y-50733D01*
X71214Y-50722D01*
X71608Y-52033D02*
X71619Y-52021D01*
X71631Y-51988D01*
X71631Y-51965D01*
X71619Y-51931D01*
X71597Y-51909D01*
X71574Y-51898D01*
X71529Y-51886D01*
X71496Y-51886D01*
X71451Y-51898D01*
X71428Y-51909D01*
X71406Y-51931D01*
X71394Y-51965D01*
X71394Y-51988D01*
X71406Y-52021D01*
X71417Y-52033D01*
X71473Y-52235D02*
X71631Y-52235D01*
X71383Y-52179D02*
X71552Y-52123D01*
X71552Y-52269D01*
X71394Y-52404D02*
X71394Y-52426D01*
X71406Y-52449D01*
X71417Y-52460D01*
X71439Y-52471D01*
X71484Y-52483D01*
X71541Y-52483D01*
X71586Y-52471D01*
X71608Y-52460D01*
X71619Y-52449D01*
X71631Y-52426D01*
X71631Y-52404D01*
X71619Y-52381D01*
X71608Y-52370D01*
X71586Y-52359D01*
X71541Y-52348D01*
X71484Y-52348D01*
X71439Y-52359D01*
X71417Y-52370D01*
X71406Y-52381D01*
X71394Y-52404D01*
X71175Y-52100D02*
X71186Y-52111D01*
X71220Y-52123D01*
X71242Y-52123D01*
X71276Y-52111D01*
X71299Y-52089D01*
X71310Y-52066D01*
X71321Y-52021D01*
X71321Y-51988D01*
X71310Y-51943D01*
X71299Y-51920D01*
X71276Y-51898D01*
X71242Y-51886D01*
X71220Y-51886D01*
X71186Y-51898D01*
X71175Y-51909D01*
X70973Y-51965D02*
X70973Y-52123D01*
X71029Y-51875D02*
X71085Y-52044D01*
X70939Y-52044D01*
X70725Y-52123D02*
X70860Y-52123D01*
X70793Y-52123D02*
X70793Y-51886D01*
X70815Y-51920D01*
X70838Y-51943D01*
X70860Y-51954D01*
X70840Y-50269D02*
X70852Y-50281D01*
X70885Y-50292D01*
X70908Y-50292D01*
X70942Y-50281D01*
X70964Y-50258D01*
X70975Y-50236D01*
X70987Y-50191D01*
X70987Y-50157D01*
X70975Y-50112D01*
X70964Y-50089D01*
X70942Y-50067D01*
X70908Y-50056D01*
X70885Y-50056D01*
X70852Y-50067D01*
X70840Y-50078D01*
X70638Y-50056D02*
X70683Y-50056D01*
X70705Y-50067D01*
X70717Y-50078D01*
X70739Y-50112D01*
X70750Y-50157D01*
X70750Y-50247D01*
X70739Y-50269D01*
X70728Y-50281D01*
X70705Y-50292D01*
X70660Y-50292D01*
X70638Y-50281D01*
X70627Y-50269D01*
X70615Y-50247D01*
X70615Y-50191D01*
X70627Y-50168D01*
X70638Y-50157D01*
X70660Y-50146D01*
X70705Y-50146D01*
X70728Y-50157D01*
X70739Y-50168D01*
X70750Y-50191D01*
X70537Y-50056D02*
X70390Y-50056D01*
X70469Y-50146D01*
X70435Y-50146D01*
X70413Y-50157D01*
X70402Y-50168D01*
X70390Y-50191D01*
X70390Y-50247D01*
X70402Y-50269D01*
X70413Y-50281D01*
X70435Y-50292D01*
X70503Y-50292D01*
X70525Y-50281D01*
X70537Y-50269D01*
X69915Y-51029D02*
X69926Y-51017D01*
X69938Y-50984D01*
X69938Y-50961D01*
X69926Y-50928D01*
X69904Y-50905D01*
X69881Y-50894D01*
X69836Y-50883D01*
X69803Y-50883D01*
X69758Y-50894D01*
X69735Y-50905D01*
X69713Y-50928D01*
X69701Y-50961D01*
X69701Y-50984D01*
X69713Y-51017D01*
X69724Y-51029D01*
X69701Y-51231D02*
X69701Y-51186D01*
X69713Y-51164D01*
X69724Y-51152D01*
X69758Y-51130D01*
X69803Y-51119D01*
X69893Y-51119D01*
X69915Y-51130D01*
X69926Y-51141D01*
X69938Y-51164D01*
X69938Y-51209D01*
X69926Y-51231D01*
X69915Y-51242D01*
X69893Y-51254D01*
X69836Y-51254D01*
X69814Y-51242D01*
X69803Y-51231D01*
X69791Y-51209D01*
X69791Y-51164D01*
X69803Y-51141D01*
X69814Y-51130D01*
X69836Y-51119D01*
X69701Y-51467D02*
X69701Y-51355D01*
X69814Y-51344D01*
X69803Y-51355D01*
X69791Y-51377D01*
X69791Y-51434D01*
X69803Y-51456D01*
X69814Y-51467D01*
X69836Y-51479D01*
X69893Y-51479D01*
X69915Y-51467D01*
X69926Y-51456D01*
X69938Y-51434D01*
X69938Y-51377D01*
X69926Y-51355D01*
X69915Y-51344D01*
X70250Y-52938D02*
X70261Y-52927D01*
X70272Y-52893D01*
X70272Y-52871D01*
X70261Y-52837D01*
X70239Y-52814D01*
X70216Y-52803D01*
X70171Y-52792D01*
X70137Y-52792D01*
X70092Y-52803D01*
X70070Y-52814D01*
X70047Y-52837D01*
X70036Y-52871D01*
X70036Y-52893D01*
X70047Y-52927D01*
X70059Y-52938D01*
X70036Y-53152D02*
X70036Y-53039D01*
X70149Y-53028D01*
X70137Y-53039D01*
X70126Y-53062D01*
X70126Y-53118D01*
X70137Y-53141D01*
X70149Y-53152D01*
X70171Y-53163D01*
X70227Y-53163D01*
X70250Y-53152D01*
X70261Y-53141D01*
X70272Y-53118D01*
X70272Y-53062D01*
X70261Y-53039D01*
X70250Y-53028D01*
X70115Y-53366D02*
X70272Y-53366D01*
X70025Y-53309D02*
X70194Y-53253D01*
X70194Y-53399D01*
X68498Y-54226D02*
X68509Y-54237D01*
X68543Y-54249D01*
X68565Y-54249D01*
X68599Y-54237D01*
X68622Y-54215D01*
X68633Y-54192D01*
X68644Y-54147D01*
X68644Y-54114D01*
X68633Y-54069D01*
X68622Y-54046D01*
X68599Y-54024D01*
X68565Y-54012D01*
X68543Y-54012D01*
X68509Y-54024D01*
X68498Y-54035D01*
X68284Y-54012D02*
X68397Y-54012D01*
X68408Y-54125D01*
X68397Y-54114D01*
X68374Y-54102D01*
X68318Y-54102D01*
X68295Y-54114D01*
X68284Y-54125D01*
X68273Y-54147D01*
X68273Y-54204D01*
X68284Y-54226D01*
X68295Y-54237D01*
X68318Y-54249D01*
X68374Y-54249D01*
X68397Y-54237D01*
X68408Y-54226D01*
X68070Y-54012D02*
X68115Y-54012D01*
X68138Y-54024D01*
X68149Y-54035D01*
X68172Y-54069D01*
X68183Y-54114D01*
X68183Y-54204D01*
X68172Y-54226D01*
X68160Y-54237D01*
X68138Y-54249D01*
X68093Y-54249D01*
X68070Y-54237D01*
X68059Y-54226D01*
X68048Y-54204D01*
X68048Y-54147D01*
X68059Y-54125D01*
X68070Y-54114D01*
X68093Y-54102D01*
X68138Y-54102D01*
X68160Y-54114D01*
X68172Y-54125D01*
X68183Y-54147D01*
X67159Y-54966D02*
X67170Y-54955D01*
X67182Y-54921D01*
X67182Y-54898D01*
X67170Y-54865D01*
X67148Y-54842D01*
X67125Y-54831D01*
X67080Y-54820D01*
X67047Y-54820D01*
X67002Y-54831D01*
X66979Y-54842D01*
X66957Y-54865D01*
X66946Y-54898D01*
X66946Y-54921D01*
X66957Y-54955D01*
X66968Y-54966D01*
X66946Y-55168D02*
X66946Y-55123D01*
X66957Y-55101D01*
X66968Y-55089D01*
X67002Y-55067D01*
X67047Y-55056D01*
X67137Y-55056D01*
X67159Y-55067D01*
X67170Y-55078D01*
X67182Y-55101D01*
X67182Y-55146D01*
X67170Y-55168D01*
X67159Y-55179D01*
X67137Y-55191D01*
X67080Y-55191D01*
X67058Y-55179D01*
X67047Y-55168D01*
X67035Y-55146D01*
X67035Y-55101D01*
X67047Y-55078D01*
X67058Y-55067D01*
X67080Y-55056D01*
X67182Y-55416D02*
X67182Y-55281D01*
X67182Y-55348D02*
X66946Y-55348D01*
X66979Y-55326D01*
X67002Y-55303D01*
X67013Y-55281D01*
X66608Y-50663D02*
X66619Y-50674D01*
X66653Y-50686D01*
X66676Y-50686D01*
X66709Y-50674D01*
X66732Y-50652D01*
X66743Y-50629D01*
X66754Y-50584D01*
X66754Y-50551D01*
X66743Y-50506D01*
X66732Y-50483D01*
X66709Y-50461D01*
X66676Y-50449D01*
X66653Y-50449D01*
X66619Y-50461D01*
X66608Y-50472D01*
X66406Y-50528D02*
X66406Y-50686D01*
X66462Y-50438D02*
X66518Y-50607D01*
X66372Y-50607D01*
X66181Y-50449D02*
X66226Y-50449D01*
X66248Y-50461D01*
X66259Y-50472D01*
X66282Y-50506D01*
X66293Y-50551D01*
X66293Y-50641D01*
X66282Y-50663D01*
X66271Y-50674D01*
X66248Y-50686D01*
X66203Y-50686D01*
X66181Y-50674D01*
X66169Y-50663D01*
X66158Y-50641D01*
X66158Y-50584D01*
X66169Y-50562D01*
X66181Y-50551D01*
X66203Y-50539D01*
X66248Y-50539D01*
X66271Y-50551D01*
X66282Y-50562D01*
X66293Y-50584D01*
X67277Y-50348D02*
X67289Y-50359D01*
X67322Y-50371D01*
X67345Y-50371D01*
X67379Y-50359D01*
X67401Y-50337D01*
X67412Y-50314D01*
X67424Y-50269D01*
X67424Y-50236D01*
X67412Y-50191D01*
X67401Y-50168D01*
X67379Y-50146D01*
X67345Y-50134D01*
X67322Y-50134D01*
X67289Y-50146D01*
X67277Y-50157D01*
X67075Y-50213D02*
X67075Y-50371D01*
X67131Y-50123D02*
X67187Y-50292D01*
X67041Y-50292D01*
X66917Y-50236D02*
X66940Y-50224D01*
X66951Y-50213D01*
X66962Y-50191D01*
X66962Y-50179D01*
X66951Y-50157D01*
X66940Y-50146D01*
X66917Y-50134D01*
X66872Y-50134D01*
X66850Y-50146D01*
X66839Y-50157D01*
X66827Y-50179D01*
X66827Y-50191D01*
X66839Y-50213D01*
X66850Y-50224D01*
X66872Y-50236D01*
X66917Y-50236D01*
X66940Y-50247D01*
X66951Y-50258D01*
X66962Y-50281D01*
X66962Y-50326D01*
X66951Y-50348D01*
X66940Y-50359D01*
X66917Y-50371D01*
X66872Y-50371D01*
X66850Y-50359D01*
X66839Y-50348D01*
X66827Y-50326D01*
X66827Y-50281D01*
X66839Y-50258D01*
X66850Y-50247D01*
X66872Y-50236D01*
X69836Y-49049D02*
X69848Y-49060D01*
X69881Y-49071D01*
X69904Y-49071D01*
X69938Y-49060D01*
X69960Y-49038D01*
X69971Y-49015D01*
X69983Y-48970D01*
X69983Y-48937D01*
X69971Y-48892D01*
X69960Y-48869D01*
X69938Y-48847D01*
X69904Y-48835D01*
X69881Y-48835D01*
X69848Y-48847D01*
X69836Y-48858D01*
X69623Y-48835D02*
X69735Y-48835D01*
X69746Y-48948D01*
X69735Y-48937D01*
X69713Y-48925D01*
X69656Y-48925D01*
X69634Y-48937D01*
X69623Y-48948D01*
X69611Y-48970D01*
X69611Y-49026D01*
X69623Y-49049D01*
X69634Y-49060D01*
X69656Y-49071D01*
X69713Y-49071D01*
X69735Y-49060D01*
X69746Y-49049D01*
X69465Y-48835D02*
X69443Y-48835D01*
X69420Y-48847D01*
X69409Y-48858D01*
X69398Y-48880D01*
X69386Y-48925D01*
X69386Y-48982D01*
X69398Y-49026D01*
X69409Y-49049D01*
X69420Y-49060D01*
X69443Y-49071D01*
X69465Y-49071D01*
X69488Y-49060D01*
X69499Y-49049D01*
X69510Y-49026D01*
X69521Y-48982D01*
X69521Y-48925D01*
X69510Y-48880D01*
X69499Y-48858D01*
X69488Y-48847D01*
X69465Y-48835D01*
X68242Y-53419D02*
X68253Y-53430D01*
X68287Y-53442D01*
X68309Y-53442D01*
X68343Y-53430D01*
X68366Y-53408D01*
X68377Y-53385D01*
X68388Y-53340D01*
X68388Y-53307D01*
X68377Y-53262D01*
X68366Y-53239D01*
X68343Y-53217D01*
X68309Y-53205D01*
X68287Y-53205D01*
X68253Y-53217D01*
X68242Y-53228D01*
X68163Y-53205D02*
X68017Y-53205D01*
X68096Y-53295D01*
X68062Y-53295D01*
X68039Y-53307D01*
X68028Y-53318D01*
X68017Y-53340D01*
X68017Y-53397D01*
X68028Y-53419D01*
X68039Y-53430D01*
X68062Y-53442D01*
X68129Y-53442D01*
X68152Y-53430D01*
X68163Y-53419D01*
X67938Y-53205D02*
X67781Y-53205D01*
X67882Y-53442D01*
X69403Y-53951D02*
X69415Y-53962D01*
X69448Y-53973D01*
X69471Y-53973D01*
X69505Y-53962D01*
X69527Y-53939D01*
X69538Y-53917D01*
X69550Y-53872D01*
X69550Y-53838D01*
X69538Y-53793D01*
X69527Y-53771D01*
X69505Y-53748D01*
X69471Y-53737D01*
X69448Y-53737D01*
X69415Y-53748D01*
X69403Y-53759D01*
X69190Y-53737D02*
X69302Y-53737D01*
X69313Y-53849D01*
X69302Y-53838D01*
X69280Y-53827D01*
X69223Y-53827D01*
X69201Y-53838D01*
X69190Y-53849D01*
X69178Y-53872D01*
X69178Y-53928D01*
X69190Y-53951D01*
X69201Y-53962D01*
X69223Y-53973D01*
X69280Y-53973D01*
X69302Y-53962D01*
X69313Y-53951D01*
X68953Y-53973D02*
X69088Y-53973D01*
X69021Y-53973D02*
X69021Y-53737D01*
X69043Y-53771D01*
X69066Y-53793D01*
X69088Y-53804D01*
X70191Y-49738D02*
X70202Y-49749D01*
X70236Y-49760D01*
X70258Y-49760D01*
X70292Y-49749D01*
X70314Y-49727D01*
X70326Y-49704D01*
X70337Y-49659D01*
X70337Y-49625D01*
X70326Y-49580D01*
X70314Y-49558D01*
X70292Y-49535D01*
X70258Y-49524D01*
X70236Y-49524D01*
X70202Y-49535D01*
X70191Y-49547D01*
X69977Y-49524D02*
X70089Y-49524D01*
X70101Y-49637D01*
X70089Y-49625D01*
X70067Y-49614D01*
X70011Y-49614D01*
X69988Y-49625D01*
X69977Y-49637D01*
X69966Y-49659D01*
X69966Y-49715D01*
X69977Y-49738D01*
X69988Y-49749D01*
X70011Y-49760D01*
X70067Y-49760D01*
X70089Y-49749D01*
X70101Y-49738D01*
X69887Y-49524D02*
X69730Y-49524D01*
X69831Y-49760D01*
X70368Y-50950D02*
X70379Y-50939D01*
X70390Y-50905D01*
X70390Y-50883D01*
X70379Y-50849D01*
X70357Y-50826D01*
X70334Y-50815D01*
X70289Y-50804D01*
X70255Y-50804D01*
X70210Y-50815D01*
X70188Y-50826D01*
X70165Y-50849D01*
X70154Y-50883D01*
X70154Y-50905D01*
X70165Y-50939D01*
X70177Y-50950D01*
X70233Y-51152D02*
X70390Y-51152D01*
X70143Y-51096D02*
X70312Y-51040D01*
X70312Y-51186D01*
X70177Y-51265D02*
X70165Y-51276D01*
X70154Y-51299D01*
X70154Y-51355D01*
X70165Y-51377D01*
X70177Y-51389D01*
X70199Y-51400D01*
X70222Y-51400D01*
X70255Y-51389D01*
X70390Y-51254D01*
X70390Y-51400D01*
X69758Y-52643D02*
X69769Y-52632D01*
X69780Y-52598D01*
X69780Y-52575D01*
X69769Y-52542D01*
X69746Y-52519D01*
X69724Y-52508D01*
X69679Y-52497D01*
X69645Y-52497D01*
X69600Y-52508D01*
X69578Y-52519D01*
X69555Y-52542D01*
X69544Y-52575D01*
X69544Y-52598D01*
X69555Y-52632D01*
X69566Y-52643D01*
X69544Y-52722D02*
X69544Y-52868D01*
X69634Y-52789D01*
X69634Y-52823D01*
X69645Y-52845D01*
X69656Y-52857D01*
X69679Y-52868D01*
X69735Y-52868D01*
X69758Y-52857D01*
X69769Y-52845D01*
X69780Y-52823D01*
X69780Y-52755D01*
X69769Y-52733D01*
X69758Y-52722D01*
X69780Y-52980D02*
X69780Y-53025D01*
X69769Y-53048D01*
X69758Y-53059D01*
X69724Y-53082D01*
X69679Y-53093D01*
X69589Y-53093D01*
X69566Y-53082D01*
X69555Y-53070D01*
X69544Y-53048D01*
X69544Y-53003D01*
X69555Y-52980D01*
X69566Y-52969D01*
X69589Y-52958D01*
X69645Y-52958D01*
X69668Y-52969D01*
X69679Y-52980D01*
X69690Y-53003D01*
X69690Y-53048D01*
X69679Y-53070D01*
X69668Y-53082D01*
X69645Y-53093D01*
X65939Y-50601D02*
X65950Y-50590D01*
X65961Y-50556D01*
X65961Y-50534D01*
X65950Y-50500D01*
X65928Y-50478D01*
X65905Y-50466D01*
X65860Y-50455D01*
X65826Y-50455D01*
X65781Y-50466D01*
X65759Y-50478D01*
X65736Y-50500D01*
X65725Y-50534D01*
X65725Y-50556D01*
X65736Y-50590D01*
X65748Y-50601D01*
X65748Y-50691D02*
X65736Y-50703D01*
X65725Y-50725D01*
X65725Y-50781D01*
X65736Y-50804D01*
X65748Y-50815D01*
X65770Y-50826D01*
X65793Y-50826D01*
X65826Y-50815D01*
X65961Y-50680D01*
X65961Y-50826D01*
X65725Y-50973D02*
X65725Y-50995D01*
X65736Y-51017D01*
X65748Y-51029D01*
X65770Y-51040D01*
X65815Y-51051D01*
X65871Y-51051D01*
X65916Y-51040D01*
X65939Y-51029D01*
X65950Y-51017D01*
X65961Y-50995D01*
X65961Y-50973D01*
X65950Y-50950D01*
X65939Y-50939D01*
X65916Y-50928D01*
X65871Y-50916D01*
X65815Y-50916D01*
X65770Y-50928D01*
X65748Y-50939D01*
X65736Y-50950D01*
X65725Y-50973D01*
X65804Y-51254D02*
X65961Y-51254D01*
X65714Y-51197D02*
X65883Y-51141D01*
X65883Y-51287D01*
G54D13*
X68898Y-53781D02*
X68908Y-53773D01*
X68917Y-53751D01*
X68917Y-53736D01*
X68908Y-53713D01*
X68889Y-53698D01*
X68871Y-53691D01*
X68833Y-53683D01*
X68806Y-53683D01*
X68768Y-53691D01*
X68750Y-53698D01*
X68731Y-53713D01*
X68722Y-53736D01*
X68722Y-53751D01*
X68731Y-53773D01*
X68741Y-53781D01*
X68917Y-53930D02*
X68917Y-53840D01*
X68917Y-53885D02*
X68722Y-53885D01*
X68750Y-53870D01*
X68768Y-53855D01*
X68778Y-53840D01*
X68917Y-54080D02*
X68917Y-53990D01*
X68917Y-54035D02*
X68722Y-54035D01*
X68750Y-54020D01*
X68768Y-54005D01*
X68778Y-53990D01*
X68917Y-54229D02*
X68917Y-54139D01*
X68917Y-54184D02*
X68722Y-54184D01*
X68750Y-54169D01*
X68768Y-54154D01*
X68778Y-54139D01*
G54D11*
X62900Y-52135D02*
X62900Y-52360D01*
X62915Y-52405D01*
X62945Y-52435D01*
X62990Y-52450D01*
X63020Y-52450D01*
X62585Y-52450D02*
X62765Y-52450D01*
X62675Y-52450D02*
X62675Y-52135D01*
X62705Y-52180D01*
X62735Y-52210D01*
X62765Y-52225D01*
M02*
