G04 (created by PCBNEW (2013-07-07 BZR 4022)-stable) date 19/11/2015 00:50:25*
%MOIN*%
G04 Gerber Fmt 3.4, Leading zero omitted, Abs format*
%FSLAX34Y34*%
G01*
G70*
G90*
G04 APERTURE LIST*
%ADD10C,0.00590551*%
%ADD11R,0.0393701X0.0393701*%
%ADD12R,0.0413386X0.0866142*%
%ADD13R,0.0392X0.0392*%
%ADD14R,0.0195X0.0195*%
%ADD15R,0.0354X0.0551*%
%ADD16R,0.011811X0.0275591*%
%ADD17C,0.0137795*%
%ADD18R,0.275157X0.275157*%
%ADD19R,0.0137795X0.011811*%
%ADD20R,0.011811X0.0137795*%
%ADD21R,0.0551X0.0354*%
%ADD22R,0.0259X0.014*%
%ADD23R,0.014X0.0259*%
%ADD24R,0.0606299X0.0362205*%
%ADD25R,0.011811X0.015748*%
%ADD26R,0.023622X0.015748*%
%ADD27R,0.0649X0.0299*%
%ADD28R,0.129921X0.0393701*%
%ADD29R,0.0393701X0.129921*%
%ADD30R,0.0393701X0.102362*%
%ADD31R,0.0314X0.0314*%
%ADD32R,0.0649606X0.0299213*%
%ADD33C,0.015748*%
%ADD34C,0.015748*%
%ADD35C,0.011811*%
%ADD36C,0.019685*%
%ADD37C,0.00787402*%
%ADD38C,0.00393701*%
%ADD39C,0.0314961*%
%ADD40C,0.0129921*%
%ADD41C,0.00984252*%
G04 APERTURE END LIST*
G54D10*
G54D11*
X79448Y-50905D03*
X79448Y-52086D03*
G54D12*
X80029Y-51496D03*
X78868Y-51496D03*
G54D11*
X79448Y-48385D03*
X79448Y-49566D03*
G54D12*
X80029Y-48976D03*
X78868Y-48976D03*
G54D13*
X61023Y-60629D03*
X61023Y-46062D03*
X82283Y-60629D03*
X82283Y-46062D03*
G54D11*
X79448Y-58228D03*
X79448Y-57047D03*
G54D12*
X78868Y-57637D03*
X80029Y-57637D03*
G54D11*
X79448Y-54448D03*
X79448Y-55629D03*
G54D12*
X80029Y-55039D03*
X78868Y-55039D03*
G54D14*
X67165Y-55118D03*
X66811Y-55118D03*
G54D15*
X68837Y-55846D03*
X69587Y-55846D03*
X71497Y-55846D03*
X70747Y-55846D03*
G54D16*
X70346Y-51925D03*
X70523Y-51925D03*
X70169Y-51925D03*
X69992Y-51925D03*
X69283Y-51925D03*
X69460Y-51925D03*
X69814Y-51925D03*
X69637Y-51925D03*
X68220Y-51925D03*
X68397Y-51925D03*
X68574Y-51925D03*
X68751Y-51925D03*
X69106Y-51925D03*
X68929Y-51925D03*
X68929Y-51570D03*
X69106Y-51570D03*
X68751Y-51570D03*
X68574Y-51570D03*
X68397Y-51570D03*
X68220Y-51570D03*
X69637Y-51570D03*
X69814Y-51570D03*
X69460Y-51570D03*
X69283Y-51570D03*
X69992Y-51570D03*
X70169Y-51570D03*
X70523Y-51570D03*
X70346Y-51570D03*
X68929Y-51216D03*
X69106Y-51216D03*
X68751Y-51216D03*
X68574Y-51216D03*
X68397Y-51216D03*
X68220Y-51216D03*
X69637Y-51216D03*
X69814Y-51216D03*
X69460Y-51216D03*
X69283Y-51216D03*
X69992Y-51216D03*
X70169Y-51216D03*
X70523Y-51216D03*
X70346Y-51216D03*
X70346Y-52633D03*
X70523Y-52633D03*
X70169Y-52633D03*
X69992Y-52633D03*
X69283Y-52633D03*
X69460Y-52633D03*
X69814Y-52633D03*
X69637Y-52633D03*
X68220Y-52633D03*
X68397Y-52633D03*
X68574Y-52633D03*
X68751Y-52633D03*
X69106Y-52633D03*
X68929Y-52633D03*
X68929Y-52279D03*
X69106Y-52279D03*
X68751Y-52279D03*
X68574Y-52279D03*
X68397Y-52279D03*
X68220Y-52279D03*
X69637Y-52279D03*
X69814Y-52279D03*
X69460Y-52279D03*
X69283Y-52279D03*
X69992Y-52279D03*
X70169Y-52279D03*
X70523Y-52279D03*
X70346Y-52279D03*
X70346Y-52988D03*
X70523Y-52988D03*
X70169Y-52988D03*
X69992Y-52988D03*
X69283Y-52988D03*
X69460Y-52988D03*
X69814Y-52988D03*
X69637Y-52988D03*
X68220Y-52988D03*
X68397Y-52988D03*
X68574Y-52988D03*
X68751Y-52988D03*
X69106Y-52988D03*
X68929Y-52988D03*
X68929Y-53342D03*
X69106Y-53342D03*
X68751Y-53342D03*
X68574Y-53342D03*
X68397Y-53342D03*
X68220Y-53342D03*
X69637Y-53342D03*
X69814Y-53342D03*
X69460Y-53342D03*
X69283Y-53342D03*
X69992Y-53342D03*
X70169Y-53342D03*
G54D17*
X69187Y-50774D03*
X71285Y-50774D03*
X71547Y-50774D03*
X71022Y-50774D03*
X71416Y-50642D03*
X70760Y-50774D03*
X70498Y-50774D03*
X70236Y-50774D03*
X69974Y-50774D03*
X69711Y-50774D03*
X68925Y-50774D03*
X71285Y-50511D03*
X68400Y-50774D03*
X68138Y-50774D03*
X67876Y-50774D03*
X67614Y-50774D03*
X67351Y-50774D03*
X71153Y-50642D03*
X70891Y-50642D03*
X70629Y-50642D03*
X70367Y-50642D03*
X70105Y-50642D03*
X69842Y-50642D03*
X69056Y-50642D03*
X68794Y-50642D03*
X68269Y-50642D03*
X68007Y-50642D03*
X67745Y-50642D03*
X67483Y-50642D03*
X67220Y-50642D03*
X71022Y-50511D03*
X70760Y-50511D03*
X70498Y-50511D03*
X70236Y-50511D03*
X69974Y-50511D03*
X69187Y-50511D03*
X68925Y-50511D03*
X68662Y-50511D03*
X68138Y-50511D03*
X67876Y-50511D03*
X67614Y-50511D03*
X67351Y-50511D03*
X71152Y-50380D03*
X70890Y-50380D03*
X70628Y-50380D03*
X70366Y-50380D03*
X70103Y-50380D03*
X69317Y-50380D03*
X69055Y-50380D03*
X68792Y-50380D03*
X68530Y-50380D03*
X68268Y-50380D03*
X68006Y-50380D03*
X67744Y-50380D03*
X67219Y-50380D03*
X67483Y-50118D03*
X67745Y-50118D03*
X68269Y-50118D03*
X70367Y-50118D03*
X70891Y-50118D03*
X67614Y-50249D03*
X67876Y-50249D03*
X68138Y-50249D03*
X68400Y-50249D03*
X68662Y-50249D03*
X69449Y-50249D03*
X70236Y-50249D03*
X70498Y-50249D03*
X70760Y-50249D03*
X71022Y-50249D03*
X71285Y-50249D03*
X71285Y-51560D03*
X71022Y-51560D03*
X67876Y-51560D03*
X67614Y-51560D03*
X67351Y-51560D03*
X71416Y-51429D03*
X71153Y-51429D03*
X70891Y-51429D03*
X67745Y-51429D03*
X67483Y-51429D03*
X67219Y-51691D03*
X67481Y-51691D03*
X67744Y-51691D03*
X70890Y-51691D03*
X71152Y-51691D03*
X71414Y-51691D03*
X67351Y-51822D03*
X67614Y-51822D03*
X67876Y-51822D03*
X71022Y-51822D03*
X67483Y-51953D03*
X67745Y-51953D03*
X70891Y-51953D03*
X71153Y-51953D03*
X67351Y-52085D03*
X67614Y-52085D03*
X67876Y-52085D03*
X71285Y-51822D03*
X71416Y-51953D03*
X71285Y-52085D03*
X71547Y-51822D03*
X71285Y-51298D03*
X71547Y-51298D03*
X71022Y-51298D03*
X71416Y-51167D03*
X71285Y-51036D03*
X67876Y-51298D03*
X67614Y-51298D03*
X67351Y-51298D03*
X71153Y-51167D03*
X70891Y-51167D03*
X67745Y-51167D03*
X67483Y-51167D03*
X67220Y-51167D03*
X71022Y-51036D03*
X67876Y-51036D03*
X67614Y-51036D03*
X67351Y-51036D03*
X71414Y-50905D03*
X71152Y-50905D03*
X67744Y-50905D03*
X67481Y-50905D03*
X71547Y-52347D03*
X71285Y-52347D03*
X71022Y-52347D03*
X67876Y-52347D03*
X67614Y-52347D03*
X67351Y-52347D03*
X71416Y-52216D03*
X71153Y-52216D03*
X70891Y-52216D03*
X67745Y-52216D03*
X67483Y-52216D03*
X67220Y-52216D03*
X67481Y-52478D03*
X67744Y-52478D03*
X70890Y-52478D03*
X71152Y-52478D03*
X67351Y-52609D03*
X67614Y-52609D03*
X67876Y-52609D03*
X71022Y-52609D03*
X67220Y-52740D03*
X67483Y-52740D03*
X67745Y-52740D03*
X71153Y-52740D03*
X67351Y-52871D03*
X67614Y-52871D03*
X71285Y-52609D03*
X71416Y-52740D03*
X71547Y-52871D03*
X71285Y-52871D03*
X71547Y-53396D03*
X71285Y-53658D03*
X71547Y-53658D03*
X71022Y-53658D03*
X71416Y-53527D03*
X71285Y-53396D03*
X67876Y-53658D03*
X67614Y-53658D03*
X70891Y-53527D03*
X67745Y-53527D03*
X67483Y-53527D03*
X71022Y-53396D03*
X67614Y-53396D03*
X67351Y-53396D03*
X71414Y-53264D03*
X71152Y-53264D03*
X70890Y-53264D03*
X67744Y-53264D03*
X67481Y-53264D03*
X67219Y-53264D03*
X67483Y-53002D03*
X67745Y-53002D03*
X70891Y-53002D03*
X71153Y-53002D03*
X71416Y-53002D03*
X67351Y-53133D03*
X67614Y-53133D03*
X71022Y-53133D03*
X71285Y-53133D03*
X71285Y-53920D03*
X71022Y-53920D03*
X70498Y-53920D03*
X70236Y-53920D03*
X69974Y-53920D03*
X69711Y-53920D03*
X69449Y-53920D03*
X69187Y-53920D03*
X68925Y-53920D03*
X68662Y-53920D03*
X68400Y-53920D03*
X68138Y-53920D03*
X67876Y-53920D03*
X67614Y-53920D03*
X71416Y-53789D03*
X71153Y-53789D03*
X70891Y-53789D03*
X70629Y-53789D03*
X70367Y-53789D03*
X70105Y-53789D03*
X69842Y-53789D03*
X69580Y-53789D03*
X69318Y-53789D03*
X69056Y-53789D03*
X68794Y-53789D03*
X68531Y-53789D03*
X68269Y-53789D03*
X68007Y-53789D03*
X67745Y-53789D03*
X67483Y-53789D03*
X67481Y-54051D03*
X67744Y-54051D03*
X68006Y-54051D03*
X68268Y-54051D03*
X68530Y-54051D03*
X68792Y-54051D03*
X69055Y-54051D03*
X69317Y-54051D03*
X69579Y-54051D03*
X69841Y-54051D03*
X70103Y-54051D03*
X70366Y-54051D03*
X70628Y-54051D03*
X70890Y-54051D03*
X71152Y-54051D03*
X71414Y-54051D03*
X67614Y-54182D03*
X67876Y-54182D03*
X68138Y-54182D03*
X68400Y-54182D03*
X68662Y-54182D03*
X68925Y-54182D03*
X69187Y-54182D03*
X69449Y-54182D03*
X69711Y-54182D03*
X69974Y-54182D03*
X70236Y-54182D03*
X70498Y-54182D03*
X70760Y-54182D03*
X71022Y-54182D03*
X68794Y-54313D03*
X69056Y-54313D03*
X69318Y-54313D03*
X69580Y-54313D03*
X69842Y-54313D03*
X70105Y-54313D03*
X70367Y-54313D03*
X70629Y-54313D03*
X71153Y-54313D03*
X68925Y-54444D03*
X71285Y-54182D03*
X69449Y-54444D03*
X69974Y-54444D03*
X70498Y-54444D03*
X70760Y-54444D03*
X71416Y-54313D03*
X71022Y-54444D03*
X71547Y-54182D03*
G54D18*
X69372Y-52279D03*
G54D16*
X70523Y-53342D03*
X70346Y-53342D03*
G54D19*
X66515Y-53592D03*
X66515Y-53375D03*
G54D20*
X66407Y-54153D03*
X66624Y-54153D03*
X68356Y-49389D03*
X68572Y-49389D03*
X68454Y-55118D03*
X68238Y-55118D03*
X67411Y-48779D03*
X67627Y-48779D03*
G54D19*
X72303Y-53769D03*
X72303Y-53553D03*
X68129Y-48986D03*
X68129Y-48769D03*
G54D20*
X72903Y-52814D03*
X72687Y-52814D03*
G54D19*
X72322Y-52608D03*
X72322Y-52824D03*
G54D20*
X68001Y-49389D03*
X67785Y-49389D03*
G54D19*
X68996Y-49084D03*
X68996Y-48868D03*
G54D20*
X69005Y-49389D03*
X69222Y-49389D03*
X73198Y-53208D03*
X72982Y-53208D03*
G54D21*
X73248Y-53660D03*
X73248Y-54410D03*
X73248Y-56319D03*
X73248Y-55569D03*
G54D14*
X76870Y-49074D03*
X76870Y-48720D03*
X76870Y-49448D03*
X76870Y-49802D03*
X78760Y-52933D03*
X79114Y-52933D03*
X75196Y-52972D03*
X75196Y-53326D03*
X76377Y-50846D03*
X76377Y-51200D03*
X72765Y-54793D03*
X73119Y-54793D03*
X76240Y-55492D03*
X76594Y-55492D03*
G54D19*
X68582Y-49084D03*
X68582Y-48868D03*
G54D14*
X64921Y-53110D03*
X64921Y-52756D03*
G54D19*
X68405Y-55580D03*
X68405Y-55797D03*
G54D14*
X67500Y-55078D03*
X67500Y-55432D03*
X73760Y-53641D03*
X74114Y-53641D03*
X72431Y-55167D03*
X72431Y-54813D03*
X73454Y-55167D03*
X73454Y-54813D03*
X73760Y-56318D03*
X74114Y-56318D03*
X72765Y-55187D03*
X73119Y-55187D03*
X67165Y-55433D03*
X66811Y-55433D03*
X70354Y-55413D03*
X70354Y-55767D03*
X69980Y-55413D03*
X69980Y-55767D03*
X69990Y-56062D03*
X70344Y-56062D03*
X69990Y-55118D03*
X70344Y-55118D03*
X73760Y-57244D03*
X74114Y-57244D03*
X72008Y-55984D03*
X72362Y-55984D03*
X68838Y-56456D03*
X68838Y-56810D03*
G54D20*
X72312Y-53208D03*
X72529Y-53208D03*
G54D22*
X70708Y-55406D03*
X70708Y-55066D03*
G54D23*
X72778Y-55521D03*
X72438Y-55521D03*
X72778Y-54458D03*
X72438Y-54458D03*
G54D22*
X69625Y-55406D03*
X69625Y-55066D03*
G54D14*
X76929Y-50354D03*
X77283Y-50354D03*
G54D24*
X76515Y-53307D03*
G54D25*
X76614Y-53877D03*
X76614Y-52736D03*
G54D26*
X77165Y-52933D03*
X77165Y-53307D03*
X77165Y-53681D03*
X76062Y-53681D03*
X76062Y-53307D03*
X76062Y-52933D03*
G54D14*
X76929Y-50708D03*
X77283Y-50708D03*
G54D27*
X75211Y-51791D03*
X73960Y-52291D03*
X73960Y-51791D03*
X73960Y-51291D03*
X75211Y-51291D03*
X75211Y-52291D03*
G54D14*
X64921Y-51929D03*
X64921Y-52283D03*
X64606Y-53110D03*
X64606Y-52756D03*
X64586Y-55826D03*
X64586Y-55472D03*
X64074Y-55826D03*
X64074Y-55472D03*
X63740Y-55826D03*
X63740Y-55472D03*
G54D28*
X71811Y-58326D03*
X71811Y-48287D03*
X77362Y-58326D03*
G54D29*
X77814Y-57874D03*
G54D28*
X66259Y-58326D03*
G54D29*
X65807Y-57874D03*
X77814Y-48740D03*
G54D28*
X77362Y-48287D03*
X66259Y-48287D03*
G54D29*
X65807Y-48740D03*
G54D28*
X74586Y-48287D03*
X69035Y-48287D03*
X69035Y-58326D03*
G54D30*
X65807Y-51830D03*
X65807Y-54783D03*
X77814Y-51830D03*
X77814Y-54783D03*
G54D28*
X74586Y-58326D03*
G54D14*
X63877Y-56358D03*
X63877Y-56712D03*
G54D31*
X64507Y-57755D03*
X63877Y-57755D03*
G54D32*
X74167Y-55490D03*
X74167Y-54490D03*
X75419Y-55490D03*
X75419Y-54490D03*
X75419Y-54990D03*
X74167Y-54990D03*
X71066Y-57586D03*
X71066Y-56586D03*
X72318Y-57586D03*
X72318Y-56586D03*
X72318Y-57086D03*
X71066Y-57086D03*
X74767Y-50047D03*
X74767Y-49047D03*
X76019Y-50047D03*
X76019Y-49047D03*
X76019Y-49547D03*
X74767Y-49547D03*
G54D14*
X72756Y-49192D03*
X73110Y-49192D03*
X72756Y-48877D03*
X73110Y-48877D03*
G54D22*
X72381Y-49205D03*
X72381Y-48865D03*
X73484Y-49205D03*
X73484Y-48865D03*
G54D14*
X79055Y-53602D03*
X79055Y-53956D03*
X78720Y-53602D03*
X78720Y-53956D03*
G54D22*
X79448Y-53260D03*
X79448Y-52920D03*
G54D33*
X69625Y-48818D03*
X68582Y-48681D03*
X67874Y-48779D03*
X69212Y-48858D03*
X71830Y-50669D03*
X71929Y-52165D03*
X71023Y-55196D03*
X71712Y-52027D03*
X72529Y-53759D03*
X68110Y-55629D03*
X67893Y-55629D03*
X70413Y-49409D03*
X74074Y-53208D03*
X63464Y-55511D03*
X64330Y-55511D03*
X65196Y-55511D03*
X68405Y-56240D03*
X73759Y-53897D03*
X71791Y-55984D03*
X73759Y-56062D03*
X68838Y-56240D03*
X69625Y-49153D03*
X71417Y-55374D03*
X67913Y-49724D03*
X72401Y-50964D03*
X73129Y-52814D03*
X75826Y-56299D03*
X78503Y-50570D03*
X78366Y-53602D03*
X77165Y-53917D03*
X76870Y-51653D03*
X77165Y-48838D03*
X65196Y-55826D03*
X64330Y-55826D03*
X63464Y-55826D03*
G54D17*
X70890Y-53264D03*
X69580Y-54313D03*
X70629Y-53789D03*
X68662Y-50249D03*
X67745Y-52216D03*
G54D33*
X63267Y-53858D03*
X63464Y-51496D03*
G54D17*
X67614Y-51036D03*
G54D33*
X63267Y-51338D03*
G54D17*
X67745Y-51167D03*
G54D33*
X63267Y-51023D03*
G54D17*
X67744Y-51691D03*
G54D33*
X63464Y-52125D03*
G54D17*
X67481Y-51691D03*
G54D33*
X65196Y-51023D03*
X66850Y-50984D03*
G54D17*
X67614Y-51298D03*
G54D33*
X63267Y-51653D03*
X63464Y-51811D03*
G54D17*
X67745Y-51429D03*
G54D33*
X63464Y-51181D03*
G54D17*
X67876Y-51560D03*
G54D33*
X66574Y-51200D03*
X64370Y-51181D03*
X65196Y-51338D03*
X66653Y-51417D03*
G54D17*
X67614Y-51560D03*
G54D33*
X63267Y-51968D03*
X66811Y-51574D03*
X64370Y-51496D03*
X63267Y-53228D03*
G54D17*
X67745Y-53527D03*
G54D33*
X64370Y-53385D03*
G54D17*
X67614Y-53396D03*
G54D33*
X63267Y-52283D03*
G54D17*
X67745Y-52740D03*
G54D33*
X63464Y-52440D03*
G54D17*
X67483Y-52740D03*
X67744Y-53264D03*
G54D33*
X63464Y-53385D03*
G54D17*
X67481Y-53264D03*
G54D33*
X65196Y-53228D03*
X63267Y-52913D03*
G54D17*
X67614Y-53133D03*
G54D33*
X63464Y-53070D03*
X66751Y-53799D03*
X63464Y-52755D03*
G54D17*
X67745Y-53002D03*
G54D33*
X66988Y-53031D03*
X64370Y-53070D03*
X63267Y-52598D03*
G54D17*
X67614Y-52871D03*
G54D33*
X65196Y-52913D03*
X66751Y-53031D03*
X66988Y-51988D03*
X65196Y-51968D03*
X66515Y-52795D03*
X65196Y-52598D03*
X66811Y-51889D03*
X64370Y-51811D03*
X64370Y-52440D03*
G54D17*
X67876Y-52609D03*
G54D33*
X63464Y-54330D03*
X67500Y-55688D03*
X65393Y-54803D03*
X67165Y-55728D03*
X66811Y-55728D03*
X63267Y-54488D03*
X63267Y-54173D03*
X66535Y-55118D03*
X75039Y-56220D03*
X75255Y-56437D03*
X76181Y-56299D03*
X74763Y-56555D03*
X78503Y-51771D03*
X78503Y-51220D03*
X78503Y-51496D03*
X78503Y-50925D03*
X78720Y-54192D03*
X78090Y-53602D03*
X78503Y-54527D03*
X76003Y-51791D03*
X73562Y-49625D03*
X73917Y-50059D03*
X74370Y-50413D03*
X75570Y-49547D03*
X75216Y-49547D03*
X76023Y-48759D03*
X71515Y-57086D03*
X71870Y-57086D03*
X72775Y-57086D03*
X71870Y-56594D03*
X72775Y-56594D03*
X74960Y-54488D03*
X75885Y-54488D03*
X75885Y-55000D03*
X74960Y-55000D03*
X74625Y-55000D03*
X64783Y-57342D03*
X64330Y-50866D03*
X63877Y-57342D03*
X63464Y-56062D03*
X65196Y-55275D03*
X65196Y-56535D03*
X64330Y-56535D03*
X63464Y-56535D03*
X63464Y-57086D03*
X63464Y-56771D03*
X64330Y-57086D03*
X64330Y-56771D03*
X65196Y-56771D03*
X65196Y-57086D03*
X65196Y-56062D03*
X65196Y-55039D03*
X63464Y-55275D03*
X63464Y-55039D03*
X63464Y-54724D03*
X63464Y-50866D03*
X64330Y-50393D03*
X63464Y-50393D03*
X64783Y-49271D03*
X63877Y-49271D03*
X64330Y-50157D03*
X63464Y-50157D03*
X65196Y-49842D03*
X63464Y-49842D03*
X64330Y-49842D03*
X63464Y-49527D03*
X64330Y-49527D03*
X65196Y-49527D03*
X67460Y-56062D03*
X66141Y-52421D03*
X71791Y-55334D03*
X66122Y-57874D03*
X65492Y-57874D03*
X66830Y-58011D03*
X66456Y-58011D03*
X69606Y-58011D03*
X68464Y-58011D03*
X69035Y-58011D03*
X72578Y-58129D03*
X71003Y-58129D03*
X75157Y-58011D03*
X74015Y-58011D03*
X74586Y-58011D03*
X77500Y-57598D03*
X76791Y-58011D03*
X77362Y-58011D03*
X77500Y-54783D03*
X78129Y-54783D03*
X77814Y-51200D03*
X78129Y-51830D03*
X77500Y-51830D03*
X78129Y-48976D03*
X78129Y-48622D03*
X73818Y-48464D03*
X72578Y-48464D03*
X71043Y-48464D03*
X66456Y-48602D03*
X65492Y-48740D03*
X66122Y-48740D03*
X78503Y-49330D03*
X78503Y-48622D03*
X79133Y-48444D03*
X79763Y-48444D03*
X78503Y-48976D03*
X79330Y-53503D03*
X79842Y-50905D03*
X79448Y-50551D03*
X79192Y-54803D03*
X78503Y-54803D03*
X78503Y-55295D03*
X78503Y-55039D03*
X79566Y-56259D03*
X78503Y-57283D03*
X78503Y-57992D03*
X79881Y-58188D03*
X78858Y-58188D03*
X79133Y-58188D03*
X78503Y-57637D03*
X68838Y-57047D03*
X72598Y-55984D03*
X77539Y-50708D03*
X76850Y-52696D03*
X76318Y-54291D03*
X75807Y-53307D03*
X76614Y-52972D03*
X76614Y-53641D03*
X76515Y-53307D03*
X77539Y-50354D03*
X76614Y-49783D03*
X76614Y-48641D03*
X76515Y-49448D03*
X76614Y-49114D03*
X66535Y-55433D03*
X65807Y-49507D03*
X65807Y-57106D03*
X65807Y-55413D03*
X65807Y-54153D03*
X65807Y-52460D03*
X66515Y-53799D03*
X66181Y-54153D03*
X74350Y-53641D03*
X74360Y-56328D03*
X75531Y-52716D03*
X74980Y-50925D03*
X74724Y-51791D03*
X75216Y-50925D03*
X67185Y-49389D03*
X69389Y-49153D03*
X68523Y-49744D03*
X67204Y-48661D03*
G54D17*
X69974Y-50511D03*
G54D33*
X69763Y-51062D03*
X69763Y-51338D03*
X69488Y-51338D03*
X70039Y-51062D03*
X70314Y-51614D03*
X70314Y-52165D03*
X70039Y-52716D03*
X70314Y-52992D03*
X70039Y-52992D03*
X69763Y-52992D03*
X69232Y-52992D03*
X68700Y-52992D03*
X68149Y-52992D03*
X68700Y-52165D03*
X68425Y-51062D03*
X68700Y-51614D03*
X68700Y-51338D03*
X68700Y-51062D03*
X69232Y-51062D03*
X68956Y-51062D03*
X69488Y-51062D03*
X68956Y-51338D03*
X69232Y-51338D03*
X68425Y-51338D03*
X70039Y-51338D03*
X70314Y-51338D03*
X70590Y-51338D03*
X70590Y-51614D03*
X70039Y-51614D03*
X69763Y-51614D03*
X68425Y-51614D03*
X69232Y-51614D03*
X68956Y-51614D03*
X69488Y-51614D03*
X69488Y-52165D03*
X68956Y-52165D03*
X69232Y-52165D03*
X68425Y-52165D03*
X69763Y-52165D03*
X70039Y-52165D03*
X70590Y-52165D03*
X70590Y-51889D03*
X70314Y-51889D03*
X70039Y-51889D03*
X69763Y-51889D03*
X68425Y-51889D03*
X68700Y-51889D03*
X69232Y-51889D03*
X68956Y-51889D03*
X69488Y-51889D03*
X69488Y-52992D03*
X68956Y-52992D03*
X68425Y-52992D03*
X70039Y-53267D03*
X69763Y-53267D03*
X68149Y-53267D03*
X68425Y-53267D03*
X68700Y-53267D03*
X69232Y-53267D03*
X68956Y-53267D03*
X69488Y-53267D03*
X69488Y-52716D03*
X68956Y-52716D03*
X69232Y-52716D03*
X68700Y-52716D03*
X68425Y-52716D03*
X69763Y-52716D03*
X70314Y-52716D03*
X70314Y-52440D03*
X70039Y-52440D03*
X69763Y-52440D03*
X68149Y-52440D03*
X68425Y-52440D03*
X68700Y-52440D03*
X69232Y-52440D03*
X68956Y-52440D03*
X69488Y-52440D03*
X72322Y-52401D03*
X71811Y-51338D03*
G54D17*
X70760Y-54182D03*
G54D33*
X71791Y-54133D03*
G54D17*
X70891Y-53789D03*
G54D33*
X68228Y-54881D03*
G54D17*
X68662Y-54182D03*
X69056Y-54313D03*
G54D33*
X71968Y-53976D03*
X69015Y-54724D03*
X69114Y-55000D03*
X69822Y-54842D03*
X71870Y-53070D03*
G54D17*
X71416Y-53527D03*
X71285Y-53133D03*
X71285Y-52871D03*
X70760Y-50774D03*
X70105Y-50642D03*
X69187Y-50774D03*
X69056Y-50642D03*
X68792Y-50380D03*
X68400Y-50249D03*
G54D33*
X67913Y-49940D03*
G54D17*
X68400Y-53920D03*
X67351Y-53396D03*
X67483Y-51167D03*
X67614Y-51822D03*
X67876Y-52085D03*
G54D33*
X67224Y-53779D03*
G54D17*
X67745Y-51953D03*
G54D33*
X64330Y-55275D03*
X77401Y-49448D03*
X65196Y-54015D03*
X77460Y-53307D03*
X65452Y-54015D03*
X63464Y-53700D03*
X66653Y-51712D03*
X65196Y-51653D03*
X66515Y-53031D03*
X64370Y-52755D03*
G54D17*
X71022Y-50249D03*
G54D33*
X79724Y-49921D03*
G54D17*
X70760Y-50249D03*
X70628Y-50380D03*
X70891Y-50118D03*
X69187Y-50511D03*
X71153Y-51429D03*
X69449Y-54444D03*
X69317Y-50380D03*
X69449Y-50249D03*
X68268Y-50380D03*
X68794Y-50642D03*
G54D33*
X70590Y-54744D03*
G54D17*
X68925Y-53920D03*
X69579Y-54051D03*
X68925Y-54182D03*
G54D33*
X72027Y-55590D03*
G54D17*
X71416Y-51167D03*
X70891Y-51167D03*
X68400Y-50774D03*
X70890Y-54051D03*
X69187Y-53920D03*
G54D33*
X68740Y-55000D03*
X68110Y-56574D03*
G54D17*
X69056Y-53789D03*
G54D33*
X66889Y-52460D03*
X66968Y-53996D03*
G54D17*
X67744Y-50905D03*
X67614Y-52085D03*
X71153Y-51167D03*
X70891Y-51429D03*
X71022Y-51036D03*
X71022Y-53658D03*
X68531Y-53789D03*
X68400Y-54182D03*
X67614Y-52609D03*
G54D33*
X66299Y-53366D03*
X66771Y-50433D03*
G54D17*
X67876Y-51298D03*
X67876Y-51822D03*
X71153Y-52740D03*
X71022Y-53396D03*
X71285Y-53658D03*
X71153Y-53002D03*
X71285Y-53396D03*
G54D33*
X72736Y-53208D03*
G54D17*
X71022Y-53133D03*
X68007Y-53789D03*
X67745Y-53789D03*
G54D33*
X79822Y-53503D03*
G54D17*
X68268Y-54051D03*
G54D33*
X79055Y-56259D03*
X79566Y-53503D03*
G54D17*
X68138Y-54182D03*
G54D33*
X79311Y-56259D03*
X71791Y-54389D03*
G54D17*
X69318Y-53789D03*
G54D33*
X63464Y-54015D03*
G54D17*
X68138Y-53920D03*
X68530Y-50380D03*
G54D33*
X65196Y-50236D03*
X65413Y-53346D03*
G54D17*
X67483Y-52216D03*
G54D33*
X64370Y-52125D03*
G54D17*
X67614Y-52347D03*
G54D33*
X65196Y-52283D03*
X65196Y-54488D03*
G54D17*
X71022Y-53920D03*
G54D33*
X63267Y-53543D03*
X67342Y-54409D03*
G54D17*
X67876Y-52347D03*
G54D34*
X68582Y-48681D02*
X68582Y-48868D01*
G54D35*
X69202Y-48868D02*
X69212Y-48858D01*
X68996Y-48868D02*
X69202Y-48868D01*
G54D34*
X67874Y-48779D02*
X68120Y-48779D01*
X68120Y-48779D02*
X68129Y-48769D01*
X67627Y-48779D02*
X67874Y-48779D01*
X72303Y-53769D02*
X72519Y-53769D01*
X72519Y-53769D02*
X72529Y-53759D01*
X72529Y-53759D02*
X72539Y-53759D01*
G54D36*
X67893Y-55629D02*
X68011Y-55629D01*
X68011Y-55629D02*
X68110Y-55629D01*
G54D34*
X73198Y-53208D02*
X74074Y-53208D01*
X68405Y-56240D02*
X68405Y-55797D01*
X73760Y-53897D02*
X73759Y-53897D01*
X73760Y-53897D02*
X73760Y-53641D01*
X73760Y-56063D02*
X73759Y-56062D01*
X73760Y-56318D02*
X73760Y-56063D01*
X68838Y-56240D02*
X68838Y-55847D01*
X68838Y-55847D02*
X68837Y-55846D01*
X68838Y-56456D02*
X68838Y-56240D01*
X71791Y-55984D02*
X71634Y-55984D01*
X71634Y-55984D02*
X71497Y-55846D01*
X72008Y-55984D02*
X71791Y-55984D01*
X73248Y-53640D02*
X73759Y-53640D01*
G54D37*
X73759Y-53640D02*
X73760Y-53641D01*
G54D34*
X73760Y-56318D02*
X73602Y-56318D01*
X73602Y-56318D02*
X73249Y-56318D01*
X73249Y-56318D02*
X73248Y-56319D01*
G54D35*
X72903Y-52814D02*
X73129Y-52814D01*
G54D34*
X68838Y-55906D02*
X68837Y-55905D01*
X78720Y-53602D02*
X78366Y-53602D01*
X78366Y-53602D02*
X78366Y-53602D01*
X79055Y-53602D02*
X78720Y-53602D01*
X79448Y-53260D02*
X79219Y-53260D01*
X79055Y-53425D02*
X79055Y-53602D01*
X79219Y-53260D02*
X79055Y-53425D01*
X78366Y-53602D02*
X78366Y-53602D01*
X77165Y-53917D02*
X77165Y-53681D01*
X76870Y-49448D02*
X76870Y-49074D01*
X76870Y-49074D02*
X77165Y-49074D01*
X77165Y-49074D02*
X77165Y-48838D01*
X77165Y-49074D02*
X77165Y-49074D01*
G54D37*
X63877Y-56358D02*
X64074Y-56358D01*
X64330Y-56102D02*
X64330Y-55826D01*
X64074Y-56358D02*
X64330Y-56102D01*
X64921Y-53110D02*
X64921Y-55551D01*
X64921Y-55551D02*
X65196Y-55826D01*
X64606Y-53110D02*
X64921Y-53110D01*
X64330Y-55826D02*
X64586Y-55826D01*
G54D10*
X64586Y-55826D02*
X64586Y-55826D01*
G54D37*
X63464Y-55826D02*
X63739Y-55826D01*
X63739Y-55826D02*
X63740Y-55826D01*
G54D10*
X64074Y-55472D02*
X64074Y-54311D01*
X63622Y-53858D02*
X63267Y-53858D01*
X64074Y-54311D02*
X63622Y-53858D01*
G54D38*
X67210Y-51167D02*
X67220Y-51167D01*
X67210Y-51167D02*
X67027Y-50984D01*
X67027Y-50984D02*
X66850Y-50984D01*
X67026Y-51298D02*
X66929Y-51200D01*
X66929Y-51200D02*
X66574Y-51200D01*
X67038Y-51298D02*
X67026Y-51298D01*
X67351Y-51298D02*
X67038Y-51298D01*
X67038Y-51298D02*
X67037Y-51299D01*
X66665Y-51429D02*
X67483Y-51429D01*
X66665Y-51429D02*
X66653Y-51417D01*
X67351Y-51560D02*
X66825Y-51560D01*
X66825Y-51560D02*
X66811Y-51574D01*
X66748Y-53736D02*
X67219Y-53264D01*
X66748Y-53795D02*
X66751Y-53799D01*
X66748Y-53736D02*
X66748Y-53795D01*
X67483Y-53002D02*
X67016Y-53002D01*
X67016Y-53002D02*
X66988Y-53031D01*
X67016Y-53002D02*
X66988Y-53031D01*
X66911Y-52871D02*
X66751Y-53031D01*
X67351Y-52871D02*
X66911Y-52871D01*
X67483Y-51953D02*
X67022Y-51953D01*
X67022Y-51953D02*
X66988Y-51988D01*
X67351Y-52609D02*
X66701Y-52609D01*
X66701Y-52609D02*
X66515Y-52795D01*
X66877Y-51822D02*
X66811Y-51889D01*
X67351Y-51822D02*
X66877Y-51822D01*
G54D37*
X67500Y-55688D02*
X67500Y-55432D01*
X66811Y-55118D02*
X66535Y-55118D01*
G54D34*
X78868Y-51771D02*
X78503Y-51771D01*
X78868Y-51220D02*
X78503Y-51220D01*
X78868Y-51496D02*
X78503Y-51496D01*
X78720Y-53956D02*
X78720Y-54192D01*
X79055Y-53956D02*
X78720Y-53956D01*
X76018Y-49547D02*
X75571Y-49547D01*
X75571Y-49547D02*
X75570Y-49547D01*
X74767Y-49547D02*
X75216Y-49547D01*
X75216Y-49547D02*
X75216Y-49547D01*
X76018Y-49047D02*
X76018Y-48764D01*
X76018Y-48764D02*
X76023Y-48759D01*
X71066Y-57087D02*
X71515Y-57087D01*
X71515Y-57087D02*
X71515Y-57086D01*
X72317Y-57087D02*
X71870Y-57087D01*
X71870Y-57087D02*
X71870Y-57086D01*
X72317Y-57087D02*
X72775Y-57087D01*
X72775Y-57087D02*
X72775Y-57086D01*
X72317Y-56587D02*
X71877Y-56587D01*
X71877Y-56587D02*
X71870Y-56594D01*
X72317Y-56587D02*
X72768Y-56587D01*
X72768Y-56587D02*
X72775Y-56594D01*
X75418Y-54490D02*
X74963Y-54490D01*
X74963Y-54490D02*
X74960Y-54488D01*
X75418Y-54490D02*
X75883Y-54490D01*
X75883Y-54490D02*
X75885Y-54488D01*
X75418Y-54990D02*
X75876Y-54990D01*
X75876Y-54990D02*
X75885Y-55000D01*
X75418Y-54990D02*
X74970Y-54990D01*
X74970Y-54990D02*
X74960Y-55000D01*
X75300Y-54552D02*
X75295Y-54547D01*
X74167Y-54990D02*
X74616Y-54990D01*
X74616Y-54990D02*
X74625Y-55000D01*
X64783Y-57342D02*
X64783Y-57480D01*
X64783Y-57480D02*
X64507Y-57755D01*
G54D37*
X64921Y-51929D02*
X64921Y-51338D01*
X64783Y-51200D02*
X64448Y-50866D01*
X64448Y-50866D02*
X64330Y-50866D01*
X64921Y-51338D02*
X64783Y-51200D01*
X63464Y-56062D02*
X63996Y-56062D01*
X64074Y-55984D02*
X64074Y-55826D01*
X63996Y-56062D02*
X64074Y-55984D01*
G54D34*
X77814Y-48740D02*
X77814Y-48287D01*
X77814Y-48287D02*
X77362Y-48287D01*
X66122Y-57874D02*
X65807Y-57874D01*
X65492Y-57874D02*
X65807Y-57874D01*
X66712Y-58326D02*
X66830Y-58208D01*
X66830Y-58208D02*
X66830Y-58011D01*
X66259Y-58326D02*
X66712Y-58326D01*
X66456Y-58129D02*
X66456Y-58011D01*
X66259Y-58326D02*
X66456Y-58129D01*
X69606Y-58326D02*
X69606Y-58011D01*
X68464Y-58326D02*
X68464Y-58011D01*
X69035Y-58011D02*
X69035Y-58326D01*
X72263Y-58326D02*
X72460Y-58129D01*
X72460Y-58129D02*
X72578Y-58129D01*
X72263Y-58326D02*
X71811Y-58326D01*
X71377Y-58326D02*
X71181Y-58129D01*
X71181Y-58129D02*
X71003Y-58129D01*
X71377Y-58326D02*
X71811Y-58326D01*
X75157Y-58326D02*
X75157Y-58011D01*
X74015Y-58326D02*
X74015Y-58011D01*
X74586Y-58011D02*
X74586Y-58326D01*
X77500Y-57598D02*
X77814Y-57598D01*
X76791Y-58326D02*
X76791Y-58011D01*
X77362Y-58011D02*
X77362Y-58326D01*
X77500Y-54783D02*
X77814Y-54783D01*
X78129Y-54783D02*
X77814Y-54783D01*
X77814Y-51200D02*
X77814Y-51830D01*
X78129Y-51830D02*
X77814Y-51830D01*
X77500Y-51830D02*
X77814Y-51830D01*
X77814Y-48976D02*
X78129Y-48976D01*
X77814Y-48622D02*
X78129Y-48622D01*
X74114Y-48287D02*
X73937Y-48464D01*
X73937Y-48464D02*
X73818Y-48464D01*
X74586Y-48287D02*
X74114Y-48287D01*
X72263Y-48287D02*
X72440Y-48464D01*
X72440Y-48464D02*
X72578Y-48464D01*
X72263Y-48287D02*
X71811Y-48287D01*
X71377Y-48287D02*
X71200Y-48464D01*
X71200Y-48464D02*
X71043Y-48464D01*
X71377Y-48287D02*
X71811Y-48287D01*
X66456Y-48484D02*
X66456Y-48602D01*
X66259Y-48287D02*
X66456Y-48484D01*
X65492Y-48740D02*
X65807Y-48740D01*
X66122Y-48740D02*
X65807Y-48740D01*
G54D36*
X66259Y-48287D02*
X69035Y-48287D01*
G54D34*
X78868Y-49330D02*
X78503Y-49330D01*
X78868Y-48622D02*
X78503Y-48622D01*
X78868Y-48976D02*
X78868Y-48710D01*
X79192Y-48385D02*
X79133Y-48444D01*
X79192Y-48385D02*
X79448Y-48385D01*
X78868Y-48710D02*
X79133Y-48444D01*
X80029Y-48976D02*
X80029Y-48710D01*
X80029Y-48710D02*
X79763Y-48444D01*
X79704Y-48385D02*
X79448Y-48385D01*
X79704Y-48385D02*
X79763Y-48444D01*
X78868Y-48976D02*
X78503Y-48976D01*
X79448Y-50905D02*
X79842Y-50905D01*
X80029Y-51250D02*
X79842Y-51062D01*
X79842Y-51062D02*
X79842Y-50905D01*
X80029Y-51250D02*
X80029Y-51496D01*
X79448Y-50905D02*
X79448Y-50551D01*
X79448Y-54448D02*
X79468Y-54448D01*
X80029Y-54812D02*
X80029Y-55039D01*
X79783Y-54566D02*
X80029Y-54812D01*
X79586Y-54566D02*
X79783Y-54566D01*
X79468Y-54448D02*
X79586Y-54566D01*
X79192Y-54803D02*
X79350Y-54645D01*
X78868Y-54803D02*
X78503Y-54803D01*
X79192Y-54803D02*
X78503Y-54803D01*
X79350Y-54547D02*
X79448Y-54448D01*
X79350Y-54645D02*
X79350Y-54547D01*
X78868Y-55295D02*
X78503Y-55295D01*
X78868Y-55039D02*
X78503Y-55039D01*
X78868Y-57283D02*
X78503Y-57283D01*
X78868Y-57992D02*
X78503Y-57992D01*
X79881Y-58188D02*
X79488Y-58188D01*
X80029Y-57923D02*
X79881Y-58070D01*
X79881Y-58070D02*
X79881Y-58188D01*
X80029Y-57637D02*
X80029Y-57923D01*
X79488Y-58188D02*
X79448Y-58228D01*
X78868Y-57637D02*
X78868Y-58179D01*
X78868Y-58179D02*
X78858Y-58188D01*
X79133Y-58188D02*
X79409Y-58188D01*
X79409Y-58188D02*
X79448Y-58228D01*
X78868Y-57637D02*
X78503Y-57637D01*
X68838Y-56810D02*
X68838Y-57047D01*
X72362Y-55984D02*
X72598Y-55984D01*
X77283Y-50708D02*
X77539Y-50708D01*
X76062Y-53307D02*
X75807Y-53307D01*
X76062Y-53307D02*
X76515Y-53307D01*
X76614Y-52972D02*
X76614Y-53208D01*
X76614Y-52736D02*
X76614Y-52972D01*
X76614Y-53208D02*
X76515Y-53307D01*
X76614Y-53641D02*
X76614Y-53405D01*
X76614Y-53877D02*
X76614Y-53641D01*
X76614Y-53405D02*
X76515Y-53307D01*
X77283Y-50354D02*
X77539Y-50354D01*
X76870Y-49802D02*
X76633Y-49802D01*
X76633Y-49802D02*
X76614Y-49783D01*
X76870Y-48720D02*
X76870Y-48720D01*
X76791Y-48641D02*
X76614Y-48641D01*
X76870Y-48720D02*
X76791Y-48641D01*
X66811Y-55433D02*
X66535Y-55433D01*
X65807Y-48740D02*
X65807Y-49507D01*
X65807Y-57106D02*
X65807Y-57874D01*
X65807Y-54783D02*
X65807Y-55413D01*
X65807Y-54783D02*
X65807Y-54153D01*
X65807Y-51830D02*
X65807Y-52460D01*
G54D35*
X66515Y-53592D02*
X66515Y-53799D01*
X66407Y-54153D02*
X66181Y-54153D01*
G54D34*
X74114Y-53641D02*
X74350Y-53641D01*
X74114Y-56318D02*
X74350Y-56318D01*
X74350Y-56318D02*
X74360Y-56328D01*
G54D38*
X67744Y-52478D02*
X69084Y-52478D01*
X69084Y-52478D02*
X69283Y-52279D01*
G54D39*
X75211Y-51291D02*
X75211Y-50930D01*
X75211Y-50930D02*
X75206Y-50925D01*
G54D34*
X74975Y-51291D02*
X74975Y-50930D01*
X74975Y-50930D02*
X74980Y-50925D01*
G54D39*
X75206Y-50925D02*
X74980Y-50925D01*
G54D34*
X73960Y-51791D02*
X74723Y-51791D01*
X74723Y-51791D02*
X74724Y-51791D01*
G54D39*
X75211Y-51291D02*
X75211Y-51791D01*
G54D34*
X75211Y-50930D02*
X75216Y-50925D01*
X67785Y-49389D02*
X67185Y-49389D01*
G54D35*
X69222Y-49389D02*
X69222Y-49320D01*
X69222Y-49320D02*
X69389Y-49153D01*
X68356Y-49389D02*
X68356Y-49576D01*
X68356Y-49576D02*
X68523Y-49744D01*
G54D34*
X67411Y-48779D02*
X67322Y-48779D01*
X67322Y-48779D02*
X67204Y-48661D01*
G54D35*
X70498Y-50774D02*
X70498Y-51418D01*
X70498Y-51418D02*
X70346Y-51570D01*
X72322Y-52608D02*
X72322Y-52401D01*
G54D37*
X70891Y-53789D02*
X70881Y-53789D01*
G54D35*
X68238Y-55118D02*
X68238Y-54891D01*
X68238Y-54891D02*
X68228Y-54881D01*
X69318Y-54313D02*
X69318Y-54323D01*
X69132Y-54389D02*
X69056Y-54313D01*
X69251Y-54389D02*
X69132Y-54389D01*
X69318Y-54323D02*
X69251Y-54389D01*
G54D38*
X69055Y-54312D02*
X69056Y-54313D01*
X69055Y-54051D02*
X69055Y-54312D01*
G54D35*
X71152Y-53264D02*
X71153Y-53264D01*
X71153Y-53264D02*
X71285Y-53133D01*
X68662Y-50511D02*
X68662Y-50510D01*
X68662Y-50510D02*
X68792Y-50380D01*
G54D38*
X67614Y-53658D02*
X67345Y-53658D01*
G54D10*
X67345Y-53658D02*
X67224Y-53779D01*
G54D35*
X67876Y-51036D02*
X68128Y-51036D01*
G54D37*
X76929Y-50708D02*
X76929Y-50354D01*
G54D34*
X77401Y-49448D02*
X77401Y-49783D01*
X76929Y-50255D02*
X76929Y-50354D01*
X77401Y-49783D02*
X76929Y-50255D01*
G54D37*
X77165Y-53307D02*
X77460Y-53307D01*
G54D10*
X64586Y-55472D02*
X64586Y-55177D01*
X64251Y-54271D02*
X63681Y-53700D01*
X64251Y-54842D02*
X64251Y-54271D01*
X64586Y-55177D02*
X64251Y-54842D01*
X65452Y-53582D02*
X65452Y-54015D01*
X63464Y-53700D02*
X63681Y-53700D01*
X66968Y-52283D02*
X66751Y-52283D01*
X67032Y-52347D02*
X66968Y-52283D01*
X65452Y-53582D02*
X66751Y-52283D01*
G54D38*
X67351Y-52347D02*
X67032Y-52347D01*
X67032Y-52347D02*
X66998Y-52312D01*
X66998Y-52312D02*
X66988Y-52303D01*
X66653Y-51712D02*
X66692Y-51712D01*
X66930Y-51691D02*
X67219Y-51691D01*
X66889Y-51732D02*
X66930Y-51691D01*
X66712Y-51732D02*
X66889Y-51732D01*
X66692Y-51712D02*
X66712Y-51732D01*
X66674Y-51691D02*
X66653Y-51712D01*
X66806Y-52740D02*
X66515Y-53031D01*
X67220Y-52740D02*
X66806Y-52740D01*
G54D35*
X72778Y-55521D02*
X73180Y-55521D01*
G54D37*
X73180Y-55521D02*
X73238Y-55579D01*
G54D35*
X72778Y-54458D02*
X73180Y-54458D01*
G54D37*
X73180Y-54458D02*
X73238Y-54400D01*
G54D40*
X75418Y-55490D02*
X76238Y-55490D01*
X76238Y-55490D02*
X76240Y-55492D01*
G54D41*
X72290Y-49114D02*
X70314Y-49114D01*
X72381Y-49205D02*
X72290Y-49114D01*
X69842Y-49586D02*
X70127Y-49301D01*
X69842Y-49586D02*
X69842Y-50275D01*
X70127Y-49301D02*
X70314Y-49114D01*
X72381Y-49205D02*
X72743Y-49205D01*
X72743Y-49205D02*
X72756Y-49192D01*
G54D38*
X69842Y-50642D02*
X69842Y-50275D01*
X69842Y-50275D02*
X69842Y-50275D01*
G54D41*
X70236Y-48956D02*
X72290Y-48956D01*
X69685Y-49507D02*
X70236Y-48956D01*
X72381Y-48865D02*
X72290Y-48956D01*
X69685Y-49507D02*
X69685Y-49547D01*
X72381Y-48865D02*
X72743Y-48865D01*
X72743Y-48865D02*
X72756Y-48877D01*
G54D38*
X69685Y-50472D02*
X69685Y-50747D01*
X69685Y-50747D02*
X69711Y-50774D01*
G54D41*
X69685Y-49547D02*
X69685Y-50472D01*
X69685Y-49527D02*
X69685Y-49547D01*
G54D38*
X69711Y-50774D02*
X69711Y-50774D01*
G54D41*
X73484Y-49205D02*
X73693Y-49205D01*
X74535Y-50047D02*
X74767Y-50047D01*
X73693Y-49205D02*
X74535Y-50047D01*
X73110Y-49192D02*
X73471Y-49192D01*
X73471Y-49192D02*
X73484Y-49205D01*
X73907Y-49202D02*
X74419Y-49202D01*
X74419Y-49202D02*
X74429Y-49192D01*
X73484Y-48865D02*
X73570Y-48865D01*
X74574Y-49047D02*
X74767Y-49047D01*
X74429Y-49192D02*
X74574Y-49047D01*
X73570Y-48865D02*
X73907Y-49202D01*
X74661Y-49153D02*
X74767Y-49047D01*
X73110Y-48877D02*
X73471Y-48877D01*
X73471Y-48877D02*
X73484Y-48865D01*
G54D10*
X71299Y-54744D02*
X71988Y-54744D01*
X72165Y-54921D02*
X72323Y-54921D01*
X72323Y-54921D02*
X72431Y-54813D01*
X71988Y-54744D02*
X72165Y-54921D01*
X71358Y-54744D02*
X71299Y-54744D01*
X71299Y-54744D02*
X71003Y-54744D01*
X70760Y-54500D02*
X70760Y-54444D01*
X71003Y-54744D02*
X70760Y-54500D01*
X71358Y-54744D02*
X71535Y-54744D01*
G54D37*
X72431Y-54813D02*
X72431Y-54465D01*
X72431Y-54465D02*
X72438Y-54458D01*
X72431Y-54813D02*
X72746Y-54813D01*
X72746Y-54813D02*
X72765Y-54793D01*
G54D40*
X76594Y-55492D02*
X76594Y-55492D01*
X79311Y-55767D02*
X79448Y-55629D01*
X76870Y-55767D02*
X79311Y-55767D01*
X76594Y-55492D02*
X76870Y-55767D01*
G54D10*
X71318Y-54862D02*
X71929Y-54862D01*
X72411Y-55167D02*
X72303Y-55059D01*
X72303Y-55059D02*
X72125Y-55059D01*
X72411Y-55167D02*
X72431Y-55167D01*
X71929Y-54862D02*
X72125Y-55059D01*
X71279Y-54862D02*
X70944Y-54862D01*
X70944Y-54862D02*
X70629Y-54546D01*
X71476Y-54862D02*
X71318Y-54862D01*
X71318Y-54862D02*
X71279Y-54862D01*
G54D38*
X70629Y-54313D02*
X70629Y-54546D01*
G54D37*
X72431Y-55167D02*
X72431Y-55514D01*
X72431Y-55514D02*
X72438Y-55521D01*
X72431Y-55167D02*
X72746Y-55167D01*
X72746Y-55167D02*
X72765Y-55187D01*
G54D41*
X71791Y-49685D02*
X72106Y-49685D01*
X73727Y-51291D02*
X73960Y-51291D01*
X73385Y-51633D02*
X73727Y-51291D01*
X73208Y-51633D02*
X73385Y-51633D01*
X73090Y-51515D02*
X73208Y-51633D01*
X73090Y-50669D02*
X73090Y-51515D01*
X72106Y-49685D02*
X73090Y-50669D01*
X70103Y-49876D02*
X70295Y-49685D01*
X70295Y-49685D02*
X71791Y-49685D01*
G54D38*
X70103Y-50380D02*
X70103Y-49896D01*
G54D41*
X70103Y-49896D02*
X70103Y-49876D01*
X72933Y-51397D02*
X72933Y-51594D01*
X72933Y-51594D02*
X73287Y-51948D01*
X71653Y-49842D02*
X72027Y-49842D01*
X73728Y-52291D02*
X73960Y-52291D01*
X73385Y-51948D02*
X73728Y-52291D01*
X73287Y-51948D02*
X73385Y-51948D01*
X72933Y-50748D02*
X72933Y-51397D01*
X72027Y-49842D02*
X72933Y-50748D01*
G54D38*
X70236Y-50249D02*
X70236Y-49960D01*
G54D41*
X70354Y-49842D02*
X71653Y-49842D01*
X70236Y-49960D02*
X70354Y-49842D01*
G54D40*
X79448Y-49566D02*
X79448Y-49645D01*
X79448Y-49645D02*
X79724Y-49921D01*
G54D37*
X70912Y-56587D02*
X71066Y-56587D01*
X70492Y-57007D02*
X70912Y-56587D01*
X70374Y-57007D02*
X70492Y-57007D01*
X70275Y-56909D02*
X70374Y-57007D01*
X70275Y-56161D02*
X70275Y-56909D01*
X70344Y-56062D02*
X70344Y-56092D01*
X70344Y-56092D02*
X70275Y-56161D01*
X70344Y-56062D02*
X70344Y-55777D01*
X70344Y-55777D02*
X70354Y-55767D01*
G54D40*
X73149Y-57244D02*
X73760Y-57244D01*
X72806Y-57587D02*
X73149Y-57244D01*
X72317Y-57587D02*
X72806Y-57587D01*
G54D35*
X70708Y-55406D02*
X70708Y-55808D01*
G54D37*
X70708Y-55808D02*
X70747Y-55846D01*
G54D35*
X69625Y-55406D02*
X69625Y-55808D01*
G54D37*
X69625Y-55808D02*
X69587Y-55846D01*
X70708Y-55066D02*
X70396Y-55066D01*
X70396Y-55066D02*
X70344Y-55118D01*
X70354Y-55413D02*
X70354Y-55128D01*
X70354Y-55128D02*
X70344Y-55118D01*
G54D10*
X70236Y-54586D02*
X70236Y-55010D01*
G54D38*
X70236Y-54182D02*
X70236Y-54586D01*
G54D10*
X70236Y-55010D02*
X70344Y-55118D01*
G54D40*
X74114Y-57244D02*
X76377Y-57244D01*
X79133Y-56732D02*
X79448Y-57047D01*
X76889Y-56732D02*
X79133Y-56732D01*
X76377Y-57244D02*
X76889Y-56732D01*
G54D37*
X70894Y-57587D02*
X71066Y-57587D01*
X70472Y-57165D02*
X70894Y-57587D01*
X70275Y-57165D02*
X70472Y-57165D01*
X70059Y-56948D02*
X70275Y-57165D01*
X70059Y-56161D02*
X70059Y-56948D01*
X69990Y-56062D02*
X69990Y-56092D01*
X69990Y-56092D02*
X70059Y-56161D01*
X69990Y-56062D02*
X69990Y-55777D01*
X69990Y-55777D02*
X69980Y-55767D01*
X69625Y-55066D02*
X69938Y-55066D01*
X69938Y-55066D02*
X69990Y-55118D01*
X69980Y-55413D02*
X69980Y-55128D01*
X69980Y-55128D02*
X69990Y-55118D01*
G54D10*
X70105Y-54599D02*
X70105Y-55003D01*
X70105Y-55003D02*
X69990Y-55118D01*
G54D38*
X70105Y-54313D02*
X70105Y-54599D01*
X70105Y-54599D02*
X70098Y-54606D01*
G54D35*
X69005Y-49389D02*
X69005Y-49891D01*
X69114Y-50321D02*
X69055Y-50380D01*
X69114Y-50000D02*
X69114Y-50321D01*
X69005Y-49891D02*
X69114Y-50000D01*
X69005Y-49389D02*
X69005Y-49094D01*
X69005Y-49094D02*
X68996Y-49084D01*
X68001Y-49389D02*
X68001Y-49498D01*
X68269Y-49765D02*
X68269Y-50118D01*
X68001Y-49498D02*
X68269Y-49765D01*
X68001Y-49389D02*
X68001Y-49114D01*
X68001Y-49114D02*
X68129Y-48986D01*
X69449Y-53920D02*
X69449Y-53921D01*
X69449Y-53921D02*
X69579Y-54051D01*
G54D37*
X63877Y-56712D02*
X63877Y-56712D01*
X63681Y-57559D02*
X63877Y-57755D01*
X63681Y-56909D02*
X63681Y-57559D01*
X63877Y-56712D02*
X63681Y-56909D01*
G54D38*
X67481Y-52478D02*
X67147Y-52478D01*
X67145Y-52480D02*
X67145Y-52478D01*
X67147Y-52478D02*
X67145Y-52480D01*
X67351Y-52085D02*
X67614Y-52085D01*
G54D37*
X66907Y-52478D02*
X66889Y-52460D01*
X67145Y-52478D02*
X66907Y-52478D01*
X67125Y-52478D02*
X67145Y-52478D01*
G54D35*
X66624Y-54153D02*
X66811Y-54153D01*
X66811Y-54153D02*
X66968Y-53996D01*
X66968Y-53996D02*
X66968Y-53740D01*
X66968Y-53740D02*
X67165Y-53543D01*
X66958Y-54005D02*
X66968Y-53996D01*
G54D38*
X67125Y-52478D02*
X67124Y-52478D01*
X67481Y-52478D02*
X67125Y-52478D01*
G54D10*
X67165Y-53543D02*
X67466Y-53543D01*
X67483Y-53527D02*
X67466Y-53543D01*
G54D35*
X71285Y-51298D02*
X71153Y-51167D01*
X72322Y-52824D02*
X72677Y-52824D01*
X72677Y-52824D02*
X72687Y-52814D01*
X72322Y-52824D02*
X71594Y-52824D01*
X71594Y-52824D02*
X71547Y-52871D01*
X71554Y-52864D02*
X71547Y-52871D01*
X68454Y-55118D02*
X68454Y-55531D01*
X68454Y-55531D02*
X68405Y-55580D01*
G54D38*
X68530Y-54051D02*
X68530Y-54382D01*
G54D35*
X68454Y-55049D02*
X68523Y-54980D01*
X68523Y-54980D02*
X68523Y-54389D01*
X68454Y-55049D02*
X68454Y-55118D01*
G54D38*
X68530Y-54382D02*
X68523Y-54389D01*
G54D37*
X66515Y-53375D02*
X66309Y-53375D01*
X66309Y-53375D02*
X66299Y-53366D01*
X66515Y-53375D02*
X66879Y-53375D01*
X66879Y-53375D02*
X67145Y-53110D01*
X67145Y-53110D02*
X66978Y-53277D01*
X67351Y-53133D02*
X67316Y-53133D01*
X67292Y-53110D02*
X67145Y-53110D01*
X67316Y-53133D02*
X67292Y-53110D01*
X71414Y-53264D02*
X71414Y-53250D01*
X72283Y-53238D02*
X72312Y-53208D01*
X71427Y-53238D02*
X72283Y-53238D01*
X71414Y-53250D02*
X71427Y-53238D01*
G54D38*
X70891Y-53527D02*
X71153Y-53527D01*
G54D37*
X71153Y-53527D02*
X71285Y-53658D01*
G54D34*
X68572Y-49389D02*
X68572Y-49399D01*
X68759Y-50000D02*
X68925Y-50165D01*
X68759Y-49586D02*
X68759Y-50000D01*
X68572Y-49399D02*
X68759Y-49586D01*
G54D35*
X68582Y-49084D02*
X68582Y-49379D01*
X68582Y-49379D02*
X68572Y-49389D01*
G54D34*
X68868Y-50108D02*
X68925Y-50165D01*
G54D38*
X68925Y-50511D02*
X68925Y-50165D01*
X68925Y-50165D02*
X68925Y-50157D01*
X68925Y-50157D02*
X68925Y-50149D01*
X68925Y-50149D02*
X68917Y-50157D01*
G54D35*
X72736Y-53208D02*
X72982Y-53208D01*
X72736Y-53208D02*
X72529Y-53208D01*
X72529Y-53208D02*
X72529Y-53326D01*
X72529Y-53326D02*
X72303Y-53553D01*
G54D37*
X67500Y-55070D02*
X67500Y-54881D01*
X67500Y-54881D02*
X68006Y-54375D01*
X67657Y-54724D02*
X68006Y-54375D01*
G54D38*
X68006Y-54384D02*
X68006Y-54375D01*
X68006Y-54375D02*
X68006Y-54051D01*
G54D37*
X67165Y-55118D02*
X67165Y-54893D01*
X67165Y-54893D02*
X67876Y-54182D01*
X67165Y-55433D02*
X67165Y-55118D01*
G54D40*
X76062Y-53681D02*
X75551Y-53681D01*
X75551Y-53681D02*
X75196Y-53326D01*
X77165Y-52933D02*
X78760Y-52933D01*
X75196Y-52972D02*
X75196Y-52306D01*
X75196Y-52306D02*
X75211Y-52291D01*
G54D37*
X73454Y-55167D02*
X73671Y-55167D01*
X73994Y-55490D02*
X74167Y-55490D01*
X73671Y-55167D02*
X73994Y-55490D01*
X73454Y-55167D02*
X73139Y-55167D01*
X73139Y-55167D02*
X73119Y-55187D01*
X73993Y-54490D02*
X74167Y-54490D01*
X73671Y-54813D02*
X73993Y-54490D01*
X73454Y-54813D02*
X73139Y-54813D01*
X73139Y-54813D02*
X73119Y-54793D01*
X73454Y-54813D02*
X73671Y-54813D01*
G54D40*
X76377Y-50846D02*
X76377Y-50236D01*
X76189Y-50047D02*
X76018Y-50047D01*
X76377Y-50236D02*
X76189Y-50047D01*
X76377Y-51200D02*
X76377Y-52145D01*
X76062Y-52460D02*
X76062Y-52933D01*
X76377Y-52145D02*
X76062Y-52460D01*
X79448Y-52920D02*
X79448Y-52086D01*
X79114Y-52933D02*
X79436Y-52933D01*
X79436Y-52933D02*
X79448Y-52920D01*
G54D10*
X63740Y-55472D02*
X63740Y-54291D01*
X63740Y-54291D02*
X63464Y-54015D01*
X65413Y-53346D02*
X65413Y-52755D01*
X65413Y-52755D02*
X65433Y-52755D01*
X65433Y-52755D02*
X64921Y-52755D01*
X67220Y-52216D02*
X67170Y-52165D01*
X66102Y-52755D02*
X66692Y-52165D01*
X65433Y-52755D02*
X66102Y-52755D01*
X66692Y-52165D02*
X67170Y-52165D01*
X64921Y-52755D02*
X64921Y-52756D01*
G54D37*
X64606Y-52756D02*
X64606Y-52185D01*
X64547Y-52125D02*
X64370Y-52125D01*
X64606Y-52185D02*
X64547Y-52125D01*
X64921Y-52283D02*
X65196Y-52283D01*
X65196Y-52283D02*
X65196Y-52283D01*
X65196Y-52283D02*
X65196Y-52283D01*
M02*
