G04 (created by PCBNEW (2013-07-07 BZR 4022)-stable) date 19/11/2015 00:50:24*
%MOIN*%
G04 Gerber Fmt 3.4, Leading zero omitted, Abs format*
%FSLAX34Y34*%
G01*
G70*
G90*
G04 APERTURE LIST*
%ADD10C,0.00590551*%
%ADD11C,0.015748*%
%ADD12C,0.0137795*%
%ADD13C,0.00787402*%
G04 APERTURE END LIST*
G54D10*
G54D11*
X69625Y-48818D03*
X68582Y-48681D03*
X67874Y-48779D03*
X69212Y-48858D03*
X71830Y-50669D03*
X71929Y-52165D03*
X71023Y-55196D03*
X71712Y-52027D03*
X72529Y-53759D03*
X68110Y-55629D03*
X67893Y-55629D03*
X70413Y-49409D03*
X74074Y-53208D03*
X63464Y-55511D03*
X64330Y-55511D03*
X65196Y-55511D03*
X68405Y-56240D03*
X73759Y-53897D03*
X71791Y-55984D03*
X73759Y-56062D03*
X68838Y-56240D03*
X69625Y-49153D03*
X71417Y-55374D03*
X67913Y-49724D03*
X72401Y-50964D03*
X73129Y-52814D03*
X75826Y-56299D03*
X78503Y-50570D03*
X78366Y-53602D03*
X77165Y-53917D03*
X76870Y-51653D03*
X77165Y-48838D03*
X65196Y-55826D03*
X64330Y-55826D03*
X63464Y-55826D03*
G54D12*
X70890Y-53264D03*
X69580Y-54313D03*
X70629Y-53789D03*
X68662Y-50249D03*
X67745Y-52216D03*
G54D11*
X63267Y-53858D03*
X63464Y-51496D03*
G54D12*
X67614Y-51036D03*
G54D11*
X63267Y-51338D03*
G54D12*
X67745Y-51167D03*
G54D11*
X63267Y-51023D03*
G54D12*
X67744Y-51691D03*
G54D11*
X63464Y-52125D03*
G54D12*
X67481Y-51691D03*
G54D11*
X65196Y-51023D03*
X66850Y-50984D03*
G54D12*
X67614Y-51298D03*
G54D11*
X63267Y-51653D03*
X63464Y-51811D03*
G54D12*
X67745Y-51429D03*
G54D11*
X63464Y-51181D03*
G54D12*
X67876Y-51560D03*
G54D11*
X66574Y-51200D03*
X64370Y-51181D03*
X65196Y-51338D03*
X66653Y-51417D03*
G54D12*
X67614Y-51560D03*
G54D11*
X63267Y-51968D03*
X66811Y-51574D03*
X64370Y-51496D03*
X63267Y-53228D03*
G54D12*
X67745Y-53527D03*
G54D11*
X64370Y-53385D03*
G54D12*
X67614Y-53396D03*
G54D11*
X63267Y-52283D03*
G54D12*
X67745Y-52740D03*
G54D11*
X63464Y-52440D03*
G54D12*
X67483Y-52740D03*
X67744Y-53264D03*
G54D11*
X63464Y-53385D03*
G54D12*
X67481Y-53264D03*
G54D11*
X65196Y-53228D03*
X63267Y-52913D03*
G54D12*
X67614Y-53133D03*
G54D11*
X63464Y-53070D03*
X66751Y-53799D03*
X63464Y-52755D03*
G54D12*
X67745Y-53002D03*
G54D11*
X66988Y-53031D03*
X64370Y-53070D03*
X63267Y-52598D03*
G54D12*
X67614Y-52871D03*
G54D11*
X65196Y-52913D03*
X66751Y-53031D03*
X66988Y-51988D03*
X65196Y-51968D03*
X66515Y-52795D03*
X65196Y-52598D03*
X66811Y-51889D03*
X64370Y-51811D03*
X64370Y-52440D03*
G54D12*
X67876Y-52609D03*
G54D11*
X63464Y-54330D03*
X67500Y-55688D03*
X65393Y-54803D03*
X67165Y-55728D03*
X66811Y-55728D03*
X63267Y-54488D03*
X63267Y-54173D03*
X66535Y-55118D03*
X75039Y-56220D03*
X75255Y-56437D03*
X76181Y-56299D03*
X74763Y-56555D03*
X78503Y-51771D03*
X78503Y-51220D03*
X78503Y-51496D03*
X78503Y-50925D03*
X78720Y-54192D03*
X78090Y-53602D03*
X78503Y-54527D03*
X76003Y-51791D03*
X73562Y-49625D03*
X73917Y-50059D03*
X74370Y-50413D03*
X75570Y-49547D03*
X75216Y-49547D03*
X76023Y-48759D03*
X71515Y-57086D03*
X71870Y-57086D03*
X72775Y-57086D03*
X71870Y-56594D03*
X72775Y-56594D03*
X74960Y-54488D03*
X75885Y-54488D03*
X75885Y-55000D03*
X74960Y-55000D03*
X74625Y-55000D03*
X64783Y-57342D03*
X64330Y-50866D03*
X63877Y-57342D03*
X63464Y-56062D03*
X65196Y-55275D03*
X65196Y-56535D03*
X64330Y-56535D03*
X63464Y-56535D03*
X63464Y-57086D03*
X63464Y-56771D03*
X64330Y-57086D03*
X64330Y-56771D03*
X65196Y-56771D03*
X65196Y-57086D03*
X65196Y-56062D03*
X65196Y-55039D03*
X63464Y-55275D03*
X63464Y-55039D03*
X63464Y-54724D03*
X63464Y-50866D03*
X64330Y-50393D03*
X63464Y-50393D03*
X64783Y-49271D03*
X63877Y-49271D03*
X64330Y-50157D03*
X63464Y-50157D03*
X65196Y-49842D03*
X63464Y-49842D03*
X64330Y-49842D03*
X63464Y-49527D03*
X64330Y-49527D03*
X65196Y-49527D03*
X67460Y-56062D03*
X66141Y-52421D03*
X71791Y-55334D03*
X66122Y-57874D03*
X65492Y-57874D03*
X66830Y-58011D03*
X66456Y-58011D03*
X69606Y-58011D03*
X68464Y-58011D03*
X69035Y-58011D03*
X72578Y-58129D03*
X71003Y-58129D03*
X75157Y-58011D03*
X74015Y-58011D03*
X74586Y-58011D03*
X77500Y-57598D03*
X76791Y-58011D03*
X77362Y-58011D03*
X77500Y-54783D03*
X78129Y-54783D03*
X77814Y-51200D03*
X78129Y-51830D03*
X77500Y-51830D03*
X78129Y-48976D03*
X78129Y-48622D03*
X73818Y-48464D03*
X72578Y-48464D03*
X71043Y-48464D03*
X66456Y-48602D03*
X65492Y-48740D03*
X66122Y-48740D03*
X78503Y-49330D03*
X78503Y-48622D03*
X79133Y-48444D03*
X79763Y-48444D03*
X78503Y-48976D03*
X79330Y-53503D03*
X79842Y-50905D03*
X79448Y-50551D03*
X79192Y-54803D03*
X78503Y-54803D03*
X78503Y-55295D03*
X78503Y-55039D03*
X79566Y-56259D03*
X78503Y-57283D03*
X78503Y-57992D03*
X79881Y-58188D03*
X78858Y-58188D03*
X79133Y-58188D03*
X78503Y-57637D03*
X68838Y-57047D03*
X72598Y-55984D03*
X77539Y-50708D03*
X76850Y-52696D03*
X76318Y-54291D03*
X75807Y-53307D03*
X76614Y-52972D03*
X76614Y-53641D03*
X76515Y-53307D03*
X77539Y-50354D03*
X76614Y-49783D03*
X76614Y-48641D03*
X76515Y-49448D03*
X76614Y-49114D03*
X66535Y-55433D03*
X65807Y-49507D03*
X65807Y-57106D03*
X65807Y-55413D03*
X65807Y-54153D03*
X65807Y-52460D03*
X66515Y-53799D03*
X66181Y-54153D03*
X74350Y-53641D03*
X74360Y-56328D03*
X75531Y-52716D03*
X74980Y-50925D03*
X74724Y-51791D03*
X75216Y-50925D03*
X67185Y-49389D03*
X69389Y-49153D03*
X68523Y-49744D03*
X67204Y-48661D03*
G54D12*
X69974Y-50511D03*
G54D11*
X69763Y-51062D03*
X69763Y-51338D03*
X69488Y-51338D03*
X70039Y-51062D03*
X70314Y-51614D03*
X70314Y-52165D03*
X70039Y-52716D03*
X70314Y-52992D03*
X70039Y-52992D03*
X69763Y-52992D03*
X69232Y-52992D03*
X68700Y-52992D03*
X68149Y-52992D03*
X68700Y-52165D03*
X68425Y-51062D03*
X68700Y-51614D03*
X68700Y-51338D03*
X68700Y-51062D03*
X69232Y-51062D03*
X68956Y-51062D03*
X69488Y-51062D03*
X68956Y-51338D03*
X69232Y-51338D03*
X68425Y-51338D03*
X70039Y-51338D03*
X70314Y-51338D03*
X70590Y-51338D03*
X70590Y-51614D03*
X70039Y-51614D03*
X69763Y-51614D03*
X68425Y-51614D03*
X69232Y-51614D03*
X68956Y-51614D03*
X69488Y-51614D03*
X69488Y-52165D03*
X68956Y-52165D03*
X69232Y-52165D03*
X68425Y-52165D03*
X69763Y-52165D03*
X70039Y-52165D03*
X70590Y-52165D03*
X70590Y-51889D03*
X70314Y-51889D03*
X70039Y-51889D03*
X69763Y-51889D03*
X68425Y-51889D03*
X68700Y-51889D03*
X69232Y-51889D03*
X68956Y-51889D03*
X69488Y-51889D03*
X69488Y-52992D03*
X68956Y-52992D03*
X68425Y-52992D03*
X70039Y-53267D03*
X69763Y-53267D03*
X68149Y-53267D03*
X68425Y-53267D03*
X68700Y-53267D03*
X69232Y-53267D03*
X68956Y-53267D03*
X69488Y-53267D03*
X69488Y-52716D03*
X68956Y-52716D03*
X69232Y-52716D03*
X68700Y-52716D03*
X68425Y-52716D03*
X69763Y-52716D03*
X70314Y-52716D03*
X70314Y-52440D03*
X70039Y-52440D03*
X69763Y-52440D03*
X68149Y-52440D03*
X68425Y-52440D03*
X68700Y-52440D03*
X69232Y-52440D03*
X68956Y-52440D03*
X69488Y-52440D03*
X72322Y-52401D03*
X71811Y-51338D03*
G54D12*
X70760Y-54182D03*
G54D11*
X71791Y-54133D03*
G54D12*
X70891Y-53789D03*
G54D11*
X68228Y-54881D03*
G54D12*
X68662Y-54182D03*
X69056Y-54313D03*
G54D11*
X71968Y-53976D03*
X69015Y-54724D03*
X69114Y-55000D03*
X69822Y-54842D03*
X71870Y-53070D03*
G54D12*
X71416Y-53527D03*
X71285Y-53133D03*
X71285Y-52871D03*
X70760Y-50774D03*
X70105Y-50642D03*
X69187Y-50774D03*
X69056Y-50642D03*
X68792Y-50380D03*
X68400Y-50249D03*
G54D11*
X67913Y-49940D03*
G54D12*
X68400Y-53920D03*
X67351Y-53396D03*
X67483Y-51167D03*
X67614Y-51822D03*
X67876Y-52085D03*
G54D11*
X67224Y-53779D03*
G54D12*
X67745Y-51953D03*
G54D11*
X64330Y-55275D03*
X77401Y-49448D03*
X65196Y-54015D03*
X77460Y-53307D03*
X65452Y-54015D03*
X63464Y-53700D03*
X66653Y-51712D03*
X65196Y-51653D03*
X66515Y-53031D03*
X64370Y-52755D03*
G54D12*
X71022Y-50249D03*
G54D11*
X79724Y-49921D03*
G54D12*
X70760Y-50249D03*
X70628Y-50380D03*
X70891Y-50118D03*
X69187Y-50511D03*
X71153Y-51429D03*
X69449Y-54444D03*
X69317Y-50380D03*
X69449Y-50249D03*
X68268Y-50380D03*
X68794Y-50642D03*
G54D11*
X70590Y-54744D03*
G54D12*
X68925Y-53920D03*
X69579Y-54051D03*
X68925Y-54182D03*
G54D11*
X72027Y-55590D03*
G54D12*
X71416Y-51167D03*
X70891Y-51167D03*
X68400Y-50774D03*
X70890Y-54051D03*
X69187Y-53920D03*
G54D11*
X68740Y-55000D03*
X68110Y-56574D03*
G54D12*
X69056Y-53789D03*
G54D11*
X66889Y-52460D03*
X66968Y-53996D03*
G54D12*
X67744Y-50905D03*
X67614Y-52085D03*
X71153Y-51167D03*
X70891Y-51429D03*
X71022Y-51036D03*
X71022Y-53658D03*
X68531Y-53789D03*
X68400Y-54182D03*
X67614Y-52609D03*
G54D11*
X66299Y-53366D03*
X66771Y-50433D03*
G54D12*
X67876Y-51298D03*
X67876Y-51822D03*
X71153Y-52740D03*
X71022Y-53396D03*
X71285Y-53658D03*
X71153Y-53002D03*
X71285Y-53396D03*
G54D11*
X72736Y-53208D03*
G54D12*
X71022Y-53133D03*
X68007Y-53789D03*
X67745Y-53789D03*
G54D11*
X79822Y-53503D03*
G54D12*
X68268Y-54051D03*
G54D11*
X79055Y-56259D03*
X79566Y-53503D03*
G54D12*
X68138Y-54182D03*
G54D11*
X79311Y-56259D03*
X71791Y-54389D03*
G54D12*
X69318Y-53789D03*
G54D11*
X63464Y-54015D03*
G54D12*
X68138Y-53920D03*
X68530Y-50380D03*
G54D11*
X65196Y-50236D03*
X65413Y-53346D03*
G54D12*
X67483Y-52216D03*
G54D11*
X64370Y-52125D03*
G54D12*
X67614Y-52347D03*
G54D11*
X65196Y-52283D03*
X65196Y-54488D03*
G54D12*
X71022Y-53920D03*
G54D11*
X63267Y-53543D03*
X67342Y-54409D03*
G54D12*
X67876Y-52347D03*
G54D10*
G36*
X79921Y-58228D02*
X79507Y-58228D01*
X79507Y-56220D01*
X79478Y-56148D01*
X79422Y-56093D01*
X79350Y-56063D01*
X79272Y-56062D01*
X79199Y-56092D01*
X79183Y-56109D01*
X79166Y-56093D01*
X79094Y-56063D01*
X79016Y-56062D01*
X78943Y-56092D01*
X78888Y-56148D01*
X78858Y-56220D01*
X78858Y-56298D01*
X78888Y-56371D01*
X78943Y-56426D01*
X79015Y-56456D01*
X79094Y-56456D01*
X79166Y-56426D01*
X79183Y-56410D01*
X79199Y-56426D01*
X79271Y-56456D01*
X79350Y-56456D01*
X79422Y-56426D01*
X79477Y-56371D01*
X79507Y-56299D01*
X79507Y-56220D01*
X79507Y-58228D01*
X78700Y-58228D01*
X78700Y-50531D01*
X78670Y-50459D01*
X78615Y-50404D01*
X78543Y-50374D01*
X78464Y-50373D01*
X78392Y-50403D01*
X78337Y-50459D01*
X78307Y-50531D01*
X78307Y-50609D01*
X78336Y-50682D01*
X78392Y-50737D01*
X78464Y-50767D01*
X78542Y-50767D01*
X78615Y-50737D01*
X78670Y-50682D01*
X78700Y-50610D01*
X78700Y-50531D01*
X78700Y-58228D01*
X78563Y-58228D01*
X78563Y-53563D01*
X78533Y-53491D01*
X78477Y-53435D01*
X78405Y-53405D01*
X78327Y-53405D01*
X78254Y-53435D01*
X78199Y-53490D01*
X78169Y-53563D01*
X78169Y-53641D01*
X78199Y-53713D01*
X78254Y-53769D01*
X78326Y-53799D01*
X78405Y-53799D01*
X78477Y-53769D01*
X78532Y-53714D01*
X78562Y-53641D01*
X78563Y-53563D01*
X78563Y-58228D01*
X77657Y-58228D01*
X77657Y-53268D01*
X77627Y-53195D01*
X77598Y-53166D01*
X77598Y-49409D01*
X77568Y-49337D01*
X77513Y-49282D01*
X77440Y-49252D01*
X77362Y-49251D01*
X77362Y-49252D01*
X77362Y-48799D01*
X77332Y-48727D01*
X77277Y-48671D01*
X77204Y-48641D01*
X77126Y-48641D01*
X77053Y-48671D01*
X76998Y-48726D01*
X76968Y-48799D01*
X76968Y-48877D01*
X76998Y-48949D01*
X77053Y-49005D01*
X77126Y-49035D01*
X77204Y-49035D01*
X77276Y-49005D01*
X77332Y-48950D01*
X77362Y-48877D01*
X77362Y-48799D01*
X77362Y-49252D01*
X77290Y-49281D01*
X77234Y-49337D01*
X77204Y-49409D01*
X77204Y-49487D01*
X77234Y-49560D01*
X77289Y-49615D01*
X77362Y-49645D01*
X77440Y-49645D01*
X77512Y-49615D01*
X77568Y-49560D01*
X77598Y-49488D01*
X77598Y-49409D01*
X77598Y-53166D01*
X77572Y-53140D01*
X77499Y-53110D01*
X77421Y-53110D01*
X77349Y-53140D01*
X77293Y-53195D01*
X77263Y-53267D01*
X77263Y-53346D01*
X77293Y-53418D01*
X77348Y-53473D01*
X77421Y-53503D01*
X77499Y-53503D01*
X77571Y-53474D01*
X77627Y-53418D01*
X77657Y-53346D01*
X77657Y-53268D01*
X77657Y-58228D01*
X77362Y-58228D01*
X77362Y-53878D01*
X77332Y-53805D01*
X77277Y-53750D01*
X77204Y-53720D01*
X77126Y-53720D01*
X77066Y-53744D01*
X77066Y-51614D01*
X77037Y-51542D01*
X76981Y-51486D01*
X76909Y-51456D01*
X76831Y-51456D01*
X76758Y-51486D01*
X76703Y-51541D01*
X76673Y-51614D01*
X76673Y-51692D01*
X76703Y-51764D01*
X76758Y-51820D01*
X76830Y-51850D01*
X76909Y-51850D01*
X76981Y-51820D01*
X77036Y-51765D01*
X77066Y-51692D01*
X77066Y-51614D01*
X77066Y-53744D01*
X77053Y-53750D01*
X76998Y-53805D01*
X76968Y-53877D01*
X76968Y-53956D01*
X76998Y-54028D01*
X77053Y-54084D01*
X77126Y-54114D01*
X77204Y-54114D01*
X77276Y-54084D01*
X77332Y-54028D01*
X77362Y-53956D01*
X77362Y-53878D01*
X77362Y-58228D01*
X76023Y-58228D01*
X76023Y-56260D01*
X75993Y-56187D01*
X75938Y-56132D01*
X75866Y-56102D01*
X75787Y-56102D01*
X75715Y-56132D01*
X75659Y-56187D01*
X75629Y-56259D01*
X75629Y-56338D01*
X75659Y-56410D01*
X75715Y-56465D01*
X75787Y-56496D01*
X75865Y-56496D01*
X75938Y-56466D01*
X75993Y-56410D01*
X76023Y-56338D01*
X76023Y-56260D01*
X76023Y-58228D01*
X74271Y-58228D01*
X74271Y-53169D01*
X74241Y-53097D01*
X74186Y-53041D01*
X74114Y-53011D01*
X74035Y-53011D01*
X73963Y-53041D01*
X73908Y-53097D01*
X73877Y-53169D01*
X73877Y-53247D01*
X73907Y-53320D01*
X73963Y-53375D01*
X74035Y-53405D01*
X74113Y-53405D01*
X74186Y-53375D01*
X74241Y-53320D01*
X74271Y-53247D01*
X74271Y-53169D01*
X74271Y-58228D01*
X73956Y-58228D01*
X73956Y-56024D01*
X73956Y-53858D01*
X73926Y-53786D01*
X73871Y-53730D01*
X73799Y-53700D01*
X73720Y-53700D01*
X73648Y-53730D01*
X73593Y-53785D01*
X73563Y-53858D01*
X73562Y-53936D01*
X73592Y-54008D01*
X73648Y-54064D01*
X73720Y-54094D01*
X73798Y-54094D01*
X73871Y-54064D01*
X73926Y-54009D01*
X73956Y-53936D01*
X73956Y-53858D01*
X73956Y-56024D01*
X73926Y-55951D01*
X73871Y-55896D01*
X73799Y-55866D01*
X73720Y-55866D01*
X73648Y-55896D01*
X73593Y-55951D01*
X73563Y-56023D01*
X73562Y-56101D01*
X73592Y-56174D01*
X73648Y-56229D01*
X73720Y-56259D01*
X73798Y-56259D01*
X73871Y-56229D01*
X73926Y-56174D01*
X73956Y-56102D01*
X73956Y-56024D01*
X73956Y-58228D01*
X73326Y-58228D01*
X73326Y-52775D01*
X73296Y-52703D01*
X73241Y-52648D01*
X73169Y-52618D01*
X73090Y-52618D01*
X73018Y-52647D01*
X72963Y-52703D01*
X72933Y-52775D01*
X72933Y-52853D01*
X72962Y-52926D01*
X73018Y-52981D01*
X73090Y-53011D01*
X73168Y-53011D01*
X73241Y-52981D01*
X73296Y-52926D01*
X73326Y-52854D01*
X73326Y-52775D01*
X73326Y-58228D01*
X72933Y-58228D01*
X72933Y-53169D01*
X72903Y-53097D01*
X72847Y-53041D01*
X72775Y-53011D01*
X72697Y-53011D01*
X72624Y-53041D01*
X72598Y-53068D01*
X72598Y-50925D01*
X72568Y-50853D01*
X72513Y-50797D01*
X72440Y-50767D01*
X72362Y-50767D01*
X72290Y-50797D01*
X72234Y-50852D01*
X72204Y-50925D01*
X72204Y-51003D01*
X72234Y-51075D01*
X72289Y-51131D01*
X72362Y-51161D01*
X72440Y-51161D01*
X72512Y-51131D01*
X72568Y-51076D01*
X72598Y-51003D01*
X72598Y-50925D01*
X72598Y-53068D01*
X72569Y-53097D01*
X72539Y-53169D01*
X72539Y-53247D01*
X72569Y-53320D01*
X72624Y-53375D01*
X72696Y-53405D01*
X72775Y-53405D01*
X72847Y-53375D01*
X72903Y-53320D01*
X72933Y-53247D01*
X72933Y-53169D01*
X72933Y-58228D01*
X72726Y-58228D01*
X72726Y-53720D01*
X72696Y-53648D01*
X72641Y-53593D01*
X72568Y-53563D01*
X72490Y-53562D01*
X72418Y-53592D01*
X72362Y-53648D01*
X72332Y-53720D01*
X72332Y-53798D01*
X72362Y-53871D01*
X72417Y-53926D01*
X72490Y-53956D01*
X72568Y-53956D01*
X72640Y-53926D01*
X72696Y-53871D01*
X72726Y-53799D01*
X72726Y-53720D01*
X72726Y-58228D01*
X72224Y-58228D01*
X72224Y-55551D01*
X72194Y-55479D01*
X72139Y-55423D01*
X72126Y-55418D01*
X72126Y-52126D01*
X72096Y-52053D01*
X72040Y-51998D01*
X72027Y-51993D01*
X72027Y-50630D01*
X71997Y-50557D01*
X71942Y-50502D01*
X71870Y-50472D01*
X71791Y-50472D01*
X71719Y-50502D01*
X71663Y-50557D01*
X71633Y-50629D01*
X71633Y-50708D01*
X71663Y-50780D01*
X71719Y-50836D01*
X71791Y-50866D01*
X71869Y-50866D01*
X71942Y-50836D01*
X71997Y-50780D01*
X72027Y-50708D01*
X72027Y-50630D01*
X72027Y-51993D01*
X71968Y-51968D01*
X71901Y-51968D01*
X71879Y-51916D01*
X71824Y-51860D01*
X71751Y-51830D01*
X71673Y-51830D01*
X71603Y-51859D01*
X71603Y-51130D01*
X71574Y-51061D01*
X71522Y-51008D01*
X71453Y-50980D01*
X71379Y-50980D01*
X71310Y-51008D01*
X71285Y-51033D01*
X71260Y-51008D01*
X71209Y-50988D01*
X71209Y-50212D01*
X71181Y-50143D01*
X71128Y-50091D01*
X71073Y-50068D01*
X71050Y-50012D01*
X70997Y-49960D01*
X70929Y-49931D01*
X70854Y-49931D01*
X70785Y-49959D01*
X70733Y-50012D01*
X70710Y-50068D01*
X70654Y-50090D01*
X70610Y-50135D01*
X70610Y-49370D01*
X70580Y-49298D01*
X70525Y-49242D01*
X70452Y-49212D01*
X70374Y-49212D01*
X70302Y-49242D01*
X70246Y-49297D01*
X70216Y-49370D01*
X70216Y-49448D01*
X70246Y-49520D01*
X70301Y-49576D01*
X70374Y-49606D01*
X70452Y-49606D01*
X70524Y-49576D01*
X70580Y-49521D01*
X70610Y-49448D01*
X70610Y-49370D01*
X70610Y-50135D01*
X70602Y-50143D01*
X70579Y-50198D01*
X70522Y-50222D01*
X70469Y-50274D01*
X70441Y-50343D01*
X70441Y-50417D01*
X70469Y-50486D01*
X70522Y-50539D01*
X70590Y-50567D01*
X70665Y-50567D01*
X70734Y-50539D01*
X70786Y-50486D01*
X70809Y-50431D01*
X70866Y-50408D01*
X70891Y-50382D01*
X70916Y-50408D01*
X70985Y-50436D01*
X71059Y-50436D01*
X71128Y-50408D01*
X71181Y-50355D01*
X71209Y-50286D01*
X71209Y-50212D01*
X71209Y-50988D01*
X71204Y-50985D01*
X71181Y-50930D01*
X71128Y-50877D01*
X71060Y-50849D01*
X70985Y-50849D01*
X70917Y-50877D01*
X70864Y-50930D01*
X70841Y-50985D01*
X70785Y-51008D01*
X70733Y-51061D01*
X70704Y-51129D01*
X70704Y-51204D01*
X70733Y-51273D01*
X70758Y-51298D01*
X70733Y-51323D01*
X70704Y-51392D01*
X70704Y-51466D01*
X70733Y-51535D01*
X70785Y-51587D01*
X70854Y-51616D01*
X70928Y-51616D01*
X70997Y-51588D01*
X71022Y-51562D01*
X71047Y-51587D01*
X71116Y-51616D01*
X71190Y-51616D01*
X71259Y-51588D01*
X71312Y-51535D01*
X71340Y-51466D01*
X71340Y-51392D01*
X71314Y-51327D01*
X71378Y-51354D01*
X71453Y-51354D01*
X71521Y-51325D01*
X71574Y-51273D01*
X71603Y-51204D01*
X71603Y-51130D01*
X71603Y-51859D01*
X71601Y-51860D01*
X71545Y-51915D01*
X71515Y-51988D01*
X71515Y-52066D01*
X71545Y-52138D01*
X71600Y-52194D01*
X71673Y-52224D01*
X71740Y-52224D01*
X71762Y-52276D01*
X71817Y-52332D01*
X71889Y-52362D01*
X71968Y-52362D01*
X72040Y-52332D01*
X72095Y-52277D01*
X72125Y-52204D01*
X72126Y-52126D01*
X72126Y-55418D01*
X72066Y-55393D01*
X71988Y-55393D01*
X71988Y-55393D01*
X71988Y-54350D01*
X71958Y-54278D01*
X71902Y-54222D01*
X71830Y-54192D01*
X71752Y-54192D01*
X71679Y-54222D01*
X71624Y-54278D01*
X71594Y-54350D01*
X71594Y-54428D01*
X71624Y-54501D01*
X71679Y-54556D01*
X71752Y-54586D01*
X71830Y-54586D01*
X71902Y-54556D01*
X71958Y-54501D01*
X71988Y-54429D01*
X71988Y-54350D01*
X71988Y-55393D01*
X71916Y-55423D01*
X71860Y-55478D01*
X71830Y-55551D01*
X71830Y-55629D01*
X71860Y-55701D01*
X71915Y-55757D01*
X71988Y-55787D01*
X72066Y-55787D01*
X72138Y-55757D01*
X72194Y-55702D01*
X72224Y-55629D01*
X72224Y-55551D01*
X72224Y-58228D01*
X71988Y-58228D01*
X71988Y-55945D01*
X71958Y-55872D01*
X71902Y-55817D01*
X71830Y-55787D01*
X71752Y-55787D01*
X71679Y-55817D01*
X71624Y-55872D01*
X71614Y-55897D01*
X71614Y-55335D01*
X71584Y-55262D01*
X71528Y-55207D01*
X71472Y-55183D01*
X71472Y-53621D01*
X71443Y-53552D01*
X71418Y-53527D01*
X71443Y-53502D01*
X71472Y-53433D01*
X71472Y-53359D01*
X71443Y-53290D01*
X71391Y-53237D01*
X71322Y-53209D01*
X71248Y-53209D01*
X71182Y-53235D01*
X71204Y-53184D01*
X71259Y-53161D01*
X71312Y-53108D01*
X71340Y-53040D01*
X71340Y-52965D01*
X71312Y-52896D01*
X71287Y-52871D01*
X71312Y-52846D01*
X71340Y-52777D01*
X71340Y-52703D01*
X71312Y-52634D01*
X71260Y-52582D01*
X71191Y-52553D01*
X71116Y-52553D01*
X71048Y-52581D01*
X70995Y-52634D01*
X70966Y-52703D01*
X70966Y-52777D01*
X70995Y-52846D01*
X71020Y-52871D01*
X70995Y-52896D01*
X70972Y-52952D01*
X70917Y-52975D01*
X70864Y-53027D01*
X70841Y-53082D01*
X70784Y-53106D01*
X70732Y-53158D01*
X70703Y-53227D01*
X70703Y-53301D01*
X70731Y-53370D01*
X70784Y-53423D01*
X70841Y-53447D01*
X70864Y-53501D01*
X70889Y-53527D01*
X70864Y-53552D01*
X70835Y-53620D01*
X70835Y-53695D01*
X70864Y-53764D01*
X70889Y-53789D01*
X70864Y-53814D01*
X70841Y-53869D01*
X70789Y-53890D01*
X70816Y-53826D01*
X70816Y-53752D01*
X70788Y-53683D01*
X70735Y-53630D01*
X70666Y-53602D01*
X70592Y-53602D01*
X70523Y-53630D01*
X70471Y-53683D01*
X70442Y-53752D01*
X70442Y-53826D01*
X70470Y-53895D01*
X70523Y-53947D01*
X70592Y-53976D01*
X70666Y-53976D01*
X70730Y-53950D01*
X70703Y-54014D01*
X70703Y-54088D01*
X70731Y-54157D01*
X70784Y-54210D01*
X70853Y-54238D01*
X70927Y-54238D01*
X70996Y-54210D01*
X71048Y-54157D01*
X71071Y-54102D01*
X71128Y-54079D01*
X71181Y-54026D01*
X71209Y-53957D01*
X71209Y-53883D01*
X71182Y-53818D01*
X71247Y-53845D01*
X71322Y-53845D01*
X71390Y-53816D01*
X71443Y-53764D01*
X71472Y-53695D01*
X71472Y-53621D01*
X71472Y-55183D01*
X71456Y-55177D01*
X71378Y-55177D01*
X71305Y-55207D01*
X71250Y-55262D01*
X71220Y-55334D01*
X71220Y-55157D01*
X71190Y-55085D01*
X71135Y-55030D01*
X71062Y-55000D01*
X70984Y-54999D01*
X70912Y-55029D01*
X70856Y-55085D01*
X70826Y-55157D01*
X70826Y-55235D01*
X70856Y-55308D01*
X70911Y-55363D01*
X70984Y-55393D01*
X71062Y-55393D01*
X71134Y-55363D01*
X71190Y-55308D01*
X71220Y-55236D01*
X71220Y-55157D01*
X71220Y-55334D01*
X71220Y-55413D01*
X71250Y-55485D01*
X71305Y-55540D01*
X71377Y-55570D01*
X71456Y-55570D01*
X71528Y-55540D01*
X71584Y-55485D01*
X71614Y-55413D01*
X71614Y-55335D01*
X71614Y-55897D01*
X71594Y-55944D01*
X71594Y-56023D01*
X71624Y-56095D01*
X71679Y-56151D01*
X71752Y-56181D01*
X71830Y-56181D01*
X71902Y-56151D01*
X71958Y-56095D01*
X71988Y-56023D01*
X71988Y-55945D01*
X71988Y-58228D01*
X70787Y-58228D01*
X70787Y-54705D01*
X70757Y-54632D01*
X70702Y-54577D01*
X70629Y-54547D01*
X70551Y-54547D01*
X70479Y-54577D01*
X70423Y-54632D01*
X70393Y-54704D01*
X70393Y-54783D01*
X70423Y-54855D01*
X70478Y-54910D01*
X70551Y-54940D01*
X70629Y-54940D01*
X70701Y-54911D01*
X70757Y-54855D01*
X70787Y-54783D01*
X70787Y-54705D01*
X70787Y-58228D01*
X69822Y-58228D01*
X69822Y-49114D01*
X69792Y-49042D01*
X69737Y-48986D01*
X69736Y-48986D01*
X69737Y-48985D01*
X69792Y-48930D01*
X69822Y-48858D01*
X69822Y-48779D01*
X69792Y-48707D01*
X69737Y-48652D01*
X69665Y-48622D01*
X69587Y-48622D01*
X69514Y-48651D01*
X69459Y-48707D01*
X69429Y-48779D01*
X69429Y-48857D01*
X69459Y-48930D01*
X69514Y-48985D01*
X69515Y-48986D01*
X69514Y-48986D01*
X69459Y-49041D01*
X69429Y-49114D01*
X69429Y-49192D01*
X69459Y-49264D01*
X69514Y-49320D01*
X69586Y-49350D01*
X69664Y-49350D01*
X69737Y-49320D01*
X69792Y-49265D01*
X69822Y-49192D01*
X69822Y-49114D01*
X69822Y-58228D01*
X69767Y-58228D01*
X69767Y-54276D01*
X69739Y-54207D01*
X69713Y-54182D01*
X69737Y-54157D01*
X69766Y-54088D01*
X69766Y-54014D01*
X69738Y-53945D01*
X69685Y-53893D01*
X69636Y-53872D01*
X69636Y-50212D01*
X69608Y-50143D01*
X69555Y-50091D01*
X69486Y-50062D01*
X69412Y-50062D01*
X69409Y-50063D01*
X69409Y-48819D01*
X69379Y-48746D01*
X69324Y-48691D01*
X69251Y-48661D01*
X69173Y-48661D01*
X69101Y-48691D01*
X69045Y-48746D01*
X69015Y-48818D01*
X69015Y-48897D01*
X69045Y-48969D01*
X69100Y-49025D01*
X69173Y-49055D01*
X69251Y-49055D01*
X69323Y-49025D01*
X69379Y-48969D01*
X69409Y-48897D01*
X69409Y-48819D01*
X69409Y-50063D01*
X69343Y-50090D01*
X69291Y-50143D01*
X69268Y-50198D01*
X69211Y-50222D01*
X69158Y-50274D01*
X69135Y-50330D01*
X69081Y-50353D01*
X69028Y-50405D01*
X69000Y-50474D01*
X69000Y-50548D01*
X69028Y-50617D01*
X69081Y-50670D01*
X69150Y-50698D01*
X69224Y-50698D01*
X69293Y-50670D01*
X69345Y-50617D01*
X69369Y-50561D01*
X69423Y-50539D01*
X69475Y-50486D01*
X69498Y-50431D01*
X69555Y-50408D01*
X69608Y-50355D01*
X69636Y-50286D01*
X69636Y-50212D01*
X69636Y-53872D01*
X69616Y-53864D01*
X69542Y-53864D01*
X69478Y-53890D01*
X69505Y-53826D01*
X69505Y-53752D01*
X69477Y-53683D01*
X69424Y-53630D01*
X69355Y-53602D01*
X69281Y-53602D01*
X69212Y-53630D01*
X69187Y-53656D01*
X69162Y-53630D01*
X69093Y-53602D01*
X69019Y-53602D01*
X68981Y-53618D01*
X68981Y-50605D01*
X68952Y-50537D01*
X68900Y-50484D01*
X68831Y-50455D01*
X68757Y-50455D01*
X68690Y-50483D01*
X68712Y-50431D01*
X68768Y-50408D01*
X68821Y-50355D01*
X68849Y-50286D01*
X68850Y-50212D01*
X68821Y-50143D01*
X68779Y-50101D01*
X68779Y-48642D01*
X68749Y-48569D01*
X68694Y-48514D01*
X68622Y-48484D01*
X68543Y-48484D01*
X68471Y-48514D01*
X68415Y-48569D01*
X68385Y-48641D01*
X68385Y-48720D01*
X68415Y-48792D01*
X68471Y-48847D01*
X68543Y-48877D01*
X68621Y-48877D01*
X68694Y-48848D01*
X68749Y-48792D01*
X68779Y-48720D01*
X68779Y-48642D01*
X68779Y-50101D01*
X68769Y-50091D01*
X68700Y-50062D01*
X68625Y-50062D01*
X68557Y-50090D01*
X68504Y-50143D01*
X68481Y-50198D01*
X68424Y-50222D01*
X68399Y-50247D01*
X68374Y-50222D01*
X68305Y-50193D01*
X68231Y-50193D01*
X68162Y-50222D01*
X68110Y-50274D01*
X68110Y-49685D01*
X68080Y-49613D01*
X68070Y-49603D01*
X68070Y-48740D01*
X68040Y-48668D01*
X67985Y-48612D01*
X67913Y-48582D01*
X67835Y-48582D01*
X67762Y-48612D01*
X67707Y-48667D01*
X67677Y-48740D01*
X67677Y-48818D01*
X67707Y-48890D01*
X67762Y-48946D01*
X67834Y-48976D01*
X67913Y-48976D01*
X67985Y-48946D01*
X68040Y-48891D01*
X68070Y-48818D01*
X68070Y-48740D01*
X68070Y-49603D01*
X68025Y-49557D01*
X67952Y-49527D01*
X67874Y-49527D01*
X67802Y-49557D01*
X67746Y-49612D01*
X67716Y-49685D01*
X67716Y-49763D01*
X67746Y-49835D01*
X67801Y-49891D01*
X67874Y-49921D01*
X67952Y-49921D01*
X68024Y-49891D01*
X68080Y-49836D01*
X68110Y-49763D01*
X68110Y-49685D01*
X68110Y-50274D01*
X68110Y-50274D01*
X68081Y-50343D01*
X68081Y-50417D01*
X68109Y-50486D01*
X68162Y-50539D01*
X68231Y-50567D01*
X68305Y-50567D01*
X68374Y-50539D01*
X68399Y-50514D01*
X68424Y-50539D01*
X68493Y-50567D01*
X68567Y-50567D01*
X68634Y-50540D01*
X68607Y-50605D01*
X68607Y-50679D01*
X68635Y-50748D01*
X68688Y-50801D01*
X68756Y-50829D01*
X68831Y-50829D01*
X68899Y-50801D01*
X68952Y-50748D01*
X68981Y-50680D01*
X68981Y-50605D01*
X68981Y-53618D01*
X68950Y-53630D01*
X68897Y-53683D01*
X68874Y-53738D01*
X68819Y-53761D01*
X68766Y-53814D01*
X68738Y-53883D01*
X68738Y-53957D01*
X68766Y-54026D01*
X68791Y-54051D01*
X68766Y-54076D01*
X68738Y-54145D01*
X68738Y-54219D01*
X68766Y-54288D01*
X68819Y-54341D01*
X68887Y-54369D01*
X68962Y-54369D01*
X69030Y-54341D01*
X69083Y-54288D01*
X69112Y-54220D01*
X69112Y-54145D01*
X69085Y-54080D01*
X69150Y-54107D01*
X69224Y-54107D01*
X69293Y-54079D01*
X69345Y-54026D01*
X69368Y-53970D01*
X69419Y-53950D01*
X69392Y-54014D01*
X69392Y-54088D01*
X69420Y-54157D01*
X69446Y-54183D01*
X69422Y-54207D01*
X69399Y-54263D01*
X69343Y-54286D01*
X69291Y-54338D01*
X69262Y-54407D01*
X69262Y-54481D01*
X69290Y-54550D01*
X69343Y-54603D01*
X69412Y-54631D01*
X69486Y-54631D01*
X69555Y-54603D01*
X69608Y-54550D01*
X69631Y-54495D01*
X69686Y-54472D01*
X69739Y-54419D01*
X69767Y-54351D01*
X69767Y-54276D01*
X69767Y-58228D01*
X69035Y-58228D01*
X69035Y-56201D01*
X69005Y-56128D01*
X68950Y-56073D01*
X68937Y-56067D01*
X68937Y-54961D01*
X68907Y-54888D01*
X68851Y-54833D01*
X68779Y-54803D01*
X68718Y-54803D01*
X68718Y-53752D01*
X68690Y-53683D01*
X68637Y-53630D01*
X68587Y-53610D01*
X68587Y-50736D01*
X68559Y-50668D01*
X68506Y-50615D01*
X68438Y-50587D01*
X68363Y-50586D01*
X68294Y-50615D01*
X68242Y-50667D01*
X68213Y-50736D01*
X68213Y-50811D01*
X68242Y-50879D01*
X68294Y-50932D01*
X68363Y-50960D01*
X68437Y-50961D01*
X68506Y-50932D01*
X68559Y-50880D01*
X68587Y-50811D01*
X68587Y-50736D01*
X68587Y-53610D01*
X68569Y-53602D01*
X68494Y-53602D01*
X68426Y-53630D01*
X68373Y-53683D01*
X68344Y-53752D01*
X68344Y-53826D01*
X68371Y-53892D01*
X68320Y-53870D01*
X68297Y-53814D01*
X68244Y-53762D01*
X68188Y-53738D01*
X68166Y-53683D01*
X68113Y-53630D01*
X68044Y-53602D01*
X67970Y-53602D01*
X67905Y-53629D01*
X67932Y-53564D01*
X67932Y-53490D01*
X67903Y-53421D01*
X67878Y-53395D01*
X67902Y-53371D01*
X67931Y-53302D01*
X67931Y-53227D01*
X67902Y-53159D01*
X67878Y-53134D01*
X67903Y-53108D01*
X67932Y-53040D01*
X67932Y-52965D01*
X67903Y-52896D01*
X67878Y-52871D01*
X67903Y-52846D01*
X67926Y-52790D01*
X67982Y-52768D01*
X68034Y-52715D01*
X68063Y-52646D01*
X68063Y-52572D01*
X68035Y-52503D01*
X68009Y-52478D01*
X68034Y-52453D01*
X68063Y-52384D01*
X68063Y-52310D01*
X68035Y-52241D01*
X67982Y-52188D01*
X67926Y-52165D01*
X67903Y-52110D01*
X67851Y-52057D01*
X67795Y-52034D01*
X67774Y-51982D01*
X67839Y-52009D01*
X67913Y-52009D01*
X67982Y-51981D01*
X68034Y-51928D01*
X68063Y-51860D01*
X68063Y-51785D01*
X68035Y-51717D01*
X68009Y-51691D01*
X68034Y-51666D01*
X68063Y-51597D01*
X68063Y-51523D01*
X68035Y-51454D01*
X68009Y-51429D01*
X68034Y-51404D01*
X68063Y-51335D01*
X68063Y-51261D01*
X68035Y-51192D01*
X67982Y-51139D01*
X67926Y-51116D01*
X67903Y-51061D01*
X67878Y-51035D01*
X67902Y-51011D01*
X67931Y-50942D01*
X67931Y-50868D01*
X67902Y-50799D01*
X67850Y-50746D01*
X67781Y-50718D01*
X67707Y-50718D01*
X67638Y-50746D01*
X67585Y-50799D01*
X67562Y-50855D01*
X67508Y-50877D01*
X67455Y-50930D01*
X67427Y-50998D01*
X67427Y-51073D01*
X67455Y-51142D01*
X67480Y-51167D01*
X67455Y-51192D01*
X67427Y-51261D01*
X67427Y-51335D01*
X67455Y-51404D01*
X67480Y-51429D01*
X67455Y-51454D01*
X67432Y-51509D01*
X67376Y-51533D01*
X67323Y-51585D01*
X67294Y-51654D01*
X67294Y-51728D01*
X67323Y-51797D01*
X67375Y-51850D01*
X67444Y-51878D01*
X67518Y-51878D01*
X67587Y-51850D01*
X67612Y-51825D01*
X67638Y-51850D01*
X67695Y-51873D01*
X67716Y-51924D01*
X67651Y-51898D01*
X67577Y-51897D01*
X67508Y-51926D01*
X67455Y-51978D01*
X67432Y-52034D01*
X67377Y-52057D01*
X67324Y-52110D01*
X67296Y-52178D01*
X67296Y-52253D01*
X67324Y-52321D01*
X67377Y-52374D01*
X67432Y-52397D01*
X67455Y-52453D01*
X67480Y-52478D01*
X67455Y-52503D01*
X67432Y-52559D01*
X67377Y-52581D01*
X67324Y-52634D01*
X67296Y-52703D01*
X67296Y-52777D01*
X67324Y-52846D01*
X67377Y-52898D01*
X67432Y-52922D01*
X67455Y-52977D01*
X67480Y-53002D01*
X67455Y-53027D01*
X67432Y-53082D01*
X67376Y-53106D01*
X67323Y-53158D01*
X67294Y-53227D01*
X67294Y-53301D01*
X67323Y-53370D01*
X67375Y-53423D01*
X67432Y-53447D01*
X67455Y-53501D01*
X67508Y-53554D01*
X67563Y-53577D01*
X67586Y-53632D01*
X67611Y-53658D01*
X67586Y-53683D01*
X67558Y-53752D01*
X67558Y-53826D01*
X67586Y-53895D01*
X67639Y-53947D01*
X67707Y-53976D01*
X67782Y-53976D01*
X67851Y-53948D01*
X67876Y-53922D01*
X67901Y-53947D01*
X67957Y-53970D01*
X67979Y-54026D01*
X68005Y-54051D01*
X67980Y-54076D01*
X67951Y-54145D01*
X67951Y-54219D01*
X67979Y-54288D01*
X68032Y-54341D01*
X68101Y-54369D01*
X68175Y-54369D01*
X68244Y-54341D01*
X68269Y-54316D01*
X68294Y-54341D01*
X68363Y-54369D01*
X68437Y-54369D01*
X68506Y-54341D01*
X68559Y-54288D01*
X68587Y-54220D01*
X68587Y-54145D01*
X68559Y-54076D01*
X68506Y-54024D01*
X68449Y-54000D01*
X68428Y-53948D01*
X68494Y-53976D01*
X68568Y-53976D01*
X68637Y-53948D01*
X68690Y-53895D01*
X68718Y-53826D01*
X68718Y-53752D01*
X68718Y-54803D01*
X68701Y-54803D01*
X68628Y-54833D01*
X68573Y-54888D01*
X68543Y-54960D01*
X68543Y-55038D01*
X68573Y-55111D01*
X68628Y-55166D01*
X68700Y-55196D01*
X68779Y-55196D01*
X68851Y-55166D01*
X68906Y-55111D01*
X68936Y-55039D01*
X68937Y-54961D01*
X68937Y-56067D01*
X68877Y-56043D01*
X68799Y-56043D01*
X68727Y-56073D01*
X68671Y-56128D01*
X68641Y-56200D01*
X68641Y-56279D01*
X68671Y-56351D01*
X68726Y-56406D01*
X68799Y-56436D01*
X68877Y-56437D01*
X68949Y-56407D01*
X69005Y-56351D01*
X69035Y-56279D01*
X69035Y-56201D01*
X69035Y-58228D01*
X68602Y-58228D01*
X68602Y-56201D01*
X68572Y-56128D01*
X68517Y-56073D01*
X68444Y-56043D01*
X68366Y-56043D01*
X68307Y-56067D01*
X68307Y-55590D01*
X68277Y-55518D01*
X68221Y-55463D01*
X68149Y-55433D01*
X68071Y-55433D01*
X68001Y-55461D01*
X67933Y-55433D01*
X67854Y-55433D01*
X67782Y-55462D01*
X67726Y-55518D01*
X67696Y-55590D01*
X67696Y-55649D01*
X67666Y-55577D01*
X67611Y-55522D01*
X67539Y-55492D01*
X67539Y-54370D01*
X67509Y-54298D01*
X67454Y-54242D01*
X67381Y-54212D01*
X67303Y-54212D01*
X67231Y-54242D01*
X67185Y-54288D01*
X67185Y-52992D01*
X67185Y-51949D01*
X67155Y-51876D01*
X67099Y-51821D01*
X67027Y-51791D01*
X66983Y-51791D01*
X66978Y-51778D01*
X66931Y-51732D01*
X66977Y-51686D01*
X67007Y-51614D01*
X67007Y-51535D01*
X66978Y-51463D01*
X66922Y-51408D01*
X66850Y-51377D01*
X66850Y-51377D01*
X66820Y-51305D01*
X66766Y-51252D01*
X66771Y-51240D01*
X66771Y-51164D01*
X66811Y-51181D01*
X66889Y-51181D01*
X66961Y-51151D01*
X67017Y-51095D01*
X67047Y-51023D01*
X67047Y-50945D01*
X67017Y-50872D01*
X66968Y-50823D01*
X66968Y-50394D01*
X66938Y-50321D01*
X66883Y-50266D01*
X66810Y-50236D01*
X66732Y-50236D01*
X66660Y-50266D01*
X66604Y-50321D01*
X66574Y-50393D01*
X66574Y-50472D01*
X66604Y-50544D01*
X66660Y-50599D01*
X66732Y-50629D01*
X66810Y-50629D01*
X66883Y-50600D01*
X66938Y-50544D01*
X66968Y-50472D01*
X66968Y-50394D01*
X66968Y-50823D01*
X66962Y-50817D01*
X66889Y-50787D01*
X66811Y-50787D01*
X66739Y-50817D01*
X66683Y-50872D01*
X66653Y-50944D01*
X66653Y-51020D01*
X66614Y-51003D01*
X66535Y-51003D01*
X66463Y-51033D01*
X66408Y-51089D01*
X66377Y-51161D01*
X66377Y-51239D01*
X66407Y-51312D01*
X66461Y-51366D01*
X66456Y-51377D01*
X66456Y-51456D01*
X66486Y-51528D01*
X66522Y-51564D01*
X66486Y-51600D01*
X66456Y-51673D01*
X66456Y-51751D01*
X66486Y-51823D01*
X66541Y-51879D01*
X66614Y-51909D01*
X66614Y-51928D01*
X66644Y-52001D01*
X66699Y-52056D01*
X66771Y-52086D01*
X66815Y-52086D01*
X66821Y-52099D01*
X66876Y-52154D01*
X66948Y-52185D01*
X67027Y-52185D01*
X67099Y-52155D01*
X67154Y-52099D01*
X67185Y-52027D01*
X67185Y-51949D01*
X67185Y-52992D01*
X67155Y-52920D01*
X67099Y-52864D01*
X67086Y-52859D01*
X67086Y-52421D01*
X67056Y-52349D01*
X67001Y-52293D01*
X66929Y-52263D01*
X66850Y-52263D01*
X66778Y-52293D01*
X66722Y-52348D01*
X66692Y-52421D01*
X66692Y-52499D01*
X66722Y-52571D01*
X66778Y-52627D01*
X66850Y-52657D01*
X66928Y-52657D01*
X67001Y-52627D01*
X67056Y-52572D01*
X67086Y-52499D01*
X67086Y-52421D01*
X67086Y-52859D01*
X67027Y-52834D01*
X66949Y-52834D01*
X66876Y-52864D01*
X66870Y-52871D01*
X66863Y-52864D01*
X66791Y-52834D01*
X66712Y-52834D01*
X66712Y-52834D01*
X66712Y-52834D01*
X66712Y-52756D01*
X66682Y-52683D01*
X66627Y-52628D01*
X66555Y-52598D01*
X66476Y-52598D01*
X66404Y-52628D01*
X66348Y-52683D01*
X66318Y-52755D01*
X66318Y-52834D01*
X66348Y-52906D01*
X66355Y-52913D01*
X66348Y-52919D01*
X66318Y-52992D01*
X66318Y-53070D01*
X66348Y-53142D01*
X66401Y-53195D01*
X66338Y-53169D01*
X66260Y-53169D01*
X66187Y-53199D01*
X66132Y-53254D01*
X66102Y-53326D01*
X66102Y-53405D01*
X66132Y-53477D01*
X66187Y-53532D01*
X66259Y-53562D01*
X66338Y-53563D01*
X66410Y-53533D01*
X66465Y-53477D01*
X66496Y-53405D01*
X66496Y-53327D01*
X66466Y-53254D01*
X66413Y-53202D01*
X66476Y-53228D01*
X66554Y-53228D01*
X66627Y-53198D01*
X66633Y-53191D01*
X66640Y-53198D01*
X66712Y-53228D01*
X66790Y-53228D01*
X66863Y-53198D01*
X66870Y-53191D01*
X66876Y-53198D01*
X66948Y-53228D01*
X67027Y-53228D01*
X67099Y-53198D01*
X67154Y-53143D01*
X67185Y-53070D01*
X67185Y-52992D01*
X67185Y-54288D01*
X67175Y-54297D01*
X67165Y-54322D01*
X67165Y-53957D01*
X67135Y-53884D01*
X67080Y-53829D01*
X67007Y-53799D01*
X66948Y-53799D01*
X66948Y-53760D01*
X66918Y-53687D01*
X66863Y-53632D01*
X66791Y-53602D01*
X66712Y-53602D01*
X66640Y-53632D01*
X66585Y-53687D01*
X66555Y-53759D01*
X66555Y-53838D01*
X66584Y-53910D01*
X66640Y-53965D01*
X66712Y-53996D01*
X66771Y-53996D01*
X66771Y-54035D01*
X66801Y-54107D01*
X66856Y-54162D01*
X66929Y-54192D01*
X67007Y-54192D01*
X67079Y-54163D01*
X67135Y-54107D01*
X67165Y-54035D01*
X67165Y-53957D01*
X67165Y-54322D01*
X67145Y-54370D01*
X67145Y-54448D01*
X67175Y-54520D01*
X67230Y-54576D01*
X67303Y-54606D01*
X67381Y-54606D01*
X67453Y-54576D01*
X67509Y-54521D01*
X67539Y-54448D01*
X67539Y-54370D01*
X67539Y-55492D01*
X67539Y-55492D01*
X67461Y-55492D01*
X67388Y-55521D01*
X67333Y-55577D01*
X67321Y-55605D01*
X67277Y-55561D01*
X67204Y-55531D01*
X67126Y-55531D01*
X67053Y-55561D01*
X66998Y-55616D01*
X66988Y-55641D01*
X66978Y-55616D01*
X66922Y-55561D01*
X66850Y-55531D01*
X66772Y-55531D01*
X66732Y-55547D01*
X66732Y-55079D01*
X66702Y-55006D01*
X66647Y-54951D01*
X66574Y-54921D01*
X66496Y-54921D01*
X66424Y-54951D01*
X66368Y-55006D01*
X66338Y-55078D01*
X66338Y-55157D01*
X66368Y-55229D01*
X66423Y-55284D01*
X66496Y-55314D01*
X66574Y-55314D01*
X66646Y-55285D01*
X66702Y-55229D01*
X66732Y-55157D01*
X66732Y-55079D01*
X66732Y-55547D01*
X66699Y-55561D01*
X66644Y-55616D01*
X66614Y-55689D01*
X66614Y-55767D01*
X66644Y-55839D01*
X66699Y-55895D01*
X66771Y-55925D01*
X66850Y-55925D01*
X66922Y-55895D01*
X66977Y-55839D01*
X66988Y-55815D01*
X66998Y-55839D01*
X67053Y-55895D01*
X67126Y-55925D01*
X67204Y-55925D01*
X67276Y-55895D01*
X67332Y-55839D01*
X67344Y-55811D01*
X67388Y-55855D01*
X67460Y-55885D01*
X67538Y-55885D01*
X67611Y-55855D01*
X67666Y-55800D01*
X67696Y-55728D01*
X67696Y-55669D01*
X67726Y-55741D01*
X67782Y-55796D01*
X67854Y-55826D01*
X67932Y-55826D01*
X68002Y-55798D01*
X68070Y-55826D01*
X68149Y-55826D01*
X68221Y-55796D01*
X68277Y-55741D01*
X68307Y-55669D01*
X68307Y-55590D01*
X68307Y-56067D01*
X68294Y-56073D01*
X68238Y-56128D01*
X68208Y-56200D01*
X68208Y-56279D01*
X68238Y-56351D01*
X68293Y-56406D01*
X68366Y-56436D01*
X68444Y-56437D01*
X68516Y-56407D01*
X68572Y-56351D01*
X68602Y-56279D01*
X68602Y-56201D01*
X68602Y-58228D01*
X68307Y-58228D01*
X68307Y-56535D01*
X68277Y-56463D01*
X68221Y-56408D01*
X68149Y-56377D01*
X68071Y-56377D01*
X67998Y-56407D01*
X67943Y-56463D01*
X67913Y-56535D01*
X67913Y-56613D01*
X67943Y-56686D01*
X67998Y-56741D01*
X68070Y-56771D01*
X68149Y-56771D01*
X68221Y-56741D01*
X68277Y-56686D01*
X68307Y-56614D01*
X68307Y-56535D01*
X68307Y-58228D01*
X65649Y-58228D01*
X65649Y-53976D01*
X65619Y-53904D01*
X65610Y-53894D01*
X65610Y-53307D01*
X65580Y-53235D01*
X65525Y-53179D01*
X65452Y-53149D01*
X65377Y-53149D01*
X65363Y-53116D01*
X65317Y-53070D01*
X65363Y-53025D01*
X65393Y-52952D01*
X65393Y-52874D01*
X65363Y-52802D01*
X65317Y-52755D01*
X65363Y-52710D01*
X65393Y-52637D01*
X65393Y-52559D01*
X65363Y-52487D01*
X65317Y-52440D01*
X65363Y-52395D01*
X65393Y-52322D01*
X65393Y-52244D01*
X65363Y-52172D01*
X65317Y-52125D01*
X65363Y-52080D01*
X65393Y-52007D01*
X65393Y-51929D01*
X65363Y-51857D01*
X65317Y-51810D01*
X65363Y-51765D01*
X65393Y-51692D01*
X65393Y-51614D01*
X65363Y-51542D01*
X65317Y-51496D01*
X65363Y-51450D01*
X65393Y-51377D01*
X65393Y-51299D01*
X65363Y-51227D01*
X65317Y-51181D01*
X65363Y-51135D01*
X65393Y-51062D01*
X65393Y-50984D01*
X65393Y-50197D01*
X65363Y-50124D01*
X65308Y-50069D01*
X65236Y-50039D01*
X65157Y-50039D01*
X65085Y-50069D01*
X65030Y-50124D01*
X65000Y-50196D01*
X64999Y-50275D01*
X65029Y-50347D01*
X65085Y-50403D01*
X65157Y-50433D01*
X65235Y-50433D01*
X65308Y-50403D01*
X65363Y-50347D01*
X65393Y-50275D01*
X65393Y-50197D01*
X65393Y-50984D01*
X65363Y-50912D01*
X65308Y-50856D01*
X65236Y-50826D01*
X65157Y-50826D01*
X65085Y-50856D01*
X65030Y-50911D01*
X65000Y-50984D01*
X64999Y-51062D01*
X65029Y-51134D01*
X65075Y-51181D01*
X65030Y-51226D01*
X65000Y-51299D01*
X64999Y-51377D01*
X65029Y-51449D01*
X65075Y-51496D01*
X65030Y-51541D01*
X65000Y-51614D01*
X64999Y-51692D01*
X65029Y-51764D01*
X65075Y-51811D01*
X65030Y-51856D01*
X65000Y-51929D01*
X64999Y-52007D01*
X65029Y-52079D01*
X65075Y-52126D01*
X65030Y-52171D01*
X65000Y-52244D01*
X64999Y-52322D01*
X65029Y-52394D01*
X65075Y-52440D01*
X65030Y-52486D01*
X65000Y-52559D01*
X64999Y-52637D01*
X65029Y-52709D01*
X65075Y-52755D01*
X65030Y-52801D01*
X65000Y-52874D01*
X64999Y-52952D01*
X65029Y-53024D01*
X65075Y-53070D01*
X65030Y-53116D01*
X65000Y-53189D01*
X64999Y-53267D01*
X65029Y-53339D01*
X65085Y-53395D01*
X65157Y-53425D01*
X65232Y-53425D01*
X65246Y-53457D01*
X65301Y-53513D01*
X65374Y-53543D01*
X65452Y-53543D01*
X65524Y-53513D01*
X65580Y-53458D01*
X65610Y-53385D01*
X65610Y-53307D01*
X65610Y-53894D01*
X65564Y-53848D01*
X65492Y-53818D01*
X65413Y-53818D01*
X65341Y-53848D01*
X65324Y-53865D01*
X65308Y-53848D01*
X65236Y-53818D01*
X65157Y-53818D01*
X65085Y-53848D01*
X65030Y-53904D01*
X65000Y-53976D01*
X64999Y-54054D01*
X65029Y-54127D01*
X65085Y-54182D01*
X65157Y-54212D01*
X65235Y-54212D01*
X65308Y-54182D01*
X65324Y-54166D01*
X65341Y-54182D01*
X65413Y-54212D01*
X65491Y-54212D01*
X65564Y-54182D01*
X65619Y-54127D01*
X65649Y-54055D01*
X65649Y-53976D01*
X65649Y-58228D01*
X65590Y-58228D01*
X65590Y-54764D01*
X65560Y-54691D01*
X65505Y-54636D01*
X65433Y-54606D01*
X65357Y-54606D01*
X65363Y-54599D01*
X65393Y-54527D01*
X65393Y-54449D01*
X65363Y-54376D01*
X65308Y-54321D01*
X65236Y-54291D01*
X65157Y-54291D01*
X65085Y-54321D01*
X65030Y-54376D01*
X65000Y-54448D01*
X64999Y-54527D01*
X65029Y-54599D01*
X65085Y-54654D01*
X65157Y-54685D01*
X65233Y-54685D01*
X65226Y-54691D01*
X65196Y-54763D01*
X65196Y-54842D01*
X65226Y-54914D01*
X65282Y-54969D01*
X65354Y-54999D01*
X65432Y-55000D01*
X65505Y-54970D01*
X65560Y-54914D01*
X65590Y-54842D01*
X65590Y-54764D01*
X65590Y-58228D01*
X65393Y-58228D01*
X65393Y-55787D01*
X65363Y-55715D01*
X65317Y-55669D01*
X65363Y-55623D01*
X65393Y-55551D01*
X65393Y-55472D01*
X65363Y-55400D01*
X65308Y-55345D01*
X65236Y-55314D01*
X65157Y-55314D01*
X65085Y-55344D01*
X65030Y-55400D01*
X65000Y-55472D01*
X64999Y-55550D01*
X65029Y-55623D01*
X65075Y-55669D01*
X65030Y-55715D01*
X65000Y-55787D01*
X64999Y-55865D01*
X65029Y-55938D01*
X65085Y-55993D01*
X65157Y-56023D01*
X65235Y-56023D01*
X65308Y-55993D01*
X65363Y-55938D01*
X65393Y-55866D01*
X65393Y-55787D01*
X65393Y-58228D01*
X64566Y-58228D01*
X64566Y-53346D01*
X64537Y-53274D01*
X64490Y-53228D01*
X64536Y-53182D01*
X64566Y-53110D01*
X64566Y-53031D01*
X64537Y-52959D01*
X64490Y-52913D01*
X64536Y-52867D01*
X64566Y-52795D01*
X64566Y-52716D01*
X64537Y-52644D01*
X64490Y-52598D01*
X64536Y-52552D01*
X64566Y-52480D01*
X64566Y-52401D01*
X64537Y-52329D01*
X64490Y-52283D01*
X64536Y-52237D01*
X64566Y-52165D01*
X64566Y-52087D01*
X64537Y-52014D01*
X64490Y-51968D01*
X64536Y-51922D01*
X64566Y-51850D01*
X64566Y-51772D01*
X64537Y-51699D01*
X64490Y-51653D01*
X64536Y-51607D01*
X64566Y-51535D01*
X64566Y-51457D01*
X64537Y-51384D01*
X64490Y-51338D01*
X64536Y-51292D01*
X64566Y-51220D01*
X64566Y-51142D01*
X64537Y-51069D01*
X64481Y-51014D01*
X64409Y-50984D01*
X64331Y-50984D01*
X64258Y-51014D01*
X64203Y-51069D01*
X64173Y-51141D01*
X64173Y-51220D01*
X64203Y-51292D01*
X64249Y-51338D01*
X64203Y-51384D01*
X64173Y-51456D01*
X64173Y-51535D01*
X64203Y-51607D01*
X64249Y-51653D01*
X64203Y-51699D01*
X64173Y-51771D01*
X64173Y-51850D01*
X64203Y-51922D01*
X64249Y-51968D01*
X64203Y-52014D01*
X64173Y-52086D01*
X64173Y-52164D01*
X64203Y-52237D01*
X64249Y-52283D01*
X64203Y-52329D01*
X64173Y-52401D01*
X64173Y-52479D01*
X64203Y-52552D01*
X64249Y-52598D01*
X64203Y-52644D01*
X64173Y-52716D01*
X64173Y-52794D01*
X64203Y-52867D01*
X64249Y-52913D01*
X64203Y-52959D01*
X64173Y-53031D01*
X64173Y-53109D01*
X64203Y-53182D01*
X64249Y-53228D01*
X64203Y-53274D01*
X64173Y-53346D01*
X64173Y-53424D01*
X64203Y-53497D01*
X64258Y-53552D01*
X64330Y-53582D01*
X64409Y-53582D01*
X64481Y-53552D01*
X64536Y-53497D01*
X64566Y-53425D01*
X64566Y-53346D01*
X64566Y-58228D01*
X64527Y-58228D01*
X64527Y-55787D01*
X64497Y-55715D01*
X64451Y-55669D01*
X64497Y-55623D01*
X64527Y-55551D01*
X64527Y-55472D01*
X64497Y-55400D01*
X64490Y-55393D01*
X64497Y-55387D01*
X64527Y-55314D01*
X64527Y-55236D01*
X64497Y-55164D01*
X64442Y-55108D01*
X64370Y-55078D01*
X64291Y-55078D01*
X64219Y-55108D01*
X64163Y-55163D01*
X64133Y-55236D01*
X64133Y-55314D01*
X64163Y-55386D01*
X64170Y-55393D01*
X64163Y-55400D01*
X64133Y-55472D01*
X64133Y-55550D01*
X64163Y-55623D01*
X64209Y-55669D01*
X64163Y-55715D01*
X64133Y-55787D01*
X64133Y-55865D01*
X64163Y-55938D01*
X64219Y-55993D01*
X64291Y-56023D01*
X64369Y-56023D01*
X64442Y-55993D01*
X64497Y-55938D01*
X64527Y-55866D01*
X64527Y-55787D01*
X64527Y-58228D01*
X63346Y-58228D01*
X63346Y-55987D01*
X63352Y-55993D01*
X63425Y-56023D01*
X63503Y-56023D01*
X63575Y-55993D01*
X63631Y-55938D01*
X63661Y-55866D01*
X63661Y-55787D01*
X63631Y-55715D01*
X63585Y-55669D01*
X63631Y-55623D01*
X63661Y-55551D01*
X63661Y-55472D01*
X63631Y-55400D01*
X63576Y-55345D01*
X63503Y-55314D01*
X63425Y-55314D01*
X63353Y-55344D01*
X63346Y-55351D01*
X63346Y-54668D01*
X63379Y-54655D01*
X63434Y-54599D01*
X63464Y-54527D01*
X63503Y-54527D01*
X63575Y-54497D01*
X63631Y-54442D01*
X63661Y-54370D01*
X63661Y-54291D01*
X63631Y-54219D01*
X63585Y-54173D01*
X63631Y-54127D01*
X63661Y-54055D01*
X63661Y-53976D01*
X63631Y-53904D01*
X63585Y-53858D01*
X63631Y-53812D01*
X63661Y-53740D01*
X63661Y-53661D01*
X63631Y-53589D01*
X63585Y-53543D01*
X63631Y-53497D01*
X63661Y-53425D01*
X63661Y-53346D01*
X63631Y-53274D01*
X63585Y-53228D01*
X63631Y-53182D01*
X63661Y-53110D01*
X63661Y-53031D01*
X63631Y-52959D01*
X63585Y-52913D01*
X63631Y-52867D01*
X63661Y-52795D01*
X63661Y-52716D01*
X63631Y-52644D01*
X63585Y-52598D01*
X63631Y-52552D01*
X63661Y-52480D01*
X63661Y-52401D01*
X63631Y-52329D01*
X63585Y-52283D01*
X63631Y-52237D01*
X63661Y-52165D01*
X63661Y-52087D01*
X63631Y-52014D01*
X63585Y-51968D01*
X63631Y-51922D01*
X63661Y-51850D01*
X63661Y-51772D01*
X63631Y-51699D01*
X63585Y-51653D01*
X63631Y-51607D01*
X63661Y-51535D01*
X63661Y-51457D01*
X63631Y-51384D01*
X63585Y-51338D01*
X63631Y-51292D01*
X63661Y-51220D01*
X63661Y-51142D01*
X63631Y-51069D01*
X63576Y-51014D01*
X63503Y-50984D01*
X63464Y-50984D01*
X63434Y-50912D01*
X63379Y-50856D01*
X63346Y-50843D01*
X63346Y-48385D01*
X79921Y-48385D01*
X79921Y-49882D01*
X79891Y-49809D01*
X79836Y-49754D01*
X79763Y-49724D01*
X79685Y-49724D01*
X79613Y-49754D01*
X79557Y-49809D01*
X79527Y-49881D01*
X79527Y-49960D01*
X79557Y-50032D01*
X79612Y-50088D01*
X79685Y-50118D01*
X79763Y-50118D01*
X79835Y-50088D01*
X79891Y-50032D01*
X79921Y-49960D01*
X79921Y-49921D01*
X79921Y-53331D01*
X79862Y-53307D01*
X79783Y-53307D01*
X79711Y-53336D01*
X79694Y-53353D01*
X79678Y-53337D01*
X79606Y-53307D01*
X79527Y-53307D01*
X79455Y-53336D01*
X79400Y-53392D01*
X79370Y-53464D01*
X79370Y-53542D01*
X79399Y-53615D01*
X79455Y-53670D01*
X79527Y-53700D01*
X79605Y-53700D01*
X79678Y-53670D01*
X79694Y-53654D01*
X79711Y-53670D01*
X79783Y-53700D01*
X79861Y-53700D01*
X79921Y-53676D01*
X79921Y-58228D01*
X79921Y-58228D01*
G37*
G54D13*
X79921Y-58228D02*
X79507Y-58228D01*
X79507Y-56220D01*
X79478Y-56148D01*
X79422Y-56093D01*
X79350Y-56063D01*
X79272Y-56062D01*
X79199Y-56092D01*
X79183Y-56109D01*
X79166Y-56093D01*
X79094Y-56063D01*
X79016Y-56062D01*
X78943Y-56092D01*
X78888Y-56148D01*
X78858Y-56220D01*
X78858Y-56298D01*
X78888Y-56371D01*
X78943Y-56426D01*
X79015Y-56456D01*
X79094Y-56456D01*
X79166Y-56426D01*
X79183Y-56410D01*
X79199Y-56426D01*
X79271Y-56456D01*
X79350Y-56456D01*
X79422Y-56426D01*
X79477Y-56371D01*
X79507Y-56299D01*
X79507Y-56220D01*
X79507Y-58228D01*
X78700Y-58228D01*
X78700Y-50531D01*
X78670Y-50459D01*
X78615Y-50404D01*
X78543Y-50374D01*
X78464Y-50373D01*
X78392Y-50403D01*
X78337Y-50459D01*
X78307Y-50531D01*
X78307Y-50609D01*
X78336Y-50682D01*
X78392Y-50737D01*
X78464Y-50767D01*
X78542Y-50767D01*
X78615Y-50737D01*
X78670Y-50682D01*
X78700Y-50610D01*
X78700Y-50531D01*
X78700Y-58228D01*
X78563Y-58228D01*
X78563Y-53563D01*
X78533Y-53491D01*
X78477Y-53435D01*
X78405Y-53405D01*
X78327Y-53405D01*
X78254Y-53435D01*
X78199Y-53490D01*
X78169Y-53563D01*
X78169Y-53641D01*
X78199Y-53713D01*
X78254Y-53769D01*
X78326Y-53799D01*
X78405Y-53799D01*
X78477Y-53769D01*
X78532Y-53714D01*
X78562Y-53641D01*
X78563Y-53563D01*
X78563Y-58228D01*
X77657Y-58228D01*
X77657Y-53268D01*
X77627Y-53195D01*
X77598Y-53166D01*
X77598Y-49409D01*
X77568Y-49337D01*
X77513Y-49282D01*
X77440Y-49252D01*
X77362Y-49251D01*
X77362Y-49252D01*
X77362Y-48799D01*
X77332Y-48727D01*
X77277Y-48671D01*
X77204Y-48641D01*
X77126Y-48641D01*
X77053Y-48671D01*
X76998Y-48726D01*
X76968Y-48799D01*
X76968Y-48877D01*
X76998Y-48949D01*
X77053Y-49005D01*
X77126Y-49035D01*
X77204Y-49035D01*
X77276Y-49005D01*
X77332Y-48950D01*
X77362Y-48877D01*
X77362Y-48799D01*
X77362Y-49252D01*
X77290Y-49281D01*
X77234Y-49337D01*
X77204Y-49409D01*
X77204Y-49487D01*
X77234Y-49560D01*
X77289Y-49615D01*
X77362Y-49645D01*
X77440Y-49645D01*
X77512Y-49615D01*
X77568Y-49560D01*
X77598Y-49488D01*
X77598Y-49409D01*
X77598Y-53166D01*
X77572Y-53140D01*
X77499Y-53110D01*
X77421Y-53110D01*
X77349Y-53140D01*
X77293Y-53195D01*
X77263Y-53267D01*
X77263Y-53346D01*
X77293Y-53418D01*
X77348Y-53473D01*
X77421Y-53503D01*
X77499Y-53503D01*
X77571Y-53474D01*
X77627Y-53418D01*
X77657Y-53346D01*
X77657Y-53268D01*
X77657Y-58228D01*
X77362Y-58228D01*
X77362Y-53878D01*
X77332Y-53805D01*
X77277Y-53750D01*
X77204Y-53720D01*
X77126Y-53720D01*
X77066Y-53744D01*
X77066Y-51614D01*
X77037Y-51542D01*
X76981Y-51486D01*
X76909Y-51456D01*
X76831Y-51456D01*
X76758Y-51486D01*
X76703Y-51541D01*
X76673Y-51614D01*
X76673Y-51692D01*
X76703Y-51764D01*
X76758Y-51820D01*
X76830Y-51850D01*
X76909Y-51850D01*
X76981Y-51820D01*
X77036Y-51765D01*
X77066Y-51692D01*
X77066Y-51614D01*
X77066Y-53744D01*
X77053Y-53750D01*
X76998Y-53805D01*
X76968Y-53877D01*
X76968Y-53956D01*
X76998Y-54028D01*
X77053Y-54084D01*
X77126Y-54114D01*
X77204Y-54114D01*
X77276Y-54084D01*
X77332Y-54028D01*
X77362Y-53956D01*
X77362Y-53878D01*
X77362Y-58228D01*
X76023Y-58228D01*
X76023Y-56260D01*
X75993Y-56187D01*
X75938Y-56132D01*
X75866Y-56102D01*
X75787Y-56102D01*
X75715Y-56132D01*
X75659Y-56187D01*
X75629Y-56259D01*
X75629Y-56338D01*
X75659Y-56410D01*
X75715Y-56465D01*
X75787Y-56496D01*
X75865Y-56496D01*
X75938Y-56466D01*
X75993Y-56410D01*
X76023Y-56338D01*
X76023Y-56260D01*
X76023Y-58228D01*
X74271Y-58228D01*
X74271Y-53169D01*
X74241Y-53097D01*
X74186Y-53041D01*
X74114Y-53011D01*
X74035Y-53011D01*
X73963Y-53041D01*
X73908Y-53097D01*
X73877Y-53169D01*
X73877Y-53247D01*
X73907Y-53320D01*
X73963Y-53375D01*
X74035Y-53405D01*
X74113Y-53405D01*
X74186Y-53375D01*
X74241Y-53320D01*
X74271Y-53247D01*
X74271Y-53169D01*
X74271Y-58228D01*
X73956Y-58228D01*
X73956Y-56024D01*
X73956Y-53858D01*
X73926Y-53786D01*
X73871Y-53730D01*
X73799Y-53700D01*
X73720Y-53700D01*
X73648Y-53730D01*
X73593Y-53785D01*
X73563Y-53858D01*
X73562Y-53936D01*
X73592Y-54008D01*
X73648Y-54064D01*
X73720Y-54094D01*
X73798Y-54094D01*
X73871Y-54064D01*
X73926Y-54009D01*
X73956Y-53936D01*
X73956Y-53858D01*
X73956Y-56024D01*
X73926Y-55951D01*
X73871Y-55896D01*
X73799Y-55866D01*
X73720Y-55866D01*
X73648Y-55896D01*
X73593Y-55951D01*
X73563Y-56023D01*
X73562Y-56101D01*
X73592Y-56174D01*
X73648Y-56229D01*
X73720Y-56259D01*
X73798Y-56259D01*
X73871Y-56229D01*
X73926Y-56174D01*
X73956Y-56102D01*
X73956Y-56024D01*
X73956Y-58228D01*
X73326Y-58228D01*
X73326Y-52775D01*
X73296Y-52703D01*
X73241Y-52648D01*
X73169Y-52618D01*
X73090Y-52618D01*
X73018Y-52647D01*
X72963Y-52703D01*
X72933Y-52775D01*
X72933Y-52853D01*
X72962Y-52926D01*
X73018Y-52981D01*
X73090Y-53011D01*
X73168Y-53011D01*
X73241Y-52981D01*
X73296Y-52926D01*
X73326Y-52854D01*
X73326Y-52775D01*
X73326Y-58228D01*
X72933Y-58228D01*
X72933Y-53169D01*
X72903Y-53097D01*
X72847Y-53041D01*
X72775Y-53011D01*
X72697Y-53011D01*
X72624Y-53041D01*
X72598Y-53068D01*
X72598Y-50925D01*
X72568Y-50853D01*
X72513Y-50797D01*
X72440Y-50767D01*
X72362Y-50767D01*
X72290Y-50797D01*
X72234Y-50852D01*
X72204Y-50925D01*
X72204Y-51003D01*
X72234Y-51075D01*
X72289Y-51131D01*
X72362Y-51161D01*
X72440Y-51161D01*
X72512Y-51131D01*
X72568Y-51076D01*
X72598Y-51003D01*
X72598Y-50925D01*
X72598Y-53068D01*
X72569Y-53097D01*
X72539Y-53169D01*
X72539Y-53247D01*
X72569Y-53320D01*
X72624Y-53375D01*
X72696Y-53405D01*
X72775Y-53405D01*
X72847Y-53375D01*
X72903Y-53320D01*
X72933Y-53247D01*
X72933Y-53169D01*
X72933Y-58228D01*
X72726Y-58228D01*
X72726Y-53720D01*
X72696Y-53648D01*
X72641Y-53593D01*
X72568Y-53563D01*
X72490Y-53562D01*
X72418Y-53592D01*
X72362Y-53648D01*
X72332Y-53720D01*
X72332Y-53798D01*
X72362Y-53871D01*
X72417Y-53926D01*
X72490Y-53956D01*
X72568Y-53956D01*
X72640Y-53926D01*
X72696Y-53871D01*
X72726Y-53799D01*
X72726Y-53720D01*
X72726Y-58228D01*
X72224Y-58228D01*
X72224Y-55551D01*
X72194Y-55479D01*
X72139Y-55423D01*
X72126Y-55418D01*
X72126Y-52126D01*
X72096Y-52053D01*
X72040Y-51998D01*
X72027Y-51993D01*
X72027Y-50630D01*
X71997Y-50557D01*
X71942Y-50502D01*
X71870Y-50472D01*
X71791Y-50472D01*
X71719Y-50502D01*
X71663Y-50557D01*
X71633Y-50629D01*
X71633Y-50708D01*
X71663Y-50780D01*
X71719Y-50836D01*
X71791Y-50866D01*
X71869Y-50866D01*
X71942Y-50836D01*
X71997Y-50780D01*
X72027Y-50708D01*
X72027Y-50630D01*
X72027Y-51993D01*
X71968Y-51968D01*
X71901Y-51968D01*
X71879Y-51916D01*
X71824Y-51860D01*
X71751Y-51830D01*
X71673Y-51830D01*
X71603Y-51859D01*
X71603Y-51130D01*
X71574Y-51061D01*
X71522Y-51008D01*
X71453Y-50980D01*
X71379Y-50980D01*
X71310Y-51008D01*
X71285Y-51033D01*
X71260Y-51008D01*
X71209Y-50988D01*
X71209Y-50212D01*
X71181Y-50143D01*
X71128Y-50091D01*
X71073Y-50068D01*
X71050Y-50012D01*
X70997Y-49960D01*
X70929Y-49931D01*
X70854Y-49931D01*
X70785Y-49959D01*
X70733Y-50012D01*
X70710Y-50068D01*
X70654Y-50090D01*
X70610Y-50135D01*
X70610Y-49370D01*
X70580Y-49298D01*
X70525Y-49242D01*
X70452Y-49212D01*
X70374Y-49212D01*
X70302Y-49242D01*
X70246Y-49297D01*
X70216Y-49370D01*
X70216Y-49448D01*
X70246Y-49520D01*
X70301Y-49576D01*
X70374Y-49606D01*
X70452Y-49606D01*
X70524Y-49576D01*
X70580Y-49521D01*
X70610Y-49448D01*
X70610Y-49370D01*
X70610Y-50135D01*
X70602Y-50143D01*
X70579Y-50198D01*
X70522Y-50222D01*
X70469Y-50274D01*
X70441Y-50343D01*
X70441Y-50417D01*
X70469Y-50486D01*
X70522Y-50539D01*
X70590Y-50567D01*
X70665Y-50567D01*
X70734Y-50539D01*
X70786Y-50486D01*
X70809Y-50431D01*
X70866Y-50408D01*
X70891Y-50382D01*
X70916Y-50408D01*
X70985Y-50436D01*
X71059Y-50436D01*
X71128Y-50408D01*
X71181Y-50355D01*
X71209Y-50286D01*
X71209Y-50212D01*
X71209Y-50988D01*
X71204Y-50985D01*
X71181Y-50930D01*
X71128Y-50877D01*
X71060Y-50849D01*
X70985Y-50849D01*
X70917Y-50877D01*
X70864Y-50930D01*
X70841Y-50985D01*
X70785Y-51008D01*
X70733Y-51061D01*
X70704Y-51129D01*
X70704Y-51204D01*
X70733Y-51273D01*
X70758Y-51298D01*
X70733Y-51323D01*
X70704Y-51392D01*
X70704Y-51466D01*
X70733Y-51535D01*
X70785Y-51587D01*
X70854Y-51616D01*
X70928Y-51616D01*
X70997Y-51588D01*
X71022Y-51562D01*
X71047Y-51587D01*
X71116Y-51616D01*
X71190Y-51616D01*
X71259Y-51588D01*
X71312Y-51535D01*
X71340Y-51466D01*
X71340Y-51392D01*
X71314Y-51327D01*
X71378Y-51354D01*
X71453Y-51354D01*
X71521Y-51325D01*
X71574Y-51273D01*
X71603Y-51204D01*
X71603Y-51130D01*
X71603Y-51859D01*
X71601Y-51860D01*
X71545Y-51915D01*
X71515Y-51988D01*
X71515Y-52066D01*
X71545Y-52138D01*
X71600Y-52194D01*
X71673Y-52224D01*
X71740Y-52224D01*
X71762Y-52276D01*
X71817Y-52332D01*
X71889Y-52362D01*
X71968Y-52362D01*
X72040Y-52332D01*
X72095Y-52277D01*
X72125Y-52204D01*
X72126Y-52126D01*
X72126Y-55418D01*
X72066Y-55393D01*
X71988Y-55393D01*
X71988Y-55393D01*
X71988Y-54350D01*
X71958Y-54278D01*
X71902Y-54222D01*
X71830Y-54192D01*
X71752Y-54192D01*
X71679Y-54222D01*
X71624Y-54278D01*
X71594Y-54350D01*
X71594Y-54428D01*
X71624Y-54501D01*
X71679Y-54556D01*
X71752Y-54586D01*
X71830Y-54586D01*
X71902Y-54556D01*
X71958Y-54501D01*
X71988Y-54429D01*
X71988Y-54350D01*
X71988Y-55393D01*
X71916Y-55423D01*
X71860Y-55478D01*
X71830Y-55551D01*
X71830Y-55629D01*
X71860Y-55701D01*
X71915Y-55757D01*
X71988Y-55787D01*
X72066Y-55787D01*
X72138Y-55757D01*
X72194Y-55702D01*
X72224Y-55629D01*
X72224Y-55551D01*
X72224Y-58228D01*
X71988Y-58228D01*
X71988Y-55945D01*
X71958Y-55872D01*
X71902Y-55817D01*
X71830Y-55787D01*
X71752Y-55787D01*
X71679Y-55817D01*
X71624Y-55872D01*
X71614Y-55897D01*
X71614Y-55335D01*
X71584Y-55262D01*
X71528Y-55207D01*
X71472Y-55183D01*
X71472Y-53621D01*
X71443Y-53552D01*
X71418Y-53527D01*
X71443Y-53502D01*
X71472Y-53433D01*
X71472Y-53359D01*
X71443Y-53290D01*
X71391Y-53237D01*
X71322Y-53209D01*
X71248Y-53209D01*
X71182Y-53235D01*
X71204Y-53184D01*
X71259Y-53161D01*
X71312Y-53108D01*
X71340Y-53040D01*
X71340Y-52965D01*
X71312Y-52896D01*
X71287Y-52871D01*
X71312Y-52846D01*
X71340Y-52777D01*
X71340Y-52703D01*
X71312Y-52634D01*
X71260Y-52582D01*
X71191Y-52553D01*
X71116Y-52553D01*
X71048Y-52581D01*
X70995Y-52634D01*
X70966Y-52703D01*
X70966Y-52777D01*
X70995Y-52846D01*
X71020Y-52871D01*
X70995Y-52896D01*
X70972Y-52952D01*
X70917Y-52975D01*
X70864Y-53027D01*
X70841Y-53082D01*
X70784Y-53106D01*
X70732Y-53158D01*
X70703Y-53227D01*
X70703Y-53301D01*
X70731Y-53370D01*
X70784Y-53423D01*
X70841Y-53447D01*
X70864Y-53501D01*
X70889Y-53527D01*
X70864Y-53552D01*
X70835Y-53620D01*
X70835Y-53695D01*
X70864Y-53764D01*
X70889Y-53789D01*
X70864Y-53814D01*
X70841Y-53869D01*
X70789Y-53890D01*
X70816Y-53826D01*
X70816Y-53752D01*
X70788Y-53683D01*
X70735Y-53630D01*
X70666Y-53602D01*
X70592Y-53602D01*
X70523Y-53630D01*
X70471Y-53683D01*
X70442Y-53752D01*
X70442Y-53826D01*
X70470Y-53895D01*
X70523Y-53947D01*
X70592Y-53976D01*
X70666Y-53976D01*
X70730Y-53950D01*
X70703Y-54014D01*
X70703Y-54088D01*
X70731Y-54157D01*
X70784Y-54210D01*
X70853Y-54238D01*
X70927Y-54238D01*
X70996Y-54210D01*
X71048Y-54157D01*
X71071Y-54102D01*
X71128Y-54079D01*
X71181Y-54026D01*
X71209Y-53957D01*
X71209Y-53883D01*
X71182Y-53818D01*
X71247Y-53845D01*
X71322Y-53845D01*
X71390Y-53816D01*
X71443Y-53764D01*
X71472Y-53695D01*
X71472Y-53621D01*
X71472Y-55183D01*
X71456Y-55177D01*
X71378Y-55177D01*
X71305Y-55207D01*
X71250Y-55262D01*
X71220Y-55334D01*
X71220Y-55157D01*
X71190Y-55085D01*
X71135Y-55030D01*
X71062Y-55000D01*
X70984Y-54999D01*
X70912Y-55029D01*
X70856Y-55085D01*
X70826Y-55157D01*
X70826Y-55235D01*
X70856Y-55308D01*
X70911Y-55363D01*
X70984Y-55393D01*
X71062Y-55393D01*
X71134Y-55363D01*
X71190Y-55308D01*
X71220Y-55236D01*
X71220Y-55157D01*
X71220Y-55334D01*
X71220Y-55413D01*
X71250Y-55485D01*
X71305Y-55540D01*
X71377Y-55570D01*
X71456Y-55570D01*
X71528Y-55540D01*
X71584Y-55485D01*
X71614Y-55413D01*
X71614Y-55335D01*
X71614Y-55897D01*
X71594Y-55944D01*
X71594Y-56023D01*
X71624Y-56095D01*
X71679Y-56151D01*
X71752Y-56181D01*
X71830Y-56181D01*
X71902Y-56151D01*
X71958Y-56095D01*
X71988Y-56023D01*
X71988Y-55945D01*
X71988Y-58228D01*
X70787Y-58228D01*
X70787Y-54705D01*
X70757Y-54632D01*
X70702Y-54577D01*
X70629Y-54547D01*
X70551Y-54547D01*
X70479Y-54577D01*
X70423Y-54632D01*
X70393Y-54704D01*
X70393Y-54783D01*
X70423Y-54855D01*
X70478Y-54910D01*
X70551Y-54940D01*
X70629Y-54940D01*
X70701Y-54911D01*
X70757Y-54855D01*
X70787Y-54783D01*
X70787Y-54705D01*
X70787Y-58228D01*
X69822Y-58228D01*
X69822Y-49114D01*
X69792Y-49042D01*
X69737Y-48986D01*
X69736Y-48986D01*
X69737Y-48985D01*
X69792Y-48930D01*
X69822Y-48858D01*
X69822Y-48779D01*
X69792Y-48707D01*
X69737Y-48652D01*
X69665Y-48622D01*
X69587Y-48622D01*
X69514Y-48651D01*
X69459Y-48707D01*
X69429Y-48779D01*
X69429Y-48857D01*
X69459Y-48930D01*
X69514Y-48985D01*
X69515Y-48986D01*
X69514Y-48986D01*
X69459Y-49041D01*
X69429Y-49114D01*
X69429Y-49192D01*
X69459Y-49264D01*
X69514Y-49320D01*
X69586Y-49350D01*
X69664Y-49350D01*
X69737Y-49320D01*
X69792Y-49265D01*
X69822Y-49192D01*
X69822Y-49114D01*
X69822Y-58228D01*
X69767Y-58228D01*
X69767Y-54276D01*
X69739Y-54207D01*
X69713Y-54182D01*
X69737Y-54157D01*
X69766Y-54088D01*
X69766Y-54014D01*
X69738Y-53945D01*
X69685Y-53893D01*
X69636Y-53872D01*
X69636Y-50212D01*
X69608Y-50143D01*
X69555Y-50091D01*
X69486Y-50062D01*
X69412Y-50062D01*
X69409Y-50063D01*
X69409Y-48819D01*
X69379Y-48746D01*
X69324Y-48691D01*
X69251Y-48661D01*
X69173Y-48661D01*
X69101Y-48691D01*
X69045Y-48746D01*
X69015Y-48818D01*
X69015Y-48897D01*
X69045Y-48969D01*
X69100Y-49025D01*
X69173Y-49055D01*
X69251Y-49055D01*
X69323Y-49025D01*
X69379Y-48969D01*
X69409Y-48897D01*
X69409Y-48819D01*
X69409Y-50063D01*
X69343Y-50090D01*
X69291Y-50143D01*
X69268Y-50198D01*
X69211Y-50222D01*
X69158Y-50274D01*
X69135Y-50330D01*
X69081Y-50353D01*
X69028Y-50405D01*
X69000Y-50474D01*
X69000Y-50548D01*
X69028Y-50617D01*
X69081Y-50670D01*
X69150Y-50698D01*
X69224Y-50698D01*
X69293Y-50670D01*
X69345Y-50617D01*
X69369Y-50561D01*
X69423Y-50539D01*
X69475Y-50486D01*
X69498Y-50431D01*
X69555Y-50408D01*
X69608Y-50355D01*
X69636Y-50286D01*
X69636Y-50212D01*
X69636Y-53872D01*
X69616Y-53864D01*
X69542Y-53864D01*
X69478Y-53890D01*
X69505Y-53826D01*
X69505Y-53752D01*
X69477Y-53683D01*
X69424Y-53630D01*
X69355Y-53602D01*
X69281Y-53602D01*
X69212Y-53630D01*
X69187Y-53656D01*
X69162Y-53630D01*
X69093Y-53602D01*
X69019Y-53602D01*
X68981Y-53618D01*
X68981Y-50605D01*
X68952Y-50537D01*
X68900Y-50484D01*
X68831Y-50455D01*
X68757Y-50455D01*
X68690Y-50483D01*
X68712Y-50431D01*
X68768Y-50408D01*
X68821Y-50355D01*
X68849Y-50286D01*
X68850Y-50212D01*
X68821Y-50143D01*
X68779Y-50101D01*
X68779Y-48642D01*
X68749Y-48569D01*
X68694Y-48514D01*
X68622Y-48484D01*
X68543Y-48484D01*
X68471Y-48514D01*
X68415Y-48569D01*
X68385Y-48641D01*
X68385Y-48720D01*
X68415Y-48792D01*
X68471Y-48847D01*
X68543Y-48877D01*
X68621Y-48877D01*
X68694Y-48848D01*
X68749Y-48792D01*
X68779Y-48720D01*
X68779Y-48642D01*
X68779Y-50101D01*
X68769Y-50091D01*
X68700Y-50062D01*
X68625Y-50062D01*
X68557Y-50090D01*
X68504Y-50143D01*
X68481Y-50198D01*
X68424Y-50222D01*
X68399Y-50247D01*
X68374Y-50222D01*
X68305Y-50193D01*
X68231Y-50193D01*
X68162Y-50222D01*
X68110Y-50274D01*
X68110Y-49685D01*
X68080Y-49613D01*
X68070Y-49603D01*
X68070Y-48740D01*
X68040Y-48668D01*
X67985Y-48612D01*
X67913Y-48582D01*
X67835Y-48582D01*
X67762Y-48612D01*
X67707Y-48667D01*
X67677Y-48740D01*
X67677Y-48818D01*
X67707Y-48890D01*
X67762Y-48946D01*
X67834Y-48976D01*
X67913Y-48976D01*
X67985Y-48946D01*
X68040Y-48891D01*
X68070Y-48818D01*
X68070Y-48740D01*
X68070Y-49603D01*
X68025Y-49557D01*
X67952Y-49527D01*
X67874Y-49527D01*
X67802Y-49557D01*
X67746Y-49612D01*
X67716Y-49685D01*
X67716Y-49763D01*
X67746Y-49835D01*
X67801Y-49891D01*
X67874Y-49921D01*
X67952Y-49921D01*
X68024Y-49891D01*
X68080Y-49836D01*
X68110Y-49763D01*
X68110Y-49685D01*
X68110Y-50274D01*
X68110Y-50274D01*
X68081Y-50343D01*
X68081Y-50417D01*
X68109Y-50486D01*
X68162Y-50539D01*
X68231Y-50567D01*
X68305Y-50567D01*
X68374Y-50539D01*
X68399Y-50514D01*
X68424Y-50539D01*
X68493Y-50567D01*
X68567Y-50567D01*
X68634Y-50540D01*
X68607Y-50605D01*
X68607Y-50679D01*
X68635Y-50748D01*
X68688Y-50801D01*
X68756Y-50829D01*
X68831Y-50829D01*
X68899Y-50801D01*
X68952Y-50748D01*
X68981Y-50680D01*
X68981Y-50605D01*
X68981Y-53618D01*
X68950Y-53630D01*
X68897Y-53683D01*
X68874Y-53738D01*
X68819Y-53761D01*
X68766Y-53814D01*
X68738Y-53883D01*
X68738Y-53957D01*
X68766Y-54026D01*
X68791Y-54051D01*
X68766Y-54076D01*
X68738Y-54145D01*
X68738Y-54219D01*
X68766Y-54288D01*
X68819Y-54341D01*
X68887Y-54369D01*
X68962Y-54369D01*
X69030Y-54341D01*
X69083Y-54288D01*
X69112Y-54220D01*
X69112Y-54145D01*
X69085Y-54080D01*
X69150Y-54107D01*
X69224Y-54107D01*
X69293Y-54079D01*
X69345Y-54026D01*
X69368Y-53970D01*
X69419Y-53950D01*
X69392Y-54014D01*
X69392Y-54088D01*
X69420Y-54157D01*
X69446Y-54183D01*
X69422Y-54207D01*
X69399Y-54263D01*
X69343Y-54286D01*
X69291Y-54338D01*
X69262Y-54407D01*
X69262Y-54481D01*
X69290Y-54550D01*
X69343Y-54603D01*
X69412Y-54631D01*
X69486Y-54631D01*
X69555Y-54603D01*
X69608Y-54550D01*
X69631Y-54495D01*
X69686Y-54472D01*
X69739Y-54419D01*
X69767Y-54351D01*
X69767Y-54276D01*
X69767Y-58228D01*
X69035Y-58228D01*
X69035Y-56201D01*
X69005Y-56128D01*
X68950Y-56073D01*
X68937Y-56067D01*
X68937Y-54961D01*
X68907Y-54888D01*
X68851Y-54833D01*
X68779Y-54803D01*
X68718Y-54803D01*
X68718Y-53752D01*
X68690Y-53683D01*
X68637Y-53630D01*
X68587Y-53610D01*
X68587Y-50736D01*
X68559Y-50668D01*
X68506Y-50615D01*
X68438Y-50587D01*
X68363Y-50586D01*
X68294Y-50615D01*
X68242Y-50667D01*
X68213Y-50736D01*
X68213Y-50811D01*
X68242Y-50879D01*
X68294Y-50932D01*
X68363Y-50960D01*
X68437Y-50961D01*
X68506Y-50932D01*
X68559Y-50880D01*
X68587Y-50811D01*
X68587Y-50736D01*
X68587Y-53610D01*
X68569Y-53602D01*
X68494Y-53602D01*
X68426Y-53630D01*
X68373Y-53683D01*
X68344Y-53752D01*
X68344Y-53826D01*
X68371Y-53892D01*
X68320Y-53870D01*
X68297Y-53814D01*
X68244Y-53762D01*
X68188Y-53738D01*
X68166Y-53683D01*
X68113Y-53630D01*
X68044Y-53602D01*
X67970Y-53602D01*
X67905Y-53629D01*
X67932Y-53564D01*
X67932Y-53490D01*
X67903Y-53421D01*
X67878Y-53395D01*
X67902Y-53371D01*
X67931Y-53302D01*
X67931Y-53227D01*
X67902Y-53159D01*
X67878Y-53134D01*
X67903Y-53108D01*
X67932Y-53040D01*
X67932Y-52965D01*
X67903Y-52896D01*
X67878Y-52871D01*
X67903Y-52846D01*
X67926Y-52790D01*
X67982Y-52768D01*
X68034Y-52715D01*
X68063Y-52646D01*
X68063Y-52572D01*
X68035Y-52503D01*
X68009Y-52478D01*
X68034Y-52453D01*
X68063Y-52384D01*
X68063Y-52310D01*
X68035Y-52241D01*
X67982Y-52188D01*
X67926Y-52165D01*
X67903Y-52110D01*
X67851Y-52057D01*
X67795Y-52034D01*
X67774Y-51982D01*
X67839Y-52009D01*
X67913Y-52009D01*
X67982Y-51981D01*
X68034Y-51928D01*
X68063Y-51860D01*
X68063Y-51785D01*
X68035Y-51717D01*
X68009Y-51691D01*
X68034Y-51666D01*
X68063Y-51597D01*
X68063Y-51523D01*
X68035Y-51454D01*
X68009Y-51429D01*
X68034Y-51404D01*
X68063Y-51335D01*
X68063Y-51261D01*
X68035Y-51192D01*
X67982Y-51139D01*
X67926Y-51116D01*
X67903Y-51061D01*
X67878Y-51035D01*
X67902Y-51011D01*
X67931Y-50942D01*
X67931Y-50868D01*
X67902Y-50799D01*
X67850Y-50746D01*
X67781Y-50718D01*
X67707Y-50718D01*
X67638Y-50746D01*
X67585Y-50799D01*
X67562Y-50855D01*
X67508Y-50877D01*
X67455Y-50930D01*
X67427Y-50998D01*
X67427Y-51073D01*
X67455Y-51142D01*
X67480Y-51167D01*
X67455Y-51192D01*
X67427Y-51261D01*
X67427Y-51335D01*
X67455Y-51404D01*
X67480Y-51429D01*
X67455Y-51454D01*
X67432Y-51509D01*
X67376Y-51533D01*
X67323Y-51585D01*
X67294Y-51654D01*
X67294Y-51728D01*
X67323Y-51797D01*
X67375Y-51850D01*
X67444Y-51878D01*
X67518Y-51878D01*
X67587Y-51850D01*
X67612Y-51825D01*
X67638Y-51850D01*
X67695Y-51873D01*
X67716Y-51924D01*
X67651Y-51898D01*
X67577Y-51897D01*
X67508Y-51926D01*
X67455Y-51978D01*
X67432Y-52034D01*
X67377Y-52057D01*
X67324Y-52110D01*
X67296Y-52178D01*
X67296Y-52253D01*
X67324Y-52321D01*
X67377Y-52374D01*
X67432Y-52397D01*
X67455Y-52453D01*
X67480Y-52478D01*
X67455Y-52503D01*
X67432Y-52559D01*
X67377Y-52581D01*
X67324Y-52634D01*
X67296Y-52703D01*
X67296Y-52777D01*
X67324Y-52846D01*
X67377Y-52898D01*
X67432Y-52922D01*
X67455Y-52977D01*
X67480Y-53002D01*
X67455Y-53027D01*
X67432Y-53082D01*
X67376Y-53106D01*
X67323Y-53158D01*
X67294Y-53227D01*
X67294Y-53301D01*
X67323Y-53370D01*
X67375Y-53423D01*
X67432Y-53447D01*
X67455Y-53501D01*
X67508Y-53554D01*
X67563Y-53577D01*
X67586Y-53632D01*
X67611Y-53658D01*
X67586Y-53683D01*
X67558Y-53752D01*
X67558Y-53826D01*
X67586Y-53895D01*
X67639Y-53947D01*
X67707Y-53976D01*
X67782Y-53976D01*
X67851Y-53948D01*
X67876Y-53922D01*
X67901Y-53947D01*
X67957Y-53970D01*
X67979Y-54026D01*
X68005Y-54051D01*
X67980Y-54076D01*
X67951Y-54145D01*
X67951Y-54219D01*
X67979Y-54288D01*
X68032Y-54341D01*
X68101Y-54369D01*
X68175Y-54369D01*
X68244Y-54341D01*
X68269Y-54316D01*
X68294Y-54341D01*
X68363Y-54369D01*
X68437Y-54369D01*
X68506Y-54341D01*
X68559Y-54288D01*
X68587Y-54220D01*
X68587Y-54145D01*
X68559Y-54076D01*
X68506Y-54024D01*
X68449Y-54000D01*
X68428Y-53948D01*
X68494Y-53976D01*
X68568Y-53976D01*
X68637Y-53948D01*
X68690Y-53895D01*
X68718Y-53826D01*
X68718Y-53752D01*
X68718Y-54803D01*
X68701Y-54803D01*
X68628Y-54833D01*
X68573Y-54888D01*
X68543Y-54960D01*
X68543Y-55038D01*
X68573Y-55111D01*
X68628Y-55166D01*
X68700Y-55196D01*
X68779Y-55196D01*
X68851Y-55166D01*
X68906Y-55111D01*
X68936Y-55039D01*
X68937Y-54961D01*
X68937Y-56067D01*
X68877Y-56043D01*
X68799Y-56043D01*
X68727Y-56073D01*
X68671Y-56128D01*
X68641Y-56200D01*
X68641Y-56279D01*
X68671Y-56351D01*
X68726Y-56406D01*
X68799Y-56436D01*
X68877Y-56437D01*
X68949Y-56407D01*
X69005Y-56351D01*
X69035Y-56279D01*
X69035Y-56201D01*
X69035Y-58228D01*
X68602Y-58228D01*
X68602Y-56201D01*
X68572Y-56128D01*
X68517Y-56073D01*
X68444Y-56043D01*
X68366Y-56043D01*
X68307Y-56067D01*
X68307Y-55590D01*
X68277Y-55518D01*
X68221Y-55463D01*
X68149Y-55433D01*
X68071Y-55433D01*
X68001Y-55461D01*
X67933Y-55433D01*
X67854Y-55433D01*
X67782Y-55462D01*
X67726Y-55518D01*
X67696Y-55590D01*
X67696Y-55649D01*
X67666Y-55577D01*
X67611Y-55522D01*
X67539Y-55492D01*
X67539Y-54370D01*
X67509Y-54298D01*
X67454Y-54242D01*
X67381Y-54212D01*
X67303Y-54212D01*
X67231Y-54242D01*
X67185Y-54288D01*
X67185Y-52992D01*
X67185Y-51949D01*
X67155Y-51876D01*
X67099Y-51821D01*
X67027Y-51791D01*
X66983Y-51791D01*
X66978Y-51778D01*
X66931Y-51732D01*
X66977Y-51686D01*
X67007Y-51614D01*
X67007Y-51535D01*
X66978Y-51463D01*
X66922Y-51408D01*
X66850Y-51377D01*
X66850Y-51377D01*
X66820Y-51305D01*
X66766Y-51252D01*
X66771Y-51240D01*
X66771Y-51164D01*
X66811Y-51181D01*
X66889Y-51181D01*
X66961Y-51151D01*
X67017Y-51095D01*
X67047Y-51023D01*
X67047Y-50945D01*
X67017Y-50872D01*
X66968Y-50823D01*
X66968Y-50394D01*
X66938Y-50321D01*
X66883Y-50266D01*
X66810Y-50236D01*
X66732Y-50236D01*
X66660Y-50266D01*
X66604Y-50321D01*
X66574Y-50393D01*
X66574Y-50472D01*
X66604Y-50544D01*
X66660Y-50599D01*
X66732Y-50629D01*
X66810Y-50629D01*
X66883Y-50600D01*
X66938Y-50544D01*
X66968Y-50472D01*
X66968Y-50394D01*
X66968Y-50823D01*
X66962Y-50817D01*
X66889Y-50787D01*
X66811Y-50787D01*
X66739Y-50817D01*
X66683Y-50872D01*
X66653Y-50944D01*
X66653Y-51020D01*
X66614Y-51003D01*
X66535Y-51003D01*
X66463Y-51033D01*
X66408Y-51089D01*
X66377Y-51161D01*
X66377Y-51239D01*
X66407Y-51312D01*
X66461Y-51366D01*
X66456Y-51377D01*
X66456Y-51456D01*
X66486Y-51528D01*
X66522Y-51564D01*
X66486Y-51600D01*
X66456Y-51673D01*
X66456Y-51751D01*
X66486Y-51823D01*
X66541Y-51879D01*
X66614Y-51909D01*
X66614Y-51928D01*
X66644Y-52001D01*
X66699Y-52056D01*
X66771Y-52086D01*
X66815Y-52086D01*
X66821Y-52099D01*
X66876Y-52154D01*
X66948Y-52185D01*
X67027Y-52185D01*
X67099Y-52155D01*
X67154Y-52099D01*
X67185Y-52027D01*
X67185Y-51949D01*
X67185Y-52992D01*
X67155Y-52920D01*
X67099Y-52864D01*
X67086Y-52859D01*
X67086Y-52421D01*
X67056Y-52349D01*
X67001Y-52293D01*
X66929Y-52263D01*
X66850Y-52263D01*
X66778Y-52293D01*
X66722Y-52348D01*
X66692Y-52421D01*
X66692Y-52499D01*
X66722Y-52571D01*
X66778Y-52627D01*
X66850Y-52657D01*
X66928Y-52657D01*
X67001Y-52627D01*
X67056Y-52572D01*
X67086Y-52499D01*
X67086Y-52421D01*
X67086Y-52859D01*
X67027Y-52834D01*
X66949Y-52834D01*
X66876Y-52864D01*
X66870Y-52871D01*
X66863Y-52864D01*
X66791Y-52834D01*
X66712Y-52834D01*
X66712Y-52834D01*
X66712Y-52834D01*
X66712Y-52756D01*
X66682Y-52683D01*
X66627Y-52628D01*
X66555Y-52598D01*
X66476Y-52598D01*
X66404Y-52628D01*
X66348Y-52683D01*
X66318Y-52755D01*
X66318Y-52834D01*
X66348Y-52906D01*
X66355Y-52913D01*
X66348Y-52919D01*
X66318Y-52992D01*
X66318Y-53070D01*
X66348Y-53142D01*
X66401Y-53195D01*
X66338Y-53169D01*
X66260Y-53169D01*
X66187Y-53199D01*
X66132Y-53254D01*
X66102Y-53326D01*
X66102Y-53405D01*
X66132Y-53477D01*
X66187Y-53532D01*
X66259Y-53562D01*
X66338Y-53563D01*
X66410Y-53533D01*
X66465Y-53477D01*
X66496Y-53405D01*
X66496Y-53327D01*
X66466Y-53254D01*
X66413Y-53202D01*
X66476Y-53228D01*
X66554Y-53228D01*
X66627Y-53198D01*
X66633Y-53191D01*
X66640Y-53198D01*
X66712Y-53228D01*
X66790Y-53228D01*
X66863Y-53198D01*
X66870Y-53191D01*
X66876Y-53198D01*
X66948Y-53228D01*
X67027Y-53228D01*
X67099Y-53198D01*
X67154Y-53143D01*
X67185Y-53070D01*
X67185Y-52992D01*
X67185Y-54288D01*
X67175Y-54297D01*
X67165Y-54322D01*
X67165Y-53957D01*
X67135Y-53884D01*
X67080Y-53829D01*
X67007Y-53799D01*
X66948Y-53799D01*
X66948Y-53760D01*
X66918Y-53687D01*
X66863Y-53632D01*
X66791Y-53602D01*
X66712Y-53602D01*
X66640Y-53632D01*
X66585Y-53687D01*
X66555Y-53759D01*
X66555Y-53838D01*
X66584Y-53910D01*
X66640Y-53965D01*
X66712Y-53996D01*
X66771Y-53996D01*
X66771Y-54035D01*
X66801Y-54107D01*
X66856Y-54162D01*
X66929Y-54192D01*
X67007Y-54192D01*
X67079Y-54163D01*
X67135Y-54107D01*
X67165Y-54035D01*
X67165Y-53957D01*
X67165Y-54322D01*
X67145Y-54370D01*
X67145Y-54448D01*
X67175Y-54520D01*
X67230Y-54576D01*
X67303Y-54606D01*
X67381Y-54606D01*
X67453Y-54576D01*
X67509Y-54521D01*
X67539Y-54448D01*
X67539Y-54370D01*
X67539Y-55492D01*
X67539Y-55492D01*
X67461Y-55492D01*
X67388Y-55521D01*
X67333Y-55577D01*
X67321Y-55605D01*
X67277Y-55561D01*
X67204Y-55531D01*
X67126Y-55531D01*
X67053Y-55561D01*
X66998Y-55616D01*
X66988Y-55641D01*
X66978Y-55616D01*
X66922Y-55561D01*
X66850Y-55531D01*
X66772Y-55531D01*
X66732Y-55547D01*
X66732Y-55079D01*
X66702Y-55006D01*
X66647Y-54951D01*
X66574Y-54921D01*
X66496Y-54921D01*
X66424Y-54951D01*
X66368Y-55006D01*
X66338Y-55078D01*
X66338Y-55157D01*
X66368Y-55229D01*
X66423Y-55284D01*
X66496Y-55314D01*
X66574Y-55314D01*
X66646Y-55285D01*
X66702Y-55229D01*
X66732Y-55157D01*
X66732Y-55079D01*
X66732Y-55547D01*
X66699Y-55561D01*
X66644Y-55616D01*
X66614Y-55689D01*
X66614Y-55767D01*
X66644Y-55839D01*
X66699Y-55895D01*
X66771Y-55925D01*
X66850Y-55925D01*
X66922Y-55895D01*
X66977Y-55839D01*
X66988Y-55815D01*
X66998Y-55839D01*
X67053Y-55895D01*
X67126Y-55925D01*
X67204Y-55925D01*
X67276Y-55895D01*
X67332Y-55839D01*
X67344Y-55811D01*
X67388Y-55855D01*
X67460Y-55885D01*
X67538Y-55885D01*
X67611Y-55855D01*
X67666Y-55800D01*
X67696Y-55728D01*
X67696Y-55669D01*
X67726Y-55741D01*
X67782Y-55796D01*
X67854Y-55826D01*
X67932Y-55826D01*
X68002Y-55798D01*
X68070Y-55826D01*
X68149Y-55826D01*
X68221Y-55796D01*
X68277Y-55741D01*
X68307Y-55669D01*
X68307Y-55590D01*
X68307Y-56067D01*
X68294Y-56073D01*
X68238Y-56128D01*
X68208Y-56200D01*
X68208Y-56279D01*
X68238Y-56351D01*
X68293Y-56406D01*
X68366Y-56436D01*
X68444Y-56437D01*
X68516Y-56407D01*
X68572Y-56351D01*
X68602Y-56279D01*
X68602Y-56201D01*
X68602Y-58228D01*
X68307Y-58228D01*
X68307Y-56535D01*
X68277Y-56463D01*
X68221Y-56408D01*
X68149Y-56377D01*
X68071Y-56377D01*
X67998Y-56407D01*
X67943Y-56463D01*
X67913Y-56535D01*
X67913Y-56613D01*
X67943Y-56686D01*
X67998Y-56741D01*
X68070Y-56771D01*
X68149Y-56771D01*
X68221Y-56741D01*
X68277Y-56686D01*
X68307Y-56614D01*
X68307Y-56535D01*
X68307Y-58228D01*
X65649Y-58228D01*
X65649Y-53976D01*
X65619Y-53904D01*
X65610Y-53894D01*
X65610Y-53307D01*
X65580Y-53235D01*
X65525Y-53179D01*
X65452Y-53149D01*
X65377Y-53149D01*
X65363Y-53116D01*
X65317Y-53070D01*
X65363Y-53025D01*
X65393Y-52952D01*
X65393Y-52874D01*
X65363Y-52802D01*
X65317Y-52755D01*
X65363Y-52710D01*
X65393Y-52637D01*
X65393Y-52559D01*
X65363Y-52487D01*
X65317Y-52440D01*
X65363Y-52395D01*
X65393Y-52322D01*
X65393Y-52244D01*
X65363Y-52172D01*
X65317Y-52125D01*
X65363Y-52080D01*
X65393Y-52007D01*
X65393Y-51929D01*
X65363Y-51857D01*
X65317Y-51810D01*
X65363Y-51765D01*
X65393Y-51692D01*
X65393Y-51614D01*
X65363Y-51542D01*
X65317Y-51496D01*
X65363Y-51450D01*
X65393Y-51377D01*
X65393Y-51299D01*
X65363Y-51227D01*
X65317Y-51181D01*
X65363Y-51135D01*
X65393Y-51062D01*
X65393Y-50984D01*
X65393Y-50197D01*
X65363Y-50124D01*
X65308Y-50069D01*
X65236Y-50039D01*
X65157Y-50039D01*
X65085Y-50069D01*
X65030Y-50124D01*
X65000Y-50196D01*
X64999Y-50275D01*
X65029Y-50347D01*
X65085Y-50403D01*
X65157Y-50433D01*
X65235Y-50433D01*
X65308Y-50403D01*
X65363Y-50347D01*
X65393Y-50275D01*
X65393Y-50197D01*
X65393Y-50984D01*
X65363Y-50912D01*
X65308Y-50856D01*
X65236Y-50826D01*
X65157Y-50826D01*
X65085Y-50856D01*
X65030Y-50911D01*
X65000Y-50984D01*
X64999Y-51062D01*
X65029Y-51134D01*
X65075Y-51181D01*
X65030Y-51226D01*
X65000Y-51299D01*
X64999Y-51377D01*
X65029Y-51449D01*
X65075Y-51496D01*
X65030Y-51541D01*
X65000Y-51614D01*
X64999Y-51692D01*
X65029Y-51764D01*
X65075Y-51811D01*
X65030Y-51856D01*
X65000Y-51929D01*
X64999Y-52007D01*
X65029Y-52079D01*
X65075Y-52126D01*
X65030Y-52171D01*
X65000Y-52244D01*
X64999Y-52322D01*
X65029Y-52394D01*
X65075Y-52440D01*
X65030Y-52486D01*
X65000Y-52559D01*
X64999Y-52637D01*
X65029Y-52709D01*
X65075Y-52755D01*
X65030Y-52801D01*
X65000Y-52874D01*
X64999Y-52952D01*
X65029Y-53024D01*
X65075Y-53070D01*
X65030Y-53116D01*
X65000Y-53189D01*
X64999Y-53267D01*
X65029Y-53339D01*
X65085Y-53395D01*
X65157Y-53425D01*
X65232Y-53425D01*
X65246Y-53457D01*
X65301Y-53513D01*
X65374Y-53543D01*
X65452Y-53543D01*
X65524Y-53513D01*
X65580Y-53458D01*
X65610Y-53385D01*
X65610Y-53307D01*
X65610Y-53894D01*
X65564Y-53848D01*
X65492Y-53818D01*
X65413Y-53818D01*
X65341Y-53848D01*
X65324Y-53865D01*
X65308Y-53848D01*
X65236Y-53818D01*
X65157Y-53818D01*
X65085Y-53848D01*
X65030Y-53904D01*
X65000Y-53976D01*
X64999Y-54054D01*
X65029Y-54127D01*
X65085Y-54182D01*
X65157Y-54212D01*
X65235Y-54212D01*
X65308Y-54182D01*
X65324Y-54166D01*
X65341Y-54182D01*
X65413Y-54212D01*
X65491Y-54212D01*
X65564Y-54182D01*
X65619Y-54127D01*
X65649Y-54055D01*
X65649Y-53976D01*
X65649Y-58228D01*
X65590Y-58228D01*
X65590Y-54764D01*
X65560Y-54691D01*
X65505Y-54636D01*
X65433Y-54606D01*
X65357Y-54606D01*
X65363Y-54599D01*
X65393Y-54527D01*
X65393Y-54449D01*
X65363Y-54376D01*
X65308Y-54321D01*
X65236Y-54291D01*
X65157Y-54291D01*
X65085Y-54321D01*
X65030Y-54376D01*
X65000Y-54448D01*
X64999Y-54527D01*
X65029Y-54599D01*
X65085Y-54654D01*
X65157Y-54685D01*
X65233Y-54685D01*
X65226Y-54691D01*
X65196Y-54763D01*
X65196Y-54842D01*
X65226Y-54914D01*
X65282Y-54969D01*
X65354Y-54999D01*
X65432Y-55000D01*
X65505Y-54970D01*
X65560Y-54914D01*
X65590Y-54842D01*
X65590Y-54764D01*
X65590Y-58228D01*
X65393Y-58228D01*
X65393Y-55787D01*
X65363Y-55715D01*
X65317Y-55669D01*
X65363Y-55623D01*
X65393Y-55551D01*
X65393Y-55472D01*
X65363Y-55400D01*
X65308Y-55345D01*
X65236Y-55314D01*
X65157Y-55314D01*
X65085Y-55344D01*
X65030Y-55400D01*
X65000Y-55472D01*
X64999Y-55550D01*
X65029Y-55623D01*
X65075Y-55669D01*
X65030Y-55715D01*
X65000Y-55787D01*
X64999Y-55865D01*
X65029Y-55938D01*
X65085Y-55993D01*
X65157Y-56023D01*
X65235Y-56023D01*
X65308Y-55993D01*
X65363Y-55938D01*
X65393Y-55866D01*
X65393Y-55787D01*
X65393Y-58228D01*
X64566Y-58228D01*
X64566Y-53346D01*
X64537Y-53274D01*
X64490Y-53228D01*
X64536Y-53182D01*
X64566Y-53110D01*
X64566Y-53031D01*
X64537Y-52959D01*
X64490Y-52913D01*
X64536Y-52867D01*
X64566Y-52795D01*
X64566Y-52716D01*
X64537Y-52644D01*
X64490Y-52598D01*
X64536Y-52552D01*
X64566Y-52480D01*
X64566Y-52401D01*
X64537Y-52329D01*
X64490Y-52283D01*
X64536Y-52237D01*
X64566Y-52165D01*
X64566Y-52087D01*
X64537Y-52014D01*
X64490Y-51968D01*
X64536Y-51922D01*
X64566Y-51850D01*
X64566Y-51772D01*
X64537Y-51699D01*
X64490Y-51653D01*
X64536Y-51607D01*
X64566Y-51535D01*
X64566Y-51457D01*
X64537Y-51384D01*
X64490Y-51338D01*
X64536Y-51292D01*
X64566Y-51220D01*
X64566Y-51142D01*
X64537Y-51069D01*
X64481Y-51014D01*
X64409Y-50984D01*
X64331Y-50984D01*
X64258Y-51014D01*
X64203Y-51069D01*
X64173Y-51141D01*
X64173Y-51220D01*
X64203Y-51292D01*
X64249Y-51338D01*
X64203Y-51384D01*
X64173Y-51456D01*
X64173Y-51535D01*
X64203Y-51607D01*
X64249Y-51653D01*
X64203Y-51699D01*
X64173Y-51771D01*
X64173Y-51850D01*
X64203Y-51922D01*
X64249Y-51968D01*
X64203Y-52014D01*
X64173Y-52086D01*
X64173Y-52164D01*
X64203Y-52237D01*
X64249Y-52283D01*
X64203Y-52329D01*
X64173Y-52401D01*
X64173Y-52479D01*
X64203Y-52552D01*
X64249Y-52598D01*
X64203Y-52644D01*
X64173Y-52716D01*
X64173Y-52794D01*
X64203Y-52867D01*
X64249Y-52913D01*
X64203Y-52959D01*
X64173Y-53031D01*
X64173Y-53109D01*
X64203Y-53182D01*
X64249Y-53228D01*
X64203Y-53274D01*
X64173Y-53346D01*
X64173Y-53424D01*
X64203Y-53497D01*
X64258Y-53552D01*
X64330Y-53582D01*
X64409Y-53582D01*
X64481Y-53552D01*
X64536Y-53497D01*
X64566Y-53425D01*
X64566Y-53346D01*
X64566Y-58228D01*
X64527Y-58228D01*
X64527Y-55787D01*
X64497Y-55715D01*
X64451Y-55669D01*
X64497Y-55623D01*
X64527Y-55551D01*
X64527Y-55472D01*
X64497Y-55400D01*
X64490Y-55393D01*
X64497Y-55387D01*
X64527Y-55314D01*
X64527Y-55236D01*
X64497Y-55164D01*
X64442Y-55108D01*
X64370Y-55078D01*
X64291Y-55078D01*
X64219Y-55108D01*
X64163Y-55163D01*
X64133Y-55236D01*
X64133Y-55314D01*
X64163Y-55386D01*
X64170Y-55393D01*
X64163Y-55400D01*
X64133Y-55472D01*
X64133Y-55550D01*
X64163Y-55623D01*
X64209Y-55669D01*
X64163Y-55715D01*
X64133Y-55787D01*
X64133Y-55865D01*
X64163Y-55938D01*
X64219Y-55993D01*
X64291Y-56023D01*
X64369Y-56023D01*
X64442Y-55993D01*
X64497Y-55938D01*
X64527Y-55866D01*
X64527Y-55787D01*
X64527Y-58228D01*
X63346Y-58228D01*
X63346Y-55987D01*
X63352Y-55993D01*
X63425Y-56023D01*
X63503Y-56023D01*
X63575Y-55993D01*
X63631Y-55938D01*
X63661Y-55866D01*
X63661Y-55787D01*
X63631Y-55715D01*
X63585Y-55669D01*
X63631Y-55623D01*
X63661Y-55551D01*
X63661Y-55472D01*
X63631Y-55400D01*
X63576Y-55345D01*
X63503Y-55314D01*
X63425Y-55314D01*
X63353Y-55344D01*
X63346Y-55351D01*
X63346Y-54668D01*
X63379Y-54655D01*
X63434Y-54599D01*
X63464Y-54527D01*
X63503Y-54527D01*
X63575Y-54497D01*
X63631Y-54442D01*
X63661Y-54370D01*
X63661Y-54291D01*
X63631Y-54219D01*
X63585Y-54173D01*
X63631Y-54127D01*
X63661Y-54055D01*
X63661Y-53976D01*
X63631Y-53904D01*
X63585Y-53858D01*
X63631Y-53812D01*
X63661Y-53740D01*
X63661Y-53661D01*
X63631Y-53589D01*
X63585Y-53543D01*
X63631Y-53497D01*
X63661Y-53425D01*
X63661Y-53346D01*
X63631Y-53274D01*
X63585Y-53228D01*
X63631Y-53182D01*
X63661Y-53110D01*
X63661Y-53031D01*
X63631Y-52959D01*
X63585Y-52913D01*
X63631Y-52867D01*
X63661Y-52795D01*
X63661Y-52716D01*
X63631Y-52644D01*
X63585Y-52598D01*
X63631Y-52552D01*
X63661Y-52480D01*
X63661Y-52401D01*
X63631Y-52329D01*
X63585Y-52283D01*
X63631Y-52237D01*
X63661Y-52165D01*
X63661Y-52087D01*
X63631Y-52014D01*
X63585Y-51968D01*
X63631Y-51922D01*
X63661Y-51850D01*
X63661Y-51772D01*
X63631Y-51699D01*
X63585Y-51653D01*
X63631Y-51607D01*
X63661Y-51535D01*
X63661Y-51457D01*
X63631Y-51384D01*
X63585Y-51338D01*
X63631Y-51292D01*
X63661Y-51220D01*
X63661Y-51142D01*
X63631Y-51069D01*
X63576Y-51014D01*
X63503Y-50984D01*
X63464Y-50984D01*
X63434Y-50912D01*
X63379Y-50856D01*
X63346Y-50843D01*
X63346Y-48385D01*
X79921Y-48385D01*
X79921Y-49882D01*
X79891Y-49809D01*
X79836Y-49754D01*
X79763Y-49724D01*
X79685Y-49724D01*
X79613Y-49754D01*
X79557Y-49809D01*
X79527Y-49881D01*
X79527Y-49960D01*
X79557Y-50032D01*
X79612Y-50088D01*
X79685Y-50118D01*
X79763Y-50118D01*
X79835Y-50088D01*
X79891Y-50032D01*
X79921Y-49960D01*
X79921Y-49921D01*
X79921Y-53331D01*
X79862Y-53307D01*
X79783Y-53307D01*
X79711Y-53336D01*
X79694Y-53353D01*
X79678Y-53337D01*
X79606Y-53307D01*
X79527Y-53307D01*
X79455Y-53336D01*
X79400Y-53392D01*
X79370Y-53464D01*
X79370Y-53542D01*
X79399Y-53615D01*
X79455Y-53670D01*
X79527Y-53700D01*
X79605Y-53700D01*
X79678Y-53670D01*
X79694Y-53654D01*
X79711Y-53670D01*
X79783Y-53700D01*
X79861Y-53700D01*
X79921Y-53676D01*
X79921Y-58228D01*
M02*
