M48
;DRILL file {Pcbnew (2013-07-07 BZR 4022)-stable} date 19/11/2015 00:50:35
;FORMAT={-:-/ absolute / metric / decimal}
FMAT,2
METRIC,TZ
T1C0.200
%
G90
G05
M71
T1
X160.7Y-129.6
X160.7Y-130.4
X160.7Y-131.2
X160.7Y-132.
X160.7Y-132.8
X160.7Y-133.6
X160.7Y-134.4
X160.7Y-135.2
X160.7Y-136.
X160.7Y-136.8
X160.7Y-137.6
X160.7Y-138.4
X161.2Y-125.8
X161.2Y-126.6
X161.2Y-127.4
X161.2Y-128.
X161.2Y-129.2
X161.2Y-130.
X161.2Y-130.8
X161.2Y-131.6
X161.2Y-132.4
X161.2Y-133.2
X161.2Y-134.
X161.2Y-134.8
X161.2Y-135.6
X161.2Y-136.4
X161.2Y-137.2
X161.2Y-138.
X161.2Y-139.
X161.2Y-139.8
X161.2Y-140.4
X161.2Y-141.
X161.2Y-141.8
X161.2Y-142.4
X161.2Y-143.6
X161.2Y-144.2
X161.2Y-145.
X162.25Y-125.15
X162.25Y-145.65
X163.4Y-125.8
X163.4Y-126.6
X163.4Y-127.4
X163.4Y-128.
X163.4Y-129.2
X163.4Y-140.4
X163.4Y-141.
X163.4Y-141.8
X163.4Y-143.6
X163.4Y-144.2
X163.4Y-145.
X163.5Y-130.
X163.5Y-130.8
X163.5Y-131.6
X163.5Y-132.4
X163.5Y-133.2
X163.5Y-134.
X163.5Y-134.8
X163.5Y-135.6
X164.55Y-125.15
X164.55Y-145.65
X165.6Y-125.8
X165.6Y-126.6
X165.6Y-127.6
X165.6Y-129.6
X165.6Y-130.4
X165.6Y-131.2
X165.6Y-132.
X165.6Y-132.8
X165.6Y-133.6
X165.6Y-134.4
X165.6Y-135.2
X165.6Y-137.2
X165.6Y-138.4
X165.6Y-139.8
X165.6Y-140.4
X165.6Y-141.
X165.6Y-141.8
X165.6Y-142.4
X165.6Y-143.6
X165.6Y-144.2
X165.6Y-145.
X166.1Y-139.2
X166.15Y-135.5
X166.25Y-137.2
X166.35Y-123.8
X166.35Y-147.
X167.15Y-125.75
X167.15Y-133.25
X167.15Y-137.55
X167.15Y-140.75
X167.15Y-145.05
X167.95Y-123.8
X167.95Y-147.
X168.Y-133.15
X168.1Y-137.55
X168.4Y-135.55
X168.8Y-123.45
X168.8Y-147.35
X168.95Y-134.1
X168.95Y-134.7
X168.95Y-136.65
X169.Y-140.
X169.Y-140.8
X169.1Y-130.05
X169.3Y-130.6
X169.3Y-131.35
X169.55Y-134.7
X169.55Y-136.65
X169.6Y-128.1
X169.7Y-131.
X169.7Y-131.8
X169.7Y-141.55
X169.75Y-147.35
X169.8Y-129.5
X169.9Y-133.25
X170.1Y-137.15
X170.15Y-132.05
X170.15Y-134.7
X170.6Y-141.55
X170.65Y-125.45
X170.7Y-123.6
X170.75Y-136.6
X171.05Y-138.2
X171.074Y-135.626
X171.35Y-142.4
X171.404Y-131.297
X171.404Y-135.293
X171.407Y-129.965
X171.407Y-132.629
X171.407Y-133.961
X171.45Y-141.45
X171.74Y-129.632
X171.74Y-130.298
X171.74Y-130.964
X171.74Y-131.63
X171.74Y-132.296
X171.74Y-132.962
X171.74Y-133.628
X171.74Y-134.294
X171.74Y-134.96
X171.74Y-135.626
X172.07Y-129.299
X172.07Y-131.297
X172.07Y-135.293
X172.073Y-129.965
X172.073Y-130.631
X172.073Y-131.963
X172.073Y-132.629
X172.073Y-133.961
X172.073Y-134.627
X172.073Y-135.959
X172.073Y-136.625
X172.4Y-123.9
X172.406Y-130.298
X172.406Y-130.964
X172.406Y-131.63
X172.406Y-132.296
X172.406Y-132.962
X172.406Y-133.628
X172.45Y-141.3
X172.5Y-126.3
X172.5Y-126.85
X172.739Y-136.625
X173.Y-141.3
X173.Y-143.7
X173.072Y-136.958
X173.072Y-137.624
X173.1Y-133.2
X173.1Y-134.6
X173.1Y-135.3
X173.3Y-139.4
X173.402Y-127.967
X173.402Y-137.291
X173.738Y-127.634
X173.738Y-128.966
X173.738Y-136.958
X173.738Y-137.624
X173.75Y-142.85
X173.8Y-129.7
X173.8Y-130.4
X173.8Y-131.1
X173.8Y-131.8
X173.8Y-132.5
X173.8Y-133.2
X173.8Y-133.9
X173.8Y-134.6
X173.8Y-135.3
X173.9Y-147.35
X174.05Y-126.35
X174.068Y-127.967
X174.071Y-136.625
X174.2Y-123.65
X174.404Y-127.634
X174.404Y-137.624
X174.5Y-129.7
X174.5Y-130.4
X174.5Y-131.1
X174.5Y-131.8
X174.5Y-132.5
X174.5Y-133.2
X174.5Y-133.9
X174.5Y-134.6
X174.5Y-135.3
X174.6Y-139.7
X174.734Y-127.967
X174.737Y-128.633
X174.85Y-142.85
X174.85Y-144.9
X175.07Y-136.958
X175.07Y-137.624
X175.15Y-129.7
X175.15Y-130.4
X175.15Y-131.1
X175.15Y-131.8
X175.15Y-132.5
X175.15Y-133.2
X175.15Y-133.9
X175.15Y-134.6
X175.15Y-135.3
X175.3Y-139.
X175.35Y-147.35
X175.403Y-128.633
X175.403Y-136.625
X175.403Y-137.957
X175.55Y-139.7
X175.736Y-128.3
X175.736Y-128.966
X175.736Y-136.958
X175.8Y-124.1
X175.85Y-129.7
X175.85Y-130.4
X175.85Y-131.1
X175.85Y-131.8
X175.85Y-132.5
X175.85Y-133.2
X175.85Y-133.9
X175.85Y-134.6
X175.85Y-135.3
X176.066Y-127.967
X176.069Y-136.625
X176.25Y-124.85
X176.402Y-127.634
X176.402Y-138.29
X176.5Y-129.7
X176.5Y-130.4
X176.5Y-131.1
X176.5Y-131.8
X176.5Y-132.5
X176.5Y-133.2
X176.5Y-133.9
X176.5Y-134.6
X176.5Y-135.3
X176.732Y-137.291
X176.735Y-137.957
X176.8Y-147.35
X176.85Y-124.
X176.85Y-124.85
X177.2Y-129.7
X177.2Y-130.4
X177.2Y-131.1
X177.2Y-131.8
X177.2Y-132.5
X177.2Y-133.2
X177.2Y-133.9
X177.2Y-134.6
X177.2Y-135.3
X177.35Y-139.3
X177.734Y-128.3
X177.9Y-129.7
X177.9Y-130.4
X177.9Y-131.1
X177.9Y-131.8
X177.9Y-132.5
X177.9Y-133.2
X177.9Y-133.9
X177.9Y-134.6
X177.9Y-135.3
X178.067Y-128.633
X178.6Y-130.4
X178.6Y-131.1
X178.6Y-131.8
X178.6Y-132.5
X178.6Y-133.2
X178.6Y-133.9
X178.6Y-134.6
X178.85Y-125.5
X179.3Y-130.4
X179.3Y-131.1
X179.3Y-131.8
X179.3Y-132.5
X179.3Y-139.05
X179.396Y-127.967
X179.399Y-136.625
X179.732Y-127.634
X179.732Y-128.966
X179.732Y-137.624
X180.062Y-135.293
X180.062Y-137.291
X180.065Y-127.301
X180.065Y-129.965
X180.065Y-130.631
X180.065Y-136.625
X180.35Y-147.65
X180.398Y-127.634
X180.398Y-129.632
X180.398Y-134.96
X180.398Y-135.626
X180.398Y-136.292
X180.398Y-136.958
X180.4Y-140.2
X180.45Y-123.1
X180.731Y-129.965
X180.731Y-130.631
X180.731Y-133.961
X180.731Y-134.627
X181.064Y-134.294
X181.064Y-134.96
X181.064Y-135.626
X181.064Y-136.292
X181.397Y-129.965
X181.397Y-135.959
X181.4Y-140.65
X181.65Y-145.
X182.15Y-132.15
X182.35Y-137.5
X182.35Y-138.15
X182.35Y-140.55
X182.35Y-142.2
X182.4Y-130.4
X182.45Y-128.7
X182.55Y-134.8
X182.55Y-143.75
X182.55Y-145.
X182.7Y-132.5
X182.8Y-137.1
X182.95Y-141.2
X183.7Y-133.1
X183.9Y-129.45
X184.225Y-136.55
X184.35Y-123.1
X184.35Y-147.65
X184.4Y-142.2
X184.75Y-135.15
X184.85Y-143.75
X184.85Y-145.
X185.75Y-134.15
X186.85Y-126.05
X187.35Y-136.9
X187.35Y-142.4
X187.5Y-123.1
X187.75Y-127.15
X188.Y-147.35
X188.15Y-135.15
X188.85Y-136.25
X188.875Y-143.075
X188.9Y-128.05
X189.45Y-147.35
X189.55Y-139.7
X189.8Y-131.55
X189.9Y-143.65
X190.4Y-138.4
X190.4Y-139.7
X190.45Y-129.35
X190.6Y-142.8
X190.9Y-147.35
X191.05Y-125.85
X191.05Y-129.35
X191.15Y-143.35
X191.85Y-133.9
X191.95Y-125.85
X192.55Y-135.4
X192.6Y-143.
X192.75Y-138.4
X192.75Y-139.7
X193.05Y-131.55
X193.1Y-123.85
X193.5Y-143.
X193.85Y-137.9
X194.35Y-125.6
X194.35Y-135.4
X194.6Y-123.55
X194.6Y-124.75
X194.6Y-126.45
X194.6Y-134.55
X194.6Y-136.25
X195.05Y-147.35
X195.2Y-133.85
X195.25Y-131.2
X196.Y-124.05
X196.Y-136.95
X196.5Y-147.35
X196.6Y-125.6
X196.75Y-135.4
X196.85Y-131.65
X196.85Y-139.15
X196.85Y-146.3
X196.95Y-127.9
X196.95Y-128.8
X197.65Y-130.05
X198.35Y-136.15
X198.45Y-123.5
X198.45Y-124.4
X198.45Y-131.65
X198.45Y-139.15
X199.05Y-136.15
X199.4Y-123.5
X199.4Y-124.4
X199.4Y-125.3
X199.4Y-128.45
X199.4Y-129.35
X199.4Y-130.1
X199.4Y-130.8
X199.4Y-131.5
X199.4Y-138.5
X199.4Y-139.2
X199.4Y-139.8
X199.4Y-140.45
X199.4Y-145.5
X199.4Y-146.4
X199.4Y-147.3
X199.95Y-137.65
X200.3Y-147.8
X200.8Y-142.9
X201.Y-123.05
X201.Y-147.8
X201.15Y-139.2
X201.45Y-142.9
X201.5Y-135.9
X201.8Y-128.4
X202.1Y-135.9
X202.1Y-142.9
X202.5Y-126.8
X202.6Y-123.05
X202.75Y-135.9
X202.8Y-129.3
X202.9Y-147.8
T0
M30
