G04 (created by PCBNEW (2013-07-07 BZR 4022)-stable) date 19/11/2015 00:50:24*
%MOIN*%
G04 Gerber Fmt 3.4, Leading zero omitted, Abs format*
%FSLAX34Y34*%
G01*
G70*
G90*
G04 APERTURE LIST*
%ADD10C,0.00590551*%
%ADD11C,0.015748*%
%ADD12C,0.0137795*%
%ADD13C,0.015748*%
%ADD14C,0.0314961*%
%ADD15C,0.00393701*%
%ADD16C,0.011811*%
%ADD17C,0.019685*%
%ADD18C,0.00787402*%
G04 APERTURE END LIST*
G54D10*
G54D11*
X69625Y-48818D03*
X68582Y-48681D03*
X67874Y-48779D03*
X69212Y-48858D03*
X71830Y-50669D03*
X71929Y-52165D03*
X71023Y-55196D03*
X71712Y-52027D03*
X72529Y-53759D03*
X68110Y-55629D03*
X67893Y-55629D03*
X70413Y-49409D03*
X74074Y-53208D03*
X63464Y-55511D03*
X64330Y-55511D03*
X65196Y-55511D03*
X68405Y-56240D03*
X73759Y-53897D03*
X71791Y-55984D03*
X73759Y-56062D03*
X68838Y-56240D03*
X69625Y-49153D03*
X71417Y-55374D03*
X67913Y-49724D03*
X72401Y-50964D03*
X73129Y-52814D03*
X75826Y-56299D03*
X78503Y-50570D03*
X78366Y-53602D03*
X77165Y-53917D03*
X76870Y-51653D03*
X77165Y-48838D03*
X65196Y-55826D03*
X64330Y-55826D03*
X63464Y-55826D03*
G54D12*
X70890Y-53264D03*
X69580Y-54313D03*
X70629Y-53789D03*
X68662Y-50249D03*
X67745Y-52216D03*
G54D11*
X63267Y-53858D03*
X63464Y-51496D03*
G54D12*
X67614Y-51036D03*
G54D11*
X63267Y-51338D03*
G54D12*
X67745Y-51167D03*
G54D11*
X63267Y-51023D03*
G54D12*
X67744Y-51691D03*
G54D11*
X63464Y-52125D03*
G54D12*
X67481Y-51691D03*
G54D11*
X65196Y-51023D03*
X66850Y-50984D03*
G54D12*
X67614Y-51298D03*
G54D11*
X63267Y-51653D03*
X63464Y-51811D03*
G54D12*
X67745Y-51429D03*
G54D11*
X63464Y-51181D03*
G54D12*
X67876Y-51560D03*
G54D11*
X66574Y-51200D03*
X64370Y-51181D03*
X65196Y-51338D03*
X66653Y-51417D03*
G54D12*
X67614Y-51560D03*
G54D11*
X63267Y-51968D03*
X66811Y-51574D03*
X64370Y-51496D03*
X63267Y-53228D03*
G54D12*
X67745Y-53527D03*
G54D11*
X64370Y-53385D03*
G54D12*
X67614Y-53396D03*
G54D11*
X63267Y-52283D03*
G54D12*
X67745Y-52740D03*
G54D11*
X63464Y-52440D03*
G54D12*
X67483Y-52740D03*
X67744Y-53264D03*
G54D11*
X63464Y-53385D03*
G54D12*
X67481Y-53264D03*
G54D11*
X65196Y-53228D03*
X63267Y-52913D03*
G54D12*
X67614Y-53133D03*
G54D11*
X63464Y-53070D03*
X66751Y-53799D03*
X63464Y-52755D03*
G54D12*
X67745Y-53002D03*
G54D11*
X66988Y-53031D03*
X64370Y-53070D03*
X63267Y-52598D03*
G54D12*
X67614Y-52871D03*
G54D11*
X65196Y-52913D03*
X66751Y-53031D03*
X66988Y-51988D03*
X65196Y-51968D03*
X66515Y-52795D03*
X65196Y-52598D03*
X66811Y-51889D03*
X64370Y-51811D03*
X64370Y-52440D03*
G54D12*
X67876Y-52609D03*
G54D11*
X63464Y-54330D03*
X67500Y-55688D03*
X65393Y-54803D03*
X67165Y-55728D03*
X66811Y-55728D03*
X63267Y-54488D03*
X63267Y-54173D03*
X66535Y-55118D03*
X75039Y-56220D03*
X75255Y-56437D03*
X76181Y-56299D03*
X74763Y-56555D03*
X78503Y-51771D03*
X78503Y-51220D03*
X78503Y-51496D03*
X78503Y-50925D03*
X78720Y-54192D03*
X78090Y-53602D03*
X78503Y-54527D03*
X76003Y-51791D03*
X73562Y-49625D03*
X73917Y-50059D03*
X74370Y-50413D03*
X75570Y-49547D03*
X75216Y-49547D03*
X76023Y-48759D03*
X71515Y-57086D03*
X71870Y-57086D03*
X72775Y-57086D03*
X71870Y-56594D03*
X72775Y-56594D03*
X74960Y-54488D03*
X75885Y-54488D03*
X75885Y-55000D03*
X74960Y-55000D03*
X74625Y-55000D03*
X64783Y-57342D03*
X64330Y-50866D03*
X63877Y-57342D03*
X63464Y-56062D03*
X65196Y-55275D03*
X65196Y-56535D03*
X64330Y-56535D03*
X63464Y-56535D03*
X63464Y-57086D03*
X63464Y-56771D03*
X64330Y-57086D03*
X64330Y-56771D03*
X65196Y-56771D03*
X65196Y-57086D03*
X65196Y-56062D03*
X65196Y-55039D03*
X63464Y-55275D03*
X63464Y-55039D03*
X63464Y-54724D03*
X63464Y-50866D03*
X64330Y-50393D03*
X63464Y-50393D03*
X64783Y-49271D03*
X63877Y-49271D03*
X64330Y-50157D03*
X63464Y-50157D03*
X65196Y-49842D03*
X63464Y-49842D03*
X64330Y-49842D03*
X63464Y-49527D03*
X64330Y-49527D03*
X65196Y-49527D03*
X67460Y-56062D03*
X66141Y-52421D03*
X71791Y-55334D03*
X66122Y-57874D03*
X65492Y-57874D03*
X66830Y-58011D03*
X66456Y-58011D03*
X69606Y-58011D03*
X68464Y-58011D03*
X69035Y-58011D03*
X72578Y-58129D03*
X71003Y-58129D03*
X75157Y-58011D03*
X74015Y-58011D03*
X74586Y-58011D03*
X77500Y-57598D03*
X76791Y-58011D03*
X77362Y-58011D03*
X77500Y-54783D03*
X78129Y-54783D03*
X77814Y-51200D03*
X78129Y-51830D03*
X77500Y-51830D03*
X78129Y-48976D03*
X78129Y-48622D03*
X73818Y-48464D03*
X72578Y-48464D03*
X71043Y-48464D03*
X66456Y-48602D03*
X65492Y-48740D03*
X66122Y-48740D03*
X78503Y-49330D03*
X78503Y-48622D03*
X79133Y-48444D03*
X79763Y-48444D03*
X78503Y-48976D03*
X79330Y-53503D03*
X79842Y-50905D03*
X79448Y-50551D03*
X79192Y-54803D03*
X78503Y-54803D03*
X78503Y-55295D03*
X78503Y-55039D03*
X79566Y-56259D03*
X78503Y-57283D03*
X78503Y-57992D03*
X79881Y-58188D03*
X78858Y-58188D03*
X79133Y-58188D03*
X78503Y-57637D03*
X68838Y-57047D03*
X72598Y-55984D03*
X77539Y-50708D03*
X76850Y-52696D03*
X76318Y-54291D03*
X75807Y-53307D03*
X76614Y-52972D03*
X76614Y-53641D03*
X76515Y-53307D03*
X77539Y-50354D03*
X76614Y-49783D03*
X76614Y-48641D03*
X76515Y-49448D03*
X76614Y-49114D03*
X66535Y-55433D03*
X65807Y-49507D03*
X65807Y-57106D03*
X65807Y-55413D03*
X65807Y-54153D03*
X65807Y-52460D03*
X66515Y-53799D03*
X66181Y-54153D03*
X74350Y-53641D03*
X74360Y-56328D03*
X75531Y-52716D03*
X74980Y-50925D03*
X74724Y-51791D03*
X75216Y-50925D03*
X67185Y-49389D03*
X69389Y-49153D03*
X68523Y-49744D03*
X67204Y-48661D03*
G54D12*
X69974Y-50511D03*
G54D11*
X69763Y-51062D03*
X69763Y-51338D03*
X69488Y-51338D03*
X70039Y-51062D03*
X70314Y-51614D03*
X70314Y-52165D03*
X70039Y-52716D03*
X70314Y-52992D03*
X70039Y-52992D03*
X69763Y-52992D03*
X69232Y-52992D03*
X68700Y-52992D03*
X68149Y-52992D03*
X68700Y-52165D03*
X68425Y-51062D03*
X68700Y-51614D03*
X68700Y-51338D03*
X68700Y-51062D03*
X69232Y-51062D03*
X68956Y-51062D03*
X69488Y-51062D03*
X68956Y-51338D03*
X69232Y-51338D03*
X68425Y-51338D03*
X70039Y-51338D03*
X70314Y-51338D03*
X70590Y-51338D03*
X70590Y-51614D03*
X70039Y-51614D03*
X69763Y-51614D03*
X68425Y-51614D03*
X69232Y-51614D03*
X68956Y-51614D03*
X69488Y-51614D03*
X69488Y-52165D03*
X68956Y-52165D03*
X69232Y-52165D03*
X68425Y-52165D03*
X69763Y-52165D03*
X70039Y-52165D03*
X70590Y-52165D03*
X70590Y-51889D03*
X70314Y-51889D03*
X70039Y-51889D03*
X69763Y-51889D03*
X68425Y-51889D03*
X68700Y-51889D03*
X69232Y-51889D03*
X68956Y-51889D03*
X69488Y-51889D03*
X69488Y-52992D03*
X68956Y-52992D03*
X68425Y-52992D03*
X70039Y-53267D03*
X69763Y-53267D03*
X68149Y-53267D03*
X68425Y-53267D03*
X68700Y-53267D03*
X69232Y-53267D03*
X68956Y-53267D03*
X69488Y-53267D03*
X69488Y-52716D03*
X68956Y-52716D03*
X69232Y-52716D03*
X68700Y-52716D03*
X68425Y-52716D03*
X69763Y-52716D03*
X70314Y-52716D03*
X70314Y-52440D03*
X70039Y-52440D03*
X69763Y-52440D03*
X68149Y-52440D03*
X68425Y-52440D03*
X68700Y-52440D03*
X69232Y-52440D03*
X68956Y-52440D03*
X69488Y-52440D03*
X72322Y-52401D03*
X71811Y-51338D03*
G54D12*
X70760Y-54182D03*
G54D11*
X71791Y-54133D03*
G54D12*
X70891Y-53789D03*
G54D11*
X68228Y-54881D03*
G54D12*
X68662Y-54182D03*
X69056Y-54313D03*
G54D11*
X71968Y-53976D03*
X69015Y-54724D03*
X69114Y-55000D03*
X69822Y-54842D03*
X71870Y-53070D03*
G54D12*
X71416Y-53527D03*
X71285Y-53133D03*
X71285Y-52871D03*
X70760Y-50774D03*
X70105Y-50642D03*
X69187Y-50774D03*
X69056Y-50642D03*
X68792Y-50380D03*
X68400Y-50249D03*
G54D11*
X67913Y-49940D03*
G54D12*
X68400Y-53920D03*
X67351Y-53396D03*
X67483Y-51167D03*
X67614Y-51822D03*
X67876Y-52085D03*
G54D11*
X67224Y-53779D03*
G54D12*
X67745Y-51953D03*
G54D11*
X64330Y-55275D03*
X77401Y-49448D03*
X65196Y-54015D03*
X77460Y-53307D03*
X65452Y-54015D03*
X63464Y-53700D03*
X66653Y-51712D03*
X65196Y-51653D03*
X66515Y-53031D03*
X64370Y-52755D03*
G54D12*
X71022Y-50249D03*
G54D11*
X79724Y-49921D03*
G54D12*
X70760Y-50249D03*
X70628Y-50380D03*
X70891Y-50118D03*
X69187Y-50511D03*
X71153Y-51429D03*
X69449Y-54444D03*
X69317Y-50380D03*
X69449Y-50249D03*
X68268Y-50380D03*
X68794Y-50642D03*
G54D11*
X70590Y-54744D03*
G54D12*
X68925Y-53920D03*
X69579Y-54051D03*
X68925Y-54182D03*
G54D11*
X72027Y-55590D03*
G54D12*
X71416Y-51167D03*
X70891Y-51167D03*
X68400Y-50774D03*
X70890Y-54051D03*
X69187Y-53920D03*
G54D11*
X68740Y-55000D03*
X68110Y-56574D03*
G54D12*
X69056Y-53789D03*
G54D11*
X66889Y-52460D03*
X66968Y-53996D03*
G54D12*
X67744Y-50905D03*
X67614Y-52085D03*
X71153Y-51167D03*
X70891Y-51429D03*
X71022Y-51036D03*
X71022Y-53658D03*
X68531Y-53789D03*
X68400Y-54182D03*
X67614Y-52609D03*
G54D11*
X66299Y-53366D03*
X66771Y-50433D03*
G54D12*
X67876Y-51298D03*
X67876Y-51822D03*
X71153Y-52740D03*
X71022Y-53396D03*
X71285Y-53658D03*
X71153Y-53002D03*
X71285Y-53396D03*
G54D11*
X72736Y-53208D03*
G54D12*
X71022Y-53133D03*
X68007Y-53789D03*
X67745Y-53789D03*
G54D11*
X79822Y-53503D03*
G54D12*
X68268Y-54051D03*
G54D11*
X79055Y-56259D03*
X79566Y-53503D03*
G54D12*
X68138Y-54182D03*
G54D11*
X79311Y-56259D03*
X71791Y-54389D03*
G54D12*
X69318Y-53789D03*
G54D11*
X63464Y-54015D03*
G54D12*
X68138Y-53920D03*
X68530Y-50380D03*
G54D11*
X65196Y-50236D03*
X65413Y-53346D03*
G54D12*
X67483Y-52216D03*
G54D11*
X64370Y-52125D03*
G54D12*
X67614Y-52347D03*
G54D11*
X65196Y-52283D03*
X65196Y-54488D03*
G54D12*
X71022Y-53920D03*
G54D11*
X63267Y-53543D03*
X67342Y-54409D03*
G54D12*
X67876Y-52347D03*
G54D13*
X69625Y-48818D02*
X70570Y-48818D01*
X70570Y-48818D02*
X71830Y-50078D01*
X71830Y-50078D02*
X71830Y-50669D01*
X76318Y-56791D02*
X75826Y-56299D01*
X78503Y-50570D02*
X78169Y-50570D01*
X77795Y-50944D02*
X77007Y-50944D01*
X78169Y-50570D02*
X77795Y-50944D01*
X77165Y-53917D02*
X78248Y-53917D01*
X78366Y-53799D02*
X78366Y-53602D01*
X78248Y-53917D02*
X78366Y-53799D01*
G54D14*
X77165Y-53917D02*
X77165Y-55944D01*
X77165Y-52283D02*
X77165Y-53917D01*
X77007Y-52125D02*
X77165Y-52283D01*
X77007Y-51653D02*
X77007Y-52125D01*
G54D13*
X77007Y-51653D02*
X76870Y-51653D01*
G54D14*
X77007Y-49173D02*
X77007Y-50944D01*
X77165Y-48838D02*
X77165Y-49015D01*
X77165Y-49015D02*
X77007Y-49173D01*
X77007Y-50944D02*
X77007Y-51653D01*
G54D13*
X65590Y-55826D02*
X67244Y-57480D01*
X67244Y-57480D02*
X75039Y-57480D01*
G54D14*
X75570Y-57480D02*
X75629Y-57480D01*
X77165Y-55944D02*
X76318Y-56791D01*
X76318Y-56791D02*
X75629Y-57480D01*
X75629Y-57480D02*
X75039Y-57480D01*
G54D13*
X65196Y-55826D02*
X65590Y-55826D01*
G54D15*
X64645Y-52913D02*
X64114Y-52913D01*
X67745Y-52431D02*
X67696Y-52480D01*
X67696Y-52480D02*
X67322Y-52480D01*
X67322Y-52480D02*
X67185Y-52618D01*
X67185Y-52618D02*
X65472Y-52618D01*
X65472Y-52618D02*
X65334Y-52755D01*
X65334Y-52755D02*
X64803Y-52755D01*
X64803Y-52755D02*
X64645Y-52913D01*
X67745Y-52216D02*
X67745Y-52431D01*
X63641Y-53858D02*
X63267Y-53858D01*
X63740Y-53759D02*
X63641Y-53858D01*
X63740Y-53287D02*
X63740Y-53759D01*
X64114Y-52913D02*
X63740Y-53287D01*
G54D16*
X68925Y-54182D02*
X68925Y-54185D01*
G54D17*
X71948Y-55669D02*
X72027Y-55590D01*
G54D14*
X69822Y-55669D02*
X71948Y-55669D01*
X69448Y-55295D02*
X69822Y-55669D01*
X69448Y-54822D02*
X69448Y-55295D01*
G54D16*
X69133Y-54507D02*
X69448Y-54822D01*
X68917Y-54507D02*
X69133Y-54507D01*
X68818Y-54409D02*
X68917Y-54507D01*
X68818Y-54291D02*
X68818Y-54409D01*
X68925Y-54185D02*
X68818Y-54291D01*
G54D17*
X68533Y-54399D02*
X68464Y-54468D01*
X68110Y-56082D02*
X68110Y-56574D01*
X68464Y-55728D02*
X68110Y-56082D01*
X68464Y-54468D02*
X68464Y-55728D01*
G54D16*
X68533Y-54064D02*
X68720Y-53877D01*
X68720Y-53877D02*
X68720Y-53818D01*
X69056Y-53741D02*
X69015Y-53700D01*
X69056Y-53789D02*
X69056Y-53741D01*
X68838Y-53700D02*
X68720Y-53818D01*
X69015Y-53700D02*
X68838Y-53700D01*
X68720Y-53818D02*
X68720Y-53818D01*
G54D15*
X68533Y-54399D02*
X68523Y-54409D01*
X68533Y-54064D02*
X68533Y-54399D01*
G54D10*
X71791Y-54389D02*
X70275Y-54389D01*
X69675Y-53789D02*
X69318Y-53789D01*
X70275Y-54389D02*
X69675Y-53789D01*
X69318Y-53789D02*
X69320Y-53789D01*
G36*
X72106Y-50807D02*
X71397Y-50807D01*
X71397Y-50109D01*
X70283Y-48996D01*
X69114Y-48996D01*
X69114Y-48602D01*
X71043Y-48602D01*
X71070Y-48602D01*
X71070Y-48602D01*
X71291Y-48602D01*
X72106Y-49417D01*
X72106Y-50807D01*
X72106Y-50807D01*
G37*
G54D15*
X72106Y-50807D02*
X71397Y-50807D01*
X71397Y-50109D01*
X70283Y-48996D01*
X69114Y-48996D01*
X69114Y-48602D01*
X71043Y-48602D01*
X71070Y-48602D01*
X71070Y-48602D01*
X71291Y-48602D01*
X72106Y-49417D01*
X72106Y-50807D01*
G54D10*
G36*
X78602Y-50708D02*
X78267Y-50708D01*
X78267Y-51690D01*
X78241Y-51663D01*
X78169Y-51633D01*
X78090Y-51633D01*
X78018Y-51663D01*
X78011Y-51670D01*
X78011Y-51161D01*
X77981Y-51089D01*
X77926Y-51034D01*
X77854Y-51003D01*
X77775Y-51003D01*
X77703Y-51033D01*
X77648Y-51089D01*
X77618Y-51161D01*
X77618Y-51239D01*
X77647Y-51312D01*
X77703Y-51367D01*
X77775Y-51397D01*
X77853Y-51397D01*
X77926Y-51367D01*
X77981Y-51312D01*
X78011Y-51240D01*
X78011Y-51161D01*
X78011Y-51670D01*
X77963Y-51719D01*
X77933Y-51791D01*
X77933Y-51869D01*
X77962Y-51942D01*
X78018Y-51997D01*
X78090Y-52027D01*
X78168Y-52027D01*
X78241Y-51997D01*
X78267Y-51971D01*
X78267Y-52322D01*
X78464Y-52322D01*
X78464Y-54232D01*
X78287Y-54232D01*
X78287Y-53563D01*
X78257Y-53491D01*
X78202Y-53435D01*
X78129Y-53405D01*
X78051Y-53405D01*
X77979Y-53435D01*
X77923Y-53490D01*
X77893Y-53563D01*
X77893Y-53641D01*
X77923Y-53713D01*
X77978Y-53769D01*
X78051Y-53799D01*
X78129Y-53799D01*
X78201Y-53769D01*
X78257Y-53714D01*
X78287Y-53641D01*
X78287Y-53563D01*
X78287Y-54232D01*
X78267Y-54232D01*
X78267Y-54642D01*
X78241Y-54616D01*
X78169Y-54586D01*
X78090Y-54586D01*
X78018Y-54616D01*
X77963Y-54671D01*
X77933Y-54744D01*
X77933Y-54822D01*
X77962Y-54894D01*
X78018Y-54950D01*
X78090Y-54980D01*
X78168Y-54980D01*
X78241Y-54950D01*
X78267Y-54924D01*
X78267Y-56243D01*
X77696Y-56814D01*
X77696Y-54744D01*
X77696Y-51791D01*
X77666Y-51719D01*
X77611Y-51663D01*
X77539Y-51633D01*
X77461Y-51633D01*
X77388Y-51663D01*
X77333Y-51719D01*
X77303Y-51791D01*
X77303Y-51869D01*
X77333Y-51942D01*
X77388Y-51997D01*
X77460Y-52027D01*
X77538Y-52027D01*
X77611Y-51997D01*
X77666Y-51942D01*
X77696Y-51870D01*
X77696Y-51791D01*
X77696Y-54744D01*
X77666Y-54672D01*
X77657Y-54662D01*
X77657Y-53268D01*
X77627Y-53195D01*
X77572Y-53140D01*
X77499Y-53110D01*
X77421Y-53110D01*
X77349Y-53140D01*
X77293Y-53195D01*
X77263Y-53267D01*
X77263Y-53346D01*
X77293Y-53418D01*
X77348Y-53473D01*
X77421Y-53503D01*
X77499Y-53503D01*
X77571Y-53474D01*
X77627Y-53418D01*
X77657Y-53346D01*
X77657Y-53268D01*
X77657Y-54662D01*
X77611Y-54616D01*
X77539Y-54586D01*
X77461Y-54586D01*
X77388Y-54616D01*
X77333Y-54671D01*
X77303Y-54744D01*
X77303Y-54822D01*
X77333Y-54894D01*
X77388Y-54950D01*
X77460Y-54980D01*
X77538Y-54980D01*
X77611Y-54950D01*
X77666Y-54895D01*
X77696Y-54822D01*
X77696Y-54744D01*
X77696Y-56814D01*
X76676Y-57834D01*
X75244Y-57834D01*
X75196Y-57814D01*
X75118Y-57814D01*
X75070Y-57834D01*
X74673Y-57834D01*
X74625Y-57814D01*
X74547Y-57814D01*
X74499Y-57834D01*
X74102Y-57834D01*
X74055Y-57814D01*
X73976Y-57814D01*
X73929Y-57834D01*
X72972Y-57834D01*
X72972Y-57047D01*
X72942Y-56975D01*
X72887Y-56919D01*
X72814Y-56889D01*
X72736Y-56889D01*
X72664Y-56919D01*
X72608Y-56974D01*
X72578Y-57047D01*
X72578Y-57125D01*
X72608Y-57197D01*
X72663Y-57253D01*
X72736Y-57283D01*
X72814Y-57283D01*
X72886Y-57253D01*
X72942Y-57198D01*
X72972Y-57125D01*
X72972Y-57047D01*
X72972Y-57834D01*
X72066Y-57834D01*
X72066Y-57047D01*
X72037Y-56975D01*
X71981Y-56919D01*
X71909Y-56889D01*
X71831Y-56889D01*
X71758Y-56919D01*
X71703Y-56974D01*
X71692Y-56999D01*
X71682Y-56975D01*
X71627Y-56919D01*
X71555Y-56889D01*
X71476Y-56889D01*
X71404Y-56919D01*
X71348Y-56974D01*
X71318Y-57047D01*
X71318Y-57125D01*
X71348Y-57197D01*
X71404Y-57253D01*
X71476Y-57283D01*
X71554Y-57283D01*
X71627Y-57253D01*
X71682Y-57198D01*
X71692Y-57173D01*
X71703Y-57197D01*
X71758Y-57253D01*
X71830Y-57283D01*
X71909Y-57283D01*
X71981Y-57253D01*
X72036Y-57198D01*
X72066Y-57125D01*
X72066Y-57047D01*
X72066Y-57834D01*
X69692Y-57834D01*
X69645Y-57814D01*
X69567Y-57814D01*
X69519Y-57834D01*
X69122Y-57834D01*
X69074Y-57814D01*
X68996Y-57814D01*
X68948Y-57834D01*
X68551Y-57834D01*
X68503Y-57814D01*
X68425Y-57814D01*
X68377Y-57834D01*
X66917Y-57834D01*
X66870Y-57814D01*
X66791Y-57814D01*
X66775Y-57821D01*
X65992Y-57038D01*
X65974Y-56994D01*
X65918Y-56939D01*
X65874Y-56921D01*
X65393Y-56440D01*
X65393Y-56024D01*
X65363Y-55951D01*
X65308Y-55896D01*
X65236Y-55866D01*
X65157Y-55866D01*
X65085Y-55896D01*
X65030Y-55951D01*
X65000Y-56023D01*
X64999Y-56101D01*
X65029Y-56174D01*
X65085Y-56229D01*
X65157Y-56259D01*
X65235Y-56259D01*
X65308Y-56229D01*
X65363Y-56174D01*
X65393Y-56102D01*
X65393Y-56024D01*
X65393Y-56440D01*
X65291Y-56338D01*
X65197Y-56338D01*
X65157Y-56338D01*
X65157Y-56338D01*
X64330Y-56338D01*
X64291Y-56338D01*
X64291Y-56338D01*
X63464Y-56338D01*
X63425Y-56338D01*
X63425Y-56338D01*
X63346Y-56338D01*
X63346Y-56223D01*
X63352Y-56229D01*
X63425Y-56259D01*
X63503Y-56259D01*
X63575Y-56229D01*
X63631Y-56174D01*
X63661Y-56102D01*
X63661Y-56024D01*
X63631Y-55951D01*
X63576Y-55896D01*
X63503Y-55866D01*
X63425Y-55866D01*
X63353Y-55896D01*
X63346Y-55902D01*
X63346Y-55708D01*
X63464Y-55708D01*
X63503Y-55708D01*
X63503Y-55708D01*
X64330Y-55708D01*
X64369Y-55708D01*
X64369Y-55708D01*
X65196Y-55708D01*
X65235Y-55708D01*
X65235Y-55708D01*
X66243Y-55708D01*
X67385Y-56850D01*
X68799Y-56850D01*
X68727Y-56880D01*
X68671Y-56935D01*
X68641Y-57007D01*
X68641Y-57086D01*
X68671Y-57158D01*
X68726Y-57214D01*
X68799Y-57244D01*
X68877Y-57244D01*
X68949Y-57214D01*
X69005Y-57158D01*
X69035Y-57086D01*
X69035Y-57008D01*
X69005Y-56935D01*
X68950Y-56880D01*
X68877Y-56850D01*
X68838Y-56850D01*
X75921Y-56850D01*
X76771Y-56000D01*
X76771Y-53762D01*
X76780Y-53753D01*
X76810Y-53681D01*
X76811Y-53602D01*
X76781Y-53530D01*
X76771Y-53520D01*
X76771Y-53093D01*
X76780Y-53084D01*
X76810Y-53011D01*
X76811Y-52933D01*
X76791Y-52885D01*
X76811Y-52893D01*
X76889Y-52893D01*
X76961Y-52863D01*
X77017Y-52808D01*
X77047Y-52736D01*
X77047Y-52657D01*
X77017Y-52585D01*
X76962Y-52530D01*
X76889Y-52500D01*
X76811Y-52499D01*
X76771Y-52516D01*
X76771Y-49904D01*
X76780Y-49895D01*
X76810Y-49822D01*
X76811Y-49744D01*
X76781Y-49672D01*
X76771Y-49662D01*
X76771Y-49235D01*
X76780Y-49225D01*
X76810Y-49153D01*
X76811Y-49075D01*
X76781Y-49002D01*
X76771Y-48993D01*
X76771Y-48762D01*
X76780Y-48753D01*
X76802Y-48700D01*
X76811Y-48700D01*
X77519Y-48700D01*
X77519Y-49288D01*
X77513Y-49282D01*
X77440Y-49252D01*
X77362Y-49251D01*
X77290Y-49281D01*
X77234Y-49337D01*
X77204Y-49409D01*
X77204Y-49487D01*
X77234Y-49560D01*
X77289Y-49615D01*
X77362Y-49645D01*
X77440Y-49645D01*
X77512Y-49615D01*
X77519Y-49609D01*
X77519Y-50157D01*
X77500Y-50157D01*
X77428Y-50187D01*
X77372Y-50242D01*
X77342Y-50315D01*
X77342Y-50393D01*
X77372Y-50465D01*
X77427Y-50521D01*
X77452Y-50531D01*
X77428Y-50541D01*
X77372Y-50597D01*
X77342Y-50669D01*
X77342Y-50747D01*
X77372Y-50820D01*
X77427Y-50875D01*
X77500Y-50905D01*
X77578Y-50905D01*
X77650Y-50875D01*
X77706Y-50820D01*
X77736Y-50747D01*
X77736Y-50669D01*
X77706Y-50597D01*
X77651Y-50541D01*
X77626Y-50531D01*
X77650Y-50521D01*
X77699Y-50472D01*
X78602Y-50472D01*
X78602Y-50708D01*
X78602Y-50708D01*
G37*
G54D18*
X78602Y-50708D02*
X78267Y-50708D01*
X78267Y-51690D01*
X78241Y-51663D01*
X78169Y-51633D01*
X78090Y-51633D01*
X78018Y-51663D01*
X78011Y-51670D01*
X78011Y-51161D01*
X77981Y-51089D01*
X77926Y-51034D01*
X77854Y-51003D01*
X77775Y-51003D01*
X77703Y-51033D01*
X77648Y-51089D01*
X77618Y-51161D01*
X77618Y-51239D01*
X77647Y-51312D01*
X77703Y-51367D01*
X77775Y-51397D01*
X77853Y-51397D01*
X77926Y-51367D01*
X77981Y-51312D01*
X78011Y-51240D01*
X78011Y-51161D01*
X78011Y-51670D01*
X77963Y-51719D01*
X77933Y-51791D01*
X77933Y-51869D01*
X77962Y-51942D01*
X78018Y-51997D01*
X78090Y-52027D01*
X78168Y-52027D01*
X78241Y-51997D01*
X78267Y-51971D01*
X78267Y-52322D01*
X78464Y-52322D01*
X78464Y-54232D01*
X78287Y-54232D01*
X78287Y-53563D01*
X78257Y-53491D01*
X78202Y-53435D01*
X78129Y-53405D01*
X78051Y-53405D01*
X77979Y-53435D01*
X77923Y-53490D01*
X77893Y-53563D01*
X77893Y-53641D01*
X77923Y-53713D01*
X77978Y-53769D01*
X78051Y-53799D01*
X78129Y-53799D01*
X78201Y-53769D01*
X78257Y-53714D01*
X78287Y-53641D01*
X78287Y-53563D01*
X78287Y-54232D01*
X78267Y-54232D01*
X78267Y-54642D01*
X78241Y-54616D01*
X78169Y-54586D01*
X78090Y-54586D01*
X78018Y-54616D01*
X77963Y-54671D01*
X77933Y-54744D01*
X77933Y-54822D01*
X77962Y-54894D01*
X78018Y-54950D01*
X78090Y-54980D01*
X78168Y-54980D01*
X78241Y-54950D01*
X78267Y-54924D01*
X78267Y-56243D01*
X77696Y-56814D01*
X77696Y-54744D01*
X77696Y-51791D01*
X77666Y-51719D01*
X77611Y-51663D01*
X77539Y-51633D01*
X77461Y-51633D01*
X77388Y-51663D01*
X77333Y-51719D01*
X77303Y-51791D01*
X77303Y-51869D01*
X77333Y-51942D01*
X77388Y-51997D01*
X77460Y-52027D01*
X77538Y-52027D01*
X77611Y-51997D01*
X77666Y-51942D01*
X77696Y-51870D01*
X77696Y-51791D01*
X77696Y-54744D01*
X77666Y-54672D01*
X77657Y-54662D01*
X77657Y-53268D01*
X77627Y-53195D01*
X77572Y-53140D01*
X77499Y-53110D01*
X77421Y-53110D01*
X77349Y-53140D01*
X77293Y-53195D01*
X77263Y-53267D01*
X77263Y-53346D01*
X77293Y-53418D01*
X77348Y-53473D01*
X77421Y-53503D01*
X77499Y-53503D01*
X77571Y-53474D01*
X77627Y-53418D01*
X77657Y-53346D01*
X77657Y-53268D01*
X77657Y-54662D01*
X77611Y-54616D01*
X77539Y-54586D01*
X77461Y-54586D01*
X77388Y-54616D01*
X77333Y-54671D01*
X77303Y-54744D01*
X77303Y-54822D01*
X77333Y-54894D01*
X77388Y-54950D01*
X77460Y-54980D01*
X77538Y-54980D01*
X77611Y-54950D01*
X77666Y-54895D01*
X77696Y-54822D01*
X77696Y-54744D01*
X77696Y-56814D01*
X76676Y-57834D01*
X75244Y-57834D01*
X75196Y-57814D01*
X75118Y-57814D01*
X75070Y-57834D01*
X74673Y-57834D01*
X74625Y-57814D01*
X74547Y-57814D01*
X74499Y-57834D01*
X74102Y-57834D01*
X74055Y-57814D01*
X73976Y-57814D01*
X73929Y-57834D01*
X72972Y-57834D01*
X72972Y-57047D01*
X72942Y-56975D01*
X72887Y-56919D01*
X72814Y-56889D01*
X72736Y-56889D01*
X72664Y-56919D01*
X72608Y-56974D01*
X72578Y-57047D01*
X72578Y-57125D01*
X72608Y-57197D01*
X72663Y-57253D01*
X72736Y-57283D01*
X72814Y-57283D01*
X72886Y-57253D01*
X72942Y-57198D01*
X72972Y-57125D01*
X72972Y-57047D01*
X72972Y-57834D01*
X72066Y-57834D01*
X72066Y-57047D01*
X72037Y-56975D01*
X71981Y-56919D01*
X71909Y-56889D01*
X71831Y-56889D01*
X71758Y-56919D01*
X71703Y-56974D01*
X71692Y-56999D01*
X71682Y-56975D01*
X71627Y-56919D01*
X71555Y-56889D01*
X71476Y-56889D01*
X71404Y-56919D01*
X71348Y-56974D01*
X71318Y-57047D01*
X71318Y-57125D01*
X71348Y-57197D01*
X71404Y-57253D01*
X71476Y-57283D01*
X71554Y-57283D01*
X71627Y-57253D01*
X71682Y-57198D01*
X71692Y-57173D01*
X71703Y-57197D01*
X71758Y-57253D01*
X71830Y-57283D01*
X71909Y-57283D01*
X71981Y-57253D01*
X72036Y-57198D01*
X72066Y-57125D01*
X72066Y-57047D01*
X72066Y-57834D01*
X69692Y-57834D01*
X69645Y-57814D01*
X69567Y-57814D01*
X69519Y-57834D01*
X69122Y-57834D01*
X69074Y-57814D01*
X68996Y-57814D01*
X68948Y-57834D01*
X68551Y-57834D01*
X68503Y-57814D01*
X68425Y-57814D01*
X68377Y-57834D01*
X66917Y-57834D01*
X66870Y-57814D01*
X66791Y-57814D01*
X66775Y-57821D01*
X65992Y-57038D01*
X65974Y-56994D01*
X65918Y-56939D01*
X65874Y-56921D01*
X65393Y-56440D01*
X65393Y-56024D01*
X65363Y-55951D01*
X65308Y-55896D01*
X65236Y-55866D01*
X65157Y-55866D01*
X65085Y-55896D01*
X65030Y-55951D01*
X65000Y-56023D01*
X64999Y-56101D01*
X65029Y-56174D01*
X65085Y-56229D01*
X65157Y-56259D01*
X65235Y-56259D01*
X65308Y-56229D01*
X65363Y-56174D01*
X65393Y-56102D01*
X65393Y-56024D01*
X65393Y-56440D01*
X65291Y-56338D01*
X65197Y-56338D01*
X65157Y-56338D01*
X65157Y-56338D01*
X64330Y-56338D01*
X64291Y-56338D01*
X64291Y-56338D01*
X63464Y-56338D01*
X63425Y-56338D01*
X63425Y-56338D01*
X63346Y-56338D01*
X63346Y-56223D01*
X63352Y-56229D01*
X63425Y-56259D01*
X63503Y-56259D01*
X63575Y-56229D01*
X63631Y-56174D01*
X63661Y-56102D01*
X63661Y-56024D01*
X63631Y-55951D01*
X63576Y-55896D01*
X63503Y-55866D01*
X63425Y-55866D01*
X63353Y-55896D01*
X63346Y-55902D01*
X63346Y-55708D01*
X63464Y-55708D01*
X63503Y-55708D01*
X63503Y-55708D01*
X64330Y-55708D01*
X64369Y-55708D01*
X64369Y-55708D01*
X65196Y-55708D01*
X65235Y-55708D01*
X65235Y-55708D01*
X66243Y-55708D01*
X67385Y-56850D01*
X68799Y-56850D01*
X68727Y-56880D01*
X68671Y-56935D01*
X68641Y-57007D01*
X68641Y-57086D01*
X68671Y-57158D01*
X68726Y-57214D01*
X68799Y-57244D01*
X68877Y-57244D01*
X68949Y-57214D01*
X69005Y-57158D01*
X69035Y-57086D01*
X69035Y-57008D01*
X69005Y-56935D01*
X68950Y-56880D01*
X68877Y-56850D01*
X68838Y-56850D01*
X75921Y-56850D01*
X76771Y-56000D01*
X76771Y-53762D01*
X76780Y-53753D01*
X76810Y-53681D01*
X76811Y-53602D01*
X76781Y-53530D01*
X76771Y-53520D01*
X76771Y-53093D01*
X76780Y-53084D01*
X76810Y-53011D01*
X76811Y-52933D01*
X76791Y-52885D01*
X76811Y-52893D01*
X76889Y-52893D01*
X76961Y-52863D01*
X77017Y-52808D01*
X77047Y-52736D01*
X77047Y-52657D01*
X77017Y-52585D01*
X76962Y-52530D01*
X76889Y-52500D01*
X76811Y-52499D01*
X76771Y-52516D01*
X76771Y-49904D01*
X76780Y-49895D01*
X76810Y-49822D01*
X76811Y-49744D01*
X76781Y-49672D01*
X76771Y-49662D01*
X76771Y-49235D01*
X76780Y-49225D01*
X76810Y-49153D01*
X76811Y-49075D01*
X76781Y-49002D01*
X76771Y-48993D01*
X76771Y-48762D01*
X76780Y-48753D01*
X76802Y-48700D01*
X76811Y-48700D01*
X77519Y-48700D01*
X77519Y-49288D01*
X77513Y-49282D01*
X77440Y-49252D01*
X77362Y-49251D01*
X77290Y-49281D01*
X77234Y-49337D01*
X77204Y-49409D01*
X77204Y-49487D01*
X77234Y-49560D01*
X77289Y-49615D01*
X77362Y-49645D01*
X77440Y-49645D01*
X77512Y-49615D01*
X77519Y-49609D01*
X77519Y-50157D01*
X77500Y-50157D01*
X77428Y-50187D01*
X77372Y-50242D01*
X77342Y-50315D01*
X77342Y-50393D01*
X77372Y-50465D01*
X77427Y-50521D01*
X77452Y-50531D01*
X77428Y-50541D01*
X77372Y-50597D01*
X77342Y-50669D01*
X77342Y-50747D01*
X77372Y-50820D01*
X77427Y-50875D01*
X77500Y-50905D01*
X77578Y-50905D01*
X77650Y-50875D01*
X77706Y-50820D01*
X77736Y-50747D01*
X77736Y-50669D01*
X77706Y-50597D01*
X77651Y-50541D01*
X77626Y-50531D01*
X77650Y-50521D01*
X77699Y-50472D01*
X78602Y-50472D01*
X78602Y-50708D01*
M02*
