G04 (created by PCBNEW (2013-07-07 BZR 4022)-stable) date 19/11/2015 00:50:24*
%MOIN*%
G04 Gerber Fmt 3.4, Leading zero omitted, Abs format*
%FSLAX34Y34*%
G01*
G70*
G90*
G04 APERTURE LIST*
%ADD10C,0.00590551*%
%ADD11C,0.015748*%
%ADD12C,0.0137795*%
%ADD13C,0.00393701*%
G04 APERTURE END LIST*
G54D10*
G54D11*
X69625Y-48818D03*
X68582Y-48681D03*
X67874Y-48779D03*
X69212Y-48858D03*
X71830Y-50669D03*
X71929Y-52165D03*
X71023Y-55196D03*
X71712Y-52027D03*
X72529Y-53759D03*
X68110Y-55629D03*
X67893Y-55629D03*
X70413Y-49409D03*
X74074Y-53208D03*
X63464Y-55511D03*
X64330Y-55511D03*
X65196Y-55511D03*
X68405Y-56240D03*
X73759Y-53897D03*
X71791Y-55984D03*
X73759Y-56062D03*
X68838Y-56240D03*
X69625Y-49153D03*
X71417Y-55374D03*
X67913Y-49724D03*
X72401Y-50964D03*
X73129Y-52814D03*
X75826Y-56299D03*
X78503Y-50570D03*
X78366Y-53602D03*
X77165Y-53917D03*
X76870Y-51653D03*
X77165Y-48838D03*
X65196Y-55826D03*
X64330Y-55826D03*
X63464Y-55826D03*
G54D12*
X70890Y-53264D03*
X69580Y-54313D03*
X70629Y-53789D03*
X68662Y-50249D03*
X67745Y-52216D03*
G54D11*
X63267Y-53858D03*
X63464Y-51496D03*
G54D12*
X67614Y-51036D03*
G54D11*
X63267Y-51338D03*
G54D12*
X67745Y-51167D03*
G54D11*
X63267Y-51023D03*
G54D12*
X67744Y-51691D03*
G54D11*
X63464Y-52125D03*
G54D12*
X67481Y-51691D03*
G54D11*
X65196Y-51023D03*
X66850Y-50984D03*
G54D12*
X67614Y-51298D03*
G54D11*
X63267Y-51653D03*
X63464Y-51811D03*
G54D12*
X67745Y-51429D03*
G54D11*
X63464Y-51181D03*
G54D12*
X67876Y-51560D03*
G54D11*
X66574Y-51200D03*
X64370Y-51181D03*
X65196Y-51338D03*
X66653Y-51417D03*
G54D12*
X67614Y-51560D03*
G54D11*
X63267Y-51968D03*
X66811Y-51574D03*
X64370Y-51496D03*
X63267Y-53228D03*
G54D12*
X67745Y-53527D03*
G54D11*
X64370Y-53385D03*
G54D12*
X67614Y-53396D03*
G54D11*
X63267Y-52283D03*
G54D12*
X67745Y-52740D03*
G54D11*
X63464Y-52440D03*
G54D12*
X67483Y-52740D03*
X67744Y-53264D03*
G54D11*
X63464Y-53385D03*
G54D12*
X67481Y-53264D03*
G54D11*
X65196Y-53228D03*
X63267Y-52913D03*
G54D12*
X67614Y-53133D03*
G54D11*
X63464Y-53070D03*
X66751Y-53799D03*
X63464Y-52755D03*
G54D12*
X67745Y-53002D03*
G54D11*
X66988Y-53031D03*
X64370Y-53070D03*
X63267Y-52598D03*
G54D12*
X67614Y-52871D03*
G54D11*
X65196Y-52913D03*
X66751Y-53031D03*
X66988Y-51988D03*
X65196Y-51968D03*
X66515Y-52795D03*
X65196Y-52598D03*
X66811Y-51889D03*
X64370Y-51811D03*
X64370Y-52440D03*
G54D12*
X67876Y-52609D03*
G54D11*
X63464Y-54330D03*
X67500Y-55688D03*
X65393Y-54803D03*
X67165Y-55728D03*
X66811Y-55728D03*
X63267Y-54488D03*
X63267Y-54173D03*
X66535Y-55118D03*
X75039Y-56220D03*
X75255Y-56437D03*
X76181Y-56299D03*
X74763Y-56555D03*
X78503Y-51771D03*
X78503Y-51220D03*
X78503Y-51496D03*
X78503Y-50925D03*
X78720Y-54192D03*
X78090Y-53602D03*
X78503Y-54527D03*
X76003Y-51791D03*
X73562Y-49625D03*
X73917Y-50059D03*
X74370Y-50413D03*
X75570Y-49547D03*
X75216Y-49547D03*
X76023Y-48759D03*
X71515Y-57086D03*
X71870Y-57086D03*
X72775Y-57086D03*
X71870Y-56594D03*
X72775Y-56594D03*
X74960Y-54488D03*
X75885Y-54488D03*
X75885Y-55000D03*
X74960Y-55000D03*
X74625Y-55000D03*
X64783Y-57342D03*
X64330Y-50866D03*
X63877Y-57342D03*
X63464Y-56062D03*
X65196Y-55275D03*
X65196Y-56535D03*
X64330Y-56535D03*
X63464Y-56535D03*
X63464Y-57086D03*
X63464Y-56771D03*
X64330Y-57086D03*
X64330Y-56771D03*
X65196Y-56771D03*
X65196Y-57086D03*
X65196Y-56062D03*
X65196Y-55039D03*
X63464Y-55275D03*
X63464Y-55039D03*
X63464Y-54724D03*
X63464Y-50866D03*
X64330Y-50393D03*
X63464Y-50393D03*
X64783Y-49271D03*
X63877Y-49271D03*
X64330Y-50157D03*
X63464Y-50157D03*
X65196Y-49842D03*
X63464Y-49842D03*
X64330Y-49842D03*
X63464Y-49527D03*
X64330Y-49527D03*
X65196Y-49527D03*
X67460Y-56062D03*
X66141Y-52421D03*
X71791Y-55334D03*
X66122Y-57874D03*
X65492Y-57874D03*
X66830Y-58011D03*
X66456Y-58011D03*
X69606Y-58011D03*
X68464Y-58011D03*
X69035Y-58011D03*
X72578Y-58129D03*
X71003Y-58129D03*
X75157Y-58011D03*
X74015Y-58011D03*
X74586Y-58011D03*
X77500Y-57598D03*
X76791Y-58011D03*
X77362Y-58011D03*
X77500Y-54783D03*
X78129Y-54783D03*
X77814Y-51200D03*
X78129Y-51830D03*
X77500Y-51830D03*
X78129Y-48976D03*
X78129Y-48622D03*
X73818Y-48464D03*
X72578Y-48464D03*
X71043Y-48464D03*
X66456Y-48602D03*
X65492Y-48740D03*
X66122Y-48740D03*
X78503Y-49330D03*
X78503Y-48622D03*
X79133Y-48444D03*
X79763Y-48444D03*
X78503Y-48976D03*
X79330Y-53503D03*
X79842Y-50905D03*
X79448Y-50551D03*
X79192Y-54803D03*
X78503Y-54803D03*
X78503Y-55295D03*
X78503Y-55039D03*
X79566Y-56259D03*
X78503Y-57283D03*
X78503Y-57992D03*
X79881Y-58188D03*
X78858Y-58188D03*
X79133Y-58188D03*
X78503Y-57637D03*
X68838Y-57047D03*
X72598Y-55984D03*
X77539Y-50708D03*
X76850Y-52696D03*
X76318Y-54291D03*
X75807Y-53307D03*
X76614Y-52972D03*
X76614Y-53641D03*
X76515Y-53307D03*
X77539Y-50354D03*
X76614Y-49783D03*
X76614Y-48641D03*
X76515Y-49448D03*
X76614Y-49114D03*
X66535Y-55433D03*
X65807Y-49507D03*
X65807Y-57106D03*
X65807Y-55413D03*
X65807Y-54153D03*
X65807Y-52460D03*
X66515Y-53799D03*
X66181Y-54153D03*
X74350Y-53641D03*
X74360Y-56328D03*
X75531Y-52716D03*
X74980Y-50925D03*
X74724Y-51791D03*
X75216Y-50925D03*
X67185Y-49389D03*
X69389Y-49153D03*
X68523Y-49744D03*
X67204Y-48661D03*
G54D12*
X69974Y-50511D03*
G54D11*
X69763Y-51062D03*
X69763Y-51338D03*
X69488Y-51338D03*
X70039Y-51062D03*
X70314Y-51614D03*
X70314Y-52165D03*
X70039Y-52716D03*
X70314Y-52992D03*
X70039Y-52992D03*
X69763Y-52992D03*
X69232Y-52992D03*
X68700Y-52992D03*
X68149Y-52992D03*
X68700Y-52165D03*
X68425Y-51062D03*
X68700Y-51614D03*
X68700Y-51338D03*
X68700Y-51062D03*
X69232Y-51062D03*
X68956Y-51062D03*
X69488Y-51062D03*
X68956Y-51338D03*
X69232Y-51338D03*
X68425Y-51338D03*
X70039Y-51338D03*
X70314Y-51338D03*
X70590Y-51338D03*
X70590Y-51614D03*
X70039Y-51614D03*
X69763Y-51614D03*
X68425Y-51614D03*
X69232Y-51614D03*
X68956Y-51614D03*
X69488Y-51614D03*
X69488Y-52165D03*
X68956Y-52165D03*
X69232Y-52165D03*
X68425Y-52165D03*
X69763Y-52165D03*
X70039Y-52165D03*
X70590Y-52165D03*
X70590Y-51889D03*
X70314Y-51889D03*
X70039Y-51889D03*
X69763Y-51889D03*
X68425Y-51889D03*
X68700Y-51889D03*
X69232Y-51889D03*
X68956Y-51889D03*
X69488Y-51889D03*
X69488Y-52992D03*
X68956Y-52992D03*
X68425Y-52992D03*
X70039Y-53267D03*
X69763Y-53267D03*
X68149Y-53267D03*
X68425Y-53267D03*
X68700Y-53267D03*
X69232Y-53267D03*
X68956Y-53267D03*
X69488Y-53267D03*
X69488Y-52716D03*
X68956Y-52716D03*
X69232Y-52716D03*
X68700Y-52716D03*
X68425Y-52716D03*
X69763Y-52716D03*
X70314Y-52716D03*
X70314Y-52440D03*
X70039Y-52440D03*
X69763Y-52440D03*
X68149Y-52440D03*
X68425Y-52440D03*
X68700Y-52440D03*
X69232Y-52440D03*
X68956Y-52440D03*
X69488Y-52440D03*
X72322Y-52401D03*
X71811Y-51338D03*
G54D12*
X70760Y-54182D03*
G54D11*
X71791Y-54133D03*
G54D12*
X70891Y-53789D03*
G54D11*
X68228Y-54881D03*
G54D12*
X68662Y-54182D03*
X69056Y-54313D03*
G54D11*
X71968Y-53976D03*
X69015Y-54724D03*
X69114Y-55000D03*
X69822Y-54842D03*
X71870Y-53070D03*
G54D12*
X71416Y-53527D03*
X71285Y-53133D03*
X71285Y-52871D03*
X70760Y-50774D03*
X70105Y-50642D03*
X69187Y-50774D03*
X69056Y-50642D03*
X68792Y-50380D03*
X68400Y-50249D03*
G54D11*
X67913Y-49940D03*
G54D12*
X68400Y-53920D03*
X67351Y-53396D03*
X67483Y-51167D03*
X67614Y-51822D03*
X67876Y-52085D03*
G54D11*
X67224Y-53779D03*
G54D12*
X67745Y-51953D03*
G54D11*
X64330Y-55275D03*
X77401Y-49448D03*
X65196Y-54015D03*
X77460Y-53307D03*
X65452Y-54015D03*
X63464Y-53700D03*
X66653Y-51712D03*
X65196Y-51653D03*
X66515Y-53031D03*
X64370Y-52755D03*
G54D12*
X71022Y-50249D03*
G54D11*
X79724Y-49921D03*
G54D12*
X70760Y-50249D03*
X70628Y-50380D03*
X70891Y-50118D03*
X69187Y-50511D03*
X71153Y-51429D03*
X69449Y-54444D03*
X69317Y-50380D03*
X69449Y-50249D03*
X68268Y-50380D03*
X68794Y-50642D03*
G54D11*
X70590Y-54744D03*
G54D12*
X68925Y-53920D03*
X69579Y-54051D03*
X68925Y-54182D03*
G54D11*
X72027Y-55590D03*
G54D12*
X71416Y-51167D03*
X70891Y-51167D03*
X68400Y-50774D03*
X70890Y-54051D03*
X69187Y-53920D03*
G54D11*
X68740Y-55000D03*
X68110Y-56574D03*
G54D12*
X69056Y-53789D03*
G54D11*
X66889Y-52460D03*
X66968Y-53996D03*
G54D12*
X67744Y-50905D03*
X67614Y-52085D03*
X71153Y-51167D03*
X70891Y-51429D03*
X71022Y-51036D03*
X71022Y-53658D03*
X68531Y-53789D03*
X68400Y-54182D03*
X67614Y-52609D03*
G54D11*
X66299Y-53366D03*
X66771Y-50433D03*
G54D12*
X67876Y-51298D03*
X67876Y-51822D03*
X71153Y-52740D03*
X71022Y-53396D03*
X71285Y-53658D03*
X71153Y-53002D03*
X71285Y-53396D03*
G54D11*
X72736Y-53208D03*
G54D12*
X71022Y-53133D03*
X68007Y-53789D03*
X67745Y-53789D03*
G54D11*
X79822Y-53503D03*
G54D12*
X68268Y-54051D03*
G54D11*
X79055Y-56259D03*
X79566Y-53503D03*
G54D12*
X68138Y-54182D03*
G54D11*
X79311Y-56259D03*
X71791Y-54389D03*
G54D12*
X69318Y-53789D03*
G54D11*
X63464Y-54015D03*
G54D12*
X68138Y-53920D03*
X68530Y-50380D03*
G54D11*
X65196Y-50236D03*
X65413Y-53346D03*
G54D12*
X67483Y-52216D03*
G54D11*
X64370Y-52125D03*
G54D12*
X67614Y-52347D03*
G54D11*
X65196Y-52283D03*
X65196Y-54488D03*
G54D12*
X71022Y-53920D03*
G54D11*
X63267Y-53543D03*
X67342Y-54409D03*
G54D12*
X67876Y-52347D03*
G54D10*
G36*
X79940Y-58248D02*
X79448Y-58248D01*
X79448Y-56232D01*
X79427Y-56181D01*
X79389Y-56143D01*
X79338Y-56122D01*
X79283Y-56122D01*
X79233Y-56142D01*
X79194Y-56181D01*
X79183Y-56208D01*
X79172Y-56181D01*
X79133Y-56143D01*
X79082Y-56122D01*
X79027Y-56122D01*
X78977Y-56142D01*
X78938Y-56181D01*
X78917Y-56232D01*
X78917Y-56287D01*
X78938Y-56337D01*
X78976Y-56376D01*
X79027Y-56397D01*
X79082Y-56397D01*
X79133Y-56376D01*
X79171Y-56337D01*
X79183Y-56311D01*
X79194Y-56337D01*
X79232Y-56376D01*
X79283Y-56397D01*
X79338Y-56397D01*
X79388Y-56376D01*
X79427Y-56337D01*
X79448Y-56287D01*
X79448Y-56232D01*
X79448Y-58248D01*
X78641Y-58248D01*
X78641Y-50543D01*
X78620Y-50492D01*
X78582Y-50454D01*
X78531Y-50433D01*
X78476Y-50433D01*
X78425Y-50453D01*
X78387Y-50492D01*
X78366Y-50543D01*
X78366Y-50598D01*
X78387Y-50648D01*
X78425Y-50687D01*
X78476Y-50708D01*
X78531Y-50708D01*
X78581Y-50687D01*
X78620Y-50649D01*
X78641Y-50598D01*
X78641Y-50543D01*
X78641Y-58248D01*
X78503Y-58248D01*
X78503Y-53575D01*
X78483Y-53524D01*
X78444Y-53485D01*
X78393Y-53464D01*
X78338Y-53464D01*
X78288Y-53485D01*
X78249Y-53524D01*
X78228Y-53574D01*
X78228Y-53629D01*
X78249Y-53680D01*
X78287Y-53719D01*
X78338Y-53740D01*
X78393Y-53740D01*
X78444Y-53719D01*
X78482Y-53680D01*
X78503Y-53629D01*
X78503Y-53575D01*
X78503Y-58248D01*
X77598Y-58248D01*
X77598Y-53279D01*
X77577Y-53229D01*
X77539Y-53190D01*
X77539Y-49421D01*
X77518Y-49370D01*
X77479Y-49332D01*
X77429Y-49311D01*
X77374Y-49310D01*
X77323Y-49331D01*
X77303Y-49352D01*
X77303Y-48811D01*
X77282Y-48760D01*
X77243Y-48721D01*
X77192Y-48700D01*
X77138Y-48700D01*
X77087Y-48721D01*
X77048Y-48760D01*
X77027Y-48811D01*
X77027Y-48865D01*
X77048Y-48916D01*
X77087Y-48955D01*
X77137Y-48976D01*
X77192Y-48976D01*
X77243Y-48955D01*
X77282Y-48916D01*
X77303Y-48866D01*
X77303Y-48811D01*
X77303Y-49352D01*
X77284Y-49370D01*
X77263Y-49421D01*
X77263Y-49476D01*
X77284Y-49526D01*
X77323Y-49565D01*
X77374Y-49586D01*
X77428Y-49586D01*
X77479Y-49565D01*
X77518Y-49526D01*
X77539Y-49476D01*
X77539Y-49421D01*
X77539Y-53190D01*
X77538Y-53190D01*
X77488Y-53169D01*
X77433Y-53169D01*
X77382Y-53190D01*
X77343Y-53228D01*
X77322Y-53279D01*
X77322Y-53334D01*
X77343Y-53385D01*
X77382Y-53423D01*
X77433Y-53444D01*
X77487Y-53444D01*
X77538Y-53423D01*
X77577Y-53385D01*
X77598Y-53334D01*
X77598Y-53279D01*
X77598Y-58248D01*
X77303Y-58248D01*
X77303Y-53890D01*
X77282Y-53839D01*
X77243Y-53800D01*
X77192Y-53779D01*
X77138Y-53779D01*
X77087Y-53800D01*
X77048Y-53839D01*
X77027Y-53889D01*
X77027Y-53944D01*
X77048Y-53995D01*
X77087Y-54034D01*
X77137Y-54055D01*
X77192Y-54055D01*
X77243Y-54034D01*
X77282Y-53995D01*
X77303Y-53944D01*
X77303Y-53890D01*
X77303Y-58248D01*
X77007Y-58248D01*
X77007Y-51626D01*
X76986Y-51575D01*
X76948Y-51536D01*
X76897Y-51515D01*
X76842Y-51515D01*
X76792Y-51536D01*
X76753Y-51575D01*
X76732Y-51626D01*
X76732Y-51680D01*
X76753Y-51731D01*
X76791Y-51770D01*
X76842Y-51791D01*
X76897Y-51791D01*
X76948Y-51770D01*
X76986Y-51731D01*
X77007Y-51681D01*
X77007Y-51626D01*
X77007Y-58248D01*
X75964Y-58248D01*
X75964Y-56271D01*
X75943Y-56221D01*
X75904Y-56182D01*
X75854Y-56161D01*
X75799Y-56161D01*
X75748Y-56182D01*
X75710Y-56221D01*
X75689Y-56271D01*
X75688Y-56326D01*
X75709Y-56377D01*
X75748Y-56415D01*
X75799Y-56436D01*
X75854Y-56437D01*
X75904Y-56416D01*
X75943Y-56377D01*
X75964Y-56326D01*
X75964Y-56271D01*
X75964Y-58248D01*
X74212Y-58248D01*
X74212Y-53181D01*
X74191Y-53130D01*
X74152Y-53091D01*
X74102Y-53070D01*
X74047Y-53070D01*
X73996Y-53091D01*
X73958Y-53130D01*
X73937Y-53181D01*
X73936Y-53235D01*
X73957Y-53286D01*
X73996Y-53325D01*
X74047Y-53346D01*
X74102Y-53346D01*
X74152Y-53325D01*
X74191Y-53286D01*
X74212Y-53236D01*
X74212Y-53181D01*
X74212Y-58248D01*
X73897Y-58248D01*
X73897Y-56035D01*
X73897Y-53870D01*
X73876Y-53819D01*
X73837Y-53780D01*
X73787Y-53759D01*
X73732Y-53759D01*
X73681Y-53780D01*
X73643Y-53819D01*
X73622Y-53870D01*
X73622Y-53924D01*
X73642Y-53975D01*
X73681Y-54014D01*
X73732Y-54035D01*
X73787Y-54035D01*
X73837Y-54014D01*
X73876Y-53975D01*
X73897Y-53925D01*
X73897Y-53870D01*
X73897Y-56035D01*
X73876Y-55985D01*
X73837Y-55946D01*
X73787Y-55925D01*
X73732Y-55925D01*
X73681Y-55946D01*
X73643Y-55984D01*
X73622Y-56035D01*
X73622Y-56090D01*
X73642Y-56140D01*
X73681Y-56179D01*
X73732Y-56200D01*
X73787Y-56200D01*
X73837Y-56179D01*
X73876Y-56141D01*
X73897Y-56090D01*
X73897Y-56035D01*
X73897Y-58248D01*
X73267Y-58248D01*
X73267Y-52787D01*
X73246Y-52737D01*
X73208Y-52698D01*
X73157Y-52677D01*
X73102Y-52677D01*
X73051Y-52698D01*
X73013Y-52736D01*
X72992Y-52787D01*
X72992Y-52842D01*
X73013Y-52892D01*
X73051Y-52931D01*
X73102Y-52952D01*
X73157Y-52952D01*
X73207Y-52931D01*
X73246Y-52893D01*
X73267Y-52842D01*
X73267Y-52787D01*
X73267Y-58248D01*
X72874Y-58248D01*
X72874Y-53181D01*
X72853Y-53130D01*
X72814Y-53091D01*
X72763Y-53070D01*
X72708Y-53070D01*
X72658Y-53091D01*
X72619Y-53130D01*
X72598Y-53181D01*
X72598Y-53235D01*
X72619Y-53286D01*
X72658Y-53325D01*
X72708Y-53346D01*
X72763Y-53346D01*
X72814Y-53325D01*
X72852Y-53286D01*
X72873Y-53236D01*
X72874Y-53181D01*
X72874Y-58248D01*
X72667Y-58248D01*
X72667Y-53732D01*
X72646Y-53681D01*
X72607Y-53643D01*
X72557Y-53622D01*
X72539Y-53622D01*
X72539Y-50937D01*
X72518Y-50886D01*
X72479Y-50847D01*
X72429Y-50826D01*
X72374Y-50826D01*
X72323Y-50847D01*
X72284Y-50886D01*
X72263Y-50937D01*
X72263Y-50991D01*
X72284Y-51042D01*
X72323Y-51081D01*
X72374Y-51102D01*
X72428Y-51102D01*
X72479Y-51081D01*
X72518Y-51042D01*
X72539Y-50992D01*
X72539Y-50937D01*
X72539Y-53622D01*
X72502Y-53622D01*
X72451Y-53642D01*
X72412Y-53681D01*
X72391Y-53732D01*
X72391Y-53787D01*
X72412Y-53837D01*
X72451Y-53876D01*
X72501Y-53897D01*
X72556Y-53897D01*
X72607Y-53876D01*
X72646Y-53837D01*
X72667Y-53787D01*
X72667Y-53732D01*
X72667Y-58248D01*
X72165Y-58248D01*
X72165Y-55563D01*
X72144Y-55512D01*
X72105Y-55473D01*
X72066Y-55457D01*
X72066Y-52138D01*
X72046Y-52087D01*
X72007Y-52048D01*
X71968Y-52032D01*
X71968Y-50642D01*
X71947Y-50591D01*
X71908Y-50552D01*
X71858Y-50531D01*
X71803Y-50531D01*
X71752Y-50552D01*
X71713Y-50591D01*
X71692Y-50641D01*
X71692Y-50696D01*
X71713Y-50747D01*
X71752Y-50786D01*
X71803Y-50807D01*
X71857Y-50807D01*
X71908Y-50786D01*
X71947Y-50747D01*
X71968Y-50696D01*
X71968Y-50642D01*
X71968Y-52032D01*
X71956Y-52027D01*
X71901Y-52027D01*
X71851Y-52048D01*
X71850Y-52049D01*
X71850Y-52000D01*
X71829Y-51949D01*
X71790Y-51910D01*
X71740Y-51889D01*
X71685Y-51889D01*
X71634Y-51910D01*
X71595Y-51949D01*
X71574Y-52000D01*
X71574Y-52054D01*
X71595Y-52105D01*
X71634Y-52144D01*
X71685Y-52165D01*
X71739Y-52165D01*
X71790Y-52144D01*
X71791Y-52143D01*
X71791Y-52192D01*
X71812Y-52243D01*
X71850Y-52282D01*
X71901Y-52303D01*
X71956Y-52303D01*
X72007Y-52282D01*
X72045Y-52243D01*
X72066Y-52192D01*
X72066Y-52138D01*
X72066Y-55457D01*
X72055Y-55452D01*
X72000Y-55452D01*
X71949Y-55473D01*
X71929Y-55494D01*
X71929Y-54362D01*
X71908Y-54311D01*
X71869Y-54273D01*
X71818Y-54251D01*
X71764Y-54251D01*
X71713Y-54272D01*
X71674Y-54311D01*
X71653Y-54362D01*
X71653Y-54417D01*
X71674Y-54467D01*
X71713Y-54506D01*
X71763Y-54527D01*
X71818Y-54527D01*
X71869Y-54506D01*
X71908Y-54467D01*
X71929Y-54417D01*
X71929Y-54362D01*
X71929Y-55494D01*
X71910Y-55512D01*
X71889Y-55563D01*
X71889Y-55617D01*
X71910Y-55668D01*
X71949Y-55707D01*
X72000Y-55728D01*
X72054Y-55728D01*
X72105Y-55707D01*
X72144Y-55668D01*
X72165Y-55618D01*
X72165Y-55563D01*
X72165Y-58248D01*
X71929Y-58248D01*
X71929Y-55956D01*
X71908Y-55906D01*
X71869Y-55867D01*
X71818Y-55846D01*
X71764Y-55846D01*
X71713Y-55867D01*
X71674Y-55906D01*
X71653Y-55956D01*
X71653Y-56011D01*
X71674Y-56062D01*
X71713Y-56101D01*
X71763Y-56122D01*
X71818Y-56122D01*
X71869Y-56101D01*
X71908Y-56062D01*
X71929Y-56011D01*
X71929Y-55956D01*
X71929Y-58248D01*
X71555Y-58248D01*
X71555Y-55346D01*
X71544Y-55320D01*
X71544Y-51141D01*
X71524Y-51094D01*
X71488Y-51058D01*
X71441Y-51039D01*
X71390Y-51039D01*
X71343Y-51058D01*
X71307Y-51094D01*
X71288Y-51141D01*
X71288Y-51192D01*
X71307Y-51239D01*
X71343Y-51275D01*
X71390Y-51295D01*
X71441Y-51295D01*
X71488Y-51275D01*
X71524Y-51239D01*
X71544Y-51192D01*
X71544Y-51141D01*
X71544Y-55320D01*
X71534Y-55296D01*
X71495Y-55257D01*
X71444Y-55236D01*
X71413Y-55236D01*
X71413Y-53632D01*
X71413Y-53370D01*
X71393Y-53323D01*
X71357Y-53287D01*
X71310Y-53268D01*
X71281Y-53268D01*
X71281Y-52977D01*
X71281Y-52715D01*
X71281Y-51404D01*
X71281Y-51141D01*
X71262Y-51094D01*
X71226Y-51058D01*
X71179Y-51039D01*
X71150Y-51039D01*
X71150Y-51010D01*
X71150Y-50224D01*
X71131Y-50177D01*
X71095Y-50141D01*
X71048Y-50121D01*
X71019Y-50121D01*
X71019Y-50093D01*
X71000Y-50046D01*
X70964Y-50010D01*
X70917Y-49990D01*
X70866Y-49990D01*
X70819Y-50009D01*
X70783Y-50045D01*
X70763Y-50092D01*
X70763Y-50121D01*
X70735Y-50121D01*
X70688Y-50141D01*
X70652Y-50177D01*
X70632Y-50224D01*
X70632Y-50252D01*
X70603Y-50252D01*
X70555Y-50272D01*
X70551Y-50276D01*
X70551Y-49382D01*
X70530Y-49331D01*
X70491Y-49292D01*
X70440Y-49271D01*
X70386Y-49271D01*
X70335Y-49292D01*
X70296Y-49331D01*
X70275Y-49381D01*
X70275Y-49436D01*
X70296Y-49487D01*
X70335Y-49526D01*
X70385Y-49547D01*
X70440Y-49547D01*
X70491Y-49526D01*
X70530Y-49487D01*
X70551Y-49436D01*
X70551Y-49382D01*
X70551Y-50276D01*
X70519Y-50308D01*
X70500Y-50355D01*
X70500Y-50406D01*
X70519Y-50453D01*
X70555Y-50489D01*
X70602Y-50508D01*
X70653Y-50508D01*
X70700Y-50489D01*
X70736Y-50453D01*
X70756Y-50406D01*
X70756Y-50377D01*
X70785Y-50377D01*
X70833Y-50358D01*
X70869Y-50322D01*
X70888Y-50275D01*
X70888Y-50246D01*
X70894Y-50246D01*
X70894Y-50274D01*
X70914Y-50321D01*
X70950Y-50358D01*
X70997Y-50377D01*
X71048Y-50377D01*
X71095Y-50358D01*
X71131Y-50322D01*
X71150Y-50275D01*
X71150Y-50224D01*
X71150Y-51010D01*
X71131Y-50963D01*
X71095Y-50927D01*
X71048Y-50908D01*
X70997Y-50908D01*
X70950Y-50927D01*
X70914Y-50963D01*
X70894Y-51010D01*
X70894Y-51039D01*
X70866Y-51039D01*
X70819Y-51058D01*
X70783Y-51094D01*
X70763Y-51141D01*
X70763Y-51192D01*
X70783Y-51239D01*
X70819Y-51275D01*
X70866Y-51295D01*
X70917Y-51295D01*
X70964Y-51275D01*
X71000Y-51239D01*
X71019Y-51192D01*
X71019Y-51164D01*
X71025Y-51164D01*
X71025Y-51192D01*
X71045Y-51239D01*
X71081Y-51275D01*
X71128Y-51295D01*
X71179Y-51295D01*
X71226Y-51275D01*
X71262Y-51239D01*
X71281Y-51192D01*
X71281Y-51141D01*
X71281Y-51404D01*
X71262Y-51357D01*
X71226Y-51321D01*
X71179Y-51301D01*
X71128Y-51301D01*
X71081Y-51320D01*
X71045Y-51356D01*
X71026Y-51403D01*
X71025Y-51454D01*
X71045Y-51501D01*
X71081Y-51537D01*
X71128Y-51557D01*
X71179Y-51557D01*
X71226Y-51538D01*
X71262Y-51502D01*
X71281Y-51455D01*
X71281Y-51404D01*
X71281Y-52715D01*
X71262Y-52668D01*
X71226Y-52632D01*
X71179Y-52612D01*
X71128Y-52612D01*
X71081Y-52632D01*
X71045Y-52667D01*
X71026Y-52714D01*
X71025Y-52765D01*
X71045Y-52812D01*
X71081Y-52848D01*
X71128Y-52868D01*
X71179Y-52868D01*
X71226Y-52849D01*
X71262Y-52813D01*
X71281Y-52766D01*
X71281Y-52715D01*
X71281Y-52977D01*
X71262Y-52930D01*
X71226Y-52894D01*
X71179Y-52874D01*
X71128Y-52874D01*
X71081Y-52894D01*
X71045Y-52930D01*
X71026Y-52977D01*
X71025Y-53005D01*
X71019Y-53005D01*
X71019Y-51404D01*
X71000Y-51357D01*
X70964Y-51321D01*
X70917Y-51301D01*
X70866Y-51301D01*
X70819Y-51320D01*
X70783Y-51356D01*
X70763Y-51403D01*
X70763Y-51454D01*
X70783Y-51501D01*
X70819Y-51537D01*
X70866Y-51557D01*
X70917Y-51557D01*
X70964Y-51538D01*
X71000Y-51502D01*
X71019Y-51455D01*
X71019Y-51404D01*
X71019Y-53005D01*
X70997Y-53005D01*
X70950Y-53025D01*
X70914Y-53061D01*
X70894Y-53108D01*
X70894Y-53137D01*
X70865Y-53136D01*
X70818Y-53156D01*
X70782Y-53192D01*
X70762Y-53239D01*
X70762Y-53290D01*
X70782Y-53337D01*
X70817Y-53373D01*
X70864Y-53392D01*
X70894Y-53392D01*
X70894Y-53421D01*
X70914Y-53468D01*
X70950Y-53504D01*
X70997Y-53523D01*
X71048Y-53524D01*
X71095Y-53504D01*
X71131Y-53468D01*
X71150Y-53421D01*
X71150Y-53370D01*
X71131Y-53323D01*
X71095Y-53287D01*
X71048Y-53268D01*
X71018Y-53268D01*
X71018Y-53261D01*
X71048Y-53261D01*
X71095Y-53242D01*
X71131Y-53206D01*
X71150Y-53159D01*
X71150Y-53130D01*
X71179Y-53130D01*
X71226Y-53111D01*
X71262Y-53075D01*
X71281Y-53028D01*
X71281Y-52977D01*
X71281Y-53268D01*
X71259Y-53268D01*
X71212Y-53287D01*
X71176Y-53323D01*
X71157Y-53370D01*
X71157Y-53421D01*
X71176Y-53468D01*
X71212Y-53504D01*
X71259Y-53523D01*
X71310Y-53524D01*
X71357Y-53504D01*
X71393Y-53468D01*
X71412Y-53421D01*
X71413Y-53370D01*
X71413Y-53632D01*
X71393Y-53585D01*
X71357Y-53549D01*
X71310Y-53530D01*
X71259Y-53530D01*
X71212Y-53549D01*
X71176Y-53585D01*
X71157Y-53632D01*
X71157Y-53683D01*
X71176Y-53730D01*
X71212Y-53766D01*
X71259Y-53786D01*
X71310Y-53786D01*
X71357Y-53766D01*
X71393Y-53730D01*
X71412Y-53683D01*
X71413Y-53632D01*
X71413Y-55236D01*
X71390Y-55236D01*
X71339Y-55257D01*
X71300Y-55295D01*
X71279Y-55346D01*
X71279Y-55401D01*
X71300Y-55451D01*
X71339Y-55490D01*
X71389Y-55511D01*
X71444Y-55511D01*
X71495Y-55490D01*
X71534Y-55452D01*
X71555Y-55401D01*
X71555Y-55346D01*
X71555Y-58248D01*
X71161Y-58248D01*
X71161Y-55169D01*
X71150Y-55143D01*
X71150Y-53895D01*
X71150Y-53632D01*
X71131Y-53585D01*
X71095Y-53549D01*
X71048Y-53530D01*
X70997Y-53530D01*
X70950Y-53549D01*
X70914Y-53585D01*
X70894Y-53632D01*
X70894Y-53683D01*
X70914Y-53730D01*
X70950Y-53766D01*
X70997Y-53786D01*
X71048Y-53786D01*
X71095Y-53766D01*
X71131Y-53730D01*
X71150Y-53683D01*
X71150Y-53632D01*
X71150Y-53895D01*
X71131Y-53848D01*
X71095Y-53812D01*
X71048Y-53792D01*
X70997Y-53792D01*
X70950Y-53811D01*
X70914Y-53847D01*
X70894Y-53894D01*
X70894Y-53923D01*
X70865Y-53923D01*
X70818Y-53943D01*
X70782Y-53979D01*
X70762Y-54026D01*
X70762Y-54076D01*
X70782Y-54123D01*
X70817Y-54159D01*
X70864Y-54179D01*
X70915Y-54179D01*
X70962Y-54160D01*
X70998Y-54124D01*
X71018Y-54077D01*
X71018Y-54048D01*
X71048Y-54048D01*
X71095Y-54029D01*
X71131Y-53993D01*
X71150Y-53946D01*
X71150Y-53895D01*
X71150Y-55143D01*
X71140Y-55118D01*
X71101Y-55080D01*
X71051Y-55059D01*
X70996Y-55059D01*
X70945Y-55079D01*
X70906Y-55118D01*
X70885Y-55169D01*
X70885Y-55224D01*
X70906Y-55274D01*
X70945Y-55313D01*
X70996Y-55334D01*
X71050Y-55334D01*
X71101Y-55313D01*
X71140Y-55275D01*
X71161Y-55224D01*
X71161Y-55169D01*
X71161Y-58248D01*
X70757Y-58248D01*
X70757Y-53764D01*
X70738Y-53716D01*
X70702Y-53680D01*
X70655Y-53661D01*
X70604Y-53661D01*
X70557Y-53680D01*
X70521Y-53716D01*
X70501Y-53763D01*
X70501Y-53814D01*
X70520Y-53861D01*
X70556Y-53897D01*
X70603Y-53917D01*
X70654Y-53917D01*
X70701Y-53897D01*
X70737Y-53861D01*
X70757Y-53814D01*
X70757Y-53764D01*
X70757Y-58248D01*
X70728Y-58248D01*
X70728Y-54716D01*
X70707Y-54666D01*
X70668Y-54627D01*
X70618Y-54606D01*
X70563Y-54606D01*
X70512Y-54627D01*
X70473Y-54665D01*
X70452Y-54716D01*
X70452Y-54771D01*
X70473Y-54822D01*
X70512Y-54860D01*
X70563Y-54881D01*
X70617Y-54881D01*
X70668Y-54860D01*
X70707Y-54822D01*
X70728Y-54771D01*
X70728Y-54716D01*
X70728Y-58248D01*
X69763Y-58248D01*
X69763Y-49126D01*
X69763Y-48791D01*
X69742Y-48740D01*
X69704Y-48702D01*
X69653Y-48681D01*
X69598Y-48681D01*
X69548Y-48702D01*
X69509Y-48740D01*
X69488Y-48791D01*
X69488Y-48846D01*
X69509Y-48896D01*
X69547Y-48935D01*
X69598Y-48956D01*
X69653Y-48956D01*
X69703Y-48935D01*
X69742Y-48897D01*
X69763Y-48846D01*
X69763Y-48791D01*
X69763Y-49126D01*
X69742Y-49075D01*
X69704Y-49036D01*
X69653Y-49015D01*
X69598Y-49015D01*
X69548Y-49036D01*
X69509Y-49075D01*
X69488Y-49126D01*
X69488Y-49180D01*
X69509Y-49231D01*
X69547Y-49270D01*
X69598Y-49291D01*
X69653Y-49291D01*
X69703Y-49270D01*
X69742Y-49231D01*
X69763Y-49181D01*
X69763Y-49126D01*
X69763Y-58248D01*
X69708Y-58248D01*
X69708Y-54288D01*
X69707Y-54285D01*
X69707Y-54026D01*
X69688Y-53979D01*
X69652Y-53943D01*
X69605Y-53923D01*
X69577Y-53923D01*
X69577Y-50224D01*
X69558Y-50177D01*
X69522Y-50141D01*
X69475Y-50121D01*
X69424Y-50121D01*
X69377Y-50141D01*
X69350Y-50167D01*
X69350Y-48830D01*
X69329Y-48780D01*
X69290Y-48741D01*
X69240Y-48720D01*
X69185Y-48720D01*
X69134Y-48741D01*
X69095Y-48780D01*
X69074Y-48830D01*
X69074Y-48885D01*
X69095Y-48936D01*
X69134Y-48975D01*
X69185Y-48996D01*
X69239Y-48996D01*
X69290Y-48975D01*
X69329Y-48936D01*
X69350Y-48885D01*
X69350Y-48830D01*
X69350Y-50167D01*
X69341Y-50177D01*
X69321Y-50224D01*
X69321Y-50252D01*
X69291Y-50252D01*
X69244Y-50272D01*
X69208Y-50308D01*
X69189Y-50355D01*
X69189Y-50383D01*
X69162Y-50383D01*
X69115Y-50403D01*
X69078Y-50439D01*
X69059Y-50486D01*
X69059Y-50537D01*
X69078Y-50584D01*
X69114Y-50620D01*
X69161Y-50639D01*
X69212Y-50639D01*
X69259Y-50620D01*
X69295Y-50584D01*
X69315Y-50537D01*
X69315Y-50508D01*
X69342Y-50508D01*
X69389Y-50489D01*
X69425Y-50453D01*
X69445Y-50406D01*
X69445Y-50377D01*
X69474Y-50377D01*
X69521Y-50358D01*
X69558Y-50322D01*
X69577Y-50275D01*
X69577Y-50224D01*
X69577Y-53923D01*
X69554Y-53923D01*
X69507Y-53943D01*
X69471Y-53979D01*
X69451Y-54026D01*
X69451Y-54076D01*
X69470Y-54123D01*
X69506Y-54159D01*
X69553Y-54179D01*
X69604Y-54179D01*
X69651Y-54160D01*
X69687Y-54124D01*
X69707Y-54077D01*
X69707Y-54026D01*
X69707Y-54285D01*
X69689Y-54241D01*
X69653Y-54205D01*
X69606Y-54185D01*
X69555Y-54185D01*
X69508Y-54205D01*
X69472Y-54241D01*
X69452Y-54288D01*
X69452Y-54316D01*
X69446Y-54316D01*
X69446Y-53764D01*
X69427Y-53716D01*
X69391Y-53680D01*
X69344Y-53661D01*
X69293Y-53661D01*
X69246Y-53680D01*
X69210Y-53716D01*
X69190Y-53763D01*
X69190Y-53792D01*
X69184Y-53792D01*
X69184Y-53764D01*
X69164Y-53716D01*
X69128Y-53680D01*
X69081Y-53661D01*
X69030Y-53661D01*
X68983Y-53680D01*
X68947Y-53716D01*
X68928Y-53763D01*
X68928Y-53792D01*
X68922Y-53792D01*
X68922Y-50617D01*
X68902Y-50570D01*
X68866Y-50534D01*
X68819Y-50514D01*
X68790Y-50514D01*
X68790Y-50224D01*
X68771Y-50177D01*
X68735Y-50141D01*
X68720Y-50134D01*
X68720Y-48653D01*
X68699Y-48603D01*
X68660Y-48564D01*
X68610Y-48543D01*
X68555Y-48543D01*
X68504Y-48564D01*
X68465Y-48602D01*
X68444Y-48653D01*
X68444Y-48708D01*
X68465Y-48759D01*
X68504Y-48797D01*
X68555Y-48818D01*
X68609Y-48818D01*
X68660Y-48797D01*
X68699Y-48759D01*
X68720Y-48708D01*
X68720Y-48653D01*
X68720Y-50134D01*
X68688Y-50121D01*
X68637Y-50121D01*
X68590Y-50141D01*
X68554Y-50177D01*
X68535Y-50224D01*
X68535Y-50252D01*
X68505Y-50252D01*
X68458Y-50272D01*
X68422Y-50308D01*
X68402Y-50355D01*
X68402Y-50406D01*
X68422Y-50453D01*
X68458Y-50489D01*
X68505Y-50508D01*
X68556Y-50508D01*
X68603Y-50489D01*
X68639Y-50453D01*
X68658Y-50406D01*
X68658Y-50377D01*
X68688Y-50377D01*
X68735Y-50358D01*
X68771Y-50322D01*
X68790Y-50275D01*
X68790Y-50224D01*
X68790Y-50514D01*
X68768Y-50514D01*
X68721Y-50534D01*
X68685Y-50570D01*
X68666Y-50617D01*
X68666Y-50668D01*
X68685Y-50715D01*
X68721Y-50751D01*
X68768Y-50770D01*
X68819Y-50770D01*
X68866Y-50751D01*
X68902Y-50715D01*
X68922Y-50668D01*
X68922Y-50617D01*
X68922Y-53792D01*
X68899Y-53792D01*
X68852Y-53811D01*
X68816Y-53847D01*
X68797Y-53894D01*
X68797Y-53945D01*
X68816Y-53992D01*
X68852Y-54028D01*
X68899Y-54048D01*
X68950Y-54048D01*
X68997Y-54029D01*
X69033Y-53993D01*
X69053Y-53946D01*
X69053Y-53917D01*
X69059Y-53917D01*
X69059Y-53945D01*
X69078Y-53992D01*
X69114Y-54028D01*
X69161Y-54048D01*
X69212Y-54048D01*
X69259Y-54029D01*
X69295Y-53993D01*
X69315Y-53946D01*
X69315Y-53917D01*
X69343Y-53917D01*
X69390Y-53897D01*
X69426Y-53861D01*
X69446Y-53814D01*
X69446Y-53764D01*
X69446Y-54316D01*
X69424Y-54316D01*
X69377Y-54336D01*
X69341Y-54372D01*
X69321Y-54419D01*
X69321Y-54470D01*
X69341Y-54517D01*
X69377Y-54553D01*
X69424Y-54572D01*
X69474Y-54572D01*
X69521Y-54553D01*
X69558Y-54517D01*
X69577Y-54470D01*
X69577Y-54441D01*
X69606Y-54441D01*
X69653Y-54422D01*
X69689Y-54386D01*
X69708Y-54339D01*
X69708Y-54288D01*
X69708Y-58248D01*
X69053Y-58248D01*
X69053Y-54157D01*
X69033Y-54110D01*
X68997Y-54074D01*
X68950Y-54054D01*
X68899Y-54054D01*
X68852Y-54074D01*
X68816Y-54110D01*
X68797Y-54157D01*
X68797Y-54208D01*
X68816Y-54255D01*
X68852Y-54291D01*
X68899Y-54310D01*
X68950Y-54310D01*
X68997Y-54291D01*
X69033Y-54255D01*
X69053Y-54208D01*
X69053Y-54157D01*
X69053Y-58248D01*
X68976Y-58248D01*
X68976Y-56212D01*
X68955Y-56162D01*
X68916Y-56123D01*
X68877Y-56107D01*
X68877Y-54972D01*
X68857Y-54922D01*
X68818Y-54883D01*
X68767Y-54862D01*
X68712Y-54862D01*
X68662Y-54883D01*
X68659Y-54885D01*
X68659Y-53764D01*
X68640Y-53716D01*
X68604Y-53680D01*
X68557Y-53661D01*
X68528Y-53661D01*
X68528Y-50748D01*
X68509Y-50701D01*
X68473Y-50665D01*
X68426Y-50646D01*
X68396Y-50646D01*
X68396Y-50355D01*
X68377Y-50308D01*
X68341Y-50272D01*
X68294Y-50252D01*
X68243Y-50252D01*
X68196Y-50272D01*
X68160Y-50308D01*
X68140Y-50355D01*
X68140Y-50406D01*
X68159Y-50453D01*
X68195Y-50489D01*
X68242Y-50508D01*
X68293Y-50508D01*
X68340Y-50489D01*
X68376Y-50453D01*
X68396Y-50406D01*
X68396Y-50355D01*
X68396Y-50646D01*
X68375Y-50646D01*
X68328Y-50665D01*
X68292Y-50701D01*
X68272Y-50748D01*
X68272Y-50799D01*
X68292Y-50846D01*
X68328Y-50882D01*
X68375Y-50901D01*
X68426Y-50901D01*
X68473Y-50882D01*
X68509Y-50846D01*
X68528Y-50799D01*
X68528Y-50748D01*
X68528Y-53661D01*
X68506Y-53661D01*
X68459Y-53680D01*
X68423Y-53716D01*
X68403Y-53763D01*
X68403Y-53814D01*
X68423Y-53861D01*
X68459Y-53897D01*
X68506Y-53917D01*
X68557Y-53917D01*
X68604Y-53897D01*
X68640Y-53861D01*
X68659Y-53814D01*
X68659Y-53764D01*
X68659Y-54885D01*
X68623Y-54921D01*
X68602Y-54972D01*
X68602Y-55027D01*
X68623Y-55077D01*
X68662Y-55116D01*
X68712Y-55137D01*
X68767Y-55137D01*
X68818Y-55116D01*
X68856Y-55078D01*
X68877Y-55027D01*
X68877Y-54972D01*
X68877Y-56107D01*
X68866Y-56102D01*
X68811Y-56102D01*
X68760Y-56123D01*
X68721Y-56162D01*
X68700Y-56212D01*
X68700Y-56267D01*
X68721Y-56318D01*
X68760Y-56356D01*
X68811Y-56377D01*
X68865Y-56377D01*
X68916Y-56357D01*
X68955Y-56318D01*
X68976Y-56267D01*
X68976Y-56212D01*
X68976Y-58248D01*
X68543Y-58248D01*
X68543Y-56212D01*
X68528Y-56177D01*
X68528Y-54157D01*
X68509Y-54110D01*
X68473Y-54074D01*
X68426Y-54054D01*
X68396Y-54054D01*
X68396Y-54026D01*
X68377Y-53979D01*
X68341Y-53943D01*
X68294Y-53923D01*
X68266Y-53923D01*
X68266Y-53895D01*
X68247Y-53848D01*
X68211Y-53812D01*
X68164Y-53792D01*
X68135Y-53792D01*
X68135Y-53764D01*
X68116Y-53716D01*
X68080Y-53680D01*
X68051Y-53668D01*
X68051Y-49697D01*
X68030Y-49646D01*
X68011Y-49627D01*
X68011Y-48752D01*
X67990Y-48701D01*
X67952Y-48662D01*
X67901Y-48641D01*
X67846Y-48641D01*
X67796Y-48662D01*
X67757Y-48701D01*
X67736Y-48751D01*
X67736Y-48806D01*
X67757Y-48857D01*
X67795Y-48896D01*
X67846Y-48917D01*
X67901Y-48917D01*
X67951Y-48896D01*
X67990Y-48857D01*
X68011Y-48807D01*
X68011Y-48752D01*
X68011Y-49627D01*
X67991Y-49607D01*
X67940Y-49586D01*
X67886Y-49586D01*
X67835Y-49607D01*
X67796Y-49646D01*
X67775Y-49696D01*
X67775Y-49751D01*
X67796Y-49802D01*
X67835Y-49841D01*
X67885Y-49862D01*
X67940Y-49862D01*
X67991Y-49841D01*
X68030Y-49802D01*
X68051Y-49751D01*
X68051Y-49697D01*
X68051Y-53668D01*
X68033Y-53661D01*
X68004Y-53661D01*
X68004Y-52584D01*
X68004Y-52321D01*
X68004Y-51797D01*
X67984Y-51750D01*
X67948Y-51714D01*
X67901Y-51694D01*
X67872Y-51694D01*
X67872Y-51688D01*
X67901Y-51688D01*
X67948Y-51669D01*
X67984Y-51633D01*
X68004Y-51586D01*
X68004Y-51535D01*
X67984Y-51488D01*
X67948Y-51452D01*
X67901Y-51432D01*
X67873Y-51432D01*
X67873Y-51426D01*
X67901Y-51426D01*
X67948Y-51406D01*
X67984Y-51370D01*
X68004Y-51323D01*
X68004Y-51273D01*
X67984Y-51226D01*
X67948Y-51190D01*
X67901Y-51170D01*
X67873Y-51170D01*
X67873Y-51141D01*
X67853Y-51094D01*
X67817Y-51058D01*
X67770Y-51039D01*
X67742Y-51039D01*
X67742Y-51033D01*
X67769Y-51033D01*
X67816Y-51013D01*
X67852Y-50977D01*
X67872Y-50930D01*
X67872Y-50879D01*
X67852Y-50832D01*
X67816Y-50796D01*
X67769Y-50777D01*
X67718Y-50777D01*
X67671Y-50796D01*
X67635Y-50832D01*
X67616Y-50879D01*
X67616Y-50908D01*
X67588Y-50908D01*
X67541Y-50927D01*
X67505Y-50963D01*
X67486Y-51010D01*
X67486Y-51061D01*
X67505Y-51108D01*
X67541Y-51144D01*
X67588Y-51164D01*
X67617Y-51164D01*
X67617Y-51170D01*
X67588Y-51170D01*
X67541Y-51189D01*
X67505Y-51225D01*
X67486Y-51272D01*
X67486Y-51323D01*
X67505Y-51370D01*
X67541Y-51406D01*
X67588Y-51426D01*
X67617Y-51426D01*
X67617Y-51432D01*
X67588Y-51432D01*
X67541Y-51452D01*
X67505Y-51488D01*
X67486Y-51535D01*
X67486Y-51563D01*
X67456Y-51563D01*
X67409Y-51583D01*
X67373Y-51619D01*
X67353Y-51666D01*
X67353Y-51717D01*
X67373Y-51764D01*
X67409Y-51800D01*
X67456Y-51819D01*
X67507Y-51819D01*
X67554Y-51800D01*
X67590Y-51764D01*
X67609Y-51717D01*
X67609Y-51688D01*
X67616Y-51688D01*
X67616Y-51717D01*
X67635Y-51764D01*
X67671Y-51800D01*
X67718Y-51819D01*
X67748Y-51819D01*
X67748Y-51848D01*
X67767Y-51895D01*
X67803Y-51931D01*
X67850Y-51950D01*
X67901Y-51950D01*
X67948Y-51931D01*
X67984Y-51895D01*
X68004Y-51848D01*
X68004Y-51797D01*
X68004Y-52321D01*
X67984Y-52274D01*
X67948Y-52238D01*
X67901Y-52219D01*
X67873Y-52219D01*
X67873Y-52190D01*
X67853Y-52143D01*
X67817Y-52107D01*
X67770Y-52088D01*
X67742Y-52088D01*
X67742Y-52059D01*
X67722Y-52012D01*
X67686Y-51976D01*
X67639Y-51957D01*
X67588Y-51957D01*
X67541Y-51976D01*
X67505Y-52012D01*
X67486Y-52059D01*
X67486Y-52088D01*
X67457Y-52088D01*
X67410Y-52107D01*
X67374Y-52143D01*
X67355Y-52190D01*
X67355Y-52241D01*
X67374Y-52288D01*
X67410Y-52324D01*
X67457Y-52344D01*
X67486Y-52344D01*
X67486Y-52372D01*
X67505Y-52419D01*
X67541Y-52455D01*
X67588Y-52475D01*
X67639Y-52475D01*
X67686Y-52455D01*
X67722Y-52419D01*
X67742Y-52372D01*
X67742Y-52344D01*
X67748Y-52344D01*
X67748Y-52372D01*
X67767Y-52419D01*
X67803Y-52455D01*
X67850Y-52475D01*
X67901Y-52475D01*
X67948Y-52455D01*
X67984Y-52419D01*
X68004Y-52372D01*
X68004Y-52321D01*
X68004Y-52584D01*
X67984Y-52537D01*
X67948Y-52501D01*
X67901Y-52481D01*
X67851Y-52481D01*
X67803Y-52500D01*
X67767Y-52536D01*
X67748Y-52583D01*
X67748Y-52612D01*
X67742Y-52612D01*
X67742Y-52584D01*
X67722Y-52537D01*
X67686Y-52501D01*
X67639Y-52481D01*
X67588Y-52481D01*
X67541Y-52500D01*
X67505Y-52536D01*
X67486Y-52583D01*
X67486Y-52612D01*
X67457Y-52612D01*
X67410Y-52632D01*
X67374Y-52667D01*
X67355Y-52714D01*
X67355Y-52765D01*
X67374Y-52812D01*
X67410Y-52848D01*
X67457Y-52868D01*
X67486Y-52868D01*
X67486Y-52896D01*
X67505Y-52944D01*
X67541Y-52980D01*
X67588Y-52999D01*
X67617Y-52999D01*
X67617Y-53005D01*
X67588Y-53005D01*
X67541Y-53025D01*
X67505Y-53061D01*
X67486Y-53108D01*
X67486Y-53137D01*
X67456Y-53136D01*
X67409Y-53156D01*
X67373Y-53192D01*
X67353Y-53239D01*
X67353Y-53290D01*
X67373Y-53337D01*
X67409Y-53373D01*
X67456Y-53392D01*
X67486Y-53392D01*
X67486Y-53421D01*
X67505Y-53468D01*
X67541Y-53504D01*
X67588Y-53523D01*
X67617Y-53524D01*
X67617Y-53552D01*
X67636Y-53599D01*
X67672Y-53635D01*
X67719Y-53655D01*
X67770Y-53655D01*
X67817Y-53635D01*
X67853Y-53599D01*
X67873Y-53552D01*
X67873Y-53501D01*
X67853Y-53454D01*
X67817Y-53418D01*
X67770Y-53399D01*
X67742Y-53399D01*
X67742Y-53392D01*
X67769Y-53392D01*
X67816Y-53373D01*
X67852Y-53337D01*
X67872Y-53290D01*
X67872Y-53239D01*
X67852Y-53192D01*
X67816Y-53156D01*
X67769Y-53137D01*
X67742Y-53137D01*
X67742Y-53130D01*
X67770Y-53130D01*
X67817Y-53111D01*
X67853Y-53075D01*
X67873Y-53028D01*
X67873Y-52977D01*
X67853Y-52930D01*
X67817Y-52894D01*
X67770Y-52874D01*
X67742Y-52874D01*
X67742Y-52868D01*
X67770Y-52868D01*
X67817Y-52849D01*
X67853Y-52813D01*
X67873Y-52766D01*
X67873Y-52737D01*
X67901Y-52737D01*
X67948Y-52717D01*
X67984Y-52682D01*
X68004Y-52635D01*
X68004Y-52584D01*
X68004Y-53661D01*
X67982Y-53661D01*
X67935Y-53680D01*
X67899Y-53716D01*
X67879Y-53763D01*
X67879Y-53814D01*
X67898Y-53861D01*
X67934Y-53897D01*
X67981Y-53917D01*
X68010Y-53917D01*
X68010Y-53945D01*
X68030Y-53992D01*
X68066Y-54028D01*
X68113Y-54048D01*
X68140Y-54048D01*
X68140Y-54054D01*
X68113Y-54054D01*
X68066Y-54074D01*
X68030Y-54110D01*
X68010Y-54157D01*
X68010Y-54208D01*
X68030Y-54255D01*
X68066Y-54291D01*
X68113Y-54310D01*
X68163Y-54310D01*
X68210Y-54291D01*
X68246Y-54255D01*
X68266Y-54208D01*
X68266Y-54179D01*
X68272Y-54179D01*
X68272Y-54208D01*
X68292Y-54255D01*
X68328Y-54291D01*
X68375Y-54310D01*
X68426Y-54310D01*
X68473Y-54291D01*
X68509Y-54255D01*
X68528Y-54208D01*
X68528Y-54157D01*
X68528Y-56177D01*
X68522Y-56162D01*
X68483Y-56123D01*
X68433Y-56102D01*
X68378Y-56102D01*
X68327Y-56123D01*
X68288Y-56162D01*
X68267Y-56212D01*
X68267Y-56267D01*
X68288Y-56318D01*
X68327Y-56356D01*
X68377Y-56377D01*
X68432Y-56377D01*
X68483Y-56357D01*
X68522Y-56318D01*
X68543Y-56267D01*
X68543Y-56212D01*
X68543Y-58248D01*
X68248Y-58248D01*
X68248Y-56547D01*
X68248Y-55602D01*
X68227Y-55551D01*
X68188Y-55513D01*
X68137Y-55492D01*
X68082Y-55492D01*
X68032Y-55513D01*
X68001Y-55543D01*
X67971Y-55513D01*
X67921Y-55492D01*
X67873Y-55492D01*
X67873Y-53764D01*
X67853Y-53716D01*
X67817Y-53680D01*
X67770Y-53661D01*
X67719Y-53661D01*
X67672Y-53680D01*
X67636Y-53716D01*
X67617Y-53763D01*
X67617Y-53814D01*
X67636Y-53861D01*
X67672Y-53897D01*
X67719Y-53917D01*
X67770Y-53917D01*
X67817Y-53897D01*
X67853Y-53861D01*
X67873Y-53814D01*
X67873Y-53764D01*
X67873Y-55492D01*
X67866Y-55492D01*
X67815Y-55513D01*
X67776Y-55551D01*
X67755Y-55602D01*
X67755Y-55657D01*
X67776Y-55707D01*
X67815Y-55746D01*
X67866Y-55767D01*
X67920Y-55767D01*
X67971Y-55746D01*
X68001Y-55716D01*
X68032Y-55746D01*
X68082Y-55767D01*
X68137Y-55767D01*
X68188Y-55746D01*
X68226Y-55708D01*
X68248Y-55657D01*
X68248Y-55602D01*
X68248Y-56547D01*
X68227Y-56496D01*
X68188Y-56458D01*
X68137Y-56437D01*
X68082Y-56436D01*
X68032Y-56457D01*
X67993Y-56496D01*
X67972Y-56547D01*
X67972Y-56602D01*
X67993Y-56652D01*
X68032Y-56691D01*
X68082Y-56712D01*
X68137Y-56712D01*
X68188Y-56691D01*
X68226Y-56652D01*
X68248Y-56602D01*
X68248Y-56547D01*
X68248Y-58248D01*
X67637Y-58248D01*
X67637Y-55661D01*
X67616Y-55611D01*
X67578Y-55572D01*
X67527Y-55551D01*
X67480Y-55551D01*
X67480Y-54382D01*
X67459Y-54331D01*
X67420Y-54292D01*
X67370Y-54271D01*
X67315Y-54271D01*
X67264Y-54292D01*
X67225Y-54331D01*
X67204Y-54381D01*
X67204Y-54436D01*
X67225Y-54487D01*
X67264Y-54526D01*
X67314Y-54547D01*
X67369Y-54547D01*
X67420Y-54526D01*
X67459Y-54487D01*
X67480Y-54436D01*
X67480Y-54382D01*
X67480Y-55551D01*
X67472Y-55551D01*
X67422Y-55572D01*
X67383Y-55610D01*
X67362Y-55661D01*
X67362Y-55716D01*
X67383Y-55766D01*
X67421Y-55805D01*
X67472Y-55826D01*
X67527Y-55826D01*
X67577Y-55805D01*
X67616Y-55767D01*
X67637Y-55716D01*
X67637Y-55661D01*
X67637Y-58248D01*
X67303Y-58248D01*
X67303Y-55701D01*
X67282Y-55650D01*
X67243Y-55611D01*
X67192Y-55590D01*
X67138Y-55590D01*
X67126Y-55595D01*
X67126Y-53004D01*
X67126Y-51960D01*
X67105Y-51910D01*
X67066Y-51871D01*
X67015Y-51850D01*
X66988Y-51850D01*
X66988Y-50956D01*
X66967Y-50906D01*
X66928Y-50867D01*
X66909Y-50859D01*
X66909Y-50405D01*
X66888Y-50355D01*
X66849Y-50316D01*
X66799Y-50295D01*
X66744Y-50295D01*
X66693Y-50316D01*
X66654Y-50354D01*
X66633Y-50405D01*
X66633Y-50460D01*
X66654Y-50511D01*
X66693Y-50549D01*
X66744Y-50570D01*
X66798Y-50570D01*
X66849Y-50549D01*
X66888Y-50511D01*
X66909Y-50460D01*
X66909Y-50405D01*
X66909Y-50859D01*
X66877Y-50846D01*
X66823Y-50846D01*
X66772Y-50867D01*
X66733Y-50906D01*
X66712Y-50956D01*
X66712Y-51011D01*
X66733Y-51062D01*
X66772Y-51101D01*
X66822Y-51122D01*
X66877Y-51122D01*
X66928Y-51101D01*
X66967Y-51062D01*
X66988Y-51011D01*
X66988Y-50956D01*
X66988Y-51850D01*
X66960Y-51850D01*
X66946Y-51856D01*
X66927Y-51811D01*
X66889Y-51773D01*
X66838Y-51751D01*
X66786Y-51751D01*
X66791Y-51740D01*
X66791Y-51712D01*
X66838Y-51712D01*
X66888Y-51691D01*
X66927Y-51652D01*
X66948Y-51602D01*
X66948Y-51547D01*
X66927Y-51496D01*
X66889Y-51458D01*
X66838Y-51437D01*
X66791Y-51436D01*
X66791Y-51390D01*
X66770Y-51339D01*
X66731Y-51300D01*
X66688Y-51282D01*
X66691Y-51278D01*
X66712Y-51228D01*
X66712Y-51173D01*
X66691Y-51122D01*
X66652Y-51084D01*
X66602Y-51063D01*
X66547Y-51062D01*
X66496Y-51083D01*
X66458Y-51122D01*
X66437Y-51173D01*
X66436Y-51228D01*
X66457Y-51278D01*
X66496Y-51317D01*
X66540Y-51335D01*
X66536Y-51339D01*
X66515Y-51389D01*
X66515Y-51444D01*
X66536Y-51495D01*
X66575Y-51534D01*
X66626Y-51555D01*
X66673Y-51555D01*
X66673Y-51574D01*
X66626Y-51574D01*
X66575Y-51595D01*
X66536Y-51634D01*
X66515Y-51685D01*
X66515Y-51739D01*
X66536Y-51790D01*
X66575Y-51829D01*
X66626Y-51850D01*
X66678Y-51850D01*
X66673Y-51862D01*
X66673Y-51917D01*
X66694Y-51967D01*
X66732Y-52006D01*
X66783Y-52027D01*
X66838Y-52027D01*
X66852Y-52021D01*
X66871Y-52066D01*
X66910Y-52104D01*
X66960Y-52125D01*
X67015Y-52126D01*
X67066Y-52105D01*
X67104Y-52066D01*
X67125Y-52015D01*
X67126Y-51960D01*
X67126Y-53004D01*
X67105Y-52953D01*
X67066Y-52914D01*
X67027Y-52898D01*
X67027Y-52433D01*
X67006Y-52382D01*
X66967Y-52343D01*
X66917Y-52322D01*
X66862Y-52322D01*
X66811Y-52343D01*
X66773Y-52382D01*
X66751Y-52433D01*
X66751Y-52487D01*
X66772Y-52538D01*
X66811Y-52577D01*
X66862Y-52598D01*
X66917Y-52598D01*
X66967Y-52577D01*
X67006Y-52538D01*
X67027Y-52488D01*
X67027Y-52433D01*
X67027Y-52898D01*
X67015Y-52893D01*
X66960Y-52893D01*
X66910Y-52914D01*
X66871Y-52953D01*
X66870Y-52956D01*
X66868Y-52953D01*
X66830Y-52914D01*
X66779Y-52893D01*
X66724Y-52893D01*
X66674Y-52914D01*
X66635Y-52953D01*
X66633Y-52956D01*
X66632Y-52953D01*
X66593Y-52914D01*
X66590Y-52913D01*
X66593Y-52912D01*
X66632Y-52873D01*
X66653Y-52822D01*
X66653Y-52767D01*
X66632Y-52717D01*
X66593Y-52678D01*
X66543Y-52657D01*
X66488Y-52657D01*
X66437Y-52678D01*
X66398Y-52717D01*
X66377Y-52767D01*
X66377Y-52822D01*
X66398Y-52873D01*
X66437Y-52912D01*
X66440Y-52913D01*
X66437Y-52914D01*
X66398Y-52953D01*
X66377Y-53003D01*
X66377Y-53058D01*
X66398Y-53109D01*
X66437Y-53148D01*
X66488Y-53169D01*
X66543Y-53169D01*
X66593Y-53148D01*
X66632Y-53109D01*
X66633Y-53106D01*
X66635Y-53109D01*
X66673Y-53148D01*
X66724Y-53169D01*
X66779Y-53169D01*
X66829Y-53148D01*
X66868Y-53109D01*
X66870Y-53106D01*
X66871Y-53109D01*
X66910Y-53148D01*
X66960Y-53169D01*
X67015Y-53169D01*
X67066Y-53148D01*
X67104Y-53109D01*
X67125Y-53059D01*
X67126Y-53004D01*
X67126Y-55595D01*
X67106Y-55603D01*
X67106Y-53968D01*
X67085Y-53918D01*
X67046Y-53879D01*
X66996Y-53858D01*
X66941Y-53858D01*
X66890Y-53879D01*
X66889Y-53879D01*
X66889Y-53771D01*
X66868Y-53721D01*
X66830Y-53682D01*
X66779Y-53661D01*
X66724Y-53661D01*
X66674Y-53682D01*
X66635Y-53721D01*
X66614Y-53771D01*
X66614Y-53826D01*
X66635Y-53877D01*
X66673Y-53915D01*
X66724Y-53936D01*
X66779Y-53937D01*
X66829Y-53916D01*
X66868Y-53877D01*
X66889Y-53826D01*
X66889Y-53771D01*
X66889Y-53879D01*
X66851Y-53917D01*
X66830Y-53968D01*
X66830Y-54023D01*
X66851Y-54074D01*
X66890Y-54112D01*
X66940Y-54133D01*
X66995Y-54133D01*
X67046Y-54112D01*
X67085Y-54074D01*
X67106Y-54023D01*
X67106Y-53968D01*
X67106Y-55603D01*
X67087Y-55611D01*
X67048Y-55650D01*
X67027Y-55700D01*
X67027Y-55755D01*
X67048Y-55806D01*
X67087Y-55845D01*
X67137Y-55866D01*
X67192Y-55866D01*
X67243Y-55845D01*
X67282Y-55806D01*
X67303Y-55755D01*
X67303Y-55701D01*
X67303Y-58248D01*
X66948Y-58248D01*
X66948Y-55701D01*
X66927Y-55650D01*
X66889Y-55611D01*
X66838Y-55590D01*
X66783Y-55590D01*
X66733Y-55611D01*
X66694Y-55650D01*
X66673Y-55700D01*
X66673Y-55090D01*
X66652Y-55040D01*
X66613Y-55001D01*
X66562Y-54980D01*
X66508Y-54980D01*
X66457Y-55001D01*
X66437Y-55021D01*
X66437Y-53338D01*
X66416Y-53288D01*
X66377Y-53249D01*
X66326Y-53228D01*
X66271Y-53228D01*
X66221Y-53249D01*
X66182Y-53287D01*
X66161Y-53338D01*
X66161Y-53393D01*
X66182Y-53444D01*
X66221Y-53482D01*
X66271Y-53503D01*
X66326Y-53503D01*
X66377Y-53483D01*
X66415Y-53444D01*
X66436Y-53393D01*
X66437Y-53338D01*
X66437Y-55021D01*
X66418Y-55039D01*
X66397Y-55090D01*
X66397Y-55145D01*
X66418Y-55196D01*
X66457Y-55234D01*
X66507Y-55255D01*
X66562Y-55255D01*
X66613Y-55234D01*
X66652Y-55196D01*
X66673Y-55145D01*
X66673Y-55090D01*
X66673Y-55700D01*
X66673Y-55755D01*
X66694Y-55806D01*
X66732Y-55845D01*
X66783Y-55866D01*
X66838Y-55866D01*
X66888Y-55845D01*
X66927Y-55806D01*
X66948Y-55755D01*
X66948Y-55701D01*
X66948Y-58248D01*
X65590Y-58248D01*
X65590Y-53988D01*
X65569Y-53937D01*
X65551Y-53919D01*
X65551Y-53319D01*
X65530Y-53268D01*
X65491Y-53229D01*
X65440Y-53208D01*
X65386Y-53208D01*
X65335Y-53229D01*
X65334Y-53230D01*
X65334Y-53201D01*
X65334Y-52886D01*
X65334Y-52571D01*
X65334Y-52256D01*
X65334Y-51941D01*
X65334Y-51626D01*
X65334Y-51311D01*
X65334Y-50996D01*
X65334Y-50208D01*
X65313Y-50158D01*
X65275Y-50119D01*
X65224Y-50098D01*
X65169Y-50098D01*
X65118Y-50119D01*
X65080Y-50158D01*
X65059Y-50208D01*
X65059Y-50263D01*
X65079Y-50314D01*
X65118Y-50352D01*
X65169Y-50373D01*
X65224Y-50374D01*
X65274Y-50353D01*
X65313Y-50314D01*
X65334Y-50263D01*
X65334Y-50208D01*
X65334Y-50996D01*
X65313Y-50945D01*
X65275Y-50906D01*
X65224Y-50885D01*
X65169Y-50885D01*
X65118Y-50906D01*
X65080Y-50945D01*
X65059Y-50996D01*
X65059Y-51050D01*
X65079Y-51101D01*
X65118Y-51140D01*
X65169Y-51161D01*
X65224Y-51161D01*
X65274Y-51140D01*
X65313Y-51101D01*
X65334Y-51051D01*
X65334Y-50996D01*
X65334Y-51311D01*
X65313Y-51260D01*
X65275Y-51221D01*
X65224Y-51200D01*
X65169Y-51200D01*
X65118Y-51221D01*
X65080Y-51260D01*
X65059Y-51311D01*
X65059Y-51365D01*
X65079Y-51416D01*
X65118Y-51455D01*
X65169Y-51476D01*
X65224Y-51476D01*
X65274Y-51455D01*
X65313Y-51416D01*
X65334Y-51366D01*
X65334Y-51311D01*
X65334Y-51626D01*
X65313Y-51575D01*
X65275Y-51536D01*
X65224Y-51515D01*
X65169Y-51515D01*
X65118Y-51536D01*
X65080Y-51575D01*
X65059Y-51626D01*
X65059Y-51680D01*
X65079Y-51731D01*
X65118Y-51770D01*
X65169Y-51791D01*
X65224Y-51791D01*
X65274Y-51770D01*
X65313Y-51731D01*
X65334Y-51681D01*
X65334Y-51626D01*
X65334Y-51941D01*
X65313Y-51890D01*
X65275Y-51851D01*
X65224Y-51830D01*
X65169Y-51830D01*
X65118Y-51851D01*
X65080Y-51890D01*
X65059Y-51940D01*
X65059Y-51995D01*
X65079Y-52046D01*
X65118Y-52085D01*
X65169Y-52106D01*
X65224Y-52106D01*
X65274Y-52085D01*
X65313Y-52046D01*
X65334Y-51996D01*
X65334Y-51941D01*
X65334Y-52256D01*
X65313Y-52205D01*
X65275Y-52166D01*
X65224Y-52145D01*
X65169Y-52145D01*
X65118Y-52166D01*
X65080Y-52205D01*
X65059Y-52255D01*
X65059Y-52310D01*
X65079Y-52361D01*
X65118Y-52400D01*
X65169Y-52421D01*
X65224Y-52421D01*
X65274Y-52400D01*
X65313Y-52361D01*
X65334Y-52310D01*
X65334Y-52256D01*
X65334Y-52571D01*
X65313Y-52520D01*
X65275Y-52481D01*
X65224Y-52460D01*
X65169Y-52460D01*
X65118Y-52481D01*
X65080Y-52520D01*
X65059Y-52570D01*
X65059Y-52625D01*
X65079Y-52676D01*
X65118Y-52715D01*
X65169Y-52736D01*
X65224Y-52736D01*
X65274Y-52715D01*
X65313Y-52676D01*
X65334Y-52625D01*
X65334Y-52571D01*
X65334Y-52886D01*
X65313Y-52835D01*
X65275Y-52796D01*
X65224Y-52775D01*
X65169Y-52775D01*
X65118Y-52796D01*
X65080Y-52835D01*
X65059Y-52885D01*
X65059Y-52940D01*
X65079Y-52991D01*
X65118Y-53030D01*
X65169Y-53051D01*
X65224Y-53051D01*
X65274Y-53030D01*
X65313Y-52991D01*
X65334Y-52940D01*
X65334Y-52886D01*
X65334Y-53201D01*
X65313Y-53150D01*
X65275Y-53111D01*
X65224Y-53090D01*
X65169Y-53090D01*
X65118Y-53111D01*
X65080Y-53150D01*
X65059Y-53200D01*
X65059Y-53255D01*
X65079Y-53306D01*
X65118Y-53345D01*
X65169Y-53366D01*
X65224Y-53366D01*
X65274Y-53345D01*
X65275Y-53344D01*
X65275Y-53373D01*
X65296Y-53424D01*
X65335Y-53463D01*
X65385Y-53484D01*
X65440Y-53484D01*
X65491Y-53463D01*
X65530Y-53424D01*
X65551Y-53373D01*
X65551Y-53319D01*
X65551Y-53919D01*
X65530Y-53898D01*
X65480Y-53877D01*
X65425Y-53877D01*
X65374Y-53898D01*
X65336Y-53937D01*
X65324Y-53964D01*
X65313Y-53937D01*
X65275Y-53898D01*
X65224Y-53877D01*
X65169Y-53877D01*
X65118Y-53898D01*
X65080Y-53937D01*
X65059Y-53988D01*
X65059Y-54043D01*
X65079Y-54093D01*
X65118Y-54132D01*
X65169Y-54153D01*
X65224Y-54153D01*
X65274Y-54132D01*
X65313Y-54093D01*
X65324Y-54066D01*
X65335Y-54093D01*
X65374Y-54132D01*
X65425Y-54153D01*
X65480Y-54153D01*
X65530Y-54132D01*
X65569Y-54093D01*
X65590Y-54043D01*
X65590Y-53988D01*
X65590Y-58248D01*
X65531Y-58248D01*
X65531Y-54775D01*
X65510Y-54725D01*
X65471Y-54686D01*
X65421Y-54665D01*
X65366Y-54665D01*
X65334Y-54678D01*
X65334Y-54460D01*
X65313Y-54410D01*
X65275Y-54371D01*
X65224Y-54350D01*
X65169Y-54350D01*
X65118Y-54371D01*
X65080Y-54410D01*
X65059Y-54460D01*
X65059Y-54515D01*
X65079Y-54566D01*
X65118Y-54604D01*
X65169Y-54625D01*
X65224Y-54626D01*
X65274Y-54605D01*
X65313Y-54566D01*
X65334Y-54515D01*
X65334Y-54460D01*
X65334Y-54678D01*
X65315Y-54686D01*
X65276Y-54724D01*
X65255Y-54775D01*
X65255Y-54830D01*
X65276Y-54881D01*
X65315Y-54919D01*
X65366Y-54940D01*
X65420Y-54940D01*
X65471Y-54920D01*
X65510Y-54881D01*
X65531Y-54830D01*
X65531Y-54775D01*
X65531Y-58248D01*
X65334Y-58248D01*
X65334Y-55799D01*
X65334Y-55484D01*
X65313Y-55433D01*
X65275Y-55395D01*
X65224Y-55374D01*
X65169Y-55373D01*
X65118Y-55394D01*
X65080Y-55433D01*
X65059Y-55484D01*
X65059Y-55539D01*
X65079Y-55589D01*
X65118Y-55628D01*
X65169Y-55649D01*
X65224Y-55649D01*
X65274Y-55628D01*
X65313Y-55589D01*
X65334Y-55539D01*
X65334Y-55484D01*
X65334Y-55799D01*
X65313Y-55748D01*
X65275Y-55710D01*
X65224Y-55689D01*
X65169Y-55688D01*
X65118Y-55709D01*
X65080Y-55748D01*
X65059Y-55799D01*
X65059Y-55854D01*
X65079Y-55904D01*
X65118Y-55943D01*
X65169Y-55964D01*
X65224Y-55964D01*
X65274Y-55943D01*
X65313Y-55904D01*
X65334Y-55854D01*
X65334Y-55799D01*
X65334Y-58248D01*
X64507Y-58248D01*
X64507Y-53358D01*
X64507Y-53043D01*
X64507Y-52728D01*
X64507Y-52413D01*
X64507Y-52098D01*
X64507Y-51783D01*
X64507Y-51468D01*
X64507Y-51153D01*
X64486Y-51103D01*
X64448Y-51064D01*
X64397Y-51043D01*
X64342Y-51043D01*
X64292Y-51064D01*
X64253Y-51102D01*
X64232Y-51153D01*
X64232Y-51208D01*
X64253Y-51259D01*
X64291Y-51297D01*
X64342Y-51318D01*
X64397Y-51318D01*
X64448Y-51297D01*
X64486Y-51259D01*
X64507Y-51208D01*
X64507Y-51153D01*
X64507Y-51468D01*
X64486Y-51418D01*
X64448Y-51379D01*
X64397Y-51358D01*
X64342Y-51358D01*
X64292Y-51379D01*
X64253Y-51417D01*
X64232Y-51468D01*
X64232Y-51523D01*
X64253Y-51574D01*
X64291Y-51612D01*
X64342Y-51633D01*
X64397Y-51633D01*
X64448Y-51612D01*
X64486Y-51574D01*
X64507Y-51523D01*
X64507Y-51468D01*
X64507Y-51783D01*
X64486Y-51733D01*
X64448Y-51694D01*
X64397Y-51673D01*
X64342Y-51673D01*
X64292Y-51694D01*
X64253Y-51732D01*
X64232Y-51783D01*
X64232Y-51838D01*
X64253Y-51888D01*
X64291Y-51927D01*
X64342Y-51948D01*
X64397Y-51948D01*
X64448Y-51927D01*
X64486Y-51889D01*
X64507Y-51838D01*
X64507Y-51783D01*
X64507Y-52098D01*
X64486Y-52048D01*
X64448Y-52009D01*
X64397Y-51988D01*
X64342Y-51988D01*
X64292Y-52009D01*
X64253Y-52047D01*
X64232Y-52098D01*
X64232Y-52153D01*
X64253Y-52203D01*
X64291Y-52242D01*
X64342Y-52263D01*
X64397Y-52263D01*
X64448Y-52242D01*
X64486Y-52204D01*
X64507Y-52153D01*
X64507Y-52098D01*
X64507Y-52413D01*
X64486Y-52362D01*
X64448Y-52324D01*
X64397Y-52303D01*
X64342Y-52303D01*
X64292Y-52324D01*
X64253Y-52362D01*
X64232Y-52413D01*
X64232Y-52468D01*
X64253Y-52518D01*
X64291Y-52557D01*
X64342Y-52578D01*
X64397Y-52578D01*
X64448Y-52557D01*
X64486Y-52519D01*
X64507Y-52468D01*
X64507Y-52413D01*
X64507Y-52728D01*
X64486Y-52677D01*
X64448Y-52639D01*
X64397Y-52618D01*
X64342Y-52618D01*
X64292Y-52639D01*
X64253Y-52677D01*
X64232Y-52728D01*
X64232Y-52783D01*
X64253Y-52833D01*
X64291Y-52872D01*
X64342Y-52893D01*
X64397Y-52893D01*
X64448Y-52872D01*
X64486Y-52834D01*
X64507Y-52783D01*
X64507Y-52728D01*
X64507Y-53043D01*
X64486Y-52992D01*
X64448Y-52954D01*
X64397Y-52933D01*
X64342Y-52933D01*
X64292Y-52953D01*
X64253Y-52992D01*
X64232Y-53043D01*
X64232Y-53098D01*
X64253Y-53148D01*
X64291Y-53187D01*
X64342Y-53208D01*
X64397Y-53208D01*
X64448Y-53187D01*
X64486Y-53149D01*
X64507Y-53098D01*
X64507Y-53043D01*
X64507Y-53358D01*
X64486Y-53307D01*
X64448Y-53269D01*
X64397Y-53248D01*
X64342Y-53248D01*
X64292Y-53268D01*
X64253Y-53307D01*
X64232Y-53358D01*
X64232Y-53413D01*
X64253Y-53463D01*
X64291Y-53502D01*
X64342Y-53523D01*
X64397Y-53523D01*
X64448Y-53502D01*
X64486Y-53463D01*
X64507Y-53413D01*
X64507Y-53358D01*
X64507Y-58248D01*
X64468Y-58248D01*
X64468Y-55799D01*
X64468Y-55484D01*
X64447Y-55433D01*
X64408Y-55395D01*
X64405Y-55393D01*
X64408Y-55392D01*
X64447Y-55353D01*
X64468Y-55303D01*
X64468Y-55248D01*
X64447Y-55197D01*
X64408Y-55158D01*
X64358Y-55137D01*
X64303Y-55137D01*
X64252Y-55158D01*
X64213Y-55197D01*
X64192Y-55248D01*
X64192Y-55302D01*
X64213Y-55353D01*
X64252Y-55392D01*
X64255Y-55393D01*
X64252Y-55394D01*
X64213Y-55433D01*
X64192Y-55484D01*
X64192Y-55539D01*
X64213Y-55589D01*
X64252Y-55628D01*
X64303Y-55649D01*
X64357Y-55649D01*
X64408Y-55628D01*
X64447Y-55589D01*
X64468Y-55539D01*
X64468Y-55484D01*
X64468Y-55799D01*
X64447Y-55748D01*
X64408Y-55710D01*
X64358Y-55689D01*
X64303Y-55688D01*
X64252Y-55709D01*
X64213Y-55748D01*
X64192Y-55799D01*
X64192Y-55854D01*
X64213Y-55904D01*
X64252Y-55943D01*
X64303Y-55964D01*
X64357Y-55964D01*
X64408Y-55943D01*
X64447Y-55904D01*
X64468Y-55854D01*
X64468Y-55799D01*
X64468Y-58248D01*
X63326Y-58248D01*
X63326Y-55854D01*
X63347Y-55904D01*
X63386Y-55943D01*
X63437Y-55964D01*
X63491Y-55964D01*
X63542Y-55943D01*
X63581Y-55904D01*
X63602Y-55854D01*
X63602Y-55799D01*
X63581Y-55748D01*
X63542Y-55710D01*
X63492Y-55689D01*
X63437Y-55688D01*
X63386Y-55709D01*
X63347Y-55748D01*
X63326Y-55799D01*
X63326Y-55826D01*
X63326Y-55539D01*
X63347Y-55589D01*
X63386Y-55628D01*
X63437Y-55649D01*
X63491Y-55649D01*
X63542Y-55628D01*
X63581Y-55589D01*
X63602Y-55539D01*
X63602Y-55484D01*
X63581Y-55433D01*
X63542Y-55395D01*
X63492Y-55374D01*
X63437Y-55373D01*
X63386Y-55394D01*
X63347Y-55433D01*
X63326Y-55484D01*
X63326Y-55511D01*
X63326Y-54612D01*
X63345Y-54605D01*
X63384Y-54566D01*
X63405Y-54515D01*
X63405Y-54460D01*
X63402Y-54454D01*
X63437Y-54468D01*
X63491Y-54468D01*
X63542Y-54447D01*
X63581Y-54408D01*
X63602Y-54358D01*
X63602Y-54303D01*
X63581Y-54252D01*
X63542Y-54213D01*
X63492Y-54192D01*
X63437Y-54192D01*
X63402Y-54207D01*
X63405Y-54200D01*
X63405Y-54145D01*
X63402Y-54139D01*
X63437Y-54153D01*
X63491Y-54153D01*
X63542Y-54132D01*
X63581Y-54093D01*
X63602Y-54043D01*
X63602Y-53988D01*
X63581Y-53937D01*
X63542Y-53898D01*
X63492Y-53877D01*
X63437Y-53877D01*
X63402Y-53892D01*
X63405Y-53885D01*
X63405Y-53830D01*
X63402Y-53824D01*
X63437Y-53838D01*
X63491Y-53838D01*
X63542Y-53817D01*
X63581Y-53778D01*
X63602Y-53728D01*
X63602Y-53673D01*
X63581Y-53622D01*
X63542Y-53584D01*
X63492Y-53563D01*
X63437Y-53562D01*
X63402Y-53577D01*
X63405Y-53570D01*
X63405Y-53516D01*
X63402Y-53509D01*
X63437Y-53523D01*
X63491Y-53523D01*
X63542Y-53502D01*
X63581Y-53463D01*
X63602Y-53413D01*
X63602Y-53358D01*
X63581Y-53307D01*
X63542Y-53269D01*
X63492Y-53248D01*
X63437Y-53248D01*
X63402Y-53262D01*
X63405Y-53255D01*
X63405Y-53201D01*
X63402Y-53194D01*
X63437Y-53208D01*
X63491Y-53208D01*
X63542Y-53187D01*
X63581Y-53149D01*
X63602Y-53098D01*
X63602Y-53043D01*
X63581Y-52992D01*
X63542Y-52954D01*
X63492Y-52933D01*
X63437Y-52933D01*
X63402Y-52947D01*
X63405Y-52940D01*
X63405Y-52886D01*
X63402Y-52879D01*
X63437Y-52893D01*
X63491Y-52893D01*
X63542Y-52872D01*
X63581Y-52834D01*
X63602Y-52783D01*
X63602Y-52728D01*
X63581Y-52677D01*
X63542Y-52639D01*
X63492Y-52618D01*
X63437Y-52618D01*
X63402Y-52632D01*
X63405Y-52625D01*
X63405Y-52571D01*
X63402Y-52564D01*
X63437Y-52578D01*
X63491Y-52578D01*
X63542Y-52557D01*
X63581Y-52519D01*
X63602Y-52468D01*
X63602Y-52413D01*
X63581Y-52362D01*
X63542Y-52324D01*
X63492Y-52303D01*
X63437Y-52303D01*
X63402Y-52317D01*
X63405Y-52310D01*
X63405Y-52256D01*
X63402Y-52249D01*
X63437Y-52263D01*
X63491Y-52263D01*
X63542Y-52242D01*
X63581Y-52204D01*
X63602Y-52153D01*
X63602Y-52098D01*
X63581Y-52048D01*
X63542Y-52009D01*
X63492Y-51988D01*
X63437Y-51988D01*
X63402Y-52002D01*
X63405Y-51996D01*
X63405Y-51941D01*
X63402Y-51934D01*
X63437Y-51948D01*
X63491Y-51948D01*
X63542Y-51927D01*
X63581Y-51889D01*
X63602Y-51838D01*
X63602Y-51783D01*
X63581Y-51733D01*
X63542Y-51694D01*
X63492Y-51673D01*
X63437Y-51673D01*
X63402Y-51687D01*
X63405Y-51681D01*
X63405Y-51626D01*
X63402Y-51619D01*
X63437Y-51633D01*
X63491Y-51633D01*
X63542Y-51612D01*
X63581Y-51574D01*
X63602Y-51523D01*
X63602Y-51468D01*
X63581Y-51418D01*
X63542Y-51379D01*
X63492Y-51358D01*
X63437Y-51358D01*
X63402Y-51372D01*
X63405Y-51366D01*
X63405Y-51311D01*
X63402Y-51304D01*
X63437Y-51318D01*
X63491Y-51318D01*
X63542Y-51297D01*
X63581Y-51259D01*
X63602Y-51208D01*
X63602Y-51153D01*
X63581Y-51103D01*
X63542Y-51064D01*
X63492Y-51043D01*
X63437Y-51043D01*
X63402Y-51057D01*
X63405Y-51051D01*
X63405Y-50996D01*
X63384Y-50945D01*
X63345Y-50906D01*
X63326Y-50898D01*
X63326Y-48366D01*
X79940Y-48366D01*
X79940Y-53428D01*
X79939Y-53425D01*
X79900Y-53387D01*
X79862Y-53371D01*
X79862Y-49893D01*
X79841Y-49843D01*
X79802Y-49804D01*
X79751Y-49783D01*
X79697Y-49783D01*
X79646Y-49804D01*
X79607Y-49843D01*
X79586Y-49893D01*
X79586Y-49948D01*
X79607Y-49999D01*
X79646Y-50038D01*
X79696Y-50059D01*
X79751Y-50059D01*
X79802Y-50038D01*
X79841Y-49999D01*
X79862Y-49948D01*
X79862Y-49893D01*
X79862Y-53371D01*
X79850Y-53366D01*
X79795Y-53366D01*
X79744Y-53387D01*
X79706Y-53425D01*
X79694Y-53452D01*
X79683Y-53425D01*
X79645Y-53387D01*
X79594Y-53366D01*
X79539Y-53366D01*
X79488Y-53387D01*
X79450Y-53425D01*
X79429Y-53476D01*
X79429Y-53531D01*
X79450Y-53581D01*
X79488Y-53620D01*
X79539Y-53641D01*
X79594Y-53641D01*
X79644Y-53620D01*
X79683Y-53582D01*
X79694Y-53555D01*
X79705Y-53581D01*
X79744Y-53620D01*
X79795Y-53641D01*
X79850Y-53641D01*
X79900Y-53620D01*
X79939Y-53582D01*
X79940Y-53578D01*
X79940Y-58248D01*
X79940Y-58248D01*
G37*
G54D13*
X79940Y-58248D02*
X79448Y-58248D01*
X79448Y-56232D01*
X79427Y-56181D01*
X79389Y-56143D01*
X79338Y-56122D01*
X79283Y-56122D01*
X79233Y-56142D01*
X79194Y-56181D01*
X79183Y-56208D01*
X79172Y-56181D01*
X79133Y-56143D01*
X79082Y-56122D01*
X79027Y-56122D01*
X78977Y-56142D01*
X78938Y-56181D01*
X78917Y-56232D01*
X78917Y-56287D01*
X78938Y-56337D01*
X78976Y-56376D01*
X79027Y-56397D01*
X79082Y-56397D01*
X79133Y-56376D01*
X79171Y-56337D01*
X79183Y-56311D01*
X79194Y-56337D01*
X79232Y-56376D01*
X79283Y-56397D01*
X79338Y-56397D01*
X79388Y-56376D01*
X79427Y-56337D01*
X79448Y-56287D01*
X79448Y-56232D01*
X79448Y-58248D01*
X78641Y-58248D01*
X78641Y-50543D01*
X78620Y-50492D01*
X78582Y-50454D01*
X78531Y-50433D01*
X78476Y-50433D01*
X78425Y-50453D01*
X78387Y-50492D01*
X78366Y-50543D01*
X78366Y-50598D01*
X78387Y-50648D01*
X78425Y-50687D01*
X78476Y-50708D01*
X78531Y-50708D01*
X78581Y-50687D01*
X78620Y-50649D01*
X78641Y-50598D01*
X78641Y-50543D01*
X78641Y-58248D01*
X78503Y-58248D01*
X78503Y-53575D01*
X78483Y-53524D01*
X78444Y-53485D01*
X78393Y-53464D01*
X78338Y-53464D01*
X78288Y-53485D01*
X78249Y-53524D01*
X78228Y-53574D01*
X78228Y-53629D01*
X78249Y-53680D01*
X78287Y-53719D01*
X78338Y-53740D01*
X78393Y-53740D01*
X78444Y-53719D01*
X78482Y-53680D01*
X78503Y-53629D01*
X78503Y-53575D01*
X78503Y-58248D01*
X77598Y-58248D01*
X77598Y-53279D01*
X77577Y-53229D01*
X77539Y-53190D01*
X77539Y-49421D01*
X77518Y-49370D01*
X77479Y-49332D01*
X77429Y-49311D01*
X77374Y-49310D01*
X77323Y-49331D01*
X77303Y-49352D01*
X77303Y-48811D01*
X77282Y-48760D01*
X77243Y-48721D01*
X77192Y-48700D01*
X77138Y-48700D01*
X77087Y-48721D01*
X77048Y-48760D01*
X77027Y-48811D01*
X77027Y-48865D01*
X77048Y-48916D01*
X77087Y-48955D01*
X77137Y-48976D01*
X77192Y-48976D01*
X77243Y-48955D01*
X77282Y-48916D01*
X77303Y-48866D01*
X77303Y-48811D01*
X77303Y-49352D01*
X77284Y-49370D01*
X77263Y-49421D01*
X77263Y-49476D01*
X77284Y-49526D01*
X77323Y-49565D01*
X77374Y-49586D01*
X77428Y-49586D01*
X77479Y-49565D01*
X77518Y-49526D01*
X77539Y-49476D01*
X77539Y-49421D01*
X77539Y-53190D01*
X77538Y-53190D01*
X77488Y-53169D01*
X77433Y-53169D01*
X77382Y-53190D01*
X77343Y-53228D01*
X77322Y-53279D01*
X77322Y-53334D01*
X77343Y-53385D01*
X77382Y-53423D01*
X77433Y-53444D01*
X77487Y-53444D01*
X77538Y-53423D01*
X77577Y-53385D01*
X77598Y-53334D01*
X77598Y-53279D01*
X77598Y-58248D01*
X77303Y-58248D01*
X77303Y-53890D01*
X77282Y-53839D01*
X77243Y-53800D01*
X77192Y-53779D01*
X77138Y-53779D01*
X77087Y-53800D01*
X77048Y-53839D01*
X77027Y-53889D01*
X77027Y-53944D01*
X77048Y-53995D01*
X77087Y-54034D01*
X77137Y-54055D01*
X77192Y-54055D01*
X77243Y-54034D01*
X77282Y-53995D01*
X77303Y-53944D01*
X77303Y-53890D01*
X77303Y-58248D01*
X77007Y-58248D01*
X77007Y-51626D01*
X76986Y-51575D01*
X76948Y-51536D01*
X76897Y-51515D01*
X76842Y-51515D01*
X76792Y-51536D01*
X76753Y-51575D01*
X76732Y-51626D01*
X76732Y-51680D01*
X76753Y-51731D01*
X76791Y-51770D01*
X76842Y-51791D01*
X76897Y-51791D01*
X76948Y-51770D01*
X76986Y-51731D01*
X77007Y-51681D01*
X77007Y-51626D01*
X77007Y-58248D01*
X75964Y-58248D01*
X75964Y-56271D01*
X75943Y-56221D01*
X75904Y-56182D01*
X75854Y-56161D01*
X75799Y-56161D01*
X75748Y-56182D01*
X75710Y-56221D01*
X75689Y-56271D01*
X75688Y-56326D01*
X75709Y-56377D01*
X75748Y-56415D01*
X75799Y-56436D01*
X75854Y-56437D01*
X75904Y-56416D01*
X75943Y-56377D01*
X75964Y-56326D01*
X75964Y-56271D01*
X75964Y-58248D01*
X74212Y-58248D01*
X74212Y-53181D01*
X74191Y-53130D01*
X74152Y-53091D01*
X74102Y-53070D01*
X74047Y-53070D01*
X73996Y-53091D01*
X73958Y-53130D01*
X73937Y-53181D01*
X73936Y-53235D01*
X73957Y-53286D01*
X73996Y-53325D01*
X74047Y-53346D01*
X74102Y-53346D01*
X74152Y-53325D01*
X74191Y-53286D01*
X74212Y-53236D01*
X74212Y-53181D01*
X74212Y-58248D01*
X73897Y-58248D01*
X73897Y-56035D01*
X73897Y-53870D01*
X73876Y-53819D01*
X73837Y-53780D01*
X73787Y-53759D01*
X73732Y-53759D01*
X73681Y-53780D01*
X73643Y-53819D01*
X73622Y-53870D01*
X73622Y-53924D01*
X73642Y-53975D01*
X73681Y-54014D01*
X73732Y-54035D01*
X73787Y-54035D01*
X73837Y-54014D01*
X73876Y-53975D01*
X73897Y-53925D01*
X73897Y-53870D01*
X73897Y-56035D01*
X73876Y-55985D01*
X73837Y-55946D01*
X73787Y-55925D01*
X73732Y-55925D01*
X73681Y-55946D01*
X73643Y-55984D01*
X73622Y-56035D01*
X73622Y-56090D01*
X73642Y-56140D01*
X73681Y-56179D01*
X73732Y-56200D01*
X73787Y-56200D01*
X73837Y-56179D01*
X73876Y-56141D01*
X73897Y-56090D01*
X73897Y-56035D01*
X73897Y-58248D01*
X73267Y-58248D01*
X73267Y-52787D01*
X73246Y-52737D01*
X73208Y-52698D01*
X73157Y-52677D01*
X73102Y-52677D01*
X73051Y-52698D01*
X73013Y-52736D01*
X72992Y-52787D01*
X72992Y-52842D01*
X73013Y-52892D01*
X73051Y-52931D01*
X73102Y-52952D01*
X73157Y-52952D01*
X73207Y-52931D01*
X73246Y-52893D01*
X73267Y-52842D01*
X73267Y-52787D01*
X73267Y-58248D01*
X72874Y-58248D01*
X72874Y-53181D01*
X72853Y-53130D01*
X72814Y-53091D01*
X72763Y-53070D01*
X72708Y-53070D01*
X72658Y-53091D01*
X72619Y-53130D01*
X72598Y-53181D01*
X72598Y-53235D01*
X72619Y-53286D01*
X72658Y-53325D01*
X72708Y-53346D01*
X72763Y-53346D01*
X72814Y-53325D01*
X72852Y-53286D01*
X72873Y-53236D01*
X72874Y-53181D01*
X72874Y-58248D01*
X72667Y-58248D01*
X72667Y-53732D01*
X72646Y-53681D01*
X72607Y-53643D01*
X72557Y-53622D01*
X72539Y-53622D01*
X72539Y-50937D01*
X72518Y-50886D01*
X72479Y-50847D01*
X72429Y-50826D01*
X72374Y-50826D01*
X72323Y-50847D01*
X72284Y-50886D01*
X72263Y-50937D01*
X72263Y-50991D01*
X72284Y-51042D01*
X72323Y-51081D01*
X72374Y-51102D01*
X72428Y-51102D01*
X72479Y-51081D01*
X72518Y-51042D01*
X72539Y-50992D01*
X72539Y-50937D01*
X72539Y-53622D01*
X72502Y-53622D01*
X72451Y-53642D01*
X72412Y-53681D01*
X72391Y-53732D01*
X72391Y-53787D01*
X72412Y-53837D01*
X72451Y-53876D01*
X72501Y-53897D01*
X72556Y-53897D01*
X72607Y-53876D01*
X72646Y-53837D01*
X72667Y-53787D01*
X72667Y-53732D01*
X72667Y-58248D01*
X72165Y-58248D01*
X72165Y-55563D01*
X72144Y-55512D01*
X72105Y-55473D01*
X72066Y-55457D01*
X72066Y-52138D01*
X72046Y-52087D01*
X72007Y-52048D01*
X71968Y-52032D01*
X71968Y-50642D01*
X71947Y-50591D01*
X71908Y-50552D01*
X71858Y-50531D01*
X71803Y-50531D01*
X71752Y-50552D01*
X71713Y-50591D01*
X71692Y-50641D01*
X71692Y-50696D01*
X71713Y-50747D01*
X71752Y-50786D01*
X71803Y-50807D01*
X71857Y-50807D01*
X71908Y-50786D01*
X71947Y-50747D01*
X71968Y-50696D01*
X71968Y-50642D01*
X71968Y-52032D01*
X71956Y-52027D01*
X71901Y-52027D01*
X71851Y-52048D01*
X71850Y-52049D01*
X71850Y-52000D01*
X71829Y-51949D01*
X71790Y-51910D01*
X71740Y-51889D01*
X71685Y-51889D01*
X71634Y-51910D01*
X71595Y-51949D01*
X71574Y-52000D01*
X71574Y-52054D01*
X71595Y-52105D01*
X71634Y-52144D01*
X71685Y-52165D01*
X71739Y-52165D01*
X71790Y-52144D01*
X71791Y-52143D01*
X71791Y-52192D01*
X71812Y-52243D01*
X71850Y-52282D01*
X71901Y-52303D01*
X71956Y-52303D01*
X72007Y-52282D01*
X72045Y-52243D01*
X72066Y-52192D01*
X72066Y-52138D01*
X72066Y-55457D01*
X72055Y-55452D01*
X72000Y-55452D01*
X71949Y-55473D01*
X71929Y-55494D01*
X71929Y-54362D01*
X71908Y-54311D01*
X71869Y-54273D01*
X71818Y-54251D01*
X71764Y-54251D01*
X71713Y-54272D01*
X71674Y-54311D01*
X71653Y-54362D01*
X71653Y-54417D01*
X71674Y-54467D01*
X71713Y-54506D01*
X71763Y-54527D01*
X71818Y-54527D01*
X71869Y-54506D01*
X71908Y-54467D01*
X71929Y-54417D01*
X71929Y-54362D01*
X71929Y-55494D01*
X71910Y-55512D01*
X71889Y-55563D01*
X71889Y-55617D01*
X71910Y-55668D01*
X71949Y-55707D01*
X72000Y-55728D01*
X72054Y-55728D01*
X72105Y-55707D01*
X72144Y-55668D01*
X72165Y-55618D01*
X72165Y-55563D01*
X72165Y-58248D01*
X71929Y-58248D01*
X71929Y-55956D01*
X71908Y-55906D01*
X71869Y-55867D01*
X71818Y-55846D01*
X71764Y-55846D01*
X71713Y-55867D01*
X71674Y-55906D01*
X71653Y-55956D01*
X71653Y-56011D01*
X71674Y-56062D01*
X71713Y-56101D01*
X71763Y-56122D01*
X71818Y-56122D01*
X71869Y-56101D01*
X71908Y-56062D01*
X71929Y-56011D01*
X71929Y-55956D01*
X71929Y-58248D01*
X71555Y-58248D01*
X71555Y-55346D01*
X71544Y-55320D01*
X71544Y-51141D01*
X71524Y-51094D01*
X71488Y-51058D01*
X71441Y-51039D01*
X71390Y-51039D01*
X71343Y-51058D01*
X71307Y-51094D01*
X71288Y-51141D01*
X71288Y-51192D01*
X71307Y-51239D01*
X71343Y-51275D01*
X71390Y-51295D01*
X71441Y-51295D01*
X71488Y-51275D01*
X71524Y-51239D01*
X71544Y-51192D01*
X71544Y-51141D01*
X71544Y-55320D01*
X71534Y-55296D01*
X71495Y-55257D01*
X71444Y-55236D01*
X71413Y-55236D01*
X71413Y-53632D01*
X71413Y-53370D01*
X71393Y-53323D01*
X71357Y-53287D01*
X71310Y-53268D01*
X71281Y-53268D01*
X71281Y-52977D01*
X71281Y-52715D01*
X71281Y-51404D01*
X71281Y-51141D01*
X71262Y-51094D01*
X71226Y-51058D01*
X71179Y-51039D01*
X71150Y-51039D01*
X71150Y-51010D01*
X71150Y-50224D01*
X71131Y-50177D01*
X71095Y-50141D01*
X71048Y-50121D01*
X71019Y-50121D01*
X71019Y-50093D01*
X71000Y-50046D01*
X70964Y-50010D01*
X70917Y-49990D01*
X70866Y-49990D01*
X70819Y-50009D01*
X70783Y-50045D01*
X70763Y-50092D01*
X70763Y-50121D01*
X70735Y-50121D01*
X70688Y-50141D01*
X70652Y-50177D01*
X70632Y-50224D01*
X70632Y-50252D01*
X70603Y-50252D01*
X70555Y-50272D01*
X70551Y-50276D01*
X70551Y-49382D01*
X70530Y-49331D01*
X70491Y-49292D01*
X70440Y-49271D01*
X70386Y-49271D01*
X70335Y-49292D01*
X70296Y-49331D01*
X70275Y-49381D01*
X70275Y-49436D01*
X70296Y-49487D01*
X70335Y-49526D01*
X70385Y-49547D01*
X70440Y-49547D01*
X70491Y-49526D01*
X70530Y-49487D01*
X70551Y-49436D01*
X70551Y-49382D01*
X70551Y-50276D01*
X70519Y-50308D01*
X70500Y-50355D01*
X70500Y-50406D01*
X70519Y-50453D01*
X70555Y-50489D01*
X70602Y-50508D01*
X70653Y-50508D01*
X70700Y-50489D01*
X70736Y-50453D01*
X70756Y-50406D01*
X70756Y-50377D01*
X70785Y-50377D01*
X70833Y-50358D01*
X70869Y-50322D01*
X70888Y-50275D01*
X70888Y-50246D01*
X70894Y-50246D01*
X70894Y-50274D01*
X70914Y-50321D01*
X70950Y-50358D01*
X70997Y-50377D01*
X71048Y-50377D01*
X71095Y-50358D01*
X71131Y-50322D01*
X71150Y-50275D01*
X71150Y-50224D01*
X71150Y-51010D01*
X71131Y-50963D01*
X71095Y-50927D01*
X71048Y-50908D01*
X70997Y-50908D01*
X70950Y-50927D01*
X70914Y-50963D01*
X70894Y-51010D01*
X70894Y-51039D01*
X70866Y-51039D01*
X70819Y-51058D01*
X70783Y-51094D01*
X70763Y-51141D01*
X70763Y-51192D01*
X70783Y-51239D01*
X70819Y-51275D01*
X70866Y-51295D01*
X70917Y-51295D01*
X70964Y-51275D01*
X71000Y-51239D01*
X71019Y-51192D01*
X71019Y-51164D01*
X71025Y-51164D01*
X71025Y-51192D01*
X71045Y-51239D01*
X71081Y-51275D01*
X71128Y-51295D01*
X71179Y-51295D01*
X71226Y-51275D01*
X71262Y-51239D01*
X71281Y-51192D01*
X71281Y-51141D01*
X71281Y-51404D01*
X71262Y-51357D01*
X71226Y-51321D01*
X71179Y-51301D01*
X71128Y-51301D01*
X71081Y-51320D01*
X71045Y-51356D01*
X71026Y-51403D01*
X71025Y-51454D01*
X71045Y-51501D01*
X71081Y-51537D01*
X71128Y-51557D01*
X71179Y-51557D01*
X71226Y-51538D01*
X71262Y-51502D01*
X71281Y-51455D01*
X71281Y-51404D01*
X71281Y-52715D01*
X71262Y-52668D01*
X71226Y-52632D01*
X71179Y-52612D01*
X71128Y-52612D01*
X71081Y-52632D01*
X71045Y-52667D01*
X71026Y-52714D01*
X71025Y-52765D01*
X71045Y-52812D01*
X71081Y-52848D01*
X71128Y-52868D01*
X71179Y-52868D01*
X71226Y-52849D01*
X71262Y-52813D01*
X71281Y-52766D01*
X71281Y-52715D01*
X71281Y-52977D01*
X71262Y-52930D01*
X71226Y-52894D01*
X71179Y-52874D01*
X71128Y-52874D01*
X71081Y-52894D01*
X71045Y-52930D01*
X71026Y-52977D01*
X71025Y-53005D01*
X71019Y-53005D01*
X71019Y-51404D01*
X71000Y-51357D01*
X70964Y-51321D01*
X70917Y-51301D01*
X70866Y-51301D01*
X70819Y-51320D01*
X70783Y-51356D01*
X70763Y-51403D01*
X70763Y-51454D01*
X70783Y-51501D01*
X70819Y-51537D01*
X70866Y-51557D01*
X70917Y-51557D01*
X70964Y-51538D01*
X71000Y-51502D01*
X71019Y-51455D01*
X71019Y-51404D01*
X71019Y-53005D01*
X70997Y-53005D01*
X70950Y-53025D01*
X70914Y-53061D01*
X70894Y-53108D01*
X70894Y-53137D01*
X70865Y-53136D01*
X70818Y-53156D01*
X70782Y-53192D01*
X70762Y-53239D01*
X70762Y-53290D01*
X70782Y-53337D01*
X70817Y-53373D01*
X70864Y-53392D01*
X70894Y-53392D01*
X70894Y-53421D01*
X70914Y-53468D01*
X70950Y-53504D01*
X70997Y-53523D01*
X71048Y-53524D01*
X71095Y-53504D01*
X71131Y-53468D01*
X71150Y-53421D01*
X71150Y-53370D01*
X71131Y-53323D01*
X71095Y-53287D01*
X71048Y-53268D01*
X71018Y-53268D01*
X71018Y-53261D01*
X71048Y-53261D01*
X71095Y-53242D01*
X71131Y-53206D01*
X71150Y-53159D01*
X71150Y-53130D01*
X71179Y-53130D01*
X71226Y-53111D01*
X71262Y-53075D01*
X71281Y-53028D01*
X71281Y-52977D01*
X71281Y-53268D01*
X71259Y-53268D01*
X71212Y-53287D01*
X71176Y-53323D01*
X71157Y-53370D01*
X71157Y-53421D01*
X71176Y-53468D01*
X71212Y-53504D01*
X71259Y-53523D01*
X71310Y-53524D01*
X71357Y-53504D01*
X71393Y-53468D01*
X71412Y-53421D01*
X71413Y-53370D01*
X71413Y-53632D01*
X71393Y-53585D01*
X71357Y-53549D01*
X71310Y-53530D01*
X71259Y-53530D01*
X71212Y-53549D01*
X71176Y-53585D01*
X71157Y-53632D01*
X71157Y-53683D01*
X71176Y-53730D01*
X71212Y-53766D01*
X71259Y-53786D01*
X71310Y-53786D01*
X71357Y-53766D01*
X71393Y-53730D01*
X71412Y-53683D01*
X71413Y-53632D01*
X71413Y-55236D01*
X71390Y-55236D01*
X71339Y-55257D01*
X71300Y-55295D01*
X71279Y-55346D01*
X71279Y-55401D01*
X71300Y-55451D01*
X71339Y-55490D01*
X71389Y-55511D01*
X71444Y-55511D01*
X71495Y-55490D01*
X71534Y-55452D01*
X71555Y-55401D01*
X71555Y-55346D01*
X71555Y-58248D01*
X71161Y-58248D01*
X71161Y-55169D01*
X71150Y-55143D01*
X71150Y-53895D01*
X71150Y-53632D01*
X71131Y-53585D01*
X71095Y-53549D01*
X71048Y-53530D01*
X70997Y-53530D01*
X70950Y-53549D01*
X70914Y-53585D01*
X70894Y-53632D01*
X70894Y-53683D01*
X70914Y-53730D01*
X70950Y-53766D01*
X70997Y-53786D01*
X71048Y-53786D01*
X71095Y-53766D01*
X71131Y-53730D01*
X71150Y-53683D01*
X71150Y-53632D01*
X71150Y-53895D01*
X71131Y-53848D01*
X71095Y-53812D01*
X71048Y-53792D01*
X70997Y-53792D01*
X70950Y-53811D01*
X70914Y-53847D01*
X70894Y-53894D01*
X70894Y-53923D01*
X70865Y-53923D01*
X70818Y-53943D01*
X70782Y-53979D01*
X70762Y-54026D01*
X70762Y-54076D01*
X70782Y-54123D01*
X70817Y-54159D01*
X70864Y-54179D01*
X70915Y-54179D01*
X70962Y-54160D01*
X70998Y-54124D01*
X71018Y-54077D01*
X71018Y-54048D01*
X71048Y-54048D01*
X71095Y-54029D01*
X71131Y-53993D01*
X71150Y-53946D01*
X71150Y-53895D01*
X71150Y-55143D01*
X71140Y-55118D01*
X71101Y-55080D01*
X71051Y-55059D01*
X70996Y-55059D01*
X70945Y-55079D01*
X70906Y-55118D01*
X70885Y-55169D01*
X70885Y-55224D01*
X70906Y-55274D01*
X70945Y-55313D01*
X70996Y-55334D01*
X71050Y-55334D01*
X71101Y-55313D01*
X71140Y-55275D01*
X71161Y-55224D01*
X71161Y-55169D01*
X71161Y-58248D01*
X70757Y-58248D01*
X70757Y-53764D01*
X70738Y-53716D01*
X70702Y-53680D01*
X70655Y-53661D01*
X70604Y-53661D01*
X70557Y-53680D01*
X70521Y-53716D01*
X70501Y-53763D01*
X70501Y-53814D01*
X70520Y-53861D01*
X70556Y-53897D01*
X70603Y-53917D01*
X70654Y-53917D01*
X70701Y-53897D01*
X70737Y-53861D01*
X70757Y-53814D01*
X70757Y-53764D01*
X70757Y-58248D01*
X70728Y-58248D01*
X70728Y-54716D01*
X70707Y-54666D01*
X70668Y-54627D01*
X70618Y-54606D01*
X70563Y-54606D01*
X70512Y-54627D01*
X70473Y-54665D01*
X70452Y-54716D01*
X70452Y-54771D01*
X70473Y-54822D01*
X70512Y-54860D01*
X70563Y-54881D01*
X70617Y-54881D01*
X70668Y-54860D01*
X70707Y-54822D01*
X70728Y-54771D01*
X70728Y-54716D01*
X70728Y-58248D01*
X69763Y-58248D01*
X69763Y-49126D01*
X69763Y-48791D01*
X69742Y-48740D01*
X69704Y-48702D01*
X69653Y-48681D01*
X69598Y-48681D01*
X69548Y-48702D01*
X69509Y-48740D01*
X69488Y-48791D01*
X69488Y-48846D01*
X69509Y-48896D01*
X69547Y-48935D01*
X69598Y-48956D01*
X69653Y-48956D01*
X69703Y-48935D01*
X69742Y-48897D01*
X69763Y-48846D01*
X69763Y-48791D01*
X69763Y-49126D01*
X69742Y-49075D01*
X69704Y-49036D01*
X69653Y-49015D01*
X69598Y-49015D01*
X69548Y-49036D01*
X69509Y-49075D01*
X69488Y-49126D01*
X69488Y-49180D01*
X69509Y-49231D01*
X69547Y-49270D01*
X69598Y-49291D01*
X69653Y-49291D01*
X69703Y-49270D01*
X69742Y-49231D01*
X69763Y-49181D01*
X69763Y-49126D01*
X69763Y-58248D01*
X69708Y-58248D01*
X69708Y-54288D01*
X69707Y-54285D01*
X69707Y-54026D01*
X69688Y-53979D01*
X69652Y-53943D01*
X69605Y-53923D01*
X69577Y-53923D01*
X69577Y-50224D01*
X69558Y-50177D01*
X69522Y-50141D01*
X69475Y-50121D01*
X69424Y-50121D01*
X69377Y-50141D01*
X69350Y-50167D01*
X69350Y-48830D01*
X69329Y-48780D01*
X69290Y-48741D01*
X69240Y-48720D01*
X69185Y-48720D01*
X69134Y-48741D01*
X69095Y-48780D01*
X69074Y-48830D01*
X69074Y-48885D01*
X69095Y-48936D01*
X69134Y-48975D01*
X69185Y-48996D01*
X69239Y-48996D01*
X69290Y-48975D01*
X69329Y-48936D01*
X69350Y-48885D01*
X69350Y-48830D01*
X69350Y-50167D01*
X69341Y-50177D01*
X69321Y-50224D01*
X69321Y-50252D01*
X69291Y-50252D01*
X69244Y-50272D01*
X69208Y-50308D01*
X69189Y-50355D01*
X69189Y-50383D01*
X69162Y-50383D01*
X69115Y-50403D01*
X69078Y-50439D01*
X69059Y-50486D01*
X69059Y-50537D01*
X69078Y-50584D01*
X69114Y-50620D01*
X69161Y-50639D01*
X69212Y-50639D01*
X69259Y-50620D01*
X69295Y-50584D01*
X69315Y-50537D01*
X69315Y-50508D01*
X69342Y-50508D01*
X69389Y-50489D01*
X69425Y-50453D01*
X69445Y-50406D01*
X69445Y-50377D01*
X69474Y-50377D01*
X69521Y-50358D01*
X69558Y-50322D01*
X69577Y-50275D01*
X69577Y-50224D01*
X69577Y-53923D01*
X69554Y-53923D01*
X69507Y-53943D01*
X69471Y-53979D01*
X69451Y-54026D01*
X69451Y-54076D01*
X69470Y-54123D01*
X69506Y-54159D01*
X69553Y-54179D01*
X69604Y-54179D01*
X69651Y-54160D01*
X69687Y-54124D01*
X69707Y-54077D01*
X69707Y-54026D01*
X69707Y-54285D01*
X69689Y-54241D01*
X69653Y-54205D01*
X69606Y-54185D01*
X69555Y-54185D01*
X69508Y-54205D01*
X69472Y-54241D01*
X69452Y-54288D01*
X69452Y-54316D01*
X69446Y-54316D01*
X69446Y-53764D01*
X69427Y-53716D01*
X69391Y-53680D01*
X69344Y-53661D01*
X69293Y-53661D01*
X69246Y-53680D01*
X69210Y-53716D01*
X69190Y-53763D01*
X69190Y-53792D01*
X69184Y-53792D01*
X69184Y-53764D01*
X69164Y-53716D01*
X69128Y-53680D01*
X69081Y-53661D01*
X69030Y-53661D01*
X68983Y-53680D01*
X68947Y-53716D01*
X68928Y-53763D01*
X68928Y-53792D01*
X68922Y-53792D01*
X68922Y-50617D01*
X68902Y-50570D01*
X68866Y-50534D01*
X68819Y-50514D01*
X68790Y-50514D01*
X68790Y-50224D01*
X68771Y-50177D01*
X68735Y-50141D01*
X68720Y-50134D01*
X68720Y-48653D01*
X68699Y-48603D01*
X68660Y-48564D01*
X68610Y-48543D01*
X68555Y-48543D01*
X68504Y-48564D01*
X68465Y-48602D01*
X68444Y-48653D01*
X68444Y-48708D01*
X68465Y-48759D01*
X68504Y-48797D01*
X68555Y-48818D01*
X68609Y-48818D01*
X68660Y-48797D01*
X68699Y-48759D01*
X68720Y-48708D01*
X68720Y-48653D01*
X68720Y-50134D01*
X68688Y-50121D01*
X68637Y-50121D01*
X68590Y-50141D01*
X68554Y-50177D01*
X68535Y-50224D01*
X68535Y-50252D01*
X68505Y-50252D01*
X68458Y-50272D01*
X68422Y-50308D01*
X68402Y-50355D01*
X68402Y-50406D01*
X68422Y-50453D01*
X68458Y-50489D01*
X68505Y-50508D01*
X68556Y-50508D01*
X68603Y-50489D01*
X68639Y-50453D01*
X68658Y-50406D01*
X68658Y-50377D01*
X68688Y-50377D01*
X68735Y-50358D01*
X68771Y-50322D01*
X68790Y-50275D01*
X68790Y-50224D01*
X68790Y-50514D01*
X68768Y-50514D01*
X68721Y-50534D01*
X68685Y-50570D01*
X68666Y-50617D01*
X68666Y-50668D01*
X68685Y-50715D01*
X68721Y-50751D01*
X68768Y-50770D01*
X68819Y-50770D01*
X68866Y-50751D01*
X68902Y-50715D01*
X68922Y-50668D01*
X68922Y-50617D01*
X68922Y-53792D01*
X68899Y-53792D01*
X68852Y-53811D01*
X68816Y-53847D01*
X68797Y-53894D01*
X68797Y-53945D01*
X68816Y-53992D01*
X68852Y-54028D01*
X68899Y-54048D01*
X68950Y-54048D01*
X68997Y-54029D01*
X69033Y-53993D01*
X69053Y-53946D01*
X69053Y-53917D01*
X69059Y-53917D01*
X69059Y-53945D01*
X69078Y-53992D01*
X69114Y-54028D01*
X69161Y-54048D01*
X69212Y-54048D01*
X69259Y-54029D01*
X69295Y-53993D01*
X69315Y-53946D01*
X69315Y-53917D01*
X69343Y-53917D01*
X69390Y-53897D01*
X69426Y-53861D01*
X69446Y-53814D01*
X69446Y-53764D01*
X69446Y-54316D01*
X69424Y-54316D01*
X69377Y-54336D01*
X69341Y-54372D01*
X69321Y-54419D01*
X69321Y-54470D01*
X69341Y-54517D01*
X69377Y-54553D01*
X69424Y-54572D01*
X69474Y-54572D01*
X69521Y-54553D01*
X69558Y-54517D01*
X69577Y-54470D01*
X69577Y-54441D01*
X69606Y-54441D01*
X69653Y-54422D01*
X69689Y-54386D01*
X69708Y-54339D01*
X69708Y-54288D01*
X69708Y-58248D01*
X69053Y-58248D01*
X69053Y-54157D01*
X69033Y-54110D01*
X68997Y-54074D01*
X68950Y-54054D01*
X68899Y-54054D01*
X68852Y-54074D01*
X68816Y-54110D01*
X68797Y-54157D01*
X68797Y-54208D01*
X68816Y-54255D01*
X68852Y-54291D01*
X68899Y-54310D01*
X68950Y-54310D01*
X68997Y-54291D01*
X69033Y-54255D01*
X69053Y-54208D01*
X69053Y-54157D01*
X69053Y-58248D01*
X68976Y-58248D01*
X68976Y-56212D01*
X68955Y-56162D01*
X68916Y-56123D01*
X68877Y-56107D01*
X68877Y-54972D01*
X68857Y-54922D01*
X68818Y-54883D01*
X68767Y-54862D01*
X68712Y-54862D01*
X68662Y-54883D01*
X68659Y-54885D01*
X68659Y-53764D01*
X68640Y-53716D01*
X68604Y-53680D01*
X68557Y-53661D01*
X68528Y-53661D01*
X68528Y-50748D01*
X68509Y-50701D01*
X68473Y-50665D01*
X68426Y-50646D01*
X68396Y-50646D01*
X68396Y-50355D01*
X68377Y-50308D01*
X68341Y-50272D01*
X68294Y-50252D01*
X68243Y-50252D01*
X68196Y-50272D01*
X68160Y-50308D01*
X68140Y-50355D01*
X68140Y-50406D01*
X68159Y-50453D01*
X68195Y-50489D01*
X68242Y-50508D01*
X68293Y-50508D01*
X68340Y-50489D01*
X68376Y-50453D01*
X68396Y-50406D01*
X68396Y-50355D01*
X68396Y-50646D01*
X68375Y-50646D01*
X68328Y-50665D01*
X68292Y-50701D01*
X68272Y-50748D01*
X68272Y-50799D01*
X68292Y-50846D01*
X68328Y-50882D01*
X68375Y-50901D01*
X68426Y-50901D01*
X68473Y-50882D01*
X68509Y-50846D01*
X68528Y-50799D01*
X68528Y-50748D01*
X68528Y-53661D01*
X68506Y-53661D01*
X68459Y-53680D01*
X68423Y-53716D01*
X68403Y-53763D01*
X68403Y-53814D01*
X68423Y-53861D01*
X68459Y-53897D01*
X68506Y-53917D01*
X68557Y-53917D01*
X68604Y-53897D01*
X68640Y-53861D01*
X68659Y-53814D01*
X68659Y-53764D01*
X68659Y-54885D01*
X68623Y-54921D01*
X68602Y-54972D01*
X68602Y-55027D01*
X68623Y-55077D01*
X68662Y-55116D01*
X68712Y-55137D01*
X68767Y-55137D01*
X68818Y-55116D01*
X68856Y-55078D01*
X68877Y-55027D01*
X68877Y-54972D01*
X68877Y-56107D01*
X68866Y-56102D01*
X68811Y-56102D01*
X68760Y-56123D01*
X68721Y-56162D01*
X68700Y-56212D01*
X68700Y-56267D01*
X68721Y-56318D01*
X68760Y-56356D01*
X68811Y-56377D01*
X68865Y-56377D01*
X68916Y-56357D01*
X68955Y-56318D01*
X68976Y-56267D01*
X68976Y-56212D01*
X68976Y-58248D01*
X68543Y-58248D01*
X68543Y-56212D01*
X68528Y-56177D01*
X68528Y-54157D01*
X68509Y-54110D01*
X68473Y-54074D01*
X68426Y-54054D01*
X68396Y-54054D01*
X68396Y-54026D01*
X68377Y-53979D01*
X68341Y-53943D01*
X68294Y-53923D01*
X68266Y-53923D01*
X68266Y-53895D01*
X68247Y-53848D01*
X68211Y-53812D01*
X68164Y-53792D01*
X68135Y-53792D01*
X68135Y-53764D01*
X68116Y-53716D01*
X68080Y-53680D01*
X68051Y-53668D01*
X68051Y-49697D01*
X68030Y-49646D01*
X68011Y-49627D01*
X68011Y-48752D01*
X67990Y-48701D01*
X67952Y-48662D01*
X67901Y-48641D01*
X67846Y-48641D01*
X67796Y-48662D01*
X67757Y-48701D01*
X67736Y-48751D01*
X67736Y-48806D01*
X67757Y-48857D01*
X67795Y-48896D01*
X67846Y-48917D01*
X67901Y-48917D01*
X67951Y-48896D01*
X67990Y-48857D01*
X68011Y-48807D01*
X68011Y-48752D01*
X68011Y-49627D01*
X67991Y-49607D01*
X67940Y-49586D01*
X67886Y-49586D01*
X67835Y-49607D01*
X67796Y-49646D01*
X67775Y-49696D01*
X67775Y-49751D01*
X67796Y-49802D01*
X67835Y-49841D01*
X67885Y-49862D01*
X67940Y-49862D01*
X67991Y-49841D01*
X68030Y-49802D01*
X68051Y-49751D01*
X68051Y-49697D01*
X68051Y-53668D01*
X68033Y-53661D01*
X68004Y-53661D01*
X68004Y-52584D01*
X68004Y-52321D01*
X68004Y-51797D01*
X67984Y-51750D01*
X67948Y-51714D01*
X67901Y-51694D01*
X67872Y-51694D01*
X67872Y-51688D01*
X67901Y-51688D01*
X67948Y-51669D01*
X67984Y-51633D01*
X68004Y-51586D01*
X68004Y-51535D01*
X67984Y-51488D01*
X67948Y-51452D01*
X67901Y-51432D01*
X67873Y-51432D01*
X67873Y-51426D01*
X67901Y-51426D01*
X67948Y-51406D01*
X67984Y-51370D01*
X68004Y-51323D01*
X68004Y-51273D01*
X67984Y-51226D01*
X67948Y-51190D01*
X67901Y-51170D01*
X67873Y-51170D01*
X67873Y-51141D01*
X67853Y-51094D01*
X67817Y-51058D01*
X67770Y-51039D01*
X67742Y-51039D01*
X67742Y-51033D01*
X67769Y-51033D01*
X67816Y-51013D01*
X67852Y-50977D01*
X67872Y-50930D01*
X67872Y-50879D01*
X67852Y-50832D01*
X67816Y-50796D01*
X67769Y-50777D01*
X67718Y-50777D01*
X67671Y-50796D01*
X67635Y-50832D01*
X67616Y-50879D01*
X67616Y-50908D01*
X67588Y-50908D01*
X67541Y-50927D01*
X67505Y-50963D01*
X67486Y-51010D01*
X67486Y-51061D01*
X67505Y-51108D01*
X67541Y-51144D01*
X67588Y-51164D01*
X67617Y-51164D01*
X67617Y-51170D01*
X67588Y-51170D01*
X67541Y-51189D01*
X67505Y-51225D01*
X67486Y-51272D01*
X67486Y-51323D01*
X67505Y-51370D01*
X67541Y-51406D01*
X67588Y-51426D01*
X67617Y-51426D01*
X67617Y-51432D01*
X67588Y-51432D01*
X67541Y-51452D01*
X67505Y-51488D01*
X67486Y-51535D01*
X67486Y-51563D01*
X67456Y-51563D01*
X67409Y-51583D01*
X67373Y-51619D01*
X67353Y-51666D01*
X67353Y-51717D01*
X67373Y-51764D01*
X67409Y-51800D01*
X67456Y-51819D01*
X67507Y-51819D01*
X67554Y-51800D01*
X67590Y-51764D01*
X67609Y-51717D01*
X67609Y-51688D01*
X67616Y-51688D01*
X67616Y-51717D01*
X67635Y-51764D01*
X67671Y-51800D01*
X67718Y-51819D01*
X67748Y-51819D01*
X67748Y-51848D01*
X67767Y-51895D01*
X67803Y-51931D01*
X67850Y-51950D01*
X67901Y-51950D01*
X67948Y-51931D01*
X67984Y-51895D01*
X68004Y-51848D01*
X68004Y-51797D01*
X68004Y-52321D01*
X67984Y-52274D01*
X67948Y-52238D01*
X67901Y-52219D01*
X67873Y-52219D01*
X67873Y-52190D01*
X67853Y-52143D01*
X67817Y-52107D01*
X67770Y-52088D01*
X67742Y-52088D01*
X67742Y-52059D01*
X67722Y-52012D01*
X67686Y-51976D01*
X67639Y-51957D01*
X67588Y-51957D01*
X67541Y-51976D01*
X67505Y-52012D01*
X67486Y-52059D01*
X67486Y-52088D01*
X67457Y-52088D01*
X67410Y-52107D01*
X67374Y-52143D01*
X67355Y-52190D01*
X67355Y-52241D01*
X67374Y-52288D01*
X67410Y-52324D01*
X67457Y-52344D01*
X67486Y-52344D01*
X67486Y-52372D01*
X67505Y-52419D01*
X67541Y-52455D01*
X67588Y-52475D01*
X67639Y-52475D01*
X67686Y-52455D01*
X67722Y-52419D01*
X67742Y-52372D01*
X67742Y-52344D01*
X67748Y-52344D01*
X67748Y-52372D01*
X67767Y-52419D01*
X67803Y-52455D01*
X67850Y-52475D01*
X67901Y-52475D01*
X67948Y-52455D01*
X67984Y-52419D01*
X68004Y-52372D01*
X68004Y-52321D01*
X68004Y-52584D01*
X67984Y-52537D01*
X67948Y-52501D01*
X67901Y-52481D01*
X67851Y-52481D01*
X67803Y-52500D01*
X67767Y-52536D01*
X67748Y-52583D01*
X67748Y-52612D01*
X67742Y-52612D01*
X67742Y-52584D01*
X67722Y-52537D01*
X67686Y-52501D01*
X67639Y-52481D01*
X67588Y-52481D01*
X67541Y-52500D01*
X67505Y-52536D01*
X67486Y-52583D01*
X67486Y-52612D01*
X67457Y-52612D01*
X67410Y-52632D01*
X67374Y-52667D01*
X67355Y-52714D01*
X67355Y-52765D01*
X67374Y-52812D01*
X67410Y-52848D01*
X67457Y-52868D01*
X67486Y-52868D01*
X67486Y-52896D01*
X67505Y-52944D01*
X67541Y-52980D01*
X67588Y-52999D01*
X67617Y-52999D01*
X67617Y-53005D01*
X67588Y-53005D01*
X67541Y-53025D01*
X67505Y-53061D01*
X67486Y-53108D01*
X67486Y-53137D01*
X67456Y-53136D01*
X67409Y-53156D01*
X67373Y-53192D01*
X67353Y-53239D01*
X67353Y-53290D01*
X67373Y-53337D01*
X67409Y-53373D01*
X67456Y-53392D01*
X67486Y-53392D01*
X67486Y-53421D01*
X67505Y-53468D01*
X67541Y-53504D01*
X67588Y-53523D01*
X67617Y-53524D01*
X67617Y-53552D01*
X67636Y-53599D01*
X67672Y-53635D01*
X67719Y-53655D01*
X67770Y-53655D01*
X67817Y-53635D01*
X67853Y-53599D01*
X67873Y-53552D01*
X67873Y-53501D01*
X67853Y-53454D01*
X67817Y-53418D01*
X67770Y-53399D01*
X67742Y-53399D01*
X67742Y-53392D01*
X67769Y-53392D01*
X67816Y-53373D01*
X67852Y-53337D01*
X67872Y-53290D01*
X67872Y-53239D01*
X67852Y-53192D01*
X67816Y-53156D01*
X67769Y-53137D01*
X67742Y-53137D01*
X67742Y-53130D01*
X67770Y-53130D01*
X67817Y-53111D01*
X67853Y-53075D01*
X67873Y-53028D01*
X67873Y-52977D01*
X67853Y-52930D01*
X67817Y-52894D01*
X67770Y-52874D01*
X67742Y-52874D01*
X67742Y-52868D01*
X67770Y-52868D01*
X67817Y-52849D01*
X67853Y-52813D01*
X67873Y-52766D01*
X67873Y-52737D01*
X67901Y-52737D01*
X67948Y-52717D01*
X67984Y-52682D01*
X68004Y-52635D01*
X68004Y-52584D01*
X68004Y-53661D01*
X67982Y-53661D01*
X67935Y-53680D01*
X67899Y-53716D01*
X67879Y-53763D01*
X67879Y-53814D01*
X67898Y-53861D01*
X67934Y-53897D01*
X67981Y-53917D01*
X68010Y-53917D01*
X68010Y-53945D01*
X68030Y-53992D01*
X68066Y-54028D01*
X68113Y-54048D01*
X68140Y-54048D01*
X68140Y-54054D01*
X68113Y-54054D01*
X68066Y-54074D01*
X68030Y-54110D01*
X68010Y-54157D01*
X68010Y-54208D01*
X68030Y-54255D01*
X68066Y-54291D01*
X68113Y-54310D01*
X68163Y-54310D01*
X68210Y-54291D01*
X68246Y-54255D01*
X68266Y-54208D01*
X68266Y-54179D01*
X68272Y-54179D01*
X68272Y-54208D01*
X68292Y-54255D01*
X68328Y-54291D01*
X68375Y-54310D01*
X68426Y-54310D01*
X68473Y-54291D01*
X68509Y-54255D01*
X68528Y-54208D01*
X68528Y-54157D01*
X68528Y-56177D01*
X68522Y-56162D01*
X68483Y-56123D01*
X68433Y-56102D01*
X68378Y-56102D01*
X68327Y-56123D01*
X68288Y-56162D01*
X68267Y-56212D01*
X68267Y-56267D01*
X68288Y-56318D01*
X68327Y-56356D01*
X68377Y-56377D01*
X68432Y-56377D01*
X68483Y-56357D01*
X68522Y-56318D01*
X68543Y-56267D01*
X68543Y-56212D01*
X68543Y-58248D01*
X68248Y-58248D01*
X68248Y-56547D01*
X68248Y-55602D01*
X68227Y-55551D01*
X68188Y-55513D01*
X68137Y-55492D01*
X68082Y-55492D01*
X68032Y-55513D01*
X68001Y-55543D01*
X67971Y-55513D01*
X67921Y-55492D01*
X67873Y-55492D01*
X67873Y-53764D01*
X67853Y-53716D01*
X67817Y-53680D01*
X67770Y-53661D01*
X67719Y-53661D01*
X67672Y-53680D01*
X67636Y-53716D01*
X67617Y-53763D01*
X67617Y-53814D01*
X67636Y-53861D01*
X67672Y-53897D01*
X67719Y-53917D01*
X67770Y-53917D01*
X67817Y-53897D01*
X67853Y-53861D01*
X67873Y-53814D01*
X67873Y-53764D01*
X67873Y-55492D01*
X67866Y-55492D01*
X67815Y-55513D01*
X67776Y-55551D01*
X67755Y-55602D01*
X67755Y-55657D01*
X67776Y-55707D01*
X67815Y-55746D01*
X67866Y-55767D01*
X67920Y-55767D01*
X67971Y-55746D01*
X68001Y-55716D01*
X68032Y-55746D01*
X68082Y-55767D01*
X68137Y-55767D01*
X68188Y-55746D01*
X68226Y-55708D01*
X68248Y-55657D01*
X68248Y-55602D01*
X68248Y-56547D01*
X68227Y-56496D01*
X68188Y-56458D01*
X68137Y-56437D01*
X68082Y-56436D01*
X68032Y-56457D01*
X67993Y-56496D01*
X67972Y-56547D01*
X67972Y-56602D01*
X67993Y-56652D01*
X68032Y-56691D01*
X68082Y-56712D01*
X68137Y-56712D01*
X68188Y-56691D01*
X68226Y-56652D01*
X68248Y-56602D01*
X68248Y-56547D01*
X68248Y-58248D01*
X67637Y-58248D01*
X67637Y-55661D01*
X67616Y-55611D01*
X67578Y-55572D01*
X67527Y-55551D01*
X67480Y-55551D01*
X67480Y-54382D01*
X67459Y-54331D01*
X67420Y-54292D01*
X67370Y-54271D01*
X67315Y-54271D01*
X67264Y-54292D01*
X67225Y-54331D01*
X67204Y-54381D01*
X67204Y-54436D01*
X67225Y-54487D01*
X67264Y-54526D01*
X67314Y-54547D01*
X67369Y-54547D01*
X67420Y-54526D01*
X67459Y-54487D01*
X67480Y-54436D01*
X67480Y-54382D01*
X67480Y-55551D01*
X67472Y-55551D01*
X67422Y-55572D01*
X67383Y-55610D01*
X67362Y-55661D01*
X67362Y-55716D01*
X67383Y-55766D01*
X67421Y-55805D01*
X67472Y-55826D01*
X67527Y-55826D01*
X67577Y-55805D01*
X67616Y-55767D01*
X67637Y-55716D01*
X67637Y-55661D01*
X67637Y-58248D01*
X67303Y-58248D01*
X67303Y-55701D01*
X67282Y-55650D01*
X67243Y-55611D01*
X67192Y-55590D01*
X67138Y-55590D01*
X67126Y-55595D01*
X67126Y-53004D01*
X67126Y-51960D01*
X67105Y-51910D01*
X67066Y-51871D01*
X67015Y-51850D01*
X66988Y-51850D01*
X66988Y-50956D01*
X66967Y-50906D01*
X66928Y-50867D01*
X66909Y-50859D01*
X66909Y-50405D01*
X66888Y-50355D01*
X66849Y-50316D01*
X66799Y-50295D01*
X66744Y-50295D01*
X66693Y-50316D01*
X66654Y-50354D01*
X66633Y-50405D01*
X66633Y-50460D01*
X66654Y-50511D01*
X66693Y-50549D01*
X66744Y-50570D01*
X66798Y-50570D01*
X66849Y-50549D01*
X66888Y-50511D01*
X66909Y-50460D01*
X66909Y-50405D01*
X66909Y-50859D01*
X66877Y-50846D01*
X66823Y-50846D01*
X66772Y-50867D01*
X66733Y-50906D01*
X66712Y-50956D01*
X66712Y-51011D01*
X66733Y-51062D01*
X66772Y-51101D01*
X66822Y-51122D01*
X66877Y-51122D01*
X66928Y-51101D01*
X66967Y-51062D01*
X66988Y-51011D01*
X66988Y-50956D01*
X66988Y-51850D01*
X66960Y-51850D01*
X66946Y-51856D01*
X66927Y-51811D01*
X66889Y-51773D01*
X66838Y-51751D01*
X66786Y-51751D01*
X66791Y-51740D01*
X66791Y-51712D01*
X66838Y-51712D01*
X66888Y-51691D01*
X66927Y-51652D01*
X66948Y-51602D01*
X66948Y-51547D01*
X66927Y-51496D01*
X66889Y-51458D01*
X66838Y-51437D01*
X66791Y-51436D01*
X66791Y-51390D01*
X66770Y-51339D01*
X66731Y-51300D01*
X66688Y-51282D01*
X66691Y-51278D01*
X66712Y-51228D01*
X66712Y-51173D01*
X66691Y-51122D01*
X66652Y-51084D01*
X66602Y-51063D01*
X66547Y-51062D01*
X66496Y-51083D01*
X66458Y-51122D01*
X66437Y-51173D01*
X66436Y-51228D01*
X66457Y-51278D01*
X66496Y-51317D01*
X66540Y-51335D01*
X66536Y-51339D01*
X66515Y-51389D01*
X66515Y-51444D01*
X66536Y-51495D01*
X66575Y-51534D01*
X66626Y-51555D01*
X66673Y-51555D01*
X66673Y-51574D01*
X66626Y-51574D01*
X66575Y-51595D01*
X66536Y-51634D01*
X66515Y-51685D01*
X66515Y-51739D01*
X66536Y-51790D01*
X66575Y-51829D01*
X66626Y-51850D01*
X66678Y-51850D01*
X66673Y-51862D01*
X66673Y-51917D01*
X66694Y-51967D01*
X66732Y-52006D01*
X66783Y-52027D01*
X66838Y-52027D01*
X66852Y-52021D01*
X66871Y-52066D01*
X66910Y-52104D01*
X66960Y-52125D01*
X67015Y-52126D01*
X67066Y-52105D01*
X67104Y-52066D01*
X67125Y-52015D01*
X67126Y-51960D01*
X67126Y-53004D01*
X67105Y-52953D01*
X67066Y-52914D01*
X67027Y-52898D01*
X67027Y-52433D01*
X67006Y-52382D01*
X66967Y-52343D01*
X66917Y-52322D01*
X66862Y-52322D01*
X66811Y-52343D01*
X66773Y-52382D01*
X66751Y-52433D01*
X66751Y-52487D01*
X66772Y-52538D01*
X66811Y-52577D01*
X66862Y-52598D01*
X66917Y-52598D01*
X66967Y-52577D01*
X67006Y-52538D01*
X67027Y-52488D01*
X67027Y-52433D01*
X67027Y-52898D01*
X67015Y-52893D01*
X66960Y-52893D01*
X66910Y-52914D01*
X66871Y-52953D01*
X66870Y-52956D01*
X66868Y-52953D01*
X66830Y-52914D01*
X66779Y-52893D01*
X66724Y-52893D01*
X66674Y-52914D01*
X66635Y-52953D01*
X66633Y-52956D01*
X66632Y-52953D01*
X66593Y-52914D01*
X66590Y-52913D01*
X66593Y-52912D01*
X66632Y-52873D01*
X66653Y-52822D01*
X66653Y-52767D01*
X66632Y-52717D01*
X66593Y-52678D01*
X66543Y-52657D01*
X66488Y-52657D01*
X66437Y-52678D01*
X66398Y-52717D01*
X66377Y-52767D01*
X66377Y-52822D01*
X66398Y-52873D01*
X66437Y-52912D01*
X66440Y-52913D01*
X66437Y-52914D01*
X66398Y-52953D01*
X66377Y-53003D01*
X66377Y-53058D01*
X66398Y-53109D01*
X66437Y-53148D01*
X66488Y-53169D01*
X66543Y-53169D01*
X66593Y-53148D01*
X66632Y-53109D01*
X66633Y-53106D01*
X66635Y-53109D01*
X66673Y-53148D01*
X66724Y-53169D01*
X66779Y-53169D01*
X66829Y-53148D01*
X66868Y-53109D01*
X66870Y-53106D01*
X66871Y-53109D01*
X66910Y-53148D01*
X66960Y-53169D01*
X67015Y-53169D01*
X67066Y-53148D01*
X67104Y-53109D01*
X67125Y-53059D01*
X67126Y-53004D01*
X67126Y-55595D01*
X67106Y-55603D01*
X67106Y-53968D01*
X67085Y-53918D01*
X67046Y-53879D01*
X66996Y-53858D01*
X66941Y-53858D01*
X66890Y-53879D01*
X66889Y-53879D01*
X66889Y-53771D01*
X66868Y-53721D01*
X66830Y-53682D01*
X66779Y-53661D01*
X66724Y-53661D01*
X66674Y-53682D01*
X66635Y-53721D01*
X66614Y-53771D01*
X66614Y-53826D01*
X66635Y-53877D01*
X66673Y-53915D01*
X66724Y-53936D01*
X66779Y-53937D01*
X66829Y-53916D01*
X66868Y-53877D01*
X66889Y-53826D01*
X66889Y-53771D01*
X66889Y-53879D01*
X66851Y-53917D01*
X66830Y-53968D01*
X66830Y-54023D01*
X66851Y-54074D01*
X66890Y-54112D01*
X66940Y-54133D01*
X66995Y-54133D01*
X67046Y-54112D01*
X67085Y-54074D01*
X67106Y-54023D01*
X67106Y-53968D01*
X67106Y-55603D01*
X67087Y-55611D01*
X67048Y-55650D01*
X67027Y-55700D01*
X67027Y-55755D01*
X67048Y-55806D01*
X67087Y-55845D01*
X67137Y-55866D01*
X67192Y-55866D01*
X67243Y-55845D01*
X67282Y-55806D01*
X67303Y-55755D01*
X67303Y-55701D01*
X67303Y-58248D01*
X66948Y-58248D01*
X66948Y-55701D01*
X66927Y-55650D01*
X66889Y-55611D01*
X66838Y-55590D01*
X66783Y-55590D01*
X66733Y-55611D01*
X66694Y-55650D01*
X66673Y-55700D01*
X66673Y-55090D01*
X66652Y-55040D01*
X66613Y-55001D01*
X66562Y-54980D01*
X66508Y-54980D01*
X66457Y-55001D01*
X66437Y-55021D01*
X66437Y-53338D01*
X66416Y-53288D01*
X66377Y-53249D01*
X66326Y-53228D01*
X66271Y-53228D01*
X66221Y-53249D01*
X66182Y-53287D01*
X66161Y-53338D01*
X66161Y-53393D01*
X66182Y-53444D01*
X66221Y-53482D01*
X66271Y-53503D01*
X66326Y-53503D01*
X66377Y-53483D01*
X66415Y-53444D01*
X66436Y-53393D01*
X66437Y-53338D01*
X66437Y-55021D01*
X66418Y-55039D01*
X66397Y-55090D01*
X66397Y-55145D01*
X66418Y-55196D01*
X66457Y-55234D01*
X66507Y-55255D01*
X66562Y-55255D01*
X66613Y-55234D01*
X66652Y-55196D01*
X66673Y-55145D01*
X66673Y-55090D01*
X66673Y-55700D01*
X66673Y-55755D01*
X66694Y-55806D01*
X66732Y-55845D01*
X66783Y-55866D01*
X66838Y-55866D01*
X66888Y-55845D01*
X66927Y-55806D01*
X66948Y-55755D01*
X66948Y-55701D01*
X66948Y-58248D01*
X65590Y-58248D01*
X65590Y-53988D01*
X65569Y-53937D01*
X65551Y-53919D01*
X65551Y-53319D01*
X65530Y-53268D01*
X65491Y-53229D01*
X65440Y-53208D01*
X65386Y-53208D01*
X65335Y-53229D01*
X65334Y-53230D01*
X65334Y-53201D01*
X65334Y-52886D01*
X65334Y-52571D01*
X65334Y-52256D01*
X65334Y-51941D01*
X65334Y-51626D01*
X65334Y-51311D01*
X65334Y-50996D01*
X65334Y-50208D01*
X65313Y-50158D01*
X65275Y-50119D01*
X65224Y-50098D01*
X65169Y-50098D01*
X65118Y-50119D01*
X65080Y-50158D01*
X65059Y-50208D01*
X65059Y-50263D01*
X65079Y-50314D01*
X65118Y-50352D01*
X65169Y-50373D01*
X65224Y-50374D01*
X65274Y-50353D01*
X65313Y-50314D01*
X65334Y-50263D01*
X65334Y-50208D01*
X65334Y-50996D01*
X65313Y-50945D01*
X65275Y-50906D01*
X65224Y-50885D01*
X65169Y-50885D01*
X65118Y-50906D01*
X65080Y-50945D01*
X65059Y-50996D01*
X65059Y-51050D01*
X65079Y-51101D01*
X65118Y-51140D01*
X65169Y-51161D01*
X65224Y-51161D01*
X65274Y-51140D01*
X65313Y-51101D01*
X65334Y-51051D01*
X65334Y-50996D01*
X65334Y-51311D01*
X65313Y-51260D01*
X65275Y-51221D01*
X65224Y-51200D01*
X65169Y-51200D01*
X65118Y-51221D01*
X65080Y-51260D01*
X65059Y-51311D01*
X65059Y-51365D01*
X65079Y-51416D01*
X65118Y-51455D01*
X65169Y-51476D01*
X65224Y-51476D01*
X65274Y-51455D01*
X65313Y-51416D01*
X65334Y-51366D01*
X65334Y-51311D01*
X65334Y-51626D01*
X65313Y-51575D01*
X65275Y-51536D01*
X65224Y-51515D01*
X65169Y-51515D01*
X65118Y-51536D01*
X65080Y-51575D01*
X65059Y-51626D01*
X65059Y-51680D01*
X65079Y-51731D01*
X65118Y-51770D01*
X65169Y-51791D01*
X65224Y-51791D01*
X65274Y-51770D01*
X65313Y-51731D01*
X65334Y-51681D01*
X65334Y-51626D01*
X65334Y-51941D01*
X65313Y-51890D01*
X65275Y-51851D01*
X65224Y-51830D01*
X65169Y-51830D01*
X65118Y-51851D01*
X65080Y-51890D01*
X65059Y-51940D01*
X65059Y-51995D01*
X65079Y-52046D01*
X65118Y-52085D01*
X65169Y-52106D01*
X65224Y-52106D01*
X65274Y-52085D01*
X65313Y-52046D01*
X65334Y-51996D01*
X65334Y-51941D01*
X65334Y-52256D01*
X65313Y-52205D01*
X65275Y-52166D01*
X65224Y-52145D01*
X65169Y-52145D01*
X65118Y-52166D01*
X65080Y-52205D01*
X65059Y-52255D01*
X65059Y-52310D01*
X65079Y-52361D01*
X65118Y-52400D01*
X65169Y-52421D01*
X65224Y-52421D01*
X65274Y-52400D01*
X65313Y-52361D01*
X65334Y-52310D01*
X65334Y-52256D01*
X65334Y-52571D01*
X65313Y-52520D01*
X65275Y-52481D01*
X65224Y-52460D01*
X65169Y-52460D01*
X65118Y-52481D01*
X65080Y-52520D01*
X65059Y-52570D01*
X65059Y-52625D01*
X65079Y-52676D01*
X65118Y-52715D01*
X65169Y-52736D01*
X65224Y-52736D01*
X65274Y-52715D01*
X65313Y-52676D01*
X65334Y-52625D01*
X65334Y-52571D01*
X65334Y-52886D01*
X65313Y-52835D01*
X65275Y-52796D01*
X65224Y-52775D01*
X65169Y-52775D01*
X65118Y-52796D01*
X65080Y-52835D01*
X65059Y-52885D01*
X65059Y-52940D01*
X65079Y-52991D01*
X65118Y-53030D01*
X65169Y-53051D01*
X65224Y-53051D01*
X65274Y-53030D01*
X65313Y-52991D01*
X65334Y-52940D01*
X65334Y-52886D01*
X65334Y-53201D01*
X65313Y-53150D01*
X65275Y-53111D01*
X65224Y-53090D01*
X65169Y-53090D01*
X65118Y-53111D01*
X65080Y-53150D01*
X65059Y-53200D01*
X65059Y-53255D01*
X65079Y-53306D01*
X65118Y-53345D01*
X65169Y-53366D01*
X65224Y-53366D01*
X65274Y-53345D01*
X65275Y-53344D01*
X65275Y-53373D01*
X65296Y-53424D01*
X65335Y-53463D01*
X65385Y-53484D01*
X65440Y-53484D01*
X65491Y-53463D01*
X65530Y-53424D01*
X65551Y-53373D01*
X65551Y-53319D01*
X65551Y-53919D01*
X65530Y-53898D01*
X65480Y-53877D01*
X65425Y-53877D01*
X65374Y-53898D01*
X65336Y-53937D01*
X65324Y-53964D01*
X65313Y-53937D01*
X65275Y-53898D01*
X65224Y-53877D01*
X65169Y-53877D01*
X65118Y-53898D01*
X65080Y-53937D01*
X65059Y-53988D01*
X65059Y-54043D01*
X65079Y-54093D01*
X65118Y-54132D01*
X65169Y-54153D01*
X65224Y-54153D01*
X65274Y-54132D01*
X65313Y-54093D01*
X65324Y-54066D01*
X65335Y-54093D01*
X65374Y-54132D01*
X65425Y-54153D01*
X65480Y-54153D01*
X65530Y-54132D01*
X65569Y-54093D01*
X65590Y-54043D01*
X65590Y-53988D01*
X65590Y-58248D01*
X65531Y-58248D01*
X65531Y-54775D01*
X65510Y-54725D01*
X65471Y-54686D01*
X65421Y-54665D01*
X65366Y-54665D01*
X65334Y-54678D01*
X65334Y-54460D01*
X65313Y-54410D01*
X65275Y-54371D01*
X65224Y-54350D01*
X65169Y-54350D01*
X65118Y-54371D01*
X65080Y-54410D01*
X65059Y-54460D01*
X65059Y-54515D01*
X65079Y-54566D01*
X65118Y-54604D01*
X65169Y-54625D01*
X65224Y-54626D01*
X65274Y-54605D01*
X65313Y-54566D01*
X65334Y-54515D01*
X65334Y-54460D01*
X65334Y-54678D01*
X65315Y-54686D01*
X65276Y-54724D01*
X65255Y-54775D01*
X65255Y-54830D01*
X65276Y-54881D01*
X65315Y-54919D01*
X65366Y-54940D01*
X65420Y-54940D01*
X65471Y-54920D01*
X65510Y-54881D01*
X65531Y-54830D01*
X65531Y-54775D01*
X65531Y-58248D01*
X65334Y-58248D01*
X65334Y-55799D01*
X65334Y-55484D01*
X65313Y-55433D01*
X65275Y-55395D01*
X65224Y-55374D01*
X65169Y-55373D01*
X65118Y-55394D01*
X65080Y-55433D01*
X65059Y-55484D01*
X65059Y-55539D01*
X65079Y-55589D01*
X65118Y-55628D01*
X65169Y-55649D01*
X65224Y-55649D01*
X65274Y-55628D01*
X65313Y-55589D01*
X65334Y-55539D01*
X65334Y-55484D01*
X65334Y-55799D01*
X65313Y-55748D01*
X65275Y-55710D01*
X65224Y-55689D01*
X65169Y-55688D01*
X65118Y-55709D01*
X65080Y-55748D01*
X65059Y-55799D01*
X65059Y-55854D01*
X65079Y-55904D01*
X65118Y-55943D01*
X65169Y-55964D01*
X65224Y-55964D01*
X65274Y-55943D01*
X65313Y-55904D01*
X65334Y-55854D01*
X65334Y-55799D01*
X65334Y-58248D01*
X64507Y-58248D01*
X64507Y-53358D01*
X64507Y-53043D01*
X64507Y-52728D01*
X64507Y-52413D01*
X64507Y-52098D01*
X64507Y-51783D01*
X64507Y-51468D01*
X64507Y-51153D01*
X64486Y-51103D01*
X64448Y-51064D01*
X64397Y-51043D01*
X64342Y-51043D01*
X64292Y-51064D01*
X64253Y-51102D01*
X64232Y-51153D01*
X64232Y-51208D01*
X64253Y-51259D01*
X64291Y-51297D01*
X64342Y-51318D01*
X64397Y-51318D01*
X64448Y-51297D01*
X64486Y-51259D01*
X64507Y-51208D01*
X64507Y-51153D01*
X64507Y-51468D01*
X64486Y-51418D01*
X64448Y-51379D01*
X64397Y-51358D01*
X64342Y-51358D01*
X64292Y-51379D01*
X64253Y-51417D01*
X64232Y-51468D01*
X64232Y-51523D01*
X64253Y-51574D01*
X64291Y-51612D01*
X64342Y-51633D01*
X64397Y-51633D01*
X64448Y-51612D01*
X64486Y-51574D01*
X64507Y-51523D01*
X64507Y-51468D01*
X64507Y-51783D01*
X64486Y-51733D01*
X64448Y-51694D01*
X64397Y-51673D01*
X64342Y-51673D01*
X64292Y-51694D01*
X64253Y-51732D01*
X64232Y-51783D01*
X64232Y-51838D01*
X64253Y-51888D01*
X64291Y-51927D01*
X64342Y-51948D01*
X64397Y-51948D01*
X64448Y-51927D01*
X64486Y-51889D01*
X64507Y-51838D01*
X64507Y-51783D01*
X64507Y-52098D01*
X64486Y-52048D01*
X64448Y-52009D01*
X64397Y-51988D01*
X64342Y-51988D01*
X64292Y-52009D01*
X64253Y-52047D01*
X64232Y-52098D01*
X64232Y-52153D01*
X64253Y-52203D01*
X64291Y-52242D01*
X64342Y-52263D01*
X64397Y-52263D01*
X64448Y-52242D01*
X64486Y-52204D01*
X64507Y-52153D01*
X64507Y-52098D01*
X64507Y-52413D01*
X64486Y-52362D01*
X64448Y-52324D01*
X64397Y-52303D01*
X64342Y-52303D01*
X64292Y-52324D01*
X64253Y-52362D01*
X64232Y-52413D01*
X64232Y-52468D01*
X64253Y-52518D01*
X64291Y-52557D01*
X64342Y-52578D01*
X64397Y-52578D01*
X64448Y-52557D01*
X64486Y-52519D01*
X64507Y-52468D01*
X64507Y-52413D01*
X64507Y-52728D01*
X64486Y-52677D01*
X64448Y-52639D01*
X64397Y-52618D01*
X64342Y-52618D01*
X64292Y-52639D01*
X64253Y-52677D01*
X64232Y-52728D01*
X64232Y-52783D01*
X64253Y-52833D01*
X64291Y-52872D01*
X64342Y-52893D01*
X64397Y-52893D01*
X64448Y-52872D01*
X64486Y-52834D01*
X64507Y-52783D01*
X64507Y-52728D01*
X64507Y-53043D01*
X64486Y-52992D01*
X64448Y-52954D01*
X64397Y-52933D01*
X64342Y-52933D01*
X64292Y-52953D01*
X64253Y-52992D01*
X64232Y-53043D01*
X64232Y-53098D01*
X64253Y-53148D01*
X64291Y-53187D01*
X64342Y-53208D01*
X64397Y-53208D01*
X64448Y-53187D01*
X64486Y-53149D01*
X64507Y-53098D01*
X64507Y-53043D01*
X64507Y-53358D01*
X64486Y-53307D01*
X64448Y-53269D01*
X64397Y-53248D01*
X64342Y-53248D01*
X64292Y-53268D01*
X64253Y-53307D01*
X64232Y-53358D01*
X64232Y-53413D01*
X64253Y-53463D01*
X64291Y-53502D01*
X64342Y-53523D01*
X64397Y-53523D01*
X64448Y-53502D01*
X64486Y-53463D01*
X64507Y-53413D01*
X64507Y-53358D01*
X64507Y-58248D01*
X64468Y-58248D01*
X64468Y-55799D01*
X64468Y-55484D01*
X64447Y-55433D01*
X64408Y-55395D01*
X64405Y-55393D01*
X64408Y-55392D01*
X64447Y-55353D01*
X64468Y-55303D01*
X64468Y-55248D01*
X64447Y-55197D01*
X64408Y-55158D01*
X64358Y-55137D01*
X64303Y-55137D01*
X64252Y-55158D01*
X64213Y-55197D01*
X64192Y-55248D01*
X64192Y-55302D01*
X64213Y-55353D01*
X64252Y-55392D01*
X64255Y-55393D01*
X64252Y-55394D01*
X64213Y-55433D01*
X64192Y-55484D01*
X64192Y-55539D01*
X64213Y-55589D01*
X64252Y-55628D01*
X64303Y-55649D01*
X64357Y-55649D01*
X64408Y-55628D01*
X64447Y-55589D01*
X64468Y-55539D01*
X64468Y-55484D01*
X64468Y-55799D01*
X64447Y-55748D01*
X64408Y-55710D01*
X64358Y-55689D01*
X64303Y-55688D01*
X64252Y-55709D01*
X64213Y-55748D01*
X64192Y-55799D01*
X64192Y-55854D01*
X64213Y-55904D01*
X64252Y-55943D01*
X64303Y-55964D01*
X64357Y-55964D01*
X64408Y-55943D01*
X64447Y-55904D01*
X64468Y-55854D01*
X64468Y-55799D01*
X64468Y-58248D01*
X63326Y-58248D01*
X63326Y-55854D01*
X63347Y-55904D01*
X63386Y-55943D01*
X63437Y-55964D01*
X63491Y-55964D01*
X63542Y-55943D01*
X63581Y-55904D01*
X63602Y-55854D01*
X63602Y-55799D01*
X63581Y-55748D01*
X63542Y-55710D01*
X63492Y-55689D01*
X63437Y-55688D01*
X63386Y-55709D01*
X63347Y-55748D01*
X63326Y-55799D01*
X63326Y-55826D01*
X63326Y-55539D01*
X63347Y-55589D01*
X63386Y-55628D01*
X63437Y-55649D01*
X63491Y-55649D01*
X63542Y-55628D01*
X63581Y-55589D01*
X63602Y-55539D01*
X63602Y-55484D01*
X63581Y-55433D01*
X63542Y-55395D01*
X63492Y-55374D01*
X63437Y-55373D01*
X63386Y-55394D01*
X63347Y-55433D01*
X63326Y-55484D01*
X63326Y-55511D01*
X63326Y-54612D01*
X63345Y-54605D01*
X63384Y-54566D01*
X63405Y-54515D01*
X63405Y-54460D01*
X63402Y-54454D01*
X63437Y-54468D01*
X63491Y-54468D01*
X63542Y-54447D01*
X63581Y-54408D01*
X63602Y-54358D01*
X63602Y-54303D01*
X63581Y-54252D01*
X63542Y-54213D01*
X63492Y-54192D01*
X63437Y-54192D01*
X63402Y-54207D01*
X63405Y-54200D01*
X63405Y-54145D01*
X63402Y-54139D01*
X63437Y-54153D01*
X63491Y-54153D01*
X63542Y-54132D01*
X63581Y-54093D01*
X63602Y-54043D01*
X63602Y-53988D01*
X63581Y-53937D01*
X63542Y-53898D01*
X63492Y-53877D01*
X63437Y-53877D01*
X63402Y-53892D01*
X63405Y-53885D01*
X63405Y-53830D01*
X63402Y-53824D01*
X63437Y-53838D01*
X63491Y-53838D01*
X63542Y-53817D01*
X63581Y-53778D01*
X63602Y-53728D01*
X63602Y-53673D01*
X63581Y-53622D01*
X63542Y-53584D01*
X63492Y-53563D01*
X63437Y-53562D01*
X63402Y-53577D01*
X63405Y-53570D01*
X63405Y-53516D01*
X63402Y-53509D01*
X63437Y-53523D01*
X63491Y-53523D01*
X63542Y-53502D01*
X63581Y-53463D01*
X63602Y-53413D01*
X63602Y-53358D01*
X63581Y-53307D01*
X63542Y-53269D01*
X63492Y-53248D01*
X63437Y-53248D01*
X63402Y-53262D01*
X63405Y-53255D01*
X63405Y-53201D01*
X63402Y-53194D01*
X63437Y-53208D01*
X63491Y-53208D01*
X63542Y-53187D01*
X63581Y-53149D01*
X63602Y-53098D01*
X63602Y-53043D01*
X63581Y-52992D01*
X63542Y-52954D01*
X63492Y-52933D01*
X63437Y-52933D01*
X63402Y-52947D01*
X63405Y-52940D01*
X63405Y-52886D01*
X63402Y-52879D01*
X63437Y-52893D01*
X63491Y-52893D01*
X63542Y-52872D01*
X63581Y-52834D01*
X63602Y-52783D01*
X63602Y-52728D01*
X63581Y-52677D01*
X63542Y-52639D01*
X63492Y-52618D01*
X63437Y-52618D01*
X63402Y-52632D01*
X63405Y-52625D01*
X63405Y-52571D01*
X63402Y-52564D01*
X63437Y-52578D01*
X63491Y-52578D01*
X63542Y-52557D01*
X63581Y-52519D01*
X63602Y-52468D01*
X63602Y-52413D01*
X63581Y-52362D01*
X63542Y-52324D01*
X63492Y-52303D01*
X63437Y-52303D01*
X63402Y-52317D01*
X63405Y-52310D01*
X63405Y-52256D01*
X63402Y-52249D01*
X63437Y-52263D01*
X63491Y-52263D01*
X63542Y-52242D01*
X63581Y-52204D01*
X63602Y-52153D01*
X63602Y-52098D01*
X63581Y-52048D01*
X63542Y-52009D01*
X63492Y-51988D01*
X63437Y-51988D01*
X63402Y-52002D01*
X63405Y-51996D01*
X63405Y-51941D01*
X63402Y-51934D01*
X63437Y-51948D01*
X63491Y-51948D01*
X63542Y-51927D01*
X63581Y-51889D01*
X63602Y-51838D01*
X63602Y-51783D01*
X63581Y-51733D01*
X63542Y-51694D01*
X63492Y-51673D01*
X63437Y-51673D01*
X63402Y-51687D01*
X63405Y-51681D01*
X63405Y-51626D01*
X63402Y-51619D01*
X63437Y-51633D01*
X63491Y-51633D01*
X63542Y-51612D01*
X63581Y-51574D01*
X63602Y-51523D01*
X63602Y-51468D01*
X63581Y-51418D01*
X63542Y-51379D01*
X63492Y-51358D01*
X63437Y-51358D01*
X63402Y-51372D01*
X63405Y-51366D01*
X63405Y-51311D01*
X63402Y-51304D01*
X63437Y-51318D01*
X63491Y-51318D01*
X63542Y-51297D01*
X63581Y-51259D01*
X63602Y-51208D01*
X63602Y-51153D01*
X63581Y-51103D01*
X63542Y-51064D01*
X63492Y-51043D01*
X63437Y-51043D01*
X63402Y-51057D01*
X63405Y-51051D01*
X63405Y-50996D01*
X63384Y-50945D01*
X63345Y-50906D01*
X63326Y-50898D01*
X63326Y-48366D01*
X79940Y-48366D01*
X79940Y-53428D01*
X79939Y-53425D01*
X79900Y-53387D01*
X79862Y-53371D01*
X79862Y-49893D01*
X79841Y-49843D01*
X79802Y-49804D01*
X79751Y-49783D01*
X79697Y-49783D01*
X79646Y-49804D01*
X79607Y-49843D01*
X79586Y-49893D01*
X79586Y-49948D01*
X79607Y-49999D01*
X79646Y-50038D01*
X79696Y-50059D01*
X79751Y-50059D01*
X79802Y-50038D01*
X79841Y-49999D01*
X79862Y-49948D01*
X79862Y-49893D01*
X79862Y-53371D01*
X79850Y-53366D01*
X79795Y-53366D01*
X79744Y-53387D01*
X79706Y-53425D01*
X79694Y-53452D01*
X79683Y-53425D01*
X79645Y-53387D01*
X79594Y-53366D01*
X79539Y-53366D01*
X79488Y-53387D01*
X79450Y-53425D01*
X79429Y-53476D01*
X79429Y-53531D01*
X79450Y-53581D01*
X79488Y-53620D01*
X79539Y-53641D01*
X79594Y-53641D01*
X79644Y-53620D01*
X79683Y-53582D01*
X79694Y-53555D01*
X79705Y-53581D01*
X79744Y-53620D01*
X79795Y-53641D01*
X79850Y-53641D01*
X79900Y-53620D01*
X79939Y-53582D01*
X79940Y-53578D01*
X79940Y-58248D01*
M02*
