G04 (created by PCBNEW (2013-07-07 BZR 4022)-stable) date 19/11/2015 00:50:37*
%MOIN*%
G04 Gerber Fmt 3.4, Leading zero omitted, Abs format*
%FSLAX34Y34*%
G01*
G70*
G90*
G04 APERTURE LIST*
%ADD10C,0.005*%
%ADD11C,0.0077*%
%ADD12C,0.00787402*%
%ADD13C,0.011811*%
G04 APERTURE END LIST*
G54D10*
G54D11*
X62874Y-58582D02*
X80433Y-58582D01*
X62874Y-48031D02*
X80433Y-48031D01*
X63818Y-59527D02*
X81299Y-59527D01*
X63818Y-47165D02*
X81299Y-47165D01*
X62007Y-59527D02*
X62007Y-47165D01*
X59921Y-61496D02*
X83267Y-61496D01*
X59921Y-45196D02*
X59921Y-61496D01*
X83267Y-45196D02*
X59921Y-45196D01*
X83267Y-61496D02*
X83267Y-45196D01*
X62007Y-47165D02*
X62874Y-47165D01*
X62874Y-59527D02*
X62007Y-59527D01*
X81299Y-47165D02*
X81299Y-52795D01*
X81299Y-59527D02*
X81299Y-53740D01*
X80433Y-53740D02*
X81299Y-53740D01*
X62874Y-48031D02*
X62874Y-58582D01*
X80433Y-48031D02*
X80433Y-58582D01*
X62874Y-58582D02*
X62874Y-59527D01*
X63818Y-58582D02*
X63818Y-59527D01*
X62874Y-47165D02*
X62874Y-48031D01*
X80433Y-52795D02*
X81299Y-52795D01*
X63818Y-48031D02*
X63818Y-47165D01*
G54D12*
X63228Y-50984D02*
X63307Y-51062D01*
X63307Y-50984D02*
X63228Y-51062D01*
X63228Y-51299D02*
X63307Y-51377D01*
X63307Y-51299D02*
X63228Y-51377D01*
X63228Y-51614D02*
X63307Y-51692D01*
X63307Y-51614D02*
X63228Y-51692D01*
X63228Y-51929D02*
X63307Y-52007D01*
X63307Y-51929D02*
X63228Y-52007D01*
X63228Y-52244D02*
X63307Y-52322D01*
X63307Y-52244D02*
X63228Y-52322D01*
X63228Y-52559D02*
X63307Y-52637D01*
X63307Y-52559D02*
X63228Y-52637D01*
X63228Y-52874D02*
X63307Y-52952D01*
X63307Y-52874D02*
X63228Y-52952D01*
X63228Y-53188D02*
X63307Y-53267D01*
X63307Y-53188D02*
X63228Y-53267D01*
X63228Y-53503D02*
X63307Y-53582D01*
X63307Y-53503D02*
X63228Y-53582D01*
X63228Y-53818D02*
X63307Y-53897D01*
X63307Y-53818D02*
X63228Y-53897D01*
X63228Y-54133D02*
X63307Y-54212D01*
X63307Y-54133D02*
X63228Y-54212D01*
X63228Y-54448D02*
X63307Y-54527D01*
X63307Y-54448D02*
X63228Y-54527D01*
X63425Y-49488D02*
X63503Y-49566D01*
X63503Y-49488D02*
X63425Y-49566D01*
X63425Y-49803D02*
X63503Y-49881D01*
X63503Y-49803D02*
X63425Y-49881D01*
X63425Y-50118D02*
X63503Y-50196D01*
X63503Y-50118D02*
X63425Y-50196D01*
X63425Y-50354D02*
X63503Y-50433D01*
X63503Y-50354D02*
X63425Y-50433D01*
X63425Y-50826D02*
X63503Y-50905D01*
X63503Y-50826D02*
X63425Y-50905D01*
X63425Y-51141D02*
X63503Y-51220D01*
X63503Y-51141D02*
X63425Y-51220D01*
X63425Y-51456D02*
X63503Y-51535D01*
X63503Y-51456D02*
X63425Y-51535D01*
X63425Y-51771D02*
X63503Y-51850D01*
X63503Y-51771D02*
X63425Y-51850D01*
X63425Y-52086D02*
X63503Y-52165D01*
X63503Y-52086D02*
X63425Y-52165D01*
X63425Y-52401D02*
X63503Y-52480D01*
X63503Y-52401D02*
X63425Y-52480D01*
X63425Y-52716D02*
X63503Y-52795D01*
X63503Y-52716D02*
X63425Y-52795D01*
X63425Y-53031D02*
X63503Y-53110D01*
X63503Y-53031D02*
X63425Y-53110D01*
X63425Y-53346D02*
X63503Y-53425D01*
X63503Y-53346D02*
X63425Y-53425D01*
X63425Y-53661D02*
X63503Y-53740D01*
X63503Y-53661D02*
X63425Y-53740D01*
X63425Y-53976D02*
X63503Y-54055D01*
X63503Y-53976D02*
X63425Y-54055D01*
X63425Y-54291D02*
X63503Y-54370D01*
X63503Y-54291D02*
X63425Y-54370D01*
X63425Y-54685D02*
X63503Y-54763D01*
X63503Y-54685D02*
X63425Y-54763D01*
X63425Y-55000D02*
X63503Y-55078D01*
X63503Y-55000D02*
X63425Y-55078D01*
X63425Y-55236D02*
X63503Y-55314D01*
X63503Y-55236D02*
X63425Y-55314D01*
X63425Y-55472D02*
X63503Y-55551D01*
X63503Y-55472D02*
X63425Y-55551D01*
X63425Y-55787D02*
X63503Y-55866D01*
X63503Y-55787D02*
X63425Y-55866D01*
X63425Y-56023D02*
X63503Y-56102D01*
X63503Y-56023D02*
X63425Y-56102D01*
X63425Y-56496D02*
X63503Y-56574D01*
X63503Y-56496D02*
X63425Y-56574D01*
X63425Y-56732D02*
X63503Y-56811D01*
X63503Y-56732D02*
X63425Y-56811D01*
X63425Y-57047D02*
X63503Y-57125D01*
X63503Y-57047D02*
X63425Y-57125D01*
X63838Y-49232D02*
X63917Y-49311D01*
X63917Y-49232D02*
X63838Y-49311D01*
X63838Y-57303D02*
X63917Y-57381D01*
X63917Y-57303D02*
X63838Y-57381D01*
X64291Y-49488D02*
X64370Y-49566D01*
X64370Y-49488D02*
X64291Y-49566D01*
X64291Y-49803D02*
X64370Y-49881D01*
X64370Y-49803D02*
X64291Y-49881D01*
X64291Y-50118D02*
X64370Y-50196D01*
X64370Y-50118D02*
X64291Y-50196D01*
X64291Y-50354D02*
X64370Y-50433D01*
X64370Y-50354D02*
X64291Y-50433D01*
X64291Y-50826D02*
X64370Y-50905D01*
X64370Y-50826D02*
X64291Y-50905D01*
X64291Y-55236D02*
X64370Y-55314D01*
X64370Y-55236D02*
X64291Y-55314D01*
X64291Y-55472D02*
X64370Y-55551D01*
X64370Y-55472D02*
X64291Y-55551D01*
X64291Y-55787D02*
X64370Y-55866D01*
X64370Y-55787D02*
X64291Y-55866D01*
X64291Y-56496D02*
X64370Y-56574D01*
X64370Y-56496D02*
X64291Y-56574D01*
X64291Y-56732D02*
X64370Y-56811D01*
X64370Y-56732D02*
X64291Y-56811D01*
X64291Y-57047D02*
X64370Y-57125D01*
X64370Y-57047D02*
X64291Y-57125D01*
X64330Y-51141D02*
X64409Y-51220D01*
X64409Y-51141D02*
X64330Y-51220D01*
X64330Y-51456D02*
X64409Y-51535D01*
X64409Y-51456D02*
X64330Y-51535D01*
X64330Y-51771D02*
X64409Y-51850D01*
X64409Y-51771D02*
X64330Y-51850D01*
X64330Y-52086D02*
X64409Y-52165D01*
X64409Y-52086D02*
X64330Y-52165D01*
X64330Y-52401D02*
X64409Y-52480D01*
X64409Y-52401D02*
X64330Y-52480D01*
X64330Y-52716D02*
X64409Y-52795D01*
X64409Y-52716D02*
X64330Y-52795D01*
X64330Y-53031D02*
X64409Y-53110D01*
X64409Y-53031D02*
X64330Y-53110D01*
X64330Y-53346D02*
X64409Y-53425D01*
X64409Y-53346D02*
X64330Y-53425D01*
X64744Y-49232D02*
X64822Y-49311D01*
X64822Y-49232D02*
X64744Y-49311D01*
X64744Y-57303D02*
X64822Y-57381D01*
X64822Y-57303D02*
X64744Y-57381D01*
X65157Y-49488D02*
X65236Y-49566D01*
X65236Y-49488D02*
X65157Y-49566D01*
X65157Y-49803D02*
X65236Y-49881D01*
X65236Y-49803D02*
X65157Y-49881D01*
X65157Y-50196D02*
X65236Y-50275D01*
X65236Y-50196D02*
X65157Y-50275D01*
X65157Y-50984D02*
X65236Y-51062D01*
X65236Y-50984D02*
X65157Y-51062D01*
X65157Y-51299D02*
X65236Y-51377D01*
X65236Y-51299D02*
X65157Y-51377D01*
X65157Y-51614D02*
X65236Y-51692D01*
X65236Y-51614D02*
X65157Y-51692D01*
X65157Y-51929D02*
X65236Y-52007D01*
X65236Y-51929D02*
X65157Y-52007D01*
X65157Y-52244D02*
X65236Y-52322D01*
X65236Y-52244D02*
X65157Y-52322D01*
X65157Y-52559D02*
X65236Y-52637D01*
X65236Y-52559D02*
X65157Y-52637D01*
X65157Y-52874D02*
X65236Y-52952D01*
X65236Y-52874D02*
X65157Y-52952D01*
X65157Y-53188D02*
X65236Y-53267D01*
X65236Y-53188D02*
X65157Y-53267D01*
X65157Y-53976D02*
X65236Y-54055D01*
X65236Y-53976D02*
X65157Y-54055D01*
X65157Y-54448D02*
X65236Y-54527D01*
X65236Y-54448D02*
X65157Y-54527D01*
X65157Y-55000D02*
X65236Y-55078D01*
X65236Y-55000D02*
X65157Y-55078D01*
X65157Y-55236D02*
X65236Y-55314D01*
X65236Y-55236D02*
X65157Y-55314D01*
X65157Y-55472D02*
X65236Y-55551D01*
X65236Y-55472D02*
X65157Y-55551D01*
X65157Y-55787D02*
X65236Y-55866D01*
X65236Y-55787D02*
X65157Y-55866D01*
X65157Y-56023D02*
X65236Y-56102D01*
X65236Y-56023D02*
X65157Y-56102D01*
X65157Y-56496D02*
X65236Y-56574D01*
X65236Y-56496D02*
X65157Y-56574D01*
X65157Y-56732D02*
X65236Y-56811D01*
X65236Y-56732D02*
X65157Y-56811D01*
X65157Y-57047D02*
X65236Y-57125D01*
X65236Y-57047D02*
X65157Y-57125D01*
X65354Y-54763D02*
X65433Y-54842D01*
X65433Y-54763D02*
X65354Y-54842D01*
X65374Y-53307D02*
X65452Y-53385D01*
X65452Y-53307D02*
X65374Y-53385D01*
X65413Y-53976D02*
X65492Y-54055D01*
X65492Y-53976D02*
X65413Y-54055D01*
X65452Y-48700D02*
X65531Y-48779D01*
X65531Y-48700D02*
X65452Y-48779D01*
X65452Y-57834D02*
X65531Y-57913D01*
X65531Y-57834D02*
X65452Y-57913D01*
X65767Y-49468D02*
X65846Y-49547D01*
X65846Y-49468D02*
X65767Y-49547D01*
X65767Y-52421D02*
X65846Y-52500D01*
X65846Y-52421D02*
X65767Y-52500D01*
X65767Y-54114D02*
X65846Y-54192D01*
X65846Y-54114D02*
X65767Y-54192D01*
X65767Y-55374D02*
X65846Y-55452D01*
X65846Y-55374D02*
X65767Y-55452D01*
X65767Y-57066D02*
X65846Y-57145D01*
X65846Y-57066D02*
X65767Y-57145D01*
X66082Y-48700D02*
X66161Y-48779D01*
X66161Y-48700D02*
X66082Y-48779D01*
X66082Y-57834D02*
X66161Y-57913D01*
X66161Y-57834D02*
X66082Y-57913D01*
X66102Y-52381D02*
X66181Y-52460D01*
X66181Y-52381D02*
X66102Y-52460D01*
X66141Y-54114D02*
X66220Y-54192D01*
X66220Y-54114D02*
X66141Y-54192D01*
X66259Y-53326D02*
X66338Y-53405D01*
X66338Y-53326D02*
X66259Y-53405D01*
X66417Y-48562D02*
X66496Y-48641D01*
X66496Y-48562D02*
X66417Y-48641D01*
X66417Y-57972D02*
X66496Y-58051D01*
X66496Y-57972D02*
X66417Y-58051D01*
X66476Y-52755D02*
X66555Y-52834D01*
X66555Y-52755D02*
X66476Y-52834D01*
X66476Y-52992D02*
X66555Y-53070D01*
X66555Y-52992D02*
X66476Y-53070D01*
X66476Y-53759D02*
X66555Y-53838D01*
X66555Y-53759D02*
X66476Y-53838D01*
X66496Y-55078D02*
X66574Y-55157D01*
X66574Y-55078D02*
X66496Y-55157D01*
X66496Y-55393D02*
X66574Y-55472D01*
X66574Y-55393D02*
X66496Y-55472D01*
X66535Y-51161D02*
X66614Y-51240D01*
X66614Y-51161D02*
X66535Y-51240D01*
X66614Y-51377D02*
X66692Y-51456D01*
X66692Y-51377D02*
X66614Y-51456D01*
X66614Y-51673D02*
X66692Y-51751D01*
X66692Y-51673D02*
X66614Y-51751D01*
X66712Y-52992D02*
X66791Y-53070D01*
X66791Y-52992D02*
X66712Y-53070D01*
X66712Y-53759D02*
X66791Y-53838D01*
X66791Y-53759D02*
X66712Y-53838D01*
X66732Y-50393D02*
X66811Y-50472D01*
X66811Y-50393D02*
X66732Y-50472D01*
X66771Y-51535D02*
X66850Y-51614D01*
X66850Y-51535D02*
X66771Y-51614D01*
X66771Y-51850D02*
X66850Y-51929D01*
X66850Y-51850D02*
X66771Y-51929D01*
X66771Y-55688D02*
X66850Y-55767D01*
X66850Y-55688D02*
X66771Y-55767D01*
X66791Y-57972D02*
X66870Y-58051D01*
X66870Y-57972D02*
X66791Y-58051D01*
X66811Y-50944D02*
X66889Y-51023D01*
X66889Y-50944D02*
X66811Y-51023D01*
X66850Y-52421D02*
X66929Y-52500D01*
X66929Y-52421D02*
X66850Y-52500D01*
X66929Y-53956D02*
X67007Y-54035D01*
X67007Y-53956D02*
X66929Y-54035D01*
X66948Y-51948D02*
X67027Y-52027D01*
X67027Y-51948D02*
X66948Y-52027D01*
X66948Y-52992D02*
X67027Y-53070D01*
X67027Y-52992D02*
X66948Y-53070D01*
X67125Y-55688D02*
X67204Y-55767D01*
X67204Y-55688D02*
X67125Y-55767D01*
X67145Y-49350D02*
X67224Y-49429D01*
X67224Y-49350D02*
X67145Y-49429D01*
X67165Y-48622D02*
X67244Y-48700D01*
X67244Y-48622D02*
X67165Y-48700D01*
X67185Y-53740D02*
X67263Y-53818D01*
X67263Y-53740D02*
X67185Y-53818D01*
X67303Y-54370D02*
X67381Y-54448D01*
X67381Y-54370D02*
X67303Y-54448D01*
X67312Y-53356D02*
X67391Y-53435D01*
X67391Y-53356D02*
X67312Y-53435D01*
X67421Y-56023D02*
X67500Y-56102D01*
X67500Y-56023D02*
X67421Y-56102D01*
X67442Y-51652D02*
X67521Y-51731D01*
X67521Y-51652D02*
X67442Y-51731D01*
X67442Y-53225D02*
X67521Y-53304D01*
X67521Y-53225D02*
X67442Y-53304D01*
X67443Y-51127D02*
X67522Y-51206D01*
X67522Y-51127D02*
X67443Y-51206D01*
X67443Y-52176D02*
X67522Y-52255D01*
X67522Y-52176D02*
X67443Y-52255D01*
X67443Y-52701D02*
X67522Y-52779D01*
X67522Y-52701D02*
X67443Y-52779D01*
X67460Y-55649D02*
X67539Y-55728D01*
X67539Y-55649D02*
X67460Y-55728D01*
X67574Y-50996D02*
X67653Y-51075D01*
X67653Y-50996D02*
X67574Y-51075D01*
X67574Y-51259D02*
X67653Y-51337D01*
X67653Y-51259D02*
X67574Y-51337D01*
X67574Y-51521D02*
X67653Y-51600D01*
X67653Y-51521D02*
X67574Y-51600D01*
X67574Y-51783D02*
X67653Y-51862D01*
X67653Y-51783D02*
X67574Y-51862D01*
X67574Y-52045D02*
X67653Y-52124D01*
X67653Y-52045D02*
X67574Y-52124D01*
X67574Y-52307D02*
X67653Y-52386D01*
X67653Y-52307D02*
X67574Y-52386D01*
X67574Y-52570D02*
X67653Y-52648D01*
X67653Y-52570D02*
X67574Y-52648D01*
X67574Y-52832D02*
X67653Y-52911D01*
X67653Y-52832D02*
X67574Y-52911D01*
X67574Y-53094D02*
X67653Y-53173D01*
X67653Y-53094D02*
X67574Y-53173D01*
X67574Y-53356D02*
X67653Y-53435D01*
X67653Y-53356D02*
X67574Y-53435D01*
X67704Y-50865D02*
X67783Y-50944D01*
X67783Y-50865D02*
X67704Y-50944D01*
X67704Y-51652D02*
X67783Y-51731D01*
X67783Y-51652D02*
X67704Y-51731D01*
X67704Y-53225D02*
X67783Y-53304D01*
X67783Y-53225D02*
X67704Y-53304D01*
X67705Y-51127D02*
X67784Y-51206D01*
X67784Y-51127D02*
X67705Y-51206D01*
X67705Y-51390D02*
X67784Y-51468D01*
X67784Y-51390D02*
X67705Y-51468D01*
X67705Y-51914D02*
X67784Y-51993D01*
X67784Y-51914D02*
X67705Y-51993D01*
X67705Y-52176D02*
X67784Y-52255D01*
X67784Y-52176D02*
X67705Y-52255D01*
X67705Y-52701D02*
X67784Y-52779D01*
X67784Y-52701D02*
X67705Y-52779D01*
X67705Y-52963D02*
X67784Y-53042D01*
X67784Y-52963D02*
X67705Y-53042D01*
X67705Y-53487D02*
X67784Y-53566D01*
X67784Y-53487D02*
X67705Y-53566D01*
X67705Y-53750D02*
X67784Y-53828D01*
X67784Y-53750D02*
X67705Y-53828D01*
X67834Y-48740D02*
X67913Y-48818D01*
X67913Y-48740D02*
X67834Y-48818D01*
X67837Y-51259D02*
X67915Y-51337D01*
X67915Y-51259D02*
X67837Y-51337D01*
X67837Y-51521D02*
X67915Y-51600D01*
X67915Y-51521D02*
X67837Y-51600D01*
X67837Y-51783D02*
X67915Y-51862D01*
X67915Y-51783D02*
X67837Y-51862D01*
X67837Y-52045D02*
X67915Y-52124D01*
X67915Y-52045D02*
X67837Y-52124D01*
X67837Y-52307D02*
X67915Y-52386D01*
X67915Y-52307D02*
X67837Y-52386D01*
X67837Y-52570D02*
X67915Y-52648D01*
X67915Y-52570D02*
X67837Y-52648D01*
X67854Y-55590D02*
X67933Y-55669D01*
X67933Y-55590D02*
X67854Y-55669D01*
X67874Y-49685D02*
X67952Y-49763D01*
X67952Y-49685D02*
X67874Y-49763D01*
X67874Y-49901D02*
X67952Y-49980D01*
X67952Y-49901D02*
X67874Y-49980D01*
X67968Y-53750D02*
X68046Y-53828D01*
X68046Y-53750D02*
X67968Y-53828D01*
X68070Y-55590D02*
X68149Y-55669D01*
X68149Y-55590D02*
X68070Y-55669D01*
X68070Y-56535D02*
X68149Y-56614D01*
X68149Y-56535D02*
X68070Y-56614D01*
X68099Y-53881D02*
X68177Y-53959D01*
X68177Y-53881D02*
X68099Y-53959D01*
X68099Y-54143D02*
X68177Y-54222D01*
X68177Y-54143D02*
X68099Y-54222D01*
X68110Y-52401D02*
X68188Y-52480D01*
X68188Y-52401D02*
X68110Y-52480D01*
X68110Y-52952D02*
X68188Y-53031D01*
X68188Y-52952D02*
X68110Y-53031D01*
X68110Y-53228D02*
X68188Y-53307D01*
X68188Y-53228D02*
X68110Y-53307D01*
X68188Y-54842D02*
X68267Y-54921D01*
X68267Y-54842D02*
X68188Y-54921D01*
X68229Y-50341D02*
X68307Y-50420D01*
X68307Y-50341D02*
X68229Y-50420D01*
X68229Y-54012D02*
X68307Y-54090D01*
X68307Y-54012D02*
X68229Y-54090D01*
X68361Y-50210D02*
X68440Y-50288D01*
X68440Y-50210D02*
X68361Y-50288D01*
X68361Y-50734D02*
X68440Y-50813D01*
X68440Y-50734D02*
X68361Y-50813D01*
X68361Y-53881D02*
X68440Y-53959D01*
X68440Y-53881D02*
X68361Y-53959D01*
X68361Y-54143D02*
X68440Y-54222D01*
X68440Y-54143D02*
X68361Y-54222D01*
X68366Y-56200D02*
X68444Y-56279D01*
X68444Y-56200D02*
X68366Y-56279D01*
X68385Y-51023D02*
X68464Y-51102D01*
X68464Y-51023D02*
X68385Y-51102D01*
X68385Y-51299D02*
X68464Y-51377D01*
X68464Y-51299D02*
X68385Y-51377D01*
X68385Y-51574D02*
X68464Y-51653D01*
X68464Y-51574D02*
X68385Y-51653D01*
X68385Y-51850D02*
X68464Y-51929D01*
X68464Y-51850D02*
X68385Y-51929D01*
X68385Y-52125D02*
X68464Y-52204D01*
X68464Y-52125D02*
X68385Y-52204D01*
X68385Y-52401D02*
X68464Y-52480D01*
X68464Y-52401D02*
X68385Y-52480D01*
X68385Y-52677D02*
X68464Y-52755D01*
X68464Y-52677D02*
X68385Y-52755D01*
X68385Y-52952D02*
X68464Y-53031D01*
X68464Y-52952D02*
X68385Y-53031D01*
X68385Y-53228D02*
X68464Y-53307D01*
X68464Y-53228D02*
X68385Y-53307D01*
X68425Y-57972D02*
X68503Y-58051D01*
X68503Y-57972D02*
X68425Y-58051D01*
X68484Y-49704D02*
X68562Y-49783D01*
X68562Y-49704D02*
X68484Y-49783D01*
X68491Y-50341D02*
X68570Y-50420D01*
X68570Y-50341D02*
X68491Y-50420D01*
X68492Y-53750D02*
X68571Y-53828D01*
X68571Y-53750D02*
X68492Y-53828D01*
X68543Y-48641D02*
X68622Y-48720D01*
X68622Y-48641D02*
X68543Y-48720D01*
X68623Y-50210D02*
X68702Y-50288D01*
X68702Y-50210D02*
X68623Y-50288D01*
X68623Y-54143D02*
X68702Y-54222D01*
X68702Y-54143D02*
X68623Y-54222D01*
X68661Y-51023D02*
X68740Y-51102D01*
X68740Y-51023D02*
X68661Y-51102D01*
X68661Y-51299D02*
X68740Y-51377D01*
X68740Y-51299D02*
X68661Y-51377D01*
X68661Y-51574D02*
X68740Y-51653D01*
X68740Y-51574D02*
X68661Y-51653D01*
X68661Y-51850D02*
X68740Y-51929D01*
X68740Y-51850D02*
X68661Y-51929D01*
X68661Y-52125D02*
X68740Y-52204D01*
X68740Y-52125D02*
X68661Y-52204D01*
X68661Y-52401D02*
X68740Y-52480D01*
X68740Y-52401D02*
X68661Y-52480D01*
X68661Y-52677D02*
X68740Y-52755D01*
X68740Y-52677D02*
X68661Y-52755D01*
X68661Y-52952D02*
X68740Y-53031D01*
X68740Y-52952D02*
X68661Y-53031D01*
X68661Y-53228D02*
X68740Y-53307D01*
X68740Y-53228D02*
X68661Y-53307D01*
X68700Y-54960D02*
X68779Y-55039D01*
X68779Y-54960D02*
X68700Y-55039D01*
X68753Y-50341D02*
X68832Y-50420D01*
X68832Y-50341D02*
X68753Y-50420D01*
X68754Y-50603D02*
X68833Y-50682D01*
X68833Y-50603D02*
X68754Y-50682D01*
X68799Y-56200D02*
X68877Y-56279D01*
X68877Y-56200D02*
X68799Y-56279D01*
X68799Y-57007D02*
X68877Y-57086D01*
X68877Y-57007D02*
X68799Y-57086D01*
X68885Y-53881D02*
X68964Y-53959D01*
X68964Y-53881D02*
X68885Y-53959D01*
X68885Y-54143D02*
X68964Y-54222D01*
X68964Y-54143D02*
X68885Y-54222D01*
X68917Y-51023D02*
X68996Y-51102D01*
X68996Y-51023D02*
X68917Y-51102D01*
X68917Y-51299D02*
X68996Y-51377D01*
X68996Y-51299D02*
X68917Y-51377D01*
X68917Y-51574D02*
X68996Y-51653D01*
X68996Y-51574D02*
X68917Y-51653D01*
X68917Y-51850D02*
X68996Y-51929D01*
X68996Y-51850D02*
X68917Y-51929D01*
X68917Y-52125D02*
X68996Y-52204D01*
X68996Y-52125D02*
X68917Y-52204D01*
X68917Y-52401D02*
X68996Y-52480D01*
X68996Y-52401D02*
X68917Y-52480D01*
X68917Y-52677D02*
X68996Y-52755D01*
X68996Y-52677D02*
X68917Y-52755D01*
X68917Y-52952D02*
X68996Y-53031D01*
X68996Y-52952D02*
X68917Y-53031D01*
X68917Y-53228D02*
X68996Y-53307D01*
X68996Y-53228D02*
X68917Y-53307D01*
X68976Y-54685D02*
X69055Y-54763D01*
X69055Y-54685D02*
X68976Y-54763D01*
X68996Y-57972D02*
X69074Y-58051D01*
X69074Y-57972D02*
X68996Y-58051D01*
X69016Y-50603D02*
X69095Y-50682D01*
X69095Y-50603D02*
X69016Y-50682D01*
X69016Y-53750D02*
X69095Y-53828D01*
X69095Y-53750D02*
X69016Y-53828D01*
X69016Y-54274D02*
X69095Y-54353D01*
X69095Y-54274D02*
X69016Y-54353D01*
X69074Y-54960D02*
X69153Y-55039D01*
X69153Y-54960D02*
X69074Y-55039D01*
X69148Y-50472D02*
X69226Y-50551D01*
X69226Y-50472D02*
X69148Y-50551D01*
X69148Y-50734D02*
X69226Y-50813D01*
X69226Y-50734D02*
X69148Y-50813D01*
X69148Y-53881D02*
X69226Y-53959D01*
X69226Y-53881D02*
X69148Y-53959D01*
X69173Y-48818D02*
X69251Y-48897D01*
X69251Y-48818D02*
X69173Y-48897D01*
X69192Y-51023D02*
X69271Y-51102D01*
X69271Y-51023D02*
X69192Y-51102D01*
X69192Y-51299D02*
X69271Y-51377D01*
X69271Y-51299D02*
X69192Y-51377D01*
X69192Y-51574D02*
X69271Y-51653D01*
X69271Y-51574D02*
X69192Y-51653D01*
X69192Y-51850D02*
X69271Y-51929D01*
X69271Y-51850D02*
X69192Y-51929D01*
X69192Y-52125D02*
X69271Y-52204D01*
X69271Y-52125D02*
X69192Y-52204D01*
X69192Y-52401D02*
X69271Y-52480D01*
X69271Y-52401D02*
X69192Y-52480D01*
X69192Y-52677D02*
X69271Y-52755D01*
X69271Y-52677D02*
X69192Y-52755D01*
X69192Y-52952D02*
X69271Y-53031D01*
X69271Y-52952D02*
X69192Y-53031D01*
X69192Y-53228D02*
X69271Y-53307D01*
X69271Y-53228D02*
X69192Y-53307D01*
X69277Y-50341D02*
X69356Y-50420D01*
X69356Y-50341D02*
X69277Y-50420D01*
X69279Y-53750D02*
X69357Y-53828D01*
X69357Y-53750D02*
X69279Y-53828D01*
X69350Y-49114D02*
X69429Y-49192D01*
X69429Y-49114D02*
X69350Y-49192D01*
X69410Y-50210D02*
X69488Y-50288D01*
X69488Y-50210D02*
X69410Y-50288D01*
X69410Y-54405D02*
X69488Y-54484D01*
X69488Y-54405D02*
X69410Y-54484D01*
X69448Y-51023D02*
X69527Y-51102D01*
X69527Y-51023D02*
X69448Y-51102D01*
X69448Y-51299D02*
X69527Y-51377D01*
X69527Y-51299D02*
X69448Y-51377D01*
X69448Y-51574D02*
X69527Y-51653D01*
X69527Y-51574D02*
X69448Y-51653D01*
X69448Y-51850D02*
X69527Y-51929D01*
X69527Y-51850D02*
X69448Y-51929D01*
X69448Y-52125D02*
X69527Y-52204D01*
X69527Y-52125D02*
X69448Y-52204D01*
X69448Y-52401D02*
X69527Y-52480D01*
X69527Y-52401D02*
X69448Y-52480D01*
X69448Y-52677D02*
X69527Y-52755D01*
X69527Y-52677D02*
X69448Y-52755D01*
X69448Y-52952D02*
X69527Y-53031D01*
X69527Y-52952D02*
X69448Y-53031D01*
X69448Y-53228D02*
X69527Y-53307D01*
X69527Y-53228D02*
X69448Y-53307D01*
X69540Y-54012D02*
X69618Y-54090D01*
X69618Y-54012D02*
X69540Y-54090D01*
X69541Y-54274D02*
X69620Y-54353D01*
X69620Y-54274D02*
X69541Y-54353D01*
X69566Y-57972D02*
X69645Y-58051D01*
X69645Y-57972D02*
X69566Y-58051D01*
X69586Y-48779D02*
X69665Y-48858D01*
X69665Y-48779D02*
X69586Y-48858D01*
X69586Y-49114D02*
X69665Y-49192D01*
X69665Y-49114D02*
X69586Y-49192D01*
X69724Y-51023D02*
X69803Y-51102D01*
X69803Y-51023D02*
X69724Y-51102D01*
X69724Y-51299D02*
X69803Y-51377D01*
X69803Y-51299D02*
X69724Y-51377D01*
X69724Y-51574D02*
X69803Y-51653D01*
X69803Y-51574D02*
X69724Y-51653D01*
X69724Y-51850D02*
X69803Y-51929D01*
X69803Y-51850D02*
X69724Y-51929D01*
X69724Y-52125D02*
X69803Y-52204D01*
X69803Y-52125D02*
X69724Y-52204D01*
X69724Y-52401D02*
X69803Y-52480D01*
X69803Y-52401D02*
X69724Y-52480D01*
X69724Y-52677D02*
X69803Y-52755D01*
X69803Y-52677D02*
X69724Y-52755D01*
X69724Y-52952D02*
X69803Y-53031D01*
X69803Y-52952D02*
X69724Y-53031D01*
X69724Y-53228D02*
X69803Y-53307D01*
X69803Y-53228D02*
X69724Y-53307D01*
X69783Y-54803D02*
X69862Y-54881D01*
X69862Y-54803D02*
X69783Y-54881D01*
X69934Y-50472D02*
X70013Y-50551D01*
X70013Y-50472D02*
X69934Y-50551D01*
X70000Y-51023D02*
X70078Y-51102D01*
X70078Y-51023D02*
X70000Y-51102D01*
X70000Y-51299D02*
X70078Y-51377D01*
X70078Y-51299D02*
X70000Y-51377D01*
X70000Y-51574D02*
X70078Y-51653D01*
X70078Y-51574D02*
X70000Y-51653D01*
X70000Y-51850D02*
X70078Y-51929D01*
X70078Y-51850D02*
X70000Y-51929D01*
X70000Y-52125D02*
X70078Y-52204D01*
X70078Y-52125D02*
X70000Y-52204D01*
X70000Y-52401D02*
X70078Y-52480D01*
X70078Y-52401D02*
X70000Y-52480D01*
X70000Y-52677D02*
X70078Y-52755D01*
X70078Y-52677D02*
X70000Y-52755D01*
X70000Y-52952D02*
X70078Y-53031D01*
X70078Y-52952D02*
X70000Y-53031D01*
X70000Y-53228D02*
X70078Y-53307D01*
X70078Y-53228D02*
X70000Y-53307D01*
X70065Y-50603D02*
X70144Y-50682D01*
X70144Y-50603D02*
X70065Y-50682D01*
X70275Y-51299D02*
X70354Y-51377D01*
X70354Y-51299D02*
X70275Y-51377D01*
X70275Y-51574D02*
X70354Y-51653D01*
X70354Y-51574D02*
X70275Y-51653D01*
X70275Y-51850D02*
X70354Y-51929D01*
X70354Y-51850D02*
X70275Y-51929D01*
X70275Y-52125D02*
X70354Y-52204D01*
X70354Y-52125D02*
X70275Y-52204D01*
X70275Y-52401D02*
X70354Y-52480D01*
X70354Y-52401D02*
X70275Y-52480D01*
X70275Y-52677D02*
X70354Y-52755D01*
X70354Y-52677D02*
X70275Y-52755D01*
X70275Y-52952D02*
X70354Y-53031D01*
X70354Y-52952D02*
X70275Y-53031D01*
X70374Y-49370D02*
X70452Y-49448D01*
X70452Y-49370D02*
X70374Y-49448D01*
X70551Y-51299D02*
X70629Y-51377D01*
X70629Y-51299D02*
X70551Y-51377D01*
X70551Y-51574D02*
X70629Y-51653D01*
X70629Y-51574D02*
X70551Y-51653D01*
X70551Y-51850D02*
X70629Y-51929D01*
X70629Y-51850D02*
X70551Y-51929D01*
X70551Y-52125D02*
X70629Y-52204D01*
X70629Y-52125D02*
X70551Y-52204D01*
X70551Y-54704D02*
X70629Y-54783D01*
X70629Y-54704D02*
X70551Y-54783D01*
X70588Y-50341D02*
X70667Y-50420D01*
X70667Y-50341D02*
X70588Y-50420D01*
X70590Y-53750D02*
X70668Y-53828D01*
X70668Y-53750D02*
X70590Y-53828D01*
X70721Y-50210D02*
X70800Y-50288D01*
X70800Y-50210D02*
X70721Y-50288D01*
X70721Y-50734D02*
X70800Y-50813D01*
X70800Y-50734D02*
X70721Y-50813D01*
X70721Y-54143D02*
X70800Y-54222D01*
X70800Y-54143D02*
X70721Y-54222D01*
X70851Y-53225D02*
X70929Y-53304D01*
X70929Y-53225D02*
X70851Y-53304D01*
X70851Y-54012D02*
X70929Y-54090D01*
X70929Y-54012D02*
X70851Y-54090D01*
X70852Y-50079D02*
X70931Y-50157D01*
X70931Y-50079D02*
X70852Y-50157D01*
X70852Y-51127D02*
X70931Y-51206D01*
X70931Y-51127D02*
X70852Y-51206D01*
X70852Y-51390D02*
X70931Y-51468D01*
X70931Y-51390D02*
X70852Y-51468D01*
X70852Y-53750D02*
X70931Y-53828D01*
X70931Y-53750D02*
X70852Y-53828D01*
X70964Y-58090D02*
X71043Y-58169D01*
X71043Y-58090D02*
X70964Y-58169D01*
X70983Y-50210D02*
X71062Y-50288D01*
X71062Y-50210D02*
X70983Y-50288D01*
X70983Y-50996D02*
X71062Y-51075D01*
X71062Y-50996D02*
X70983Y-51075D01*
X70983Y-53094D02*
X71062Y-53173D01*
X71062Y-53094D02*
X70983Y-53173D01*
X70983Y-53356D02*
X71062Y-53435D01*
X71062Y-53356D02*
X70983Y-53435D01*
X70983Y-53618D02*
X71062Y-53697D01*
X71062Y-53618D02*
X70983Y-53697D01*
X70983Y-53881D02*
X71062Y-53959D01*
X71062Y-53881D02*
X70983Y-53959D01*
X70984Y-55157D02*
X71062Y-55236D01*
X71062Y-55157D02*
X70984Y-55236D01*
X71003Y-48425D02*
X71082Y-48503D01*
X71082Y-48425D02*
X71003Y-48503D01*
X71114Y-51127D02*
X71193Y-51206D01*
X71193Y-51127D02*
X71114Y-51206D01*
X71114Y-51390D02*
X71193Y-51468D01*
X71193Y-51390D02*
X71114Y-51468D01*
X71114Y-52701D02*
X71193Y-52779D01*
X71193Y-52701D02*
X71114Y-52779D01*
X71114Y-52963D02*
X71193Y-53042D01*
X71193Y-52963D02*
X71114Y-53042D01*
X71245Y-52832D02*
X71324Y-52911D01*
X71324Y-52832D02*
X71245Y-52911D01*
X71245Y-53094D02*
X71324Y-53173D01*
X71324Y-53094D02*
X71245Y-53173D01*
X71245Y-53356D02*
X71324Y-53435D01*
X71324Y-53356D02*
X71245Y-53435D01*
X71245Y-53618D02*
X71324Y-53697D01*
X71324Y-53618D02*
X71245Y-53697D01*
X71376Y-51127D02*
X71455Y-51206D01*
X71455Y-51127D02*
X71376Y-51206D01*
X71376Y-53487D02*
X71455Y-53566D01*
X71455Y-53487D02*
X71376Y-53566D01*
X71377Y-55334D02*
X71456Y-55413D01*
X71456Y-55334D02*
X71377Y-55413D01*
X71476Y-57047D02*
X71555Y-57125D01*
X71555Y-57047D02*
X71476Y-57125D01*
X71673Y-51988D02*
X71751Y-52066D01*
X71751Y-51988D02*
X71673Y-52066D01*
X71751Y-54094D02*
X71830Y-54173D01*
X71830Y-54094D02*
X71751Y-54173D01*
X71751Y-54350D02*
X71830Y-54429D01*
X71830Y-54350D02*
X71751Y-54429D01*
X71751Y-55295D02*
X71830Y-55374D01*
X71830Y-55295D02*
X71751Y-55374D01*
X71751Y-55944D02*
X71830Y-56023D01*
X71830Y-55944D02*
X71751Y-56023D01*
X71771Y-51299D02*
X71850Y-51377D01*
X71850Y-51299D02*
X71771Y-51377D01*
X71791Y-50629D02*
X71870Y-50708D01*
X71870Y-50629D02*
X71791Y-50708D01*
X71830Y-53031D02*
X71909Y-53110D01*
X71909Y-53031D02*
X71830Y-53110D01*
X71830Y-56555D02*
X71909Y-56633D01*
X71909Y-56555D02*
X71830Y-56633D01*
X71830Y-57047D02*
X71909Y-57125D01*
X71909Y-57047D02*
X71830Y-57125D01*
X71889Y-52125D02*
X71968Y-52204D01*
X71968Y-52125D02*
X71889Y-52204D01*
X71929Y-53937D02*
X72007Y-54015D01*
X72007Y-53937D02*
X71929Y-54015D01*
X71988Y-55551D02*
X72066Y-55629D01*
X72066Y-55551D02*
X71988Y-55629D01*
X72283Y-52362D02*
X72362Y-52440D01*
X72362Y-52362D02*
X72283Y-52440D01*
X72362Y-50925D02*
X72440Y-51003D01*
X72440Y-50925D02*
X72362Y-51003D01*
X72490Y-53720D02*
X72568Y-53799D01*
X72568Y-53720D02*
X72490Y-53799D01*
X72539Y-48425D02*
X72618Y-48503D01*
X72618Y-48425D02*
X72539Y-48503D01*
X72539Y-58090D02*
X72618Y-58169D01*
X72618Y-58090D02*
X72539Y-58169D01*
X72559Y-55944D02*
X72637Y-56023D01*
X72637Y-55944D02*
X72559Y-56023D01*
X72696Y-53169D02*
X72775Y-53248D01*
X72775Y-53169D02*
X72696Y-53248D01*
X72736Y-56555D02*
X72814Y-56633D01*
X72814Y-56555D02*
X72736Y-56633D01*
X72736Y-57047D02*
X72814Y-57125D01*
X72814Y-57047D02*
X72736Y-57125D01*
X73090Y-52775D02*
X73169Y-52854D01*
X73169Y-52775D02*
X73090Y-52854D01*
X73523Y-49586D02*
X73602Y-49665D01*
X73602Y-49586D02*
X73523Y-49665D01*
X73720Y-53858D02*
X73799Y-53937D01*
X73799Y-53858D02*
X73720Y-53937D01*
X73720Y-56023D02*
X73799Y-56102D01*
X73799Y-56023D02*
X73720Y-56102D01*
X73779Y-48425D02*
X73858Y-48503D01*
X73858Y-48425D02*
X73779Y-48503D01*
X73877Y-50019D02*
X73956Y-50098D01*
X73956Y-50019D02*
X73877Y-50098D01*
X73976Y-57972D02*
X74055Y-58051D01*
X74055Y-57972D02*
X73976Y-58051D01*
X74035Y-53169D02*
X74114Y-53248D01*
X74114Y-53169D02*
X74035Y-53248D01*
X74311Y-53602D02*
X74389Y-53681D01*
X74389Y-53602D02*
X74311Y-53681D01*
X74320Y-56289D02*
X74399Y-56368D01*
X74399Y-56289D02*
X74320Y-56368D01*
X74330Y-50374D02*
X74409Y-50452D01*
X74409Y-50374D02*
X74330Y-50452D01*
X74547Y-57972D02*
X74625Y-58051D01*
X74625Y-57972D02*
X74547Y-58051D01*
X74586Y-54960D02*
X74665Y-55039D01*
X74665Y-54960D02*
X74586Y-55039D01*
X74685Y-51751D02*
X74763Y-51830D01*
X74763Y-51751D02*
X74685Y-51830D01*
X74724Y-56515D02*
X74803Y-56594D01*
X74803Y-56515D02*
X74724Y-56594D01*
X74921Y-54448D02*
X75000Y-54527D01*
X75000Y-54448D02*
X74921Y-54527D01*
X74921Y-54960D02*
X75000Y-55039D01*
X75000Y-54960D02*
X74921Y-55039D01*
X74940Y-50885D02*
X75019Y-50964D01*
X75019Y-50885D02*
X74940Y-50964D01*
X75000Y-56181D02*
X75078Y-56259D01*
X75078Y-56181D02*
X75000Y-56259D01*
X75118Y-57972D02*
X75196Y-58051D01*
X75196Y-57972D02*
X75118Y-58051D01*
X75177Y-49507D02*
X75255Y-49586D01*
X75255Y-49507D02*
X75177Y-49586D01*
X75177Y-50885D02*
X75255Y-50964D01*
X75255Y-50885D02*
X75177Y-50964D01*
X75216Y-56397D02*
X75295Y-56476D01*
X75295Y-56397D02*
X75216Y-56476D01*
X75492Y-52677D02*
X75570Y-52755D01*
X75570Y-52677D02*
X75492Y-52755D01*
X75531Y-49507D02*
X75610Y-49586D01*
X75610Y-49507D02*
X75531Y-49586D01*
X75767Y-53267D02*
X75846Y-53346D01*
X75846Y-53267D02*
X75767Y-53346D01*
X75787Y-56259D02*
X75866Y-56338D01*
X75866Y-56259D02*
X75787Y-56338D01*
X75846Y-54448D02*
X75925Y-54527D01*
X75925Y-54448D02*
X75846Y-54527D01*
X75846Y-54960D02*
X75925Y-55039D01*
X75925Y-54960D02*
X75846Y-55039D01*
X75964Y-51751D02*
X76043Y-51830D01*
X76043Y-51751D02*
X75964Y-51830D01*
X75984Y-48720D02*
X76062Y-48799D01*
X76062Y-48720D02*
X75984Y-48799D01*
X76141Y-56259D02*
X76220Y-56338D01*
X76220Y-56259D02*
X76141Y-56338D01*
X76279Y-54251D02*
X76358Y-54330D01*
X76358Y-54251D02*
X76279Y-54330D01*
X76476Y-49409D02*
X76555Y-49488D01*
X76555Y-49409D02*
X76476Y-49488D01*
X76476Y-53267D02*
X76555Y-53346D01*
X76555Y-53267D02*
X76476Y-53346D01*
X76574Y-48602D02*
X76653Y-48681D01*
X76653Y-48602D02*
X76574Y-48681D01*
X76574Y-49074D02*
X76653Y-49153D01*
X76653Y-49074D02*
X76574Y-49153D01*
X76574Y-49744D02*
X76653Y-49822D01*
X76653Y-49744D02*
X76574Y-49822D01*
X76574Y-52933D02*
X76653Y-53011D01*
X76653Y-52933D02*
X76574Y-53011D01*
X76574Y-53602D02*
X76653Y-53681D01*
X76653Y-53602D02*
X76574Y-53681D01*
X76751Y-57972D02*
X76830Y-58051D01*
X76830Y-57972D02*
X76751Y-58051D01*
X76811Y-52657D02*
X76889Y-52736D01*
X76889Y-52657D02*
X76811Y-52736D01*
X76830Y-51614D02*
X76909Y-51692D01*
X76909Y-51614D02*
X76830Y-51692D01*
X77125Y-48799D02*
X77204Y-48877D01*
X77204Y-48799D02*
X77125Y-48877D01*
X77125Y-53877D02*
X77204Y-53956D01*
X77204Y-53877D02*
X77125Y-53956D01*
X77322Y-57972D02*
X77401Y-58051D01*
X77401Y-57972D02*
X77322Y-58051D01*
X77362Y-49409D02*
X77440Y-49488D01*
X77440Y-49409D02*
X77362Y-49488D01*
X77421Y-53267D02*
X77500Y-53346D01*
X77500Y-53267D02*
X77421Y-53346D01*
X77460Y-51791D02*
X77539Y-51870D01*
X77539Y-51791D02*
X77460Y-51870D01*
X77460Y-54744D02*
X77539Y-54822D01*
X77539Y-54744D02*
X77460Y-54822D01*
X77460Y-57559D02*
X77539Y-57637D01*
X77539Y-57559D02*
X77460Y-57637D01*
X77500Y-50314D02*
X77578Y-50393D01*
X77578Y-50314D02*
X77500Y-50393D01*
X77500Y-50669D02*
X77578Y-50748D01*
X77578Y-50669D02*
X77500Y-50748D01*
X77775Y-51161D02*
X77854Y-51240D01*
X77854Y-51161D02*
X77775Y-51240D01*
X78051Y-53562D02*
X78129Y-53641D01*
X78129Y-53562D02*
X78051Y-53641D01*
X78090Y-48582D02*
X78169Y-48661D01*
X78169Y-48582D02*
X78090Y-48661D01*
X78090Y-48937D02*
X78169Y-49015D01*
X78169Y-48937D02*
X78090Y-49015D01*
X78090Y-51791D02*
X78169Y-51870D01*
X78169Y-51791D02*
X78090Y-51870D01*
X78090Y-54744D02*
X78169Y-54822D01*
X78169Y-54744D02*
X78090Y-54822D01*
X78326Y-53562D02*
X78405Y-53641D01*
X78405Y-53562D02*
X78326Y-53641D01*
X78464Y-48582D02*
X78543Y-48661D01*
X78543Y-48582D02*
X78464Y-48661D01*
X78464Y-48937D02*
X78543Y-49015D01*
X78543Y-48937D02*
X78464Y-49015D01*
X78464Y-49291D02*
X78543Y-49370D01*
X78543Y-49291D02*
X78464Y-49370D01*
X78464Y-50531D02*
X78543Y-50610D01*
X78543Y-50531D02*
X78464Y-50610D01*
X78464Y-50885D02*
X78543Y-50964D01*
X78543Y-50885D02*
X78464Y-50964D01*
X78464Y-51181D02*
X78543Y-51259D01*
X78543Y-51181D02*
X78464Y-51259D01*
X78464Y-51456D02*
X78543Y-51535D01*
X78543Y-51456D02*
X78464Y-51535D01*
X78464Y-51732D02*
X78543Y-51811D01*
X78543Y-51732D02*
X78464Y-51811D01*
X78464Y-54488D02*
X78543Y-54566D01*
X78543Y-54488D02*
X78464Y-54566D01*
X78464Y-54763D02*
X78543Y-54842D01*
X78543Y-54763D02*
X78464Y-54842D01*
X78464Y-55000D02*
X78543Y-55078D01*
X78543Y-55000D02*
X78464Y-55078D01*
X78464Y-55255D02*
X78543Y-55334D01*
X78543Y-55255D02*
X78464Y-55334D01*
X78464Y-57244D02*
X78543Y-57322D01*
X78543Y-57244D02*
X78464Y-57322D01*
X78464Y-57598D02*
X78543Y-57677D01*
X78543Y-57598D02*
X78464Y-57677D01*
X78464Y-57952D02*
X78543Y-58031D01*
X78543Y-57952D02*
X78464Y-58031D01*
X78681Y-54153D02*
X78759Y-54232D01*
X78759Y-54153D02*
X78681Y-54232D01*
X78818Y-58149D02*
X78897Y-58228D01*
X78897Y-58149D02*
X78818Y-58228D01*
X79015Y-56220D02*
X79094Y-56299D01*
X79094Y-56220D02*
X79015Y-56299D01*
X79094Y-48405D02*
X79173Y-48484D01*
X79173Y-48405D02*
X79094Y-48484D01*
X79094Y-58149D02*
X79173Y-58228D01*
X79173Y-58149D02*
X79094Y-58228D01*
X79153Y-54763D02*
X79232Y-54842D01*
X79232Y-54763D02*
X79153Y-54842D01*
X79271Y-56220D02*
X79350Y-56299D01*
X79350Y-56220D02*
X79271Y-56299D01*
X79291Y-53464D02*
X79370Y-53543D01*
X79370Y-53464D02*
X79291Y-53543D01*
X79409Y-50511D02*
X79488Y-50590D01*
X79488Y-50511D02*
X79409Y-50590D01*
X79527Y-53464D02*
X79606Y-53543D01*
X79606Y-53464D02*
X79527Y-53543D01*
X79527Y-56220D02*
X79606Y-56299D01*
X79606Y-56220D02*
X79527Y-56299D01*
X79685Y-49881D02*
X79763Y-49960D01*
X79763Y-49881D02*
X79685Y-49960D01*
X79724Y-48405D02*
X79803Y-48484D01*
X79803Y-48405D02*
X79724Y-48484D01*
X79783Y-53464D02*
X79862Y-53543D01*
X79862Y-53464D02*
X79783Y-53543D01*
X79803Y-50866D02*
X79881Y-50944D01*
X79881Y-50866D02*
X79803Y-50944D01*
X79842Y-58149D02*
X79921Y-58228D01*
X79921Y-58149D02*
X79842Y-58228D01*
G54D13*
X60951Y-63311D02*
X60951Y-62130D01*
X61232Y-62130D01*
X61401Y-62186D01*
X61513Y-62299D01*
X61570Y-62411D01*
X61626Y-62636D01*
X61626Y-62805D01*
X61570Y-63030D01*
X61513Y-63143D01*
X61401Y-63255D01*
X61232Y-63311D01*
X60951Y-63311D01*
X62132Y-63311D02*
X62132Y-62524D01*
X62132Y-62749D02*
X62188Y-62636D01*
X62244Y-62580D01*
X62357Y-62524D01*
X62469Y-62524D01*
X62863Y-63311D02*
X62863Y-62524D01*
X62863Y-62130D02*
X62807Y-62186D01*
X62863Y-62243D01*
X62919Y-62186D01*
X62863Y-62130D01*
X62863Y-62243D01*
X63594Y-63311D02*
X63482Y-63255D01*
X63426Y-63143D01*
X63426Y-62130D01*
X64213Y-63311D02*
X64100Y-63255D01*
X64044Y-63143D01*
X64044Y-62130D01*
X65563Y-63311D02*
X65563Y-62130D01*
X65957Y-62974D01*
X66350Y-62130D01*
X66350Y-63311D01*
X67419Y-63311D02*
X67419Y-62693D01*
X67363Y-62580D01*
X67250Y-62524D01*
X67025Y-62524D01*
X66913Y-62580D01*
X67419Y-63255D02*
X67306Y-63311D01*
X67025Y-63311D01*
X66913Y-63255D01*
X66856Y-63143D01*
X66856Y-63030D01*
X66913Y-62918D01*
X67025Y-62861D01*
X67306Y-62861D01*
X67419Y-62805D01*
X67981Y-62524D02*
X67981Y-63705D01*
X67981Y-62580D02*
X68094Y-62524D01*
X68319Y-62524D01*
X68431Y-62580D01*
X68487Y-62636D01*
X68544Y-62749D01*
X68544Y-63086D01*
X68487Y-63199D01*
X68431Y-63255D01*
X68319Y-63311D01*
X68094Y-63311D01*
X67981Y-63255D01*
X69050Y-63199D02*
X69106Y-63255D01*
X69050Y-63311D01*
X68994Y-63255D01*
X69050Y-63199D01*
X69050Y-63311D01*
X69050Y-62580D02*
X69106Y-62636D01*
X69050Y-62693D01*
X68994Y-62636D01*
X69050Y-62580D01*
X69050Y-62693D01*
X59804Y-65274D02*
X59882Y-65353D01*
X59882Y-65274D02*
X59804Y-65353D01*
X61176Y-64611D02*
X61288Y-64611D01*
X61401Y-64667D01*
X61457Y-64723D01*
X61513Y-64836D01*
X61570Y-65060D01*
X61570Y-65342D01*
X61513Y-65567D01*
X61457Y-65679D01*
X61401Y-65735D01*
X61288Y-65792D01*
X61176Y-65792D01*
X61063Y-65735D01*
X61007Y-65679D01*
X60951Y-65567D01*
X60895Y-65342D01*
X60895Y-65060D01*
X60951Y-64836D01*
X61007Y-64723D01*
X61063Y-64667D01*
X61176Y-64611D01*
X62076Y-65679D02*
X62132Y-65735D01*
X62076Y-65792D01*
X62019Y-65735D01*
X62076Y-65679D01*
X62076Y-65792D01*
X62582Y-64723D02*
X62638Y-64667D01*
X62751Y-64611D01*
X63032Y-64611D01*
X63144Y-64667D01*
X63201Y-64723D01*
X63257Y-64836D01*
X63257Y-64948D01*
X63201Y-65117D01*
X62526Y-65792D01*
X63257Y-65792D01*
X63988Y-64611D02*
X64100Y-64611D01*
X64213Y-64667D01*
X64269Y-64723D01*
X64325Y-64836D01*
X64382Y-65060D01*
X64382Y-65342D01*
X64325Y-65567D01*
X64269Y-65679D01*
X64213Y-65735D01*
X64100Y-65792D01*
X63988Y-65792D01*
X63876Y-65735D01*
X63819Y-65679D01*
X63763Y-65567D01*
X63707Y-65342D01*
X63707Y-65060D01*
X63763Y-64836D01*
X63819Y-64723D01*
X63876Y-64667D01*
X63988Y-64611D01*
X64888Y-65792D02*
X64888Y-65004D01*
X64888Y-65117D02*
X64944Y-65060D01*
X65057Y-65004D01*
X65225Y-65004D01*
X65338Y-65060D01*
X65394Y-65173D01*
X65394Y-65792D01*
X65394Y-65173D02*
X65450Y-65060D01*
X65563Y-65004D01*
X65732Y-65004D01*
X65844Y-65060D01*
X65900Y-65173D01*
X65900Y-65792D01*
X66463Y-65792D02*
X66463Y-65004D01*
X66463Y-65117D02*
X66519Y-65060D01*
X66631Y-65004D01*
X66800Y-65004D01*
X66913Y-65060D01*
X66969Y-65173D01*
X66969Y-65792D01*
X66969Y-65173D02*
X67025Y-65060D01*
X67138Y-65004D01*
X67306Y-65004D01*
X67419Y-65060D01*
X67475Y-65173D01*
X67475Y-65792D01*
X69781Y-64554D02*
X68769Y-66073D01*
X71300Y-64611D02*
X71412Y-64611D01*
X71525Y-64667D01*
X71581Y-64723D01*
X71637Y-64836D01*
X71693Y-65060D01*
X71693Y-65342D01*
X71637Y-65567D01*
X71581Y-65679D01*
X71525Y-65735D01*
X71412Y-65792D01*
X71300Y-65792D01*
X71187Y-65735D01*
X71131Y-65679D01*
X71075Y-65567D01*
X71018Y-65342D01*
X71018Y-65060D01*
X71075Y-64836D01*
X71131Y-64723D01*
X71187Y-64667D01*
X71300Y-64611D01*
X72199Y-65679D02*
X72256Y-65735D01*
X72199Y-65792D01*
X72143Y-65735D01*
X72199Y-65679D01*
X72199Y-65792D01*
X72987Y-64611D02*
X73099Y-64611D01*
X73212Y-64667D01*
X73268Y-64723D01*
X73324Y-64836D01*
X73381Y-65060D01*
X73381Y-65342D01*
X73324Y-65567D01*
X73268Y-65679D01*
X73212Y-65735D01*
X73099Y-65792D01*
X72987Y-65792D01*
X72874Y-65735D01*
X72818Y-65679D01*
X72762Y-65567D01*
X72706Y-65342D01*
X72706Y-65060D01*
X72762Y-64836D01*
X72818Y-64723D01*
X72874Y-64667D01*
X72987Y-64611D01*
X74112Y-64611D02*
X74224Y-64611D01*
X74337Y-64667D01*
X74393Y-64723D01*
X74449Y-64836D01*
X74505Y-65060D01*
X74505Y-65342D01*
X74449Y-65567D01*
X74393Y-65679D01*
X74337Y-65735D01*
X74224Y-65792D01*
X74112Y-65792D01*
X73999Y-65735D01*
X73943Y-65679D01*
X73887Y-65567D01*
X73831Y-65342D01*
X73831Y-65060D01*
X73887Y-64836D01*
X73943Y-64723D01*
X73999Y-64667D01*
X74112Y-64611D01*
X75180Y-65117D02*
X75068Y-65060D01*
X75012Y-65004D01*
X74955Y-64892D01*
X74955Y-64836D01*
X75012Y-64723D01*
X75068Y-64667D01*
X75180Y-64611D01*
X75405Y-64611D01*
X75518Y-64667D01*
X75574Y-64723D01*
X75630Y-64836D01*
X75630Y-64892D01*
X75574Y-65004D01*
X75518Y-65060D01*
X75405Y-65117D01*
X75180Y-65117D01*
X75068Y-65173D01*
X75012Y-65229D01*
X74955Y-65342D01*
X74955Y-65567D01*
X75012Y-65679D01*
X75068Y-65735D01*
X75180Y-65792D01*
X75405Y-65792D01*
X75518Y-65735D01*
X75574Y-65679D01*
X75630Y-65567D01*
X75630Y-65342D01*
X75574Y-65229D01*
X75518Y-65173D01*
X75405Y-65117D01*
X76080Y-64611D02*
X76080Y-64836D01*
X76530Y-64611D02*
X76530Y-64836D01*
X78274Y-66242D02*
X78217Y-66185D01*
X78105Y-66017D01*
X78049Y-65904D01*
X77992Y-65735D01*
X77936Y-65454D01*
X77936Y-65229D01*
X77992Y-64948D01*
X78049Y-64779D01*
X78105Y-64667D01*
X78217Y-64498D01*
X78274Y-64442D01*
X79230Y-65004D02*
X79230Y-65792D01*
X78949Y-64554D02*
X78667Y-65398D01*
X79399Y-65398D01*
X79736Y-64611D02*
X80467Y-64611D01*
X80073Y-65060D01*
X80242Y-65060D01*
X80355Y-65117D01*
X80411Y-65173D01*
X80467Y-65285D01*
X80467Y-65567D01*
X80411Y-65679D01*
X80355Y-65735D01*
X80242Y-65792D01*
X79905Y-65792D01*
X79792Y-65735D01*
X79736Y-65679D01*
X81480Y-64611D02*
X81255Y-64611D01*
X81142Y-64667D01*
X81086Y-64723D01*
X80973Y-64892D01*
X80917Y-65117D01*
X80917Y-65567D01*
X80973Y-65679D01*
X81030Y-65735D01*
X81142Y-65792D01*
X81367Y-65792D01*
X81480Y-65735D01*
X81536Y-65679D01*
X81592Y-65567D01*
X81592Y-65285D01*
X81536Y-65173D01*
X81480Y-65117D01*
X81367Y-65060D01*
X81142Y-65060D01*
X81030Y-65117D01*
X80973Y-65173D01*
X80917Y-65285D01*
X82998Y-65792D02*
X82998Y-64611D01*
X83504Y-65792D02*
X83504Y-65173D01*
X83448Y-65060D01*
X83336Y-65004D01*
X83167Y-65004D01*
X83054Y-65060D01*
X82998Y-65117D01*
X84235Y-65792D02*
X84123Y-65735D01*
X84067Y-65679D01*
X84010Y-65567D01*
X84010Y-65229D01*
X84067Y-65117D01*
X84123Y-65060D01*
X84235Y-65004D01*
X84404Y-65004D01*
X84517Y-65060D01*
X84573Y-65117D01*
X84629Y-65229D01*
X84629Y-65567D01*
X84573Y-65679D01*
X84517Y-65735D01*
X84404Y-65792D01*
X84235Y-65792D01*
X85304Y-65792D02*
X85192Y-65735D01*
X85135Y-65623D01*
X85135Y-64611D01*
X86204Y-65735D02*
X86091Y-65792D01*
X85867Y-65792D01*
X85754Y-65735D01*
X85698Y-65623D01*
X85698Y-65173D01*
X85754Y-65060D01*
X85867Y-65004D01*
X86091Y-65004D01*
X86204Y-65060D01*
X86260Y-65173D01*
X86260Y-65285D01*
X85698Y-65398D01*
X86710Y-65735D02*
X86823Y-65792D01*
X87048Y-65792D01*
X87160Y-65735D01*
X87216Y-65623D01*
X87216Y-65567D01*
X87160Y-65454D01*
X87048Y-65398D01*
X86879Y-65398D01*
X86766Y-65342D01*
X86710Y-65229D01*
X86710Y-65173D01*
X86766Y-65060D01*
X86879Y-65004D01*
X87048Y-65004D01*
X87160Y-65060D01*
X87610Y-66242D02*
X87666Y-66185D01*
X87779Y-66017D01*
X87835Y-65904D01*
X87891Y-65735D01*
X87948Y-65454D01*
X87948Y-65229D01*
X87891Y-64948D01*
X87835Y-64779D01*
X87779Y-64667D01*
X87666Y-64498D01*
X87610Y-64442D01*
M02*
