G04 (created by PCBNEW (2013-07-07 BZR 4022)-stable) date 19/11/2015 00:50:24*
%MOIN*%
G04 Gerber Fmt 3.4, Leading zero omitted, Abs format*
%FSLAX34Y34*%
G01*
G70*
G90*
G04 APERTURE LIST*
%ADD10C,0.00590551*%
%ADD11C,0.015748*%
%ADD12C,0.0137795*%
%ADD13C,0.00393701*%
%ADD14C,0.00787402*%
G04 APERTURE END LIST*
G54D10*
G54D11*
X69625Y-48818D03*
X68582Y-48681D03*
X67874Y-48779D03*
X69212Y-48858D03*
X71830Y-50669D03*
X71929Y-52165D03*
X71023Y-55196D03*
X71712Y-52027D03*
X72529Y-53759D03*
X68110Y-55629D03*
X67893Y-55629D03*
X70413Y-49409D03*
X74074Y-53208D03*
X63464Y-55511D03*
X64330Y-55511D03*
X65196Y-55511D03*
X68405Y-56240D03*
X73759Y-53897D03*
X71791Y-55984D03*
X73759Y-56062D03*
X68838Y-56240D03*
X69625Y-49153D03*
X71417Y-55374D03*
X67913Y-49724D03*
X72401Y-50964D03*
X73129Y-52814D03*
X75826Y-56299D03*
X78503Y-50570D03*
X78366Y-53602D03*
X77165Y-53917D03*
X76870Y-51653D03*
X77165Y-48838D03*
X65196Y-55826D03*
X64330Y-55826D03*
X63464Y-55826D03*
G54D12*
X70890Y-53264D03*
X69580Y-54313D03*
X70629Y-53789D03*
X68662Y-50249D03*
X67745Y-52216D03*
G54D11*
X63267Y-53858D03*
X63464Y-51496D03*
G54D12*
X67614Y-51036D03*
G54D11*
X63267Y-51338D03*
G54D12*
X67745Y-51167D03*
G54D11*
X63267Y-51023D03*
G54D12*
X67744Y-51691D03*
G54D11*
X63464Y-52125D03*
G54D12*
X67481Y-51691D03*
G54D11*
X65196Y-51023D03*
X66850Y-50984D03*
G54D12*
X67614Y-51298D03*
G54D11*
X63267Y-51653D03*
X63464Y-51811D03*
G54D12*
X67745Y-51429D03*
G54D11*
X63464Y-51181D03*
G54D12*
X67876Y-51560D03*
G54D11*
X66574Y-51200D03*
X64370Y-51181D03*
X65196Y-51338D03*
X66653Y-51417D03*
G54D12*
X67614Y-51560D03*
G54D11*
X63267Y-51968D03*
X66811Y-51574D03*
X64370Y-51496D03*
X63267Y-53228D03*
G54D12*
X67745Y-53527D03*
G54D11*
X64370Y-53385D03*
G54D12*
X67614Y-53396D03*
G54D11*
X63267Y-52283D03*
G54D12*
X67745Y-52740D03*
G54D11*
X63464Y-52440D03*
G54D12*
X67483Y-52740D03*
X67744Y-53264D03*
G54D11*
X63464Y-53385D03*
G54D12*
X67481Y-53264D03*
G54D11*
X65196Y-53228D03*
X63267Y-52913D03*
G54D12*
X67614Y-53133D03*
G54D11*
X63464Y-53070D03*
X66751Y-53799D03*
X63464Y-52755D03*
G54D12*
X67745Y-53002D03*
G54D11*
X66988Y-53031D03*
X64370Y-53070D03*
X63267Y-52598D03*
G54D12*
X67614Y-52871D03*
G54D11*
X65196Y-52913D03*
X66751Y-53031D03*
X66988Y-51988D03*
X65196Y-51968D03*
X66515Y-52795D03*
X65196Y-52598D03*
X66811Y-51889D03*
X64370Y-51811D03*
X64370Y-52440D03*
G54D12*
X67876Y-52609D03*
G54D11*
X63464Y-54330D03*
X67500Y-55688D03*
X65393Y-54803D03*
X67165Y-55728D03*
X66811Y-55728D03*
X63267Y-54488D03*
X63267Y-54173D03*
X66535Y-55118D03*
X75039Y-56220D03*
X75255Y-56437D03*
X76181Y-56299D03*
X74763Y-56555D03*
X78503Y-51771D03*
X78503Y-51220D03*
X78503Y-51496D03*
X78503Y-50925D03*
X78720Y-54192D03*
X78090Y-53602D03*
X78503Y-54527D03*
X76003Y-51791D03*
X73562Y-49625D03*
X73917Y-50059D03*
X74370Y-50413D03*
X75570Y-49547D03*
X75216Y-49547D03*
X76023Y-48759D03*
X71515Y-57086D03*
X71870Y-57086D03*
X72775Y-57086D03*
X71870Y-56594D03*
X72775Y-56594D03*
X74960Y-54488D03*
X75885Y-54488D03*
X75885Y-55000D03*
X74960Y-55000D03*
X74625Y-55000D03*
X64783Y-57342D03*
X64330Y-50866D03*
X63877Y-57342D03*
X63464Y-56062D03*
X65196Y-55275D03*
X65196Y-56535D03*
X64330Y-56535D03*
X63464Y-56535D03*
X63464Y-57086D03*
X63464Y-56771D03*
X64330Y-57086D03*
X64330Y-56771D03*
X65196Y-56771D03*
X65196Y-57086D03*
X65196Y-56062D03*
X65196Y-55039D03*
X63464Y-55275D03*
X63464Y-55039D03*
X63464Y-54724D03*
X63464Y-50866D03*
X64330Y-50393D03*
X63464Y-50393D03*
X64783Y-49271D03*
X63877Y-49271D03*
X64330Y-50157D03*
X63464Y-50157D03*
X65196Y-49842D03*
X63464Y-49842D03*
X64330Y-49842D03*
X63464Y-49527D03*
X64330Y-49527D03*
X65196Y-49527D03*
X67460Y-56062D03*
X66141Y-52421D03*
X71791Y-55334D03*
X66122Y-57874D03*
X65492Y-57874D03*
X66830Y-58011D03*
X66456Y-58011D03*
X69606Y-58011D03*
X68464Y-58011D03*
X69035Y-58011D03*
X72578Y-58129D03*
X71003Y-58129D03*
X75157Y-58011D03*
X74015Y-58011D03*
X74586Y-58011D03*
X77500Y-57598D03*
X76791Y-58011D03*
X77362Y-58011D03*
X77500Y-54783D03*
X78129Y-54783D03*
X77814Y-51200D03*
X78129Y-51830D03*
X77500Y-51830D03*
X78129Y-48976D03*
X78129Y-48622D03*
X73818Y-48464D03*
X72578Y-48464D03*
X71043Y-48464D03*
X66456Y-48602D03*
X65492Y-48740D03*
X66122Y-48740D03*
X78503Y-49330D03*
X78503Y-48622D03*
X79133Y-48444D03*
X79763Y-48444D03*
X78503Y-48976D03*
X79330Y-53503D03*
X79842Y-50905D03*
X79448Y-50551D03*
X79192Y-54803D03*
X78503Y-54803D03*
X78503Y-55295D03*
X78503Y-55039D03*
X79566Y-56259D03*
X78503Y-57283D03*
X78503Y-57992D03*
X79881Y-58188D03*
X78858Y-58188D03*
X79133Y-58188D03*
X78503Y-57637D03*
X68838Y-57047D03*
X72598Y-55984D03*
X77539Y-50708D03*
X76850Y-52696D03*
X76318Y-54291D03*
X75807Y-53307D03*
X76614Y-52972D03*
X76614Y-53641D03*
X76515Y-53307D03*
X77539Y-50354D03*
X76614Y-49783D03*
X76614Y-48641D03*
X76515Y-49448D03*
X76614Y-49114D03*
X66535Y-55433D03*
X65807Y-49507D03*
X65807Y-57106D03*
X65807Y-55413D03*
X65807Y-54153D03*
X65807Y-52460D03*
X66515Y-53799D03*
X66181Y-54153D03*
X74350Y-53641D03*
X74360Y-56328D03*
X75531Y-52716D03*
X74980Y-50925D03*
X74724Y-51791D03*
X75216Y-50925D03*
X67185Y-49389D03*
X69389Y-49153D03*
X68523Y-49744D03*
X67204Y-48661D03*
G54D12*
X69974Y-50511D03*
G54D11*
X69763Y-51062D03*
X69763Y-51338D03*
X69488Y-51338D03*
X70039Y-51062D03*
X70314Y-51614D03*
X70314Y-52165D03*
X70039Y-52716D03*
X70314Y-52992D03*
X70039Y-52992D03*
X69763Y-52992D03*
X69232Y-52992D03*
X68700Y-52992D03*
X68149Y-52992D03*
X68700Y-52165D03*
X68425Y-51062D03*
X68700Y-51614D03*
X68700Y-51338D03*
X68700Y-51062D03*
X69232Y-51062D03*
X68956Y-51062D03*
X69488Y-51062D03*
X68956Y-51338D03*
X69232Y-51338D03*
X68425Y-51338D03*
X70039Y-51338D03*
X70314Y-51338D03*
X70590Y-51338D03*
X70590Y-51614D03*
X70039Y-51614D03*
X69763Y-51614D03*
X68425Y-51614D03*
X69232Y-51614D03*
X68956Y-51614D03*
X69488Y-51614D03*
X69488Y-52165D03*
X68956Y-52165D03*
X69232Y-52165D03*
X68425Y-52165D03*
X69763Y-52165D03*
X70039Y-52165D03*
X70590Y-52165D03*
X70590Y-51889D03*
X70314Y-51889D03*
X70039Y-51889D03*
X69763Y-51889D03*
X68425Y-51889D03*
X68700Y-51889D03*
X69232Y-51889D03*
X68956Y-51889D03*
X69488Y-51889D03*
X69488Y-52992D03*
X68956Y-52992D03*
X68425Y-52992D03*
X70039Y-53267D03*
X69763Y-53267D03*
X68149Y-53267D03*
X68425Y-53267D03*
X68700Y-53267D03*
X69232Y-53267D03*
X68956Y-53267D03*
X69488Y-53267D03*
X69488Y-52716D03*
X68956Y-52716D03*
X69232Y-52716D03*
X68700Y-52716D03*
X68425Y-52716D03*
X69763Y-52716D03*
X70314Y-52716D03*
X70314Y-52440D03*
X70039Y-52440D03*
X69763Y-52440D03*
X68149Y-52440D03*
X68425Y-52440D03*
X68700Y-52440D03*
X69232Y-52440D03*
X68956Y-52440D03*
X69488Y-52440D03*
X72322Y-52401D03*
X71811Y-51338D03*
G54D12*
X70760Y-54182D03*
G54D11*
X71791Y-54133D03*
G54D12*
X70891Y-53789D03*
G54D11*
X68228Y-54881D03*
G54D12*
X68662Y-54182D03*
X69056Y-54313D03*
G54D11*
X71968Y-53976D03*
X69015Y-54724D03*
X69114Y-55000D03*
X69822Y-54842D03*
X71870Y-53070D03*
G54D12*
X71416Y-53527D03*
X71285Y-53133D03*
X71285Y-52871D03*
X70760Y-50774D03*
X70105Y-50642D03*
X69187Y-50774D03*
X69056Y-50642D03*
X68792Y-50380D03*
X68400Y-50249D03*
G54D11*
X67913Y-49940D03*
G54D12*
X68400Y-53920D03*
X67351Y-53396D03*
X67483Y-51167D03*
X67614Y-51822D03*
X67876Y-52085D03*
G54D11*
X67224Y-53779D03*
G54D12*
X67745Y-51953D03*
G54D11*
X64330Y-55275D03*
X77401Y-49448D03*
X65196Y-54015D03*
X77460Y-53307D03*
X65452Y-54015D03*
X63464Y-53700D03*
X66653Y-51712D03*
X65196Y-51653D03*
X66515Y-53031D03*
X64370Y-52755D03*
G54D12*
X71022Y-50249D03*
G54D11*
X79724Y-49921D03*
G54D12*
X70760Y-50249D03*
X70628Y-50380D03*
X70891Y-50118D03*
X69187Y-50511D03*
X71153Y-51429D03*
X69449Y-54444D03*
X69317Y-50380D03*
X69449Y-50249D03*
X68268Y-50380D03*
X68794Y-50642D03*
G54D11*
X70590Y-54744D03*
G54D12*
X68925Y-53920D03*
X69579Y-54051D03*
X68925Y-54182D03*
G54D11*
X72027Y-55590D03*
G54D12*
X71416Y-51167D03*
X70891Y-51167D03*
X68400Y-50774D03*
X70890Y-54051D03*
X69187Y-53920D03*
G54D11*
X68740Y-55000D03*
X68110Y-56574D03*
G54D12*
X69056Y-53789D03*
G54D11*
X66889Y-52460D03*
X66968Y-53996D03*
G54D12*
X67744Y-50905D03*
X67614Y-52085D03*
X71153Y-51167D03*
X70891Y-51429D03*
X71022Y-51036D03*
X71022Y-53658D03*
X68531Y-53789D03*
X68400Y-54182D03*
X67614Y-52609D03*
G54D11*
X66299Y-53366D03*
X66771Y-50433D03*
G54D12*
X67876Y-51298D03*
X67876Y-51822D03*
X71153Y-52740D03*
X71022Y-53396D03*
X71285Y-53658D03*
X71153Y-53002D03*
X71285Y-53396D03*
G54D11*
X72736Y-53208D03*
G54D12*
X71022Y-53133D03*
X68007Y-53789D03*
X67745Y-53789D03*
G54D11*
X79822Y-53503D03*
G54D12*
X68268Y-54051D03*
G54D11*
X79055Y-56259D03*
X79566Y-53503D03*
G54D12*
X68138Y-54182D03*
G54D11*
X79311Y-56259D03*
X71791Y-54389D03*
G54D12*
X69318Y-53789D03*
G54D11*
X63464Y-54015D03*
G54D12*
X68138Y-53920D03*
X68530Y-50380D03*
G54D11*
X65196Y-50236D03*
X65413Y-53346D03*
G54D12*
X67483Y-52216D03*
G54D11*
X64370Y-52125D03*
G54D12*
X67614Y-52347D03*
G54D11*
X65196Y-52283D03*
X65196Y-54488D03*
G54D12*
X71022Y-53920D03*
G54D11*
X63267Y-53543D03*
X67342Y-54409D03*
G54D12*
X67876Y-52347D03*
G54D13*
X64744Y-51968D02*
X63759Y-51968D01*
X67481Y-51691D02*
X67242Y-51691D01*
X64901Y-51811D02*
X64744Y-51968D01*
X65334Y-51811D02*
X64901Y-51811D01*
X66161Y-50984D02*
X65334Y-51811D01*
X66614Y-50984D02*
X66161Y-50984D01*
X66791Y-51161D02*
X66614Y-50984D01*
X66791Y-51240D02*
X66791Y-51161D01*
X67242Y-51691D02*
X66791Y-51240D01*
X63602Y-52125D02*
X63464Y-52125D01*
X63759Y-51968D02*
X63602Y-52125D01*
X63602Y-51653D02*
X63267Y-51653D01*
X64232Y-51023D02*
X63602Y-51653D01*
X67381Y-51298D02*
X67303Y-51220D01*
X67303Y-51220D02*
X67303Y-50728D01*
X67303Y-50728D02*
X67204Y-50629D01*
X67204Y-50629D02*
X65570Y-50629D01*
X65570Y-50629D02*
X65374Y-50826D01*
X65374Y-50826D02*
X65000Y-50826D01*
X65000Y-50826D02*
X64803Y-51023D01*
X67614Y-51298D02*
X67381Y-51298D01*
X64803Y-51023D02*
X64232Y-51023D01*
X63464Y-51811D02*
X63602Y-51811D01*
X64074Y-51338D02*
X63602Y-51811D01*
X67315Y-51429D02*
X67185Y-51299D01*
X67185Y-51299D02*
X67185Y-50787D01*
X67185Y-50787D02*
X67125Y-50728D01*
X67125Y-50728D02*
X65787Y-50728D01*
X65787Y-50728D02*
X65334Y-51181D01*
X65334Y-51181D02*
X64881Y-51181D01*
X64881Y-51181D02*
X64724Y-51338D01*
X67745Y-51429D02*
X67315Y-51429D01*
X64724Y-51338D02*
X64074Y-51338D01*
X63267Y-51968D02*
X63602Y-51968D01*
X63917Y-51653D02*
X63602Y-51968D01*
X67288Y-51560D02*
X67066Y-51338D01*
X67066Y-51338D02*
X67066Y-50925D01*
X67066Y-50925D02*
X66968Y-50826D01*
X66968Y-50826D02*
X66003Y-50826D01*
X66003Y-50826D02*
X65334Y-51496D01*
X65334Y-51496D02*
X64901Y-51496D01*
X64901Y-51496D02*
X64744Y-51653D01*
X67614Y-51560D02*
X67288Y-51560D01*
X64744Y-51653D02*
X63917Y-51653D01*
X64251Y-52283D02*
X63267Y-52283D01*
X67745Y-52740D02*
X67745Y-52528D01*
X64901Y-52125D02*
X64744Y-52283D01*
X65511Y-52125D02*
X64901Y-52125D01*
X65629Y-52244D02*
X65511Y-52125D01*
X67185Y-52244D02*
X65629Y-52244D01*
X67421Y-52480D02*
X67185Y-52244D01*
X67696Y-52480D02*
X67421Y-52480D01*
X67745Y-52528D02*
X67696Y-52480D01*
X64744Y-52283D02*
X64251Y-52283D01*
X64291Y-52598D02*
X64232Y-52598D01*
X67287Y-52740D02*
X67165Y-52618D01*
X67165Y-52618D02*
X65629Y-52618D01*
X65629Y-52618D02*
X65452Y-52440D01*
X65452Y-52440D02*
X64901Y-52440D01*
X64901Y-52440D02*
X64744Y-52598D01*
X67483Y-52740D02*
X67287Y-52740D01*
X64744Y-52598D02*
X64291Y-52598D01*
X64074Y-52440D02*
X63464Y-52440D01*
X64232Y-52598D02*
X64074Y-52440D01*
X63267Y-52913D02*
X63799Y-52913D01*
X64350Y-53622D02*
X64153Y-53425D01*
X64153Y-53425D02*
X64153Y-53267D01*
X67377Y-53133D02*
X66889Y-53622D01*
X66889Y-53622D02*
X64527Y-53622D01*
X67377Y-53133D02*
X67614Y-53133D01*
X64527Y-53622D02*
X64350Y-53622D01*
X63799Y-52913D02*
X64153Y-53267D01*
X63464Y-53070D02*
X63799Y-53070D01*
X64311Y-53740D02*
X64055Y-53484D01*
X64055Y-53484D02*
X64055Y-53326D01*
X66751Y-53799D02*
X66751Y-53858D01*
X66200Y-53740D02*
X64488Y-53740D01*
X66437Y-53976D02*
X66200Y-53740D01*
X66633Y-53976D02*
X66437Y-53976D01*
X66751Y-53858D02*
X66633Y-53976D01*
X64488Y-53740D02*
X64311Y-53740D01*
X63799Y-53070D02*
X64055Y-53326D01*
X64271Y-53228D02*
X63799Y-52755D01*
X67390Y-53002D02*
X66870Y-53523D01*
X66870Y-53523D02*
X65039Y-53523D01*
X65039Y-53523D02*
X64744Y-53228D01*
X64744Y-53228D02*
X64409Y-53228D01*
X67745Y-53002D02*
X67390Y-53002D01*
X64409Y-53228D02*
X64271Y-53228D01*
X63799Y-52755D02*
X63464Y-52755D01*
X64291Y-52913D02*
X63976Y-52598D01*
X67384Y-52871D02*
X67047Y-53208D01*
X67047Y-53208D02*
X65669Y-53208D01*
X65669Y-53208D02*
X65531Y-53070D01*
X65531Y-53070D02*
X64901Y-53070D01*
X64901Y-53070D02*
X64744Y-52913D01*
X67614Y-52871D02*
X67384Y-52871D01*
X64744Y-52913D02*
X64291Y-52913D01*
X63976Y-52598D02*
X63267Y-52598D01*
X65393Y-54803D02*
X65570Y-54803D01*
X65570Y-54803D02*
X65728Y-54960D01*
X65728Y-54960D02*
X66692Y-54960D01*
X67165Y-55728D02*
X67165Y-55433D01*
X66850Y-55118D02*
X66692Y-54960D01*
X67165Y-55433D02*
X66850Y-55118D01*
X64507Y-55118D02*
X64645Y-55118D01*
X65000Y-55669D02*
X66417Y-55669D01*
X64921Y-55590D02*
X65000Y-55669D01*
X64921Y-55393D02*
X64921Y-55590D01*
X64645Y-55118D02*
X64921Y-55393D01*
X66417Y-55669D02*
X66476Y-55728D01*
X63267Y-54488D02*
X63661Y-54488D01*
X66811Y-55728D02*
X66476Y-55728D01*
X64507Y-55118D02*
X64291Y-55118D01*
X64291Y-55118D02*
X63976Y-54803D01*
X63661Y-54488D02*
X63976Y-54803D01*
X65255Y-54881D02*
X64429Y-54881D01*
X64429Y-54881D02*
X64330Y-54783D01*
X66535Y-55118D02*
X65492Y-55118D01*
X65492Y-55118D02*
X65255Y-54881D01*
X63267Y-54173D02*
X63720Y-54173D01*
X64330Y-54783D02*
X64035Y-54488D01*
X63720Y-54173D02*
X64035Y-54488D01*
X64704Y-55905D02*
X64704Y-56102D01*
X65629Y-56299D02*
X65748Y-56417D01*
X64901Y-56299D02*
X65629Y-56299D01*
X64704Y-56102D02*
X64901Y-56299D01*
X64330Y-55275D02*
X64606Y-55275D01*
X64704Y-55374D02*
X64704Y-55905D01*
X64606Y-55275D02*
X64704Y-55374D01*
X77244Y-49606D02*
X77401Y-49448D01*
X65748Y-56417D02*
X66791Y-57460D01*
X66791Y-57460D02*
X75688Y-57460D01*
X75688Y-57460D02*
X77204Y-55944D01*
X77204Y-55944D02*
X77204Y-54232D01*
X77204Y-54232D02*
X77716Y-53720D01*
X77716Y-53720D02*
X77716Y-52736D01*
X77716Y-52736D02*
X77244Y-52263D01*
X77244Y-52263D02*
X77244Y-49606D01*
X65177Y-54645D02*
X65610Y-54645D01*
X65610Y-54645D02*
X65807Y-54842D01*
X74803Y-53976D02*
X76791Y-53976D01*
X76791Y-53976D02*
X77460Y-53307D01*
X65196Y-54015D02*
X64980Y-54232D01*
X73937Y-54842D02*
X74803Y-53976D01*
X71023Y-54842D02*
X73937Y-54842D01*
X70570Y-55295D02*
X71023Y-54842D01*
X67263Y-55295D02*
X70570Y-55295D01*
X66811Y-54842D02*
X67263Y-55295D01*
X65807Y-54842D02*
X66811Y-54842D01*
X65039Y-54645D02*
X65177Y-54645D01*
X64980Y-54586D02*
X65039Y-54645D01*
X64980Y-54232D02*
X64980Y-54586D01*
X63976Y-53700D02*
X64114Y-53838D01*
X64114Y-53838D02*
X65275Y-53838D01*
X65275Y-53838D02*
X65452Y-54015D01*
X63976Y-53700D02*
X63464Y-53700D01*
X79822Y-53503D02*
X79822Y-55492D01*
X79822Y-55492D02*
X79055Y-56259D01*
G54D14*
X65196Y-50236D02*
X67401Y-50236D01*
X68530Y-50406D02*
X68530Y-50380D01*
X68346Y-50590D02*
X68530Y-50406D01*
X67755Y-50590D02*
X68346Y-50590D01*
X67401Y-50236D02*
X67755Y-50590D01*
G54D13*
X65196Y-54488D02*
X65649Y-54488D01*
X65728Y-54566D02*
X69153Y-54566D01*
X65649Y-54488D02*
X65728Y-54566D01*
X71102Y-54311D02*
X71102Y-53996D01*
X70964Y-54448D02*
X71102Y-54311D01*
X69842Y-54448D02*
X70964Y-54448D01*
X69665Y-54625D02*
X69842Y-54448D01*
X69212Y-54625D02*
X69665Y-54625D01*
X69153Y-54566D02*
X69212Y-54625D01*
X71022Y-53920D02*
X71026Y-53920D01*
X71026Y-53920D02*
X71102Y-53996D01*
X67874Y-53720D02*
X67874Y-53877D01*
X67874Y-53877D02*
X67342Y-54409D01*
X67874Y-53622D02*
X67933Y-53562D01*
X67874Y-53720D02*
X67874Y-53622D01*
X67933Y-53169D02*
X67933Y-52834D01*
X67933Y-53405D02*
X67933Y-53169D01*
X68051Y-52716D02*
X68051Y-52559D01*
X68051Y-52559D02*
X67876Y-52384D01*
X67876Y-52384D02*
X67876Y-52347D01*
X67933Y-53405D02*
X67933Y-53562D01*
X67933Y-52834D02*
X68051Y-52716D01*
M02*
