G04 (created by PCBNEW (2013-07-07 BZR 4022)-stable) date 19/11/2015 00:50:25*
%MOIN*%
G04 Gerber Fmt 3.4, Leading zero omitted, Abs format*
%FSLAX34Y34*%
G01*
G70*
G90*
G04 APERTURE LIST*
%ADD10C,0.00590551*%
%ADD11C,0.00787402*%
%ADD12C,0.00984252*%
%ADD13C,0.0077*%
%ADD14C,0.0079*%
%ADD15C,0.01*%
%ADD16C,0.011811*%
%ADD17C,0.0117*%
%ADD18C,0.019685*%
%ADD19C,0.0078*%
G04 APERTURE END LIST*
G54D10*
G54D11*
X63425Y-57253D02*
X63725Y-57253D01*
X63575Y-57403D02*
X63575Y-57103D01*
X63875Y-57009D02*
X64118Y-57009D01*
X63987Y-57159D01*
X64043Y-57159D01*
X64081Y-57178D01*
X64100Y-57197D01*
X64118Y-57234D01*
X64118Y-57328D01*
X64100Y-57365D01*
X64081Y-57384D01*
X64043Y-57403D01*
X63931Y-57403D01*
X63893Y-57384D01*
X63875Y-57365D01*
X64287Y-57365D02*
X64306Y-57384D01*
X64287Y-57403D01*
X64268Y-57384D01*
X64287Y-57365D01*
X64287Y-57403D01*
X64437Y-57009D02*
X64681Y-57009D01*
X64550Y-57159D01*
X64606Y-57159D01*
X64643Y-57178D01*
X64662Y-57197D01*
X64681Y-57234D01*
X64681Y-57328D01*
X64662Y-57365D01*
X64643Y-57384D01*
X64606Y-57403D01*
X64493Y-57403D01*
X64456Y-57384D01*
X64437Y-57365D01*
X64793Y-57009D02*
X64925Y-57403D01*
X65056Y-57009D01*
G54D12*
X64514Y-51679D02*
X64514Y-51312D01*
X65065Y-51548D01*
X64514Y-50997D02*
X64514Y-50944D01*
X64540Y-50892D01*
X64566Y-50866D01*
X64619Y-50839D01*
X64724Y-50813D01*
X64855Y-50813D01*
X64960Y-50839D01*
X65013Y-50866D01*
X65039Y-50892D01*
X65065Y-50944D01*
X65065Y-50997D01*
X65039Y-51049D01*
X65013Y-51076D01*
X64960Y-51102D01*
X64855Y-51128D01*
X64724Y-51128D01*
X64619Y-51102D01*
X64566Y-51076D01*
X64540Y-51049D01*
X64514Y-50997D01*
X64514Y-50472D02*
X64514Y-50419D01*
X64540Y-50367D01*
X64566Y-50341D01*
X64619Y-50314D01*
X64724Y-50288D01*
X64855Y-50288D01*
X64960Y-50314D01*
X65013Y-50341D01*
X65039Y-50367D01*
X65065Y-50419D01*
X65065Y-50472D01*
X65039Y-50524D01*
X65013Y-50551D01*
X64960Y-50577D01*
X64855Y-50603D01*
X64724Y-50603D01*
X64619Y-50577D01*
X64566Y-50551D01*
X64540Y-50524D01*
X64514Y-50472D01*
X64566Y-50078D02*
X64540Y-50052D01*
X64514Y-50000D01*
X64514Y-49868D01*
X64540Y-49816D01*
X64566Y-49790D01*
X64619Y-49763D01*
X64671Y-49763D01*
X64750Y-49790D01*
X65065Y-50104D01*
X65065Y-49763D01*
G54D11*
X78072Y-58284D02*
X78072Y-58059D01*
X78466Y-58172D02*
X78072Y-58172D01*
X78072Y-57965D02*
X78466Y-57703D01*
X78072Y-57703D02*
X78466Y-57965D01*
X78503Y-57647D02*
X78503Y-57347D01*
X78260Y-57122D02*
X78278Y-57065D01*
X78297Y-57047D01*
X78335Y-57028D01*
X78391Y-57028D01*
X78428Y-57047D01*
X78447Y-57065D01*
X78466Y-57103D01*
X78466Y-57253D01*
X78072Y-57253D01*
X78072Y-57122D01*
X78091Y-57084D01*
X78110Y-57065D01*
X78147Y-57047D01*
X78185Y-57047D01*
X78222Y-57065D01*
X78241Y-57084D01*
X78260Y-57122D01*
X78260Y-57253D01*
X78072Y-55658D02*
X78072Y-55433D01*
X78466Y-55545D02*
X78072Y-55545D01*
X78072Y-55339D02*
X78466Y-55076D01*
X78072Y-55076D02*
X78466Y-55339D01*
X78503Y-55020D02*
X78503Y-54720D01*
X78353Y-54645D02*
X78353Y-54458D01*
X78466Y-54683D02*
X78072Y-54551D01*
X78466Y-54420D01*
X78466Y-51880D02*
X78278Y-52011D01*
X78466Y-52105D02*
X78072Y-52105D01*
X78072Y-51955D01*
X78091Y-51917D01*
X78110Y-51899D01*
X78147Y-51880D01*
X78203Y-51880D01*
X78241Y-51899D01*
X78260Y-51917D01*
X78278Y-51955D01*
X78278Y-52105D01*
X78072Y-51749D02*
X78466Y-51486D01*
X78072Y-51486D02*
X78466Y-51749D01*
X78503Y-51430D02*
X78503Y-51130D01*
X78353Y-51055D02*
X78353Y-50868D01*
X78466Y-51092D02*
X78072Y-50961D01*
X78466Y-50830D01*
X78466Y-49388D02*
X78278Y-49520D01*
X78466Y-49613D02*
X78072Y-49613D01*
X78072Y-49463D01*
X78091Y-49426D01*
X78110Y-49407D01*
X78147Y-49388D01*
X78203Y-49388D01*
X78241Y-49407D01*
X78260Y-49426D01*
X78278Y-49463D01*
X78278Y-49613D01*
X78072Y-49257D02*
X78466Y-48995D01*
X78072Y-48995D02*
X78466Y-49257D01*
X78503Y-48938D02*
X78503Y-48638D01*
X78260Y-48413D02*
X78278Y-48357D01*
X78297Y-48338D01*
X78335Y-48320D01*
X78391Y-48320D01*
X78428Y-48338D01*
X78447Y-48357D01*
X78466Y-48395D01*
X78466Y-48545D01*
X78072Y-48545D01*
X78072Y-48413D01*
X78091Y-48376D01*
X78110Y-48357D01*
X78147Y-48338D01*
X78185Y-48338D01*
X78222Y-48357D01*
X78241Y-48376D01*
X78260Y-48413D01*
X78260Y-48545D01*
G54D12*
X64798Y-49356D02*
X65060Y-49262D01*
X64798Y-49168D01*
X64704Y-49037D02*
X64685Y-49018D01*
X64667Y-48981D01*
X64667Y-48887D01*
X64685Y-48849D01*
X64704Y-48831D01*
X64742Y-48812D01*
X64779Y-48812D01*
X64835Y-48831D01*
X65060Y-49056D01*
X65060Y-48812D01*
X63792Y-52506D02*
X64160Y-52506D01*
X63792Y-52742D02*
X64081Y-52742D01*
X64133Y-52716D01*
X64160Y-52664D01*
X64160Y-52585D01*
X64133Y-52532D01*
X64107Y-52506D01*
X64160Y-52244D02*
X63608Y-52244D01*
X64002Y-52060D01*
X63608Y-51876D01*
X64160Y-51876D01*
X63792Y-51666D02*
X64160Y-51535D01*
X63792Y-51404D02*
X64160Y-51535D01*
X64291Y-51587D01*
X64317Y-51614D01*
X64343Y-51666D01*
X64160Y-51194D02*
X63792Y-51194D01*
X63897Y-51194D02*
X63845Y-51167D01*
X63818Y-51141D01*
X63792Y-51089D01*
X63792Y-51036D01*
X64160Y-50853D02*
X63792Y-50853D01*
X63608Y-50853D02*
X63635Y-50879D01*
X63661Y-50853D01*
X63635Y-50826D01*
X63608Y-50853D01*
X63661Y-50853D01*
X64160Y-50354D02*
X63871Y-50354D01*
X63818Y-50380D01*
X63792Y-50433D01*
X63792Y-50538D01*
X63818Y-50590D01*
X64133Y-50354D02*
X64160Y-50406D01*
X64160Y-50538D01*
X64133Y-50590D01*
X64081Y-50616D01*
X64028Y-50616D01*
X63976Y-50590D01*
X63950Y-50538D01*
X63950Y-50406D01*
X63923Y-50354D01*
X64160Y-49855D02*
X63608Y-49855D01*
X64133Y-49855D02*
X64160Y-49908D01*
X64160Y-50013D01*
X64133Y-50065D01*
X64107Y-50091D01*
X64055Y-50118D01*
X63897Y-50118D01*
X63845Y-50091D01*
X63818Y-50065D01*
X63792Y-50013D01*
X63792Y-49908D01*
X63818Y-49855D01*
X64160Y-49278D02*
X63897Y-49461D01*
X64160Y-49593D02*
X63608Y-49593D01*
X63608Y-49383D01*
X63635Y-49330D01*
X63661Y-49304D01*
X63713Y-49278D01*
X63792Y-49278D01*
X63845Y-49304D01*
X63871Y-49330D01*
X63897Y-49383D01*
X63897Y-49593D01*
X63871Y-48858D02*
X63871Y-49041D01*
X64160Y-49041D02*
X63608Y-49041D01*
X63608Y-48779D01*
G54D11*
X80354Y-52401D02*
X79015Y-52401D01*
X79015Y-52401D02*
X78543Y-52047D01*
X80354Y-50944D02*
X80354Y-50590D01*
X80354Y-50590D02*
X80118Y-50590D01*
X78543Y-50590D02*
X78543Y-52047D01*
X80354Y-52401D02*
X80354Y-50944D01*
X80118Y-50590D02*
X78543Y-50590D01*
X80354Y-49881D02*
X79015Y-49881D01*
X79015Y-49881D02*
X78543Y-49527D01*
X80354Y-48425D02*
X80354Y-48070D01*
X80354Y-48070D02*
X80118Y-48070D01*
X78543Y-48070D02*
X78543Y-49527D01*
X80354Y-49881D02*
X80354Y-48425D01*
X80118Y-48070D02*
X78543Y-48070D01*
X78543Y-56732D02*
X79881Y-56732D01*
X79881Y-56732D02*
X80354Y-57086D01*
X78543Y-58188D02*
X78543Y-58543D01*
X78543Y-58543D02*
X78779Y-58543D01*
X80354Y-58543D02*
X80354Y-57086D01*
X78543Y-56732D02*
X78543Y-58188D01*
X78779Y-58543D02*
X80354Y-58543D01*
X80354Y-55944D02*
X79015Y-55944D01*
X79015Y-55944D02*
X78543Y-55590D01*
X80354Y-54488D02*
X80354Y-54133D01*
X80354Y-54133D02*
X80118Y-54133D01*
X78543Y-54133D02*
X78543Y-55590D01*
X80354Y-55944D02*
X80354Y-54488D01*
X80118Y-54133D02*
X78543Y-54133D01*
G54D13*
X66988Y-55196D02*
X66988Y-55040D01*
G54D14*
X69369Y-55639D02*
X69055Y-55639D01*
X69369Y-56063D02*
X69055Y-56063D01*
X70965Y-56053D02*
X71279Y-56053D01*
X70965Y-55629D02*
X71279Y-55629D01*
G54D15*
X71783Y-54484D02*
X71783Y-49877D01*
X71783Y-49877D02*
X66980Y-49877D01*
X66980Y-49877D02*
X66980Y-54681D01*
X66980Y-54681D02*
X71547Y-54681D01*
X71547Y-54681D02*
X71783Y-54484D01*
G54D10*
X66377Y-53710D02*
X66653Y-53710D01*
X66653Y-53710D02*
X66653Y-53257D01*
X66653Y-53257D02*
X66377Y-53257D01*
X66377Y-53257D02*
X66377Y-53710D01*
X66289Y-54015D02*
X66289Y-54291D01*
X66289Y-54291D02*
X66742Y-54291D01*
X66742Y-54291D02*
X66742Y-54015D01*
X66742Y-54015D02*
X66289Y-54015D01*
X68238Y-49251D02*
X68238Y-49527D01*
X68238Y-49527D02*
X68690Y-49527D01*
X68690Y-49527D02*
X68690Y-49251D01*
X68690Y-49251D02*
X68238Y-49251D01*
X68572Y-55255D02*
X68572Y-54980D01*
X68572Y-54980D02*
X68120Y-54980D01*
X68120Y-54980D02*
X68120Y-55255D01*
X68120Y-55255D02*
X68572Y-55255D01*
X67293Y-48641D02*
X67293Y-48917D01*
X67293Y-48917D02*
X67746Y-48917D01*
X67746Y-48917D02*
X67746Y-48641D01*
X67746Y-48641D02*
X67293Y-48641D01*
X72165Y-53887D02*
X72440Y-53887D01*
X72440Y-53887D02*
X72440Y-53435D01*
X72440Y-53435D02*
X72165Y-53435D01*
X72165Y-53435D02*
X72165Y-53887D01*
X67992Y-49104D02*
X68267Y-49104D01*
X68267Y-49104D02*
X68267Y-48651D01*
X68267Y-48651D02*
X67992Y-48651D01*
X67992Y-48651D02*
X67992Y-49104D01*
X73021Y-52952D02*
X73021Y-52677D01*
X73021Y-52677D02*
X72568Y-52677D01*
X72568Y-52677D02*
X72568Y-52952D01*
X72568Y-52952D02*
X73021Y-52952D01*
X72460Y-52490D02*
X72185Y-52490D01*
X72185Y-52490D02*
X72185Y-52942D01*
X72185Y-52942D02*
X72460Y-52942D01*
X72460Y-52942D02*
X72460Y-52490D01*
X68120Y-49527D02*
X68120Y-49251D01*
X68120Y-49251D02*
X67667Y-49251D01*
X67667Y-49251D02*
X67667Y-49527D01*
X67667Y-49527D02*
X68120Y-49527D01*
X68858Y-49202D02*
X69133Y-49202D01*
X69133Y-49202D02*
X69133Y-48750D01*
X69133Y-48750D02*
X68858Y-48750D01*
X68858Y-48750D02*
X68858Y-49202D01*
X68887Y-49251D02*
X68887Y-49527D01*
X68887Y-49527D02*
X69340Y-49527D01*
X69340Y-49527D02*
X69340Y-49251D01*
X69340Y-49251D02*
X68887Y-49251D01*
X73316Y-53346D02*
X73316Y-53070D01*
X73316Y-53070D02*
X72864Y-53070D01*
X72864Y-53070D02*
X72864Y-53346D01*
X72864Y-53346D02*
X73316Y-53346D01*
G54D14*
X73455Y-54192D02*
X73455Y-53878D01*
X73031Y-54192D02*
X73031Y-53878D01*
X73041Y-55787D02*
X73041Y-56101D01*
X73465Y-55787D02*
X73465Y-56101D01*
G54D13*
X76792Y-48897D02*
X76948Y-48897D01*
X76948Y-49625D02*
X76792Y-49625D01*
X78937Y-52855D02*
X78937Y-53011D01*
X75274Y-53149D02*
X75118Y-53149D01*
X76455Y-51023D02*
X76299Y-51023D01*
X72942Y-54715D02*
X72942Y-54871D01*
X76417Y-55414D02*
X76417Y-55570D01*
G54D10*
X68523Y-48976D02*
X68641Y-48976D01*
G54D13*
X64843Y-52933D02*
X64999Y-52933D01*
G54D10*
X68464Y-55688D02*
X68346Y-55688D01*
G54D13*
X67578Y-55255D02*
X67422Y-55255D01*
X73937Y-53563D02*
X73937Y-53719D01*
X72353Y-54990D02*
X72509Y-54990D01*
X73376Y-54990D02*
X73532Y-54990D01*
X73937Y-56240D02*
X73937Y-56396D01*
X72942Y-55109D02*
X72942Y-55265D01*
X66988Y-55511D02*
X66988Y-55355D01*
X70432Y-55590D02*
X70276Y-55590D01*
X70058Y-55590D02*
X69902Y-55590D01*
X70167Y-55984D02*
X70167Y-56140D01*
X70167Y-55040D02*
X70167Y-55196D01*
X73937Y-57166D02*
X73937Y-57322D01*
X72185Y-55906D02*
X72185Y-56062D01*
X68916Y-56633D02*
X68760Y-56633D01*
G54D10*
X72421Y-53149D02*
X72421Y-53267D01*
G54D13*
X70610Y-55236D02*
X70806Y-55236D01*
X72608Y-55619D02*
X72608Y-55423D01*
X72608Y-54556D02*
X72608Y-54360D01*
X69527Y-55236D02*
X69723Y-55236D01*
X77106Y-50276D02*
X77106Y-50432D01*
G54D16*
X75724Y-52755D02*
G75*
G03X75724Y-52755I-55J0D01*
G74*
G01*
G54D11*
X75866Y-52559D02*
X75866Y-54055D01*
X75866Y-54055D02*
X77362Y-54055D01*
X77362Y-54055D02*
X77362Y-52559D01*
X77362Y-52559D02*
X75866Y-52559D01*
G54D13*
X77106Y-50630D02*
X77106Y-50786D01*
G54D17*
X75460Y-52648D02*
X75460Y-52586D01*
X73960Y-52586D02*
X73960Y-52648D01*
X73960Y-50914D02*
X73960Y-50992D01*
X73960Y-50914D02*
X75460Y-50914D01*
X75460Y-50914D02*
X75460Y-50992D01*
X73960Y-52648D02*
X75460Y-52648D01*
G54D13*
X64999Y-52106D02*
X64843Y-52106D01*
X64528Y-52933D02*
X64684Y-52933D01*
X64508Y-55649D02*
X64664Y-55649D01*
X63996Y-55649D02*
X64152Y-55649D01*
X63662Y-55649D02*
X63818Y-55649D01*
X63955Y-56535D02*
X63799Y-56535D01*
G54D11*
X64862Y-57519D02*
X64862Y-57992D01*
X63641Y-57519D02*
X63641Y-57992D01*
X63641Y-57992D02*
X64744Y-57992D01*
X64744Y-57992D02*
X64744Y-57519D01*
X64744Y-57519D02*
X63641Y-57519D01*
G54D18*
X75501Y-54005D02*
G75*
G03X75501Y-54005I-78J0D01*
G74*
G01*
G54D11*
X75856Y-55738D02*
X73730Y-55738D01*
X75856Y-54242D02*
X73730Y-54242D01*
X75856Y-54242D02*
X75856Y-55738D01*
X73730Y-55738D02*
X73730Y-54242D01*
G54D18*
X72401Y-56102D02*
G75*
G03X72401Y-56102I-78J0D01*
G74*
G01*
G54D11*
X72755Y-57834D02*
X70629Y-57834D01*
X72755Y-56338D02*
X70629Y-56338D01*
X72755Y-56338D02*
X72755Y-57834D01*
X70629Y-57834D02*
X70629Y-56338D01*
G54D18*
X76102Y-48562D02*
G75*
G03X76102Y-48562I-78J0D01*
G74*
G01*
G54D11*
X76456Y-50295D02*
X74330Y-50295D01*
X76456Y-48799D02*
X74330Y-48799D01*
X76456Y-48799D02*
X76456Y-50295D01*
X74330Y-50295D02*
X74330Y-48799D01*
G54D13*
X72933Y-49114D02*
X72933Y-49270D01*
X72933Y-48799D02*
X72933Y-48955D01*
X72283Y-49035D02*
X72479Y-49035D01*
X73386Y-49035D02*
X73582Y-49035D01*
X79133Y-53779D02*
X78977Y-53779D01*
X78798Y-53779D02*
X78642Y-53779D01*
X79350Y-53090D02*
X79546Y-53090D01*
G54D10*
X79887Y-50253D02*
X80044Y-50489D01*
X80044Y-50253D02*
X79887Y-50489D01*
X80258Y-50489D02*
X80123Y-50489D01*
X80191Y-50489D02*
X80191Y-50253D01*
X80168Y-50286D01*
X80146Y-50309D01*
X80123Y-50320D01*
X78548Y-49977D02*
X78706Y-50213D01*
X78706Y-49977D02*
X78548Y-50213D01*
X78785Y-50000D02*
X78796Y-49988D01*
X78818Y-49977D01*
X78875Y-49977D01*
X78897Y-49988D01*
X78908Y-50000D01*
X78920Y-50022D01*
X78920Y-50044D01*
X78908Y-50078D01*
X78773Y-50213D01*
X78920Y-50213D01*
X78548Y-56394D02*
X78706Y-56631D01*
X78706Y-56394D02*
X78548Y-56631D01*
X78897Y-56473D02*
X78897Y-56631D01*
X78841Y-56383D02*
X78785Y-56552D01*
X78931Y-56552D01*
X78548Y-56001D02*
X78706Y-56237D01*
X78706Y-56001D02*
X78548Y-56237D01*
X78773Y-56001D02*
X78920Y-56001D01*
X78841Y-56091D01*
X78875Y-56091D01*
X78897Y-56102D01*
X78908Y-56113D01*
X78920Y-56136D01*
X78920Y-56192D01*
X78908Y-56214D01*
X78897Y-56226D01*
X78875Y-56237D01*
X78807Y-56237D01*
X78785Y-56226D01*
X78773Y-56214D01*
X66501Y-54957D02*
X66422Y-54845D01*
X66366Y-54957D02*
X66366Y-54721D01*
X66456Y-54721D01*
X66479Y-54732D01*
X66490Y-54744D01*
X66501Y-54766D01*
X66501Y-54800D01*
X66490Y-54822D01*
X66479Y-54834D01*
X66456Y-54845D01*
X66366Y-54845D01*
X66591Y-54744D02*
X66602Y-54732D01*
X66625Y-54721D01*
X66681Y-54721D01*
X66704Y-54732D01*
X66715Y-54744D01*
X66726Y-54766D01*
X66726Y-54789D01*
X66715Y-54822D01*
X66580Y-54957D01*
X66726Y-54957D01*
X66929Y-54721D02*
X66884Y-54721D01*
X66861Y-54732D01*
X66850Y-54744D01*
X66827Y-54777D01*
X66816Y-54822D01*
X66816Y-54912D01*
X66827Y-54935D01*
X66839Y-54946D01*
X66861Y-54957D01*
X66906Y-54957D01*
X66929Y-54946D01*
X66940Y-54935D01*
X66951Y-54912D01*
X66951Y-54856D01*
X66940Y-54834D01*
X66929Y-54822D01*
X66906Y-54811D01*
X66861Y-54811D01*
X66839Y-54822D01*
X66827Y-54834D01*
X66816Y-54856D01*
G54D15*
X66075Y-50056D02*
X66075Y-50461D01*
X66099Y-50509D01*
X66123Y-50532D01*
X66170Y-50556D01*
X66266Y-50556D01*
X66313Y-50532D01*
X66337Y-50509D01*
X66361Y-50461D01*
X66361Y-50056D01*
X66861Y-50556D02*
X66575Y-50556D01*
X66718Y-50556D02*
X66718Y-50056D01*
X66670Y-50128D01*
X66623Y-50175D01*
X66575Y-50199D01*
G54D11*
X66632Y-52997D02*
X66647Y-53012D01*
X66662Y-53057D01*
X66662Y-53087D01*
X66647Y-53132D01*
X66617Y-53162D01*
X66587Y-53177D01*
X66527Y-53192D01*
X66482Y-53192D01*
X66422Y-53177D01*
X66392Y-53162D01*
X66362Y-53132D01*
X66347Y-53087D01*
X66347Y-53057D01*
X66362Y-53012D01*
X66377Y-52997D01*
X66347Y-52712D02*
X66347Y-52862D01*
X66497Y-52877D01*
X66482Y-52862D01*
X66467Y-52832D01*
X66467Y-52757D01*
X66482Y-52727D01*
X66497Y-52712D01*
X66527Y-52697D01*
X66602Y-52697D01*
X66632Y-52712D01*
X66647Y-52727D01*
X66662Y-52757D01*
X66662Y-52832D01*
X66647Y-52862D01*
X66632Y-52877D01*
X66662Y-52397D02*
X66662Y-52577D01*
X66662Y-52487D02*
X66347Y-52487D01*
X66392Y-52517D01*
X66422Y-52547D01*
X66437Y-52577D01*
X66293Y-54664D02*
X66278Y-54679D01*
X66233Y-54694D01*
X66203Y-54694D01*
X66158Y-54679D01*
X66128Y-54649D01*
X66113Y-54619D01*
X66098Y-54559D01*
X66098Y-54514D01*
X66113Y-54454D01*
X66128Y-54424D01*
X66158Y-54394D01*
X66203Y-54379D01*
X66233Y-54379D01*
X66278Y-54394D01*
X66293Y-54409D01*
X66578Y-54379D02*
X66428Y-54379D01*
X66413Y-54529D01*
X66428Y-54514D01*
X66458Y-54499D01*
X66533Y-54499D01*
X66563Y-54514D01*
X66578Y-54529D01*
X66593Y-54559D01*
X66593Y-54634D01*
X66578Y-54664D01*
X66563Y-54679D01*
X66533Y-54694D01*
X66458Y-54694D01*
X66428Y-54679D01*
X66413Y-54664D01*
X66863Y-54484D02*
X66863Y-54694D01*
X66788Y-54364D02*
X66713Y-54589D01*
X66908Y-54589D01*
X69718Y-49664D02*
X69703Y-49679D01*
X69658Y-49694D01*
X69628Y-49694D01*
X69583Y-49679D01*
X69553Y-49649D01*
X69538Y-49619D01*
X69523Y-49559D01*
X69523Y-49514D01*
X69538Y-49454D01*
X69553Y-49424D01*
X69583Y-49394D01*
X69628Y-49379D01*
X69658Y-49379D01*
X69703Y-49394D01*
X69718Y-49409D01*
X69988Y-49379D02*
X69928Y-49379D01*
X69898Y-49394D01*
X69883Y-49409D01*
X69853Y-49454D01*
X69838Y-49514D01*
X69838Y-49634D01*
X69853Y-49664D01*
X69868Y-49679D01*
X69898Y-49694D01*
X69958Y-49694D01*
X69988Y-49679D01*
X70003Y-49664D01*
X70018Y-49634D01*
X70018Y-49559D01*
X70003Y-49529D01*
X69988Y-49514D01*
X69958Y-49499D01*
X69898Y-49499D01*
X69868Y-49514D01*
X69853Y-49529D01*
X69838Y-49559D01*
X70318Y-49694D02*
X70138Y-49694D01*
X70228Y-49694D02*
X70228Y-49379D01*
X70198Y-49424D01*
X70168Y-49454D01*
X70138Y-49469D01*
G54D10*
X68194Y-55486D02*
X68183Y-55497D01*
X68149Y-55508D01*
X68127Y-55508D01*
X68093Y-55497D01*
X68070Y-55475D01*
X68059Y-55452D01*
X68048Y-55407D01*
X68048Y-55374D01*
X68059Y-55329D01*
X68070Y-55306D01*
X68093Y-55284D01*
X68127Y-55272D01*
X68149Y-55272D01*
X68183Y-55284D01*
X68194Y-55295D01*
X68408Y-55272D02*
X68295Y-55272D01*
X68284Y-55385D01*
X68295Y-55374D01*
X68318Y-55362D01*
X68374Y-55362D01*
X68397Y-55374D01*
X68408Y-55385D01*
X68419Y-55407D01*
X68419Y-55464D01*
X68408Y-55486D01*
X68397Y-55497D01*
X68374Y-55508D01*
X68318Y-55508D01*
X68295Y-55497D01*
X68284Y-55486D01*
X68622Y-55272D02*
X68577Y-55272D01*
X68554Y-55284D01*
X68543Y-55295D01*
X68520Y-55329D01*
X68509Y-55374D01*
X68509Y-55464D01*
X68520Y-55486D01*
X68532Y-55497D01*
X68554Y-55508D01*
X68599Y-55508D01*
X68622Y-55497D01*
X68633Y-55486D01*
X68644Y-55464D01*
X68644Y-55407D01*
X68633Y-55385D01*
X68622Y-55374D01*
X68599Y-55362D01*
X68554Y-55362D01*
X68532Y-55374D01*
X68520Y-55385D01*
X68509Y-55407D01*
G54D11*
X66254Y-48916D02*
X66239Y-48931D01*
X66194Y-48946D01*
X66164Y-48946D01*
X66119Y-48931D01*
X66089Y-48901D01*
X66074Y-48871D01*
X66059Y-48811D01*
X66059Y-48766D01*
X66074Y-48706D01*
X66089Y-48676D01*
X66119Y-48646D01*
X66164Y-48631D01*
X66194Y-48631D01*
X66239Y-48646D01*
X66254Y-48661D01*
X66524Y-48631D02*
X66464Y-48631D01*
X66434Y-48646D01*
X66419Y-48661D01*
X66389Y-48706D01*
X66374Y-48766D01*
X66374Y-48886D01*
X66389Y-48916D01*
X66404Y-48931D01*
X66434Y-48946D01*
X66494Y-48946D01*
X66524Y-48931D01*
X66539Y-48916D01*
X66554Y-48886D01*
X66554Y-48811D01*
X66539Y-48781D01*
X66524Y-48766D01*
X66494Y-48751D01*
X66434Y-48751D01*
X66404Y-48766D01*
X66389Y-48781D01*
X66374Y-48811D01*
X66749Y-48631D02*
X66779Y-48631D01*
X66809Y-48646D01*
X66824Y-48661D01*
X66839Y-48691D01*
X66854Y-48751D01*
X66854Y-48826D01*
X66839Y-48886D01*
X66824Y-48916D01*
X66809Y-48931D01*
X66779Y-48946D01*
X66749Y-48946D01*
X66719Y-48931D01*
X66704Y-48916D01*
X66689Y-48886D01*
X66674Y-48826D01*
X66674Y-48751D01*
X66689Y-48691D01*
X66704Y-48661D01*
X66719Y-48646D01*
X66749Y-48631D01*
X71970Y-53923D02*
X71970Y-54028D01*
X72135Y-54028D02*
X71820Y-54028D01*
X71820Y-53878D01*
X71970Y-53653D02*
X71985Y-53608D01*
X72000Y-53593D01*
X72030Y-53578D01*
X72075Y-53578D01*
X72105Y-53593D01*
X72120Y-53608D01*
X72135Y-53638D01*
X72135Y-53758D01*
X71820Y-53758D01*
X71820Y-53653D01*
X71835Y-53623D01*
X71850Y-53608D01*
X71880Y-53593D01*
X71910Y-53593D01*
X71940Y-53608D01*
X71955Y-53623D01*
X71970Y-53653D01*
X71970Y-53758D01*
X72135Y-53428D02*
X72135Y-53368D01*
X72120Y-53338D01*
X72105Y-53323D01*
X72060Y-53293D01*
X72000Y-53278D01*
X71880Y-53278D01*
X71850Y-53293D01*
X71835Y-53308D01*
X71820Y-53338D01*
X71820Y-53398D01*
X71835Y-53428D01*
X71850Y-53443D01*
X71880Y-53458D01*
X71955Y-53458D01*
X71985Y-53443D01*
X72000Y-53428D01*
X72015Y-53398D01*
X72015Y-53338D01*
X72000Y-53308D01*
X71985Y-53293D01*
X71955Y-53278D01*
X67088Y-49152D02*
X67088Y-49257D01*
X67253Y-49257D02*
X66938Y-49257D01*
X66938Y-49107D01*
X67088Y-48882D02*
X67103Y-48837D01*
X67118Y-48822D01*
X67148Y-48807D01*
X67193Y-48807D01*
X67223Y-48822D01*
X67238Y-48837D01*
X67253Y-48867D01*
X67253Y-48987D01*
X66938Y-48987D01*
X66938Y-48882D01*
X66953Y-48852D01*
X66968Y-48837D01*
X66998Y-48822D01*
X67028Y-48822D01*
X67058Y-48837D01*
X67073Y-48852D01*
X67088Y-48882D01*
X67088Y-48987D01*
X67253Y-48507D02*
X67253Y-48687D01*
X67253Y-48597D02*
X66938Y-48597D01*
X66983Y-48627D01*
X67013Y-48657D01*
X67028Y-48687D01*
X66938Y-48402D02*
X66938Y-48207D01*
X67058Y-48312D01*
X67058Y-48267D01*
X67073Y-48237D01*
X67088Y-48222D01*
X67118Y-48207D01*
X67193Y-48207D01*
X67223Y-48222D01*
X67238Y-48237D01*
X67253Y-48267D01*
X67253Y-48357D01*
X67238Y-48387D01*
X67223Y-48402D01*
X72619Y-52423D02*
X72514Y-52423D01*
X72514Y-52588D02*
X72514Y-52273D01*
X72664Y-52273D01*
X72889Y-52423D02*
X72934Y-52438D01*
X72949Y-52453D01*
X72964Y-52483D01*
X72964Y-52528D01*
X72949Y-52558D01*
X72934Y-52573D01*
X72904Y-52588D01*
X72784Y-52588D01*
X72784Y-52273D01*
X72889Y-52273D01*
X72919Y-52288D01*
X72934Y-52303D01*
X72949Y-52333D01*
X72949Y-52363D01*
X72934Y-52393D01*
X72919Y-52408D01*
X72889Y-52423D01*
X72784Y-52423D01*
X73263Y-52588D02*
X73083Y-52588D01*
X73173Y-52588D02*
X73173Y-52273D01*
X73143Y-52318D01*
X73113Y-52348D01*
X73083Y-52363D01*
X73533Y-52378D02*
X73533Y-52588D01*
X73458Y-52258D02*
X73383Y-52483D01*
X73578Y-52483D01*
X72400Y-52202D02*
X72415Y-52217D01*
X72430Y-52262D01*
X72430Y-52292D01*
X72415Y-52337D01*
X72385Y-52367D01*
X72355Y-52382D01*
X72295Y-52397D01*
X72250Y-52397D01*
X72190Y-52382D01*
X72160Y-52367D01*
X72130Y-52337D01*
X72115Y-52292D01*
X72115Y-52262D01*
X72130Y-52217D01*
X72145Y-52202D01*
X72145Y-52082D02*
X72130Y-52067D01*
X72115Y-52037D01*
X72115Y-51962D01*
X72130Y-51932D01*
X72145Y-51917D01*
X72175Y-51902D01*
X72205Y-51902D01*
X72250Y-51917D01*
X72430Y-52097D01*
X72430Y-51902D01*
X72115Y-51707D02*
X72115Y-51677D01*
X72130Y-51647D01*
X72145Y-51632D01*
X72175Y-51617D01*
X72235Y-51602D01*
X72310Y-51602D01*
X72370Y-51617D01*
X72400Y-51632D01*
X72415Y-51647D01*
X72430Y-51677D01*
X72430Y-51707D01*
X72415Y-51737D01*
X72400Y-51752D01*
X72370Y-51767D01*
X72310Y-51782D01*
X72235Y-51782D01*
X72175Y-51767D01*
X72145Y-51752D01*
X72130Y-51737D01*
X72115Y-51707D01*
X72430Y-51452D02*
X72430Y-51392D01*
X72415Y-51362D01*
X72400Y-51347D01*
X72355Y-51317D01*
X72295Y-51302D01*
X72175Y-51302D01*
X72145Y-51317D01*
X72130Y-51332D01*
X72115Y-51362D01*
X72115Y-51422D01*
X72130Y-51452D01*
X72145Y-51467D01*
X72175Y-51482D01*
X72250Y-51482D01*
X72280Y-51467D01*
X72295Y-51452D01*
X72310Y-51422D01*
X72310Y-51362D01*
X72295Y-51332D01*
X72280Y-51317D01*
X72250Y-51302D01*
X66655Y-49625D02*
X66640Y-49640D01*
X66595Y-49655D01*
X66565Y-49655D01*
X66520Y-49640D01*
X66490Y-49610D01*
X66475Y-49580D01*
X66460Y-49520D01*
X66460Y-49475D01*
X66475Y-49415D01*
X66490Y-49385D01*
X66520Y-49355D01*
X66565Y-49340D01*
X66595Y-49340D01*
X66640Y-49355D01*
X66655Y-49370D01*
X66775Y-49370D02*
X66790Y-49355D01*
X66820Y-49340D01*
X66895Y-49340D01*
X66925Y-49355D01*
X66940Y-49370D01*
X66955Y-49400D01*
X66955Y-49430D01*
X66940Y-49475D01*
X66760Y-49655D01*
X66955Y-49655D01*
X67150Y-49340D02*
X67180Y-49340D01*
X67210Y-49355D01*
X67225Y-49370D01*
X67240Y-49400D01*
X67255Y-49460D01*
X67255Y-49535D01*
X67240Y-49595D01*
X67225Y-49625D01*
X67210Y-49640D01*
X67180Y-49655D01*
X67150Y-49655D01*
X67120Y-49640D01*
X67105Y-49625D01*
X67090Y-49595D01*
X67075Y-49535D01*
X67075Y-49460D01*
X67090Y-49400D01*
X67105Y-49370D01*
X67120Y-49355D01*
X67150Y-49340D01*
X67435Y-49475D02*
X67405Y-49460D01*
X67390Y-49445D01*
X67375Y-49415D01*
X67375Y-49400D01*
X67390Y-49370D01*
X67405Y-49355D01*
X67435Y-49340D01*
X67495Y-49340D01*
X67525Y-49355D01*
X67540Y-49370D01*
X67555Y-49400D01*
X67555Y-49415D01*
X67540Y-49445D01*
X67525Y-49460D01*
X67495Y-49475D01*
X67435Y-49475D01*
X67405Y-49490D01*
X67390Y-49505D01*
X67375Y-49535D01*
X67375Y-49595D01*
X67390Y-49625D01*
X67405Y-49640D01*
X67435Y-49655D01*
X67495Y-49655D01*
X67525Y-49640D01*
X67540Y-49625D01*
X67555Y-49595D01*
X67555Y-49535D01*
X67540Y-49505D01*
X67525Y-49490D01*
X67495Y-49475D01*
X70789Y-49199D02*
X70789Y-49304D01*
X70954Y-49304D02*
X70639Y-49304D01*
X70639Y-49154D01*
X70789Y-48929D02*
X70804Y-48884D01*
X70819Y-48869D01*
X70849Y-48854D01*
X70894Y-48854D01*
X70924Y-48869D01*
X70939Y-48884D01*
X70954Y-48914D01*
X70954Y-49034D01*
X70639Y-49034D01*
X70639Y-48929D01*
X70654Y-48899D01*
X70669Y-48884D01*
X70699Y-48869D01*
X70729Y-48869D01*
X70759Y-48884D01*
X70774Y-48899D01*
X70789Y-48929D01*
X70789Y-49034D01*
X70774Y-48674D02*
X70759Y-48704D01*
X70744Y-48719D01*
X70714Y-48734D01*
X70699Y-48734D01*
X70669Y-48719D01*
X70654Y-48704D01*
X70639Y-48674D01*
X70639Y-48614D01*
X70654Y-48584D01*
X70669Y-48569D01*
X70699Y-48554D01*
X70714Y-48554D01*
X70744Y-48569D01*
X70759Y-48584D01*
X70774Y-48614D01*
X70774Y-48674D01*
X70789Y-48704D01*
X70804Y-48719D01*
X70834Y-48734D01*
X70894Y-48734D01*
X70924Y-48719D01*
X70939Y-48704D01*
X70954Y-48674D01*
X70954Y-48614D01*
X70939Y-48584D01*
X70924Y-48569D01*
X70894Y-48554D01*
X70834Y-48554D01*
X70804Y-48569D01*
X70789Y-48584D01*
X70774Y-48614D01*
X70868Y-49703D02*
X70853Y-49718D01*
X70808Y-49733D01*
X70778Y-49733D01*
X70733Y-49718D01*
X70703Y-49688D01*
X70688Y-49658D01*
X70673Y-49598D01*
X70673Y-49553D01*
X70688Y-49493D01*
X70703Y-49463D01*
X70733Y-49433D01*
X70778Y-49418D01*
X70808Y-49418D01*
X70853Y-49433D01*
X70868Y-49448D01*
X71167Y-49733D02*
X70988Y-49733D01*
X71077Y-49733D02*
X71077Y-49418D01*
X71047Y-49463D01*
X71017Y-49493D01*
X70988Y-49508D01*
X71317Y-49733D02*
X71377Y-49733D01*
X71407Y-49718D01*
X71422Y-49703D01*
X71452Y-49658D01*
X71467Y-49598D01*
X71467Y-49478D01*
X71452Y-49448D01*
X71437Y-49433D01*
X71407Y-49418D01*
X71347Y-49418D01*
X71317Y-49433D01*
X71302Y-49448D01*
X71287Y-49478D01*
X71287Y-49553D01*
X71302Y-49583D01*
X71317Y-49598D01*
X71347Y-49613D01*
X71407Y-49613D01*
X71437Y-49598D01*
X71452Y-49583D01*
X71467Y-49553D01*
X71572Y-49418D02*
X71782Y-49418D01*
X71647Y-49733D01*
X73563Y-53190D02*
X73458Y-53190D01*
X73458Y-53355D02*
X73458Y-53040D01*
X73608Y-53040D01*
X73833Y-53190D02*
X73878Y-53205D01*
X73893Y-53220D01*
X73908Y-53250D01*
X73908Y-53295D01*
X73893Y-53325D01*
X73878Y-53340D01*
X73848Y-53355D01*
X73728Y-53355D01*
X73728Y-53040D01*
X73833Y-53040D01*
X73863Y-53055D01*
X73878Y-53070D01*
X73893Y-53100D01*
X73893Y-53130D01*
X73878Y-53160D01*
X73863Y-53175D01*
X73833Y-53190D01*
X73728Y-53190D01*
X74028Y-53070D02*
X74043Y-53055D01*
X74073Y-53040D01*
X74148Y-53040D01*
X74178Y-53055D01*
X74193Y-53070D01*
X74208Y-53100D01*
X74208Y-53130D01*
X74193Y-53175D01*
X74013Y-53355D01*
X74208Y-53355D01*
X74493Y-53040D02*
X74343Y-53040D01*
X74328Y-53190D01*
X74343Y-53175D01*
X74373Y-53160D01*
X74448Y-53160D01*
X74478Y-53175D01*
X74493Y-53190D01*
X74508Y-53220D01*
X74508Y-53295D01*
X74493Y-53325D01*
X74478Y-53340D01*
X74448Y-53355D01*
X74373Y-53355D01*
X74343Y-53340D01*
X74328Y-53325D01*
X72883Y-54060D02*
X72733Y-54165D01*
X72883Y-54240D02*
X72568Y-54240D01*
X72568Y-54120D01*
X72583Y-54090D01*
X72598Y-54075D01*
X72628Y-54060D01*
X72673Y-54060D01*
X72703Y-54075D01*
X72718Y-54090D01*
X72733Y-54120D01*
X72733Y-54240D01*
X72883Y-53760D02*
X72883Y-53940D01*
X72883Y-53850D02*
X72568Y-53850D01*
X72613Y-53880D01*
X72643Y-53910D01*
X72658Y-53940D01*
X72598Y-53640D02*
X72583Y-53625D01*
X72568Y-53595D01*
X72568Y-53520D01*
X72583Y-53490D01*
X72598Y-53475D01*
X72628Y-53460D01*
X72658Y-53460D01*
X72703Y-53475D01*
X72883Y-53655D01*
X72883Y-53460D01*
X72883Y-56007D02*
X72733Y-56112D01*
X72883Y-56187D02*
X72568Y-56187D01*
X72568Y-56067D01*
X72583Y-56037D01*
X72598Y-56022D01*
X72628Y-56007D01*
X72673Y-56007D01*
X72703Y-56022D01*
X72718Y-56037D01*
X72733Y-56067D01*
X72733Y-56187D01*
X72883Y-55857D02*
X72883Y-55797D01*
X72868Y-55767D01*
X72853Y-55752D01*
X72808Y-55722D01*
X72748Y-55707D01*
X72628Y-55707D01*
X72598Y-55722D01*
X72583Y-55737D01*
X72568Y-55767D01*
X72568Y-55827D01*
X72583Y-55857D01*
X72598Y-55872D01*
X72628Y-55887D01*
X72703Y-55887D01*
X72733Y-55872D01*
X72748Y-55857D01*
X72763Y-55827D01*
X72763Y-55767D01*
X72748Y-55737D01*
X72733Y-55722D01*
X72703Y-55707D01*
X76672Y-49446D02*
X76687Y-49461D01*
X76702Y-49506D01*
X76702Y-49536D01*
X76687Y-49581D01*
X76657Y-49611D01*
X76627Y-49626D01*
X76567Y-49641D01*
X76522Y-49641D01*
X76462Y-49626D01*
X76432Y-49611D01*
X76402Y-49581D01*
X76387Y-49536D01*
X76387Y-49506D01*
X76402Y-49461D01*
X76417Y-49446D01*
X76417Y-49326D02*
X76402Y-49311D01*
X76387Y-49281D01*
X76387Y-49206D01*
X76402Y-49176D01*
X76417Y-49161D01*
X76447Y-49146D01*
X76477Y-49146D01*
X76522Y-49161D01*
X76702Y-49341D01*
X76702Y-49146D01*
X76387Y-49041D02*
X76387Y-48847D01*
X76507Y-48952D01*
X76507Y-48907D01*
X76522Y-48877D01*
X76537Y-48862D01*
X76567Y-48847D01*
X76642Y-48847D01*
X76672Y-48862D01*
X76687Y-48877D01*
X76702Y-48907D01*
X76702Y-48997D01*
X76687Y-49026D01*
X76672Y-49041D01*
X76387Y-48562D02*
X76387Y-48712D01*
X76537Y-48727D01*
X76522Y-48712D01*
X76507Y-48682D01*
X76507Y-48607D01*
X76522Y-48577D01*
X76537Y-48562D01*
X76567Y-48547D01*
X76642Y-48547D01*
X76672Y-48562D01*
X76687Y-48577D01*
X76702Y-48607D01*
X76702Y-48682D01*
X76687Y-48712D01*
X76672Y-48727D01*
X77341Y-49919D02*
X77356Y-49934D01*
X77371Y-49979D01*
X77371Y-50009D01*
X77356Y-50054D01*
X77326Y-50084D01*
X77296Y-50099D01*
X77236Y-50114D01*
X77191Y-50114D01*
X77131Y-50099D01*
X77101Y-50084D01*
X77071Y-50054D01*
X77056Y-50009D01*
X77056Y-49979D01*
X77071Y-49934D01*
X77086Y-49919D01*
X77086Y-49799D02*
X77071Y-49784D01*
X77056Y-49754D01*
X77056Y-49679D01*
X77071Y-49649D01*
X77086Y-49634D01*
X77116Y-49619D01*
X77146Y-49619D01*
X77191Y-49634D01*
X77371Y-49814D01*
X77371Y-49619D01*
X77056Y-49514D02*
X77056Y-49319D01*
X77176Y-49424D01*
X77176Y-49379D01*
X77191Y-49349D01*
X77206Y-49334D01*
X77236Y-49319D01*
X77311Y-49319D01*
X77341Y-49334D01*
X77356Y-49349D01*
X77371Y-49379D01*
X77371Y-49469D01*
X77356Y-49499D01*
X77341Y-49514D01*
X77161Y-49049D02*
X77371Y-49049D01*
X77041Y-49124D02*
X77266Y-49199D01*
X77266Y-49004D01*
X78328Y-52735D02*
X78313Y-52750D01*
X78268Y-52765D01*
X78238Y-52765D01*
X78193Y-52750D01*
X78163Y-52720D01*
X78148Y-52690D01*
X78133Y-52630D01*
X78133Y-52585D01*
X78148Y-52525D01*
X78163Y-52495D01*
X78193Y-52465D01*
X78238Y-52450D01*
X78268Y-52450D01*
X78313Y-52465D01*
X78328Y-52480D01*
X78448Y-52480D02*
X78463Y-52465D01*
X78493Y-52450D01*
X78568Y-52450D01*
X78598Y-52465D01*
X78613Y-52480D01*
X78628Y-52510D01*
X78628Y-52540D01*
X78613Y-52585D01*
X78433Y-52765D01*
X78628Y-52765D01*
X78748Y-52480D02*
X78763Y-52465D01*
X78793Y-52450D01*
X78868Y-52450D01*
X78898Y-52465D01*
X78913Y-52480D01*
X78928Y-52510D01*
X78928Y-52540D01*
X78913Y-52585D01*
X78733Y-52765D01*
X78928Y-52765D01*
X79033Y-52450D02*
X79228Y-52450D01*
X79123Y-52570D01*
X79168Y-52570D01*
X79198Y-52585D01*
X79213Y-52600D01*
X79228Y-52630D01*
X79228Y-52705D01*
X79213Y-52735D01*
X79198Y-52750D01*
X79168Y-52765D01*
X79078Y-52765D01*
X79048Y-52750D01*
X79033Y-52735D01*
X74979Y-53708D02*
X74994Y-53723D01*
X75009Y-53768D01*
X75009Y-53798D01*
X74994Y-53843D01*
X74964Y-53873D01*
X74934Y-53888D01*
X74874Y-53903D01*
X74829Y-53903D01*
X74769Y-53888D01*
X74739Y-53873D01*
X74709Y-53843D01*
X74694Y-53798D01*
X74694Y-53768D01*
X74709Y-53723D01*
X74724Y-53708D01*
X74724Y-53588D02*
X74709Y-53573D01*
X74694Y-53543D01*
X74694Y-53468D01*
X74709Y-53438D01*
X74724Y-53423D01*
X74754Y-53408D01*
X74784Y-53408D01*
X74829Y-53423D01*
X75009Y-53603D01*
X75009Y-53408D01*
X75009Y-53108D02*
X75009Y-53288D01*
X75009Y-53198D02*
X74694Y-53198D01*
X74739Y-53228D01*
X74769Y-53258D01*
X74784Y-53288D01*
X74829Y-52928D02*
X74814Y-52958D01*
X74799Y-52973D01*
X74769Y-52988D01*
X74754Y-52988D01*
X74724Y-52973D01*
X74709Y-52958D01*
X74694Y-52928D01*
X74694Y-52868D01*
X74709Y-52838D01*
X74724Y-52823D01*
X74754Y-52808D01*
X74769Y-52808D01*
X74799Y-52823D01*
X74814Y-52838D01*
X74829Y-52868D01*
X74829Y-52928D01*
X74844Y-52958D01*
X74859Y-52973D01*
X74889Y-52988D01*
X74949Y-52988D01*
X74979Y-52973D01*
X74994Y-52958D01*
X75009Y-52928D01*
X75009Y-52868D01*
X74994Y-52838D01*
X74979Y-52823D01*
X74949Y-52808D01*
X74889Y-52808D01*
X74859Y-52823D01*
X74844Y-52838D01*
X74829Y-52868D01*
X76160Y-51966D02*
X76175Y-51981D01*
X76190Y-52026D01*
X76190Y-52056D01*
X76175Y-52101D01*
X76145Y-52131D01*
X76115Y-52146D01*
X76055Y-52161D01*
X76010Y-52161D01*
X75950Y-52146D01*
X75920Y-52131D01*
X75890Y-52101D01*
X75875Y-52056D01*
X75875Y-52026D01*
X75890Y-51981D01*
X75905Y-51966D01*
X75905Y-51846D02*
X75890Y-51831D01*
X75875Y-51801D01*
X75875Y-51726D01*
X75890Y-51696D01*
X75905Y-51681D01*
X75935Y-51666D01*
X75965Y-51666D01*
X76010Y-51681D01*
X76190Y-51861D01*
X76190Y-51666D01*
X76190Y-51366D02*
X76190Y-51546D01*
X76190Y-51456D02*
X75875Y-51456D01*
X75920Y-51486D01*
X75950Y-51516D01*
X75965Y-51546D01*
X76190Y-51216D02*
X76190Y-51156D01*
X76175Y-51126D01*
X76160Y-51111D01*
X76115Y-51081D01*
X76055Y-51066D01*
X75935Y-51066D01*
X75905Y-51081D01*
X75890Y-51096D01*
X75875Y-51126D01*
X75875Y-51186D01*
X75890Y-51216D01*
X75905Y-51231D01*
X75935Y-51246D01*
X76010Y-51246D01*
X76040Y-51231D01*
X76055Y-51216D01*
X76070Y-51186D01*
X76070Y-51126D01*
X76055Y-51096D01*
X76040Y-51081D01*
X76010Y-51066D01*
X76214Y-55254D02*
X76199Y-55269D01*
X76154Y-55284D01*
X76124Y-55284D01*
X76079Y-55269D01*
X76049Y-55239D01*
X76034Y-55209D01*
X76019Y-55149D01*
X76019Y-55104D01*
X76034Y-55044D01*
X76049Y-55014D01*
X76079Y-54985D01*
X76124Y-54970D01*
X76154Y-54970D01*
X76199Y-54985D01*
X76214Y-55000D01*
X76319Y-54970D02*
X76514Y-54970D01*
X76409Y-55089D01*
X76454Y-55089D01*
X76484Y-55104D01*
X76499Y-55119D01*
X76514Y-55149D01*
X76514Y-55224D01*
X76499Y-55254D01*
X76484Y-55269D01*
X76454Y-55284D01*
X76364Y-55284D01*
X76334Y-55269D01*
X76319Y-55254D01*
X76619Y-54970D02*
X76814Y-54970D01*
X76709Y-55089D01*
X76754Y-55089D01*
X76784Y-55104D01*
X76799Y-55119D01*
X76814Y-55149D01*
X76814Y-55224D01*
X76799Y-55254D01*
X76784Y-55269D01*
X76754Y-55284D01*
X76664Y-55284D01*
X76634Y-55269D01*
X76619Y-55254D01*
X70284Y-49028D02*
X70134Y-49133D01*
X70284Y-49208D02*
X69970Y-49208D01*
X69970Y-49088D01*
X69985Y-49058D01*
X70000Y-49043D01*
X70029Y-49028D01*
X70074Y-49028D01*
X70104Y-49043D01*
X70119Y-49058D01*
X70134Y-49088D01*
X70134Y-49208D01*
X69970Y-48923D02*
X69970Y-48713D01*
X70284Y-48848D01*
X65166Y-54100D02*
X65016Y-54205D01*
X65166Y-54280D02*
X64851Y-54280D01*
X64851Y-54160D01*
X64866Y-54130D01*
X64881Y-54115D01*
X64911Y-54100D01*
X64956Y-54100D01*
X64986Y-54115D01*
X65001Y-54130D01*
X65016Y-54160D01*
X65016Y-54280D01*
X65166Y-53800D02*
X65166Y-53980D01*
X65166Y-53890D02*
X64851Y-53890D01*
X64896Y-53920D01*
X64926Y-53950D01*
X64941Y-53980D01*
X65166Y-53500D02*
X65166Y-53680D01*
X65166Y-53590D02*
X64851Y-53590D01*
X64896Y-53620D01*
X64926Y-53650D01*
X64941Y-53680D01*
X68296Y-56095D02*
X68146Y-56200D01*
X68296Y-56275D02*
X67981Y-56275D01*
X67981Y-56155D01*
X67996Y-56125D01*
X68011Y-56110D01*
X68041Y-56095D01*
X68086Y-56095D01*
X68116Y-56110D01*
X68131Y-56125D01*
X68146Y-56155D01*
X68146Y-56275D01*
X67981Y-55810D02*
X67981Y-55960D01*
X68131Y-55975D01*
X68116Y-55960D01*
X68101Y-55930D01*
X68101Y-55855D01*
X68116Y-55825D01*
X68131Y-55810D01*
X68161Y-55795D01*
X68236Y-55795D01*
X68266Y-55810D01*
X68281Y-55825D01*
X68296Y-55855D01*
X68296Y-55930D01*
X68281Y-55960D01*
X68266Y-55975D01*
X67962Y-55438D02*
X67812Y-55543D01*
X67962Y-55618D02*
X67647Y-55618D01*
X67647Y-55498D01*
X67662Y-55468D01*
X67677Y-55453D01*
X67707Y-55438D01*
X67752Y-55438D01*
X67782Y-55453D01*
X67797Y-55468D01*
X67812Y-55498D01*
X67812Y-55618D01*
X67677Y-55318D02*
X67662Y-55303D01*
X67647Y-55273D01*
X67647Y-55198D01*
X67662Y-55168D01*
X67677Y-55153D01*
X67707Y-55138D01*
X67737Y-55138D01*
X67782Y-55153D01*
X67962Y-55333D01*
X67962Y-55138D01*
X67647Y-54853D02*
X67647Y-55003D01*
X67797Y-55018D01*
X67782Y-55003D01*
X67767Y-54973D01*
X67767Y-54898D01*
X67782Y-54868D01*
X67797Y-54853D01*
X67827Y-54838D01*
X67902Y-54838D01*
X67932Y-54853D01*
X67947Y-54868D01*
X67962Y-54898D01*
X67962Y-54973D01*
X67947Y-55003D01*
X67932Y-55018D01*
X73805Y-54073D02*
X73790Y-54088D01*
X73745Y-54103D01*
X73715Y-54103D01*
X73670Y-54088D01*
X73640Y-54058D01*
X73625Y-54028D01*
X73610Y-53968D01*
X73610Y-53923D01*
X73625Y-53863D01*
X73640Y-53833D01*
X73670Y-53803D01*
X73715Y-53788D01*
X73745Y-53788D01*
X73790Y-53803D01*
X73805Y-53818D01*
X73925Y-53818D02*
X73940Y-53803D01*
X73970Y-53788D01*
X74045Y-53788D01*
X74075Y-53803D01*
X74090Y-53818D01*
X74105Y-53848D01*
X74105Y-53878D01*
X74090Y-53923D01*
X73910Y-54103D01*
X74105Y-54103D01*
X72223Y-55052D02*
X72238Y-55067D01*
X72253Y-55112D01*
X72253Y-55142D01*
X72238Y-55187D01*
X72208Y-55217D01*
X72178Y-55232D01*
X72118Y-55247D01*
X72073Y-55247D01*
X72013Y-55232D01*
X71983Y-55217D01*
X71953Y-55187D01*
X71938Y-55142D01*
X71938Y-55112D01*
X71953Y-55067D01*
X71968Y-55052D01*
X71938Y-54782D02*
X71938Y-54842D01*
X71953Y-54872D01*
X71968Y-54887D01*
X72013Y-54917D01*
X72073Y-54932D01*
X72193Y-54932D01*
X72223Y-54917D01*
X72238Y-54902D01*
X72253Y-54872D01*
X72253Y-54812D01*
X72238Y-54782D01*
X72223Y-54767D01*
X72193Y-54752D01*
X72118Y-54752D01*
X72088Y-54767D01*
X72073Y-54782D01*
X72058Y-54812D01*
X72058Y-54872D01*
X72073Y-54902D01*
X72088Y-54917D01*
X72118Y-54932D01*
X73835Y-56121D02*
X73820Y-56136D01*
X73775Y-56151D01*
X73745Y-56151D01*
X73700Y-56136D01*
X73670Y-56106D01*
X73655Y-56076D01*
X73640Y-56016D01*
X73640Y-55971D01*
X73655Y-55911D01*
X73670Y-55881D01*
X73700Y-55851D01*
X73745Y-55836D01*
X73775Y-55836D01*
X73820Y-55851D01*
X73835Y-55866D01*
X74135Y-56151D02*
X73955Y-56151D01*
X74045Y-56151D02*
X74045Y-55836D01*
X74015Y-55881D01*
X73985Y-55911D01*
X73955Y-55926D01*
X66313Y-55904D02*
X66298Y-55919D01*
X66253Y-55934D01*
X66223Y-55934D01*
X66178Y-55919D01*
X66148Y-55889D01*
X66133Y-55859D01*
X66118Y-55799D01*
X66118Y-55754D01*
X66133Y-55694D01*
X66148Y-55664D01*
X66178Y-55634D01*
X66223Y-55619D01*
X66253Y-55619D01*
X66298Y-55634D01*
X66313Y-55649D01*
X66433Y-55649D02*
X66448Y-55634D01*
X66478Y-55619D01*
X66553Y-55619D01*
X66583Y-55634D01*
X66598Y-55649D01*
X66613Y-55679D01*
X66613Y-55709D01*
X66598Y-55754D01*
X66418Y-55934D01*
X66613Y-55934D01*
X66733Y-55649D02*
X66748Y-55634D01*
X66778Y-55619D01*
X66853Y-55619D01*
X66883Y-55634D01*
X66898Y-55649D01*
X66913Y-55679D01*
X66913Y-55709D01*
X66898Y-55754D01*
X66718Y-55934D01*
X66913Y-55934D01*
X70451Y-57013D02*
X70466Y-57028D01*
X70481Y-57073D01*
X70481Y-57103D01*
X70466Y-57148D01*
X70436Y-57178D01*
X70406Y-57193D01*
X70346Y-57208D01*
X70301Y-57208D01*
X70241Y-57193D01*
X70211Y-57178D01*
X70181Y-57148D01*
X70166Y-57103D01*
X70166Y-57073D01*
X70181Y-57028D01*
X70196Y-57013D01*
X70271Y-56743D02*
X70481Y-56743D01*
X70151Y-56818D02*
X70376Y-56893D01*
X70376Y-56698D01*
X70166Y-56608D02*
X70166Y-56413D01*
X70286Y-56518D01*
X70286Y-56473D01*
X70301Y-56443D01*
X70316Y-56428D01*
X70346Y-56413D01*
X70421Y-56413D01*
X70451Y-56428D01*
X70466Y-56443D01*
X70481Y-56473D01*
X70481Y-56563D01*
X70466Y-56593D01*
X70451Y-56608D01*
X69979Y-57013D02*
X69994Y-57028D01*
X70009Y-57073D01*
X70009Y-57103D01*
X69994Y-57148D01*
X69964Y-57178D01*
X69934Y-57193D01*
X69874Y-57208D01*
X69829Y-57208D01*
X69769Y-57193D01*
X69739Y-57178D01*
X69709Y-57148D01*
X69694Y-57103D01*
X69694Y-57073D01*
X69709Y-57028D01*
X69724Y-57013D01*
X69799Y-56743D02*
X70009Y-56743D01*
X69679Y-56818D02*
X69904Y-56893D01*
X69904Y-56698D01*
X69694Y-56518D02*
X69694Y-56488D01*
X69709Y-56458D01*
X69724Y-56443D01*
X69754Y-56428D01*
X69814Y-56413D01*
X69889Y-56413D01*
X69949Y-56428D01*
X69979Y-56443D01*
X69994Y-56458D01*
X70009Y-56488D01*
X70009Y-56518D01*
X69994Y-56548D01*
X69979Y-56563D01*
X69949Y-56578D01*
X69889Y-56593D01*
X69814Y-56593D01*
X69754Y-56578D01*
X69724Y-56563D01*
X69709Y-56548D01*
X69694Y-56518D01*
X69876Y-57617D02*
X69861Y-57632D01*
X69816Y-57647D01*
X69786Y-57647D01*
X69741Y-57632D01*
X69711Y-57602D01*
X69696Y-57572D01*
X69681Y-57512D01*
X69681Y-57467D01*
X69696Y-57407D01*
X69711Y-57377D01*
X69741Y-57347D01*
X69786Y-57332D01*
X69816Y-57332D01*
X69861Y-57347D01*
X69876Y-57362D01*
X70146Y-57437D02*
X70146Y-57647D01*
X70071Y-57317D02*
X69996Y-57542D01*
X70191Y-57542D01*
X70296Y-57362D02*
X70311Y-57347D01*
X70341Y-57332D01*
X70416Y-57332D01*
X70446Y-57347D01*
X70461Y-57362D01*
X70476Y-57392D01*
X70476Y-57422D01*
X70461Y-57467D01*
X70281Y-57647D01*
X70476Y-57647D01*
G54D10*
X70005Y-54955D02*
X69994Y-54966D01*
X69960Y-54977D01*
X69938Y-54977D01*
X69904Y-54966D01*
X69881Y-54943D01*
X69870Y-54921D01*
X69859Y-54876D01*
X69859Y-54842D01*
X69870Y-54797D01*
X69881Y-54775D01*
X69904Y-54752D01*
X69938Y-54741D01*
X69960Y-54741D01*
X69994Y-54752D01*
X70005Y-54763D01*
X70208Y-54820D02*
X70208Y-54977D01*
X70151Y-54730D02*
X70095Y-54898D01*
X70241Y-54898D01*
X70455Y-54977D02*
X70320Y-54977D01*
X70388Y-54977D02*
X70388Y-54741D01*
X70365Y-54775D01*
X70343Y-54797D01*
X70320Y-54808D01*
G54D11*
X73734Y-57715D02*
X73719Y-57730D01*
X73674Y-57745D01*
X73644Y-57745D01*
X73599Y-57730D01*
X73569Y-57700D01*
X73554Y-57670D01*
X73539Y-57610D01*
X73539Y-57565D01*
X73554Y-57505D01*
X73569Y-57475D01*
X73599Y-57445D01*
X73644Y-57430D01*
X73674Y-57430D01*
X73719Y-57445D01*
X73734Y-57460D01*
X74004Y-57535D02*
X74004Y-57745D01*
X73929Y-57415D02*
X73854Y-57640D01*
X74049Y-57640D01*
X74319Y-57430D02*
X74169Y-57430D01*
X74154Y-57580D01*
X74169Y-57565D01*
X74199Y-57550D01*
X74274Y-57550D01*
X74304Y-57565D01*
X74319Y-57580D01*
X74334Y-57610D01*
X74334Y-57685D01*
X74319Y-57715D01*
X74304Y-57730D01*
X74274Y-57745D01*
X74199Y-57745D01*
X74169Y-57730D01*
X74154Y-57715D01*
X68955Y-57584D02*
X68970Y-57599D01*
X68985Y-57644D01*
X68985Y-57674D01*
X68970Y-57719D01*
X68940Y-57749D01*
X68910Y-57764D01*
X68850Y-57779D01*
X68805Y-57779D01*
X68745Y-57764D01*
X68715Y-57749D01*
X68685Y-57719D01*
X68670Y-57674D01*
X68670Y-57644D01*
X68685Y-57599D01*
X68700Y-57584D01*
X68670Y-57479D02*
X68670Y-57284D01*
X68790Y-57389D01*
X68790Y-57344D01*
X68805Y-57314D01*
X68820Y-57299D01*
X68850Y-57284D01*
X68925Y-57284D01*
X68955Y-57299D01*
X68970Y-57314D01*
X68985Y-57344D01*
X68985Y-57434D01*
X68970Y-57464D01*
X68955Y-57479D01*
X68805Y-57104D02*
X68790Y-57134D01*
X68775Y-57149D01*
X68745Y-57164D01*
X68730Y-57164D01*
X68700Y-57149D01*
X68685Y-57134D01*
X68670Y-57104D01*
X68670Y-57044D01*
X68685Y-57014D01*
X68700Y-56999D01*
X68730Y-56984D01*
X68745Y-56984D01*
X68775Y-56999D01*
X68790Y-57014D01*
X68805Y-57044D01*
X68805Y-57104D01*
X68820Y-57134D01*
X68835Y-57149D01*
X68865Y-57164D01*
X68925Y-57164D01*
X68955Y-57149D01*
X68970Y-57134D01*
X68985Y-57104D01*
X68985Y-57044D01*
X68970Y-57014D01*
X68955Y-56999D01*
X68925Y-56984D01*
X68865Y-56984D01*
X68835Y-56999D01*
X68820Y-57014D01*
X68805Y-57044D01*
G54D10*
X71777Y-53087D02*
X71698Y-52975D01*
X71642Y-53087D02*
X71642Y-52851D01*
X71732Y-52851D01*
X71754Y-52862D01*
X71766Y-52874D01*
X71777Y-52896D01*
X71777Y-52930D01*
X71766Y-52952D01*
X71754Y-52964D01*
X71732Y-52975D01*
X71642Y-52975D01*
X71979Y-52930D02*
X71979Y-53087D01*
X71923Y-52840D02*
X71867Y-53008D01*
X72013Y-53008D01*
X72080Y-52851D02*
X72227Y-52851D01*
X72148Y-52941D01*
X72182Y-52941D01*
X72204Y-52952D01*
X72215Y-52964D01*
X72227Y-52986D01*
X72227Y-53042D01*
X72215Y-53065D01*
X72204Y-53076D01*
X72182Y-53087D01*
X72114Y-53087D01*
X72092Y-53076D01*
X72080Y-53065D01*
G54D11*
X71249Y-55320D02*
X71249Y-55470D01*
X70934Y-55470D01*
X71249Y-55050D02*
X71249Y-55230D01*
X71249Y-55140D02*
X70934Y-55140D01*
X70979Y-55170D01*
X71009Y-55200D01*
X71024Y-55230D01*
X70934Y-54945D02*
X70934Y-54750D01*
X71054Y-54855D01*
X71054Y-54810D01*
X71069Y-54780D01*
X71084Y-54765D01*
X71114Y-54750D01*
X71189Y-54750D01*
X71219Y-54765D01*
X71234Y-54780D01*
X71249Y-54810D01*
X71249Y-54900D01*
X71234Y-54930D01*
X71219Y-54945D01*
X72034Y-55678D02*
X71884Y-55678D01*
X71884Y-55363D01*
X72109Y-55363D02*
X72319Y-55363D01*
X72184Y-55678D01*
X71994Y-54595D02*
X71844Y-54595D01*
X71844Y-54281D01*
X72144Y-54416D02*
X72114Y-54401D01*
X72099Y-54386D01*
X72084Y-54356D01*
X72084Y-54341D01*
X72099Y-54311D01*
X72114Y-54296D01*
X72144Y-54281D01*
X72204Y-54281D01*
X72234Y-54296D01*
X72249Y-54311D01*
X72264Y-54341D01*
X72264Y-54356D01*
X72249Y-54386D01*
X72234Y-54401D01*
X72204Y-54416D01*
X72144Y-54416D01*
X72114Y-54431D01*
X72099Y-54446D01*
X72084Y-54476D01*
X72084Y-54535D01*
X72099Y-54565D01*
X72114Y-54580D01*
X72144Y-54595D01*
X72204Y-54595D01*
X72234Y-54580D01*
X72249Y-54565D01*
X72264Y-54535D01*
X72264Y-54476D01*
X72249Y-54446D01*
X72234Y-54431D01*
X72204Y-54416D01*
X69379Y-55340D02*
X69379Y-55490D01*
X69064Y-55490D01*
X69379Y-55070D02*
X69379Y-55250D01*
X69379Y-55160D02*
X69064Y-55160D01*
X69109Y-55190D01*
X69139Y-55220D01*
X69154Y-55250D01*
X69094Y-54950D02*
X69079Y-54935D01*
X69064Y-54905D01*
X69064Y-54830D01*
X69079Y-54800D01*
X69094Y-54785D01*
X69124Y-54770D01*
X69154Y-54770D01*
X69199Y-54785D01*
X69379Y-54965D01*
X69379Y-54770D01*
X75828Y-50628D02*
X75813Y-50643D01*
X75768Y-50658D01*
X75738Y-50658D01*
X75693Y-50643D01*
X75663Y-50613D01*
X75648Y-50583D01*
X75633Y-50523D01*
X75633Y-50479D01*
X75648Y-50419D01*
X75663Y-50389D01*
X75693Y-50359D01*
X75738Y-50344D01*
X75768Y-50344D01*
X75813Y-50359D01*
X75828Y-50374D01*
X75948Y-50374D02*
X75963Y-50359D01*
X75993Y-50344D01*
X76068Y-50344D01*
X76098Y-50359D01*
X76113Y-50374D01*
X76128Y-50404D01*
X76128Y-50434D01*
X76113Y-50479D01*
X75933Y-50658D01*
X76128Y-50658D01*
X76233Y-50344D02*
X76428Y-50344D01*
X76323Y-50464D01*
X76368Y-50464D01*
X76398Y-50479D01*
X76413Y-50494D01*
X76428Y-50523D01*
X76428Y-50598D01*
X76413Y-50628D01*
X76398Y-50643D01*
X76368Y-50658D01*
X76278Y-50658D01*
X76248Y-50643D01*
X76233Y-50628D01*
X76533Y-50344D02*
X76728Y-50344D01*
X76623Y-50464D01*
X76668Y-50464D01*
X76698Y-50479D01*
X76713Y-50494D01*
X76728Y-50523D01*
X76728Y-50598D01*
X76713Y-50628D01*
X76698Y-50643D01*
X76668Y-50658D01*
X76578Y-50658D01*
X76548Y-50643D01*
X76533Y-50628D01*
X76807Y-52135D02*
X76807Y-52390D01*
X76822Y-52420D01*
X76837Y-52435D01*
X76867Y-52450D01*
X76927Y-52450D01*
X76957Y-52435D01*
X76972Y-52420D01*
X76987Y-52390D01*
X76987Y-52135D01*
X77107Y-52135D02*
X77317Y-52135D01*
X77182Y-52450D01*
X76884Y-51229D02*
X76779Y-51079D01*
X76704Y-51229D02*
X76704Y-50914D01*
X76824Y-50914D01*
X76854Y-50929D01*
X76869Y-50944D01*
X76884Y-50974D01*
X76884Y-51019D01*
X76869Y-51049D01*
X76854Y-51064D01*
X76824Y-51079D01*
X76704Y-51079D01*
X77154Y-51019D02*
X77154Y-51229D01*
X77079Y-50899D02*
X77004Y-51124D01*
X77199Y-51124D01*
X77469Y-50914D02*
X77319Y-50914D01*
X77304Y-51064D01*
X77319Y-51049D01*
X77349Y-51034D01*
X77424Y-51034D01*
X77454Y-51049D01*
X77469Y-51064D01*
X77484Y-51094D01*
X77484Y-51169D01*
X77469Y-51199D01*
X77454Y-51214D01*
X77424Y-51229D01*
X77349Y-51229D01*
X77319Y-51214D01*
X77304Y-51199D01*
G54D13*
X73034Y-51538D02*
X73034Y-51359D01*
X73426Y-51448D02*
X73034Y-51448D01*
X73034Y-51104D02*
X73034Y-51254D01*
X73221Y-51269D01*
X73202Y-51254D01*
X73183Y-51224D01*
X73183Y-51149D01*
X73202Y-51119D01*
X73221Y-51104D01*
X73258Y-51089D01*
X73351Y-51089D01*
X73389Y-51104D01*
X73407Y-51119D01*
X73426Y-51149D01*
X73426Y-51224D01*
X73407Y-51254D01*
X73389Y-51269D01*
G54D19*
X73644Y-52736D02*
X73737Y-52736D01*
X73700Y-52810D02*
X73737Y-52736D01*
X73700Y-52661D01*
X73812Y-52781D02*
X73737Y-52736D01*
X73812Y-52691D01*
G54D10*
X64741Y-52322D02*
X64628Y-52401D01*
X64741Y-52457D02*
X64505Y-52457D01*
X64505Y-52367D01*
X64516Y-52345D01*
X64527Y-52334D01*
X64550Y-52322D01*
X64583Y-52322D01*
X64606Y-52334D01*
X64617Y-52345D01*
X64628Y-52367D01*
X64628Y-52457D01*
X64741Y-52097D02*
X64741Y-52232D01*
X64741Y-52165D02*
X64505Y-52165D01*
X64538Y-52187D01*
X64561Y-52210D01*
X64572Y-52232D01*
G54D11*
X64733Y-54100D02*
X64583Y-54205D01*
X64733Y-54280D02*
X64418Y-54280D01*
X64418Y-54160D01*
X64433Y-54130D01*
X64448Y-54115D01*
X64478Y-54100D01*
X64523Y-54100D01*
X64553Y-54115D01*
X64568Y-54130D01*
X64583Y-54160D01*
X64583Y-54280D01*
X64733Y-53800D02*
X64733Y-53980D01*
X64733Y-53890D02*
X64418Y-53890D01*
X64463Y-53920D01*
X64493Y-53950D01*
X64508Y-53980D01*
X64733Y-53650D02*
X64733Y-53590D01*
X64718Y-53560D01*
X64703Y-53545D01*
X64658Y-53515D01*
X64598Y-53500D01*
X64478Y-53500D01*
X64448Y-53515D01*
X64433Y-53530D01*
X64418Y-53560D01*
X64418Y-53620D01*
X64433Y-53650D01*
X64448Y-53665D01*
X64478Y-53680D01*
X64553Y-53680D01*
X64583Y-53665D01*
X64598Y-53650D01*
X64613Y-53620D01*
X64613Y-53560D01*
X64598Y-53530D01*
X64583Y-53515D01*
X64553Y-53500D01*
X64832Y-55104D02*
X64682Y-55209D01*
X64832Y-55284D02*
X64517Y-55284D01*
X64517Y-55164D01*
X64532Y-55134D01*
X64547Y-55119D01*
X64577Y-55104D01*
X64622Y-55104D01*
X64652Y-55119D01*
X64667Y-55134D01*
X64682Y-55164D01*
X64682Y-55284D01*
X64547Y-54984D02*
X64532Y-54969D01*
X64517Y-54939D01*
X64517Y-54864D01*
X64532Y-54834D01*
X64547Y-54819D01*
X64577Y-54804D01*
X64607Y-54804D01*
X64652Y-54819D01*
X64832Y-54999D01*
X64832Y-54804D01*
X64622Y-54534D02*
X64832Y-54534D01*
X64502Y-54609D02*
X64727Y-54684D01*
X64727Y-54489D01*
X64162Y-55104D02*
X64012Y-55209D01*
X64162Y-55284D02*
X63847Y-55284D01*
X63847Y-55164D01*
X63862Y-55134D01*
X63877Y-55119D01*
X63907Y-55104D01*
X63952Y-55104D01*
X63982Y-55119D01*
X63997Y-55134D01*
X64012Y-55164D01*
X64012Y-55284D01*
X63877Y-54984D02*
X63862Y-54969D01*
X63847Y-54939D01*
X63847Y-54864D01*
X63862Y-54834D01*
X63877Y-54819D01*
X63907Y-54804D01*
X63937Y-54804D01*
X63982Y-54819D01*
X64162Y-54999D01*
X64162Y-54804D01*
X64162Y-54504D02*
X64162Y-54684D01*
X64162Y-54594D02*
X63847Y-54594D01*
X63892Y-54624D01*
X63922Y-54654D01*
X63937Y-54684D01*
X63749Y-55104D02*
X63599Y-55209D01*
X63749Y-55284D02*
X63434Y-55284D01*
X63434Y-55164D01*
X63449Y-55134D01*
X63464Y-55119D01*
X63494Y-55104D01*
X63539Y-55104D01*
X63569Y-55119D01*
X63584Y-55134D01*
X63599Y-55164D01*
X63599Y-55284D01*
X63464Y-54984D02*
X63449Y-54969D01*
X63434Y-54939D01*
X63434Y-54864D01*
X63449Y-54834D01*
X63464Y-54819D01*
X63494Y-54804D01*
X63524Y-54804D01*
X63569Y-54819D01*
X63749Y-54999D01*
X63749Y-54804D01*
X63464Y-54684D02*
X63449Y-54669D01*
X63434Y-54639D01*
X63434Y-54564D01*
X63449Y-54534D01*
X63464Y-54519D01*
X63494Y-54504D01*
X63524Y-54504D01*
X63569Y-54519D01*
X63749Y-54699D01*
X63749Y-54504D01*
X63690Y-56737D02*
X63540Y-56842D01*
X63690Y-56917D02*
X63375Y-56917D01*
X63375Y-56797D01*
X63390Y-56767D01*
X63405Y-56752D01*
X63435Y-56737D01*
X63480Y-56737D01*
X63510Y-56752D01*
X63525Y-56767D01*
X63540Y-56797D01*
X63540Y-56917D01*
X63690Y-56437D02*
X63690Y-56617D01*
X63690Y-56527D02*
X63375Y-56527D01*
X63420Y-56557D01*
X63450Y-56587D01*
X63465Y-56617D01*
X63375Y-56242D02*
X63375Y-56212D01*
X63390Y-56182D01*
X63405Y-56167D01*
X63435Y-56152D01*
X63495Y-56137D01*
X63570Y-56137D01*
X63630Y-56152D01*
X63660Y-56167D01*
X63675Y-56182D01*
X63690Y-56212D01*
X63690Y-56242D01*
X63675Y-56272D01*
X63660Y-56287D01*
X63630Y-56302D01*
X63570Y-56317D01*
X63495Y-56317D01*
X63435Y-56302D01*
X63405Y-56287D01*
X63390Y-56272D01*
X63375Y-56242D01*
X64258Y-58395D02*
X64108Y-58395D01*
X64108Y-58080D01*
X64363Y-58395D02*
X64363Y-58080D01*
X64438Y-58080D01*
X64483Y-58095D01*
X64513Y-58125D01*
X64528Y-58155D01*
X64543Y-58215D01*
X64543Y-58260D01*
X64528Y-58320D01*
X64513Y-58350D01*
X64483Y-58380D01*
X64438Y-58395D01*
X64363Y-58395D01*
X64843Y-58395D02*
X64663Y-58395D01*
X64753Y-58395D02*
X64753Y-58080D01*
X64723Y-58125D01*
X64693Y-58155D01*
X64663Y-58170D01*
X76023Y-54698D02*
X76023Y-54518D01*
X76338Y-54608D02*
X76023Y-54608D01*
X76338Y-54248D02*
X76338Y-54428D01*
X76338Y-54338D02*
X76023Y-54338D01*
X76068Y-54368D01*
X76098Y-54398D01*
X76113Y-54428D01*
X72873Y-57838D02*
X72873Y-57658D01*
X73188Y-57748D02*
X72873Y-57748D01*
X72873Y-57583D02*
X72873Y-57388D01*
X72993Y-57493D01*
X72993Y-57448D01*
X73008Y-57418D01*
X73023Y-57403D01*
X73053Y-57388D01*
X73128Y-57388D01*
X73158Y-57403D01*
X73173Y-57418D01*
X73188Y-57448D01*
X73188Y-57538D01*
X73173Y-57568D01*
X73158Y-57583D01*
X73887Y-49285D02*
X73887Y-49105D01*
X74202Y-49195D02*
X73887Y-49195D01*
X73917Y-49015D02*
X73902Y-49000D01*
X73887Y-48970D01*
X73887Y-48895D01*
X73902Y-48865D01*
X73917Y-48850D01*
X73947Y-48835D01*
X73977Y-48835D01*
X74022Y-48850D01*
X74202Y-49030D01*
X74202Y-48835D01*
X72880Y-50235D02*
X72865Y-50250D01*
X72820Y-50265D01*
X72790Y-50265D01*
X72745Y-50250D01*
X72715Y-50220D01*
X72700Y-50190D01*
X72685Y-50130D01*
X72685Y-50085D01*
X72700Y-50025D01*
X72715Y-49995D01*
X72745Y-49965D01*
X72790Y-49950D01*
X72820Y-49950D01*
X72865Y-49965D01*
X72880Y-49980D01*
X73030Y-50265D02*
X73090Y-50265D01*
X73120Y-50250D01*
X73135Y-50235D01*
X73165Y-50190D01*
X73180Y-50130D01*
X73180Y-50010D01*
X73165Y-49980D01*
X73150Y-49965D01*
X73120Y-49950D01*
X73060Y-49950D01*
X73030Y-49965D01*
X73015Y-49980D01*
X73000Y-50010D01*
X73000Y-50085D01*
X73015Y-50115D01*
X73030Y-50130D01*
X73060Y-50145D01*
X73120Y-50145D01*
X73150Y-50130D01*
X73165Y-50115D01*
X73180Y-50085D01*
X72730Y-49782D02*
X72715Y-49797D01*
X72670Y-49812D01*
X72640Y-49812D01*
X72595Y-49797D01*
X72565Y-49767D01*
X72550Y-49737D01*
X72535Y-49677D01*
X72535Y-49632D01*
X72550Y-49572D01*
X72565Y-49542D01*
X72595Y-49512D01*
X72640Y-49497D01*
X72670Y-49497D01*
X72715Y-49512D01*
X72730Y-49527D01*
X73030Y-49812D02*
X72850Y-49812D01*
X72940Y-49812D02*
X72940Y-49497D01*
X72910Y-49542D01*
X72880Y-49572D01*
X72850Y-49587D01*
X73225Y-49497D02*
X73255Y-49497D01*
X73285Y-49512D01*
X73300Y-49527D01*
X73315Y-49557D01*
X73330Y-49617D01*
X73330Y-49692D01*
X73315Y-49752D01*
X73300Y-49782D01*
X73285Y-49797D01*
X73255Y-49812D01*
X73225Y-49812D01*
X73195Y-49797D01*
X73180Y-49782D01*
X73165Y-49752D01*
X73150Y-49692D01*
X73150Y-49617D01*
X73165Y-49557D01*
X73180Y-49527D01*
X73195Y-49512D01*
X73225Y-49497D01*
X72391Y-49934D02*
X72391Y-50084D01*
X72076Y-50084D01*
X72076Y-49859D02*
X72076Y-49664D01*
X72196Y-49769D01*
X72196Y-49724D01*
X72211Y-49694D01*
X72226Y-49679D01*
X72256Y-49664D01*
X72331Y-49664D01*
X72361Y-49679D01*
X72376Y-49694D01*
X72391Y-49724D01*
X72391Y-49814D01*
X72376Y-49844D01*
X72361Y-49859D01*
X73769Y-49934D02*
X73769Y-50084D01*
X73454Y-50084D01*
X73559Y-49694D02*
X73769Y-49694D01*
X73439Y-49769D02*
X73664Y-49844D01*
X73664Y-49649D01*
G54D10*
X79462Y-53872D02*
X79474Y-53883D01*
X79485Y-53917D01*
X79485Y-53939D01*
X79474Y-53973D01*
X79451Y-53996D01*
X79429Y-54007D01*
X79384Y-54018D01*
X79350Y-54018D01*
X79305Y-54007D01*
X79282Y-53996D01*
X79260Y-53973D01*
X79249Y-53939D01*
X79249Y-53917D01*
X79260Y-53883D01*
X79271Y-53872D01*
X79485Y-53647D02*
X79485Y-53782D01*
X79485Y-53714D02*
X79249Y-53714D01*
X79282Y-53737D01*
X79305Y-53759D01*
X79316Y-53782D01*
X79249Y-53568D02*
X79249Y-53411D01*
X79485Y-53512D01*
G54D11*
X78483Y-53903D02*
X78498Y-53918D01*
X78513Y-53963D01*
X78513Y-53993D01*
X78498Y-54038D01*
X78468Y-54068D01*
X78438Y-54083D01*
X78378Y-54098D01*
X78333Y-54098D01*
X78273Y-54083D01*
X78243Y-54068D01*
X78213Y-54038D01*
X78198Y-53993D01*
X78198Y-53963D01*
X78213Y-53918D01*
X78228Y-53903D01*
X78513Y-53603D02*
X78513Y-53783D01*
X78513Y-53693D02*
X78198Y-53693D01*
X78243Y-53723D01*
X78273Y-53753D01*
X78288Y-53783D01*
X78198Y-53333D02*
X78198Y-53393D01*
X78213Y-53423D01*
X78228Y-53438D01*
X78273Y-53468D01*
X78333Y-53483D01*
X78453Y-53483D01*
X78483Y-53468D01*
X78498Y-53453D01*
X78513Y-53423D01*
X78513Y-53363D01*
X78498Y-53333D01*
X78483Y-53318D01*
X78453Y-53303D01*
X78378Y-53303D01*
X78348Y-53318D01*
X78333Y-53333D01*
X78318Y-53363D01*
X78318Y-53423D01*
X78333Y-53453D01*
X78348Y-53468D01*
X78378Y-53483D01*
X79989Y-53143D02*
X79989Y-53293D01*
X79674Y-53293D01*
X79989Y-53023D02*
X79989Y-52963D01*
X79974Y-52933D01*
X79959Y-52918D01*
X79914Y-52888D01*
X79854Y-52873D01*
X79734Y-52873D01*
X79704Y-52888D01*
X79689Y-52903D01*
X79674Y-52933D01*
X79674Y-52993D01*
X79689Y-53023D01*
X79704Y-53038D01*
X79734Y-53053D01*
X79809Y-53053D01*
X79839Y-53038D01*
X79854Y-53023D01*
X79869Y-52993D01*
X79869Y-52933D01*
X79854Y-52903D01*
X79839Y-52888D01*
X79809Y-52873D01*
M02*
