G04 (created by PCBNEW (2013-07-07 BZR 4022)-stable) date 19/11/2015 00:50:24*
%MOIN*%
G04 Gerber Fmt 3.4, Leading zero omitted, Abs format*
%FSLAX34Y34*%
G01*
G70*
G90*
G04 APERTURE LIST*
%ADD10C,0.00590551*%
%ADD11R,0.0177165X0.0570866*%
%ADD12R,0.0392X0.0392*%
%ADD13R,0.0195X0.0195*%
%ADD14R,0.0137795X0.011811*%
%ADD15R,0.011811X0.0137795*%
%ADD16R,0.0606299X0.0362205*%
%ADD17R,0.011811X0.015748*%
%ADD18R,0.023622X0.015748*%
%ADD19R,0.0649X0.0299*%
%ADD20R,0.129921X0.0393701*%
%ADD21R,0.0393701X0.129921*%
%ADD22R,0.0393701X0.102362*%
%ADD23R,0.0566929X0.00905512*%
%ADD24R,0.0649606X0.0299213*%
%ADD25R,0.0259X0.014*%
%ADD26C,0.00866142*%
%ADD27C,0.015748*%
%ADD28C,0.0137795*%
%ADD29C,0.015748*%
%ADD30C,0.00787402*%
%ADD31C,0.019685*%
%ADD32C,0.011811*%
%ADD33C,0.00393701*%
%ADD34C,0.0314961*%
%ADD35C,0.0393701*%
%ADD36C,0.0129921*%
%ADD37C,0.00984252*%
G04 APERTURE END LIST*
G54D10*
G54D11*
X79832Y-57696D03*
X79576Y-57696D03*
X79320Y-57696D03*
X79064Y-57696D03*
X79064Y-55374D03*
X79320Y-55374D03*
X79576Y-55374D03*
X79832Y-55374D03*
G54D12*
X61023Y-60629D03*
X61023Y-46062D03*
X82283Y-60629D03*
X82283Y-46062D03*
G54D13*
X67106Y-54606D03*
X67106Y-54252D03*
X66811Y-55118D03*
X66811Y-55472D03*
X67165Y-55118D03*
X67165Y-55472D03*
X76555Y-56023D03*
X76909Y-56023D03*
G54D14*
X67893Y-56348D03*
X67893Y-56564D03*
G54D11*
X79064Y-51633D03*
X79320Y-51633D03*
X79576Y-51633D03*
X79832Y-51633D03*
X79832Y-53956D03*
X79576Y-53956D03*
X79320Y-53956D03*
X79064Y-53956D03*
G54D14*
X67244Y-51840D03*
X67244Y-52057D03*
X69232Y-54084D03*
X69232Y-54301D03*
X69822Y-54045D03*
X69822Y-53828D03*
X69114Y-55423D03*
X69114Y-55206D03*
G54D15*
X67883Y-56062D03*
X67667Y-56062D03*
X69438Y-54724D03*
X69222Y-54724D03*
X66289Y-52204D03*
X66505Y-52204D03*
G54D14*
X71870Y-52844D03*
X71870Y-52627D03*
G54D15*
X70580Y-52618D03*
X70797Y-52618D03*
G54D14*
X68110Y-52037D03*
X68110Y-51820D03*
G54D15*
X68218Y-53523D03*
X68435Y-53523D03*
X69143Y-53523D03*
X69360Y-53523D03*
G54D14*
X67224Y-52765D03*
X67224Y-52549D03*
X70187Y-53730D03*
X70187Y-53513D03*
X70314Y-50383D03*
X70314Y-50167D03*
X68188Y-49891D03*
X68188Y-49675D03*
G54D15*
X70068Y-48818D03*
X69852Y-48818D03*
G54D14*
X69744Y-49596D03*
X69744Y-49379D03*
G54D15*
X72293Y-55511D03*
X72509Y-55511D03*
G54D14*
X68740Y-55206D03*
X68740Y-55423D03*
X70590Y-54950D03*
X70590Y-55167D03*
X70187Y-54438D03*
X70187Y-54655D03*
G54D15*
X72175Y-50964D03*
X71958Y-50964D03*
G54D14*
X71653Y-51190D03*
X71653Y-50974D03*
G54D15*
X71624Y-53897D03*
X71407Y-53897D03*
X72312Y-53956D03*
X72529Y-53956D03*
G54D14*
X71968Y-53769D03*
X71968Y-53553D03*
X71023Y-54911D03*
X71023Y-54694D03*
G54D15*
X70797Y-54448D03*
X71013Y-54448D03*
G54D14*
X67893Y-55423D03*
X67893Y-55206D03*
G54D15*
X71624Y-50669D03*
X71407Y-50669D03*
X70935Y-50767D03*
X71151Y-50767D03*
G54D14*
X69744Y-50659D03*
X69744Y-50875D03*
G54D15*
X69694Y-50255D03*
X69911Y-50255D03*
X68120Y-50216D03*
X67903Y-50216D03*
X70639Y-51082D03*
X70423Y-51082D03*
X71407Y-51673D03*
X71624Y-51673D03*
X71072Y-51673D03*
X70856Y-51673D03*
G54D14*
X67539Y-50423D03*
X67539Y-50206D03*
X68110Y-50777D03*
X68110Y-50994D03*
X69409Y-50659D03*
X69409Y-50875D03*
G54D15*
X69124Y-49586D03*
X69340Y-49586D03*
G54D14*
X71417Y-54498D03*
X71417Y-54281D03*
X68110Y-51505D03*
X68110Y-51289D03*
X67244Y-51072D03*
X67244Y-50856D03*
X68622Y-50659D03*
X68622Y-50875D03*
G54D15*
X68553Y-49940D03*
X68769Y-49940D03*
G54D14*
X68779Y-49379D03*
X68779Y-49596D03*
G54D15*
X70088Y-49173D03*
X70305Y-49173D03*
X71151Y-52263D03*
X70935Y-52263D03*
X71702Y-52263D03*
X71486Y-52263D03*
X70580Y-52992D03*
X70797Y-52992D03*
G54D14*
X69822Y-54438D03*
X69822Y-54655D03*
X68799Y-53730D03*
X68799Y-53513D03*
G54D15*
X68809Y-54468D03*
X68592Y-54468D03*
X68297Y-54606D03*
X68080Y-54606D03*
G54D13*
X76870Y-52263D03*
X76870Y-51909D03*
X75157Y-49055D03*
X75511Y-49055D03*
X76909Y-54291D03*
X76555Y-54291D03*
X76850Y-53306D03*
X76850Y-52952D03*
G54D14*
X71535Y-52923D03*
X71535Y-52706D03*
G54D13*
X66771Y-50177D03*
X66771Y-49823D03*
G54D14*
X69448Y-55344D03*
X69448Y-55127D03*
G54D13*
X71791Y-54744D03*
X71791Y-55098D03*
X66692Y-54606D03*
X66692Y-54252D03*
G54D15*
X70265Y-54015D03*
X70482Y-54015D03*
G54D13*
X79822Y-54803D03*
X79468Y-54803D03*
X78641Y-53307D03*
X78287Y-53307D03*
X79074Y-54527D03*
X78720Y-54527D03*
G54D14*
X69133Y-49931D03*
X69133Y-50147D03*
G54D15*
X72312Y-53562D03*
X72529Y-53562D03*
G54D14*
X70629Y-53316D03*
X70629Y-53533D03*
G54D13*
X76555Y-56437D03*
X76909Y-56437D03*
X78760Y-49921D03*
X79114Y-49921D03*
X76062Y-50806D03*
X76062Y-50452D03*
X76909Y-53917D03*
X76555Y-53917D03*
G54D16*
X76515Y-49448D03*
G54D17*
X76614Y-48877D03*
X76614Y-50019D03*
G54D18*
X77165Y-49822D03*
X77165Y-49448D03*
X77165Y-49074D03*
X76062Y-49074D03*
X76062Y-49448D03*
X76062Y-49822D03*
G54D19*
X75526Y-51790D03*
X74275Y-51290D03*
X74275Y-51790D03*
X74275Y-52290D03*
X75526Y-52290D03*
X75526Y-51290D03*
G54D20*
X71811Y-48287D03*
X71811Y-58326D03*
X77362Y-48287D03*
G54D21*
X77814Y-48740D03*
G54D20*
X66259Y-48287D03*
G54D21*
X65807Y-48740D03*
X77814Y-57874D03*
G54D20*
X77362Y-58326D03*
X66259Y-58326D03*
G54D21*
X65807Y-57874D03*
G54D20*
X74586Y-58326D03*
X69035Y-58326D03*
X69035Y-48287D03*
G54D22*
X65807Y-54783D03*
X65807Y-51830D03*
X77814Y-54783D03*
X77814Y-51830D03*
G54D20*
X74586Y-48287D03*
G54D23*
X64791Y-53543D03*
X64791Y-53858D03*
X64791Y-53700D03*
X64791Y-54015D03*
X64791Y-54645D03*
X64791Y-54488D03*
X64791Y-54173D03*
X64791Y-54330D03*
X64791Y-55905D03*
X64791Y-55748D03*
X64791Y-55433D03*
X64791Y-55590D03*
X64791Y-54960D03*
X64791Y-54803D03*
X64791Y-55118D03*
X64791Y-55275D03*
X64791Y-56535D03*
X64791Y-56377D03*
X64791Y-56062D03*
X64791Y-56220D03*
X64791Y-56850D03*
X64791Y-56692D03*
X64791Y-57007D03*
X64791Y-57165D03*
X63870Y-55433D03*
X63870Y-55275D03*
X63870Y-54960D03*
X63870Y-55118D03*
X63870Y-56692D03*
X63870Y-56535D03*
X63870Y-56220D03*
X63870Y-56377D03*
X63870Y-55748D03*
X63870Y-55590D03*
X63870Y-55905D03*
X63870Y-56062D03*
X63870Y-57165D03*
X63870Y-56850D03*
X63870Y-57007D03*
X64791Y-53385D03*
X63870Y-54488D03*
X63870Y-54330D03*
X63870Y-54015D03*
X63870Y-54173D03*
X63870Y-54803D03*
X63870Y-54645D03*
X63870Y-53543D03*
X63870Y-53385D03*
X63870Y-53700D03*
X63870Y-53858D03*
X63870Y-50078D03*
X63870Y-49921D03*
X63870Y-49606D03*
X63870Y-49763D03*
X64791Y-50078D03*
X64791Y-49921D03*
X64791Y-49606D03*
X64791Y-49763D03*
X64791Y-49448D03*
X63870Y-49448D03*
X63870Y-50708D03*
X63870Y-50551D03*
X63870Y-50236D03*
X63870Y-50393D03*
X64791Y-50708D03*
X64791Y-50551D03*
X64791Y-50236D03*
X64791Y-50393D03*
X63870Y-51968D03*
X63870Y-51811D03*
X63870Y-51496D03*
X63870Y-51653D03*
X64791Y-51968D03*
X64791Y-51811D03*
X64791Y-51496D03*
X64791Y-51653D03*
X64791Y-51023D03*
X64791Y-50866D03*
X64791Y-51181D03*
X64791Y-51338D03*
X63870Y-51023D03*
X63870Y-50866D03*
X63870Y-51181D03*
X63870Y-51338D03*
X63870Y-52598D03*
X63870Y-52440D03*
X63870Y-52125D03*
X63870Y-52283D03*
X64791Y-52598D03*
X64791Y-52440D03*
X64791Y-52125D03*
X64791Y-52283D03*
X64791Y-52913D03*
X64791Y-52755D03*
X64791Y-53070D03*
X64791Y-53228D03*
X63870Y-52913D03*
X63870Y-52755D03*
X63870Y-53070D03*
X63870Y-53228D03*
G54D24*
X73124Y-49057D03*
X73124Y-50057D03*
X74375Y-49057D03*
X74375Y-50057D03*
X74375Y-49557D03*
X73124Y-49557D03*
G54D13*
X71614Y-49468D03*
X71968Y-49468D03*
X71614Y-49153D03*
X71968Y-49153D03*
G54D25*
X71240Y-49481D03*
X71240Y-49141D03*
X72342Y-49481D03*
X72342Y-49141D03*
G54D13*
X79114Y-50571D03*
X79114Y-50925D03*
X78779Y-50571D03*
X78779Y-50925D03*
G54D25*
X79448Y-50268D03*
X79448Y-49928D03*
G54D13*
X75826Y-56062D03*
X76180Y-56062D03*
X74763Y-55964D03*
X74763Y-56318D03*
X74409Y-55610D03*
X74763Y-55610D03*
G54D26*
X75255Y-56062D03*
X75255Y-56220D03*
X75413Y-56220D03*
X75413Y-56062D03*
G54D27*
X69625Y-48818D03*
X68582Y-48681D03*
X67874Y-48779D03*
X69212Y-48858D03*
X71830Y-50669D03*
X71929Y-52165D03*
X71023Y-55196D03*
X71712Y-52027D03*
X72529Y-53759D03*
X68110Y-55629D03*
X67893Y-55629D03*
X70413Y-49409D03*
X74074Y-53208D03*
X63464Y-55511D03*
X64330Y-55511D03*
X65196Y-55511D03*
X68405Y-56240D03*
X73759Y-53897D03*
X71791Y-55984D03*
X73759Y-56062D03*
X68838Y-56240D03*
X69625Y-49153D03*
X71417Y-55374D03*
X67913Y-49724D03*
X72401Y-50964D03*
X73129Y-52814D03*
X75826Y-56299D03*
X78503Y-50570D03*
X78366Y-53602D03*
X77165Y-53917D03*
X76870Y-51653D03*
X77165Y-48838D03*
X65196Y-55826D03*
X64330Y-55826D03*
X63464Y-55826D03*
G54D28*
X70890Y-53264D03*
X69580Y-54313D03*
X70629Y-53789D03*
X68662Y-50249D03*
X67745Y-52216D03*
G54D27*
X63267Y-53858D03*
X63464Y-51496D03*
G54D28*
X67614Y-51036D03*
G54D27*
X63267Y-51338D03*
G54D28*
X67745Y-51167D03*
G54D27*
X63267Y-51023D03*
G54D28*
X67744Y-51691D03*
G54D27*
X63464Y-52125D03*
G54D28*
X67481Y-51691D03*
G54D27*
X65196Y-51023D03*
X66850Y-50984D03*
G54D28*
X67614Y-51298D03*
G54D27*
X63267Y-51653D03*
X63464Y-51811D03*
G54D28*
X67745Y-51429D03*
G54D27*
X63464Y-51181D03*
G54D28*
X67876Y-51560D03*
G54D27*
X66574Y-51200D03*
X64370Y-51181D03*
X65196Y-51338D03*
X66653Y-51417D03*
G54D28*
X67614Y-51560D03*
G54D27*
X63267Y-51968D03*
X66811Y-51574D03*
X64370Y-51496D03*
X63267Y-53228D03*
G54D28*
X67745Y-53527D03*
G54D27*
X64370Y-53385D03*
G54D28*
X67614Y-53396D03*
G54D27*
X63267Y-52283D03*
G54D28*
X67745Y-52740D03*
G54D27*
X63464Y-52440D03*
G54D28*
X67483Y-52740D03*
X67744Y-53264D03*
G54D27*
X63464Y-53385D03*
G54D28*
X67481Y-53264D03*
G54D27*
X65196Y-53228D03*
X63267Y-52913D03*
G54D28*
X67614Y-53133D03*
G54D27*
X63464Y-53070D03*
X66751Y-53799D03*
X63464Y-52755D03*
G54D28*
X67745Y-53002D03*
G54D27*
X66988Y-53031D03*
X64370Y-53070D03*
X63267Y-52598D03*
G54D28*
X67614Y-52871D03*
G54D27*
X65196Y-52913D03*
X66751Y-53031D03*
X66988Y-51988D03*
X65196Y-51968D03*
X66515Y-52795D03*
X65196Y-52598D03*
X66811Y-51889D03*
X64370Y-51811D03*
X64370Y-52440D03*
G54D28*
X67876Y-52609D03*
G54D27*
X63464Y-54330D03*
X67500Y-55688D03*
X65393Y-54803D03*
X67165Y-55728D03*
X66811Y-55728D03*
X63267Y-54488D03*
X63267Y-54173D03*
X66535Y-55118D03*
X75039Y-56220D03*
X75255Y-56437D03*
X76181Y-56299D03*
X74763Y-56555D03*
X78503Y-51771D03*
X78503Y-51220D03*
X78503Y-51496D03*
X78503Y-50925D03*
X78720Y-54192D03*
X78090Y-53602D03*
X78503Y-54527D03*
X76003Y-51791D03*
X73562Y-49625D03*
X73917Y-50059D03*
X74370Y-50413D03*
X75570Y-49547D03*
X75216Y-49547D03*
X76023Y-48759D03*
X71515Y-57086D03*
X71870Y-57086D03*
X72775Y-57086D03*
X71870Y-56594D03*
X72775Y-56594D03*
X74960Y-54488D03*
X75885Y-54488D03*
X75885Y-55000D03*
X74960Y-55000D03*
X74625Y-55000D03*
X64783Y-57342D03*
X64330Y-50866D03*
X63877Y-57342D03*
X63464Y-56062D03*
X65196Y-55275D03*
X65196Y-56535D03*
X64330Y-56535D03*
X63464Y-56535D03*
X63464Y-57086D03*
X63464Y-56771D03*
X64330Y-57086D03*
X64330Y-56771D03*
X65196Y-56771D03*
X65196Y-57086D03*
X65196Y-56062D03*
X65196Y-55039D03*
X63464Y-55275D03*
X63464Y-55039D03*
X63464Y-54724D03*
X63464Y-50866D03*
X64330Y-50393D03*
X63464Y-50393D03*
X64783Y-49271D03*
X63877Y-49271D03*
X64330Y-50157D03*
X63464Y-50157D03*
X65196Y-49842D03*
X63464Y-49842D03*
X64330Y-49842D03*
X63464Y-49527D03*
X64330Y-49527D03*
X65196Y-49527D03*
X67460Y-56062D03*
X66141Y-52421D03*
X71791Y-55334D03*
X66122Y-57874D03*
X65492Y-57874D03*
X66830Y-58011D03*
X66456Y-58011D03*
X69606Y-58011D03*
X68464Y-58011D03*
X69035Y-58011D03*
X72578Y-58129D03*
X71003Y-58129D03*
X75157Y-58011D03*
X74015Y-58011D03*
X74586Y-58011D03*
X77500Y-57598D03*
X76791Y-58011D03*
X77362Y-58011D03*
X77500Y-54783D03*
X78129Y-54783D03*
X77814Y-51200D03*
X78129Y-51830D03*
X77500Y-51830D03*
X78129Y-48976D03*
X78129Y-48622D03*
X73818Y-48464D03*
X72578Y-48464D03*
X71043Y-48464D03*
X66456Y-48602D03*
X65492Y-48740D03*
X66122Y-48740D03*
X78503Y-49330D03*
X78503Y-48622D03*
X79133Y-48444D03*
X79763Y-48444D03*
X78503Y-48976D03*
X79330Y-53503D03*
X79842Y-50905D03*
X79448Y-50551D03*
X79192Y-54803D03*
X78503Y-54803D03*
X78503Y-55295D03*
X78503Y-55039D03*
X79566Y-56259D03*
X78503Y-57283D03*
X78503Y-57992D03*
X79881Y-58188D03*
X78858Y-58188D03*
X79133Y-58188D03*
X78503Y-57637D03*
X68838Y-57047D03*
X72598Y-55984D03*
X77539Y-50708D03*
X76850Y-52696D03*
X76318Y-54291D03*
X75807Y-53307D03*
X76614Y-52972D03*
X76614Y-53641D03*
X76515Y-53307D03*
X77539Y-50354D03*
X76614Y-49783D03*
X76614Y-48641D03*
X76515Y-49448D03*
X76614Y-49114D03*
X66535Y-55433D03*
X65807Y-49507D03*
X65807Y-57106D03*
X65807Y-55413D03*
X65807Y-54153D03*
X65807Y-52460D03*
X66515Y-53799D03*
X66181Y-54153D03*
X74350Y-53641D03*
X74360Y-56328D03*
X75531Y-52716D03*
X74980Y-50925D03*
X74724Y-51791D03*
X75216Y-50925D03*
X67185Y-49389D03*
X69389Y-49153D03*
X68523Y-49744D03*
X67204Y-48661D03*
G54D28*
X69974Y-50511D03*
G54D27*
X69763Y-51062D03*
X69763Y-51338D03*
X69488Y-51338D03*
X70039Y-51062D03*
X70314Y-51614D03*
X70314Y-52165D03*
X70039Y-52716D03*
X70314Y-52992D03*
X70039Y-52992D03*
X69763Y-52992D03*
X69232Y-52992D03*
X68700Y-52992D03*
X68149Y-52992D03*
X68700Y-52165D03*
X68425Y-51062D03*
X68700Y-51614D03*
X68700Y-51338D03*
X68700Y-51062D03*
X69232Y-51062D03*
X68956Y-51062D03*
X69488Y-51062D03*
X68956Y-51338D03*
X69232Y-51338D03*
X68425Y-51338D03*
X70039Y-51338D03*
X70314Y-51338D03*
X70590Y-51338D03*
X70590Y-51614D03*
X70039Y-51614D03*
X69763Y-51614D03*
X68425Y-51614D03*
X69232Y-51614D03*
X68956Y-51614D03*
X69488Y-51614D03*
X69488Y-52165D03*
X68956Y-52165D03*
X69232Y-52165D03*
X68425Y-52165D03*
X69763Y-52165D03*
X70039Y-52165D03*
X70590Y-52165D03*
X70590Y-51889D03*
X70314Y-51889D03*
X70039Y-51889D03*
X69763Y-51889D03*
X68425Y-51889D03*
X68700Y-51889D03*
X69232Y-51889D03*
X68956Y-51889D03*
X69488Y-51889D03*
X69488Y-52992D03*
X68956Y-52992D03*
X68425Y-52992D03*
X70039Y-53267D03*
X69763Y-53267D03*
X68149Y-53267D03*
X68425Y-53267D03*
X68700Y-53267D03*
X69232Y-53267D03*
X68956Y-53267D03*
X69488Y-53267D03*
X69488Y-52716D03*
X68956Y-52716D03*
X69232Y-52716D03*
X68700Y-52716D03*
X68425Y-52716D03*
X69763Y-52716D03*
X70314Y-52716D03*
X70314Y-52440D03*
X70039Y-52440D03*
X69763Y-52440D03*
X68149Y-52440D03*
X68425Y-52440D03*
X68700Y-52440D03*
X69232Y-52440D03*
X68956Y-52440D03*
X69488Y-52440D03*
X72322Y-52401D03*
X71811Y-51338D03*
G54D28*
X70760Y-54182D03*
G54D27*
X71791Y-54133D03*
G54D28*
X70891Y-53789D03*
G54D27*
X68228Y-54881D03*
G54D28*
X68662Y-54182D03*
X69056Y-54313D03*
G54D27*
X71968Y-53976D03*
X69015Y-54724D03*
X69114Y-55000D03*
X69822Y-54842D03*
X71870Y-53070D03*
G54D28*
X71416Y-53527D03*
X71285Y-53133D03*
X71285Y-52871D03*
X70760Y-50774D03*
X70105Y-50642D03*
X69187Y-50774D03*
X69056Y-50642D03*
X68792Y-50380D03*
X68400Y-50249D03*
G54D27*
X67913Y-49940D03*
G54D28*
X68400Y-53920D03*
X67351Y-53396D03*
X67483Y-51167D03*
X67614Y-51822D03*
X67876Y-52085D03*
G54D27*
X67224Y-53779D03*
G54D28*
X67745Y-51953D03*
G54D27*
X64330Y-55275D03*
X77401Y-49448D03*
X65196Y-54015D03*
X77460Y-53307D03*
X65452Y-54015D03*
X63464Y-53700D03*
X66653Y-51712D03*
X65196Y-51653D03*
X66515Y-53031D03*
X64370Y-52755D03*
G54D28*
X71022Y-50249D03*
G54D27*
X79724Y-49921D03*
G54D28*
X70760Y-50249D03*
X70628Y-50380D03*
X70891Y-50118D03*
X69187Y-50511D03*
X71153Y-51429D03*
X69449Y-54444D03*
X69317Y-50380D03*
X69449Y-50249D03*
X68268Y-50380D03*
X68794Y-50642D03*
G54D27*
X70590Y-54744D03*
G54D28*
X68925Y-53920D03*
X69579Y-54051D03*
X68925Y-54182D03*
G54D27*
X72027Y-55590D03*
G54D28*
X71416Y-51167D03*
X70891Y-51167D03*
X68400Y-50774D03*
X70890Y-54051D03*
X69187Y-53920D03*
G54D27*
X68740Y-55000D03*
X68110Y-56574D03*
G54D28*
X69056Y-53789D03*
G54D27*
X66889Y-52460D03*
X66968Y-53996D03*
G54D28*
X67744Y-50905D03*
X67614Y-52085D03*
X71153Y-51167D03*
X70891Y-51429D03*
X71022Y-51036D03*
X71022Y-53658D03*
X68531Y-53789D03*
X68400Y-54182D03*
X67614Y-52609D03*
G54D27*
X66299Y-53366D03*
X66771Y-50433D03*
G54D28*
X67876Y-51298D03*
X67876Y-51822D03*
X71153Y-52740D03*
X71022Y-53396D03*
X71285Y-53658D03*
X71153Y-53002D03*
X71285Y-53396D03*
G54D27*
X72736Y-53208D03*
G54D28*
X71022Y-53133D03*
X68007Y-53789D03*
X67745Y-53789D03*
G54D27*
X79822Y-53503D03*
G54D28*
X68268Y-54051D03*
G54D27*
X79055Y-56259D03*
X79566Y-53503D03*
G54D28*
X68138Y-54182D03*
G54D27*
X79311Y-56259D03*
X71791Y-54389D03*
G54D28*
X69318Y-53789D03*
G54D27*
X63464Y-54015D03*
G54D28*
X68138Y-53920D03*
X68530Y-50380D03*
G54D27*
X65196Y-50236D03*
X65413Y-53346D03*
G54D28*
X67483Y-52216D03*
G54D27*
X64370Y-52125D03*
G54D28*
X67614Y-52347D03*
G54D27*
X65196Y-52283D03*
X65196Y-54488D03*
G54D28*
X71022Y-53920D03*
G54D27*
X63267Y-53543D03*
X67342Y-54409D03*
G54D28*
X67876Y-52347D03*
G54D29*
X63870Y-50629D02*
X64803Y-50629D01*
G54D30*
X63870Y-50551D02*
X63870Y-50629D01*
X63870Y-50629D02*
X63870Y-50708D01*
X64862Y-50551D02*
X64862Y-50570D01*
X64862Y-50708D02*
X64862Y-50551D01*
X64862Y-50570D02*
X64803Y-50629D01*
G54D31*
X64803Y-50629D02*
X65383Y-50629D01*
X65383Y-50629D02*
X66481Y-49532D01*
G54D29*
X67893Y-55629D02*
X67893Y-56053D01*
X67893Y-56053D02*
X67883Y-56062D01*
X67893Y-56348D02*
X67893Y-56072D01*
X67893Y-56072D02*
X67883Y-56062D01*
X67539Y-50206D02*
X67539Y-49124D01*
X67539Y-49124D02*
X67534Y-49119D01*
X69124Y-49586D02*
X69124Y-48858D01*
X68779Y-49379D02*
X68779Y-48858D01*
X68582Y-48858D02*
X68582Y-48681D01*
X66894Y-49119D02*
X67534Y-49119D01*
X67534Y-49119D02*
X67874Y-48779D01*
X69212Y-48858D02*
X69124Y-48858D01*
X69124Y-48858D02*
X68779Y-48858D01*
X68779Y-48858D02*
X68582Y-48858D01*
X68582Y-48858D02*
X67952Y-48858D01*
X67952Y-48858D02*
X67874Y-48779D01*
X69625Y-48818D02*
X69251Y-48818D01*
G54D32*
X69625Y-48818D02*
X69852Y-48818D01*
G54D29*
X69251Y-48818D02*
X69212Y-48858D01*
G54D31*
X66771Y-49823D02*
X66771Y-49822D01*
X66771Y-49822D02*
X66481Y-49532D01*
X66481Y-49532D02*
X66894Y-49119D01*
X66894Y-49119D02*
X66899Y-49114D01*
G54D32*
X69448Y-55344D02*
X69448Y-55421D01*
G54D29*
X67893Y-55511D02*
X68110Y-55511D01*
G54D33*
X71535Y-52706D02*
X71535Y-52657D01*
X71535Y-52657D02*
X71564Y-52627D01*
G54D32*
X71830Y-50669D02*
X71624Y-50669D01*
G54D29*
X71929Y-52165D02*
X71702Y-52165D01*
X71023Y-54911D02*
X71023Y-55196D01*
X71702Y-52037D02*
X71712Y-52027D01*
X71702Y-52165D02*
X71702Y-52037D01*
X71702Y-52263D02*
X71702Y-52165D01*
X72529Y-53562D02*
X72529Y-53553D01*
G54D31*
X71702Y-52263D02*
X71702Y-52559D01*
X71702Y-52559D02*
X71702Y-52627D01*
X71702Y-52627D02*
X71712Y-52627D01*
G54D29*
X68740Y-55423D02*
X67893Y-55423D01*
X69448Y-55421D02*
X69854Y-55421D01*
X70187Y-55088D02*
X70187Y-54655D01*
X69854Y-55421D02*
X70187Y-55088D01*
X69448Y-55421D02*
X69116Y-55421D01*
X69116Y-55421D02*
X69114Y-55423D01*
X68740Y-55423D02*
X69114Y-55423D01*
G54D31*
X68110Y-55629D02*
X67893Y-55629D01*
X67893Y-55629D02*
X67893Y-55511D01*
X67893Y-55511D02*
X67893Y-55423D01*
X71870Y-52627D02*
X71712Y-52627D01*
X71712Y-52627D02*
X71564Y-52627D01*
X71564Y-52627D02*
X71537Y-52627D01*
G54D32*
X71537Y-52627D02*
X71535Y-52629D01*
G54D29*
X72529Y-53562D02*
X72529Y-53759D01*
X72529Y-53759D02*
X72529Y-53956D01*
G54D31*
X69124Y-49586D02*
X69124Y-49921D01*
G54D32*
X69124Y-49921D02*
X69133Y-49931D01*
G54D34*
X74409Y-55610D02*
X73582Y-55610D01*
G54D35*
X73582Y-55610D02*
X73129Y-55157D01*
G54D31*
X71624Y-51673D02*
X71988Y-51673D01*
X72795Y-52874D02*
X73287Y-53366D01*
X72795Y-52480D02*
X72795Y-52874D01*
X71988Y-51673D02*
X72795Y-52480D01*
G54D35*
X74074Y-53208D02*
X73444Y-53208D01*
X73444Y-53208D02*
X73287Y-53366D01*
X73287Y-53366D02*
X73129Y-53523D01*
X73129Y-55157D02*
X73129Y-53523D01*
G54D29*
X72775Y-55511D02*
X72854Y-55433D01*
G54D35*
X73129Y-55157D02*
X72854Y-55433D01*
G54D29*
X72509Y-55511D02*
X72775Y-55511D01*
X70413Y-49409D02*
X70314Y-49409D01*
X70314Y-49704D02*
X70314Y-49409D01*
X70314Y-49409D02*
X70314Y-49183D01*
X70314Y-49183D02*
X70305Y-49173D01*
X70314Y-50167D02*
X70314Y-49704D01*
X70314Y-49704D02*
X70314Y-49507D01*
X73307Y-53346D02*
X73297Y-53356D01*
G54D35*
X73129Y-53523D02*
X73297Y-53356D01*
G54D29*
X63870Y-55511D02*
X63464Y-55511D01*
X63870Y-55511D02*
X64330Y-55511D01*
X64330Y-55511D02*
X64803Y-55511D01*
X64791Y-55511D02*
X64803Y-55511D01*
X64803Y-55511D02*
X65196Y-55511D01*
G54D30*
X64791Y-55433D02*
X64791Y-55511D01*
X64791Y-55511D02*
X64791Y-55590D01*
X63870Y-55433D02*
X63870Y-55511D01*
X63870Y-55511D02*
X63870Y-55590D01*
G54D32*
X69744Y-49330D02*
X69625Y-49212D01*
X69625Y-49212D02*
X69625Y-49153D01*
X69744Y-49379D02*
X69744Y-49330D01*
G54D29*
X70590Y-55167D02*
X70590Y-55255D01*
X71417Y-55374D02*
X71417Y-54498D01*
X71299Y-55492D02*
X71417Y-55374D01*
X70826Y-55492D02*
X71299Y-55492D01*
X70590Y-55255D02*
X70826Y-55492D01*
X67962Y-49675D02*
X68188Y-49675D01*
X67962Y-49675D02*
X67913Y-49724D01*
G54D32*
X72401Y-50964D02*
X72175Y-50964D01*
G54D30*
X75413Y-56220D02*
X75413Y-56062D01*
X75413Y-56062D02*
X75826Y-56062D01*
G54D29*
X75826Y-56299D02*
X75826Y-56299D01*
X75826Y-56299D02*
X75826Y-56062D01*
X78504Y-50571D02*
X78503Y-50570D01*
X78779Y-50571D02*
X78504Y-50571D01*
X79448Y-50268D02*
X79337Y-50268D01*
X79114Y-50492D02*
X79114Y-50571D01*
X79337Y-50268D02*
X79114Y-50492D01*
X78779Y-50571D02*
X79114Y-50571D01*
G54D31*
X76909Y-54291D02*
X76909Y-55393D01*
X76909Y-55393D02*
X76555Y-55747D01*
X76909Y-53917D02*
X78641Y-53917D01*
G54D29*
X76909Y-54291D02*
X76909Y-53917D01*
X76909Y-53917D02*
X77165Y-53917D01*
G54D32*
X76870Y-51653D02*
X76870Y-51909D01*
G54D29*
X77165Y-48838D02*
X77165Y-49074D01*
G54D31*
X64881Y-55826D02*
X65196Y-55826D01*
X65196Y-55826D02*
X66023Y-55826D01*
X66023Y-55826D02*
X66259Y-55590D01*
X66259Y-55590D02*
X66259Y-54862D01*
X66259Y-54862D02*
X66515Y-54606D01*
X66515Y-54606D02*
X66692Y-54606D01*
X67106Y-54606D02*
X66692Y-54606D01*
G54D29*
X64791Y-55826D02*
X64330Y-55826D01*
G54D31*
X64862Y-55826D02*
X64881Y-55826D01*
G54D29*
X64330Y-55826D02*
X63870Y-55826D01*
X63870Y-55826D02*
X63464Y-55826D01*
G54D30*
X64791Y-55748D02*
X64791Y-55826D01*
X64791Y-55826D02*
X64791Y-55905D01*
X64862Y-55748D02*
X64862Y-55905D01*
X64862Y-55748D02*
X64862Y-55826D01*
X63870Y-55748D02*
X63870Y-55826D01*
X63870Y-55826D02*
X63870Y-55905D01*
G54D31*
X76555Y-56023D02*
X76555Y-56437D01*
X76555Y-55747D02*
X76555Y-56023D01*
G54D29*
X79822Y-54803D02*
X79822Y-54586D01*
X79822Y-54586D02*
X79724Y-54488D01*
X79832Y-55374D02*
X79832Y-54813D01*
X79832Y-54813D02*
X79822Y-54803D01*
G54D31*
X78641Y-53917D02*
X79025Y-53917D01*
X79025Y-53917D02*
X79064Y-53956D01*
G54D29*
X79114Y-54488D02*
X79074Y-54527D01*
X79724Y-54488D02*
X79114Y-54488D01*
X79074Y-54527D02*
X79074Y-53966D01*
X79074Y-53966D02*
X79064Y-53956D01*
G54D31*
X78641Y-53307D02*
X78641Y-52303D01*
X79064Y-51879D02*
X79064Y-51633D01*
X78641Y-52303D02*
X79064Y-51879D01*
X79320Y-51633D02*
X79064Y-51633D01*
X79576Y-51633D02*
X79320Y-51633D01*
X78641Y-53307D02*
X78641Y-53917D01*
G54D32*
X70265Y-54015D02*
X70189Y-54015D01*
X70189Y-54015D02*
X70187Y-54017D01*
X70393Y-53789D02*
X70393Y-53385D01*
X70462Y-53316D02*
X70629Y-53316D01*
X70393Y-53385D02*
X70462Y-53316D01*
X70890Y-53264D02*
X70681Y-53264D01*
X70681Y-53264D02*
X70629Y-53316D01*
G54D33*
X70885Y-53267D02*
X70887Y-53267D01*
X70887Y-53267D02*
X70890Y-53264D01*
G54D32*
X69580Y-54313D02*
X69589Y-54313D01*
G54D33*
X69577Y-54311D02*
X69580Y-54313D01*
X69576Y-54311D02*
X69577Y-54311D01*
G54D32*
X69714Y-54438D02*
X69822Y-54438D01*
X69589Y-54313D02*
X69714Y-54438D01*
X69822Y-54438D02*
X70187Y-54438D01*
X70187Y-54438D02*
X70187Y-54017D01*
X70187Y-54017D02*
X70189Y-54015D01*
X70629Y-53789D02*
X70393Y-53789D01*
X70393Y-53789D02*
X70187Y-53789D01*
G54D33*
X70629Y-53799D02*
X70629Y-53789D01*
X70629Y-53789D02*
X70629Y-53789D01*
G54D32*
X70187Y-53789D02*
X70187Y-53730D01*
X70187Y-53730D02*
X70187Y-54013D01*
X70187Y-54013D02*
X70189Y-54015D01*
X70189Y-53925D02*
X70189Y-54015D01*
X68769Y-49940D02*
X68769Y-49606D01*
X68769Y-49606D02*
X68779Y-49596D01*
X68769Y-49940D02*
X68769Y-50142D01*
G54D33*
X68661Y-50251D02*
X68662Y-50249D01*
X68661Y-50251D02*
X68661Y-50255D01*
G54D32*
X68769Y-50142D02*
X68662Y-50249D01*
G54D30*
X67744Y-52216D02*
X67744Y-52216D01*
X67744Y-52216D02*
X67745Y-52216D01*
G54D10*
X63267Y-53858D02*
X63870Y-53858D01*
X63870Y-51496D02*
X63464Y-51496D01*
G54D30*
X67614Y-51036D02*
X67614Y-51035D01*
G54D10*
X63870Y-51338D02*
X63267Y-51338D01*
G54D30*
X67744Y-51168D02*
X67744Y-51169D01*
X67744Y-51168D02*
X67745Y-51167D01*
G54D10*
X63870Y-51023D02*
X63267Y-51023D01*
G54D30*
X67744Y-51692D02*
X67744Y-51691D01*
G54D10*
X63870Y-52125D02*
X63464Y-52125D01*
G54D30*
X67480Y-51692D02*
X67480Y-51692D01*
X67480Y-51692D02*
X67481Y-51691D01*
X64862Y-51023D02*
X65196Y-51023D01*
X67614Y-51299D02*
X67614Y-51298D01*
G54D10*
X63267Y-51653D02*
X63870Y-51653D01*
X63870Y-51811D02*
X63464Y-51811D01*
G54D30*
X67744Y-51429D02*
X67745Y-51429D01*
X67744Y-51429D02*
X67744Y-51429D01*
G54D10*
X63870Y-51181D02*
X63464Y-51181D01*
G54D30*
X67877Y-51559D02*
X67876Y-51560D01*
X64370Y-51181D02*
X64791Y-51181D01*
X64862Y-51338D02*
X65196Y-51338D01*
X67614Y-51559D02*
X67614Y-51560D01*
G54D10*
X63267Y-51968D02*
X63870Y-51968D01*
G54D30*
X64370Y-51496D02*
X64791Y-51496D01*
G54D10*
X63870Y-53228D02*
X63267Y-53228D01*
G54D30*
X67744Y-53527D02*
X67744Y-53527D01*
X67744Y-53527D02*
X67745Y-53527D01*
X64370Y-53385D02*
X64791Y-53385D01*
X67614Y-53396D02*
X67614Y-53397D01*
G54D10*
X63870Y-52283D02*
X63267Y-52283D01*
G54D30*
X67744Y-52740D02*
X67744Y-52740D01*
X67744Y-52740D02*
X67745Y-52740D01*
G54D10*
X63870Y-52440D02*
X63464Y-52440D01*
G54D30*
X67483Y-52740D02*
X67484Y-52740D01*
X67483Y-52740D02*
X67483Y-52740D01*
X67744Y-53263D02*
X67744Y-53264D01*
G54D10*
X63464Y-53385D02*
X63870Y-53385D01*
G54D30*
X67480Y-53263D02*
X67480Y-53263D01*
X67480Y-53263D02*
X67481Y-53264D01*
X65196Y-53228D02*
X64862Y-53228D01*
G54D10*
X63870Y-52913D02*
X63267Y-52913D01*
X63870Y-53070D02*
X63464Y-53070D01*
X63870Y-52755D02*
X63464Y-52755D01*
G54D30*
X67745Y-53002D02*
X67744Y-53003D01*
X64370Y-53070D02*
X64791Y-53070D01*
G54D10*
X63870Y-52598D02*
X63267Y-52598D01*
G54D30*
X67614Y-52871D02*
X67614Y-52870D01*
X65196Y-52913D02*
X64862Y-52913D01*
X65196Y-51968D02*
X64862Y-51968D01*
X65196Y-52598D02*
X64862Y-52598D01*
X64370Y-51811D02*
X64791Y-51811D01*
X64370Y-52440D02*
X64791Y-52440D01*
G54D10*
X63870Y-54330D02*
X63464Y-54330D01*
X65314Y-54330D02*
X65393Y-54409D01*
X65393Y-54409D02*
X65393Y-54803D01*
X64791Y-54330D02*
X65314Y-54330D01*
G54D30*
X67165Y-55728D02*
X67165Y-55472D01*
X66811Y-55472D02*
X66811Y-55728D01*
G54D10*
X63267Y-54488D02*
X63870Y-54488D01*
X63267Y-54173D02*
X63870Y-54173D01*
G54D30*
X75255Y-56220D02*
X75039Y-56220D01*
X75255Y-56220D02*
X75255Y-56437D01*
G54D29*
X76180Y-56062D02*
X76180Y-56299D01*
X76180Y-56299D02*
X76181Y-56299D01*
X74763Y-56318D02*
X74763Y-56555D01*
X78779Y-50925D02*
X79114Y-50925D01*
X78779Y-50925D02*
X78504Y-50925D01*
X78504Y-50925D02*
X78503Y-50925D01*
X79320Y-53602D02*
X79320Y-52687D01*
X79832Y-52175D02*
X79832Y-51633D01*
X79320Y-52687D02*
X79832Y-52175D01*
X78287Y-53307D02*
X78287Y-53326D01*
X78090Y-53523D02*
X78090Y-53602D01*
X78287Y-53326D02*
X78090Y-53523D01*
X78720Y-54527D02*
X78503Y-54527D01*
X75526Y-51790D02*
X76003Y-51790D01*
X76003Y-51790D02*
X76003Y-51791D01*
X73124Y-49557D02*
X73375Y-49557D01*
X73444Y-49625D02*
X73562Y-49625D01*
X73375Y-49557D02*
X73444Y-49625D01*
G54D34*
X74374Y-50056D02*
X74374Y-49556D01*
G54D29*
X74374Y-50056D02*
X73919Y-50056D01*
X73919Y-50056D02*
X73917Y-50059D01*
X74374Y-50056D02*
X74374Y-50408D01*
X74374Y-50408D02*
X74370Y-50413D01*
X64783Y-57086D02*
X64783Y-57342D01*
X63877Y-57086D02*
X63877Y-57342D01*
G54D30*
X63870Y-56062D02*
X63464Y-56062D01*
G54D29*
X64791Y-54704D02*
X64791Y-55039D01*
G54D30*
X64791Y-55275D02*
X65196Y-55275D01*
X64791Y-56535D02*
X65196Y-56535D01*
X64791Y-56535D02*
X64330Y-56535D01*
X64330Y-56535D02*
X63870Y-56535D01*
X63870Y-56535D02*
X63464Y-56535D01*
G54D29*
X63877Y-57086D02*
X63464Y-57086D01*
X63870Y-56771D02*
X63464Y-56771D01*
X63870Y-57086D02*
X63877Y-57086D01*
X63877Y-57086D02*
X64330Y-57086D01*
X64330Y-57086D02*
X64783Y-57086D01*
X64783Y-57086D02*
X64803Y-57086D01*
X63870Y-56771D02*
X64330Y-56771D01*
X64330Y-56771D02*
X64803Y-56771D01*
X64791Y-56771D02*
X64803Y-56771D01*
X64803Y-56771D02*
X65196Y-56771D01*
X64791Y-57086D02*
X64803Y-57086D01*
X64803Y-57086D02*
X65196Y-57086D01*
G54D30*
X64791Y-57007D02*
X64791Y-57086D01*
X64791Y-57086D02*
X64791Y-57165D01*
X64791Y-56692D02*
X64791Y-56771D01*
X64791Y-56771D02*
X64791Y-56850D01*
X63870Y-56850D02*
X63870Y-56771D01*
X63870Y-56771D02*
X63870Y-56692D01*
X63870Y-57007D02*
X63870Y-57086D01*
X63870Y-57086D02*
X63870Y-57165D01*
X64791Y-56062D02*
X65196Y-56062D01*
G54D29*
X64791Y-55039D02*
X65196Y-55039D01*
G54D30*
X64791Y-54645D02*
X64791Y-54704D01*
X64791Y-54704D02*
X64791Y-54803D01*
X64791Y-55118D02*
X64791Y-55039D01*
X64791Y-55039D02*
X64791Y-54960D01*
X63870Y-55275D02*
X63464Y-55275D01*
G54D29*
X63870Y-55039D02*
X63464Y-55039D01*
X63870Y-54724D02*
X63464Y-54724D01*
G54D30*
X63870Y-54960D02*
X63870Y-55039D01*
X63870Y-55039D02*
X63870Y-55118D01*
X63870Y-54645D02*
X63870Y-54724D01*
X63870Y-54724D02*
X63870Y-54803D01*
X64791Y-50866D02*
X64330Y-50866D01*
X64330Y-50866D02*
X63870Y-50866D01*
X63870Y-50866D02*
X63464Y-50866D01*
X64791Y-50393D02*
X64330Y-50393D01*
X64330Y-50393D02*
X63870Y-50393D01*
X63870Y-50393D02*
X63464Y-50393D01*
G54D29*
X64791Y-49527D02*
X64791Y-49279D01*
X64791Y-49279D02*
X64783Y-49271D01*
X63870Y-49527D02*
X63870Y-49279D01*
X63870Y-49279D02*
X63877Y-49271D01*
G54D30*
X64791Y-50078D02*
X64409Y-50078D01*
G54D29*
X64330Y-50157D02*
X63870Y-50157D01*
G54D30*
X64409Y-50078D02*
X64330Y-50157D01*
G54D29*
X63870Y-50157D02*
X63464Y-50157D01*
X64791Y-49842D02*
X65196Y-49842D01*
X63870Y-49842D02*
X63464Y-49842D01*
X64791Y-49842D02*
X64330Y-49842D01*
X64330Y-49842D02*
X63870Y-49842D01*
X63870Y-49527D02*
X63464Y-49527D01*
X63870Y-49527D02*
X64330Y-49527D01*
X64330Y-49527D02*
X64791Y-49527D01*
X64791Y-49527D02*
X65196Y-49527D01*
G54D30*
X64791Y-49921D02*
X64791Y-49842D01*
X64791Y-49842D02*
X64791Y-49763D01*
X63870Y-50236D02*
X63870Y-50157D01*
X63870Y-50157D02*
X63870Y-50078D01*
X63870Y-49921D02*
X63870Y-49842D01*
X63870Y-49842D02*
X63870Y-49763D01*
X63870Y-49606D02*
X63870Y-49527D01*
X63870Y-49527D02*
X63870Y-49448D01*
X64791Y-49606D02*
X64791Y-49527D01*
X64791Y-49527D02*
X64791Y-49448D01*
G54D32*
X67667Y-56062D02*
X67460Y-56062D01*
X66289Y-52204D02*
X66289Y-52273D01*
X66289Y-52273D02*
X66141Y-52421D01*
G54D29*
X71791Y-55098D02*
X71791Y-55334D01*
X65807Y-57874D02*
X66122Y-57874D01*
X65807Y-57874D02*
X65492Y-57874D01*
X66830Y-58011D02*
X66830Y-58346D01*
X66811Y-58326D02*
X66259Y-58326D01*
X66830Y-58346D02*
X66811Y-58326D01*
X66456Y-58011D02*
X66456Y-58326D01*
X66456Y-58326D02*
X66259Y-58326D01*
X69606Y-58011D02*
X69606Y-58326D01*
X69606Y-58326D02*
X69035Y-58326D01*
X68464Y-58011D02*
X68464Y-58366D01*
X68503Y-58326D02*
X69035Y-58326D01*
X68464Y-58366D02*
X68503Y-58326D01*
X69035Y-58326D02*
X69035Y-58011D01*
X71811Y-58326D02*
X72263Y-58326D01*
X72460Y-58129D02*
X72578Y-58129D01*
X72263Y-58326D02*
X72460Y-58129D01*
X71811Y-58326D02*
X71377Y-58326D01*
X71181Y-58129D02*
X71003Y-58129D01*
X71377Y-58326D02*
X71181Y-58129D01*
X75157Y-58011D02*
X75157Y-58366D01*
X75118Y-58326D02*
X74586Y-58326D01*
X75157Y-58366D02*
X75118Y-58326D01*
X74015Y-58011D02*
X74015Y-58326D01*
X74015Y-58326D02*
X74586Y-58326D01*
X74586Y-58326D02*
X74586Y-58011D01*
X77814Y-57874D02*
X77814Y-57716D01*
X77696Y-57598D02*
X77500Y-57598D01*
X77814Y-57716D02*
X77696Y-57598D01*
X76791Y-58011D02*
X76791Y-58129D01*
X76988Y-58326D02*
X77362Y-58326D01*
X76791Y-58129D02*
X76988Y-58326D01*
X77362Y-58326D02*
X77362Y-58011D01*
X77814Y-54783D02*
X77500Y-54783D01*
X77814Y-54783D02*
X78129Y-54783D01*
X77814Y-51830D02*
X77814Y-51200D01*
X77814Y-51830D02*
X78129Y-51830D01*
X77814Y-51830D02*
X77500Y-51830D01*
X77814Y-48740D02*
X77814Y-48287D01*
X77814Y-48287D02*
X77362Y-48287D01*
X78129Y-48976D02*
X78011Y-48976D01*
X77814Y-48779D02*
X77814Y-48740D01*
X78011Y-48976D02*
X77814Y-48779D01*
X78129Y-48622D02*
X77933Y-48622D01*
X77933Y-48622D02*
X77814Y-48740D01*
X73818Y-48464D02*
X73917Y-48464D01*
X74094Y-48287D02*
X74586Y-48287D01*
X73917Y-48464D02*
X74094Y-48287D01*
X71811Y-48287D02*
X72263Y-48287D01*
X72440Y-48464D02*
X72578Y-48464D01*
X72263Y-48287D02*
X72440Y-48464D01*
X71811Y-48287D02*
X71358Y-48287D01*
X71181Y-48464D02*
X71043Y-48464D01*
X71358Y-48287D02*
X71181Y-48464D01*
G54D31*
X66259Y-48287D02*
X69035Y-48287D01*
G54D29*
X66456Y-48602D02*
X66456Y-48484D01*
X66456Y-48484D02*
X66259Y-48287D01*
X65807Y-48740D02*
X65492Y-48740D01*
X65807Y-48740D02*
X66122Y-48740D01*
X79320Y-53513D02*
X79330Y-53503D01*
X79320Y-53513D02*
X79320Y-53602D01*
X79320Y-53602D02*
X79320Y-53956D01*
X79576Y-55374D02*
X79576Y-55009D01*
X79468Y-54901D02*
X79468Y-54803D01*
X79576Y-55009D02*
X79468Y-54901D01*
X79576Y-57696D02*
X79832Y-57696D01*
X79320Y-57696D02*
X79576Y-57696D01*
X79064Y-57696D02*
X79320Y-57696D01*
X79576Y-57696D02*
X79576Y-56269D01*
X79576Y-56269D02*
X79566Y-56259D01*
X79576Y-56250D02*
X79576Y-55374D01*
X79576Y-56250D02*
X79566Y-56259D01*
X76850Y-52952D02*
X76850Y-52696D01*
X76555Y-54291D02*
X76318Y-54291D01*
X76555Y-53917D02*
X76555Y-54291D01*
X76614Y-49783D02*
X76614Y-49547D01*
X76614Y-50019D02*
X76614Y-49783D01*
X76614Y-49547D02*
X76515Y-49448D01*
X76614Y-49114D02*
X76614Y-49350D01*
X76614Y-48877D02*
X76614Y-49114D01*
X76614Y-49350D02*
X76515Y-49448D01*
X76062Y-49448D02*
X76515Y-49448D01*
X65807Y-49507D02*
X65807Y-48740D01*
X65807Y-57874D02*
X65807Y-57106D01*
X65807Y-55413D02*
X65807Y-54783D01*
X65807Y-54153D02*
X65807Y-54783D01*
X65807Y-52460D02*
X65807Y-51830D01*
X75526Y-52290D02*
X75526Y-52711D01*
X75526Y-52711D02*
X75531Y-52716D01*
X74723Y-51790D02*
X74724Y-51791D01*
X74723Y-51790D02*
X74277Y-51790D01*
G54D32*
X69389Y-49537D02*
X69340Y-49586D01*
X69389Y-49153D02*
X69389Y-49537D01*
X68553Y-49872D02*
X68553Y-49940D01*
X68523Y-49842D02*
X68523Y-49744D01*
X68553Y-49872D02*
X68523Y-49842D01*
X69974Y-50511D02*
X69974Y-50318D01*
G54D33*
X69980Y-50511D02*
X69974Y-50511D01*
G54D32*
X69974Y-50318D02*
X69911Y-50255D01*
X69744Y-50875D02*
X69744Y-51043D01*
X69744Y-51043D02*
X69763Y-51062D01*
X69409Y-50875D02*
X69409Y-51259D01*
X69409Y-51259D02*
X69488Y-51338D01*
X70423Y-51082D02*
X70059Y-51082D01*
X70059Y-51082D02*
X70039Y-51062D01*
X70856Y-51673D02*
X70374Y-51673D01*
X70374Y-51673D02*
X70314Y-51614D01*
X70935Y-52263D02*
X70413Y-52263D01*
X70413Y-52263D02*
X70314Y-52165D01*
X70580Y-52618D02*
X70137Y-52618D01*
X70137Y-52618D02*
X70039Y-52716D01*
X70580Y-52992D02*
X70314Y-52992D01*
X70187Y-53513D02*
X70187Y-53139D01*
X70187Y-53139D02*
X70039Y-52992D01*
X69822Y-53828D02*
X69822Y-53051D01*
X69822Y-53051D02*
X69763Y-52992D01*
X69360Y-53523D02*
X69360Y-53120D01*
X69360Y-53120D02*
X69232Y-52992D01*
X68799Y-53513D02*
X68799Y-53090D01*
X68799Y-53090D02*
X68700Y-52992D01*
X68218Y-53523D02*
X68218Y-53061D01*
X68218Y-53061D02*
X68149Y-52992D01*
X67992Y-52085D02*
X68620Y-52085D01*
X68620Y-52085D02*
X68700Y-52165D01*
X68110Y-50994D02*
X68356Y-50994D01*
X68356Y-50994D02*
X68425Y-51062D01*
X68110Y-51505D02*
X68592Y-51505D01*
X68592Y-51505D02*
X68700Y-51614D01*
X68622Y-50875D02*
X68622Y-51259D01*
X68622Y-51259D02*
X68700Y-51338D01*
X71653Y-51190D02*
X71663Y-51190D01*
X71663Y-51190D02*
X71811Y-51338D01*
X70760Y-54182D02*
X70760Y-54412D01*
G54D33*
X70767Y-54175D02*
X70760Y-54182D01*
X70767Y-54173D02*
X70767Y-54175D01*
G54D32*
X70760Y-54412D02*
X70797Y-54448D01*
X71624Y-53897D02*
X71624Y-53966D01*
X71624Y-53966D02*
X71791Y-54133D01*
G54D33*
X70901Y-53779D02*
X70905Y-53779D01*
X70891Y-53789D02*
X70901Y-53779D01*
G54D32*
X68592Y-54468D02*
X68435Y-54468D01*
X68435Y-54468D02*
X68297Y-54606D01*
X68592Y-54468D02*
X68592Y-54253D01*
G54D33*
X68661Y-54181D02*
X68662Y-54182D01*
X68661Y-54181D02*
X68661Y-54173D01*
G54D32*
X68592Y-54253D02*
X68662Y-54182D01*
X69232Y-54301D02*
X69068Y-54301D01*
X69068Y-54301D02*
X69056Y-54313D01*
G54D33*
X69055Y-54312D02*
X69055Y-54311D01*
X69056Y-54313D02*
X69055Y-54312D01*
G54D32*
X72312Y-53956D02*
X71988Y-53956D01*
X71968Y-53976D02*
X71968Y-53769D01*
X71988Y-53956D02*
X71968Y-53976D01*
X69222Y-54724D02*
X69015Y-54724D01*
X69114Y-55206D02*
X69114Y-55000D01*
X69822Y-54655D02*
X69822Y-54842D01*
X71870Y-52844D02*
X71870Y-53070D01*
G54D33*
X71417Y-53523D02*
X71417Y-53525D01*
X71417Y-53525D02*
X71416Y-53527D01*
X71279Y-53129D02*
X71281Y-53129D01*
X71281Y-53129D02*
X71285Y-53133D01*
X71279Y-52874D02*
X71282Y-52874D01*
X71282Y-52874D02*
X71285Y-52871D01*
G54D32*
X70760Y-50774D02*
X70928Y-50774D01*
G54D33*
X70766Y-50767D02*
X70760Y-50774D01*
X70767Y-50767D02*
X70766Y-50767D01*
G54D32*
X70928Y-50774D02*
X70935Y-50767D01*
G54D33*
X70105Y-50642D02*
X70098Y-50649D01*
X69192Y-50767D02*
X69192Y-50768D01*
X69192Y-50768D02*
X69187Y-50774D01*
X69055Y-50649D02*
X69055Y-50644D01*
X69055Y-50644D02*
X69056Y-50642D01*
X68799Y-50374D02*
X68799Y-50374D01*
X68799Y-50374D02*
X68792Y-50380D01*
X68405Y-50255D02*
X68405Y-50254D01*
X68405Y-50254D02*
X68400Y-50249D01*
G54D32*
X67903Y-50216D02*
X67903Y-49950D01*
X67903Y-49950D02*
X67913Y-49940D01*
G54D33*
X68405Y-53917D02*
X68403Y-53917D01*
X68403Y-53917D02*
X68400Y-53920D01*
G54D32*
X67224Y-52765D02*
X67224Y-53268D01*
G54D33*
X67351Y-53396D02*
X67352Y-53395D01*
G54D32*
X67224Y-53268D02*
X67351Y-53396D01*
X67483Y-51167D02*
X67338Y-51167D01*
G54D30*
X67484Y-51166D02*
X67483Y-51167D01*
X67484Y-51165D02*
X67484Y-51166D01*
G54D32*
X67338Y-51167D02*
X67244Y-51072D01*
G54D30*
X67244Y-51840D02*
X67293Y-51840D01*
G54D33*
X67618Y-51818D02*
X67614Y-51822D01*
X67618Y-51818D02*
X67618Y-51811D01*
G54D30*
X67566Y-51870D02*
X67614Y-51822D01*
X67322Y-51870D02*
X67566Y-51870D01*
X67293Y-51840D02*
X67322Y-51870D01*
G54D32*
X67876Y-52085D02*
X67992Y-52085D01*
X67992Y-52085D02*
X68062Y-52085D01*
X68062Y-52085D02*
X68110Y-52037D01*
G54D33*
X67874Y-52086D02*
X67874Y-52086D01*
X67876Y-52085D02*
X67874Y-52086D01*
X67746Y-51958D02*
X67746Y-51954D01*
X67746Y-51954D02*
X67745Y-51953D01*
G54D10*
X64429Y-53858D02*
X64330Y-53956D01*
X64330Y-53956D02*
X64330Y-55275D01*
X64791Y-53858D02*
X64429Y-53858D01*
G54D30*
X77165Y-49448D02*
X77401Y-49448D01*
X64862Y-54015D02*
X65196Y-54015D01*
X76870Y-52263D02*
X76870Y-52263D01*
X77165Y-52559D02*
X77165Y-53306D01*
X76870Y-52263D02*
X77165Y-52559D01*
X77460Y-53306D02*
X77460Y-53307D01*
X77460Y-53306D02*
X77165Y-53306D01*
X77165Y-53306D02*
X76850Y-53306D01*
G54D10*
X63464Y-53700D02*
X63870Y-53700D01*
G54D30*
X65196Y-51653D02*
X64862Y-51653D01*
X64370Y-52755D02*
X64791Y-52755D01*
G54D36*
X75526Y-51290D02*
X75638Y-51290D01*
X76062Y-50866D02*
X76062Y-50806D01*
X75638Y-51290D02*
X76062Y-50866D01*
X76062Y-49822D02*
X76062Y-50452D01*
X76062Y-49074D02*
X75531Y-49074D01*
X75531Y-49074D02*
X75511Y-49055D01*
G54D37*
X71022Y-50249D02*
X72218Y-50249D01*
G54D33*
X71023Y-50250D02*
X71022Y-50249D01*
X71023Y-50251D02*
X71023Y-50250D01*
G54D37*
X72218Y-50249D02*
X72775Y-50807D01*
X72775Y-50807D02*
X72775Y-51141D01*
X74171Y-52185D02*
X74277Y-52290D01*
X73818Y-52185D02*
X74171Y-52185D01*
X72775Y-51141D02*
X73818Y-52185D01*
G54D36*
X78760Y-49921D02*
X77263Y-49921D01*
X77263Y-49921D02*
X77165Y-49822D01*
X79717Y-49928D02*
X79724Y-49921D01*
X79717Y-49928D02*
X79448Y-49928D01*
X79114Y-49921D02*
X79441Y-49921D01*
X79441Y-49921D02*
X79448Y-49928D01*
G54D37*
X72342Y-49141D02*
X71980Y-49141D01*
X71980Y-49141D02*
X71968Y-49153D01*
X72342Y-49141D02*
X72389Y-49141D01*
X72950Y-49057D02*
X73124Y-49057D01*
X72696Y-49311D02*
X72950Y-49057D01*
X72559Y-49311D02*
X72696Y-49311D01*
X72389Y-49141D02*
X72559Y-49311D01*
G54D36*
X74374Y-49056D02*
X75156Y-49056D01*
X75156Y-49056D02*
X75157Y-49055D01*
G54D37*
X70777Y-49891D02*
X70777Y-49734D01*
X71207Y-49448D02*
X71240Y-49481D01*
X71062Y-49448D02*
X71207Y-49448D01*
X70777Y-49734D02*
X71062Y-49448D01*
X71240Y-49481D02*
X71601Y-49481D01*
X71601Y-49481D02*
X71614Y-49468D01*
G54D33*
X70759Y-50248D02*
X70759Y-50248D01*
X70759Y-50248D02*
X70760Y-50249D01*
X70760Y-49908D02*
X70777Y-49891D01*
X70777Y-49891D02*
X70787Y-49881D01*
X70760Y-50249D02*
X70760Y-49908D01*
G54D37*
X70629Y-50019D02*
X70629Y-49645D01*
X71134Y-49141D02*
X71240Y-49141D01*
X70629Y-49645D02*
X71134Y-49141D01*
X71240Y-49141D02*
X71601Y-49141D01*
X71601Y-49141D02*
X71614Y-49153D01*
X70629Y-49803D02*
X70629Y-49960D01*
X70629Y-50078D02*
X70629Y-50019D01*
X70629Y-50019D02*
X70629Y-49960D01*
G54D33*
X70629Y-50078D02*
X70629Y-50379D01*
X70629Y-50379D02*
X70628Y-50380D01*
X70629Y-50381D02*
X70629Y-50381D01*
X70629Y-50381D02*
X70628Y-50380D01*
G54D37*
X72342Y-49481D02*
X71980Y-49481D01*
X71980Y-49481D02*
X71968Y-49468D01*
X72342Y-49481D02*
X72355Y-49481D01*
X72931Y-50057D02*
X73124Y-50057D01*
X72355Y-49481D02*
X72931Y-50057D01*
X74102Y-51290D02*
X74277Y-51290D01*
X73917Y-51476D02*
X74102Y-51290D01*
X73326Y-51476D02*
X73917Y-51476D01*
X72933Y-51082D02*
X73326Y-51476D01*
X72933Y-50748D02*
X72933Y-51082D01*
X72263Y-50078D02*
X72933Y-50748D01*
X70925Y-50078D02*
X72263Y-50078D01*
X70891Y-50118D02*
X70891Y-50112D01*
G54D33*
X70891Y-50118D02*
X70891Y-50118D01*
X70889Y-50118D02*
X70891Y-50118D01*
G54D37*
X70891Y-50112D02*
X70925Y-50078D01*
G54D32*
X69409Y-50659D02*
X69335Y-50659D01*
X69335Y-50659D02*
X69187Y-50511D01*
X69133Y-50147D02*
X69133Y-50458D01*
G54D33*
X69187Y-50511D02*
X69192Y-50511D01*
G54D32*
X69133Y-50458D02*
X69187Y-50511D01*
X71153Y-51673D02*
X71153Y-51429D01*
G54D33*
X71153Y-51429D02*
X71161Y-51437D01*
G54D32*
X71072Y-51673D02*
X71153Y-51673D01*
X71153Y-51673D02*
X71407Y-51673D01*
X69438Y-54724D02*
X69438Y-55118D01*
X69438Y-55118D02*
X69448Y-55127D01*
X69449Y-54444D02*
X69449Y-54713D01*
G54D33*
X69448Y-54445D02*
X69449Y-54444D01*
X69448Y-54448D02*
X69448Y-54445D01*
G54D32*
X69449Y-54713D02*
X69438Y-54724D01*
X69448Y-55051D02*
X69448Y-54734D01*
X69448Y-54734D02*
X69438Y-54724D01*
G54D30*
X69317Y-50380D02*
X69317Y-50340D01*
G54D29*
X69744Y-49606D02*
X69389Y-49960D01*
X69744Y-49606D02*
X69744Y-49596D01*
G54D30*
X69389Y-50039D02*
X69389Y-49960D01*
X69291Y-50137D02*
X69389Y-50039D01*
X69291Y-50314D02*
X69291Y-50137D01*
X69317Y-50340D02*
X69291Y-50314D01*
G54D32*
X69744Y-50659D02*
X69744Y-50590D01*
X69389Y-50452D02*
X69317Y-50380D01*
X69606Y-50452D02*
X69389Y-50452D01*
X69744Y-50590D02*
X69606Y-50452D01*
X69317Y-50380D02*
X69317Y-50380D01*
G54D33*
X69311Y-50374D02*
X69317Y-50380D01*
X69311Y-50374D02*
X69311Y-50374D01*
G54D29*
X70078Y-49035D02*
X70078Y-49744D01*
X69694Y-50127D02*
X69694Y-50255D01*
X70078Y-49744D02*
X69694Y-50127D01*
X70078Y-48828D02*
X70078Y-49035D01*
X70078Y-49035D02*
X70078Y-49163D01*
X70078Y-49163D02*
X70088Y-49173D01*
G54D32*
X69449Y-50249D02*
X69688Y-50249D01*
G54D33*
X69448Y-50255D02*
X69448Y-50250D01*
X69448Y-50250D02*
X69449Y-50249D01*
G54D32*
X69688Y-50249D02*
X69694Y-50255D01*
X68700Y-50642D02*
X68530Y-50642D01*
X68547Y-50659D02*
X68268Y-50380D01*
G54D33*
X68267Y-50379D02*
X68268Y-50380D01*
X68267Y-50379D02*
X68267Y-50374D01*
G54D32*
X68120Y-50216D02*
X68120Y-50232D01*
X68120Y-50232D02*
X68268Y-50380D01*
X68530Y-50642D02*
X68268Y-50380D01*
X68794Y-50642D02*
X68700Y-50642D01*
X68700Y-50642D02*
X68638Y-50642D01*
G54D33*
X68799Y-50648D02*
X68794Y-50642D01*
X68799Y-50649D02*
X68799Y-50648D01*
G54D32*
X68638Y-50642D02*
X68622Y-50659D01*
X68120Y-50216D02*
X68120Y-49960D01*
X68120Y-49960D02*
X68188Y-49891D01*
X70590Y-54744D02*
X70590Y-54950D01*
X69822Y-54045D02*
X69585Y-54045D01*
X69585Y-54045D02*
X69579Y-54051D01*
X68799Y-53730D02*
X68799Y-53794D01*
G54D33*
X68922Y-53917D02*
X68925Y-53920D01*
X68922Y-53917D02*
X68917Y-53917D01*
G54D32*
X68799Y-53794D02*
X68925Y-53920D01*
G54D33*
X69586Y-54055D02*
X69583Y-54055D01*
X69583Y-54055D02*
X69579Y-54051D01*
G54D32*
X72106Y-55511D02*
X72027Y-55590D01*
X72106Y-55511D02*
X72293Y-55511D01*
X68925Y-54182D02*
X68925Y-54185D01*
G54D33*
X68917Y-54174D02*
X68925Y-54182D01*
X68917Y-54173D02*
X68917Y-54174D01*
G54D32*
X68809Y-54301D02*
X68809Y-54468D01*
X68925Y-54185D02*
X68809Y-54301D01*
G54D29*
X70314Y-50383D02*
X70314Y-50649D01*
X70639Y-50974D02*
X70639Y-51082D01*
X70314Y-50649D02*
X70639Y-50974D01*
G54D33*
X71417Y-51166D02*
X71416Y-51167D01*
X71417Y-51166D02*
X71417Y-51161D01*
G54D32*
X70639Y-51082D02*
X70807Y-51082D01*
G54D33*
X70891Y-51167D02*
X70885Y-51161D01*
G54D32*
X70807Y-51082D02*
X70891Y-51167D01*
X68110Y-50777D02*
X67962Y-50777D01*
X67608Y-50423D02*
X67539Y-50423D01*
X67962Y-50777D02*
X67608Y-50423D01*
X68400Y-50774D02*
X68113Y-50774D01*
G54D33*
X68405Y-50769D02*
X68400Y-50774D01*
X68405Y-50767D02*
X68405Y-50769D01*
G54D32*
X68113Y-50774D02*
X68110Y-50777D01*
X70890Y-54051D02*
X70882Y-54051D01*
X70511Y-53986D02*
X70482Y-54015D01*
X70816Y-53986D02*
X70511Y-53986D01*
X70882Y-54051D02*
X70816Y-53986D01*
X70890Y-54051D02*
X70890Y-54050D01*
G54D33*
X70887Y-54055D02*
X70890Y-54051D01*
X70885Y-54055D02*
X70887Y-54055D01*
G54D32*
X68740Y-55206D02*
X68740Y-55000D01*
X69187Y-53920D02*
X69187Y-54039D01*
G54D33*
X69190Y-53917D02*
X69187Y-53920D01*
X69192Y-53917D02*
X69190Y-53917D01*
G54D32*
X69187Y-54039D02*
X69232Y-54084D01*
G54D29*
X74763Y-55964D02*
X74763Y-55610D01*
X74763Y-55610D02*
X74763Y-55610D01*
X74763Y-55964D02*
X75157Y-55964D01*
G54D30*
X75157Y-55964D02*
X75255Y-56062D01*
G54D29*
X68100Y-56564D02*
X68110Y-56574D01*
X68100Y-56564D02*
X67893Y-56564D01*
G54D32*
X69056Y-53789D02*
X69056Y-53611D01*
G54D33*
X69055Y-53790D02*
X69056Y-53789D01*
X69055Y-53799D02*
X69055Y-53790D01*
G54D32*
X69056Y-53611D02*
X69143Y-53523D01*
G54D29*
X66889Y-52460D02*
X66555Y-52460D01*
X66555Y-52460D02*
X66505Y-52411D01*
X66505Y-52411D02*
X66505Y-52204D01*
G54D32*
X66505Y-52204D02*
X67096Y-52204D01*
X67096Y-52204D02*
X67244Y-52057D01*
G54D30*
X67614Y-52085D02*
X67614Y-52082D01*
X67614Y-52082D02*
X67559Y-52027D01*
X67559Y-52027D02*
X67273Y-52027D01*
X67273Y-52027D02*
X67244Y-52057D01*
X67614Y-52082D02*
X67559Y-52027D01*
X67559Y-52027D02*
X67273Y-52027D01*
X67273Y-52027D02*
X67244Y-52057D01*
G54D32*
X67096Y-52204D02*
X67244Y-52057D01*
G54D29*
X66555Y-52460D02*
X66515Y-52421D01*
G54D31*
X66299Y-51791D02*
X66515Y-52007D01*
X66515Y-52007D02*
X66515Y-52421D01*
X67244Y-50856D02*
X67234Y-50856D01*
X67234Y-50856D02*
X67106Y-50728D01*
X67106Y-50728D02*
X66633Y-50728D01*
X66633Y-50728D02*
X66299Y-51062D01*
X66299Y-51062D02*
X66299Y-51791D01*
X66634Y-54252D02*
X66692Y-54252D01*
X66515Y-52421D02*
X66043Y-52893D01*
X66043Y-52893D02*
X66043Y-53661D01*
X66043Y-53661D02*
X66634Y-54252D01*
G54D32*
X67096Y-52204D02*
X67244Y-52057D01*
X66968Y-53996D02*
X66870Y-53996D01*
X66870Y-53996D02*
X66692Y-54173D01*
X66692Y-54173D02*
X66692Y-54252D01*
X67244Y-52057D02*
X67244Y-52066D01*
X67244Y-50856D02*
X67253Y-50856D01*
X67253Y-50856D02*
X67283Y-50826D01*
X67480Y-50826D02*
X67665Y-50826D01*
X67283Y-50826D02*
X67480Y-50826D01*
X67665Y-50826D02*
X67744Y-50905D01*
G54D30*
X67744Y-50905D02*
X67744Y-50905D01*
X67273Y-52027D02*
X67244Y-52057D01*
X67559Y-52027D02*
X67273Y-52027D01*
X67614Y-52082D02*
X67559Y-52027D01*
X67614Y-52085D02*
X67614Y-52086D01*
G54D32*
X71653Y-50974D02*
X71948Y-50974D01*
X71948Y-50974D02*
X71958Y-50964D01*
X71653Y-50974D02*
X71346Y-50974D01*
X71346Y-50974D02*
X71153Y-51167D01*
X71153Y-51167D02*
X71155Y-51167D01*
G54D33*
X71161Y-51161D02*
X71159Y-51161D01*
X71159Y-51161D02*
X71153Y-51167D01*
G54D32*
X71407Y-50669D02*
X71250Y-50669D01*
X71250Y-50669D02*
X71151Y-50767D01*
G54D33*
X71022Y-51036D02*
X71022Y-51298D01*
X70885Y-51435D02*
X70891Y-51429D01*
X70885Y-51435D02*
X70885Y-51437D01*
G54D32*
X71022Y-51298D02*
X70891Y-51429D01*
X71022Y-51036D02*
X71022Y-51024D01*
G54D33*
X71023Y-51037D02*
X71022Y-51036D01*
X71023Y-51043D02*
X71023Y-51037D01*
G54D32*
X71151Y-50895D02*
X71151Y-50767D01*
X71022Y-51024D02*
X71151Y-50895D01*
X71013Y-54448D02*
X71013Y-54685D01*
X71013Y-54685D02*
X71023Y-54694D01*
X71220Y-53855D02*
X71022Y-53658D01*
X71220Y-53897D02*
X71220Y-53855D01*
G54D33*
X71023Y-53659D02*
X71022Y-53658D01*
X71023Y-53659D02*
X71023Y-53661D01*
G54D32*
X71003Y-54251D02*
X71003Y-54438D01*
X71220Y-54035D02*
X71003Y-54251D01*
X71220Y-53858D02*
X71220Y-53897D01*
X71220Y-53897D02*
X71220Y-54035D01*
G54D37*
X68400Y-54182D02*
X68400Y-54177D01*
G54D32*
X68531Y-53789D02*
X68531Y-53620D01*
X68531Y-53620D02*
X68435Y-53523D01*
G54D33*
X68523Y-53781D02*
X68531Y-53789D01*
X68523Y-53779D02*
X68523Y-53781D01*
G54D37*
X68582Y-53840D02*
X68531Y-53789D01*
X68582Y-53996D02*
X68582Y-53840D01*
X68400Y-54177D02*
X68582Y-53996D01*
G54D32*
X68080Y-54606D02*
X68080Y-54517D01*
G54D33*
X68405Y-54177D02*
X68405Y-54173D01*
X68405Y-54177D02*
X68400Y-54182D01*
G54D32*
X68400Y-54197D02*
X68400Y-54182D01*
X68080Y-54517D02*
X68400Y-54197D01*
X67893Y-55206D02*
X67893Y-54793D01*
X67893Y-54793D02*
X68080Y-54606D01*
G54D29*
X66771Y-50433D02*
X66771Y-50177D01*
G54D32*
X67224Y-52549D02*
X67553Y-52549D01*
G54D30*
X67614Y-52609D02*
X67614Y-52610D01*
G54D32*
X67553Y-52549D02*
X67614Y-52609D01*
X68110Y-51289D02*
X67885Y-51289D01*
G54D30*
X67877Y-51299D02*
X67876Y-51298D01*
X67877Y-51299D02*
X67877Y-51299D01*
G54D32*
X67885Y-51289D02*
X67876Y-51298D01*
X68110Y-51820D02*
X67878Y-51820D01*
G54D30*
X67876Y-51822D02*
X67877Y-51822D01*
G54D32*
X67878Y-51820D02*
X67876Y-51822D01*
X71486Y-52263D02*
X71151Y-52263D01*
X71153Y-52740D02*
X71153Y-52266D01*
G54D33*
X71161Y-52736D02*
X71158Y-52736D01*
X71158Y-52736D02*
X71153Y-52740D01*
G54D32*
X71153Y-52266D02*
X71151Y-52263D01*
X70629Y-53533D02*
X70885Y-53533D01*
G54D33*
X71023Y-53395D02*
X71022Y-53396D01*
X71023Y-53395D02*
X71023Y-53385D01*
G54D32*
X70885Y-53533D02*
X71022Y-53396D01*
X71407Y-53897D02*
X71407Y-53780D01*
X71407Y-53780D02*
X71285Y-53658D01*
X71407Y-53897D02*
X71407Y-54271D01*
X71407Y-54271D02*
X71417Y-54281D01*
X71289Y-53662D02*
X71285Y-53658D01*
G54D33*
X71289Y-53661D02*
X71288Y-53661D01*
X71288Y-53661D02*
X71285Y-53658D01*
X71153Y-53002D02*
X71455Y-53002D01*
X71455Y-53002D02*
X71535Y-52923D01*
G54D30*
X71153Y-53002D02*
X71152Y-53002D01*
X70797Y-52647D02*
X70797Y-52618D01*
X71152Y-53002D02*
X70797Y-52647D01*
G54D33*
X71161Y-53010D02*
X71153Y-53002D01*
X71161Y-53010D02*
X71161Y-53011D01*
G54D32*
X71968Y-53553D02*
X71702Y-53553D01*
X71702Y-53553D02*
X71555Y-53405D01*
X71968Y-53553D02*
X72303Y-53553D01*
X72303Y-53553D02*
X72312Y-53562D01*
G54D33*
X71285Y-53396D02*
X71535Y-53396D01*
X71279Y-53401D02*
X71285Y-53396D01*
X71279Y-53405D02*
X71279Y-53401D01*
G54D32*
X71811Y-53277D02*
X72667Y-53277D01*
X72667Y-53277D02*
X72736Y-53208D01*
X71027Y-53133D02*
X71161Y-53267D01*
X71909Y-53277D02*
X71978Y-53277D01*
G54D33*
X71027Y-53133D02*
X71022Y-53133D01*
G54D32*
X71653Y-53228D02*
X71486Y-53228D01*
X71702Y-53277D02*
X71653Y-53228D01*
X71909Y-53277D02*
X71811Y-53277D01*
X71811Y-53277D02*
X71702Y-53277D01*
G54D33*
X71446Y-53267D02*
X71486Y-53228D01*
X71161Y-53267D02*
X71446Y-53267D01*
G54D32*
X71022Y-53133D02*
X71022Y-53129D01*
X70816Y-53011D02*
X70797Y-52992D01*
X70905Y-53011D02*
X70816Y-53011D01*
X71022Y-53129D02*
X70905Y-53011D01*
G54D33*
X71023Y-53129D02*
X71023Y-53133D01*
X71023Y-53133D02*
X71022Y-53133D01*
G54D30*
X67677Y-54429D02*
X67677Y-54724D01*
X67224Y-55059D02*
X67165Y-55118D01*
X67342Y-55059D02*
X67224Y-55059D01*
X67677Y-54724D02*
X67342Y-55059D01*
X67677Y-54119D02*
X68007Y-53789D01*
X67677Y-54429D02*
X67677Y-54119D01*
X68011Y-53789D02*
X68007Y-53789D01*
X68007Y-53789D02*
X68001Y-53789D01*
X67519Y-54311D02*
X67519Y-54645D01*
X66811Y-55078D02*
X66811Y-55118D01*
X67027Y-54862D02*
X66811Y-55078D01*
X67303Y-54862D02*
X67027Y-54862D01*
X67519Y-54645D02*
X67303Y-54862D01*
X67745Y-53789D02*
X67746Y-53789D01*
X67519Y-54014D02*
X67745Y-53789D01*
X67519Y-54311D02*
X67519Y-54014D01*
X76909Y-56023D02*
X79064Y-56023D01*
X79832Y-53956D02*
X79832Y-53513D01*
X79832Y-53513D02*
X79822Y-53503D01*
G54D33*
X68267Y-54055D02*
X68267Y-54052D01*
X68267Y-54052D02*
X68268Y-54051D01*
G54D30*
X79064Y-56250D02*
X79055Y-56259D01*
X79064Y-56250D02*
X79064Y-56023D01*
X79064Y-56023D02*
X79064Y-55374D01*
X76909Y-56437D02*
X79133Y-56437D01*
X79133Y-56437D02*
X79311Y-56259D01*
X79576Y-53513D02*
X79566Y-53503D01*
X79576Y-53956D02*
X79576Y-53513D01*
G54D33*
X68129Y-54173D02*
X68129Y-54174D01*
X68129Y-54174D02*
X68138Y-54182D01*
G54D30*
X79320Y-56250D02*
X79311Y-56259D01*
X79320Y-56250D02*
X79320Y-55374D01*
X71791Y-54744D02*
X71791Y-54389D01*
G54D33*
X69311Y-53781D02*
X69318Y-53789D01*
X69311Y-53779D02*
X69311Y-53781D01*
G54D10*
X63870Y-54015D02*
X63464Y-54015D01*
G54D33*
X68129Y-53917D02*
X68135Y-53917D01*
X68135Y-53917D02*
X68138Y-53920D01*
X68523Y-50374D02*
X68524Y-50374D01*
X68524Y-50374D02*
X68530Y-50380D01*
G54D30*
X65196Y-50236D02*
X64862Y-50236D01*
X65216Y-53543D02*
X65413Y-53346D01*
X64791Y-53543D02*
X65216Y-53543D01*
X67484Y-52216D02*
X67483Y-52216D01*
X67483Y-52216D02*
X67483Y-52216D01*
X64370Y-52125D02*
X64791Y-52125D01*
X67614Y-52346D02*
X67614Y-52347D01*
X65196Y-52283D02*
X64862Y-52283D01*
X64862Y-54488D02*
X65196Y-54488D01*
G54D33*
X71023Y-53919D02*
X71022Y-53920D01*
X71023Y-53917D02*
X71023Y-53919D01*
G54D10*
X63870Y-53543D02*
X63267Y-53543D01*
G54D30*
X67145Y-54252D02*
X67303Y-54409D01*
X67303Y-54409D02*
X67342Y-54409D01*
X67145Y-54252D02*
X67106Y-54252D01*
X67877Y-52346D02*
X67877Y-52346D01*
X67877Y-52346D02*
X67876Y-52347D01*
G54D10*
G36*
X70629Y-52401D02*
X70354Y-52401D01*
X70354Y-53180D01*
X70337Y-53191D01*
X70268Y-53260D01*
X70237Y-53307D01*
X68110Y-53307D01*
X68110Y-52283D01*
X68385Y-52283D01*
X68385Y-51023D01*
X70275Y-51023D01*
X70275Y-51299D01*
X70629Y-51299D01*
X70629Y-52401D01*
X70629Y-52401D01*
G37*
G54D30*
X70629Y-52401D02*
X70354Y-52401D01*
X70354Y-53180D01*
X70337Y-53191D01*
X70268Y-53260D01*
X70237Y-53307D01*
X68110Y-53307D01*
X68110Y-52283D01*
X68385Y-52283D01*
X68385Y-51023D01*
X70275Y-51023D01*
X70275Y-51299D01*
X70629Y-51299D01*
X70629Y-52401D01*
G54D10*
G36*
X69901Y-48996D02*
X69212Y-48996D01*
X69212Y-49980D01*
X68996Y-49980D01*
X68996Y-49429D01*
X67637Y-49429D01*
X67637Y-49901D01*
X67322Y-49901D01*
X67322Y-49362D01*
X67301Y-49311D01*
X67263Y-49273D01*
X67212Y-49251D01*
X67157Y-49251D01*
X67107Y-49272D01*
X67068Y-49311D01*
X67047Y-49362D01*
X67047Y-49417D01*
X67068Y-49467D01*
X67106Y-49506D01*
X67157Y-49527D01*
X67212Y-49527D01*
X67262Y-49506D01*
X67301Y-49467D01*
X67322Y-49417D01*
X67322Y-49362D01*
X67322Y-49901D01*
X66665Y-49901D01*
X65818Y-50748D01*
X64405Y-50748D01*
X64358Y-50728D01*
X64303Y-50728D01*
X64255Y-50748D01*
X63602Y-50748D01*
X63602Y-50531D01*
X64330Y-50531D01*
X64357Y-50531D01*
X64358Y-50531D01*
X65165Y-50531D01*
X67069Y-48627D01*
X67066Y-48633D01*
X67066Y-48688D01*
X67087Y-48739D01*
X67126Y-48778D01*
X67177Y-48799D01*
X67232Y-48799D01*
X67282Y-48778D01*
X67321Y-48739D01*
X67342Y-48688D01*
X67342Y-48634D01*
X67329Y-48602D01*
X69901Y-48602D01*
X69901Y-48996D01*
X69901Y-48996D01*
G37*
G54D33*
X69901Y-48996D02*
X69212Y-48996D01*
X69212Y-49980D01*
X68996Y-49980D01*
X68996Y-49429D01*
X67637Y-49429D01*
X67637Y-49901D01*
X67322Y-49901D01*
X67322Y-49362D01*
X67301Y-49311D01*
X67263Y-49273D01*
X67212Y-49251D01*
X67157Y-49251D01*
X67107Y-49272D01*
X67068Y-49311D01*
X67047Y-49362D01*
X67047Y-49417D01*
X67068Y-49467D01*
X67106Y-49506D01*
X67157Y-49527D01*
X67212Y-49527D01*
X67262Y-49506D01*
X67301Y-49467D01*
X67322Y-49417D01*
X67322Y-49362D01*
X67322Y-49901D01*
X66665Y-49901D01*
X65818Y-50748D01*
X64405Y-50748D01*
X64358Y-50728D01*
X64303Y-50728D01*
X64255Y-50748D01*
X63602Y-50748D01*
X63602Y-50531D01*
X64330Y-50531D01*
X64357Y-50531D01*
X64358Y-50531D01*
X65165Y-50531D01*
X67069Y-48627D01*
X67066Y-48633D01*
X67066Y-48688D01*
X67087Y-48739D01*
X67126Y-48778D01*
X67177Y-48799D01*
X67232Y-48799D01*
X67282Y-48778D01*
X67321Y-48739D01*
X67342Y-48688D01*
X67342Y-48634D01*
X67329Y-48602D01*
X69901Y-48602D01*
X69901Y-48996D01*
M02*
