G04 (created by PCBNEW (2013-07-07 BZR 4022)-stable) date 19/11/2015 00:50:25*
%MOIN*%
G04 Gerber Fmt 3.4, Leading zero omitted, Abs format*
%FSLAX34Y34*%
G01*
G70*
G90*
G04 APERTURE LIST*
%ADD10C,0.00590551*%
%ADD11C,0.0077*%
G04 APERTURE END LIST*
G54D10*
G54D11*
X62874Y-58582D02*
X80433Y-58582D01*
X62874Y-48031D02*
X80433Y-48031D01*
X63818Y-59527D02*
X81299Y-59527D01*
X63818Y-47165D02*
X81299Y-47165D01*
X62007Y-59527D02*
X62007Y-47165D01*
X59921Y-61496D02*
X83267Y-61496D01*
X59921Y-45196D02*
X59921Y-61496D01*
X83267Y-45196D02*
X59921Y-45196D01*
X83267Y-61496D02*
X83267Y-45196D01*
X62007Y-47165D02*
X62874Y-47165D01*
X62874Y-59527D02*
X62007Y-59527D01*
X81299Y-47165D02*
X81299Y-52795D01*
X81299Y-59527D02*
X81299Y-53740D01*
X80433Y-53740D02*
X81299Y-53740D01*
X62874Y-48031D02*
X62874Y-58582D01*
X80433Y-48031D02*
X80433Y-58582D01*
X62874Y-58582D02*
X62874Y-59527D01*
X63818Y-58582D02*
X63818Y-59527D01*
X62874Y-47165D02*
X62874Y-48031D01*
X80433Y-52795D02*
X81299Y-52795D01*
X63818Y-48031D02*
X63818Y-47165D01*
M02*
