G04 (created by PCBNEW (2013-07-07 BZR 4022)-stable) date 19/11/2015 00:50:25*
%MOIN*%
G04 Gerber Fmt 3.4, Leading zero omitted, Abs format*
%FSLAX34Y34*%
G01*
G70*
G90*
G04 APERTURE LIST*
%ADD10C,0.00590551*%
%ADD11C,0.00787402*%
%ADD12C,0.0077*%
%ADD13C,0.011811*%
%ADD14C,0.0117*%
%ADD15C,0.019685*%
%ADD16C,0.0078*%
G04 APERTURE END LIST*
G54D10*
G54D11*
X63357Y-57244D02*
X63342Y-57259D01*
X63312Y-57274D01*
X63237Y-57274D01*
X63207Y-57259D01*
X63192Y-57244D01*
X63177Y-57214D01*
X63177Y-57184D01*
X63192Y-57139D01*
X63372Y-56959D01*
X63177Y-56959D01*
X65303Y-56959D02*
X65483Y-56959D01*
X65393Y-56959D02*
X65393Y-57274D01*
X65423Y-57229D01*
X65453Y-57199D01*
X65483Y-57184D01*
X80049Y-56338D02*
X80049Y-54940D01*
X80049Y-58129D02*
X80049Y-56732D01*
X80049Y-56732D02*
X79832Y-56732D01*
X80049Y-56338D02*
X79832Y-56338D01*
X78828Y-58129D02*
X78828Y-54940D01*
X80049Y-58129D02*
X78829Y-58129D01*
X78828Y-54941D02*
X80048Y-54941D01*
X79832Y-56339D02*
X79832Y-56733D01*
G54D12*
X67184Y-54429D02*
X67028Y-54429D01*
X66733Y-55295D02*
X66889Y-55295D01*
X67087Y-55295D02*
X67243Y-55295D01*
X76732Y-56101D02*
X76732Y-55945D01*
G54D10*
X67834Y-56456D02*
X67952Y-56456D01*
G54D11*
X78848Y-52992D02*
X78848Y-54389D01*
X78848Y-51200D02*
X78848Y-52598D01*
X78848Y-52598D02*
X79064Y-52598D01*
X78848Y-52992D02*
X79064Y-52992D01*
X80068Y-51200D02*
X80068Y-54389D01*
X78847Y-51200D02*
X80067Y-51200D01*
X80068Y-54389D02*
X78848Y-54389D01*
X79064Y-52991D02*
X79064Y-52597D01*
G54D10*
X67106Y-51722D02*
X67381Y-51722D01*
X67381Y-51722D02*
X67381Y-52175D01*
X67381Y-52175D02*
X67106Y-52175D01*
X67106Y-52175D02*
X67106Y-51722D01*
X69094Y-53966D02*
X69370Y-53966D01*
X69370Y-53966D02*
X69370Y-54419D01*
X69370Y-54419D02*
X69094Y-54419D01*
X69094Y-54419D02*
X69094Y-53966D01*
X69960Y-54163D02*
X69685Y-54163D01*
X69685Y-54163D02*
X69685Y-53710D01*
X69685Y-53710D02*
X69960Y-53710D01*
X69960Y-53710D02*
X69960Y-54163D01*
X69251Y-55541D02*
X68976Y-55541D01*
X68976Y-55541D02*
X68976Y-55088D01*
X68976Y-55088D02*
X69251Y-55088D01*
X69251Y-55088D02*
X69251Y-55541D01*
X68001Y-55925D02*
X68001Y-56200D01*
X68001Y-56200D02*
X67549Y-56200D01*
X67549Y-56200D02*
X67549Y-55925D01*
X67549Y-55925D02*
X68001Y-55925D01*
X69557Y-54586D02*
X69557Y-54862D01*
X69557Y-54862D02*
X69104Y-54862D01*
X69104Y-54862D02*
X69104Y-54586D01*
X69104Y-54586D02*
X69557Y-54586D01*
X66171Y-52342D02*
X66171Y-52066D01*
X66171Y-52066D02*
X66624Y-52066D01*
X66624Y-52066D02*
X66624Y-52342D01*
X66624Y-52342D02*
X66171Y-52342D01*
X72007Y-52962D02*
X71732Y-52962D01*
X71732Y-52962D02*
X71732Y-52509D01*
X71732Y-52509D02*
X72007Y-52509D01*
X72007Y-52509D02*
X72007Y-52962D01*
X70462Y-52755D02*
X70462Y-52480D01*
X70462Y-52480D02*
X70915Y-52480D01*
X70915Y-52480D02*
X70915Y-52755D01*
X70915Y-52755D02*
X70462Y-52755D01*
X68248Y-52155D02*
X67972Y-52155D01*
X67972Y-52155D02*
X67972Y-51702D01*
X67972Y-51702D02*
X68248Y-51702D01*
X68248Y-51702D02*
X68248Y-52155D01*
X68100Y-53661D02*
X68100Y-53385D01*
X68100Y-53385D02*
X68553Y-53385D01*
X68553Y-53385D02*
X68553Y-53661D01*
X68553Y-53661D02*
X68100Y-53661D01*
X69025Y-53661D02*
X69025Y-53385D01*
X69025Y-53385D02*
X69478Y-53385D01*
X69478Y-53385D02*
X69478Y-53661D01*
X69478Y-53661D02*
X69025Y-53661D01*
X67362Y-52883D02*
X67086Y-52883D01*
X67086Y-52883D02*
X67086Y-52431D01*
X67086Y-52431D02*
X67362Y-52431D01*
X67362Y-52431D02*
X67362Y-52883D01*
X70324Y-53848D02*
X70049Y-53848D01*
X70049Y-53848D02*
X70049Y-53395D01*
X70049Y-53395D02*
X70324Y-53395D01*
X70324Y-53395D02*
X70324Y-53848D01*
X70452Y-50501D02*
X70177Y-50501D01*
X70177Y-50501D02*
X70177Y-50049D01*
X70177Y-50049D02*
X70452Y-50049D01*
X70452Y-50049D02*
X70452Y-50501D01*
X68326Y-50009D02*
X68051Y-50009D01*
X68051Y-50009D02*
X68051Y-49557D01*
X68051Y-49557D02*
X68326Y-49557D01*
X68326Y-49557D02*
X68326Y-50009D01*
X70187Y-48681D02*
X70187Y-48956D01*
X70187Y-48956D02*
X69734Y-48956D01*
X69734Y-48956D02*
X69734Y-48681D01*
X69734Y-48681D02*
X70187Y-48681D01*
X69881Y-49714D02*
X69606Y-49714D01*
X69606Y-49714D02*
X69606Y-49261D01*
X69606Y-49261D02*
X69881Y-49261D01*
X69881Y-49261D02*
X69881Y-49714D01*
X72175Y-55649D02*
X72175Y-55374D01*
X72175Y-55374D02*
X72627Y-55374D01*
X72627Y-55374D02*
X72627Y-55649D01*
X72627Y-55649D02*
X72175Y-55649D01*
X68602Y-55088D02*
X68877Y-55088D01*
X68877Y-55088D02*
X68877Y-55541D01*
X68877Y-55541D02*
X68602Y-55541D01*
X68602Y-55541D02*
X68602Y-55088D01*
X70452Y-54832D02*
X70728Y-54832D01*
X70728Y-54832D02*
X70728Y-55285D01*
X70728Y-55285D02*
X70452Y-55285D01*
X70452Y-55285D02*
X70452Y-54832D01*
X70049Y-54320D02*
X70324Y-54320D01*
X70324Y-54320D02*
X70324Y-54773D01*
X70324Y-54773D02*
X70049Y-54773D01*
X70049Y-54773D02*
X70049Y-54320D01*
X72293Y-50826D02*
X72293Y-51102D01*
X72293Y-51102D02*
X71840Y-51102D01*
X71840Y-51102D02*
X71840Y-50826D01*
X71840Y-50826D02*
X72293Y-50826D01*
X71791Y-51309D02*
X71515Y-51309D01*
X71515Y-51309D02*
X71515Y-50856D01*
X71515Y-50856D02*
X71791Y-50856D01*
X71791Y-50856D02*
X71791Y-51309D01*
X71742Y-53759D02*
X71742Y-54035D01*
X71742Y-54035D02*
X71289Y-54035D01*
X71289Y-54035D02*
X71289Y-53759D01*
X71289Y-53759D02*
X71742Y-53759D01*
X72194Y-54094D02*
X72194Y-53818D01*
X72194Y-53818D02*
X72647Y-53818D01*
X72647Y-53818D02*
X72647Y-54094D01*
X72647Y-54094D02*
X72194Y-54094D01*
X72106Y-53887D02*
X71830Y-53887D01*
X71830Y-53887D02*
X71830Y-53435D01*
X71830Y-53435D02*
X72106Y-53435D01*
X72106Y-53435D02*
X72106Y-53887D01*
X71161Y-55029D02*
X70885Y-55029D01*
X70885Y-55029D02*
X70885Y-54576D01*
X70885Y-54576D02*
X71161Y-54576D01*
X71161Y-54576D02*
X71161Y-55029D01*
X70679Y-54586D02*
X70679Y-54311D01*
X70679Y-54311D02*
X71131Y-54311D01*
X71131Y-54311D02*
X71131Y-54586D01*
X71131Y-54586D02*
X70679Y-54586D01*
X68031Y-55541D02*
X67755Y-55541D01*
X67755Y-55541D02*
X67755Y-55088D01*
X67755Y-55088D02*
X68031Y-55088D01*
X68031Y-55088D02*
X68031Y-55541D01*
X71742Y-50531D02*
X71742Y-50807D01*
X71742Y-50807D02*
X71289Y-50807D01*
X71289Y-50807D02*
X71289Y-50531D01*
X71289Y-50531D02*
X71742Y-50531D01*
X70816Y-50905D02*
X70816Y-50629D01*
X70816Y-50629D02*
X71269Y-50629D01*
X71269Y-50629D02*
X71269Y-50905D01*
X71269Y-50905D02*
X70816Y-50905D01*
X69606Y-50541D02*
X69881Y-50541D01*
X69881Y-50541D02*
X69881Y-50994D01*
X69881Y-50994D02*
X69606Y-50994D01*
X69606Y-50994D02*
X69606Y-50541D01*
X69576Y-50393D02*
X69576Y-50118D01*
X69576Y-50118D02*
X70029Y-50118D01*
X70029Y-50118D02*
X70029Y-50393D01*
X70029Y-50393D02*
X69576Y-50393D01*
X68238Y-50078D02*
X68238Y-50354D01*
X68238Y-50354D02*
X67785Y-50354D01*
X67785Y-50354D02*
X67785Y-50078D01*
X67785Y-50078D02*
X68238Y-50078D01*
X70757Y-50944D02*
X70757Y-51220D01*
X70757Y-51220D02*
X70305Y-51220D01*
X70305Y-51220D02*
X70305Y-50944D01*
X70305Y-50944D02*
X70757Y-50944D01*
X71289Y-51811D02*
X71289Y-51535D01*
X71289Y-51535D02*
X71742Y-51535D01*
X71742Y-51535D02*
X71742Y-51811D01*
X71742Y-51811D02*
X71289Y-51811D01*
X71190Y-51535D02*
X71190Y-51811D01*
X71190Y-51811D02*
X70738Y-51811D01*
X70738Y-51811D02*
X70738Y-51535D01*
X70738Y-51535D02*
X71190Y-51535D01*
X67677Y-50541D02*
X67401Y-50541D01*
X67401Y-50541D02*
X67401Y-50088D01*
X67401Y-50088D02*
X67677Y-50088D01*
X67677Y-50088D02*
X67677Y-50541D01*
X67972Y-50659D02*
X68248Y-50659D01*
X68248Y-50659D02*
X68248Y-51112D01*
X68248Y-51112D02*
X67972Y-51112D01*
X67972Y-51112D02*
X67972Y-50659D01*
X69271Y-50541D02*
X69547Y-50541D01*
X69547Y-50541D02*
X69547Y-50994D01*
X69547Y-50994D02*
X69271Y-50994D01*
X69271Y-50994D02*
X69271Y-50541D01*
X69005Y-49724D02*
X69005Y-49448D01*
X69005Y-49448D02*
X69458Y-49448D01*
X69458Y-49448D02*
X69458Y-49724D01*
X69458Y-49724D02*
X69005Y-49724D01*
X71555Y-54616D02*
X71279Y-54616D01*
X71279Y-54616D02*
X71279Y-54163D01*
X71279Y-54163D02*
X71555Y-54163D01*
X71555Y-54163D02*
X71555Y-54616D01*
X68248Y-51624D02*
X67972Y-51624D01*
X67972Y-51624D02*
X67972Y-51171D01*
X67972Y-51171D02*
X68248Y-51171D01*
X68248Y-51171D02*
X68248Y-51624D01*
X67381Y-51190D02*
X67106Y-51190D01*
X67106Y-51190D02*
X67106Y-50738D01*
X67106Y-50738D02*
X67381Y-50738D01*
X67381Y-50738D02*
X67381Y-51190D01*
X68484Y-50541D02*
X68759Y-50541D01*
X68759Y-50541D02*
X68759Y-50994D01*
X68759Y-50994D02*
X68484Y-50994D01*
X68484Y-50994D02*
X68484Y-50541D01*
X68435Y-50078D02*
X68435Y-49803D01*
X68435Y-49803D02*
X68887Y-49803D01*
X68887Y-49803D02*
X68887Y-50078D01*
X68887Y-50078D02*
X68435Y-50078D01*
X68641Y-49261D02*
X68917Y-49261D01*
X68917Y-49261D02*
X68917Y-49714D01*
X68917Y-49714D02*
X68641Y-49714D01*
X68641Y-49714D02*
X68641Y-49261D01*
X69970Y-49311D02*
X69970Y-49035D01*
X69970Y-49035D02*
X70423Y-49035D01*
X70423Y-49035D02*
X70423Y-49311D01*
X70423Y-49311D02*
X69970Y-49311D01*
X71269Y-52125D02*
X71269Y-52401D01*
X71269Y-52401D02*
X70816Y-52401D01*
X70816Y-52401D02*
X70816Y-52125D01*
X70816Y-52125D02*
X71269Y-52125D01*
X71820Y-52125D02*
X71820Y-52401D01*
X71820Y-52401D02*
X71368Y-52401D01*
X71368Y-52401D02*
X71368Y-52125D01*
X71368Y-52125D02*
X71820Y-52125D01*
X70462Y-53129D02*
X70462Y-52854D01*
X70462Y-52854D02*
X70915Y-52854D01*
X70915Y-52854D02*
X70915Y-53129D01*
X70915Y-53129D02*
X70462Y-53129D01*
X69685Y-54320D02*
X69960Y-54320D01*
X69960Y-54320D02*
X69960Y-54773D01*
X69960Y-54773D02*
X69685Y-54773D01*
X69685Y-54773D02*
X69685Y-54320D01*
X68937Y-53848D02*
X68661Y-53848D01*
X68661Y-53848D02*
X68661Y-53395D01*
X68661Y-53395D02*
X68937Y-53395D01*
X68937Y-53395D02*
X68937Y-53848D01*
X68927Y-54330D02*
X68927Y-54606D01*
X68927Y-54606D02*
X68474Y-54606D01*
X68474Y-54606D02*
X68474Y-54330D01*
X68474Y-54330D02*
X68927Y-54330D01*
X68415Y-54468D02*
X68415Y-54744D01*
X68415Y-54744D02*
X67962Y-54744D01*
X67962Y-54744D02*
X67962Y-54468D01*
X67962Y-54468D02*
X68415Y-54468D01*
G54D12*
X76948Y-52086D02*
X76792Y-52086D01*
X75334Y-49133D02*
X75334Y-48977D01*
X76732Y-54213D02*
X76732Y-54369D01*
X76928Y-53129D02*
X76772Y-53129D01*
G54D10*
X71594Y-52814D02*
X71476Y-52814D01*
G54D12*
X66849Y-50000D02*
X66693Y-50000D01*
G54D10*
X69507Y-55236D02*
X69389Y-55236D01*
G54D12*
X71713Y-54921D02*
X71869Y-54921D01*
X66770Y-54429D02*
X66614Y-54429D01*
G54D10*
X70374Y-54074D02*
X70374Y-53956D01*
G54D12*
X79645Y-54725D02*
X79645Y-54881D01*
X78464Y-53229D02*
X78464Y-53385D01*
X78897Y-54449D02*
X78897Y-54605D01*
G54D10*
X69074Y-50039D02*
X69192Y-50039D01*
X72421Y-53622D02*
X72421Y-53503D01*
X70570Y-53425D02*
X70688Y-53425D01*
G54D12*
X76732Y-56515D02*
X76732Y-56359D01*
X78937Y-49999D02*
X78937Y-49843D01*
X76140Y-50629D02*
X75984Y-50629D01*
X76732Y-53839D02*
X76732Y-53995D01*
G54D13*
X75724Y-50000D02*
G75*
G03X75724Y-50000I-55J0D01*
G74*
G01*
G54D11*
X75866Y-50196D02*
X75866Y-48700D01*
X75866Y-48700D02*
X77362Y-48700D01*
X77362Y-48700D02*
X77362Y-50196D01*
X77362Y-50196D02*
X75866Y-50196D01*
G54D14*
X75775Y-50933D02*
X75775Y-50995D01*
X74275Y-50995D02*
X74275Y-50933D01*
X74275Y-52667D02*
X74275Y-52589D01*
X74275Y-52667D02*
X75775Y-52667D01*
X75775Y-52667D02*
X75775Y-52589D01*
X74275Y-50933D02*
X75775Y-50933D01*
G54D11*
X63503Y-48858D02*
X63503Y-57755D01*
X65157Y-57755D02*
X65157Y-48858D01*
X65157Y-48858D02*
X63503Y-48858D01*
X65157Y-57755D02*
X63503Y-57755D01*
G54D15*
X74458Y-50541D02*
G75*
G03X74458Y-50541I-78J0D01*
G74*
G01*
G54D11*
X74812Y-48809D02*
X72687Y-48809D01*
X74812Y-50305D02*
X72687Y-50305D01*
X74812Y-50305D02*
X74812Y-48809D01*
X72687Y-48809D02*
X72687Y-50305D01*
G54D12*
X71791Y-49546D02*
X71791Y-49390D01*
X71791Y-49231D02*
X71791Y-49075D01*
X71338Y-49311D02*
X71142Y-49311D01*
X72440Y-49311D02*
X72244Y-49311D01*
X79036Y-50748D02*
X79192Y-50748D01*
X78701Y-50748D02*
X78857Y-50748D01*
X79546Y-50098D02*
X79350Y-50098D01*
X76003Y-56140D02*
X76003Y-55984D01*
X74685Y-56141D02*
X74841Y-56141D01*
X74586Y-55688D02*
X74586Y-55532D01*
G54D11*
X75019Y-56299D02*
G75*
G03X75019Y-56299I-39J0D01*
G74*
G01*
X75098Y-56377D02*
X75570Y-56377D01*
X75570Y-56377D02*
X75570Y-55905D01*
X75570Y-55905D02*
X75098Y-55905D01*
X75098Y-55905D02*
X75098Y-56377D01*
X78355Y-56295D02*
X78610Y-56295D01*
X78640Y-56310D01*
X78655Y-56325D01*
X78670Y-56355D01*
X78670Y-56415D01*
X78655Y-56445D01*
X78640Y-56460D01*
X78610Y-56475D01*
X78355Y-56475D01*
X78490Y-56670D02*
X78475Y-56640D01*
X78460Y-56625D01*
X78430Y-56610D01*
X78415Y-56610D01*
X78385Y-56625D01*
X78370Y-56640D01*
X78355Y-56670D01*
X78355Y-56730D01*
X78370Y-56760D01*
X78385Y-56775D01*
X78415Y-56790D01*
X78430Y-56790D01*
X78460Y-56775D01*
X78475Y-56760D01*
X78490Y-56730D01*
X78490Y-56670D01*
X78505Y-56640D01*
X78520Y-56625D01*
X78550Y-56610D01*
X78610Y-56610D01*
X78640Y-56625D01*
X78655Y-56640D01*
X78670Y-56670D01*
X78670Y-56730D01*
X78655Y-56760D01*
X78640Y-56775D01*
X78610Y-56790D01*
X78550Y-56790D01*
X78520Y-56775D01*
X78505Y-56760D01*
X78490Y-56730D01*
X67253Y-53458D02*
X67103Y-53353D01*
X67253Y-53278D02*
X66938Y-53278D01*
X66938Y-53398D01*
X66953Y-53428D01*
X66968Y-53443D01*
X66998Y-53458D01*
X67043Y-53458D01*
X67073Y-53443D01*
X67088Y-53428D01*
X67103Y-53398D01*
X67103Y-53278D01*
X66968Y-53578D02*
X66953Y-53593D01*
X66938Y-53623D01*
X66938Y-53698D01*
X66953Y-53728D01*
X66968Y-53743D01*
X66998Y-53758D01*
X67028Y-53758D01*
X67073Y-53743D01*
X67253Y-53563D01*
X67253Y-53758D01*
X66938Y-53953D02*
X66938Y-53983D01*
X66953Y-54013D01*
X66968Y-54028D01*
X66998Y-54043D01*
X67058Y-54058D01*
X67133Y-54058D01*
X67193Y-54043D01*
X67223Y-54028D01*
X67238Y-54013D01*
X67253Y-53983D01*
X67253Y-53953D01*
X67238Y-53923D01*
X67223Y-53908D01*
X67193Y-53893D01*
X67133Y-53878D01*
X67058Y-53878D01*
X66998Y-53893D01*
X66968Y-53908D01*
X66953Y-53923D01*
X66938Y-53953D01*
X66387Y-55899D02*
X66237Y-55794D01*
X66387Y-55719D02*
X66072Y-55719D01*
X66072Y-55839D01*
X66087Y-55869D01*
X66102Y-55884D01*
X66132Y-55899D01*
X66177Y-55899D01*
X66207Y-55884D01*
X66222Y-55869D01*
X66237Y-55839D01*
X66237Y-55719D01*
X66102Y-56019D02*
X66087Y-56034D01*
X66072Y-56064D01*
X66072Y-56139D01*
X66087Y-56169D01*
X66102Y-56184D01*
X66132Y-56199D01*
X66162Y-56199D01*
X66207Y-56184D01*
X66387Y-56004D01*
X66387Y-56199D01*
X66072Y-56304D02*
X66072Y-56514D01*
X66387Y-56379D01*
X66820Y-55899D02*
X66670Y-55794D01*
X66820Y-55719D02*
X66505Y-55719D01*
X66505Y-55839D01*
X66520Y-55869D01*
X66535Y-55884D01*
X66565Y-55899D01*
X66610Y-55899D01*
X66640Y-55884D01*
X66655Y-55869D01*
X66670Y-55839D01*
X66670Y-55719D01*
X66535Y-56019D02*
X66520Y-56034D01*
X66505Y-56064D01*
X66505Y-56139D01*
X66520Y-56169D01*
X66535Y-56184D01*
X66565Y-56199D01*
X66595Y-56199D01*
X66640Y-56184D01*
X66820Y-56004D01*
X66820Y-56199D01*
X66640Y-56379D02*
X66625Y-56349D01*
X66610Y-56334D01*
X66580Y-56319D01*
X66565Y-56319D01*
X66535Y-56334D01*
X66520Y-56349D01*
X66505Y-56379D01*
X66505Y-56439D01*
X66520Y-56469D01*
X66535Y-56484D01*
X66565Y-56499D01*
X66580Y-56499D01*
X66610Y-56484D01*
X66625Y-56469D01*
X66640Y-56439D01*
X66640Y-56379D01*
X66655Y-56349D01*
X66670Y-56334D01*
X66700Y-56319D01*
X66760Y-56319D01*
X66790Y-56334D01*
X66805Y-56349D01*
X66820Y-56379D01*
X66820Y-56439D01*
X66805Y-56469D01*
X66790Y-56484D01*
X66760Y-56499D01*
X66700Y-56499D01*
X66670Y-56484D01*
X66655Y-56469D01*
X66640Y-56439D01*
X77328Y-55816D02*
X77433Y-55666D01*
X77508Y-55816D02*
X77508Y-55501D01*
X77388Y-55501D01*
X77358Y-55516D01*
X77343Y-55531D01*
X77328Y-55561D01*
X77328Y-55606D01*
X77343Y-55636D01*
X77358Y-55651D01*
X77388Y-55666D01*
X77508Y-55666D01*
X77208Y-55531D02*
X77193Y-55516D01*
X77163Y-55501D01*
X77088Y-55501D01*
X77058Y-55516D01*
X77043Y-55531D01*
X77028Y-55561D01*
X77028Y-55591D01*
X77043Y-55636D01*
X77223Y-55816D01*
X77028Y-55816D01*
X76878Y-55816D02*
X76818Y-55816D01*
X76788Y-55801D01*
X76773Y-55786D01*
X76743Y-55741D01*
X76728Y-55681D01*
X76728Y-55561D01*
X76743Y-55531D01*
X76758Y-55516D01*
X76788Y-55501D01*
X76848Y-55501D01*
X76878Y-55516D01*
X76893Y-55531D01*
X76908Y-55561D01*
X76908Y-55636D01*
X76893Y-55666D01*
X76878Y-55681D01*
X76848Y-55696D01*
X76788Y-55696D01*
X76758Y-55681D01*
X76743Y-55666D01*
X76728Y-55636D01*
X68040Y-56923D02*
X67890Y-56818D01*
X68040Y-56743D02*
X67725Y-56743D01*
X67725Y-56863D01*
X67740Y-56893D01*
X67755Y-56908D01*
X67785Y-56923D01*
X67830Y-56923D01*
X67860Y-56908D01*
X67875Y-56893D01*
X67890Y-56863D01*
X67890Y-56743D01*
X67725Y-57028D02*
X67725Y-57223D01*
X67845Y-57118D01*
X67845Y-57163D01*
X67860Y-57193D01*
X67875Y-57208D01*
X67905Y-57223D01*
X67980Y-57223D01*
X68010Y-57208D01*
X68025Y-57193D01*
X68040Y-57163D01*
X68040Y-57073D01*
X68025Y-57043D01*
X68010Y-57028D01*
X67725Y-57328D02*
X67725Y-57523D01*
X67845Y-57418D01*
X67845Y-57463D01*
X67860Y-57493D01*
X67875Y-57508D01*
X67905Y-57523D01*
X67980Y-57523D01*
X68010Y-57508D01*
X68025Y-57493D01*
X68040Y-57463D01*
X68040Y-57373D01*
X68025Y-57343D01*
X68010Y-57328D01*
X78395Y-51689D02*
X78650Y-51689D01*
X78680Y-51704D01*
X78695Y-51719D01*
X78710Y-51749D01*
X78710Y-51809D01*
X78695Y-51839D01*
X78680Y-51854D01*
X78650Y-51869D01*
X78395Y-51869D01*
X78395Y-52154D02*
X78395Y-52094D01*
X78410Y-52064D01*
X78425Y-52049D01*
X78470Y-52019D01*
X78530Y-52004D01*
X78650Y-52004D01*
X78680Y-52019D01*
X78695Y-52034D01*
X78710Y-52064D01*
X78710Y-52124D01*
X78695Y-52154D01*
X78680Y-52169D01*
X78650Y-52184D01*
X78575Y-52184D01*
X78545Y-52169D01*
X78530Y-52154D01*
X78515Y-52124D01*
X78515Y-52064D01*
X78530Y-52034D01*
X78545Y-52019D01*
X78575Y-52004D01*
X67026Y-51687D02*
X67041Y-51672D01*
X67056Y-51627D01*
X67056Y-51597D01*
X67041Y-51552D01*
X67011Y-51522D01*
X66981Y-51507D01*
X66921Y-51492D01*
X66876Y-51492D01*
X66816Y-51507D01*
X66786Y-51522D01*
X66756Y-51552D01*
X66741Y-51597D01*
X66741Y-51627D01*
X66756Y-51672D01*
X66771Y-51687D01*
X66741Y-51972D02*
X66741Y-51822D01*
X66891Y-51807D01*
X66876Y-51822D01*
X66861Y-51852D01*
X66861Y-51927D01*
X66876Y-51957D01*
X66891Y-51972D01*
X66921Y-51987D01*
X66996Y-51987D01*
X67026Y-51972D01*
X67041Y-51957D01*
X67056Y-51927D01*
X67056Y-51852D01*
X67041Y-51822D01*
X67026Y-51807D01*
X66741Y-52092D02*
X66741Y-52287D01*
X66861Y-52182D01*
X66861Y-52227D01*
X66876Y-52257D01*
X66891Y-52272D01*
X66921Y-52287D01*
X66996Y-52287D01*
X67026Y-52272D01*
X67041Y-52257D01*
X67056Y-52227D01*
X67056Y-52137D01*
X67041Y-52107D01*
X67026Y-52092D01*
X69310Y-55821D02*
X69325Y-55806D01*
X69340Y-55761D01*
X69340Y-55731D01*
X69325Y-55686D01*
X69295Y-55656D01*
X69265Y-55641D01*
X69205Y-55626D01*
X69160Y-55626D01*
X69100Y-55641D01*
X69070Y-55656D01*
X69040Y-55686D01*
X69025Y-55731D01*
X69025Y-55761D01*
X69040Y-55806D01*
X69055Y-55821D01*
X69025Y-56091D02*
X69025Y-56031D01*
X69040Y-56001D01*
X69055Y-55986D01*
X69100Y-55956D01*
X69160Y-55941D01*
X69280Y-55941D01*
X69310Y-55956D01*
X69325Y-55971D01*
X69340Y-56001D01*
X69340Y-56061D01*
X69325Y-56091D01*
X69310Y-56106D01*
X69280Y-56121D01*
X69205Y-56121D01*
X69175Y-56106D01*
X69160Y-56091D01*
X69145Y-56061D01*
X69145Y-56001D01*
X69160Y-55971D01*
X69175Y-55956D01*
X69205Y-55941D01*
X69025Y-56226D02*
X69025Y-56421D01*
X69145Y-56316D01*
X69145Y-56361D01*
X69160Y-56391D01*
X69175Y-56406D01*
X69205Y-56421D01*
X69280Y-56421D01*
X69310Y-56406D01*
X69325Y-56391D01*
X69340Y-56361D01*
X69340Y-56271D01*
X69325Y-56241D01*
X69310Y-56226D01*
X67525Y-56554D02*
X67540Y-56569D01*
X67585Y-56584D01*
X67615Y-56584D01*
X67660Y-56569D01*
X67690Y-56539D01*
X67705Y-56509D01*
X67720Y-56449D01*
X67720Y-56404D01*
X67705Y-56344D01*
X67690Y-56314D01*
X67660Y-56284D01*
X67615Y-56269D01*
X67585Y-56269D01*
X67540Y-56284D01*
X67525Y-56299D01*
X67255Y-56269D02*
X67315Y-56269D01*
X67345Y-56284D01*
X67360Y-56299D01*
X67390Y-56344D01*
X67405Y-56404D01*
X67405Y-56524D01*
X67390Y-56554D01*
X67375Y-56569D01*
X67345Y-56584D01*
X67285Y-56584D01*
X67255Y-56569D01*
X67240Y-56554D01*
X67225Y-56524D01*
X67225Y-56449D01*
X67240Y-56419D01*
X67255Y-56404D01*
X67285Y-56389D01*
X67345Y-56389D01*
X67375Y-56404D01*
X67390Y-56419D01*
X67405Y-56449D01*
X67075Y-56584D02*
X67015Y-56584D01*
X66985Y-56569D01*
X66970Y-56554D01*
X66940Y-56509D01*
X66925Y-56449D01*
X66925Y-56329D01*
X66940Y-56299D01*
X66955Y-56284D01*
X66985Y-56269D01*
X67045Y-56269D01*
X67075Y-56284D01*
X67090Y-56299D01*
X67105Y-56329D01*
X67105Y-56404D01*
X67090Y-56434D01*
X67075Y-56449D01*
X67045Y-56464D01*
X66985Y-56464D01*
X66955Y-56449D01*
X66940Y-56434D01*
X66925Y-56404D01*
X66698Y-52695D02*
X66713Y-52710D01*
X66758Y-52725D01*
X66788Y-52725D01*
X66833Y-52710D01*
X66863Y-52680D01*
X66878Y-52650D01*
X66893Y-52590D01*
X66893Y-52545D01*
X66878Y-52485D01*
X66863Y-52455D01*
X66833Y-52425D01*
X66788Y-52410D01*
X66758Y-52410D01*
X66713Y-52425D01*
X66698Y-52440D01*
X66413Y-52410D02*
X66563Y-52410D01*
X66578Y-52560D01*
X66563Y-52545D01*
X66533Y-52530D01*
X66458Y-52530D01*
X66428Y-52545D01*
X66413Y-52560D01*
X66398Y-52590D01*
X66398Y-52665D01*
X66413Y-52695D01*
X66428Y-52710D01*
X66458Y-52725D01*
X66533Y-52725D01*
X66563Y-52710D01*
X66578Y-52695D01*
X66113Y-52410D02*
X66263Y-52410D01*
X66278Y-52560D01*
X66263Y-52545D01*
X66233Y-52530D01*
X66158Y-52530D01*
X66128Y-52545D01*
X66113Y-52560D01*
X66098Y-52590D01*
X66098Y-52665D01*
X66113Y-52695D01*
X66128Y-52710D01*
X66158Y-52725D01*
X66233Y-52725D01*
X66263Y-52710D01*
X66278Y-52695D01*
X72341Y-52750D02*
X72356Y-52735D01*
X72371Y-52690D01*
X72371Y-52660D01*
X72356Y-52615D01*
X72326Y-52585D01*
X72296Y-52570D01*
X72236Y-52555D01*
X72191Y-52555D01*
X72131Y-52570D01*
X72101Y-52585D01*
X72071Y-52615D01*
X72056Y-52660D01*
X72056Y-52690D01*
X72071Y-52735D01*
X72086Y-52750D01*
X72056Y-53020D02*
X72056Y-52960D01*
X72071Y-52930D01*
X72086Y-52915D01*
X72131Y-52885D01*
X72191Y-52870D01*
X72311Y-52870D01*
X72341Y-52885D01*
X72356Y-52900D01*
X72371Y-52930D01*
X72371Y-52990D01*
X72356Y-53020D01*
X72341Y-53035D01*
X72311Y-53050D01*
X72236Y-53050D01*
X72206Y-53035D01*
X72191Y-53020D01*
X72176Y-52990D01*
X72176Y-52930D01*
X72191Y-52900D01*
X72206Y-52885D01*
X72236Y-52870D01*
X72056Y-53320D02*
X72056Y-53260D01*
X72071Y-53230D01*
X72086Y-53215D01*
X72131Y-53185D01*
X72191Y-53170D01*
X72311Y-53170D01*
X72341Y-53185D01*
X72356Y-53200D01*
X72371Y-53230D01*
X72371Y-53290D01*
X72356Y-53320D01*
X72341Y-53335D01*
X72311Y-53350D01*
X72236Y-53350D01*
X72206Y-53335D01*
X72191Y-53320D01*
X72176Y-53290D01*
X72176Y-53230D01*
X72191Y-53200D01*
X72206Y-53185D01*
X72236Y-53170D01*
X68207Y-52435D02*
X68222Y-52420D01*
X68237Y-52375D01*
X68237Y-52345D01*
X68222Y-52300D01*
X68192Y-52270D01*
X68162Y-52255D01*
X68102Y-52240D01*
X68057Y-52240D01*
X67997Y-52255D01*
X67967Y-52270D01*
X67937Y-52300D01*
X67922Y-52345D01*
X67922Y-52375D01*
X67937Y-52420D01*
X67952Y-52435D01*
X67922Y-52720D02*
X67922Y-52570D01*
X68072Y-52555D01*
X68057Y-52570D01*
X68042Y-52600D01*
X68042Y-52675D01*
X68057Y-52705D01*
X68072Y-52720D01*
X68102Y-52735D01*
X68177Y-52735D01*
X68207Y-52720D01*
X68222Y-52705D01*
X68237Y-52675D01*
X68237Y-52600D01*
X68222Y-52570D01*
X68207Y-52555D01*
X67922Y-52930D02*
X67922Y-52960D01*
X67937Y-52990D01*
X67952Y-53005D01*
X67982Y-53020D01*
X68042Y-53035D01*
X68117Y-53035D01*
X68177Y-53020D01*
X68207Y-53005D01*
X68222Y-52990D01*
X68237Y-52960D01*
X68237Y-52930D01*
X68222Y-52900D01*
X68207Y-52885D01*
X68177Y-52870D01*
X68117Y-52855D01*
X68042Y-52855D01*
X67982Y-52870D01*
X67952Y-52885D01*
X67937Y-52900D01*
X67922Y-52930D01*
X67695Y-52671D02*
X67710Y-52656D01*
X67725Y-52611D01*
X67725Y-52581D01*
X67710Y-52536D01*
X67680Y-52506D01*
X67650Y-52491D01*
X67590Y-52476D01*
X67545Y-52476D01*
X67485Y-52491D01*
X67455Y-52506D01*
X67425Y-52536D01*
X67410Y-52581D01*
X67410Y-52611D01*
X67425Y-52656D01*
X67440Y-52671D01*
X67410Y-52956D02*
X67410Y-52806D01*
X67560Y-52791D01*
X67545Y-52806D01*
X67530Y-52836D01*
X67530Y-52911D01*
X67545Y-52941D01*
X67560Y-52956D01*
X67590Y-52971D01*
X67665Y-52971D01*
X67695Y-52956D01*
X67710Y-52941D01*
X67725Y-52911D01*
X67725Y-52836D01*
X67710Y-52806D01*
X67695Y-52791D01*
X67440Y-53091D02*
X67425Y-53106D01*
X67410Y-53136D01*
X67410Y-53211D01*
X67425Y-53241D01*
X67440Y-53256D01*
X67470Y-53271D01*
X67500Y-53271D01*
X67545Y-53256D01*
X67725Y-53076D01*
X67725Y-53271D01*
X70631Y-49863D02*
X70631Y-49758D01*
X70796Y-49758D02*
X70481Y-49758D01*
X70481Y-49908D01*
X70631Y-50133D02*
X70646Y-50178D01*
X70661Y-50193D01*
X70691Y-50208D01*
X70736Y-50208D01*
X70766Y-50193D01*
X70781Y-50178D01*
X70796Y-50148D01*
X70796Y-50028D01*
X70481Y-50028D01*
X70481Y-50133D01*
X70496Y-50163D01*
X70511Y-50178D01*
X70541Y-50193D01*
X70571Y-50193D01*
X70601Y-50178D01*
X70616Y-50163D01*
X70631Y-50133D01*
X70631Y-50028D01*
X70796Y-50508D02*
X70796Y-50328D01*
X70796Y-50418D02*
X70481Y-50418D01*
X70526Y-50388D01*
X70556Y-50358D01*
X70571Y-50328D01*
X70481Y-50793D02*
X70481Y-50643D01*
X70631Y-50628D01*
X70616Y-50643D01*
X70601Y-50673D01*
X70601Y-50748D01*
X70616Y-50778D01*
X70631Y-50793D01*
X70661Y-50808D01*
X70736Y-50808D01*
X70766Y-50793D01*
X70781Y-50778D01*
X70796Y-50748D01*
X70796Y-50673D01*
X70781Y-50643D01*
X70766Y-50628D01*
X67836Y-48603D02*
X67836Y-48498D01*
X68001Y-48498D02*
X67686Y-48498D01*
X67686Y-48648D01*
X67836Y-48873D02*
X67851Y-48918D01*
X67866Y-48933D01*
X67896Y-48948D01*
X67941Y-48948D01*
X67971Y-48933D01*
X67986Y-48918D01*
X68001Y-48888D01*
X68001Y-48768D01*
X67686Y-48768D01*
X67686Y-48873D01*
X67701Y-48903D01*
X67716Y-48918D01*
X67746Y-48933D01*
X67776Y-48933D01*
X67806Y-48918D01*
X67821Y-48903D01*
X67836Y-48873D01*
X67836Y-48768D01*
X68001Y-49248D02*
X68001Y-49068D01*
X68001Y-49158D02*
X67686Y-49158D01*
X67731Y-49128D01*
X67761Y-49098D01*
X67776Y-49068D01*
X67686Y-49518D02*
X67686Y-49458D01*
X67701Y-49428D01*
X67716Y-49413D01*
X67761Y-49383D01*
X67821Y-49368D01*
X67941Y-49368D01*
X67971Y-49383D01*
X67986Y-49398D01*
X68001Y-49428D01*
X68001Y-49488D01*
X67986Y-49518D01*
X67971Y-49533D01*
X67941Y-49548D01*
X67866Y-49548D01*
X67836Y-49533D01*
X67821Y-49518D01*
X67806Y-49488D01*
X67806Y-49428D01*
X67821Y-49398D01*
X67836Y-49383D01*
X67866Y-49368D01*
G54D10*
X69561Y-48790D02*
X69640Y-48790D01*
X69640Y-48914D02*
X69640Y-48678D01*
X69527Y-48678D01*
X69358Y-48790D02*
X69325Y-48802D01*
X69313Y-48813D01*
X69302Y-48835D01*
X69302Y-48869D01*
X69313Y-48892D01*
X69325Y-48903D01*
X69347Y-48914D01*
X69437Y-48914D01*
X69437Y-48678D01*
X69358Y-48678D01*
X69336Y-48689D01*
X69325Y-48700D01*
X69313Y-48723D01*
X69313Y-48745D01*
X69325Y-48768D01*
X69336Y-48779D01*
X69358Y-48790D01*
X69437Y-48790D01*
X69077Y-48914D02*
X69212Y-48914D01*
X69145Y-48914D02*
X69145Y-48678D01*
X69167Y-48712D01*
X69190Y-48734D01*
X69212Y-48745D01*
X68931Y-48678D02*
X68908Y-48678D01*
X68886Y-48689D01*
X68875Y-48700D01*
X68863Y-48723D01*
X68852Y-48768D01*
X68852Y-48824D01*
X68863Y-48869D01*
X68875Y-48892D01*
X68886Y-48903D01*
X68908Y-48914D01*
X68931Y-48914D01*
X68953Y-48903D01*
X68965Y-48892D01*
X68976Y-48869D01*
X68987Y-48824D01*
X68987Y-48768D01*
X68976Y-48723D01*
X68965Y-48700D01*
X68953Y-48689D01*
X68931Y-48678D01*
X70050Y-49488D02*
X70050Y-49409D01*
X70174Y-49409D02*
X69938Y-49409D01*
X69938Y-49521D01*
X70050Y-49690D02*
X70061Y-49724D01*
X70073Y-49735D01*
X70095Y-49746D01*
X70129Y-49746D01*
X70151Y-49735D01*
X70163Y-49724D01*
X70174Y-49701D01*
X70174Y-49611D01*
X69938Y-49611D01*
X69938Y-49690D01*
X69949Y-49713D01*
X69960Y-49724D01*
X69983Y-49735D01*
X70005Y-49735D01*
X70028Y-49724D01*
X70039Y-49713D01*
X70050Y-49690D01*
X70050Y-49611D01*
X69938Y-49825D02*
X69938Y-49983D01*
X70174Y-49881D01*
G54D11*
X72821Y-55907D02*
X72926Y-55907D01*
X72926Y-56072D02*
X72926Y-55757D01*
X72776Y-55757D01*
X72551Y-55907D02*
X72506Y-55922D01*
X72491Y-55937D01*
X72476Y-55967D01*
X72476Y-56012D01*
X72491Y-56042D01*
X72506Y-56057D01*
X72536Y-56072D01*
X72656Y-56072D01*
X72656Y-55757D01*
X72551Y-55757D01*
X72521Y-55772D01*
X72506Y-55787D01*
X72491Y-55817D01*
X72491Y-55847D01*
X72506Y-55877D01*
X72521Y-55892D01*
X72551Y-55907D01*
X72656Y-55907D01*
X72191Y-55757D02*
X72341Y-55757D01*
X72356Y-55907D01*
X72341Y-55892D01*
X72311Y-55877D01*
X72236Y-55877D01*
X72206Y-55892D01*
X72191Y-55907D01*
X72176Y-55937D01*
X72176Y-56012D01*
X72191Y-56042D01*
X72206Y-56057D01*
X72236Y-56072D01*
X72311Y-56072D01*
X72341Y-56057D01*
X72356Y-56042D01*
X68702Y-55761D02*
X68702Y-55656D01*
X68867Y-55656D02*
X68552Y-55656D01*
X68552Y-55806D01*
X68702Y-56031D02*
X68717Y-56076D01*
X68732Y-56091D01*
X68762Y-56106D01*
X68807Y-56106D01*
X68837Y-56091D01*
X68852Y-56076D01*
X68867Y-56046D01*
X68867Y-55926D01*
X68552Y-55926D01*
X68552Y-56031D01*
X68567Y-56061D01*
X68582Y-56076D01*
X68612Y-56091D01*
X68642Y-56091D01*
X68672Y-56076D01*
X68687Y-56061D01*
X68702Y-56031D01*
X68702Y-55926D01*
X68657Y-56376D02*
X68867Y-56376D01*
X68537Y-56301D02*
X68762Y-56226D01*
X68762Y-56421D01*
X70553Y-55564D02*
X70553Y-55459D01*
X70718Y-55459D02*
X70403Y-55459D01*
X70403Y-55609D01*
X70553Y-55834D02*
X70568Y-55879D01*
X70583Y-55894D01*
X70613Y-55909D01*
X70658Y-55909D01*
X70688Y-55894D01*
X70703Y-55879D01*
X70718Y-55849D01*
X70718Y-55729D01*
X70403Y-55729D01*
X70403Y-55834D01*
X70418Y-55864D01*
X70433Y-55879D01*
X70463Y-55894D01*
X70493Y-55894D01*
X70523Y-55879D01*
X70538Y-55864D01*
X70553Y-55834D01*
X70553Y-55729D01*
X70403Y-56014D02*
X70403Y-56209D01*
X70523Y-56104D01*
X70523Y-56149D01*
X70538Y-56179D01*
X70553Y-56194D01*
X70583Y-56209D01*
X70658Y-56209D01*
X70688Y-56194D01*
X70703Y-56179D01*
X70718Y-56149D01*
X70718Y-56059D01*
X70703Y-56029D01*
X70688Y-56014D01*
X70159Y-55013D02*
X70159Y-54908D01*
X70324Y-54908D02*
X70009Y-54908D01*
X70009Y-55058D01*
X70159Y-55283D02*
X70174Y-55328D01*
X70189Y-55343D01*
X70219Y-55358D01*
X70264Y-55358D01*
X70294Y-55343D01*
X70309Y-55328D01*
X70324Y-55298D01*
X70324Y-55178D01*
X70009Y-55178D01*
X70009Y-55283D01*
X70024Y-55313D01*
X70039Y-55328D01*
X70069Y-55343D01*
X70099Y-55343D01*
X70129Y-55328D01*
X70144Y-55313D01*
X70159Y-55283D01*
X70159Y-55178D01*
X70039Y-55478D02*
X70024Y-55493D01*
X70009Y-55523D01*
X70009Y-55598D01*
X70024Y-55628D01*
X70039Y-55643D01*
X70069Y-55658D01*
X70099Y-55658D01*
X70144Y-55643D01*
X70324Y-55463D01*
X70324Y-55658D01*
X73325Y-50946D02*
X73430Y-50946D01*
X73430Y-51111D02*
X73430Y-50796D01*
X73280Y-50796D01*
X73055Y-50946D02*
X73010Y-50961D01*
X72995Y-50976D01*
X72980Y-51006D01*
X72980Y-51051D01*
X72995Y-51081D01*
X73010Y-51096D01*
X73040Y-51111D01*
X73160Y-51111D01*
X73160Y-50796D01*
X73055Y-50796D01*
X73025Y-50811D01*
X73010Y-50826D01*
X72995Y-50856D01*
X72995Y-50886D01*
X73010Y-50916D01*
X73025Y-50931D01*
X73055Y-50946D01*
X73160Y-50946D01*
X72680Y-51111D02*
X72860Y-51111D01*
X72770Y-51111D02*
X72770Y-50796D01*
X72800Y-50841D01*
X72830Y-50871D01*
X72860Y-50886D01*
X72575Y-50796D02*
X72365Y-50796D01*
X72500Y-51111D01*
G54D10*
X71642Y-53655D02*
X71653Y-53667D01*
X71687Y-53678D01*
X71709Y-53678D01*
X71743Y-53667D01*
X71766Y-53644D01*
X71777Y-53622D01*
X71788Y-53577D01*
X71788Y-53543D01*
X71777Y-53498D01*
X71766Y-53475D01*
X71743Y-53453D01*
X71709Y-53442D01*
X71687Y-53442D01*
X71653Y-53453D01*
X71642Y-53464D01*
X71417Y-53678D02*
X71552Y-53678D01*
X71484Y-53678D02*
X71484Y-53442D01*
X71507Y-53475D01*
X71529Y-53498D01*
X71552Y-53509D01*
X71214Y-53520D02*
X71214Y-53678D01*
X71271Y-53430D02*
X71327Y-53599D01*
X71181Y-53599D01*
X70978Y-53442D02*
X71091Y-53442D01*
X71102Y-53554D01*
X71091Y-53543D01*
X71068Y-53532D01*
X71012Y-53532D01*
X70989Y-53543D01*
X70978Y-53554D01*
X70967Y-53577D01*
X70967Y-53633D01*
X70978Y-53655D01*
X70989Y-53667D01*
X71012Y-53678D01*
X71068Y-53678D01*
X71091Y-53667D01*
X71102Y-53655D01*
G54D11*
X73659Y-54073D02*
X73674Y-54088D01*
X73719Y-54103D01*
X73749Y-54103D01*
X73794Y-54088D01*
X73824Y-54058D01*
X73839Y-54028D01*
X73854Y-53968D01*
X73854Y-53923D01*
X73839Y-53863D01*
X73824Y-53833D01*
X73794Y-53803D01*
X73749Y-53788D01*
X73719Y-53788D01*
X73674Y-53803D01*
X73659Y-53818D01*
X73359Y-54103D02*
X73539Y-54103D01*
X73449Y-54103D02*
X73449Y-53788D01*
X73479Y-53833D01*
X73509Y-53863D01*
X73539Y-53878D01*
X73254Y-53788D02*
X73044Y-53788D01*
X73179Y-54103D01*
X72774Y-53788D02*
X72924Y-53788D01*
X72939Y-53938D01*
X72924Y-53923D01*
X72894Y-53908D01*
X72819Y-53908D01*
X72789Y-53923D01*
X72774Y-53938D01*
X72759Y-53968D01*
X72759Y-54043D01*
X72774Y-54073D01*
X72789Y-54088D01*
X72819Y-54103D01*
X72894Y-54103D01*
X72924Y-54088D01*
X72939Y-54073D01*
X72223Y-54253D02*
X72238Y-54238D01*
X72253Y-54193D01*
X72253Y-54163D01*
X72238Y-54118D01*
X72208Y-54088D01*
X72178Y-54073D01*
X72118Y-54058D01*
X72073Y-54058D01*
X72013Y-54073D01*
X71983Y-54088D01*
X71953Y-54118D01*
X71938Y-54163D01*
X71938Y-54193D01*
X71953Y-54238D01*
X71968Y-54253D01*
X72253Y-54553D02*
X72253Y-54373D01*
X72253Y-54463D02*
X71938Y-54463D01*
X71983Y-54433D01*
X72013Y-54403D01*
X72028Y-54373D01*
X72253Y-54703D02*
X72253Y-54763D01*
X72238Y-54793D01*
X72223Y-54808D01*
X72178Y-54838D01*
X72118Y-54853D01*
X71998Y-54853D01*
X71968Y-54838D01*
X71953Y-54823D01*
X71938Y-54793D01*
X71938Y-54733D01*
X71953Y-54703D01*
X71968Y-54688D01*
X71998Y-54673D01*
X72073Y-54673D01*
X72103Y-54688D01*
X72118Y-54703D01*
X72133Y-54733D01*
X72133Y-54793D01*
X72118Y-54823D01*
X72103Y-54838D01*
X72073Y-54853D01*
X71938Y-55138D02*
X71938Y-54988D01*
X72088Y-54973D01*
X72073Y-54988D01*
X72058Y-55018D01*
X72058Y-55093D01*
X72073Y-55123D01*
X72088Y-55138D01*
X72118Y-55153D01*
X72193Y-55153D01*
X72223Y-55138D01*
X72238Y-55123D01*
X72253Y-55093D01*
X72253Y-55018D01*
X72238Y-54988D01*
X72223Y-54973D01*
X70986Y-55256D02*
X70986Y-55151D01*
X71151Y-55151D02*
X70836Y-55151D01*
X70836Y-55301D01*
X70986Y-55526D02*
X71001Y-55571D01*
X71016Y-55586D01*
X71046Y-55601D01*
X71091Y-55601D01*
X71121Y-55586D01*
X71136Y-55571D01*
X71151Y-55541D01*
X71151Y-55421D01*
X70836Y-55421D01*
X70836Y-55526D01*
X70851Y-55556D01*
X70866Y-55571D01*
X70896Y-55586D01*
X70926Y-55586D01*
X70956Y-55571D01*
X70971Y-55556D01*
X70986Y-55526D01*
X70986Y-55421D01*
X71151Y-55901D02*
X71151Y-55721D01*
X71151Y-55811D02*
X70836Y-55811D01*
X70881Y-55781D01*
X70911Y-55751D01*
X70926Y-55721D01*
X70866Y-56021D02*
X70851Y-56036D01*
X70836Y-56066D01*
X70836Y-56141D01*
X70851Y-56171D01*
X70866Y-56186D01*
X70896Y-56201D01*
X70926Y-56201D01*
X70971Y-56186D01*
X71151Y-56006D01*
X71151Y-56201D01*
X68269Y-55249D02*
X68269Y-55144D01*
X68434Y-55144D02*
X68119Y-55144D01*
X68119Y-55294D01*
X68269Y-55519D02*
X68284Y-55564D01*
X68299Y-55579D01*
X68329Y-55594D01*
X68374Y-55594D01*
X68404Y-55579D01*
X68419Y-55564D01*
X68434Y-55534D01*
X68434Y-55414D01*
X68119Y-55414D01*
X68119Y-55519D01*
X68134Y-55549D01*
X68149Y-55564D01*
X68179Y-55579D01*
X68209Y-55579D01*
X68239Y-55564D01*
X68254Y-55549D01*
X68269Y-55519D01*
X68269Y-55414D01*
X68434Y-55894D02*
X68434Y-55714D01*
X68434Y-55804D02*
X68119Y-55804D01*
X68164Y-55774D01*
X68194Y-55744D01*
X68209Y-55714D01*
X72971Y-50553D02*
X73076Y-50553D01*
X73076Y-50718D02*
X73076Y-50403D01*
X72926Y-50403D01*
X72701Y-50553D02*
X72656Y-50568D01*
X72641Y-50583D01*
X72626Y-50613D01*
X72626Y-50658D01*
X72641Y-50688D01*
X72656Y-50703D01*
X72686Y-50718D01*
X72806Y-50718D01*
X72806Y-50403D01*
X72701Y-50403D01*
X72671Y-50418D01*
X72656Y-50433D01*
X72641Y-50463D01*
X72641Y-50493D01*
X72656Y-50523D01*
X72671Y-50538D01*
X72701Y-50553D01*
X72806Y-50553D01*
X72326Y-50718D02*
X72506Y-50718D01*
X72416Y-50718D02*
X72416Y-50403D01*
X72446Y-50448D01*
X72476Y-50478D01*
X72506Y-50493D01*
X72176Y-50718D02*
X72116Y-50718D01*
X72086Y-50703D01*
X72071Y-50688D01*
X72041Y-50643D01*
X72026Y-50583D01*
X72026Y-50463D01*
X72041Y-50433D01*
X72056Y-50418D01*
X72086Y-50403D01*
X72146Y-50403D01*
X72176Y-50418D01*
X72191Y-50433D01*
X72206Y-50463D01*
X72206Y-50538D01*
X72191Y-50568D01*
X72176Y-50583D01*
X72146Y-50598D01*
X72086Y-50598D01*
X72056Y-50583D01*
X72041Y-50568D01*
X72026Y-50538D01*
X71809Y-50412D02*
X71824Y-50427D01*
X71869Y-50442D01*
X71899Y-50442D01*
X71944Y-50427D01*
X71974Y-50397D01*
X71989Y-50367D01*
X72004Y-50307D01*
X72004Y-50262D01*
X71989Y-50202D01*
X71974Y-50172D01*
X71944Y-50142D01*
X71899Y-50127D01*
X71869Y-50127D01*
X71824Y-50142D01*
X71809Y-50157D01*
X71689Y-50157D02*
X71674Y-50142D01*
X71644Y-50127D01*
X71569Y-50127D01*
X71539Y-50142D01*
X71524Y-50157D01*
X71509Y-50187D01*
X71509Y-50217D01*
X71524Y-50262D01*
X71704Y-50442D01*
X71509Y-50442D01*
X71209Y-50442D02*
X71389Y-50442D01*
X71299Y-50442D02*
X71299Y-50127D01*
X71329Y-50172D01*
X71359Y-50202D01*
X71389Y-50217D01*
X70939Y-50232D02*
X70939Y-50442D01*
X71014Y-50112D02*
X71089Y-50337D01*
X70894Y-50337D01*
G54D10*
X71051Y-51451D02*
X71062Y-51462D01*
X71096Y-51473D01*
X71119Y-51473D01*
X71152Y-51462D01*
X71175Y-51439D01*
X71186Y-51417D01*
X71197Y-51372D01*
X71197Y-51338D01*
X71186Y-51293D01*
X71175Y-51271D01*
X71152Y-51248D01*
X71119Y-51237D01*
X71096Y-51237D01*
X71062Y-51248D01*
X71051Y-51259D01*
X70961Y-51259D02*
X70950Y-51248D01*
X70928Y-51237D01*
X70871Y-51237D01*
X70849Y-51248D01*
X70838Y-51259D01*
X70826Y-51282D01*
X70826Y-51304D01*
X70838Y-51338D01*
X70973Y-51473D01*
X70826Y-51473D01*
X70601Y-51473D02*
X70736Y-51473D01*
X70669Y-51473D02*
X70669Y-51237D01*
X70691Y-51271D01*
X70714Y-51293D01*
X70736Y-51304D01*
X70455Y-51237D02*
X70433Y-51237D01*
X70410Y-51248D01*
X70399Y-51259D01*
X70388Y-51282D01*
X70376Y-51327D01*
X70376Y-51383D01*
X70388Y-51428D01*
X70399Y-51451D01*
X70410Y-51462D01*
X70433Y-51473D01*
X70455Y-51473D01*
X70478Y-51462D01*
X70489Y-51451D01*
X70500Y-51428D01*
X70511Y-51383D01*
X70511Y-51327D01*
X70500Y-51282D01*
X70489Y-51259D01*
X70478Y-51248D01*
X70455Y-51237D01*
G54D11*
X72774Y-51616D02*
X72879Y-51616D01*
X72879Y-51781D02*
X72879Y-51466D01*
X72729Y-51466D01*
X72504Y-51616D02*
X72459Y-51631D01*
X72444Y-51646D01*
X72429Y-51676D01*
X72429Y-51721D01*
X72444Y-51751D01*
X72459Y-51766D01*
X72489Y-51781D01*
X72609Y-51781D01*
X72609Y-51466D01*
X72504Y-51466D01*
X72474Y-51481D01*
X72459Y-51496D01*
X72444Y-51526D01*
X72444Y-51556D01*
X72459Y-51586D01*
X72474Y-51601D01*
X72504Y-51616D01*
X72609Y-51616D01*
X72129Y-51781D02*
X72309Y-51781D01*
X72219Y-51781D02*
X72219Y-51466D01*
X72249Y-51511D01*
X72279Y-51541D01*
X72309Y-51556D01*
X71949Y-51601D02*
X71979Y-51586D01*
X71994Y-51571D01*
X72009Y-51541D01*
X72009Y-51526D01*
X71994Y-51496D01*
X71979Y-51481D01*
X71949Y-51466D01*
X71889Y-51466D01*
X71859Y-51481D01*
X71844Y-51496D01*
X71829Y-51526D01*
X71829Y-51541D01*
X71844Y-51571D01*
X71859Y-51586D01*
X71889Y-51601D01*
X71949Y-51601D01*
X71979Y-51616D01*
X71994Y-51631D01*
X72009Y-51661D01*
X72009Y-51721D01*
X71994Y-51751D01*
X71979Y-51766D01*
X71949Y-51781D01*
X71889Y-51781D01*
X71859Y-51766D01*
X71844Y-51751D01*
X71829Y-51721D01*
X71829Y-51661D01*
X71844Y-51631D01*
X71859Y-51616D01*
X71889Y-51601D01*
X67167Y-49587D02*
X67167Y-49482D01*
X67332Y-49482D02*
X67017Y-49482D01*
X67017Y-49632D01*
X67167Y-49857D02*
X67182Y-49902D01*
X67197Y-49917D01*
X67227Y-49932D01*
X67272Y-49932D01*
X67302Y-49917D01*
X67317Y-49902D01*
X67332Y-49872D01*
X67332Y-49752D01*
X67017Y-49752D01*
X67017Y-49857D01*
X67032Y-49887D01*
X67047Y-49902D01*
X67077Y-49917D01*
X67107Y-49917D01*
X67137Y-49902D01*
X67152Y-49887D01*
X67167Y-49857D01*
X67167Y-49752D01*
X67332Y-50232D02*
X67332Y-50052D01*
X67332Y-50142D02*
X67017Y-50142D01*
X67062Y-50112D01*
X67092Y-50082D01*
X67107Y-50052D01*
X67332Y-50532D02*
X67332Y-50352D01*
X67332Y-50442D02*
X67017Y-50442D01*
X67062Y-50412D01*
X67092Y-50382D01*
X67107Y-50352D01*
G54D10*
X67907Y-50562D02*
X67919Y-50551D01*
X67930Y-50517D01*
X67930Y-50494D01*
X67919Y-50461D01*
X67896Y-50438D01*
X67874Y-50427D01*
X67829Y-50416D01*
X67795Y-50416D01*
X67750Y-50427D01*
X67727Y-50438D01*
X67705Y-50461D01*
X67694Y-50494D01*
X67694Y-50517D01*
X67705Y-50551D01*
X67716Y-50562D01*
X67716Y-50652D02*
X67705Y-50663D01*
X67694Y-50686D01*
X67694Y-50742D01*
X67705Y-50764D01*
X67716Y-50776D01*
X67739Y-50787D01*
X67761Y-50787D01*
X67795Y-50776D01*
X67930Y-50641D01*
X67930Y-50787D01*
X67694Y-50933D02*
X67694Y-50956D01*
X67705Y-50978D01*
X67716Y-50989D01*
X67739Y-51001D01*
X67784Y-51012D01*
X67840Y-51012D01*
X67885Y-51001D01*
X67907Y-50989D01*
X67919Y-50978D01*
X67930Y-50956D01*
X67930Y-50933D01*
X67919Y-50911D01*
X67907Y-50899D01*
X67885Y-50888D01*
X67840Y-50877D01*
X67784Y-50877D01*
X67739Y-50888D01*
X67716Y-50899D01*
X67705Y-50911D01*
X67694Y-50933D01*
X67694Y-51214D02*
X67694Y-51169D01*
X67705Y-51147D01*
X67716Y-51136D01*
X67750Y-51113D01*
X67795Y-51102D01*
X67885Y-51102D01*
X67907Y-51113D01*
X67919Y-51124D01*
X67930Y-51147D01*
X67930Y-51192D01*
X67919Y-51214D01*
X67907Y-51226D01*
X67885Y-51237D01*
X67829Y-51237D01*
X67806Y-51226D01*
X67795Y-51214D01*
X67784Y-51192D01*
X67784Y-51147D01*
X67795Y-51124D01*
X67806Y-51113D01*
X67829Y-51102D01*
G54D11*
X71379Y-54816D02*
X71379Y-54711D01*
X71544Y-54711D02*
X71229Y-54711D01*
X71229Y-54861D01*
X71379Y-55086D02*
X71394Y-55131D01*
X71409Y-55146D01*
X71439Y-55161D01*
X71484Y-55161D01*
X71514Y-55146D01*
X71529Y-55131D01*
X71544Y-55101D01*
X71544Y-54981D01*
X71229Y-54981D01*
X71229Y-55086D01*
X71244Y-55116D01*
X71259Y-55131D01*
X71289Y-55146D01*
X71319Y-55146D01*
X71349Y-55131D01*
X71364Y-55116D01*
X71379Y-55086D01*
X71379Y-54981D01*
X71229Y-55431D02*
X71229Y-55371D01*
X71244Y-55341D01*
X71259Y-55326D01*
X71304Y-55296D01*
X71364Y-55281D01*
X71484Y-55281D01*
X71514Y-55296D01*
X71529Y-55311D01*
X71544Y-55341D01*
X71544Y-55401D01*
X71529Y-55431D01*
X71514Y-55446D01*
X71484Y-55461D01*
X71409Y-55461D01*
X71379Y-55446D01*
X71364Y-55431D01*
X71349Y-55401D01*
X71349Y-55341D01*
X71364Y-55311D01*
X71379Y-55296D01*
X71409Y-55281D01*
X67853Y-51411D02*
X67868Y-51396D01*
X67883Y-51351D01*
X67883Y-51321D01*
X67868Y-51276D01*
X67838Y-51246D01*
X67808Y-51231D01*
X67748Y-51216D01*
X67703Y-51216D01*
X67643Y-51231D01*
X67613Y-51246D01*
X67583Y-51276D01*
X67568Y-51321D01*
X67568Y-51351D01*
X67583Y-51396D01*
X67598Y-51411D01*
X67568Y-51516D02*
X67568Y-51711D01*
X67688Y-51606D01*
X67688Y-51651D01*
X67703Y-51681D01*
X67718Y-51696D01*
X67748Y-51711D01*
X67823Y-51711D01*
X67853Y-51696D01*
X67868Y-51681D01*
X67883Y-51651D01*
X67883Y-51561D01*
X67868Y-51531D01*
X67853Y-51516D01*
X67568Y-51996D02*
X67568Y-51846D01*
X67718Y-51831D01*
X67703Y-51846D01*
X67688Y-51876D01*
X67688Y-51951D01*
X67703Y-51981D01*
X67718Y-51996D01*
X67748Y-52011D01*
X67823Y-52011D01*
X67853Y-51996D01*
X67868Y-51981D01*
X67883Y-51951D01*
X67883Y-51876D01*
X67868Y-51846D01*
X67853Y-51831D01*
X67026Y-50703D02*
X67041Y-50688D01*
X67056Y-50643D01*
X67056Y-50613D01*
X67041Y-50568D01*
X67011Y-50538D01*
X66981Y-50523D01*
X66921Y-50508D01*
X66876Y-50508D01*
X66816Y-50523D01*
X66786Y-50538D01*
X66756Y-50568D01*
X66741Y-50613D01*
X66741Y-50643D01*
X66756Y-50688D01*
X66771Y-50703D01*
X66846Y-50973D02*
X67056Y-50973D01*
X66726Y-50898D02*
X66951Y-50823D01*
X66951Y-51017D01*
X66741Y-51107D02*
X66741Y-51317D01*
X67056Y-51182D01*
X68427Y-48603D02*
X68427Y-48498D01*
X68592Y-48498D02*
X68277Y-48498D01*
X68277Y-48648D01*
X68427Y-48873D02*
X68442Y-48918D01*
X68457Y-48933D01*
X68487Y-48948D01*
X68532Y-48948D01*
X68562Y-48933D01*
X68577Y-48918D01*
X68592Y-48888D01*
X68592Y-48768D01*
X68277Y-48768D01*
X68277Y-48873D01*
X68292Y-48903D01*
X68307Y-48918D01*
X68337Y-48933D01*
X68367Y-48933D01*
X68397Y-48918D01*
X68412Y-48903D01*
X68427Y-48873D01*
X68427Y-48768D01*
X68307Y-49068D02*
X68292Y-49083D01*
X68277Y-49113D01*
X68277Y-49188D01*
X68292Y-49218D01*
X68307Y-49233D01*
X68337Y-49248D01*
X68367Y-49248D01*
X68412Y-49233D01*
X68592Y-49053D01*
X68592Y-49248D01*
X68307Y-49368D02*
X68292Y-49383D01*
X68277Y-49413D01*
X68277Y-49488D01*
X68292Y-49518D01*
X68307Y-49533D01*
X68337Y-49548D01*
X68367Y-49548D01*
X68412Y-49533D01*
X68592Y-49353D01*
X68592Y-49548D01*
G54D10*
X69679Y-49086D02*
X69758Y-49086D01*
X69758Y-49209D02*
X69758Y-48973D01*
X69645Y-48973D01*
X69476Y-49086D02*
X69443Y-49097D01*
X69431Y-49108D01*
X69420Y-49131D01*
X69420Y-49164D01*
X69431Y-49187D01*
X69443Y-49198D01*
X69465Y-49209D01*
X69555Y-49209D01*
X69555Y-48973D01*
X69476Y-48973D01*
X69454Y-48984D01*
X69443Y-48996D01*
X69431Y-49018D01*
X69431Y-49041D01*
X69443Y-49063D01*
X69454Y-49074D01*
X69476Y-49086D01*
X69555Y-49086D01*
X69330Y-48996D02*
X69319Y-48984D01*
X69296Y-48973D01*
X69240Y-48973D01*
X69218Y-48984D01*
X69206Y-48996D01*
X69195Y-49018D01*
X69195Y-49041D01*
X69206Y-49074D01*
X69341Y-49209D01*
X69195Y-49209D01*
X69116Y-48973D02*
X68970Y-48973D01*
X69049Y-49063D01*
X69015Y-49063D01*
X68993Y-49074D01*
X68982Y-49086D01*
X68970Y-49108D01*
X68970Y-49164D01*
X68982Y-49187D01*
X68993Y-49198D01*
X69015Y-49209D01*
X69083Y-49209D01*
X69105Y-49198D01*
X69116Y-49187D01*
X71248Y-52080D02*
X71259Y-52092D01*
X71293Y-52103D01*
X71316Y-52103D01*
X71349Y-52092D01*
X71372Y-52069D01*
X71383Y-52047D01*
X71394Y-52002D01*
X71394Y-51968D01*
X71383Y-51923D01*
X71372Y-51901D01*
X71349Y-51878D01*
X71316Y-51867D01*
X71293Y-51867D01*
X71259Y-51878D01*
X71248Y-51889D01*
X71169Y-51867D02*
X71023Y-51867D01*
X71102Y-51957D01*
X71068Y-51957D01*
X71046Y-51968D01*
X71034Y-51979D01*
X71023Y-52002D01*
X71023Y-52058D01*
X71034Y-52080D01*
X71046Y-52092D01*
X71068Y-52103D01*
X71136Y-52103D01*
X71158Y-52092D01*
X71169Y-52080D01*
X70877Y-51867D02*
X70854Y-51867D01*
X70832Y-51878D01*
X70821Y-51889D01*
X70809Y-51912D01*
X70798Y-51957D01*
X70798Y-52013D01*
X70809Y-52058D01*
X70821Y-52080D01*
X70832Y-52092D01*
X70854Y-52103D01*
X70877Y-52103D01*
X70899Y-52092D01*
X70911Y-52080D01*
X70922Y-52058D01*
X70933Y-52013D01*
X70933Y-51957D01*
X70922Y-51912D01*
X70911Y-51889D01*
X70899Y-51878D01*
X70877Y-51867D01*
X70573Y-52103D02*
X70708Y-52103D01*
X70641Y-52103D02*
X70641Y-51867D01*
X70663Y-51901D01*
X70686Y-51923D01*
X70708Y-51934D01*
G54D11*
X72853Y-52206D02*
X72958Y-52206D01*
X72958Y-52371D02*
X72958Y-52056D01*
X72808Y-52056D01*
X72583Y-52206D02*
X72538Y-52221D01*
X72523Y-52236D01*
X72508Y-52266D01*
X72508Y-52311D01*
X72523Y-52341D01*
X72538Y-52356D01*
X72568Y-52371D01*
X72688Y-52371D01*
X72688Y-52056D01*
X72583Y-52056D01*
X72553Y-52071D01*
X72538Y-52086D01*
X72523Y-52116D01*
X72523Y-52146D01*
X72538Y-52176D01*
X72553Y-52191D01*
X72583Y-52206D01*
X72688Y-52206D01*
X72388Y-52086D02*
X72373Y-52071D01*
X72343Y-52056D01*
X72268Y-52056D01*
X72238Y-52071D01*
X72223Y-52086D01*
X72208Y-52116D01*
X72208Y-52146D01*
X72223Y-52191D01*
X72403Y-52371D01*
X72208Y-52371D01*
X71938Y-52161D02*
X71938Y-52371D01*
X72013Y-52041D02*
X72088Y-52266D01*
X71893Y-52266D01*
X69900Y-55080D02*
X69915Y-55065D01*
X69930Y-55020D01*
X69930Y-54990D01*
X69915Y-54945D01*
X69885Y-54915D01*
X69855Y-54900D01*
X69795Y-54885D01*
X69750Y-54885D01*
X69690Y-54900D01*
X69660Y-54915D01*
X69630Y-54945D01*
X69615Y-54990D01*
X69615Y-55020D01*
X69630Y-55065D01*
X69645Y-55080D01*
X69615Y-55185D02*
X69615Y-55380D01*
X69735Y-55275D01*
X69735Y-55320D01*
X69750Y-55350D01*
X69765Y-55365D01*
X69795Y-55380D01*
X69870Y-55380D01*
X69900Y-55365D01*
X69915Y-55350D01*
X69930Y-55320D01*
X69930Y-55230D01*
X69915Y-55200D01*
X69900Y-55185D01*
X69615Y-55575D02*
X69615Y-55605D01*
X69630Y-55635D01*
X69645Y-55650D01*
X69675Y-55665D01*
X69735Y-55680D01*
X69810Y-55680D01*
X69870Y-55665D01*
X69900Y-55650D01*
X69915Y-55635D01*
X69930Y-55605D01*
X69930Y-55575D01*
X69915Y-55545D01*
X69900Y-55530D01*
X69870Y-55515D01*
X69810Y-55500D01*
X69735Y-55500D01*
X69675Y-55515D01*
X69645Y-55530D01*
X69630Y-55545D01*
X69615Y-55575D01*
X69645Y-55800D02*
X69630Y-55815D01*
X69615Y-55845D01*
X69615Y-55920D01*
X69630Y-55950D01*
X69645Y-55965D01*
X69675Y-55980D01*
X69705Y-55980D01*
X69750Y-55965D01*
X69930Y-55785D01*
X69930Y-55980D01*
X77371Y-51884D02*
X77221Y-51779D01*
X77371Y-51704D02*
X77056Y-51704D01*
X77056Y-51824D01*
X77071Y-51854D01*
X77086Y-51869D01*
X77116Y-51884D01*
X77161Y-51884D01*
X77191Y-51869D01*
X77206Y-51854D01*
X77221Y-51824D01*
X77221Y-51704D01*
X77161Y-52154D02*
X77371Y-52154D01*
X77041Y-52079D02*
X77266Y-52004D01*
X77266Y-52199D01*
X77161Y-52454D02*
X77371Y-52454D01*
X77041Y-52379D02*
X77266Y-52304D01*
X77266Y-52499D01*
X75628Y-48837D02*
X75643Y-48852D01*
X75688Y-48867D01*
X75718Y-48867D01*
X75763Y-48852D01*
X75793Y-48822D01*
X75808Y-48792D01*
X75823Y-48732D01*
X75823Y-48687D01*
X75808Y-48627D01*
X75793Y-48597D01*
X75763Y-48567D01*
X75718Y-48552D01*
X75688Y-48552D01*
X75643Y-48567D01*
X75628Y-48582D01*
X75508Y-48582D02*
X75493Y-48567D01*
X75463Y-48552D01*
X75388Y-48552D01*
X75358Y-48567D01*
X75343Y-48582D01*
X75328Y-48612D01*
X75328Y-48642D01*
X75343Y-48687D01*
X75523Y-48867D01*
X75328Y-48867D01*
X75223Y-48552D02*
X75028Y-48552D01*
X75133Y-48672D01*
X75088Y-48672D01*
X75058Y-48687D01*
X75043Y-48702D01*
X75028Y-48732D01*
X75028Y-48807D01*
X75043Y-48837D01*
X75058Y-48852D01*
X75088Y-48867D01*
X75178Y-48867D01*
X75208Y-48852D01*
X75223Y-48837D01*
X74908Y-48582D02*
X74893Y-48567D01*
X74863Y-48552D01*
X74788Y-48552D01*
X74758Y-48567D01*
X74743Y-48582D01*
X74728Y-48612D01*
X74728Y-48642D01*
X74743Y-48687D01*
X74923Y-48867D01*
X74728Y-48867D01*
X77202Y-54743D02*
X77217Y-54758D01*
X77262Y-54773D01*
X77292Y-54773D01*
X77337Y-54758D01*
X77367Y-54728D01*
X77382Y-54698D01*
X77397Y-54638D01*
X77397Y-54593D01*
X77382Y-54533D01*
X77367Y-54503D01*
X77337Y-54473D01*
X77292Y-54458D01*
X77262Y-54458D01*
X77217Y-54473D01*
X77202Y-54488D01*
X77082Y-54488D02*
X77067Y-54473D01*
X77037Y-54458D01*
X76962Y-54458D01*
X76932Y-54473D01*
X76917Y-54488D01*
X76902Y-54518D01*
X76902Y-54548D01*
X76917Y-54593D01*
X77097Y-54773D01*
X76902Y-54773D01*
X76782Y-54488D02*
X76767Y-54473D01*
X76737Y-54458D01*
X76662Y-54458D01*
X76632Y-54473D01*
X76617Y-54488D01*
X76602Y-54518D01*
X76602Y-54548D01*
X76617Y-54593D01*
X76797Y-54773D01*
X76602Y-54773D01*
X76302Y-54773D02*
X76482Y-54773D01*
X76392Y-54773D02*
X76392Y-54458D01*
X76422Y-54503D01*
X76452Y-54533D01*
X76482Y-54548D01*
X76593Y-52364D02*
X76608Y-52349D01*
X76623Y-52304D01*
X76623Y-52274D01*
X76608Y-52229D01*
X76578Y-52199D01*
X76548Y-52184D01*
X76488Y-52169D01*
X76443Y-52169D01*
X76383Y-52184D01*
X76353Y-52199D01*
X76323Y-52229D01*
X76308Y-52274D01*
X76308Y-52304D01*
X76323Y-52349D01*
X76338Y-52364D01*
X76338Y-52484D02*
X76323Y-52499D01*
X76308Y-52529D01*
X76308Y-52604D01*
X76323Y-52634D01*
X76338Y-52649D01*
X76368Y-52664D01*
X76398Y-52664D01*
X76443Y-52649D01*
X76623Y-52469D01*
X76623Y-52664D01*
X76338Y-52784D02*
X76323Y-52799D01*
X76308Y-52829D01*
X76308Y-52904D01*
X76323Y-52934D01*
X76338Y-52949D01*
X76368Y-52964D01*
X76398Y-52964D01*
X76443Y-52949D01*
X76623Y-52769D01*
X76623Y-52964D01*
X76308Y-53158D02*
X76308Y-53188D01*
X76323Y-53218D01*
X76338Y-53233D01*
X76368Y-53248D01*
X76428Y-53263D01*
X76503Y-53263D01*
X76563Y-53248D01*
X76593Y-53233D01*
X76608Y-53218D01*
X76623Y-53188D01*
X76623Y-53158D01*
X76608Y-53128D01*
X76593Y-53113D01*
X76563Y-53098D01*
X76503Y-53083D01*
X76428Y-53083D01*
X76368Y-53098D01*
X76338Y-53113D01*
X76323Y-53128D01*
X76308Y-53158D01*
G54D10*
X71394Y-52682D02*
X71282Y-52604D01*
X71394Y-52547D02*
X71158Y-52547D01*
X71158Y-52637D01*
X71169Y-52660D01*
X71181Y-52671D01*
X71203Y-52682D01*
X71237Y-52682D01*
X71259Y-52671D01*
X71271Y-52660D01*
X71282Y-52637D01*
X71282Y-52547D01*
X71181Y-52772D02*
X71169Y-52784D01*
X71158Y-52806D01*
X71158Y-52862D01*
X71169Y-52885D01*
X71181Y-52896D01*
X71203Y-52907D01*
X71226Y-52907D01*
X71259Y-52896D01*
X71394Y-52761D01*
X71394Y-52907D01*
X71158Y-52986D02*
X71158Y-53132D01*
X71248Y-53053D01*
X71248Y-53087D01*
X71259Y-53110D01*
X71271Y-53121D01*
X71293Y-53132D01*
X71349Y-53132D01*
X71372Y-53121D01*
X71383Y-53110D01*
X71394Y-53087D01*
X71394Y-53020D01*
X71383Y-52997D01*
X71372Y-52986D01*
G54D11*
X66544Y-49947D02*
X66394Y-49842D01*
X66544Y-49767D02*
X66229Y-49767D01*
X66229Y-49887D01*
X66244Y-49917D01*
X66259Y-49932D01*
X66289Y-49947D01*
X66334Y-49947D01*
X66364Y-49932D01*
X66379Y-49917D01*
X66394Y-49887D01*
X66394Y-49767D01*
X66229Y-50052D02*
X66229Y-50247D01*
X66349Y-50142D01*
X66349Y-50187D01*
X66364Y-50217D01*
X66379Y-50232D01*
X66409Y-50247D01*
X66484Y-50247D01*
X66514Y-50232D01*
X66529Y-50217D01*
X66544Y-50187D01*
X66544Y-50097D01*
X66529Y-50067D01*
X66514Y-50052D01*
X71938Y-55498D02*
X71788Y-55393D01*
X71938Y-55318D02*
X71623Y-55318D01*
X71623Y-55438D01*
X71638Y-55468D01*
X71653Y-55483D01*
X71683Y-55498D01*
X71728Y-55498D01*
X71758Y-55483D01*
X71773Y-55468D01*
X71788Y-55438D01*
X71788Y-55318D01*
X71653Y-55618D02*
X71638Y-55633D01*
X71623Y-55663D01*
X71623Y-55738D01*
X71638Y-55768D01*
X71653Y-55783D01*
X71683Y-55798D01*
X71713Y-55798D01*
X71758Y-55783D01*
X71938Y-55603D01*
X71938Y-55798D01*
X66820Y-53727D02*
X66670Y-53622D01*
X66820Y-53547D02*
X66505Y-53547D01*
X66505Y-53667D01*
X66520Y-53697D01*
X66535Y-53712D01*
X66565Y-53727D01*
X66610Y-53727D01*
X66640Y-53712D01*
X66655Y-53697D01*
X66670Y-53667D01*
X66670Y-53547D01*
X66610Y-53997D02*
X66820Y-53997D01*
X66490Y-53922D02*
X66715Y-53847D01*
X66715Y-54041D01*
G54D10*
X70511Y-54386D02*
X70590Y-54274D01*
X70646Y-54386D02*
X70646Y-54150D01*
X70556Y-54150D01*
X70534Y-54161D01*
X70523Y-54173D01*
X70511Y-54195D01*
X70511Y-54229D01*
X70523Y-54251D01*
X70534Y-54263D01*
X70556Y-54274D01*
X70646Y-54274D01*
X70309Y-54150D02*
X70354Y-54150D01*
X70376Y-54161D01*
X70388Y-54173D01*
X70410Y-54206D01*
X70421Y-54251D01*
X70421Y-54341D01*
X70410Y-54364D01*
X70399Y-54375D01*
X70376Y-54386D01*
X70331Y-54386D01*
X70309Y-54375D01*
X70298Y-54364D01*
X70286Y-54341D01*
X70286Y-54285D01*
X70298Y-54263D01*
X70309Y-54251D01*
X70331Y-54240D01*
X70376Y-54240D01*
X70399Y-54251D01*
X70410Y-54263D01*
X70421Y-54285D01*
X79797Y-54640D02*
X79808Y-54651D01*
X79842Y-54662D01*
X79865Y-54662D01*
X79898Y-54651D01*
X79921Y-54628D01*
X79932Y-54606D01*
X79943Y-54561D01*
X79943Y-54527D01*
X79932Y-54482D01*
X79921Y-54460D01*
X79898Y-54437D01*
X79865Y-54426D01*
X79842Y-54426D01*
X79808Y-54437D01*
X79797Y-54448D01*
X79572Y-54662D02*
X79707Y-54662D01*
X79640Y-54662D02*
X79640Y-54426D01*
X79662Y-54460D01*
X79685Y-54482D01*
X79707Y-54493D01*
X79370Y-54505D02*
X79370Y-54662D01*
X79426Y-54415D02*
X79482Y-54583D01*
X79336Y-54583D01*
G54D11*
X78588Y-53050D02*
X78603Y-53065D01*
X78648Y-53080D01*
X78678Y-53080D01*
X78723Y-53065D01*
X78753Y-53035D01*
X78768Y-53005D01*
X78783Y-52945D01*
X78783Y-52900D01*
X78768Y-52840D01*
X78753Y-52810D01*
X78723Y-52780D01*
X78678Y-52765D01*
X78648Y-52765D01*
X78603Y-52780D01*
X78588Y-52795D01*
X78288Y-53080D02*
X78468Y-53080D01*
X78378Y-53080D02*
X78378Y-52765D01*
X78408Y-52810D01*
X78438Y-52840D01*
X78468Y-52855D01*
X78003Y-52765D02*
X78153Y-52765D01*
X78168Y-52915D01*
X78153Y-52900D01*
X78123Y-52885D01*
X78048Y-52885D01*
X78018Y-52900D01*
X78003Y-52915D01*
X77988Y-52945D01*
X77988Y-53020D01*
X78003Y-53050D01*
X78018Y-53065D01*
X78048Y-53080D01*
X78123Y-53080D01*
X78153Y-53065D01*
X78168Y-53050D01*
X78588Y-54191D02*
X78603Y-54206D01*
X78648Y-54221D01*
X78678Y-54221D01*
X78723Y-54206D01*
X78753Y-54176D01*
X78768Y-54146D01*
X78783Y-54086D01*
X78783Y-54041D01*
X78768Y-53982D01*
X78753Y-53952D01*
X78723Y-53922D01*
X78678Y-53907D01*
X78648Y-53907D01*
X78603Y-53922D01*
X78588Y-53937D01*
X78288Y-54221D02*
X78468Y-54221D01*
X78378Y-54221D02*
X78378Y-53907D01*
X78408Y-53952D01*
X78438Y-53982D01*
X78468Y-53997D01*
X78183Y-53907D02*
X77988Y-53907D01*
X78093Y-54026D01*
X78048Y-54026D01*
X78018Y-54041D01*
X78003Y-54056D01*
X77988Y-54086D01*
X77988Y-54161D01*
X78003Y-54191D01*
X78018Y-54206D01*
X78048Y-54221D01*
X78138Y-54221D01*
X78168Y-54206D01*
X78183Y-54191D01*
G54D10*
X69505Y-49926D02*
X69392Y-49848D01*
X69505Y-49791D02*
X69268Y-49791D01*
X69268Y-49881D01*
X69280Y-49904D01*
X69291Y-49915D01*
X69313Y-49926D01*
X69347Y-49926D01*
X69370Y-49915D01*
X69381Y-49904D01*
X69392Y-49881D01*
X69392Y-49791D01*
X69347Y-50129D02*
X69505Y-50129D01*
X69257Y-50073D02*
X69426Y-50016D01*
X69426Y-50163D01*
X69505Y-50376D02*
X69505Y-50241D01*
X69505Y-50309D02*
X69268Y-50309D01*
X69302Y-50286D01*
X69325Y-50264D01*
X69336Y-50241D01*
G54D11*
X73352Y-53631D02*
X73457Y-53481D01*
X73532Y-53631D02*
X73532Y-53316D01*
X73412Y-53316D01*
X73382Y-53331D01*
X73367Y-53346D01*
X73352Y-53376D01*
X73352Y-53421D01*
X73367Y-53451D01*
X73382Y-53466D01*
X73412Y-53481D01*
X73532Y-53481D01*
X73082Y-53421D02*
X73082Y-53631D01*
X73157Y-53301D02*
X73232Y-53526D01*
X73037Y-53526D01*
X72932Y-53346D02*
X72917Y-53331D01*
X72887Y-53316D01*
X72812Y-53316D01*
X72782Y-53331D01*
X72767Y-53346D01*
X72752Y-53376D01*
X72752Y-53406D01*
X72767Y-53451D01*
X72947Y-53631D01*
X72752Y-53631D01*
G54D10*
X70922Y-53785D02*
X70809Y-53706D01*
X70922Y-53650D02*
X70686Y-53650D01*
X70686Y-53740D01*
X70697Y-53762D01*
X70708Y-53773D01*
X70731Y-53785D01*
X70764Y-53785D01*
X70787Y-53773D01*
X70798Y-53762D01*
X70809Y-53740D01*
X70809Y-53650D01*
X70764Y-53987D02*
X70922Y-53987D01*
X70674Y-53931D02*
X70843Y-53875D01*
X70843Y-54021D01*
X70686Y-54156D02*
X70686Y-54178D01*
X70697Y-54201D01*
X70708Y-54212D01*
X70731Y-54223D01*
X70776Y-54235D01*
X70832Y-54235D01*
X70877Y-54223D01*
X70899Y-54212D01*
X70911Y-54201D01*
X70922Y-54178D01*
X70922Y-54156D01*
X70911Y-54133D01*
X70899Y-54122D01*
X70877Y-54111D01*
X70832Y-54100D01*
X70776Y-54100D01*
X70731Y-54111D01*
X70708Y-54122D01*
X70697Y-54133D01*
X70686Y-54156D01*
G54D11*
X77328Y-56938D02*
X77433Y-56788D01*
X77508Y-56938D02*
X77508Y-56623D01*
X77388Y-56623D01*
X77358Y-56638D01*
X77343Y-56653D01*
X77328Y-56683D01*
X77328Y-56728D01*
X77343Y-56758D01*
X77358Y-56773D01*
X77388Y-56788D01*
X77508Y-56788D01*
X77223Y-56623D02*
X77028Y-56623D01*
X77133Y-56743D01*
X77088Y-56743D01*
X77058Y-56758D01*
X77043Y-56773D01*
X77028Y-56803D01*
X77028Y-56878D01*
X77043Y-56908D01*
X77058Y-56923D01*
X77088Y-56938D01*
X77178Y-56938D01*
X77208Y-56923D01*
X77223Y-56908D01*
X76878Y-56938D02*
X76818Y-56938D01*
X76788Y-56923D01*
X76773Y-56908D01*
X76743Y-56863D01*
X76728Y-56803D01*
X76728Y-56683D01*
X76743Y-56653D01*
X76758Y-56638D01*
X76788Y-56623D01*
X76848Y-56623D01*
X76878Y-56638D01*
X76893Y-56653D01*
X76908Y-56683D01*
X76908Y-56758D01*
X76893Y-56788D01*
X76878Y-56803D01*
X76848Y-56818D01*
X76788Y-56818D01*
X76758Y-56803D01*
X76743Y-56788D01*
X76728Y-56758D01*
X79289Y-49703D02*
X79304Y-49718D01*
X79349Y-49733D01*
X79379Y-49733D01*
X79424Y-49718D01*
X79454Y-49688D01*
X79469Y-49658D01*
X79484Y-49598D01*
X79484Y-49553D01*
X79469Y-49493D01*
X79454Y-49463D01*
X79424Y-49433D01*
X79379Y-49418D01*
X79349Y-49418D01*
X79304Y-49433D01*
X79289Y-49448D01*
X79169Y-49448D02*
X79154Y-49433D01*
X79124Y-49418D01*
X79049Y-49418D01*
X79019Y-49433D01*
X79004Y-49448D01*
X78989Y-49478D01*
X78989Y-49508D01*
X79004Y-49553D01*
X79184Y-49733D01*
X78989Y-49733D01*
X78884Y-49418D02*
X78689Y-49418D01*
X78794Y-49538D01*
X78749Y-49538D01*
X78719Y-49553D01*
X78704Y-49568D01*
X78689Y-49598D01*
X78689Y-49673D01*
X78704Y-49703D01*
X78719Y-49718D01*
X78749Y-49733D01*
X78839Y-49733D01*
X78869Y-49718D01*
X78884Y-49703D01*
X78419Y-49418D02*
X78479Y-49418D01*
X78509Y-49433D01*
X78524Y-49448D01*
X78554Y-49493D01*
X78569Y-49553D01*
X78569Y-49673D01*
X78554Y-49703D01*
X78539Y-49718D01*
X78509Y-49733D01*
X78449Y-49733D01*
X78419Y-49718D01*
X78404Y-49703D01*
X78389Y-49673D01*
X78389Y-49598D01*
X78404Y-49568D01*
X78419Y-49553D01*
X78449Y-49538D01*
X78509Y-49538D01*
X78539Y-49553D01*
X78554Y-49568D01*
X78569Y-49598D01*
X76554Y-50553D02*
X76569Y-50538D01*
X76584Y-50493D01*
X76584Y-50463D01*
X76569Y-50418D01*
X76539Y-50388D01*
X76509Y-50373D01*
X76449Y-50358D01*
X76404Y-50358D01*
X76344Y-50373D01*
X76314Y-50388D01*
X76284Y-50418D01*
X76269Y-50463D01*
X76269Y-50493D01*
X76284Y-50538D01*
X76299Y-50553D01*
X76299Y-50673D02*
X76284Y-50688D01*
X76269Y-50718D01*
X76269Y-50793D01*
X76284Y-50823D01*
X76299Y-50838D01*
X76329Y-50853D01*
X76359Y-50853D01*
X76404Y-50838D01*
X76584Y-50658D01*
X76584Y-50853D01*
X76269Y-50958D02*
X76269Y-51152D01*
X76389Y-51047D01*
X76389Y-51092D01*
X76404Y-51122D01*
X76419Y-51137D01*
X76449Y-51152D01*
X76524Y-51152D01*
X76554Y-51137D01*
X76569Y-51122D01*
X76584Y-51092D01*
X76584Y-51002D01*
X76569Y-50973D01*
X76554Y-50958D01*
X76584Y-51452D02*
X76584Y-51272D01*
X76584Y-51362D02*
X76269Y-51362D01*
X76314Y-51332D01*
X76344Y-51302D01*
X76359Y-51272D01*
X77084Y-53719D02*
X77099Y-53734D01*
X77144Y-53749D01*
X77174Y-53749D01*
X77219Y-53734D01*
X77249Y-53704D01*
X77264Y-53674D01*
X77279Y-53614D01*
X77279Y-53569D01*
X77264Y-53509D01*
X77249Y-53479D01*
X77219Y-53449D01*
X77174Y-53434D01*
X77144Y-53434D01*
X77099Y-53449D01*
X77084Y-53464D01*
X76964Y-53464D02*
X76949Y-53449D01*
X76919Y-53434D01*
X76844Y-53434D01*
X76814Y-53449D01*
X76799Y-53464D01*
X76784Y-53494D01*
X76784Y-53524D01*
X76799Y-53569D01*
X76979Y-53749D01*
X76784Y-53749D01*
X76664Y-53464D02*
X76649Y-53449D01*
X76619Y-53434D01*
X76544Y-53434D01*
X76514Y-53449D01*
X76499Y-53464D01*
X76484Y-53494D01*
X76484Y-53524D01*
X76499Y-53569D01*
X76679Y-53749D01*
X76484Y-53749D01*
X76364Y-53464D02*
X76349Y-53449D01*
X76319Y-53434D01*
X76244Y-53434D01*
X76214Y-53449D01*
X76199Y-53464D01*
X76184Y-53494D01*
X76184Y-53524D01*
X76199Y-53569D01*
X76379Y-53749D01*
X76184Y-53749D01*
X75403Y-49287D02*
X75658Y-49287D01*
X75688Y-49302D01*
X75703Y-49317D01*
X75718Y-49347D01*
X75718Y-49407D01*
X75703Y-49437D01*
X75688Y-49452D01*
X75658Y-49467D01*
X75403Y-49467D01*
X75718Y-49632D02*
X75718Y-49692D01*
X75703Y-49722D01*
X75688Y-49737D01*
X75643Y-49767D01*
X75583Y-49782D01*
X75463Y-49782D01*
X75433Y-49767D01*
X75418Y-49752D01*
X75403Y-49722D01*
X75403Y-49662D01*
X75418Y-49632D01*
X75433Y-49617D01*
X75463Y-49602D01*
X75538Y-49602D01*
X75568Y-49617D01*
X75583Y-49632D01*
X75598Y-49662D01*
X75598Y-49722D01*
X75583Y-49752D01*
X75568Y-49767D01*
X75538Y-49782D01*
G54D12*
X73349Y-51571D02*
X73349Y-51751D01*
X73741Y-51661D02*
X73349Y-51661D01*
X73349Y-51990D02*
X73349Y-51930D01*
X73368Y-51900D01*
X73386Y-51885D01*
X73442Y-51855D01*
X73517Y-51840D01*
X73666Y-51840D01*
X73704Y-51855D01*
X73722Y-51870D01*
X73741Y-51900D01*
X73741Y-51960D01*
X73722Y-51990D01*
X73704Y-52005D01*
X73666Y-52020D01*
X73573Y-52020D01*
X73536Y-52005D01*
X73517Y-51990D01*
X73498Y-51960D01*
X73498Y-51900D01*
X73517Y-51870D01*
X73536Y-51855D01*
X73573Y-51840D01*
G54D16*
X73742Y-50905D02*
X73836Y-50905D01*
X73798Y-50830D02*
X73836Y-50905D01*
X73798Y-50980D01*
X73910Y-50860D02*
X73836Y-50905D01*
X73910Y-50950D01*
G54D11*
X64435Y-57883D02*
X64435Y-58108D01*
X64450Y-58153D01*
X64480Y-58183D01*
X64525Y-58198D01*
X64555Y-58198D01*
X64120Y-58198D02*
X64300Y-58198D01*
X64210Y-58198D02*
X64210Y-57883D01*
X64240Y-57928D01*
X64270Y-57958D01*
X64300Y-57973D01*
X74930Y-49838D02*
X74930Y-50018D01*
X75245Y-49928D02*
X74930Y-49928D01*
X75035Y-50258D02*
X75245Y-50258D01*
X74915Y-50183D02*
X75140Y-50108D01*
X75140Y-50303D01*
X71934Y-49940D02*
X71949Y-49955D01*
X71994Y-49970D01*
X72024Y-49970D01*
X72069Y-49955D01*
X72099Y-49925D01*
X72114Y-49895D01*
X72129Y-49835D01*
X72129Y-49790D01*
X72114Y-49730D01*
X72099Y-49700D01*
X72069Y-49670D01*
X72024Y-49655D01*
X71994Y-49655D01*
X71949Y-49670D01*
X71934Y-49685D01*
X71634Y-49970D02*
X71814Y-49970D01*
X71724Y-49970D02*
X71724Y-49655D01*
X71754Y-49700D01*
X71784Y-49730D01*
X71814Y-49745D01*
X71334Y-49970D02*
X71514Y-49970D01*
X71424Y-49970D02*
X71424Y-49655D01*
X71454Y-49700D01*
X71484Y-49730D01*
X71514Y-49745D01*
X71895Y-48936D02*
X71910Y-48951D01*
X71955Y-48966D01*
X71985Y-48966D01*
X72030Y-48951D01*
X72060Y-48921D01*
X72075Y-48891D01*
X72090Y-48831D01*
X72090Y-48786D01*
X72075Y-48726D01*
X72060Y-48696D01*
X72030Y-48666D01*
X71985Y-48651D01*
X71955Y-48651D01*
X71910Y-48666D01*
X71895Y-48681D01*
X71595Y-48966D02*
X71775Y-48966D01*
X71685Y-48966D02*
X71685Y-48651D01*
X71715Y-48696D01*
X71745Y-48726D01*
X71775Y-48741D01*
X71475Y-48681D02*
X71460Y-48666D01*
X71430Y-48651D01*
X71355Y-48651D01*
X71325Y-48666D01*
X71310Y-48681D01*
X71295Y-48711D01*
X71295Y-48741D01*
X71310Y-48786D01*
X71490Y-48966D01*
X71295Y-48966D01*
X70993Y-49258D02*
X70993Y-49108D01*
X70678Y-49108D01*
X70678Y-49513D02*
X70678Y-49363D01*
X70828Y-49348D01*
X70813Y-49363D01*
X70798Y-49393D01*
X70798Y-49468D01*
X70813Y-49498D01*
X70828Y-49513D01*
X70858Y-49528D01*
X70933Y-49528D01*
X70963Y-49513D01*
X70978Y-49498D01*
X70993Y-49468D01*
X70993Y-49393D01*
X70978Y-49363D01*
X70963Y-49348D01*
X72489Y-48727D02*
X72489Y-48577D01*
X72174Y-48577D01*
X72174Y-48967D02*
X72174Y-48907D01*
X72189Y-48877D01*
X72204Y-48862D01*
X72249Y-48832D01*
X72309Y-48817D01*
X72429Y-48817D01*
X72459Y-48832D01*
X72474Y-48847D01*
X72489Y-48877D01*
X72489Y-48937D01*
X72474Y-48967D01*
X72459Y-48982D01*
X72429Y-48997D01*
X72354Y-48997D01*
X72324Y-48982D01*
X72309Y-48967D01*
X72294Y-48937D01*
X72294Y-48877D01*
X72309Y-48847D01*
X72324Y-48832D01*
X72354Y-48817D01*
X79565Y-50565D02*
X79580Y-50550D01*
X79595Y-50505D01*
X79595Y-50475D01*
X79580Y-50430D01*
X79550Y-50400D01*
X79520Y-50385D01*
X79461Y-50370D01*
X79416Y-50370D01*
X79356Y-50385D01*
X79326Y-50400D01*
X79296Y-50430D01*
X79281Y-50475D01*
X79281Y-50505D01*
X79296Y-50550D01*
X79311Y-50565D01*
X79595Y-50865D02*
X79595Y-50685D01*
X79595Y-50775D02*
X79281Y-50775D01*
X79326Y-50745D01*
X79356Y-50715D01*
X79371Y-50685D01*
X79595Y-51015D02*
X79595Y-51075D01*
X79580Y-51105D01*
X79565Y-51120D01*
X79520Y-51150D01*
X79461Y-51165D01*
X79341Y-51165D01*
X79311Y-51150D01*
X79296Y-51135D01*
X79281Y-51105D01*
X79281Y-51045D01*
X79296Y-51015D01*
X79311Y-51000D01*
X79341Y-50985D01*
X79416Y-50985D01*
X79446Y-51000D01*
X79461Y-51015D01*
X79476Y-51045D01*
X79476Y-51105D01*
X79461Y-51135D01*
X79446Y-51150D01*
X79416Y-51165D01*
X78502Y-50545D02*
X78517Y-50530D01*
X78532Y-50485D01*
X78532Y-50455D01*
X78517Y-50410D01*
X78488Y-50380D01*
X78458Y-50365D01*
X78398Y-50350D01*
X78353Y-50350D01*
X78293Y-50365D01*
X78263Y-50380D01*
X78233Y-50410D01*
X78218Y-50455D01*
X78218Y-50485D01*
X78233Y-50530D01*
X78248Y-50545D01*
X78532Y-50845D02*
X78532Y-50665D01*
X78532Y-50755D02*
X78218Y-50755D01*
X78263Y-50725D01*
X78293Y-50695D01*
X78308Y-50665D01*
X78353Y-51025D02*
X78338Y-50995D01*
X78323Y-50980D01*
X78293Y-50965D01*
X78278Y-50965D01*
X78248Y-50980D01*
X78233Y-50995D01*
X78218Y-51025D01*
X78218Y-51085D01*
X78233Y-51115D01*
X78248Y-51130D01*
X78278Y-51145D01*
X78293Y-51145D01*
X78323Y-51130D01*
X78338Y-51115D01*
X78353Y-51085D01*
X78353Y-51025D01*
X78368Y-50995D01*
X78383Y-50980D01*
X78413Y-50965D01*
X78473Y-50965D01*
X78502Y-50980D01*
X78517Y-50995D01*
X78532Y-51025D01*
X78532Y-51085D01*
X78517Y-51115D01*
X78502Y-51130D01*
X78473Y-51145D01*
X78413Y-51145D01*
X78383Y-51130D01*
X78368Y-51115D01*
X78353Y-51085D01*
X80009Y-49895D02*
X80009Y-49745D01*
X79694Y-49745D01*
X80009Y-50165D02*
X80009Y-49985D01*
X80009Y-50075D02*
X79694Y-50075D01*
X79739Y-50045D01*
X79769Y-50015D01*
X79784Y-49985D01*
X79799Y-50435D02*
X80009Y-50435D01*
X79679Y-50360D02*
X79904Y-50285D01*
X79904Y-50480D01*
X76056Y-55825D02*
X76071Y-55840D01*
X76116Y-55855D01*
X76146Y-55855D01*
X76191Y-55840D01*
X76221Y-55810D01*
X76236Y-55780D01*
X76251Y-55720D01*
X76251Y-55675D01*
X76236Y-55615D01*
X76221Y-55585D01*
X76191Y-55555D01*
X76146Y-55540D01*
X76116Y-55540D01*
X76071Y-55555D01*
X76056Y-55570D01*
X75786Y-55645D02*
X75786Y-55855D01*
X75861Y-55525D02*
X75936Y-55750D01*
X75741Y-55750D01*
X74526Y-56089D02*
X74541Y-56074D01*
X74556Y-56029D01*
X74556Y-55999D01*
X74541Y-55954D01*
X74511Y-55924D01*
X74481Y-55909D01*
X74421Y-55894D01*
X74376Y-55894D01*
X74316Y-55909D01*
X74286Y-55924D01*
X74256Y-55954D01*
X74241Y-55999D01*
X74241Y-56029D01*
X74256Y-56074D01*
X74271Y-56089D01*
X74376Y-56269D02*
X74361Y-56239D01*
X74346Y-56224D01*
X74316Y-56209D01*
X74301Y-56209D01*
X74271Y-56224D01*
X74256Y-56239D01*
X74241Y-56269D01*
X74241Y-56329D01*
X74256Y-56359D01*
X74271Y-56374D01*
X74301Y-56389D01*
X74316Y-56389D01*
X74346Y-56374D01*
X74361Y-56359D01*
X74376Y-56329D01*
X74376Y-56269D01*
X74391Y-56239D01*
X74406Y-56224D01*
X74436Y-56209D01*
X74496Y-56209D01*
X74526Y-56224D01*
X74541Y-56239D01*
X74556Y-56269D01*
X74556Y-56329D01*
X74541Y-56359D01*
X74526Y-56374D01*
X74496Y-56389D01*
X74436Y-56389D01*
X74406Y-56374D01*
X74391Y-56359D01*
X74376Y-56329D01*
X74639Y-55403D02*
X74744Y-55253D01*
X74819Y-55403D02*
X74819Y-55088D01*
X74699Y-55088D01*
X74669Y-55103D01*
X74654Y-55118D01*
X74639Y-55148D01*
X74639Y-55193D01*
X74654Y-55223D01*
X74669Y-55238D01*
X74699Y-55253D01*
X74819Y-55253D01*
X74459Y-55223D02*
X74489Y-55208D01*
X74504Y-55193D01*
X74519Y-55163D01*
X74519Y-55148D01*
X74504Y-55118D01*
X74489Y-55103D01*
X74459Y-55088D01*
X74399Y-55088D01*
X74369Y-55103D01*
X74354Y-55118D01*
X74339Y-55148D01*
X74339Y-55163D01*
X74354Y-55193D01*
X74369Y-55208D01*
X74399Y-55223D01*
X74459Y-55223D01*
X74489Y-55238D01*
X74504Y-55253D01*
X74519Y-55283D01*
X74519Y-55343D01*
X74504Y-55373D01*
X74489Y-55388D01*
X74459Y-55403D01*
X74399Y-55403D01*
X74369Y-55388D01*
X74354Y-55373D01*
X74339Y-55343D01*
X74339Y-55283D01*
X74354Y-55253D01*
X74369Y-55238D01*
X74399Y-55223D01*
X75574Y-56564D02*
X75574Y-56819D01*
X75559Y-56849D01*
X75544Y-56864D01*
X75514Y-56879D01*
X75454Y-56879D01*
X75424Y-56864D01*
X75409Y-56849D01*
X75394Y-56819D01*
X75394Y-56564D01*
X75259Y-56594D02*
X75244Y-56579D01*
X75214Y-56564D01*
X75139Y-56564D01*
X75109Y-56579D01*
X75094Y-56594D01*
X75079Y-56624D01*
X75079Y-56654D01*
X75094Y-56699D01*
X75274Y-56879D01*
X75079Y-56879D01*
M02*
