G04 (created by PCBNEW (2013-07-07 BZR 4022)-stable) date 19/11/2015 00:50:24*
%MOIN*%
G04 Gerber Fmt 3.4, Leading zero omitted, Abs format*
%FSLAX34Y34*%
G01*
G70*
G90*
G04 APERTURE LIST*
%ADD10C,0.00590551*%
%ADD11C,0.015748*%
%ADD12C,0.0137795*%
%ADD13C,0.015748*%
%ADD14C,0.0393701*%
%ADD15C,0.019685*%
%ADD16C,0.011811*%
%ADD17C,0.00393701*%
%ADD18C,0.00787402*%
G04 APERTURE END LIST*
G54D10*
G54D11*
X69625Y-48818D03*
X68582Y-48681D03*
X67874Y-48779D03*
X69212Y-48858D03*
X71830Y-50669D03*
X71929Y-52165D03*
X71023Y-55196D03*
X71712Y-52027D03*
X72529Y-53759D03*
X68110Y-55629D03*
X67893Y-55629D03*
X70413Y-49409D03*
X74074Y-53208D03*
X63464Y-55511D03*
X64330Y-55511D03*
X65196Y-55511D03*
X68405Y-56240D03*
X73759Y-53897D03*
X71791Y-55984D03*
X73759Y-56062D03*
X68838Y-56240D03*
X69625Y-49153D03*
X71417Y-55374D03*
X67913Y-49724D03*
X72401Y-50964D03*
X73129Y-52814D03*
X75826Y-56299D03*
X78503Y-50570D03*
X78366Y-53602D03*
X77165Y-53917D03*
X76870Y-51653D03*
X77165Y-48838D03*
X65196Y-55826D03*
X64330Y-55826D03*
X63464Y-55826D03*
G54D12*
X70890Y-53264D03*
X69580Y-54313D03*
X70629Y-53789D03*
X68662Y-50249D03*
X67745Y-52216D03*
G54D11*
X63267Y-53858D03*
X63464Y-51496D03*
G54D12*
X67614Y-51036D03*
G54D11*
X63267Y-51338D03*
G54D12*
X67745Y-51167D03*
G54D11*
X63267Y-51023D03*
G54D12*
X67744Y-51691D03*
G54D11*
X63464Y-52125D03*
G54D12*
X67481Y-51691D03*
G54D11*
X65196Y-51023D03*
X66850Y-50984D03*
G54D12*
X67614Y-51298D03*
G54D11*
X63267Y-51653D03*
X63464Y-51811D03*
G54D12*
X67745Y-51429D03*
G54D11*
X63464Y-51181D03*
G54D12*
X67876Y-51560D03*
G54D11*
X66574Y-51200D03*
X64370Y-51181D03*
X65196Y-51338D03*
X66653Y-51417D03*
G54D12*
X67614Y-51560D03*
G54D11*
X63267Y-51968D03*
X66811Y-51574D03*
X64370Y-51496D03*
X63267Y-53228D03*
G54D12*
X67745Y-53527D03*
G54D11*
X64370Y-53385D03*
G54D12*
X67614Y-53396D03*
G54D11*
X63267Y-52283D03*
G54D12*
X67745Y-52740D03*
G54D11*
X63464Y-52440D03*
G54D12*
X67483Y-52740D03*
X67744Y-53264D03*
G54D11*
X63464Y-53385D03*
G54D12*
X67481Y-53264D03*
G54D11*
X65196Y-53228D03*
X63267Y-52913D03*
G54D12*
X67614Y-53133D03*
G54D11*
X63464Y-53070D03*
X66751Y-53799D03*
X63464Y-52755D03*
G54D12*
X67745Y-53002D03*
G54D11*
X66988Y-53031D03*
X64370Y-53070D03*
X63267Y-52598D03*
G54D12*
X67614Y-52871D03*
G54D11*
X65196Y-52913D03*
X66751Y-53031D03*
X66988Y-51988D03*
X65196Y-51968D03*
X66515Y-52795D03*
X65196Y-52598D03*
X66811Y-51889D03*
X64370Y-51811D03*
X64370Y-52440D03*
G54D12*
X67876Y-52609D03*
G54D11*
X63464Y-54330D03*
X67500Y-55688D03*
X65393Y-54803D03*
X67165Y-55728D03*
X66811Y-55728D03*
X63267Y-54488D03*
X63267Y-54173D03*
X66535Y-55118D03*
X75039Y-56220D03*
X75255Y-56437D03*
X76181Y-56299D03*
X74763Y-56555D03*
X78503Y-51771D03*
X78503Y-51220D03*
X78503Y-51496D03*
X78503Y-50925D03*
X78720Y-54192D03*
X78090Y-53602D03*
X78503Y-54527D03*
X76003Y-51791D03*
X73562Y-49625D03*
X73917Y-50059D03*
X74370Y-50413D03*
X75570Y-49547D03*
X75216Y-49547D03*
X76023Y-48759D03*
X71515Y-57086D03*
X71870Y-57086D03*
X72775Y-57086D03*
X71870Y-56594D03*
X72775Y-56594D03*
X74960Y-54488D03*
X75885Y-54488D03*
X75885Y-55000D03*
X74960Y-55000D03*
X74625Y-55000D03*
X64783Y-57342D03*
X64330Y-50866D03*
X63877Y-57342D03*
X63464Y-56062D03*
X65196Y-55275D03*
X65196Y-56535D03*
X64330Y-56535D03*
X63464Y-56535D03*
X63464Y-57086D03*
X63464Y-56771D03*
X64330Y-57086D03*
X64330Y-56771D03*
X65196Y-56771D03*
X65196Y-57086D03*
X65196Y-56062D03*
X65196Y-55039D03*
X63464Y-55275D03*
X63464Y-55039D03*
X63464Y-54724D03*
X63464Y-50866D03*
X64330Y-50393D03*
X63464Y-50393D03*
X64783Y-49271D03*
X63877Y-49271D03*
X64330Y-50157D03*
X63464Y-50157D03*
X65196Y-49842D03*
X63464Y-49842D03*
X64330Y-49842D03*
X63464Y-49527D03*
X64330Y-49527D03*
X65196Y-49527D03*
X67460Y-56062D03*
X66141Y-52421D03*
X71791Y-55334D03*
X66122Y-57874D03*
X65492Y-57874D03*
X66830Y-58011D03*
X66456Y-58011D03*
X69606Y-58011D03*
X68464Y-58011D03*
X69035Y-58011D03*
X72578Y-58129D03*
X71003Y-58129D03*
X75157Y-58011D03*
X74015Y-58011D03*
X74586Y-58011D03*
X77500Y-57598D03*
X76791Y-58011D03*
X77362Y-58011D03*
X77500Y-54783D03*
X78129Y-54783D03*
X77814Y-51200D03*
X78129Y-51830D03*
X77500Y-51830D03*
X78129Y-48976D03*
X78129Y-48622D03*
X73818Y-48464D03*
X72578Y-48464D03*
X71043Y-48464D03*
X66456Y-48602D03*
X65492Y-48740D03*
X66122Y-48740D03*
X78503Y-49330D03*
X78503Y-48622D03*
X79133Y-48444D03*
X79763Y-48444D03*
X78503Y-48976D03*
X79330Y-53503D03*
X79842Y-50905D03*
X79448Y-50551D03*
X79192Y-54803D03*
X78503Y-54803D03*
X78503Y-55295D03*
X78503Y-55039D03*
X79566Y-56259D03*
X78503Y-57283D03*
X78503Y-57992D03*
X79881Y-58188D03*
X78858Y-58188D03*
X79133Y-58188D03*
X78503Y-57637D03*
X68838Y-57047D03*
X72598Y-55984D03*
X77539Y-50708D03*
X76850Y-52696D03*
X76318Y-54291D03*
X75807Y-53307D03*
X76614Y-52972D03*
X76614Y-53641D03*
X76515Y-53307D03*
X77539Y-50354D03*
X76614Y-49783D03*
X76614Y-48641D03*
X76515Y-49448D03*
X76614Y-49114D03*
X66535Y-55433D03*
X65807Y-49507D03*
X65807Y-57106D03*
X65807Y-55413D03*
X65807Y-54153D03*
X65807Y-52460D03*
X66515Y-53799D03*
X66181Y-54153D03*
X74350Y-53641D03*
X74360Y-56328D03*
X75531Y-52716D03*
X74980Y-50925D03*
X74724Y-51791D03*
X75216Y-50925D03*
X67185Y-49389D03*
X69389Y-49153D03*
X68523Y-49744D03*
X67204Y-48661D03*
G54D12*
X69974Y-50511D03*
G54D11*
X69763Y-51062D03*
X69763Y-51338D03*
X69488Y-51338D03*
X70039Y-51062D03*
X70314Y-51614D03*
X70314Y-52165D03*
X70039Y-52716D03*
X70314Y-52992D03*
X70039Y-52992D03*
X69763Y-52992D03*
X69232Y-52992D03*
X68700Y-52992D03*
X68149Y-52992D03*
X68700Y-52165D03*
X68425Y-51062D03*
X68700Y-51614D03*
X68700Y-51338D03*
X68700Y-51062D03*
X69232Y-51062D03*
X68956Y-51062D03*
X69488Y-51062D03*
X68956Y-51338D03*
X69232Y-51338D03*
X68425Y-51338D03*
X70039Y-51338D03*
X70314Y-51338D03*
X70590Y-51338D03*
X70590Y-51614D03*
X70039Y-51614D03*
X69763Y-51614D03*
X68425Y-51614D03*
X69232Y-51614D03*
X68956Y-51614D03*
X69488Y-51614D03*
X69488Y-52165D03*
X68956Y-52165D03*
X69232Y-52165D03*
X68425Y-52165D03*
X69763Y-52165D03*
X70039Y-52165D03*
X70590Y-52165D03*
X70590Y-51889D03*
X70314Y-51889D03*
X70039Y-51889D03*
X69763Y-51889D03*
X68425Y-51889D03*
X68700Y-51889D03*
X69232Y-51889D03*
X68956Y-51889D03*
X69488Y-51889D03*
X69488Y-52992D03*
X68956Y-52992D03*
X68425Y-52992D03*
X70039Y-53267D03*
X69763Y-53267D03*
X68149Y-53267D03*
X68425Y-53267D03*
X68700Y-53267D03*
X69232Y-53267D03*
X68956Y-53267D03*
X69488Y-53267D03*
X69488Y-52716D03*
X68956Y-52716D03*
X69232Y-52716D03*
X68700Y-52716D03*
X68425Y-52716D03*
X69763Y-52716D03*
X70314Y-52716D03*
X70314Y-52440D03*
X70039Y-52440D03*
X69763Y-52440D03*
X68149Y-52440D03*
X68425Y-52440D03*
X68700Y-52440D03*
X69232Y-52440D03*
X68956Y-52440D03*
X69488Y-52440D03*
X72322Y-52401D03*
X71811Y-51338D03*
G54D12*
X70760Y-54182D03*
G54D11*
X71791Y-54133D03*
G54D12*
X70891Y-53789D03*
G54D11*
X68228Y-54881D03*
G54D12*
X68662Y-54182D03*
X69056Y-54313D03*
G54D11*
X71968Y-53976D03*
X69015Y-54724D03*
X69114Y-55000D03*
X69822Y-54842D03*
X71870Y-53070D03*
G54D12*
X71416Y-53527D03*
X71285Y-53133D03*
X71285Y-52871D03*
X70760Y-50774D03*
X70105Y-50642D03*
X69187Y-50774D03*
X69056Y-50642D03*
X68792Y-50380D03*
X68400Y-50249D03*
G54D11*
X67913Y-49940D03*
G54D12*
X68400Y-53920D03*
X67351Y-53396D03*
X67483Y-51167D03*
X67614Y-51822D03*
X67876Y-52085D03*
G54D11*
X67224Y-53779D03*
G54D12*
X67745Y-51953D03*
G54D11*
X64330Y-55275D03*
X77401Y-49448D03*
X65196Y-54015D03*
X77460Y-53307D03*
X65452Y-54015D03*
X63464Y-53700D03*
X66653Y-51712D03*
X65196Y-51653D03*
X66515Y-53031D03*
X64370Y-52755D03*
G54D12*
X71022Y-50249D03*
G54D11*
X79724Y-49921D03*
G54D12*
X70760Y-50249D03*
X70628Y-50380D03*
X70891Y-50118D03*
X69187Y-50511D03*
X71153Y-51429D03*
X69449Y-54444D03*
X69317Y-50380D03*
X69449Y-50249D03*
X68268Y-50380D03*
X68794Y-50642D03*
G54D11*
X70590Y-54744D03*
G54D12*
X68925Y-53920D03*
X69579Y-54051D03*
X68925Y-54182D03*
G54D11*
X72027Y-55590D03*
G54D12*
X71416Y-51167D03*
X70891Y-51167D03*
X68400Y-50774D03*
X70890Y-54051D03*
X69187Y-53920D03*
G54D11*
X68740Y-55000D03*
X68110Y-56574D03*
G54D12*
X69056Y-53789D03*
G54D11*
X66889Y-52460D03*
X66968Y-53996D03*
G54D12*
X67744Y-50905D03*
X67614Y-52085D03*
X71153Y-51167D03*
X70891Y-51429D03*
X71022Y-51036D03*
X71022Y-53658D03*
X68531Y-53789D03*
X68400Y-54182D03*
X67614Y-52609D03*
G54D11*
X66299Y-53366D03*
X66771Y-50433D03*
G54D12*
X67876Y-51298D03*
X67876Y-51822D03*
X71153Y-52740D03*
X71022Y-53396D03*
X71285Y-53658D03*
X71153Y-53002D03*
X71285Y-53396D03*
G54D11*
X72736Y-53208D03*
G54D12*
X71022Y-53133D03*
X68007Y-53789D03*
X67745Y-53789D03*
G54D11*
X79822Y-53503D03*
G54D12*
X68268Y-54051D03*
G54D11*
X79055Y-56259D03*
X79566Y-53503D03*
G54D12*
X68138Y-54182D03*
G54D11*
X79311Y-56259D03*
X71791Y-54389D03*
G54D12*
X69318Y-53789D03*
G54D11*
X63464Y-54015D03*
G54D12*
X68138Y-53920D03*
X68530Y-50380D03*
G54D11*
X65196Y-50236D03*
X65413Y-53346D03*
G54D12*
X67483Y-52216D03*
G54D11*
X64370Y-52125D03*
G54D12*
X67614Y-52347D03*
G54D11*
X65196Y-52283D03*
X65196Y-54488D03*
G54D12*
X71022Y-53920D03*
G54D11*
X63267Y-53543D03*
X67342Y-54409D03*
G54D12*
X67876Y-52347D03*
G54D13*
X71929Y-52500D02*
X71929Y-51633D01*
X71830Y-51023D02*
X71830Y-50669D01*
X72047Y-51240D02*
X71830Y-51023D01*
X72047Y-51515D02*
X72047Y-51240D01*
X71929Y-51633D02*
X72047Y-51515D01*
G54D14*
X67992Y-55629D02*
X68110Y-55629D01*
G54D13*
X71830Y-50964D02*
X71830Y-50669D01*
X72529Y-53759D02*
X72529Y-53356D01*
X71929Y-52755D02*
X71929Y-52500D01*
X71929Y-52500D02*
X71929Y-52165D01*
X72529Y-53356D02*
X71929Y-52755D01*
X71023Y-55196D02*
X71338Y-54881D01*
X72529Y-54498D02*
X72529Y-53759D01*
X72145Y-54881D02*
X72529Y-54498D01*
X71338Y-54881D02*
X72145Y-54881D01*
G54D15*
X71023Y-55196D02*
X70590Y-55196D01*
G54D14*
X70590Y-55196D02*
X70157Y-55629D01*
X70157Y-55629D02*
X68110Y-55629D01*
X70688Y-49133D02*
X70413Y-49409D01*
X74074Y-50787D02*
X74074Y-53208D01*
X72421Y-49133D02*
X74074Y-50787D01*
X70688Y-49133D02*
X72421Y-49133D01*
G54D13*
X68011Y-56240D02*
X68405Y-56240D01*
X68011Y-56240D02*
X67913Y-56338D01*
X67913Y-56338D02*
X66220Y-56338D01*
X66220Y-56338D02*
X66122Y-56240D01*
X65393Y-55511D02*
X65196Y-55511D01*
X66122Y-56240D02*
X65393Y-55511D01*
X68838Y-56240D02*
X68405Y-56240D01*
X73129Y-52814D02*
X73129Y-53267D01*
X73129Y-53267D02*
X73759Y-53897D01*
X73759Y-56062D02*
X73759Y-53897D01*
X71791Y-55984D02*
X71791Y-56259D01*
X73759Y-56062D02*
X73562Y-56259D01*
X73562Y-56259D02*
X71791Y-56259D01*
X71791Y-56259D02*
X69035Y-56259D01*
X69035Y-56259D02*
X68858Y-56259D01*
X68858Y-56259D02*
X68838Y-56240D01*
X73129Y-52814D02*
X73129Y-52677D01*
X72972Y-52519D02*
X72972Y-51240D01*
X73129Y-52677D02*
X72972Y-52519D01*
X69625Y-49153D02*
X69625Y-49271D01*
X69625Y-49271D02*
X69429Y-49468D01*
X70472Y-49862D02*
X69822Y-49862D01*
X68169Y-49468D02*
X67913Y-49724D01*
X69429Y-49468D02*
X68169Y-49468D01*
X69822Y-49862D02*
X69429Y-49468D01*
X72401Y-50964D02*
X72401Y-50511D01*
X71751Y-49862D02*
X70472Y-49862D01*
X70472Y-49862D02*
X70118Y-49862D01*
X72401Y-50511D02*
X71751Y-49862D01*
X72696Y-50964D02*
X72401Y-50964D01*
X72972Y-51240D02*
X72696Y-50964D01*
G54D16*
X68956Y-53582D02*
X69409Y-53582D01*
X68858Y-53681D02*
X68956Y-53582D01*
X68858Y-53858D02*
X68858Y-53681D01*
X68925Y-53920D02*
X68920Y-53920D01*
G54D15*
X69579Y-53752D02*
X69579Y-54051D01*
G54D16*
X69409Y-53582D02*
X69579Y-53752D01*
X68920Y-53920D02*
X68858Y-53858D01*
G54D15*
X69579Y-54051D02*
X69898Y-54051D01*
X69898Y-54051D02*
X70590Y-54744D01*
G54D16*
X70891Y-51167D02*
X71023Y-51299D01*
X71284Y-51299D02*
X71416Y-51167D01*
G54D17*
X71023Y-51299D02*
X71284Y-51299D01*
G54D16*
X68740Y-55000D02*
X68740Y-54704D01*
X69251Y-53985D02*
X69187Y-53920D01*
X69251Y-54409D02*
X69251Y-53985D01*
X69153Y-54507D02*
X69251Y-54409D01*
X68937Y-54507D02*
X69153Y-54507D01*
X68740Y-54704D02*
X68937Y-54507D01*
X66614Y-52224D02*
X66377Y-52224D01*
X67614Y-52609D02*
X67563Y-52559D01*
X67007Y-52224D02*
X66614Y-52224D01*
X67342Y-52559D02*
X67007Y-52224D01*
X67563Y-52559D02*
X67342Y-52559D01*
X66377Y-52224D02*
X66377Y-52204D01*
X66377Y-51732D02*
X66377Y-52204D01*
X66377Y-52204D02*
X66377Y-52559D01*
X66299Y-53366D02*
X66299Y-52637D01*
X66377Y-52559D02*
X66299Y-52637D01*
X66377Y-51318D02*
X66377Y-51496D01*
X66377Y-51496D02*
X66377Y-51732D01*
X66377Y-51732D02*
X66377Y-51968D01*
X66368Y-51978D02*
X66377Y-51968D01*
X66771Y-50433D02*
X67696Y-50433D01*
X67696Y-50433D02*
X68110Y-50846D01*
X66377Y-51318D02*
X66377Y-50826D01*
X66377Y-50826D02*
X66771Y-50433D01*
X66377Y-51023D02*
X66377Y-51318D01*
X68110Y-51299D02*
X68110Y-50846D01*
X67876Y-51298D02*
X68110Y-51298D01*
X68110Y-51298D02*
X68110Y-51299D01*
X68110Y-51673D02*
X68110Y-51299D01*
X67960Y-51822D02*
X68110Y-51673D01*
X67876Y-51822D02*
X67960Y-51822D01*
G54D10*
G36*
X74074Y-57736D02*
X72913Y-57736D01*
X72913Y-57059D01*
X72913Y-56567D01*
X72892Y-56516D01*
X72853Y-56477D01*
X72803Y-56456D01*
X72748Y-56456D01*
X72736Y-56461D01*
X72736Y-55956D01*
X72715Y-55906D01*
X72676Y-55867D01*
X72625Y-55846D01*
X72571Y-55846D01*
X72520Y-55867D01*
X72481Y-55906D01*
X72460Y-55956D01*
X72460Y-56011D01*
X72481Y-56062D01*
X72520Y-56101D01*
X72570Y-56122D01*
X72625Y-56122D01*
X72676Y-56101D01*
X72715Y-56062D01*
X72736Y-56011D01*
X72736Y-55956D01*
X72736Y-56461D01*
X72697Y-56477D01*
X72658Y-56516D01*
X72637Y-56566D01*
X72637Y-56621D01*
X72658Y-56672D01*
X72697Y-56711D01*
X72748Y-56732D01*
X72802Y-56732D01*
X72853Y-56711D01*
X72892Y-56672D01*
X72913Y-56622D01*
X72913Y-56567D01*
X72913Y-57059D01*
X72892Y-57008D01*
X72853Y-56969D01*
X72803Y-56948D01*
X72748Y-56948D01*
X72697Y-56969D01*
X72658Y-57008D01*
X72637Y-57059D01*
X72637Y-57113D01*
X72658Y-57164D01*
X72697Y-57203D01*
X72748Y-57224D01*
X72802Y-57224D01*
X72853Y-57203D01*
X72892Y-57164D01*
X72913Y-57114D01*
X72913Y-57059D01*
X72913Y-57736D01*
X72165Y-57736D01*
X72165Y-55563D01*
X72144Y-55512D01*
X72105Y-55473D01*
X72055Y-55452D01*
X72000Y-55452D01*
X71949Y-55473D01*
X71910Y-55512D01*
X71889Y-55563D01*
X71889Y-55617D01*
X71910Y-55668D01*
X71949Y-55707D01*
X72000Y-55728D01*
X72054Y-55728D01*
X72105Y-55707D01*
X72144Y-55668D01*
X72165Y-55618D01*
X72165Y-55563D01*
X72165Y-57736D01*
X72007Y-57736D01*
X72007Y-57059D01*
X72007Y-56567D01*
X71986Y-56516D01*
X71948Y-56477D01*
X71897Y-56456D01*
X71842Y-56456D01*
X71792Y-56477D01*
X71753Y-56516D01*
X71732Y-56566D01*
X71732Y-56621D01*
X71753Y-56672D01*
X71791Y-56711D01*
X71842Y-56732D01*
X71897Y-56732D01*
X71948Y-56711D01*
X71986Y-56672D01*
X72007Y-56622D01*
X72007Y-56567D01*
X72007Y-57059D01*
X71986Y-57008D01*
X71948Y-56969D01*
X71897Y-56948D01*
X71842Y-56948D01*
X71792Y-56969D01*
X71753Y-57008D01*
X71732Y-57059D01*
X71732Y-57113D01*
X71753Y-57164D01*
X71791Y-57203D01*
X71842Y-57224D01*
X71897Y-57224D01*
X71948Y-57203D01*
X71986Y-57164D01*
X72007Y-57114D01*
X72007Y-57059D01*
X72007Y-57736D01*
X71653Y-57736D01*
X71653Y-57059D01*
X71632Y-57008D01*
X71593Y-56969D01*
X71543Y-56948D01*
X71488Y-56948D01*
X71437Y-56969D01*
X71398Y-57008D01*
X71377Y-57059D01*
X71377Y-57113D01*
X71398Y-57164D01*
X71437Y-57203D01*
X71488Y-57224D01*
X71543Y-57224D01*
X71593Y-57203D01*
X71632Y-57164D01*
X71653Y-57114D01*
X71653Y-57059D01*
X71653Y-57736D01*
X68976Y-57736D01*
X68976Y-57019D01*
X68955Y-56969D01*
X68916Y-56930D01*
X68866Y-56909D01*
X68811Y-56909D01*
X68760Y-56930D01*
X68721Y-56969D01*
X68700Y-57019D01*
X68700Y-57074D01*
X68721Y-57125D01*
X68760Y-57163D01*
X68811Y-57185D01*
X68865Y-57185D01*
X68916Y-57164D01*
X68955Y-57125D01*
X68976Y-57074D01*
X68976Y-57019D01*
X68976Y-57736D01*
X68248Y-57736D01*
X68248Y-56547D01*
X68227Y-56496D01*
X68188Y-56458D01*
X68137Y-56437D01*
X68082Y-56436D01*
X68032Y-56457D01*
X67993Y-56496D01*
X67972Y-56547D01*
X67972Y-56602D01*
X67993Y-56652D01*
X68032Y-56691D01*
X68082Y-56712D01*
X68137Y-56712D01*
X68188Y-56691D01*
X68226Y-56652D01*
X68248Y-56602D01*
X68248Y-56547D01*
X68248Y-57736D01*
X66122Y-57736D01*
X66094Y-57736D01*
X66094Y-57736D01*
X65944Y-57736D01*
X65944Y-57079D01*
X65923Y-57028D01*
X65885Y-56989D01*
X65834Y-56968D01*
X65779Y-56968D01*
X65729Y-56989D01*
X65690Y-57028D01*
X65669Y-57078D01*
X65669Y-57133D01*
X65690Y-57184D01*
X65728Y-57223D01*
X65779Y-57244D01*
X65834Y-57244D01*
X65885Y-57223D01*
X65923Y-57184D01*
X65944Y-57133D01*
X65944Y-57079D01*
X65944Y-57736D01*
X65492Y-57736D01*
X65464Y-57736D01*
X65464Y-57736D01*
X65334Y-57736D01*
X65334Y-57059D01*
X65334Y-56744D01*
X65313Y-56693D01*
X65275Y-56654D01*
X65271Y-56653D01*
X65274Y-56652D01*
X65313Y-56613D01*
X65334Y-56562D01*
X65334Y-56508D01*
X65334Y-56035D01*
X65313Y-55985D01*
X65275Y-55946D01*
X65271Y-55944D01*
X65274Y-55943D01*
X65313Y-55904D01*
X65334Y-55854D01*
X65334Y-55799D01*
X65313Y-55748D01*
X65275Y-55710D01*
X65224Y-55689D01*
X65169Y-55688D01*
X65118Y-55709D01*
X65080Y-55748D01*
X65059Y-55799D01*
X65059Y-55854D01*
X65079Y-55904D01*
X65118Y-55943D01*
X65121Y-55944D01*
X65118Y-55946D01*
X65080Y-55984D01*
X65059Y-56035D01*
X65059Y-56090D01*
X65079Y-56140D01*
X65118Y-56179D01*
X65169Y-56200D01*
X65224Y-56200D01*
X65274Y-56179D01*
X65313Y-56141D01*
X65334Y-56090D01*
X65334Y-56035D01*
X65334Y-56508D01*
X65313Y-56457D01*
X65275Y-56418D01*
X65224Y-56397D01*
X65169Y-56397D01*
X65118Y-56418D01*
X65080Y-56457D01*
X65059Y-56507D01*
X65059Y-56562D01*
X65079Y-56613D01*
X65118Y-56652D01*
X65121Y-56653D01*
X65118Y-56654D01*
X65080Y-56693D01*
X65059Y-56744D01*
X65059Y-56798D01*
X65079Y-56849D01*
X65118Y-56888D01*
X65169Y-56909D01*
X65224Y-56909D01*
X65274Y-56888D01*
X65313Y-56849D01*
X65334Y-56799D01*
X65334Y-56744D01*
X65334Y-57059D01*
X65313Y-57008D01*
X65275Y-56969D01*
X65224Y-56948D01*
X65169Y-56948D01*
X65118Y-56969D01*
X65080Y-57008D01*
X65059Y-57059D01*
X65059Y-57113D01*
X65079Y-57164D01*
X65118Y-57203D01*
X65169Y-57224D01*
X65224Y-57224D01*
X65274Y-57203D01*
X65313Y-57164D01*
X65334Y-57114D01*
X65334Y-57059D01*
X65334Y-57736D01*
X64921Y-57736D01*
X64921Y-57315D01*
X64900Y-57264D01*
X64861Y-57225D01*
X64810Y-57204D01*
X64756Y-57204D01*
X64705Y-57225D01*
X64666Y-57264D01*
X64645Y-57314D01*
X64645Y-57369D01*
X64666Y-57420D01*
X64705Y-57459D01*
X64755Y-57480D01*
X64810Y-57480D01*
X64861Y-57459D01*
X64900Y-57420D01*
X64921Y-57370D01*
X64921Y-57315D01*
X64921Y-57736D01*
X64468Y-57736D01*
X64468Y-57059D01*
X64468Y-56744D01*
X64447Y-56693D01*
X64408Y-56654D01*
X64405Y-56653D01*
X64408Y-56652D01*
X64447Y-56613D01*
X64468Y-56562D01*
X64468Y-56508D01*
X64468Y-55799D01*
X64447Y-55748D01*
X64408Y-55710D01*
X64358Y-55689D01*
X64303Y-55688D01*
X64252Y-55709D01*
X64213Y-55748D01*
X64192Y-55799D01*
X64192Y-55854D01*
X64213Y-55904D01*
X64252Y-55943D01*
X64303Y-55964D01*
X64357Y-55964D01*
X64408Y-55943D01*
X64447Y-55904D01*
X64468Y-55854D01*
X64468Y-55799D01*
X64468Y-56508D01*
X64447Y-56457D01*
X64408Y-56418D01*
X64358Y-56397D01*
X64303Y-56397D01*
X64252Y-56418D01*
X64213Y-56457D01*
X64192Y-56507D01*
X64192Y-56562D01*
X64213Y-56613D01*
X64252Y-56652D01*
X64255Y-56653D01*
X64252Y-56654D01*
X64213Y-56693D01*
X64192Y-56744D01*
X64192Y-56798D01*
X64213Y-56849D01*
X64252Y-56888D01*
X64303Y-56909D01*
X64357Y-56909D01*
X64408Y-56888D01*
X64447Y-56849D01*
X64468Y-56799D01*
X64468Y-56744D01*
X64468Y-57059D01*
X64447Y-57008D01*
X64408Y-56969D01*
X64358Y-56948D01*
X64303Y-56948D01*
X64252Y-56969D01*
X64213Y-57008D01*
X64192Y-57059D01*
X64192Y-57113D01*
X64213Y-57164D01*
X64252Y-57203D01*
X64303Y-57224D01*
X64357Y-57224D01*
X64408Y-57203D01*
X64447Y-57164D01*
X64468Y-57114D01*
X64468Y-57059D01*
X64468Y-57736D01*
X64015Y-57736D01*
X64015Y-57315D01*
X63994Y-57264D01*
X63956Y-57225D01*
X63905Y-57204D01*
X63850Y-57204D01*
X63800Y-57225D01*
X63761Y-57264D01*
X63740Y-57314D01*
X63740Y-57369D01*
X63761Y-57420D01*
X63799Y-57459D01*
X63850Y-57480D01*
X63905Y-57480D01*
X63955Y-57459D01*
X63994Y-57420D01*
X64015Y-57370D01*
X64015Y-57315D01*
X64015Y-57736D01*
X63326Y-57736D01*
X63326Y-57113D01*
X63347Y-57164D01*
X63386Y-57203D01*
X63437Y-57224D01*
X63491Y-57224D01*
X63542Y-57203D01*
X63581Y-57164D01*
X63602Y-57114D01*
X63602Y-57059D01*
X63581Y-57008D01*
X63542Y-56969D01*
X63492Y-56948D01*
X63437Y-56948D01*
X63386Y-56969D01*
X63347Y-57008D01*
X63326Y-57059D01*
X63326Y-57086D01*
X63326Y-56799D01*
X63347Y-56849D01*
X63386Y-56888D01*
X63437Y-56909D01*
X63491Y-56909D01*
X63542Y-56888D01*
X63581Y-56849D01*
X63602Y-56799D01*
X63602Y-56744D01*
X63581Y-56693D01*
X63542Y-56654D01*
X63539Y-56653D01*
X63542Y-56652D01*
X63581Y-56613D01*
X63602Y-56562D01*
X63602Y-56508D01*
X63581Y-56457D01*
X63542Y-56418D01*
X63492Y-56397D01*
X63437Y-56397D01*
X63386Y-56418D01*
X63347Y-56457D01*
X63326Y-56507D01*
X63326Y-56535D01*
X63326Y-56090D01*
X63347Y-56140D01*
X63386Y-56179D01*
X63437Y-56200D01*
X63491Y-56200D01*
X63542Y-56179D01*
X63581Y-56141D01*
X63602Y-56090D01*
X63602Y-56035D01*
X63581Y-55985D01*
X63542Y-55946D01*
X63539Y-55944D01*
X63542Y-55943D01*
X63581Y-55904D01*
X63602Y-55854D01*
X63602Y-55799D01*
X63581Y-55748D01*
X63542Y-55710D01*
X63492Y-55689D01*
X63437Y-55688D01*
X63386Y-55709D01*
X63347Y-55748D01*
X63326Y-55799D01*
X63326Y-55826D01*
X63326Y-55374D01*
X63368Y-55374D01*
X63386Y-55392D01*
X63437Y-55413D01*
X63491Y-55413D01*
X63542Y-55392D01*
X63561Y-55374D01*
X64234Y-55374D01*
X64252Y-55392D01*
X64303Y-55413D01*
X64357Y-55413D01*
X64408Y-55392D01*
X64427Y-55374D01*
X65100Y-55374D01*
X65118Y-55392D01*
X65169Y-55413D01*
X65224Y-55413D01*
X65274Y-55392D01*
X65293Y-55374D01*
X65405Y-55374D01*
X66035Y-56003D01*
X67335Y-56003D01*
X67322Y-56035D01*
X67322Y-56090D01*
X67343Y-56140D01*
X67382Y-56179D01*
X67433Y-56200D01*
X67487Y-56200D01*
X67538Y-56179D01*
X67577Y-56141D01*
X67598Y-56090D01*
X67598Y-56035D01*
X67585Y-56003D01*
X70657Y-56003D01*
X71386Y-55275D01*
X71666Y-55275D01*
X71653Y-55307D01*
X71653Y-55361D01*
X71674Y-55412D01*
X71713Y-55451D01*
X71763Y-55472D01*
X71818Y-55472D01*
X71869Y-55451D01*
X71908Y-55412D01*
X71929Y-55362D01*
X71929Y-55307D01*
X71916Y-55275D01*
X72705Y-55275D01*
X72854Y-55126D01*
X72854Y-53283D01*
X72873Y-53236D01*
X72874Y-53181D01*
X72854Y-53133D01*
X72854Y-51330D01*
X72606Y-51082D01*
X72224Y-51082D01*
X72224Y-50700D01*
X71661Y-50137D01*
X71087Y-50137D01*
X71048Y-50121D01*
X71019Y-50121D01*
X71019Y-50093D01*
X71000Y-50046D01*
X70964Y-50010D01*
X70917Y-49990D01*
X70866Y-49990D01*
X70819Y-50009D01*
X70783Y-50045D01*
X70763Y-50092D01*
X70763Y-50121D01*
X70735Y-50121D01*
X70696Y-50137D01*
X69513Y-50137D01*
X69475Y-50121D01*
X69424Y-50121D01*
X69385Y-50137D01*
X68727Y-50137D01*
X68688Y-50121D01*
X68661Y-50121D01*
X68661Y-49716D01*
X68640Y-49666D01*
X68601Y-49627D01*
X68551Y-49606D01*
X68496Y-49606D01*
X68445Y-49627D01*
X68406Y-49665D01*
X68385Y-49716D01*
X68385Y-49771D01*
X68406Y-49822D01*
X68445Y-49860D01*
X68496Y-49881D01*
X68550Y-49881D01*
X68601Y-49860D01*
X68640Y-49822D01*
X68661Y-49771D01*
X68661Y-49716D01*
X68661Y-50121D01*
X68637Y-50121D01*
X68598Y-50137D01*
X68465Y-50137D01*
X68426Y-50121D01*
X68375Y-50121D01*
X68336Y-50137D01*
X67814Y-50137D01*
X67814Y-50037D01*
X67835Y-50057D01*
X67885Y-50078D01*
X67940Y-50078D01*
X67991Y-50057D01*
X68030Y-50019D01*
X68051Y-49968D01*
X68051Y-49913D01*
X68030Y-49862D01*
X67991Y-49824D01*
X67940Y-49803D01*
X67886Y-49803D01*
X67835Y-49824D01*
X67814Y-49844D01*
X67814Y-49311D01*
X69417Y-49311D01*
X69451Y-49277D01*
X69467Y-49270D01*
X69506Y-49231D01*
X69527Y-49181D01*
X69527Y-49126D01*
X69507Y-49078D01*
X69507Y-49035D01*
X69744Y-49035D01*
X69744Y-49220D01*
X70228Y-49704D01*
X70716Y-49704D01*
X70913Y-49507D01*
X72157Y-49507D01*
X73759Y-51110D01*
X73759Y-53602D01*
X74074Y-53602D01*
X74074Y-57736D01*
X74074Y-57736D01*
G37*
G54D17*
X74074Y-57736D02*
X72913Y-57736D01*
X72913Y-57059D01*
X72913Y-56567D01*
X72892Y-56516D01*
X72853Y-56477D01*
X72803Y-56456D01*
X72748Y-56456D01*
X72736Y-56461D01*
X72736Y-55956D01*
X72715Y-55906D01*
X72676Y-55867D01*
X72625Y-55846D01*
X72571Y-55846D01*
X72520Y-55867D01*
X72481Y-55906D01*
X72460Y-55956D01*
X72460Y-56011D01*
X72481Y-56062D01*
X72520Y-56101D01*
X72570Y-56122D01*
X72625Y-56122D01*
X72676Y-56101D01*
X72715Y-56062D01*
X72736Y-56011D01*
X72736Y-55956D01*
X72736Y-56461D01*
X72697Y-56477D01*
X72658Y-56516D01*
X72637Y-56566D01*
X72637Y-56621D01*
X72658Y-56672D01*
X72697Y-56711D01*
X72748Y-56732D01*
X72802Y-56732D01*
X72853Y-56711D01*
X72892Y-56672D01*
X72913Y-56622D01*
X72913Y-56567D01*
X72913Y-57059D01*
X72892Y-57008D01*
X72853Y-56969D01*
X72803Y-56948D01*
X72748Y-56948D01*
X72697Y-56969D01*
X72658Y-57008D01*
X72637Y-57059D01*
X72637Y-57113D01*
X72658Y-57164D01*
X72697Y-57203D01*
X72748Y-57224D01*
X72802Y-57224D01*
X72853Y-57203D01*
X72892Y-57164D01*
X72913Y-57114D01*
X72913Y-57059D01*
X72913Y-57736D01*
X72165Y-57736D01*
X72165Y-55563D01*
X72144Y-55512D01*
X72105Y-55473D01*
X72055Y-55452D01*
X72000Y-55452D01*
X71949Y-55473D01*
X71910Y-55512D01*
X71889Y-55563D01*
X71889Y-55617D01*
X71910Y-55668D01*
X71949Y-55707D01*
X72000Y-55728D01*
X72054Y-55728D01*
X72105Y-55707D01*
X72144Y-55668D01*
X72165Y-55618D01*
X72165Y-55563D01*
X72165Y-57736D01*
X72007Y-57736D01*
X72007Y-57059D01*
X72007Y-56567D01*
X71986Y-56516D01*
X71948Y-56477D01*
X71897Y-56456D01*
X71842Y-56456D01*
X71792Y-56477D01*
X71753Y-56516D01*
X71732Y-56566D01*
X71732Y-56621D01*
X71753Y-56672D01*
X71791Y-56711D01*
X71842Y-56732D01*
X71897Y-56732D01*
X71948Y-56711D01*
X71986Y-56672D01*
X72007Y-56622D01*
X72007Y-56567D01*
X72007Y-57059D01*
X71986Y-57008D01*
X71948Y-56969D01*
X71897Y-56948D01*
X71842Y-56948D01*
X71792Y-56969D01*
X71753Y-57008D01*
X71732Y-57059D01*
X71732Y-57113D01*
X71753Y-57164D01*
X71791Y-57203D01*
X71842Y-57224D01*
X71897Y-57224D01*
X71948Y-57203D01*
X71986Y-57164D01*
X72007Y-57114D01*
X72007Y-57059D01*
X72007Y-57736D01*
X71653Y-57736D01*
X71653Y-57059D01*
X71632Y-57008D01*
X71593Y-56969D01*
X71543Y-56948D01*
X71488Y-56948D01*
X71437Y-56969D01*
X71398Y-57008D01*
X71377Y-57059D01*
X71377Y-57113D01*
X71398Y-57164D01*
X71437Y-57203D01*
X71488Y-57224D01*
X71543Y-57224D01*
X71593Y-57203D01*
X71632Y-57164D01*
X71653Y-57114D01*
X71653Y-57059D01*
X71653Y-57736D01*
X68976Y-57736D01*
X68976Y-57019D01*
X68955Y-56969D01*
X68916Y-56930D01*
X68866Y-56909D01*
X68811Y-56909D01*
X68760Y-56930D01*
X68721Y-56969D01*
X68700Y-57019D01*
X68700Y-57074D01*
X68721Y-57125D01*
X68760Y-57163D01*
X68811Y-57185D01*
X68865Y-57185D01*
X68916Y-57164D01*
X68955Y-57125D01*
X68976Y-57074D01*
X68976Y-57019D01*
X68976Y-57736D01*
X68248Y-57736D01*
X68248Y-56547D01*
X68227Y-56496D01*
X68188Y-56458D01*
X68137Y-56437D01*
X68082Y-56436D01*
X68032Y-56457D01*
X67993Y-56496D01*
X67972Y-56547D01*
X67972Y-56602D01*
X67993Y-56652D01*
X68032Y-56691D01*
X68082Y-56712D01*
X68137Y-56712D01*
X68188Y-56691D01*
X68226Y-56652D01*
X68248Y-56602D01*
X68248Y-56547D01*
X68248Y-57736D01*
X66122Y-57736D01*
X66094Y-57736D01*
X66094Y-57736D01*
X65944Y-57736D01*
X65944Y-57079D01*
X65923Y-57028D01*
X65885Y-56989D01*
X65834Y-56968D01*
X65779Y-56968D01*
X65729Y-56989D01*
X65690Y-57028D01*
X65669Y-57078D01*
X65669Y-57133D01*
X65690Y-57184D01*
X65728Y-57223D01*
X65779Y-57244D01*
X65834Y-57244D01*
X65885Y-57223D01*
X65923Y-57184D01*
X65944Y-57133D01*
X65944Y-57079D01*
X65944Y-57736D01*
X65492Y-57736D01*
X65464Y-57736D01*
X65464Y-57736D01*
X65334Y-57736D01*
X65334Y-57059D01*
X65334Y-56744D01*
X65313Y-56693D01*
X65275Y-56654D01*
X65271Y-56653D01*
X65274Y-56652D01*
X65313Y-56613D01*
X65334Y-56562D01*
X65334Y-56508D01*
X65334Y-56035D01*
X65313Y-55985D01*
X65275Y-55946D01*
X65271Y-55944D01*
X65274Y-55943D01*
X65313Y-55904D01*
X65334Y-55854D01*
X65334Y-55799D01*
X65313Y-55748D01*
X65275Y-55710D01*
X65224Y-55689D01*
X65169Y-55688D01*
X65118Y-55709D01*
X65080Y-55748D01*
X65059Y-55799D01*
X65059Y-55854D01*
X65079Y-55904D01*
X65118Y-55943D01*
X65121Y-55944D01*
X65118Y-55946D01*
X65080Y-55984D01*
X65059Y-56035D01*
X65059Y-56090D01*
X65079Y-56140D01*
X65118Y-56179D01*
X65169Y-56200D01*
X65224Y-56200D01*
X65274Y-56179D01*
X65313Y-56141D01*
X65334Y-56090D01*
X65334Y-56035D01*
X65334Y-56508D01*
X65313Y-56457D01*
X65275Y-56418D01*
X65224Y-56397D01*
X65169Y-56397D01*
X65118Y-56418D01*
X65080Y-56457D01*
X65059Y-56507D01*
X65059Y-56562D01*
X65079Y-56613D01*
X65118Y-56652D01*
X65121Y-56653D01*
X65118Y-56654D01*
X65080Y-56693D01*
X65059Y-56744D01*
X65059Y-56798D01*
X65079Y-56849D01*
X65118Y-56888D01*
X65169Y-56909D01*
X65224Y-56909D01*
X65274Y-56888D01*
X65313Y-56849D01*
X65334Y-56799D01*
X65334Y-56744D01*
X65334Y-57059D01*
X65313Y-57008D01*
X65275Y-56969D01*
X65224Y-56948D01*
X65169Y-56948D01*
X65118Y-56969D01*
X65080Y-57008D01*
X65059Y-57059D01*
X65059Y-57113D01*
X65079Y-57164D01*
X65118Y-57203D01*
X65169Y-57224D01*
X65224Y-57224D01*
X65274Y-57203D01*
X65313Y-57164D01*
X65334Y-57114D01*
X65334Y-57059D01*
X65334Y-57736D01*
X64921Y-57736D01*
X64921Y-57315D01*
X64900Y-57264D01*
X64861Y-57225D01*
X64810Y-57204D01*
X64756Y-57204D01*
X64705Y-57225D01*
X64666Y-57264D01*
X64645Y-57314D01*
X64645Y-57369D01*
X64666Y-57420D01*
X64705Y-57459D01*
X64755Y-57480D01*
X64810Y-57480D01*
X64861Y-57459D01*
X64900Y-57420D01*
X64921Y-57370D01*
X64921Y-57315D01*
X64921Y-57736D01*
X64468Y-57736D01*
X64468Y-57059D01*
X64468Y-56744D01*
X64447Y-56693D01*
X64408Y-56654D01*
X64405Y-56653D01*
X64408Y-56652D01*
X64447Y-56613D01*
X64468Y-56562D01*
X64468Y-56508D01*
X64468Y-55799D01*
X64447Y-55748D01*
X64408Y-55710D01*
X64358Y-55689D01*
X64303Y-55688D01*
X64252Y-55709D01*
X64213Y-55748D01*
X64192Y-55799D01*
X64192Y-55854D01*
X64213Y-55904D01*
X64252Y-55943D01*
X64303Y-55964D01*
X64357Y-55964D01*
X64408Y-55943D01*
X64447Y-55904D01*
X64468Y-55854D01*
X64468Y-55799D01*
X64468Y-56508D01*
X64447Y-56457D01*
X64408Y-56418D01*
X64358Y-56397D01*
X64303Y-56397D01*
X64252Y-56418D01*
X64213Y-56457D01*
X64192Y-56507D01*
X64192Y-56562D01*
X64213Y-56613D01*
X64252Y-56652D01*
X64255Y-56653D01*
X64252Y-56654D01*
X64213Y-56693D01*
X64192Y-56744D01*
X64192Y-56798D01*
X64213Y-56849D01*
X64252Y-56888D01*
X64303Y-56909D01*
X64357Y-56909D01*
X64408Y-56888D01*
X64447Y-56849D01*
X64468Y-56799D01*
X64468Y-56744D01*
X64468Y-57059D01*
X64447Y-57008D01*
X64408Y-56969D01*
X64358Y-56948D01*
X64303Y-56948D01*
X64252Y-56969D01*
X64213Y-57008D01*
X64192Y-57059D01*
X64192Y-57113D01*
X64213Y-57164D01*
X64252Y-57203D01*
X64303Y-57224D01*
X64357Y-57224D01*
X64408Y-57203D01*
X64447Y-57164D01*
X64468Y-57114D01*
X64468Y-57059D01*
X64468Y-57736D01*
X64015Y-57736D01*
X64015Y-57315D01*
X63994Y-57264D01*
X63956Y-57225D01*
X63905Y-57204D01*
X63850Y-57204D01*
X63800Y-57225D01*
X63761Y-57264D01*
X63740Y-57314D01*
X63740Y-57369D01*
X63761Y-57420D01*
X63799Y-57459D01*
X63850Y-57480D01*
X63905Y-57480D01*
X63955Y-57459D01*
X63994Y-57420D01*
X64015Y-57370D01*
X64015Y-57315D01*
X64015Y-57736D01*
X63326Y-57736D01*
X63326Y-57113D01*
X63347Y-57164D01*
X63386Y-57203D01*
X63437Y-57224D01*
X63491Y-57224D01*
X63542Y-57203D01*
X63581Y-57164D01*
X63602Y-57114D01*
X63602Y-57059D01*
X63581Y-57008D01*
X63542Y-56969D01*
X63492Y-56948D01*
X63437Y-56948D01*
X63386Y-56969D01*
X63347Y-57008D01*
X63326Y-57059D01*
X63326Y-57086D01*
X63326Y-56799D01*
X63347Y-56849D01*
X63386Y-56888D01*
X63437Y-56909D01*
X63491Y-56909D01*
X63542Y-56888D01*
X63581Y-56849D01*
X63602Y-56799D01*
X63602Y-56744D01*
X63581Y-56693D01*
X63542Y-56654D01*
X63539Y-56653D01*
X63542Y-56652D01*
X63581Y-56613D01*
X63602Y-56562D01*
X63602Y-56508D01*
X63581Y-56457D01*
X63542Y-56418D01*
X63492Y-56397D01*
X63437Y-56397D01*
X63386Y-56418D01*
X63347Y-56457D01*
X63326Y-56507D01*
X63326Y-56535D01*
X63326Y-56090D01*
X63347Y-56140D01*
X63386Y-56179D01*
X63437Y-56200D01*
X63491Y-56200D01*
X63542Y-56179D01*
X63581Y-56141D01*
X63602Y-56090D01*
X63602Y-56035D01*
X63581Y-55985D01*
X63542Y-55946D01*
X63539Y-55944D01*
X63542Y-55943D01*
X63581Y-55904D01*
X63602Y-55854D01*
X63602Y-55799D01*
X63581Y-55748D01*
X63542Y-55710D01*
X63492Y-55689D01*
X63437Y-55688D01*
X63386Y-55709D01*
X63347Y-55748D01*
X63326Y-55799D01*
X63326Y-55826D01*
X63326Y-55374D01*
X63368Y-55374D01*
X63386Y-55392D01*
X63437Y-55413D01*
X63491Y-55413D01*
X63542Y-55392D01*
X63561Y-55374D01*
X64234Y-55374D01*
X64252Y-55392D01*
X64303Y-55413D01*
X64357Y-55413D01*
X64408Y-55392D01*
X64427Y-55374D01*
X65100Y-55374D01*
X65118Y-55392D01*
X65169Y-55413D01*
X65224Y-55413D01*
X65274Y-55392D01*
X65293Y-55374D01*
X65405Y-55374D01*
X66035Y-56003D01*
X67335Y-56003D01*
X67322Y-56035D01*
X67322Y-56090D01*
X67343Y-56140D01*
X67382Y-56179D01*
X67433Y-56200D01*
X67487Y-56200D01*
X67538Y-56179D01*
X67577Y-56141D01*
X67598Y-56090D01*
X67598Y-56035D01*
X67585Y-56003D01*
X70657Y-56003D01*
X71386Y-55275D01*
X71666Y-55275D01*
X71653Y-55307D01*
X71653Y-55361D01*
X71674Y-55412D01*
X71713Y-55451D01*
X71763Y-55472D01*
X71818Y-55472D01*
X71869Y-55451D01*
X71908Y-55412D01*
X71929Y-55362D01*
X71929Y-55307D01*
X71916Y-55275D01*
X72705Y-55275D01*
X72854Y-55126D01*
X72854Y-53283D01*
X72873Y-53236D01*
X72874Y-53181D01*
X72854Y-53133D01*
X72854Y-51330D01*
X72606Y-51082D01*
X72224Y-51082D01*
X72224Y-50700D01*
X71661Y-50137D01*
X71087Y-50137D01*
X71048Y-50121D01*
X71019Y-50121D01*
X71019Y-50093D01*
X71000Y-50046D01*
X70964Y-50010D01*
X70917Y-49990D01*
X70866Y-49990D01*
X70819Y-50009D01*
X70783Y-50045D01*
X70763Y-50092D01*
X70763Y-50121D01*
X70735Y-50121D01*
X70696Y-50137D01*
X69513Y-50137D01*
X69475Y-50121D01*
X69424Y-50121D01*
X69385Y-50137D01*
X68727Y-50137D01*
X68688Y-50121D01*
X68661Y-50121D01*
X68661Y-49716D01*
X68640Y-49666D01*
X68601Y-49627D01*
X68551Y-49606D01*
X68496Y-49606D01*
X68445Y-49627D01*
X68406Y-49665D01*
X68385Y-49716D01*
X68385Y-49771D01*
X68406Y-49822D01*
X68445Y-49860D01*
X68496Y-49881D01*
X68550Y-49881D01*
X68601Y-49860D01*
X68640Y-49822D01*
X68661Y-49771D01*
X68661Y-49716D01*
X68661Y-50121D01*
X68637Y-50121D01*
X68598Y-50137D01*
X68465Y-50137D01*
X68426Y-50121D01*
X68375Y-50121D01*
X68336Y-50137D01*
X67814Y-50137D01*
X67814Y-50037D01*
X67835Y-50057D01*
X67885Y-50078D01*
X67940Y-50078D01*
X67991Y-50057D01*
X68030Y-50019D01*
X68051Y-49968D01*
X68051Y-49913D01*
X68030Y-49862D01*
X67991Y-49824D01*
X67940Y-49803D01*
X67886Y-49803D01*
X67835Y-49824D01*
X67814Y-49844D01*
X67814Y-49311D01*
X69417Y-49311D01*
X69451Y-49277D01*
X69467Y-49270D01*
X69506Y-49231D01*
X69527Y-49181D01*
X69527Y-49126D01*
X69507Y-49078D01*
X69507Y-49035D01*
X69744Y-49035D01*
X69744Y-49220D01*
X70228Y-49704D01*
X70716Y-49704D01*
X70913Y-49507D01*
X72157Y-49507D01*
X73759Y-51110D01*
X73759Y-53602D01*
X74074Y-53602D01*
X74074Y-57736D01*
G54D10*
G36*
X72677Y-54747D02*
X72519Y-54904D01*
X72519Y-52362D01*
X72489Y-52290D01*
X72434Y-52234D01*
X72362Y-52204D01*
X72283Y-52204D01*
X72211Y-52234D01*
X72156Y-52289D01*
X72126Y-52362D01*
X72125Y-52440D01*
X72155Y-52512D01*
X72211Y-52568D01*
X72283Y-52598D01*
X72361Y-52598D01*
X72434Y-52568D01*
X72489Y-52513D01*
X72519Y-52440D01*
X72519Y-52362D01*
X72519Y-54904D01*
X72345Y-55078D01*
X72165Y-55078D01*
X72165Y-53937D01*
X72135Y-53865D01*
X72080Y-53809D01*
X72066Y-53804D01*
X72066Y-53031D01*
X72037Y-52959D01*
X72007Y-52930D01*
X72007Y-51299D01*
X71978Y-51227D01*
X71922Y-51171D01*
X71850Y-51141D01*
X71772Y-51141D01*
X71699Y-51171D01*
X71644Y-51226D01*
X71614Y-51299D01*
X71614Y-51377D01*
X71644Y-51449D01*
X71699Y-51505D01*
X71771Y-51535D01*
X71850Y-51535D01*
X71922Y-51505D01*
X71977Y-51450D01*
X72007Y-51377D01*
X72007Y-51299D01*
X72007Y-52930D01*
X71981Y-52904D01*
X71909Y-52874D01*
X71831Y-52873D01*
X71758Y-52903D01*
X71703Y-52959D01*
X71673Y-53031D01*
X71673Y-53109D01*
X71703Y-53182D01*
X71758Y-53237D01*
X71830Y-53267D01*
X71909Y-53267D01*
X71981Y-53237D01*
X72036Y-53182D01*
X72066Y-53110D01*
X72066Y-53031D01*
X72066Y-53804D01*
X72007Y-53779D01*
X71929Y-53779D01*
X71857Y-53809D01*
X71801Y-53864D01*
X71771Y-53936D01*
X71752Y-53936D01*
X71679Y-53966D01*
X71624Y-54022D01*
X71594Y-54094D01*
X71594Y-54172D01*
X71624Y-54245D01*
X71640Y-54261D01*
X71624Y-54278D01*
X71594Y-54350D01*
X71594Y-54428D01*
X71624Y-54501D01*
X71679Y-54556D01*
X71752Y-54586D01*
X71830Y-54586D01*
X71902Y-54556D01*
X71958Y-54501D01*
X71988Y-54429D01*
X71988Y-54350D01*
X71958Y-54278D01*
X71941Y-54261D01*
X71958Y-54245D01*
X71988Y-54173D01*
X72007Y-54173D01*
X72079Y-54143D01*
X72135Y-54088D01*
X72165Y-54015D01*
X72165Y-53937D01*
X72165Y-55078D01*
X71282Y-55078D01*
X70534Y-55826D01*
X67795Y-55826D01*
X67795Y-54881D01*
X68031Y-54881D01*
X68031Y-54920D01*
X68061Y-54993D01*
X68116Y-55048D01*
X68189Y-55078D01*
X68267Y-55078D01*
X68339Y-55048D01*
X68395Y-54993D01*
X68425Y-54921D01*
X68425Y-54881D01*
X68562Y-54881D01*
X68562Y-54913D01*
X68543Y-54960D01*
X68543Y-55038D01*
X68573Y-55111D01*
X68628Y-55166D01*
X68700Y-55196D01*
X68779Y-55196D01*
X68851Y-55166D01*
X68906Y-55111D01*
X68927Y-55062D01*
X68947Y-55111D01*
X69002Y-55166D01*
X69074Y-55196D01*
X69153Y-55196D01*
X69225Y-55166D01*
X69280Y-55111D01*
X69310Y-55039D01*
X69311Y-54961D01*
X69281Y-54888D01*
X69274Y-54881D01*
X69626Y-54881D01*
X69655Y-54953D01*
X69711Y-55009D01*
X69783Y-55039D01*
X69861Y-55039D01*
X69934Y-55009D01*
X69989Y-54954D01*
X70019Y-54881D01*
X70422Y-54881D01*
X70437Y-54897D01*
X70507Y-54944D01*
X70590Y-54960D01*
X70673Y-54944D01*
X70743Y-54897D01*
X70753Y-54881D01*
X70826Y-54881D01*
X70826Y-54583D01*
X71417Y-53992D01*
X71417Y-53790D01*
X71443Y-53764D01*
X71466Y-53708D01*
X71521Y-53685D01*
X71574Y-53633D01*
X71603Y-53564D01*
X71603Y-53490D01*
X71574Y-53421D01*
X71522Y-53368D01*
X71466Y-53345D01*
X71443Y-53290D01*
X71418Y-53264D01*
X71443Y-53239D01*
X71472Y-53171D01*
X71472Y-53096D01*
X71443Y-53028D01*
X71418Y-53002D01*
X71443Y-52977D01*
X71472Y-52909D01*
X71472Y-52834D01*
X71443Y-52765D01*
X71417Y-52739D01*
X71417Y-51416D01*
X71498Y-51335D01*
X71521Y-51325D01*
X71574Y-51273D01*
X71603Y-51204D01*
X71603Y-51130D01*
X71574Y-51061D01*
X71574Y-50590D01*
X71912Y-50590D01*
X72086Y-50764D01*
X72086Y-51259D01*
X72503Y-51259D01*
X72677Y-51433D01*
X72677Y-53020D01*
X72624Y-53041D01*
X72569Y-53097D01*
X72539Y-53169D01*
X72539Y-53247D01*
X72569Y-53320D01*
X72624Y-53375D01*
X72677Y-53397D01*
X72677Y-54747D01*
X72677Y-54747D01*
G37*
G54D18*
X72677Y-54747D02*
X72519Y-54904D01*
X72519Y-52362D01*
X72489Y-52290D01*
X72434Y-52234D01*
X72362Y-52204D01*
X72283Y-52204D01*
X72211Y-52234D01*
X72156Y-52289D01*
X72126Y-52362D01*
X72125Y-52440D01*
X72155Y-52512D01*
X72211Y-52568D01*
X72283Y-52598D01*
X72361Y-52598D01*
X72434Y-52568D01*
X72489Y-52513D01*
X72519Y-52440D01*
X72519Y-52362D01*
X72519Y-54904D01*
X72345Y-55078D01*
X72165Y-55078D01*
X72165Y-53937D01*
X72135Y-53865D01*
X72080Y-53809D01*
X72066Y-53804D01*
X72066Y-53031D01*
X72037Y-52959D01*
X72007Y-52930D01*
X72007Y-51299D01*
X71978Y-51227D01*
X71922Y-51171D01*
X71850Y-51141D01*
X71772Y-51141D01*
X71699Y-51171D01*
X71644Y-51226D01*
X71614Y-51299D01*
X71614Y-51377D01*
X71644Y-51449D01*
X71699Y-51505D01*
X71771Y-51535D01*
X71850Y-51535D01*
X71922Y-51505D01*
X71977Y-51450D01*
X72007Y-51377D01*
X72007Y-51299D01*
X72007Y-52930D01*
X71981Y-52904D01*
X71909Y-52874D01*
X71831Y-52873D01*
X71758Y-52903D01*
X71703Y-52959D01*
X71673Y-53031D01*
X71673Y-53109D01*
X71703Y-53182D01*
X71758Y-53237D01*
X71830Y-53267D01*
X71909Y-53267D01*
X71981Y-53237D01*
X72036Y-53182D01*
X72066Y-53110D01*
X72066Y-53031D01*
X72066Y-53804D01*
X72007Y-53779D01*
X71929Y-53779D01*
X71857Y-53809D01*
X71801Y-53864D01*
X71771Y-53936D01*
X71752Y-53936D01*
X71679Y-53966D01*
X71624Y-54022D01*
X71594Y-54094D01*
X71594Y-54172D01*
X71624Y-54245D01*
X71640Y-54261D01*
X71624Y-54278D01*
X71594Y-54350D01*
X71594Y-54428D01*
X71624Y-54501D01*
X71679Y-54556D01*
X71752Y-54586D01*
X71830Y-54586D01*
X71902Y-54556D01*
X71958Y-54501D01*
X71988Y-54429D01*
X71988Y-54350D01*
X71958Y-54278D01*
X71941Y-54261D01*
X71958Y-54245D01*
X71988Y-54173D01*
X72007Y-54173D01*
X72079Y-54143D01*
X72135Y-54088D01*
X72165Y-54015D01*
X72165Y-53937D01*
X72165Y-55078D01*
X71282Y-55078D01*
X70534Y-55826D01*
X67795Y-55826D01*
X67795Y-54881D01*
X68031Y-54881D01*
X68031Y-54920D01*
X68061Y-54993D01*
X68116Y-55048D01*
X68189Y-55078D01*
X68267Y-55078D01*
X68339Y-55048D01*
X68395Y-54993D01*
X68425Y-54921D01*
X68425Y-54881D01*
X68562Y-54881D01*
X68562Y-54913D01*
X68543Y-54960D01*
X68543Y-55038D01*
X68573Y-55111D01*
X68628Y-55166D01*
X68700Y-55196D01*
X68779Y-55196D01*
X68851Y-55166D01*
X68906Y-55111D01*
X68927Y-55062D01*
X68947Y-55111D01*
X69002Y-55166D01*
X69074Y-55196D01*
X69153Y-55196D01*
X69225Y-55166D01*
X69280Y-55111D01*
X69310Y-55039D01*
X69311Y-54961D01*
X69281Y-54888D01*
X69274Y-54881D01*
X69626Y-54881D01*
X69655Y-54953D01*
X69711Y-55009D01*
X69783Y-55039D01*
X69861Y-55039D01*
X69934Y-55009D01*
X69989Y-54954D01*
X70019Y-54881D01*
X70422Y-54881D01*
X70437Y-54897D01*
X70507Y-54944D01*
X70590Y-54960D01*
X70673Y-54944D01*
X70743Y-54897D01*
X70753Y-54881D01*
X70826Y-54881D01*
X70826Y-54583D01*
X71417Y-53992D01*
X71417Y-53790D01*
X71443Y-53764D01*
X71466Y-53708D01*
X71521Y-53685D01*
X71574Y-53633D01*
X71603Y-53564D01*
X71603Y-53490D01*
X71574Y-53421D01*
X71522Y-53368D01*
X71466Y-53345D01*
X71443Y-53290D01*
X71418Y-53264D01*
X71443Y-53239D01*
X71472Y-53171D01*
X71472Y-53096D01*
X71443Y-53028D01*
X71418Y-53002D01*
X71443Y-52977D01*
X71472Y-52909D01*
X71472Y-52834D01*
X71443Y-52765D01*
X71417Y-52739D01*
X71417Y-51416D01*
X71498Y-51335D01*
X71521Y-51325D01*
X71574Y-51273D01*
X71603Y-51204D01*
X71603Y-51130D01*
X71574Y-51061D01*
X71574Y-50590D01*
X71912Y-50590D01*
X72086Y-50764D01*
X72086Y-51259D01*
X72503Y-51259D01*
X72677Y-51433D01*
X72677Y-53020D01*
X72624Y-53041D01*
X72569Y-53097D01*
X72539Y-53169D01*
X72539Y-53247D01*
X72569Y-53320D01*
X72624Y-53375D01*
X72677Y-53397D01*
X72677Y-54747D01*
M02*
