G04 (created by PCBNEW (2013-07-07 BZR 4022)-stable) date 19/11/2015 00:50:25*
%MOIN*%
G04 Gerber Fmt 3.4, Leading zero omitted, Abs format*
%FSLAX34Y34*%
G01*
G70*
G90*
G04 APERTURE LIST*
%ADD10C,0.00590551*%
%ADD11R,0.0177165X0.0570866*%
%ADD12R,0.0392X0.0392*%
%ADD13R,0.0195X0.0195*%
%ADD14R,0.0137795X0.011811*%
%ADD15R,0.011811X0.0137795*%
%ADD16R,0.0606299X0.0362205*%
%ADD17R,0.011811X0.015748*%
%ADD18R,0.023622X0.015748*%
%ADD19R,0.0649X0.0299*%
%ADD20R,0.129921X0.0393701*%
%ADD21R,0.0393701X0.129921*%
%ADD22R,0.0393701X0.102362*%
%ADD23R,0.0566929X0.00905512*%
%ADD24R,0.0649606X0.0299213*%
%ADD25R,0.0259X0.014*%
%ADD26C,0.00866142*%
G04 APERTURE END LIST*
G54D10*
G54D11*
X79832Y-57696D03*
X79576Y-57696D03*
X79320Y-57696D03*
X79064Y-57696D03*
X79064Y-55374D03*
X79320Y-55374D03*
X79576Y-55374D03*
X79832Y-55374D03*
G54D12*
X61023Y-60629D03*
X61023Y-46062D03*
X82283Y-60629D03*
X82283Y-46062D03*
G54D13*
X67106Y-54606D03*
X67106Y-54252D03*
X66811Y-55118D03*
X66811Y-55472D03*
X67165Y-55118D03*
X67165Y-55472D03*
X76555Y-56023D03*
X76909Y-56023D03*
G54D14*
X67893Y-56348D03*
X67893Y-56564D03*
G54D11*
X79064Y-51633D03*
X79320Y-51633D03*
X79576Y-51633D03*
X79832Y-51633D03*
X79832Y-53956D03*
X79576Y-53956D03*
X79320Y-53956D03*
X79064Y-53956D03*
G54D14*
X67244Y-51840D03*
X67244Y-52057D03*
X69232Y-54084D03*
X69232Y-54301D03*
X69822Y-54045D03*
X69822Y-53828D03*
X69114Y-55423D03*
X69114Y-55206D03*
G54D15*
X67883Y-56062D03*
X67667Y-56062D03*
X69438Y-54724D03*
X69222Y-54724D03*
X66289Y-52204D03*
X66505Y-52204D03*
G54D14*
X71870Y-52844D03*
X71870Y-52627D03*
G54D15*
X70580Y-52618D03*
X70797Y-52618D03*
G54D14*
X68110Y-52037D03*
X68110Y-51820D03*
G54D15*
X68218Y-53523D03*
X68435Y-53523D03*
X69143Y-53523D03*
X69360Y-53523D03*
G54D14*
X67224Y-52765D03*
X67224Y-52549D03*
X70187Y-53730D03*
X70187Y-53513D03*
X70314Y-50383D03*
X70314Y-50167D03*
X68188Y-49891D03*
X68188Y-49675D03*
G54D15*
X70068Y-48818D03*
X69852Y-48818D03*
G54D14*
X69744Y-49596D03*
X69744Y-49379D03*
G54D15*
X72293Y-55511D03*
X72509Y-55511D03*
G54D14*
X68740Y-55206D03*
X68740Y-55423D03*
X70590Y-54950D03*
X70590Y-55167D03*
X70187Y-54438D03*
X70187Y-54655D03*
G54D15*
X72175Y-50964D03*
X71958Y-50964D03*
G54D14*
X71653Y-51190D03*
X71653Y-50974D03*
G54D15*
X71624Y-53897D03*
X71407Y-53897D03*
X72312Y-53956D03*
X72529Y-53956D03*
G54D14*
X71968Y-53769D03*
X71968Y-53553D03*
X71023Y-54911D03*
X71023Y-54694D03*
G54D15*
X70797Y-54448D03*
X71013Y-54448D03*
G54D14*
X67893Y-55423D03*
X67893Y-55206D03*
G54D15*
X71624Y-50669D03*
X71407Y-50669D03*
X70935Y-50767D03*
X71151Y-50767D03*
G54D14*
X69744Y-50659D03*
X69744Y-50875D03*
G54D15*
X69694Y-50255D03*
X69911Y-50255D03*
X68120Y-50216D03*
X67903Y-50216D03*
X70639Y-51082D03*
X70423Y-51082D03*
X71407Y-51673D03*
X71624Y-51673D03*
X71072Y-51673D03*
X70856Y-51673D03*
G54D14*
X67539Y-50423D03*
X67539Y-50206D03*
X68110Y-50777D03*
X68110Y-50994D03*
X69409Y-50659D03*
X69409Y-50875D03*
G54D15*
X69124Y-49586D03*
X69340Y-49586D03*
G54D14*
X71417Y-54498D03*
X71417Y-54281D03*
X68110Y-51505D03*
X68110Y-51289D03*
X67244Y-51072D03*
X67244Y-50856D03*
X68622Y-50659D03*
X68622Y-50875D03*
G54D15*
X68553Y-49940D03*
X68769Y-49940D03*
G54D14*
X68779Y-49379D03*
X68779Y-49596D03*
G54D15*
X70088Y-49173D03*
X70305Y-49173D03*
X71151Y-52263D03*
X70935Y-52263D03*
X71702Y-52263D03*
X71486Y-52263D03*
X70580Y-52992D03*
X70797Y-52992D03*
G54D14*
X69822Y-54438D03*
X69822Y-54655D03*
X68799Y-53730D03*
X68799Y-53513D03*
G54D15*
X68809Y-54468D03*
X68592Y-54468D03*
X68297Y-54606D03*
X68080Y-54606D03*
G54D13*
X76870Y-52263D03*
X76870Y-51909D03*
X75157Y-49055D03*
X75511Y-49055D03*
X76909Y-54291D03*
X76555Y-54291D03*
X76850Y-53306D03*
X76850Y-52952D03*
G54D14*
X71535Y-52923D03*
X71535Y-52706D03*
G54D13*
X66771Y-50177D03*
X66771Y-49823D03*
G54D14*
X69448Y-55344D03*
X69448Y-55127D03*
G54D13*
X71791Y-54744D03*
X71791Y-55098D03*
X66692Y-54606D03*
X66692Y-54252D03*
G54D15*
X70265Y-54015D03*
X70482Y-54015D03*
G54D13*
X79822Y-54803D03*
X79468Y-54803D03*
X78641Y-53307D03*
X78287Y-53307D03*
X79074Y-54527D03*
X78720Y-54527D03*
G54D14*
X69133Y-49931D03*
X69133Y-50147D03*
G54D15*
X72312Y-53562D03*
X72529Y-53562D03*
G54D14*
X70629Y-53316D03*
X70629Y-53533D03*
G54D13*
X76555Y-56437D03*
X76909Y-56437D03*
X78760Y-49921D03*
X79114Y-49921D03*
X76062Y-50806D03*
X76062Y-50452D03*
X76909Y-53917D03*
X76555Y-53917D03*
G54D16*
X76515Y-49448D03*
G54D17*
X76614Y-48877D03*
X76614Y-50019D03*
G54D18*
X77165Y-49822D03*
X77165Y-49448D03*
X77165Y-49074D03*
X76062Y-49074D03*
X76062Y-49448D03*
X76062Y-49822D03*
G54D19*
X75526Y-51790D03*
X74275Y-51290D03*
X74275Y-51790D03*
X74275Y-52290D03*
X75526Y-52290D03*
X75526Y-51290D03*
G54D20*
X71811Y-48287D03*
X71811Y-58326D03*
X77362Y-48287D03*
G54D21*
X77814Y-48740D03*
G54D20*
X66259Y-48287D03*
G54D21*
X65807Y-48740D03*
X77814Y-57874D03*
G54D20*
X77362Y-58326D03*
X66259Y-58326D03*
G54D21*
X65807Y-57874D03*
G54D20*
X74586Y-58326D03*
X69035Y-58326D03*
X69035Y-48287D03*
G54D22*
X65807Y-54783D03*
X65807Y-51830D03*
X77814Y-54783D03*
X77814Y-51830D03*
G54D20*
X74586Y-48287D03*
G54D23*
X64791Y-53543D03*
X64791Y-53858D03*
X64791Y-53700D03*
X64791Y-54015D03*
X64791Y-54645D03*
X64791Y-54488D03*
X64791Y-54173D03*
X64791Y-54330D03*
X64791Y-55905D03*
X64791Y-55748D03*
X64791Y-55433D03*
X64791Y-55590D03*
X64791Y-54960D03*
X64791Y-54803D03*
X64791Y-55118D03*
X64791Y-55275D03*
X64791Y-56535D03*
X64791Y-56377D03*
X64791Y-56062D03*
X64791Y-56220D03*
X64791Y-56850D03*
X64791Y-56692D03*
X64791Y-57007D03*
X64791Y-57165D03*
X63870Y-55433D03*
X63870Y-55275D03*
X63870Y-54960D03*
X63870Y-55118D03*
X63870Y-56692D03*
X63870Y-56535D03*
X63870Y-56220D03*
X63870Y-56377D03*
X63870Y-55748D03*
X63870Y-55590D03*
X63870Y-55905D03*
X63870Y-56062D03*
X63870Y-57165D03*
X63870Y-56850D03*
X63870Y-57007D03*
X64791Y-53385D03*
X63870Y-54488D03*
X63870Y-54330D03*
X63870Y-54015D03*
X63870Y-54173D03*
X63870Y-54803D03*
X63870Y-54645D03*
X63870Y-53543D03*
X63870Y-53385D03*
X63870Y-53700D03*
X63870Y-53858D03*
X63870Y-50078D03*
X63870Y-49921D03*
X63870Y-49606D03*
X63870Y-49763D03*
X64791Y-50078D03*
X64791Y-49921D03*
X64791Y-49606D03*
X64791Y-49763D03*
X64791Y-49448D03*
X63870Y-49448D03*
X63870Y-50708D03*
X63870Y-50551D03*
X63870Y-50236D03*
X63870Y-50393D03*
X64791Y-50708D03*
X64791Y-50551D03*
X64791Y-50236D03*
X64791Y-50393D03*
X63870Y-51968D03*
X63870Y-51811D03*
X63870Y-51496D03*
X63870Y-51653D03*
X64791Y-51968D03*
X64791Y-51811D03*
X64791Y-51496D03*
X64791Y-51653D03*
X64791Y-51023D03*
X64791Y-50866D03*
X64791Y-51181D03*
X64791Y-51338D03*
X63870Y-51023D03*
X63870Y-50866D03*
X63870Y-51181D03*
X63870Y-51338D03*
X63870Y-52598D03*
X63870Y-52440D03*
X63870Y-52125D03*
X63870Y-52283D03*
X64791Y-52598D03*
X64791Y-52440D03*
X64791Y-52125D03*
X64791Y-52283D03*
X64791Y-52913D03*
X64791Y-52755D03*
X64791Y-53070D03*
X64791Y-53228D03*
X63870Y-52913D03*
X63870Y-52755D03*
X63870Y-53070D03*
X63870Y-53228D03*
G54D24*
X73124Y-49057D03*
X73124Y-50057D03*
X74375Y-49057D03*
X74375Y-50057D03*
X74375Y-49557D03*
X73124Y-49557D03*
G54D13*
X71614Y-49468D03*
X71968Y-49468D03*
X71614Y-49153D03*
X71968Y-49153D03*
G54D25*
X71240Y-49481D03*
X71240Y-49141D03*
X72342Y-49481D03*
X72342Y-49141D03*
G54D13*
X79114Y-50571D03*
X79114Y-50925D03*
X78779Y-50571D03*
X78779Y-50925D03*
G54D25*
X79448Y-50268D03*
X79448Y-49928D03*
G54D13*
X75826Y-56062D03*
X76180Y-56062D03*
X74763Y-55964D03*
X74763Y-56318D03*
X74409Y-55610D03*
X74763Y-55610D03*
G54D26*
X75255Y-56062D03*
X75255Y-56220D03*
X75413Y-56220D03*
X75413Y-56062D03*
M02*
